<?xml version="1.0" standalone="no"?>
<!DOCTYPE svg PUBLIC "-//W3C//DTD SVG 20010904//EN"
 "http://www.w3.org/TR/2001/REC-SVG-20010904/DTD/svg10.dtd">
<svg version="1.0" xmlns="http://www.w3.org/2000/svg"
 width="1464.000000pt" height="1451.000000pt" viewBox="0 0 1464.000000 1451.000000"
 preserveAspectRatio="xMidYMid meet">
<metadata>
Created by potrace 1.13, written by Peter Selinger 2001-2015
</metadata>
<g transform="translate(0.000000,1451.000000) scale(0.100000,-0.100000)"
fill="#000000" stroke="none">
<path d="M12240 11129 c-60 -35 -112 -40 -227 -25 l-62 9 -36 -36 c-19 -19
-35 -43 -35 -53 0 -14 6 -11 28 14 37 45 91 57 150 35 52 -19 119 -8 198 34
85 46 166 27 199 -46 35 -79 82 -92 227 -62 66 14 92 5 143 -49 17 -17 60 -50
98 -72 37 -22 78 -53 91 -69 24 -29 46 -38 46 -20 0 23 -55 71 -129 114 -44
26 -86 57 -92 69 -30 56 -91 76 -174 57 -113 -25 -124 -24 -161 12 -19 18 -34
37 -34 42 0 4 -13 22 -28 38 -24 26 -38 31 -88 35 -52 4 -65 1 -114 -27z"/>
<path d="M11848 10961 c-15 -27 -14 -41 2 -41 8 0 30 45 30 60 0 19 -15 9 -32
-19z"/>
<path d="M12072 10961 c-7 -19 -7 -129 0 -161 5 -23 50 -70 82 -87 33 -17 27
0 -11 30 -13 10 -31 33 -39 50 -18 33 -24 129 -11 165 5 14 5 22 -3 22 -6 0
-14 -9 -18 -19z"/>
<path d="M12197 10951 c-2 -10 -1 -25 4 -32 7 -11 9 -11 9 3 0 9 3 23 6 32 3
9 2 16 -4 16 -5 0 -12 -9 -15 -19z"/>
<path d="M12357 10950 c-37 -43 -58 -168 -30 -177 8 -3 11 5 8 27 -5 41 19
131 39 146 9 6 16 14 16 18 0 12 -16 6 -33 -14z"/>
<path d="M11800 10903 c-18 -6 -90 -53 -107 -70 -7 -6 -16 -13 -20 -15 -5 -1
-16 -18 -26 -35 -17 -30 -17 -33 -2 -33 9 0 19 8 22 18 6 22 87 88 136 109 50
23 48 44 -3 26z"/>
<path d="M11967 10903 c-4 -3 -7 -11 -7 -17 0 -6 5 -5 12 2 6 6 9 14 7 17 -3
3 -9 2 -12 -2z"/>
<path d="M12472 10890 c-16 -27 -25 -97 -12 -105 6 -3 10 4 10 17 0 13 9 42
20 66 20 44 7 61 -18 22z"/>
<path d="M12190 10885 c0 -17 30 -73 49 -89 31 -28 34 -15 5 19 -13 16 -27 39
-30 52 -5 20 -24 34 -24 18z"/>
<path d="M13483 10869 c-18 -12 -33 -25 -33 -30 0 -5 -4 -9 -10 -9 -5 0 -9 5
-7 12 3 18 -29 21 -45 4 -22 -21 -149 -86 -170 -86 -9 0 -19 -3 -21 -7 -6 -10
-71 -9 -116 1 l-33 8 6 -49 c8 -66 25 -113 41 -113 11 0 11 5 0 27 l-14 27 89
18 c104 21 185 54 241 99 22 17 42 30 44 27 5 -5 -40 -51 -78 -79 -15 -12 -26
-23 -23 -26 6 -6 42 13 66 35 10 9 37 31 59 47 22 17 40 34 41 40 0 5 -5 4
-12 -3 -7 -7 -19 -12 -27 -12 -9 0 5 19 34 45 46 41 48 44 25 44 -14 1 -40 -9
-57 -20z m-188 -131 c-11 -6 -22 -15 -25 -19 -3 -4 -43 -14 -89 -24 -69 -14
-85 -15 -92 -3 -17 26 -2 33 79 38 44 3 84 9 88 13 4 4 19 7 33 7 25 -1 25 -1
6 -12z"/>
<path d="M12640 10867 c-20 -16 -60 -84 -60 -103 0 -27 18 -14 30 21 6 19 25
49 42 65 28 29 19 42 -12 17z"/>
<path d="M11940 10835 c-7 -19 -5 -37 7 -68 18 -47 41 -78 28 -37 -5 14 -9 49
-9 78 -1 56 -11 67 -26 27z"/>
<path d="M12738 10788 c-26 -30 -46 -84 -35 -95 3 -3 12 10 20 29 8 19 28 46
46 60 35 30 38 38 14 38 -10 0 -30 -14 -45 -32z"/>
<path d="M11849 10800 c-1 -5 -1 -19 -1 -30 0 -39 2 -50 10 -50 4 0 8 20 8 45
-1 25 -4 45 -8 45 -5 0 -8 -4 -9 -10z"/>
<path d="M11765 10740 c-7 -30 -1 -50 15 -50 11 0 10 69 -1 76 -4 2 -10 -9
-14 -26z"/>
<path d="M5946 10751 c5 -5 63 -30 129 -57 66 -27 156 -67 200 -89 102 -52
165 -77 165 -66 0 5 -9 13 -20 16 -11 3 -20 11 -20 16 0 5 -5 9 -11 9 -6 0
-40 14 -76 30 -35 17 -67 30 -70 30 -3 0 -19 6 -36 14 -18 8 -54 24 -82 36
-27 11 -57 24 -65 29 -9 5 -30 12 -48 15 -17 4 -34 12 -37 17 -4 5 -14 9 -23
9 -10 0 -12 -3 -6 -9z"/>
<path d="M12458 10735 c2 -14 8 -25 13 -25 10 0 11 12 3 34 -10 25 -22 19 -16
-9z"/>
<path d="M5800 10745 c0 -5 103 -55 113 -55 8 0 223 -97 270 -121 20 -11 37
-16 37 -10 0 9 -93 57 -195 101 -11 5 -41 18 -67 29 -26 12 -51 21 -56 21 -4
0 -27 9 -50 20 -42 21 -52 23 -52 15z"/>
<path d="M5405 10731 c11 -5 61 -22 110 -37 50 -15 113 -38 142 -51 28 -12 54
-23 58 -23 3 0 23 -11 43 -25 38 -26 72 -33 72 -15 0 6 -5 10 -12 10 -6 0 -34
11 -62 24 -28 13 -73 33 -101 45 -27 12 -62 28 -77 36 -14 8 -35 15 -45 15
-10 0 -23 4 -28 9 -6 5 -35 12 -65 15 -38 4 -49 3 -35 -3z"/>
<path d="M6159 10724 c18 -8 36 -13 39 -10 8 9 0 13 -38 20 l-35 6 34 -16z"/>
<path d="M11625 10711 c5 -24 2 -30 -14 -36 -12 -3 -21 -13 -21 -21 0 -8 -5
-14 -11 -14 -5 0 -7 -4 -4 -10 3 -5 2 -10 -4 -10 -5 0 -11 5 -13 11 -2 6 -19
9 -38 7 l-35 -4 27 -11 c14 -7 29 -17 33 -23 3 -5 11 -8 16 -4 5 3 49 -15 97
-39 97 -49 189 -74 206 -57 5 5 19 10 31 10 11 0 43 12 70 25 52 26 158 35
170 15 3 -5 20 -14 38 -19 65 -20 163 -57 192 -73 78 -42 97 -77 154 -273 17
-58 29 -78 68 -116 46 -44 187 -120 251 -135 29 -7 161 -45 257 -74 154 -47
297 -100 355 -132 36 -19 76 -39 89 -43 14 -4 36 -18 49 -31 14 -12 40 -31 59
-41 18 -9 33 -21 33 -26 0 -4 17 -31 39 -60 54 -74 87 -143 111 -232 18 -66
19 -82 8 -113 -14 -42 -61 -90 -95 -98 -13 -4 -23 -11 -23 -16 0 -6 -11 -8
-27 -3 -16 3 -59 10 -98 14 -38 5 -71 14 -73 20 -2 6 -10 11 -18 11 -7 0 -40
13 -71 29 -119 60 -194 91 -235 97 -60 9 -38 -9 37 -31 33 -10 65 -23 70 -29
6 -6 28 -17 50 -25 22 -7 47 -19 55 -25 38 -31 182 -86 222 -86 24 0 53 -7 64
-15 18 -12 20 -20 14 -60 -5 -31 -3 -48 6 -56 9 -8 13 3 16 48 2 32 0 63 -4
70 -11 14 -4 18 42 27 92 17 119 94 89 246 -11 56 -85 210 -100 210 -5 0 -9 4
-9 10 0 44 -204 205 -285 226 -14 3 -28 10 -31 15 -7 12 -132 69 -166 76 -16
3 -31 10 -34 14 -3 5 -13 9 -22 9 -9 0 -29 6 -43 14 -14 7 -42 16 -61 20 -33
6 -53 15 -154 70 -47 25 -122 98 -143 139 -8 15 -18 27 -23 27 -4 0 -8 11 -8
24 0 14 -4 27 -9 31 -5 3 -12 19 -16 35 -4 17 -13 30 -21 30 -12 0 -12 -4 2
-25 34 -52 2 -185 -45 -185 -22 0 -81 40 -81 56 0 7 15 17 33 22 40 10 51 48
15 55 l-23 4 24 2 c23 1 24 2 6 21 -11 12 -31 20 -51 20 -27 0 -35 -5 -40 -25
-3 -14 -10 -25 -16 -25 -5 0 -7 4 -3 9 3 5 1 12 -5 16 -5 3 -15 25 -21 48 -6
23 -12 44 -13 46 0 3 27 4 62 2 39 -1 62 2 62 8 0 6 -6 11 -14 11 -7 0 -19 7
-26 15 -9 11 -16 13 -24 5 -16 -16 -66 -12 -67 5 -2 23 -4 28 -17 53 -7 12
-18 22 -23 22 -6 0 -20 11 -31 25 -11 14 -24 25 -30 25 -5 0 -24 6 -41 14 -91
41 -127 56 -137 56 -6 0 -28 11 -50 25 -72 45 -143 41 -254 -17 -24 -13 -148
-12 -173 0 -10 5 -48 24 -85 43 -38 18 -68 36 -68 41 0 4 9 17 20 28 26 26 36
90 14 90 -12 0 -14 -7 -9 -29z m990 -541 c3 -5 1 -10 -4 -10 -6 0 -11 5 -11
10 0 6 2 10 4 10 3 0 8 -4 11 -10z m197 -102 c12 -18 43 -52 68 -75 52 -48 41
-55 -42 -23 -107 42 -109 43 -93 70 8 14 18 33 21 43 9 25 20 21 46 -15z"/>
<path d="M12575 10730 c-3 -5 -3 -10 2 -11 20 -1 -35 -18 -64 -18 -17 -1 -35
-5 -38 -11 -3 -5 -40 -10 -81 -10 l-74 0 -55 -52 c-30 -29 -55 -59 -55 -67 1
-9 22 7 50 39 l49 55 83 1 c46 0 92 5 103 11 31 16 101 24 127 14 31 -12 105
-84 101 -98 -2 -6 13 -17 34 -23 21 -7 48 -22 60 -33 35 -31 37 -15 3 23 -21
23 -28 40 -25 54 6 20 5 20 -8 4 -8 -10 -21 -18 -28 -18 -19 0 -74 63 -60 68
20 7 11 17 -16 19 -15 0 -29 6 -31 12 -2 6 -13 11 -24 11 -11 0 -22 8 -25 20
-6 22 -18 26 -28 10z"/>
<path d="M5158 10723 c7 -3 16 -2 19 1 4 3 -2 6 -13 5 -11 0 -14 -3 -6 -6z"/>
<path d="M5680 10718 c14 -5 49 -21 78 -34 28 -13 52 -20 52 -16 0 11 -112 62
-135 61 -17 0 -16 -2 5 -11z"/>
<path d="M12860 10713 c-37 -26 -47 -37 -55 -63 -6 -20 0 -16 30 18 25 28 45
42 61 42 14 0 22 4 19 10 -9 15 -27 12 -55 -7z"/>
<path d="M5215 10711 c38 -17 175 -53 188 -48 6 2 -1 8 -18 12 -16 4 -48 13
-70 20 -52 17 -128 29 -100 16z"/>
<path d="M6410 10702 c0 -10 120 -56 127 -48 3 3 -7 10 -23 16 -16 6 -38 14
-49 19 -35 16 -55 21 -55 13z"/>
<path d="M11997 10694 c6 -15 23 -19 23 -5 0 5 -7 11 -14 14 -10 4 -13 1 -9
-9z"/>
<path d="M6243 10689 c9 -5 54 -25 100 -43 104 -43 194 -82 230 -102 16 -9 31
-14 34 -11 4 5 -180 97 -262 132 -67 29 -139 45 -102 24z"/>
<path d="M6590 10696 c0 -2 21 -14 48 -26 111 -51 280 -132 317 -152 105 -57
157 -79 173 -75 13 3 11 6 -10 15 -15 6 -44 22 -65 35 -21 13 -49 28 -62 32
-14 4 -46 21 -72 37 -26 16 -68 36 -94 45 -27 9 -73 29 -104 44 -31 16 -64 29
-73 29 -9 0 -20 5 -23 10 -6 10 -35 14 -35 6z"/>
<path d="M6775 10686 c11 -7 45 -25 75 -39 141 -65 299 -145 321 -163 8 -6 28
-16 44 -22 17 -5 38 -13 48 -17 9 -4 17 -3 17 3 0 5 -8 12 -17 16 -10 3 -25
10 -33 15 -8 5 -64 33 -125 62 -60 29 -112 55 -115 58 -6 7 -68 38 -152 75
-61 28 -95 34 -63 12z"/>
<path d="M11875 10680 c10 -11 20 -18 23 -15 7 6 -18 35 -31 35 -5 0 -2 -9 8
-20z"/>
<path d="M11780 10670 c0 -5 5 -10 11 -10 5 0 7 5 4 10 -3 6 -8 10 -11 10 -2
0 -4 -4 -4 -10z"/>
<path d="M13265 10660 c-22 -11 -50 -19 -62 -20 -13 0 -23 -4 -23 -10 0 -5 -9
-10 -20 -10 -11 0 -20 -4 -20 -10 0 -12 35 -13 58 -1 9 4 35 12 57 15 37 7 39
6 20 -8 -34 -25 6 -30 49 -6 34 21 51 48 22 37 -20 -8 -28 4 -15 20 17 20 -18
16 -66 -7z"/>
<path d="M5100 10667 c0 -9 110 -38 128 -34 10 2 -5 9 -33 16 -27 7 -60 15
-72 18 -13 3 -23 3 -23 0z"/>
<path d="M5835 10651 c7 -13 176 -93 182 -87 3 3 -7 11 -23 18 -16 7 -45 22
-64 33 -41 25 -103 48 -95 36z"/>
<path d="M6980 10651 c0 -5 17 -15 38 -21 20 -7 87 -36 148 -66 60 -29 121
-58 135 -63 13 -6 31 -15 39 -20 39 -25 203 -101 207 -97 3 3 -7 11 -23 18
-16 7 -31 15 -34 18 -5 5 -27 17 -170 93 -52 27 -97 53 -100 57 -3 4 -16 10
-30 14 -14 4 -34 11 -45 16 -39 17 -154 60 -159 60 -3 0 -6 -4 -6 -9z"/>
<path d="M4825 10639 c44 -6 126 -19 182 -29 111 -22 130 -24 119 -13 -19 19
-147 41 -281 47 l-100 5 80 -10z"/>
<path d="M5450 10643 c0 -10 97 -53 120 -53 22 0 -1 17 -45 33 -22 8 -48 18
-57 22 -10 4 -18 3 -18 -2z"/>
<path d="M6560 10640 c0 -6 15 -17 33 -25 17 -8 75 -33 127 -56 52 -22 107
-50 122 -60 14 -10 32 -19 39 -19 19 0 -23 36 -52 45 -13 4 -35 15 -49 25 -14
10 -57 31 -96 48 -107 47 -124 53 -124 42z"/>
<path d="M11425 10619 c-41 -19 -40 -23 5 -19 28 2 44 14 39 28 -2 5 -22 1
-44 -9z"/>
<path d="M5258 10623 c7 -3 16 -2 19 1 4 3 -2 6 -13 5 -11 0 -14 -3 -6 -6z"/>
<path d="M10646 10610 c-45 -6 -55 -12 -118 -80 -37 -40 -68 -76 -68 -80 0 -4
-12 -13 -27 -20 -33 -16 -27 -14 -83 -24 -74 -14 -160 -68 -160 -101 0 -8 -6
-18 -14 -22 -8 -5 -17 -23 -21 -41 -6 -34 -21 -66 -42 -89 -27 -30 -50 -81
-52 -115 -2 -52 15 -48 23 5 7 44 30 87 46 87 5 0 33 -25 62 -55 28 -30 54
-53 56 -51 8 9 -44 75 -75 96 -31 21 -32 25 -20 44 8 12 17 33 21 49 7 31 15
33 59 11 35 -19 68 -49 85 -79 11 -18 11 -19 12 -2 0 39 -35 80 -88 103 -47
21 -52 26 -42 44 14 26 69 67 102 75 23 6 34 1 61 -26 18 -19 41 -45 50 -58 9
-14 20 -22 23 -18 6 6 -58 93 -81 109 -6 5 -4 8 5 8 33 0 99 46 165 115 82 85
99 95 160 95 34 0 47 -4 52 -17 3 -10 14 -30 25 -44 15 -23 25 -58 44 -157 3
-13 9 -20 14 -17 11 7 11 43 0 70 -5 11 -11 37 -15 58 -3 20 -10 37 -15 37 -6
0 -10 5 -10 11 0 7 -8 18 -17 26 -16 13 -13 14 25 9 25 -4 42 -2 42 4 0 5 -7
10 -15 10 -9 0 -28 6 -43 14 -39 19 -71 24 -126 16z"/>
<path d="M5369 10590 c30 -11 57 -18 59 -15 6 6 -45 25 -83 31 -18 3 -8 -4 24
-16z"/>
<path d="M7256 10596 c11 -8 43 -23 71 -34 99 -37 442 -206 453 -222 9 -13 80
-39 80 -29 0 5 -5 9 -10 9 -6 0 -23 11 -38 25 -15 14 -58 42 -97 61 -38 20
-92 49 -120 65 -27 16 -57 29 -67 29 -9 0 -18 3 -20 8 -4 9 -109 52 -129 52
-9 0 -19 3 -23 7 -8 9 -97 43 -111 43 -5 0 0 -6 11 -14z"/>
<path d="M10940 10600 c-10 -6 12 -9 68 -9 49 0 80 4 77 10 -8 12 -126 12
-145 -1z"/>
<path d="M12938 10592 c-16 -9 -28 -23 -28 -29 0 -7 -5 -13 -12 -13 -6 0 -8
-3 -5 -7 4 -3 19 4 33 18 14 13 36 24 50 24 13 0 25 5 26 10 5 17 -35 15 -64
-3z"/>
<path d="M4556 10581 c-7 -10 101 -18 174 -13 27 2 178 -14 231 -25 23 -4 30
-3 25 5 -4 7 -20 12 -36 12 -16 0 -39 4 -52 9 -40 15 -334 25 -342 12z"/>
<path d="M5150 10580 c8 -5 26 -9 40 -9 23 0 23 1 5 9 -11 5 -29 9 -40 9 -17
1 -17 -1 -5 -9z"/>
<path d="M11110 10579 c0 -6 9 -13 20 -16 11 -3 20 -11 20 -17 0 -7 12 -23 26
-37 l26 -24 -4 30 c-2 19 -11 34 -26 41 -13 6 -29 17 -35 23 -14 14 -27 14
-27 0z"/>
<path d="M13090 10585 c0 -45 91 -142 173 -184 43 -22 55 -23 152 -19 62 4
112 11 120 18 9 7 18 10 21 7 20 -20 -96 -104 -185 -133 -39 -12 -58 -14 -79
-6 -15 6 -47 13 -71 17 -84 11 -141 35 -147 62 -4 15 -12 22 -21 19 -14 -6
-43 7 -75 33 -15 12 -15 15 -3 28 8 8 15 20 15 26 0 7 -12 -1 -25 -16 -14 -15
-25 -23 -25 -18 0 6 -9 11 -19 11 -11 0 -28 15 -41 35 -22 35 -47 49 -36 19
12 -31 51 -73 80 -85 16 -7 56 -30 87 -51 116 -77 276 -120 362 -97 70 18 155
69 198 118 22 25 51 58 65 73 25 28 25 48 0 48 -15 0 -78 -30 -86 -40 -3 -4
-23 -16 -45 -26 -29 -14 -62 -19 -120 -19 -75 0 -83 2 -137 37 -63 41 -71 59
-35 76 19 10 17 11 -14 6 -39 -6 -63 11 -38 27 11 7 10 9 -4 9 -10 0 -25 7
-33 15 -15 15 -34 20 -34 10z"/>
<path d="M13208 10583 c-16 -2 -28 -9 -28 -14 0 -14 44 -11 66 6 20 15 16 16
-38 8z"/>
<path d="M7500 10572 c0 -7 232 -122 254 -126 6 -1 37 -18 68 -39 32 -20 73
-43 90 -52 18 -8 85 -46 148 -85 63 -38 118 -70 122 -70 22 0 3 19 -39 40 -27
13 -50 26 -53 30 -9 12 -207 128 -231 135 -13 4 -26 10 -29 14 -13 16 -262
141 -282 141 -9 0 -20 5 -23 10 -7 12 -25 13 -25 2z"/>
<path d="M10888 10573 c7 -3 16 -2 19 1 4 3 -2 6 -13 5 -11 0 -14 -3 -6 -6z"/>
<path d="M11270 10540 c-8 -5 -24 -11 -34 -15 -10 -3 -16 -8 -13 -11 7 -8 75
14 82 27 8 11 -15 11 -35 -1z"/>
<path d="M7770 10508 c54 -34 152 -84 180 -93 14 -4 39 -17 55 -29 17 -12 71
-44 120 -71 77 -42 156 -95 275 -184 55 -41 123 -82 128 -76 3 3 3 7 1 8 -64
52 -262 197 -270 197 -5 0 -23 12 -40 28 -16 15 -73 50 -126 77 -54 28 -100
53 -103 57 -3 3 -25 14 -50 23 -25 10 -75 32 -113 51 -76 38 -110 45 -57 12z"/>
<path d="M4301 10511 c-25 -16 4 -20 99 -12 52 5 137 7 188 5 55 -3 91 0 87 5
-7 12 -356 14 -374 2z"/>
<path d="M10630 10503 c0 -12 5 -25 10 -28 6 -3 10 -15 10 -26 0 -10 7 -19 15
-19 12 0 12 5 5 26 -6 14 -17 36 -25 47 l-15 21 0 -21z"/>
<path d="M10910 10508 c0 -14 39 -68 40 -55 0 11 -29 67 -35 67 -3 0 -5 -6 -5
-12z"/>
<path d="M4758 10493 c7 -3 16 -2 19 1 4 3 -2 6 -13 5 -11 0 -14 -3 -6 -6z"/>
<path d="M11204 10460 c3 -14 6 -28 6 -32 0 -5 4 -8 10 -8 14 0 7 37 -9 53
-11 10 -13 7 -7 -13z"/>
<path d="M4200 10424 c-88 -17 -105 -22 -97 -30 3 -3 21 -1 39 5 36 11 107 19
181 20 26 1 47 4 47 9 0 13 -93 11 -170 -4z"/>
<path d="M4380 10431 c0 -11 205 -10 216 2 4 4 -43 7 -104 7 -63 0 -112 -4
-112 -9z"/>
<path d="M10530 10430 c0 -5 5 -10 11 -10 5 0 7 5 4 10 -3 6 -8 10 -11 10 -2
0 -4 -4 -4 -10z"/>
<path d="M10936 10424 c-3 -9 -3 -20 0 -25 3 -6 2 -15 -4 -22 -15 -20 -22 -47
-12 -47 13 0 30 35 35 70 4 33 -9 49 -19 24z"/>
<path d="M12720 10395 c7 -8 22 -15 34 -15 21 1 21 1 2 15 -27 21 -53 20 -36
0z"/>
<path d="M4050 10390 c0 -5 4 -10 9 -10 6 0 13 5 16 10 3 6 -1 10 -9 10 -9 0
-16 -4 -16 -10z"/>
<path d="M8140 10392 c0 -5 8 -13 18 -16 19 -7 21 -8 147 -90 94 -61 249 -182
323 -251 47 -44 83 -63 42 -22 -14 13 -32 33 -41 43 -9 11 -32 33 -53 49 -21
17 -52 42 -69 57 -18 15 -35 28 -40 28 -4 0 -22 15 -40 33 -31 32 -81 70 -122
94 -17 10 -135 71 -157 81 -5 2 -8 -1 -8 -6z"/>
<path d="M10543 10365 c5 -51 17 -55 17 -7 0 23 -5 42 -10 42 -6 0 -9 -15 -7
-35z"/>
<path d="M10659 10388 c0 -7 -2 -22 -4 -32 -2 -11 -1 -24 2 -29 9 -15 31 33
25 55 -5 20 -22 25 -23 6z"/>
<path d="M11026 10368 c10 -18 18 -48 19 -67 1 -19 7 -37 14 -39 9 -3 11 6 5
34 -8 47 -33 104 -45 104 -5 0 -2 -15 7 -32z"/>
<path d="M11200 10332 c-8 -31 -14 -59 -14 -62 -1 -3 -12 -22 -25 -43 -13 -21
-20 -41 -17 -45 4 -3 9 4 13 16 3 12 8 22 12 22 8 0 37 57 57 112 10 30 10 39
0 47 -10 8 -16 -2 -26 -47z"/>
<path d="M12510 10380 c0 -11 33 -30 52 -30 7 0 2 9 -12 20 -28 22 -40 25 -40
10z"/>
<path d="M12610 10371 c0 -12 13 -20 50 -31 41 -12 38 3 -5 23 -41 20 -45 20
-45 8z"/>
<path d="M12795 10360 c3 -5 25 -10 48 -9 33 0 38 2 22 9 -28 12 -78 12 -70 0z"/>
<path d="M4120 10340 c-23 -14 -9 -19 43 -13 32 4 44 9 35 14 -17 11 -59 11
-78 -1z"/>
<path d="M4265 10340 c20 -8 104 -4 113 5 3 3 -26 5 -64 4 -46 0 -62 -3 -49
-9z"/>
<path d="M12710 10331 c0 -5 10 -11 23 -15 38 -10 43 -7 13 9 -33 17 -36 18
-36 6z"/>
<path d="M3933 10313 c-18 -2 -33 -9 -33 -14 0 -11 85 -2 110 12 16 9 -14 10
-77 2z"/>
<path d="M8452 10268 c131 -95 349 -298 487 -453 19 -21 36 -34 39 -27 3 11
-12 30 -118 145 -72 79 -214 212 -265 249 -5 5 -32 26 -60 49 -43 34 -104 69
-123 69 -3 0 15 -15 40 -32z"/>
<path d="M12650 10291 c0 -5 8 -11 18 -14 9 -2 26 -8 36 -13 13 -5 17 -4 13 3
-9 14 -67 35 -67 24z"/>
<path d="M4089 10256 c-5 -5 -54 -14 -117 -23 -23 -3 -45 -10 -48 -14 -7 -12
38 -11 70 1 14 5 53 12 87 15 77 7 114 24 53 25 -22 0 -43 -2 -45 -4z"/>
<path d="M10623 10207 c0 -7 -3 -29 -7 -49 -5 -30 -3 -38 9 -38 11 0 15 12 15
44 0 25 -4 47 -8 50 -5 3 -9 0 -9 -7z"/>
<path d="M10796 10174 c-19 -57 -19 -54 -1 -54 19 0 32 28 29 64 -4 43 -10 41
-28 -10z"/>
<path d="M3852 10199 c-85 -16 -291 -95 -292 -111 0 -4 19 2 43 12 23 10 95
35 161 54 152 47 189 65 88 45z"/>
<path d="M10505 10124 c4 -26 2 -45 -4 -49 -6 -3 -9 -11 -5 -16 3 -5 10 -7 15
-4 12 8 11 76 -2 95 -7 11 -8 4 -4 -26z"/>
<path d="M3830 10100 c-118 -28 -291 -80 -305 -93 -15 -13 55 1 165 34 52 15
124 33 159 40 48 9 60 14 45 20 -22 9 -19 9 -64 -1z"/>
<path d="M10630 10091 c0 -6 -8 -11 -19 -11 -10 0 -24 -7 -31 -15 -7 -8 -19
-15 -27 -15 -7 0 -16 -6 -19 -14 -3 -8 -22 -17 -42 -21 -42 -7 -87 -39 -77
-55 3 -5 2 -10 -4 -10 -17 0 -34 -42 -33 -78 1 -22 12 -46 32 -68 16 -19 30
-41 30 -49 0 -8 10 -17 23 -20 16 -4 42 7 92 39 39 25 79 53 91 63 11 10 29
20 40 21 10 2 45 13 77 24 32 11 64 17 72 14 8 -3 26 -30 40 -60 15 -31 31
-56 36 -56 14 0 11 20 -12 67 -12 24 -18 47 -15 51 20 19 74 -54 87 -117 l7
-36 1 38 c1 44 -16 82 -53 117 -23 21 -36 24 -87 23 -59 -2 -139 -24 -169 -48
-8 -6 -31 -19 -51 -28 -19 -9 -47 -28 -63 -42 -15 -14 -31 -25 -35 -25 -5 0
-14 -7 -21 -15 -17 -21 -27 -19 -36 8 -4 12 -17 36 -29 52 -29 39 -42 105 -21
105 8 0 27 11 42 25 15 14 36 25 46 25 11 0 31 13 46 29 49 53 95 70 170 64
37 -3 75 -9 84 -14 22 -12 85 -12 73 0 -24 23 -245 52 -245 32z"/>
<path d="M11000 10033 c0 -5 22 -28 49 -53 65 -60 92 -137 72 -208 -8 -26 -14
-55 -15 -64 0 -10 -3 -18 -7 -18 -4 0 -22 -24 -40 -52 -35 -55 -84 -108 -133
-146 -16 -12 -23 -22 -16 -22 16 0 64 36 113 85 113 113 159 241 121 342 -19
51 -44 92 -57 93 -4 0 -25 11 -47 25 -22 14 -40 22 -40 18z"/>
<path d="M8870 10006 c0 -3 35 -40 78 -84 70 -71 110 -118 167 -198 71 -98
107 -116 44 -21 -66 98 -117 156 -218 250 -57 53 -71 63 -71 53z"/>
<path d="M10040 9948 c-12 -24 -27 -46 -34 -50 -6 -4 -11 -11 -12 -15 0 -4 -4
-16 -8 -25 -13 -29 13 -112 47 -152 48 -55 56 -89 39 -160 -7 -34 -18 -66 -24
-73 -6 -7 -7 -13 -4 -13 4 0 -5 -17 -19 -37 -14 -21 -25 -41 -25 -45 0 -15 18
-8 23 10 3 9 12 28 20 42 8 14 20 37 28 53 16 36 28 34 62 -8 29 -36 87 -68
147 -80 71 -14 101 -26 91 -38 -5 -7 -10 -16 -11 -22 -3 -16 -34 -65 -41 -65
-7 0 -39 -29 -58 -52 -10 -13 -10 -18 -1 -18 13 0 76 63 117 116 14 19 34 34
45 34 29 0 5 36 -29 43 -133 26 -268 91 -268 128 0 4 -3 11 -7 15 -5 4 -8 24
-8 44 0 20 -3 40 -7 44 -4 3 -8 16 -10 27 -3 19 -38 77 -54 89 -3 3 -12 22
-19 44 -15 46 -3 99 36 158 26 41 28 48 15 48 -5 0 -19 -19 -31 -42z"/>
<path d="M3405 9963 c-18 -14 -18 -15 -2 -9 10 3 25 6 33 6 8 0 14 5 14 10 0
15 -22 12 -45 -7z"/>
<path d="M11975 9961 c-33 -8 -62 -18 -65 -22 -8 -11 -114 -45 -188 -59 -61
-12 -130 -10 -167 5 -19 7 -19 7 -3 -10 21 -23 146 -59 257 -76 77 -11 87 -15
120 -49 28 -29 48 -40 91 -49 60 -12 107 -9 142 10 37 19 68 51 68 71 0 26
-17 22 -24 -7 -14 -55 -145 -76 -224 -36 -42 21 -82 68 -82 95 0 9 -5 16 -11
16 -5 0 -8 -4 -5 -8 2 -4 2 -13 -2 -19 -6 -9 -29 -8 -92 1 -93 14 -92 16 25
42 44 10 82 21 85 24 25 34 147 48 221 26 57 -17 131 -78 178 -146 14 -19 49
-59 79 -87 45 -44 51 -53 34 -53 -12 0 -38 10 -59 21 -40 23 -138 58 -162 59
-11 0 -11 -3 -1 -15 7 -8 18 -15 24 -15 6 0 47 -18 92 -39 44 -21 107 -46 140
-56 32 -9 90 -26 127 -37 37 -11 70 -18 73 -15 5 5 -94 57 -109 57 -3 0 -28
14 -54 32 -51 34 -102 82 -144 139 -37 48 -149 162 -179 182 -42 27 -118 34
-185 18z"/>
<path d="M3630 9959 c-74 -14 -160 -42 -160 -52 0 -5 8 -6 18 -2 9 4 27 9 39
11 13 2 67 15 120 29 95 23 83 33 -17 14z"/>
<path d="M8715 9950 c3 -5 11 -10 16 -10 6 0 7 5 4 10 -3 6 -11 10 -16 10 -6
0 -7 -4 -4 -10z"/>
<path d="M10110 9951 c0 -13 41 -83 46 -78 5 4 -35 87 -41 87 -3 0 -5 -4 -5
-9z"/>
<path d="M3395 9893 c-11 -3 -24 -9 -30 -13 -5 -4 -25 -11 -42 -15 -18 -3 -33
-11 -33 -16 0 -12 37 -12 45 1 3 6 14 10 23 10 9 0 35 9 57 19 38 19 28 26
-20 14z"/>
<path d="M9090 9890 c-11 -7 -12 -12 -3 -21 15 -15 48 -7 48 11 0 18 -24 24
-45 10z"/>
<path d="M12030 9850 c-22 -41 28 -84 69 -58 48 30 32 78 -25 78 -23 0 -37 -6
-44 -20z"/>
<path d="M3218 9814 c-20 -9 -39 -22 -42 -29 -4 -10 8 -8 39 7 25 12 45 26 45
30 0 10 3 10 -42 -8z"/>
<path d="M3490 9820 c0 -13 11 -13 30 0 12 8 11 10 -7 10 -13 0 -23 -4 -23
-10z"/>
<path d="M3385 9795 c-54 -25 -120 -52 -142 -59 -13 -4 -23 -12 -23 -17 0 -5
17 -2 38 7 20 9 70 28 110 42 39 14 72 29 72 33 0 13 -21 11 -55 -6z"/>
<path d="M10090 9771 c0 -19 55 -74 87 -87 38 -16 67 -18 58 -4 -3 6 -14 10
-24 10 -10 0 -39 20 -64 45 -48 46 -57 52 -57 36z"/>
<path d="M9196 9748 c10 -13 21 -25 24 -28 3 -3 25 -27 49 -55 77 -88 226
-239 262 -266 87 -66 209 -109 307 -109 63 1 37 14 -56 29 -40 6 -80 15 -90
20 -9 4 -39 19 -67 32 -27 13 -61 34 -75 47 -13 12 -29 22 -34 22 -14 0 -180
176 -217 229 -18 27 -45 56 -61 65 -15 10 -28 21 -28 27 0 5 -7 9 -17 9 -14 0
-14 -3 3 -22z"/>
<path d="M10907 9750 c3 -11 7 -20 9 -20 2 0 4 9 4 20 0 11 -4 20 -9 20 -5 0
-7 -9 -4 -20z"/>
<path d="M10453 9708 c19 -53 19 -54 -33 -67 -70 -18 -54 -29 24 -18 75 12
105 3 168 -50 22 -18 37 -33 34 -33 -9 0 44 -104 58 -113 19 -12 86 -28 95
-22 5 3 7 13 4 23 -3 13 -14 19 -35 19 -35 0 -64 30 -98 99 -11 22 -30 46 -43
52 -69 36 -112 64 -136 91 -29 32 -47 41 -38 19z"/>
<path d="M10907 9710 c-3 -8 -8 -34 -11 -58 -4 -25 -21 -66 -41 -95 -19 -29
-35 -58 -35 -66 0 -21 59 50 60 71 0 9 4 19 9 23 12 7 34 111 28 128 -3 8 -6
8 -10 -3z"/>
<path d="M3405 9701 c-3 -6 -31 -18 -63 -27 -31 -10 -64 -23 -72 -30 -8 -7
-34 -17 -56 -23 -23 -6 -56 -21 -75 -34 -19 -12 -50 -30 -70 -41 -49 -26 -74
-45 -67 -52 4 -3 33 12 65 33 61 41 181 95 296 133 37 13 67 26 67 31 0 13
-18 20 -25 10z"/>
<path d="M3140 9680 c0 -5 4 -10 9 -10 6 0 13 5 16 10 3 6 -1 10 -9 10 -9 0
-16 -4 -16 -10z"/>
<path d="M3098 9653 c7 -3 16 -2 19 1 4 3 -2 6 -13 5 -11 0 -14 -3 -6 -6z"/>
<path d="M3060 9629 c0 -5 5 -7 10 -4 6 3 10 8 10 11 0 2 -4 4 -10 4 -5 0 -10
-5 -10 -11z"/>
<path d="M10161 9584 c15 -18 63 -44 81 -44 7 1 -4 10 -24 20 -20 11 -40 24
-43 30 -3 5 -11 10 -17 10 -6 0 -5 -6 3 -16z"/>
<path d="M13390 9553 c0 -12 57 -46 120 -72 95 -41 180 -111 180 -150 0 -14 4
-32 9 -40 11 -17 -3 -71 -21 -83 -25 -15 -83 -8 -125 16 -23 13 -59 30 -80 36
-21 7 -55 24 -76 37 -61 38 -65 21 -6 -19 122 -83 178 -110 228 -111 81 -3
119 47 100 131 -22 101 -47 125 -225 217 -89 46 -104 51 -104 38z"/>
<path d="M10523 9526 c-79 -28 -91 -41 -33 -32 46 7 110 35 110 48 0 11 -6 10
-77 -16z"/>
<path d="M3195 9533 c-11 -3 -43 -22 -70 -43 -28 -20 -60 -40 -73 -44 -12 -4
-22 -11 -22 -16 0 -5 -10 -12 -22 -16 -12 -3 -26 -10 -32 -15 -46 -37 -108
-79 -116 -79 -6 0 -10 -4 -10 -10 0 -17 14 -11 85 36 94 62 201 127 252 153
63 32 67 48 8 34z"/>
<path d="M13510 9468 c0 -3 13 -34 28 -68 25 -54 30 -60 35 -39 4 14 -1 35
-14 55 -18 30 -49 62 -49 52z"/>
<path d="M10868 9453 c-10 -2 -18 -9 -18 -14 0 -14 16 -11 30 6 7 8 11 14 9
14 -2 -1 -12 -3 -21 -6z"/>
<path d="M3125 9422 c-16 -8 -32 -18 -35 -22 -3 -4 -26 -19 -51 -33 -42 -25
-119 -91 -119 -103 0 -8 82 37 104 58 12 11 44 35 73 54 79 53 96 82 28 46z"/>
<path d="M10600 9424 c-14 -7 -33 -14 -42 -14 -10 0 -18 -4 -18 -10 0 -15 33
-12 56 5 10 8 29 15 41 15 12 0 25 5 28 10 9 14 -36 11 -65 -6z"/>
<path d="M10141 9399 c-11 -12 -18 -25 -16 -28 3 -3 15 5 27 17 12 12 19 24
16 27 -3 4 -15 -4 -27 -16z"/>
<path d="M2850 9399 c0 -5 5 -7 10 -4 6 3 10 8 10 11 0 2 -4 4 -10 4 -5 0 -10
-5 -10 -11z"/>
<path d="M10852 9348 c31 -31 43 -51 44 -73 1 -16 4 -46 8 -66 6 -27 4 -40 -8
-52 -9 -8 -16 -17 -16 -19 0 -2 20 -3 44 -4 45 -1 50 8 25 41 -12 16 -36 97
-37 124 -1 13 -7 28 -14 32 -7 5 -9 9 -5 9 16 0 -51 50 -68 50 -12 0 -4 -13
27 -42z"/>
<path d="M13632 9343 c7 -25 6 -43 -1 -60 -12 -25 -6 -30 13 -10 22 22 24 43
9 75 -21 43 -34 40 -21 -5z"/>
<path d="M10095 9350 c-3 -5 -2 -10 4 -10 5 0 13 5 16 10 3 6 2 10 -4 10 -5 0
-13 -4 -16 -10z"/>
<path d="M10715 9353 c-38 -9 -42 -26 -5 -18 44 9 74 25 45 24 -11 -1 -29 -3
-40 -6z"/>
<path d="M9951 9330 c-13 -11 -20 -20 -15 -20 4 0 -1 -7 -12 -15 -15 -12 -16
-14 -3 -15 8 0 25 10 36 23 42 47 39 64 -6 27z"/>
<path d="M10055 9320 c-3 -5 1 -10 9 -10 8 0 18 5 21 10 3 6 -1 10 -9 10 -8 0
-18 -4 -21 -10z"/>
<path d="M10118 9287 c-57 -53 -144 -98 -218 -113 -43 -9 -51 -13 -36 -20 60
-24 264 82 307 159 16 28 -3 19 -53 -26z"/>
<path d="M10441 9318 c3 -28 -3 -40 -42 -83 -59 -63 -41 -68 21 -6 51 50 52
50 81 35 29 -14 31 -34 4 -34 -7 0 -15 -7 -19 -15 -3 -8 -12 -15 -21 -15 -8 0
-15 -4 -15 -8 0 -22 16 -18 58 12 l46 34 50 -31 c28 -17 56 -38 63 -47 6 -8
15 -12 19 -7 9 8 -54 77 -71 77 -16 0 -86 39 -126 71 -41 32 -51 35 -48 17z"/>
<path d="M13407 9318 c-17 -10 13 -20 43 -14 14 2 44 5 68 5 23 1 42 5 42 11
0 11 -134 9 -153 -2z"/>
<path d="M10215 9274 c-69 -61 -77 -67 -100 -80 -83 -45 -98 -54 -83 -54 22 0
101 34 119 51 8 8 26 22 41 31 28 19 84 86 76 93 -2 2 -26 -16 -53 -41z"/>
<path d="M9995 9288 c-41 -24 -150 -58 -186 -58 -43 0 -69 -8 -69 -21 0 -13
92 -1 170 22 73 22 158 69 125 69 -11 0 -29 -6 -40 -12z"/>
<path d="M10835 9270 c-3 -5 -17 -10 -30 -10 -13 0 -27 -4 -30 -10 -11 -18 49
-10 75 10 20 15 21 20 8 20 -9 0 -20 -4 -23 -10z"/>
<path d="M2840 9229 c-60 -31 -84 -48 -77 -56 7 -6 147 69 147 79 0 11 -8 9
-70 -23z"/>
<path d="M13570 9250 c-12 -8 -9 -10 13 -10 15 0 27 5 27 10 0 13 -20 13 -40
0z"/>
<path d="M2695 9153 c-19 -15 -19 -15 10 -8 37 8 57 25 30 25 -11 0 -29 -8
-40 -17z"/>
<path d="M2620 9130 c-12 -8 -11 -10 8 -10 12 0 22 5 22 10 0 13 -11 13 -30 0z"/>
<path d="M10683 9123 c0 -10 4 -23 8 -29 5 -6 9 -33 10 -61 2 -41 -3 -58 -28
-94 -40 -58 -69 -81 -155 -128 -43 -23 -161 -45 -195 -36 -27 6 -32 -11 -5
-19 19 -6 132 -24 207 -32 72 -9 184 10 246 41 99 48 184 149 195 232 5 43
-12 43 -21 1 -13 -61 -62 -126 -125 -168 -12 -8 -33 -23 -45 -32 -13 -10 -29
-18 -37 -18 -8 0 -18 -4 -24 -8 -20 -19 -128 -34 -190 -27 -35 4 -64 10 -64
13 0 4 26 17 59 30 76 29 146 84 179 141 22 38 26 56 24 110 -1 48 -6 70 -20
84 -18 17 -19 17 -19 0z"/>
<path d="M1578 9113 c12 -2 30 -2 40 0 9 3 -1 5 -23 4 -22 0 -30 -2 -17 -4z"/>
<path d="M2820 9110 c-12 -8 -11 -10 7 -10 12 0 25 5 28 10 8 13 -15 13 -35 0z"/>
<path d="M10940 9103 c1 -10 7 -29 16 -43 14 -25 14 -25 11 14 -3 39 -27 65
-27 29z"/>
<path d="M1641 9106 c2 -2 21 -6 42 -10 27 -5 37 -4 32 3 -3 6 -22 11 -42 11
-20 0 -34 -2 -32 -4z"/>
<path d="M2538 9103 c7 -3 16 -2 19 1 4 3 -2 6 -13 5 -11 0 -14 -3 -6 -6z"/>
<path d="M5317 9066 c-145 -144 -204 -303 -205 -546 0 -47 -3 -92 -5 -100 -11
-32 -27 -110 -32 -153 -3 -26 -12 -65 -20 -88 -9 -23 -18 -56 -21 -73 -3 -17
-12 -44 -20 -60 -7 -16 -14 -35 -14 -42 0 -7 -5 -25 -12 -41 -6 -15 -12 -30
-13 -33 -3 -12 -50 -98 -79 -144 -17 -28 -36 -58 -41 -67 -47 -76 -142 -182
-256 -284 -56 -51 -232 -175 -247 -175 -5 0 -19 -9 -32 -20 -13 -11 -28 -20
-34 -20 -6 0 -65 -27 -131 -60 -65 -33 -127 -60 -136 -60 -10 0 -20 -4 -23 -9
-3 -5 -22 -12 -41 -15 -19 -4 -35 -11 -35 -15 0 -5 -26 -15 -57 -24 -57 -15
-160 -52 -218 -77 -16 -7 -46 -19 -65 -27 -19 -8 -44 -18 -55 -23 -30 -13 -69
-24 -77 -22 -4 1 -20 -16 -35 -37 -21 -30 -37 -41 -65 -45 -21 -4 -38 -10 -38
-15 0 -5 -11 -12 -25 -15 -14 -4 -25 -11 -25 -16 0 -6 -6 -10 -14 -10 -7 0
-19 -7 -26 -15 -7 -8 -21 -15 -31 -15 -18 0 -57 -35 -51 -46 2 -2 -6 -16 -18
-31 -29 -37 -25 -48 9 -24 26 19 30 19 35 4 6 -14 9 -14 22 6 9 12 26 27 38
32 27 12 44 23 133 81 40 26 91 57 113 68 29 15 38 24 33 37 -5 13 -2 15 16
10 12 -3 37 1 54 8 26 11 29 15 15 20 -28 11 -10 25 25 21 40 -5 77 9 77 28 0
16 27 29 41 20 11 -6 177 41 217 62 15 8 32 14 38 14 10 0 32 10 129 56 82 39
300 158 310 169 6 7 25 18 43 25 17 7 32 19 32 26 0 8 6 14 14 14 8 0 28 11
44 25 17 14 34 25 39 25 13 0 53 44 53 58 0 18 47 15 54 -3 7 -18 -21 -95 -40
-111 -15 -12 -19 -34 -6 -34 31 0 75 119 65 174 -4 18 6 35 44 74 27 27 57 66
68 86 11 20 23 36 27 36 5 0 14 12 20 28 7 15 18 35 26 44 27 32 46 69 150
288 29 62 45 126 43 179 -1 13 3 29 8 35 4 6 9 18 9 26 1 8 8 60 16 115 9 55
18 141 22 190 3 50 8 93 10 97 3 4 7 24 9 44 3 20 16 64 30 98 14 35 25 67 25
73 0 14 101 171 127 198 59 61 20 62 -40 1z"/>
<path d="M1768 9078 c7 -9 24 -18 38 -21 21 -4 23 -2 12 8 -7 7 -24 16 -38 20
-22 7 -23 6 -12 -7z"/>
<path d="M1986 9079 c8 -13 94 -53 100 -46 4 4 -92 57 -103 57 -2 0 -1 -5 3
-11z"/>
<path d="M12524 9031 c-34 -25 -76 -68 -93 -94 -35 -53 -32 -81 3 -32 28 39
103 116 140 142 16 11 25 22 20 25 -5 3 -36 -15 -70 -41z"/>
<path d="M12640 9053 c-66 -43 -160 -158 -160 -194 0 -8 13 7 29 32 16 25 62
75 102 112 70 64 82 84 29 50z"/>
<path d="M12760 9057 c-45 -22 -134 -101 -128 -116 1 -5 26 12 54 38 28 26 65
53 82 60 18 8 32 17 32 22 0 11 -9 10 -40 -4z"/>
<path d="M2646 9051 c-33 -13 -2 -21 37 -10 21 5 37 12 37 14 0 8 -53 4 -74
-4z"/>
<path d="M3269 9013 c-28 -27 -64 -58 -78 -70 -44 -38 -3 -25 54 17 29 21 60
53 68 70 9 16 14 30 12 30 -2 0 -27 -21 -56 -47z"/>
<path d="M12415 9026 c-16 -17 -46 -51 -65 -76 -19 -25 -38 -46 -42 -48 -11
-5 -10 -32 0 -32 5 0 24 21 42 46 18 26 52 66 76 89 23 24 40 46 37 49 -10 9
-16 6 -48 -28z"/>
<path d="M12885 9041 c-16 -10 -50 -31 -73 -46 -24 -14 -42 -29 -39 -32 7 -7
147 77 147 88 0 12 0 12 -35 -10z"/>
<path d="M1860 9046 c0 -3 19 -15 43 -27 23 -12 56 -31 72 -43 65 -47 250
-118 231 -88 -3 6 -21 14 -39 17 -36 8 -160 66 -165 77 -2 5 -12 8 -22 8 -10
0 -22 5 -25 10 -4 6 -23 18 -43 27 -20 9 -40 19 -44 21 -5 2 -8 1 -8 -2z"/>
<path d="M2785 9023 c-78 -26 -196 -53 -237 -53 -35 0 -59 -10 -52 -21 10 -17
123 6 286 58 43 14 80 29 83 34 8 12 3 11 -80 -18z"/>
<path d="M12923 8995 c-28 -30 -55 -55 -61 -55 -14 0 -24 -17 -14 -24 11 -7
73 45 112 94 47 59 20 48 -37 -15z"/>
<path d="M12993 8970 c-29 -44 -48 -80 -44 -80 9 0 29 22 46 50 5 9 22 36 38
58 28 44 32 52 20 52 -5 0 -31 -36 -60 -80z"/>
<path d="M13160 9003 c0 -43 5 -41 13 5 4 18 2 32 -3 32 -6 0 -10 -16 -10 -37z"/>
<path d="M2380 9020 c32 -10 165 -10 205 0 18 5 -20 8 -100 8 -79 0 -120 -3
-105 -8z"/>
<path d="M1440 9010 c0 -5 11 -10 25 -10 14 0 25 5 25 10 0 6 -11 10 -25 10
-14 0 -25 -4 -25 -10z"/>
<path d="M2100 9016 c0 -19 240 -74 323 -74 84 0 70 14 -20 21 -96 6 -197 25
-241 43 -32 14 -62 18 -62 10z"/>
<path d="M12269 8978 c-58 -72 -97 -149 -107 -206 -7 -47 15 -34 24 13 3 20
10 38 15 41 5 3 9 12 9 20 0 20 46 91 89 137 25 26 30 37 19 37 -9 0 -31 -19
-49 -42z"/>
<path d="M13216 8968 c-4 -29 -10 -71 -13 -93 -4 -31 -2 -37 7 -28 11 11 28
173 17 173 -2 0 -8 -24 -11 -52z"/>
<path d="M13620 8995 c5 -13 8 -58 7 -100 -3 -70 3 -89 18 -65 7 12 8 116 1
145 -2 11 -5 26 -5 33 -1 6 -8 12 -16 12 -11 0 -12 -5 -5 -25z"/>
<path d="M13102 8998 c-7 -7 -12 -17 -12 -23 0 -17 -64 -105 -117 -162 -71
-76 -84 -93 -71 -93 24 0 158 162 198 240 22 43 23 59 2 38z"/>
<path d="M13301 8994 c0 -11 3 -14 6 -6 3 7 2 16 -1 19 -3 4 -6 -2 -5 -13z"/>
<path d="M13557 8963 c13 -87 8 -153 -16 -215 -5 -13 -8 -26 -7 -29 0 -3 -5
-13 -13 -23 -8 -9 -11 -19 -7 -23 20 -21 76 117 76 188 0 55 -17 136 -31 145
-5 3 -6 -17 -2 -43z"/>
<path d="M1710 8980 c20 -13 43 -13 35 0 -3 6 -16 10 -28 10 -18 0 -19 -2 -7
-10z"/>
<path d="M9037 8973 c4 -9 17 -35 30 -57 66 -116 107 -216 127 -316 20 -96 -1
-288 -48 -445 -38 -127 -155 -357 -217 -430 -40 -46 -124 -141 -136 -153 -7
-7 -13 -17 -13 -22 0 -5 -12 -16 -27 -24 -16 -8 -37 -23 -48 -33 -27 -23 -83
-63 -90 -63 -3 0 -31 -17 -63 -39 -31 -21 -73 -42 -92 -46 -19 -4 -39 -11 -45
-15 -8 -6 -154 -25 -175 -23 -119 12 -144 13 -135 4 31 -30 275 -36 335 -8 19
9 57 23 84 32 63 21 240 151 310 226 101 110 226 285 226 315 0 7 7 15 16 18
8 3 13 10 9 15 -3 5 -1 12 5 16 27 17 111 245 134 365 19 103 18 352 -1 372
-7 6 -13 23 -13 35 0 32 -19 68 -98 190 -61 94 -91 128 -75 86z"/>
<path d="M13429 8918 c-1 -81 -3 -102 -19 -144 -6 -16 -10 -29 -9 -29 6 0 -60
-91 -89 -122 -16 -17 -32 -39 -35 -48 -6 -13 -1 -12 23 5 84 60 138 175 147
311 4 59 2 88 -6 93 -8 5 -11 -14 -12 -66z"/>
<path d="M13493 8886 c-1 -59 -7 -107 -17 -131 -16 -38 -15 -52 2 -41 23 14
41 99 38 172 -4 110 -21 110 -23 0z"/>
<path d="M1760 8965 c0 -5 85 -45 96 -45 2 0 4 5 4 10 0 6 -8 10 -18 10 -10 0
-22 4 -27 9 -13 11 -55 24 -55 16z"/>
<path d="M13298 8950 c-12 -39 -10 -76 3 -63 6 6 9 28 7 49 -3 35 -4 36 -10
14z"/>
<path d="M13122 8891 c-18 -39 -50 -89 -72 -111 -22 -23 -40 -44 -40 -46 0
-12 22 -1 42 21 13 14 31 35 42 46 25 28 68 125 64 144 -2 8 -18 -16 -36 -54z"/>
<path d="M12713 8925 c-53 -46 -62 -58 -56 -68 3 -5 9 -3 14 6 5 8 28 31 52
51 23 20 37 36 30 36 -7 0 -25 -11 -40 -25z"/>
<path d="M12126 8924 c-9 -8 -16 -21 -16 -27 0 -7 -9 -29 -20 -50 -20 -36 -39
-127 -27 -127 3 0 15 30 27 68 13 37 28 74 34 82 14 19 36 58 36 65 0 10 -19
4 -34 -11z"/>
<path d="M1325 8913 c-22 -2 -44 -9 -50 -15 -7 -7 11 -8 60 -2 87 10 119 10
220 1 59 -5 74 -4 55 4 -27 11 -222 20 -285 12z"/>
<path d="M1890 8904 c0 -8 139 -73 199 -94 34 -11 89 -22 124 -25 57 -4 58 -3
17 5 -94 18 -163 39 -228 71 -69 34 -112 50 -112 43z"/>
<path d="M12803 8903 c-12 -2 -24 -11 -27 -19 -4 -10 -2 -14 6 -10 7 3 21 9
31 12 9 4 17 10 17 15 0 5 -1 8 -2 8 -2 -1 -13 -4 -25 -6z"/>
<path d="M3115 8874 c-11 -13 -32 -33 -48 -42 -24 -16 -117 -146 -117 -164 0
-16 10 -7 38 35 17 23 62 76 101 117 39 41 71 76 71 77 0 12 -29 -3 -45 -23z"/>
<path d="M12582 8880 c-7 -11 -9 -20 -4 -20 4 0 13 9 20 20 7 11 9 20 4 20 -4
0 -13 -9 -20 -20z"/>
<path d="M1660 8880 c20 -13 33 -13 25 0 -3 6 -14 10 -23 10 -15 0 -15 -2 -2
-10z"/>
<path d="M2315 8860 c28 -12 177 -12 195 0 10 6 -23 9 -100 9 -71 -1 -107 -4
-95 -9z"/>
<path d="M13263 8830 c-19 -41 -46 -78 -118 -163 -13 -15 -26 -41 -30 -57 -4
-16 -11 -32 -16 -35 -5 -4 -9 -17 -9 -31 0 -36 18 -20 30 27 6 23 39 76 76
122 35 45 64 88 64 96 0 8 7 22 16 32 9 10 14 26 12 36 -2 13 -10 5 -25 -27z"/>
<path d="M12386 8851 c-4 -7 -5 -15 -2 -18 9 -9 19 4 14 18 -4 11 -6 11 -12 0z"/>
<path d="M12005 8838 c-27 -74 -35 -105 -34 -132 0 -28 2 -26 18 20 10 27 26
64 35 82 9 17 16 33 16 37 0 11 -31 5 -35 -7z"/>
<path d="M12276 8834 c-11 -28 -6 -39 9 -20 8 11 15 23 15 28 0 14 -18 9 -24
-8z"/>
<path d="M13345 8840 c-3 -5 -3 -10 0 -10 4 0 -3 -13 -15 -30 -12 -16 -19 -30
-15 -30 8 0 -54 -83 -102 -136 -13 -14 -23 -31 -23 -38 0 -8 -6 -16 -14 -19
-16 -6 -28 -45 -15 -53 5 -3 17 12 26 33 10 21 27 46 39 55 32 26 123 170 130
206 6 31 1 42 -11 22z"/>
<path d="M13171 8798 c-5 -13 -38 -53 -73 -90 -82 -86 -98 -106 -98 -121 0 -6
19 11 43 38 23 28 55 61 70 75 28 24 87 102 87 114 0 16 -22 3 -29 -16z"/>
<path d="M1253 8795 c-39 -5 -75 -14 -80 -19 -5 -5 15 -5 47 0 65 11 258 12
318 2 23 -4 42 -4 42 1 0 10 -171 32 -220 29 -19 -2 -67 -7 -107 -13z"/>
<path d="M1600 8770 c20 -13 53 -13 45 0 -3 6 -18 10 -33 10 -21 0 -24 -2 -12
-10z"/>
<path d="M3140 8769 c0 -5 5 -7 10 -4 6 3 10 8 10 11 0 2 -4 4 -10 4 -5 0 -10
-5 -10 -11z"/>
<path d="M11925 8763 c-11 -24 -16 -53 -10 -53 5 0 35 55 35 65 0 12 -18 4
-25 -12z"/>
<path d="M1095 8753 c-23 -6 -67 -34 -62 -40 3 -2 29 7 58 21 50 22 52 31 4
19z"/>
<path d="M2015 8735 c17 -7 34 -11 39 -8 13 8 -16 23 -44 22 -24 -1 -24 -1 5
-14z"/>
<path d="M1780 8721 c0 -5 10 -11 23 -14 12 -3 37 -10 55 -15 19 -6 32 -7 32
-1 0 5 -6 9 -14 9 -7 0 -27 7 -42 15 -33 17 -54 19 -54 6z"/>
<path d="M2087 8719 c7 -7 15 -10 18 -7 3 3 -2 9 -12 12 -14 6 -15 5 -6 -5z"/>
<path d="M3083 8704 c-13 -14 -23 -29 -23 -33 0 -4 -9 -16 -20 -26 -10 -9 -24
-33 -30 -51 -7 -19 -25 -59 -41 -90 -17 -31 -28 -61 -26 -67 2 -7 16 13 32 43
41 83 116 208 131 221 15 12 19 29 7 29 -5 0 -18 -12 -30 -26z"/>
<path d="M12962 8694 c-34 -39 -17 -43 21 -6 20 20 26 32 17 32 -8 0 -25 -12
-38 -26z"/>
<path d="M1355 8684 c-102 -23 -115 -27 -110 -34 2 -4 28 0 57 8 59 17 225 23
276 9 41 -10 66 -3 32 10 -39 16 -199 20 -255 7z"/>
<path d="M13437 8676 c-9 -13 -13 -26 -10 -30 9 -8 43 24 43 41 0 20 -16 15
-33 -11z"/>
<path d="M1900 8682 c0 -5 11 -13 24 -16 13 -3 31 -9 40 -12 9 -3 16 -2 16 4
0 5 -10 12 -22 15 -13 2 -31 8 -40 12 -10 4 -18 3 -18 -3z"/>
<path d="M11833 8668 c-14 -17 -37 -70 -34 -81 0 -4 -3 -16 -9 -26 -5 -11 -13
-43 -16 -73 -3 -29 -8 -56 -10 -60 -3 -4 0 -9 6 -13 5 -3 10 2 10 12 0 31 47
203 60 218 7 8 10 19 8 26 -3 8 -7 7 -15 -3z"/>
<path d="M1645 8660 c3 -4 19 -10 37 -13 41 -6 130 -31 183 -50 22 -8 60 -17
85 -21 44 -6 44 -6 18 8 -16 8 -49 18 -75 22 -27 3 -53 10 -58 15 -6 4 -22 10
-37 13 -14 2 -35 9 -45 14 -23 12 -114 22 -108 12z"/>
<path d="M11960 8660 c0 -5 5 -10 10 -10 6 0 10 5 10 10 0 6 -4 10 -10 10 -5
0 -10 -4 -10 -10z"/>
<path d="M12050 8636 c0 -22 3 -27 11 -19 8 8 8 16 0 30 -9 16 -10 14 -11 -11z"/>
<path d="M1080 8579 c-120 -61 -218 -99 -256 -99 -13 0 -26 -4 -29 -10 -3 -5
-21 -10 -38 -10 -27 -1 -29 -2 -14 -11 12 -7 28 -7 50 0 151 48 227 76 257 93
19 12 64 37 100 56 76 41 78 42 59 41 -8 0 -66 -27 -129 -60z"/>
<path d="M2921 8618 c-11 -29 -25 -115 -18 -108 6 6 47 112 47 123 0 16 -21 5
-29 -15z"/>
<path d="M11876 8614 c-9 -23 -7 -54 3 -54 5 0 11 16 13 35 4 36 -5 47 -16 19z"/>
<path d="M11961 8614 c0 -11 3 -14 6 -6 3 7 2 16 -1 19 -3 4 -6 -2 -5 -13z"/>
<path d="M13407 8624 c-4 -4 -7 -14 -7 -23 0 -11 3 -12 11 -4 6 6 10 16 7 23
-2 6 -7 8 -11 4z"/>
<path d="M1425 8580 c-7 -11 40 -16 113 -12 34 2 60 8 56 13 -6 11 -163 9
-169 -1z"/>
<path d="M1355 8573 c-16 -3 -34 -9 -39 -14 -6 -5 -18 -9 -28 -9 -10 0 -21 -7
-24 -15 -4 -8 -14 -15 -23 -15 -9 0 -27 -7 -41 -15 -148 -84 -373 -175 -434
-175 -29 0 -35 -14 -10 -24 21 -8 87 8 169 42 66 27 317 154 340 171 5 4 33
14 60 21 28 6 58 14 68 17 16 4 15 25 -1 22 -4 -1 -20 -4 -37 -6z"/>
<path d="M11950 8570 c0 -5 5 -10 10 -10 6 0 10 5 10 10 0 6 -4 10 -10 10 -5
0 -10 -4 -10 -10z"/>
<path d="M1655 8560 c3 -5 16 -10 28 -9 21 0 21 1 2 9 -28 12 -37 12 -30 0z"/>
<path d="M2080 8560 c0 -5 14 -10 30 -10 17 0 30 5 30 10 0 6 -13 10 -30 10
-16 0 -30 -4 -30 -10z"/>
<path d="M2168 8553 c7 -3 16 -2 19 1 4 3 -2 6 -13 5 -11 0 -14 -3 -6 -6z"/>
<path d="M1740 8541 c0 -9 33 -21 60 -21 22 0 -1 16 -32 24 -16 3 -28 2 -28
-3z"/>
<path d="M11723 8542 c-7 -4 -15 -25 -18 -45 -4 -21 -13 -54 -21 -73 -8 -19
-17 -60 -19 -92 -3 -31 -7 -81 -10 -109 -3 -31 -1 -53 5 -53 6 0 10 6 10 13 1
22 19 182 25 210 3 15 15 52 26 82 22 58 22 79 2 67z"/>
<path d="M3063 8525 c-6 -6 -35 -61 -65 -121 -30 -61 -82 -151 -117 -202 -38
-57 -56 -92 -47 -92 12 0 21 12 27 38 1 4 8 12 14 17 25 20 86 108 106 154 12
25 39 84 61 130 39 83 44 101 21 76z"/>
<path d="M11860 8538 c-7 -66 -8 -158 -1 -143 13 32 22 145 11 145 -6 0 -10
-1 -10 -2z"/>
<path d="M1845 8505 c17 -7 73 -16 125 -19 114 -8 93 8 -32 24 -110 13 -132
12 -93 -5z"/>
<path d="M2080 8479 c0 -11 127 -12 134 0 3 5 -26 9 -64 9 -39 1 -70 -3 -70
-9z"/>
<path d="M1520 8470 c0 -5 25 -10 56 -10 31 0 93 -9 138 -19 129 -31 146 -33
146 -23 0 5 -15 12 -32 15 -18 3 -73 15 -122 26 -95 22 -186 28 -186 11z"/>
<path d="M1435 8459 c-41 -10 -203 -85 -266 -125 -19 -12 -73 -39 -120 -59
-46 -21 -97 -44 -114 -52 l-30 -14 40 6 c21 4 52 13 67 21 15 8 33 14 41 14 8
0 33 14 55 30 68 49 269 148 328 161 30 7 57 16 60 21 6 10 -8 9 -61 -3z"/>
<path d="M685 8450 c-3 -5 1 -10 9 -10 9 0 16 5 16 10 0 6 -4 10 -9 10 -6 0
-13 -4 -16 -10z"/>
<path d="M11613 8412 c-22 -36 -64 -194 -79 -299 -17 -117 -19 -130 -28 -183
l-7 -35 14 35 c20 51 48 167 54 225 2 28 14 82 25 120 10 39 21 75 22 80 2 6
6 23 11 38 9 33 3 43 -12 19z"/>
<path d="M1890 8412 c0 -14 114 -32 201 -32 85 0 189 16 204 32 7 7 -2 8 -30
3 -123 -21 -229 -21 -342 0 -19 4 -33 2 -33 -3z"/>
<path d="M2923 8414 c4 -4 -2 -19 -13 -34 -11 -15 -17 -30 -13 -34 8 -7 43 43
43 62 0 6 -5 12 -12 12 -6 0 -8 -3 -5 -6z"/>
<path d="M11759 8398 c-6 -18 -5 -77 1 -73 11 7 18 65 8 71 -4 3 -8 4 -9 2z"/>
<path d="M1512 8353 c-26 -7 -59 -16 -74 -19 -16 -4 -28 -10 -28 -15 0 -12 1
-12 46 8 53 23 254 23 342 -1 72 -18 92 -20 92 -7 0 5 -28 12 -62 16 -35 4
-67 10 -73 14 -23 16 -188 19 -243 4z"/>
<path d="M2238 8319 c-5 -15 -213 -23 -268 -10 -59 13 -77 -4 -19 -19 77 -21
339 6 339 35 0 10 -48 5 -52 -6z"/>
<path d="M2364 8316 c-5 -13 -47 -36 -134 -74 -21 -9 -29 -17 -21 -20 16 -5
86 28 156 75 40 26 45 33 27 33 -12 0 -25 -6 -28 -14z"/>
<path d="M1330 8290 c-14 -11 -34 -27 -45 -35 -13 -11 -15 -15 -5 -15 8 0 26
9 40 20 14 11 30 20 36 20 6 0 17 7 24 15 19 23 -19 19 -50 -5z"/>
<path d="M2992 8238 c-70 -107 -133 -190 -165 -219 -17 -16 -28 -32 -24 -35
15 -15 178 181 208 250 5 12 16 31 25 44 9 12 12 22 7 22 -5 0 -28 -28 -51
-62z"/>
<path d="M9274 8258 c8 -58 9 -176 1 -213 -3 -16 -15 -49 -25 -72 -10 -23 -16
-44 -12 -47 3 -3 1 -6 -5 -6 -6 0 -28 -25 -48 -56 -21 -31 -75 -95 -121 -142
-92 -94 -108 -123 -41 -71 39 31 55 45 129 113 15 13 42 48 60 78 18 29 39 62
46 73 40 64 61 245 39 348 -11 52 -31 48 -23 -5z"/>
<path d="M11752 8250 c0 -14 2 -19 5 -12 2 6 2 18 0 25 -3 6 -5 1 -5 -13z"/>
<path d="M1545 8240 c-65 -7 -108 -22 -131 -45 -20 -20 -9 -19 55 6 68 25 230
29 371 8 114 -16 308 -17 336 -1 15 9 -4 11 -86 6 -76 -4 -131 -2 -198 10
-103 19 -256 25 -347 16z"/>
<path d="M2354 8225 c-16 -14 -24 -25 -19 -25 14 0 72 49 59 50 -6 0 -24 -11
-40 -25z"/>
<path d="M11467 8236 c-8 -8 -18 -39 -22 -68 -5 -29 -9 -55 -10 -58 -1 -3 -4
-12 -8 -20 -3 -8 -8 -41 -11 -72 -3 -31 -18 -93 -32 -137 -27 -84 -28 -132 -1
-70 9 20 23 67 31 105 47 228 59 280 66 289 25 36 16 59 -13 31z"/>
<path d="M2452 8220 c-10 -16 -10 -20 1 -20 6 0 18 9 25 20 10 16 10 20 -1 20
-6 0 -18 -9 -25 -20z"/>
<path d="M2532 8197 c-32 -69 -104 -148 -156 -172 -100 -46 -201 -57 -383 -41
-76 7 -101 -6 -35 -18 213 -37 396 0 496 100 41 41 116 147 116 163 0 24 -19
8 -38 -32z"/>
<path d="M2650 8218 c0 -12 -14 -46 -31 -76 -17 -31 -25 -52 -17 -50 13 4 47
66 67 121 8 21 7 27 -5 27 -8 0 -14 -9 -14 -22z"/>
<path d="M1230 8220 c0 -5 4 -10 9 -10 6 0 13 5 16 10 3 6 -1 10 -9 10 -9 0
-16 -4 -16 -10z"/>
<path d="M2745 8174 c-39 -76 -94 -151 -132 -179 -21 -16 -51 -42 -68 -57 -16
-15 -36 -28 -43 -28 -7 0 -20 -4 -30 -9 -9 -6 -38 -13 -64 -16 -45 -6 -59 -17
-39 -29 5 -3 40 5 79 18 80 28 164 85 214 148 49 61 111 165 106 178 -2 7 -13
-5 -23 -26z"/>
<path d="M2400 8170 c-54 -43 -65 -50 -77 -50 -7 0 -13 -3 -13 -8 0 -13 -62
-40 -129 -57 -41 -10 -99 -15 -165 -14 -55 1 -100 -2 -98 -7 4 -13 197 -9 267
6 83 17 255 113 255 143 0 12 -14 7 -40 -13z"/>
<path d="M2280 8169 c0 -5 5 -7 10 -4 6 3 10 8 10 11 0 2 -4 4 -10 4 -5 0 -10
-5 -10 -11z"/>
<path d="M2190 8140 c-25 -11 -38 -19 -30 -19 18 -1 87 22 96 32 12 12 -19 6
-66 -13z"/>
<path d="M2997 8139 c-9 -10 -17 -23 -17 -27 0 -4 -12 -21 -27 -39 -60 -67
-84 -97 -100 -124 -10 -16 -25 -31 -34 -34 -17 -6 -34 -34 -25 -42 3 -3 35 26
72 63 72 75 169 210 156 218 -5 3 -16 -4 -25 -15z"/>
<path d="M11648 8140 c-12 -39 -10 -76 3 -63 6 6 9 28 7 49 -3 35 -4 36 -10
14z"/>
<path d="M1665 8129 c-38 -5 -72 -13 -75 -19 -3 -5 -18 -14 -34 -20 -57 -21
-17 -20 45 1 72 26 162 29 359 16 71 -5 127 -4 145 2 25 8 17 10 -50 11 -44 1
-88 3 -99 5 -49 9 -228 11 -291 4z"/>
<path d="M11326 8073 c-4 -9 -2 -21 4 -27 7 -7 10 -7 10 1 0 6 3 18 6 27 3 9
2 16 -4 16 -5 0 -13 -8 -16 -17z"/>
<path d="M1810 8050 c-11 -7 -2 -10 29 -10 48 0 51 4 11 13 -14 3 -32 2 -40
-3z"/>
<path d="M2545 8039 c-70 -70 -215 -128 -328 -130 -23 0 -51 -4 -62 -8 -15 -6
-12 -9 18 -14 60 -9 187 17 267 55 35 17 140 99 140 109 0 14 -14 9 -35 -12z"/>
<path d="M2964 7974 c-55 -70 -97 -119 -118 -139 -12 -11 -39 -40 -61 -65 -36
-39 -37 -42 -10 -23 45 32 139 131 186 196 46 65 48 89 3 31z"/>
<path d="M7510 7997 c0 -7 6 -21 14 -32 24 -35 50 -148 48 -217 -1 -53 -5 -72
-21 -90 -12 -12 -21 -25 -21 -30 0 -19 -134 -128 -158 -128 -5 0 -25 -18 -45
-40 -26 -27 -48 -41 -74 -45 -21 -3 -63 -13 -94 -21 -30 -7 -83 -14 -118 -14
-39 0 -60 -4 -56 -10 10 -16 205 -5 278 16 12 4 17 0 17 -15 0 -25 36 -101 74
-156 38 -55 151 -163 211 -203 28 -17 64 -43 80 -57 17 -14 35 -30 42 -35 12
-10 341 -194 388 -218 129 -64 342 -207 360 -241 8 -16 23 -31 34 -34 17 -4
19 -13 18 -56 -1 -50 1 -54 43 -90 49 -42 135 -67 195 -55 52 10 89 -10 118
-65 41 -75 48 -120 27 -193 -20 -73 -40 -114 -87 -179 -18 -26 -33 -51 -33
-57 0 -6 -25 -47 -56 -91 -30 -45 -52 -81 -49 -81 4 0 -7 -12 -24 -26 -17 -14
-31 -32 -31 -40 0 -8 -4 -14 -8 -14 -5 0 -15 -11 -22 -25 -15 -29 -26 -30 -66
-11 -16 8 -59 20 -96 27 -60 11 -69 11 -93 -5 -25 -16 -27 -22 -22 -63 3 -25
10 -49 16 -52 6 -4 13 -20 17 -36 5 -29 4 -30 -35 -31 -22 0 -38 3 -35 7 6 11
-46 49 -67 49 -9 0 -26 11 -36 24 -10 13 -30 27 -43 31 -21 6 -23 5 -12 -6 22
-24 13 -28 -54 -28 -36 1 -70 -3 -75 -8 -5 -5 25 -8 73 -7 60 1 91 -2 113 -14
16 -9 34 -15 38 -14 4 1 17 -4 28 -12 19 -13 19 -14 -12 -25 -17 -6 -35 -8
-40 -5 -10 6 -91 -40 -110 -62 -6 -8 -9 -18 -5 -21 4 -4 10 -2 15 5 16 27 134
64 207 64 97 1 102 5 75 61 -12 25 -27 47 -32 49 -15 5 1 63 21 76 14 9 33 7
87 -9 137 -41 143 -39 196 30 20 28 37 53 37 56 0 8 39 64 66 95 27 30 76 109
106 170 12 25 31 59 43 75 35 48 46 87 47 161 1 76 -22 159 -53 192 -10 12
-15 23 -11 26 15 9 97 -17 129 -40 35 -26 50 -19 28 13 -32 46 -76 55 -218 48
-146 -8 -185 1 -239 52 -50 48 -32 92 57 137 59 30 89 72 79 112 -4 15 -44 65
-88 111 -45 46 -80 86 -77 88 2 3 -1 5 -7 5 -7 0 -12 -3 -12 -6 0 -8 49 -72
83 -108 16 -17 37 -50 48 -74 18 -42 18 -43 -1 -62 -11 -11 -23 -20 -27 -20
-3 0 -21 -11 -39 -25 -18 -14 -35 -25 -39 -25 -3 0 -18 11 -33 25 -15 14 -32
25 -38 25 -6 0 -24 11 -40 25 -16 14 -49 37 -74 52 -25 14 -47 30 -50 34 -3 4
-25 17 -50 30 -25 12 -59 33 -77 46 -18 13 -72 44 -120 69 -48 25 -92 51 -98
58 -5 7 -18 15 -28 19 -16 6 -82 47 -230 144 -62 41 -136 103 -175 146 -9 9
-22 17 -29 17 -7 0 -13 3 -13 8 0 4 -18 26 -39 49 -22 23 -53 62 -69 85 -29
43 -47 98 -31 98 5 0 15 15 23 34 8 19 24 40 36 46 32 17 142 101 163 125 25
28 49 84 41 96 -3 6 2 16 12 24 17 12 17 19 7 79 -6 36 -20 85 -31 108 -11 24
-27 60 -36 81 -14 36 -36 50 -36 24z"/>
<path d="M2770 7960 c0 -5 5 -10 10 -10 6 0 10 5 10 10 0 6 -4 10 -10 10 -5 0
-10 -4 -10 -10z"/>
<path d="M11210 7941 c0 -16 -4 -31 -10 -33 -5 -1 -12 -19 -14 -38 -9 -70 -60
-187 -117 -272 -22 -31 -39 -60 -39 -64 0 -12 64 58 96 106 50 73 124 330 95
330 -6 0 -11 -13 -11 -29z"/>
<path d="M5161 7931 c-13 -11 -28 -22 -34 -24 -7 -2 -9 -8 -5 -12 5 -5 16 -1
25 7 10 9 32 23 48 31 25 14 27 16 9 17 -12 0 -31 -9 -43 -19z"/>
<path d="M5313 7943 c-7 -2 -13 -8 -13 -13 0 -10 38 -1 46 11 6 10 -13 11 -33
2z"/>
<path d="M5460 7940 c-8 -5 -12 -12 -9 -15 8 -8 39 5 39 16 0 11 -11 11 -30
-1z"/>
<path d="M11305 7927 c-9 -27 -8 -24 -28 -71 -9 -21 -17 -40 -17 -43 0 -2 -12
-30 -27 -61 -48 -103 -35 -109 20 -9 33 59 72 167 60 167 -3 0 0 6 6 14 7 8 8
17 3 20 -6 3 -13 -4 -17 -17z"/>
<path d="M5590 7925 c-7 -8 -19 -15 -27 -15 -43 0 -163 -88 -163 -121 0 -15 6
-11 46 26 38 37 58 49 132 85 23 12 42 25 42 30 0 15 -16 12 -30 -5z"/>
<path d="M5390 7898 c-49 -31 -106 -86 -98 -94 4 -3 29 13 55 36 26 23 58 47
71 53 12 6 22 14 22 19 0 13 -12 9 -50 -14z"/>
<path d="M2946 7850 c-21 -34 -37 -63 -34 -65 5 -6 88 103 88 116 0 22 -18 4
-54 -51z"/>
<path d="M5704 7879 c-32 -17 -61 -34 -64 -38 -3 -4 -13 -10 -22 -14 -10 -3
-18 -11 -18 -18 0 -6 16 -1 36 11 49 31 105 57 137 65 36 9 44 25 14 25 -14 0
-51 -14 -83 -31z"/>
<path d="M5171 7832 c-34 -33 -61 -68 -60 -79 0 -15 3 -14 17 7 9 14 39 46 66
73 27 26 46 50 43 53 -3 4 -33 -21 -66 -54z"/>
<path d="M5080 7873 c0 -5 -16 -25 -36 -46 -20 -21 -33 -41 -29 -45 6 -6 95
82 95 94 0 2 -7 4 -15 4 -8 0 -15 -3 -15 -7z"/>
<path d="M5915 7871 c-11 -5 -53 -18 -92 -30 -40 -12 -73 -26 -73 -31 0 -5 -8
-11 -18 -14 -18 -6 -47 -45 -39 -53 3 -2 19 8 36 23 34 30 65 43 178 78 40 12
76 25 79 29 10 10 -46 8 -71 -2z"/>
<path d="M11056 7833 c-3 -10 -8 -33 -11 -52 -3 -19 -9 -39 -13 -45 -3 -6 -8
-18 -9 -27 -1 -8 -9 -29 -18 -45 -17 -33 -19 -44 -6 -44 13 0 81 185 81 222 0
15 -19 8 -24 -9z"/>
<path d="M5990 7823 c-46 -8 -112 -33 -127 -48 -8 -8 -23 -15 -33 -15 -16 0
-36 -27 -27 -36 2 -2 20 8 40 21 20 14 43 25 52 25 9 0 25 5 36 11 11 5 56 16
101 24 44 8 83 17 86 20 6 6 -91 4 -128 -2z"/>
<path d="M5566 7784 c-18 -18 -20 -24 -6 -24 5 0 14 9 20 20 13 24 7 26 -14 4z"/>
<path d="M2872 7749 c-9 -12 -28 -32 -42 -45 -17 -17 -20 -24 -10 -24 13 0 52
41 74 78 12 20 -3 14 -22 -9z"/>
<path d="M6087 7754 c-75 -18 -167 -67 -153 -81 1 -2 20 6 42 16 21 11 50 24
64 30 31 13 155 31 212 31 24 0 50 5 58 10 24 15 -155 11 -223 -6z"/>
<path d="M2913 7699 c-26 -34 -77 -90 -112 -125 -36 -35 -62 -67 -58 -70 14
-14 193 173 228 238 21 40 -12 15 -58 -43z"/>
<path d="M10906 7708 c-11 -29 -22 -57 -26 -63 -11 -15 -70 -126 -70 -131 0
-2 3 -4 8 -4 8 0 42 57 42 71 0 6 9 20 20 32 21 22 54 119 48 138 -2 6 -12
-13 -22 -43z"/>
<path d="M6250 7703 c-19 -2 -39 -9 -44 -14 -6 -5 -21 -9 -34 -9 -25 0 -97
-38 -88 -47 2 -3 13 0 23 5 46 24 216 49 351 52 12 0 22 3 22 8 0 8 -174 12
-230 5z"/>
<path d="M12256 7685 c4 -8 8 -15 10 -15 2 0 4 7 4 15 0 8 -4 15 -10 15 -5 0
-7 -7 -4 -15z"/>
<path d="M13083 7676 c-33 -12 -53 -26 -37 -26 24 1 94 27 88 33 -9 8 -9 8
-51 -7z"/>
<path d="M10759 7672 c-10 -2 -19 -17 -23 -40 -3 -20 -8 -48 -12 -62 -3 -14 9
2 26 34 33 63 34 74 9 68z"/>
<path d="M2935 7633 c-41 -50 -97 -113 -113 -127 -8 -6 -29 -24 -47 -41 -18
-16 -43 -37 -55 -45 -55 -38 -55 -38 -44 -50 8 -8 24 -1 60 30 53 45 164 159
188 194 9 11 25 33 36 49 32 40 10 32 -25 -10z"/>
<path d="M2743 7628 c-33 -23 -42 -38 -23 -38 13 0 78 59 65 60 -6 0 -25 -10
-42 -22z"/>
<path d="M6385 7623 c-95 -11 -115 -15 -115 -25 0 -6 19 -8 53 -4 28 4 108 9
177 13 79 3 118 8 105 13 -20 8 -162 10 -220 3z"/>
<path d="M10926 7535 c-27 -42 -47 -78 -44 -81 13 -12 108 122 108 152 0 17
-23 -8 -64 -71z"/>
<path d="M10574 7553 c-10 -21 -18 -40 -18 -43 -1 -3 -5 -11 -9 -17 -12 -20 4
-15 20 5 12 15 43 79 43 88 0 2 -4 4 -10 4 -5 0 -17 -17 -26 -37z"/>
<path d="M4900 7572 c0 -7 9 -38 19 -70 11 -31 22 -72 24 -90 6 -36 13 -49 23
-39 10 10 -25 150 -46 182 -11 17 -20 24 -20 17z"/>
<path d="M6251 7513 c-6 -27 -11 -66 -13 -88 -1 -22 -4 -44 -7 -50 -3 -5 -6
-16 -8 -24 -10 -69 -92 -218 -138 -251 -11 -8 -33 -29 -50 -48 -40 -45 -170
-121 -275 -162 -47 -18 -100 -39 -118 -46 -18 -8 -46 -14 -62 -14 -16 0 -31
-4 -34 -9 -3 -5 -63 -12 -133 -16 -71 -3 -139 -10 -153 -15 -14 -5 -42 -11
-62 -15 -32 -5 -39 -11 -46 -38 -30 -115 74 -293 292 -499 280 -265 323 -313
332 -373 2 -11 8 -39 12 -62 5 -23 7 -45 4 -48 -17 -17 -23 -121 -11 -185 26
-143 24 -167 -10 -207 -18 -22 -21 -22 -65 -9 -25 8 -62 27 -83 43 -21 16 -57
37 -80 46 -106 42 -123 51 -143 72 -37 40 -49 89 -34 146 7 27 16 54 20 61 11
17 6 86 -8 109 -16 25 -57 20 -90 -11 -32 -29 -41 -12 -41 72 1 45 -5 86 -14
108 -9 19 -17 43 -19 53 -5 25 -100 164 -159 232 -88 102 -258 265 -315 302
-30 20 -73 47 -95 62 -53 35 -141 124 -150 151 -11 36 4 105 28 128 30 28 97
51 193 67 128 21 215 76 251 162 20 49 15 193 -7 193 -4 0 -5 -23 -2 -50 13
-139 -95 -261 -246 -276 -26 -2 -66 -6 -89 -9 -55 -6 -137 -60 -159 -104 -22
-46 -14 -98 27 -162 26 -39 78 -86 207 -187 374 -289 516 -486 511 -704 -3
-115 37 -152 94 -88 31 34 42 37 51 14 9 -23 7 -39 -6 -71 -6 -15 -12 -30 -13
-33 0 -3 -9 -30 -18 -60 -40 -134 -49 -416 -15 -486 9 -20 15 -41 12 -45 -3
-5 -1 -9 4 -9 5 0 15 -14 22 -31 26 -63 110 -132 175 -145 11 -2 43 -9 72 -15
78 -18 83 -13 67 63 -8 35 -18 70 -23 79 -6 9 -7 26 -4 38 3 12 1 27 -5 34 -5
6 -10 23 -11 37 -1 23 -6 90 -10 132 -1 14 -9 16 -49 11 -52 -6 -108 14 -119
43 -5 15 -23 20 -23 6 0 -5 14 -22 31 -39 22 -23 44 -34 81 -40 l52 -8 2 -57
c2 -57 2 -58 -25 -58 -37 0 -120 56 -127 86 -3 13 -12 24 -19 24 -22 0 23 -75
66 -110 33 -26 47 -31 80 -28 32 3 39 0 39 -14 0 -22 0 -21 17 -77 20 -68 19
-71 -34 -71 -81 1 -179 62 -199 125 -3 11 -12 27 -18 35 -42 52 -61 241 -37
365 5 27 7 53 5 57 -3 5 1 8 9 8 7 0 23 -13 35 -29 12 -17 41 -36 69 -46 117
-43 132 -53 135 -96 3 -44 21 -54 26 -14 2 14 4 25 5 25 1 0 29 -14 62 -30 41
-22 67 -29 86 -25 26 6 28 3 43 -48 9 -30 16 -60 16 -66 0 -12 25 -70 86 -197
28 -56 44 -104 44 -127 0 -42 -7 -45 -43 -17 -31 24 -38 25 -30 3 6 -14 0 -15
-42 -10 -27 4 -51 11 -54 15 -11 15 -70 46 -77 40 -18 -19 64 -72 143 -93 75
-20 116 -19 142 3 l21 17 -20 64 c-11 36 -24 69 -29 75 -15 19 -111 246 -111
263 0 9 -9 36 -21 60 -19 39 -20 46 -6 66 18 28 22 163 6 184 -9 10 -9 42 1
133 6 65 9 124 5 130 -4 6 -7 27 -7 47 0 50 -28 95 -105 167 -36 33 -94 89
-129 124 -36 34 -67 62 -70 62 -8 0 -95 93 -183 195 -23 26 -101 141 -101 148
0 3 -4 16 -9 29 -5 13 -9 26 -10 31 0 4 -7 20 -16 37 -18 36 -19 74 -2 88 20
17 92 30 197 36 52 4 118 11 145 16 28 5 64 12 80 15 65 10 93 19 180 52 50
20 99 43 110 53 11 10 36 25 55 33 52 22 210 166 210 193 0 6 9 19 19 28 25
23 50 76 55 115 2 17 9 37 15 45 16 19 28 236 13 236 -5 0 -15 -21 -21 -47z"/>
<path d="M6447 7553 c-20 -2 -35 -8 -32 -13 6 -10 276 -1 314 10 26 8 -210 10
-282 3z"/>
<path d="M2864 7467 c-87 -88 -131 -127 -143 -127 -6 0 -11 -4 -11 -8 0 -4
-20 -21 -45 -36 -44 -28 -57 -46 -33 -46 6 0 26 11 44 25 18 14 37 25 43 25 5
0 16 8 23 19 7 10 29 29 48 42 19 13 47 36 61 51 32 32 91 118 81 118 -4 -1
-34 -29 -68 -63z"/>
<path d="M10679 7493 c-13 -21 -45 -66 -72 -101 -27 -35 -46 -67 -42 -70 11
-11 92 88 124 151 32 64 25 78 -10 20z"/>
<path d="M6890 7510 c-11 -7 -7 -10 18 -10 17 0 32 5 32 10 0 13 -30 13 -50 0z"/>
<path d="M10422 7481 c-7 -21 -19 -44 -27 -51 -17 -14 -20 -40 -5 -40 5 0 20
22 33 48 35 73 38 82 23 82 -7 0 -18 -17 -24 -39z"/>
<path d="M6849 7506 c-3 -3 -191 -14 -256 -16 -7 0 -13 -5 -13 -11 0 -7 26 -8
78 -5 162 12 212 19 212 27 0 9 -13 12 -21 5z"/>
<path d="M14240 7499 c0 -5 5 -7 10 -4 6 3 10 8 10 11 0 2 -4 4 -10 4 -5 0
-10 -5 -10 -11z"/>
<path d="M10772 7468 c-12 -18 -18 -35 -16 -38 7 -6 54 47 54 61 0 19 -19 8
-38 -23z"/>
<path d="M2690 7480 c0 -5 4 -10 9 -10 6 0 13 5 16 10 3 6 -1 10 -9 10 -9 0
-16 -4 -16 -10z"/>
<path d="M7030 7458 c-54 -9 -117 -14 -255 -18 -66 -3 -67 -3 -24 -9 93 -13
324 2 374 24 l30 13 -35 0 c-19 0 -60 -5 -90 -10z"/>
<path d="M10279 7424 c-22 -45 -83 -118 -166 -199 -37 -36 -57 -64 -43 -62 3
0 14 -5 26 -11 15 -8 32 -46 63 -144 24 -73 51 -155 62 -182 10 -27 19 -53 19
-59 0 -12 42 -121 71 -184 10 -24 19 -46 19 -50 0 -20 88 -176 166 -292 16
-24 34 -52 40 -63 6 -10 28 -37 49 -60 38 -43 108 -170 120 -220 4 -16 10 -28
15 -28 4 0 12 -19 19 -42 13 -43 73 -169 117 -243 13 -22 30 -53 37 -70 28
-59 168 -271 209 -316 13 -14 50 -57 83 -95 33 -37 93 -100 134 -139 41 -38
84 -81 95 -94 12 -13 51 -55 88 -92 37 -38 71 -84 78 -104 16 -48 34 -45 27 5
-4 34 -18 53 -89 124 -45 47 -87 90 -93 95 -44 46 -148 141 -154 141 -4 0 -14
11 -21 26 -8 14 -38 51 -67 82 -30 31 -68 77 -85 102 -17 25 -41 56 -53 70
-47 52 -206 358 -255 490 -7 19 -17 40 -21 45 -4 6 -10 27 -14 48 -4 20 -11
37 -16 37 -5 0 -9 10 -9 23 0 22 -93 176 -115 189 -17 10 -111 148 -119 176
-4 12 -12 22 -17 22 -5 0 -14 12 -19 26 -6 15 -19 38 -29 53 -10 14 -19 30
-19 34 -1 9 -30 75 -73 162 -16 33 -29 71 -29 83 0 13 -8 36 -18 50 -11 15
-29 59 -42 97 -12 39 -26 81 -31 93 -5 13 -12 40 -15 60 -3 21 -12 48 -20 62
-22 41 -44 101 -44 122 0 11 24 46 53 78 53 59 137 200 118 200 -6 0 -21 -21
-32 -46z"/>
<path d="M10533 7463 c-7 -3 -13 -9 -13 -15 0 -14 -129 -168 -141 -168 -5 0
-9 -4 -9 -10 0 -21 22 -8 78 48 33 31 69 77 81 100 23 46 24 52 4 45z"/>
<path d="M2889 7408 c-74 -88 -187 -190 -251 -226 -26 -15 -50 -33 -53 -40
-14 -38 232 135 286 200 45 55 83 118 71 118 -5 0 -29 -24 -53 -52z"/>
<path d="M4770 7422 c0 -66 -35 -149 -80 -190 -43 -41 -50 -55 -22 -45 71 26
114 101 117 206 2 37 -1 67 -6 67 -5 0 -9 -17 -9 -38z"/>
<path d="M10140 7403 c-7 -16 -38 -67 -69 -114 -42 -66 -66 -93 -98 -110 -48
-26 -63 -49 -32 -49 31 0 179 159 179 193 0 9 5 19 10 22 9 5 40 69 40 81 0
14 -19 -1 -30 -23z"/>
<path d="M9995 7352 c-22 -34 -43 -62 -47 -62 -5 0 -8 -6 -8 -14 0 -8 -14 -26
-31 -40 -17 -14 -29 -31 -27 -37 6 -17 104 89 133 144 40 72 25 78 -20 9z"/>
<path d="M10715 7400 c-3 -5 -1 -10 4 -10 6 0 11 5 11 10 0 6 -2 10 -4 10 -3
0 -8 -4 -11 -10z"/>
<path d="M9870 7353 c-49 -62 -167 -174 -215 -203 -22 -13 -41 -28 -43 -32 -2
-4 -10 -8 -18 -8 -8 0 -14 -4 -14 -10 0 -5 4 -10 8 -10 13 0 87 40 97 53 6 6
27 25 49 41 54 41 119 107 155 160 41 59 26 66 -19 9z"/>
<path d="M8634 7345 c-16 -21 -37 -46 -46 -56 -10 -11 -16 -19 -14 -19 2 0
-16 -21 -40 -47 -24 -25 -44 -49 -44 -54 0 -4 -39 -26 -87 -49 -79 -39 -94
-43 -161 -42 -95 0 -82 -19 14 -21 136 -4 259 67 352 202 l37 54 6 -65 c3 -35
9 -69 13 -76 4 -7 3 -12 -2 -12 -11 0 -7 -19 29 -141 30 -100 45 -118 370
-436 167 -163 228 -236 267 -324 26 -58 29 -71 21 -119 -9 -56 -38 -107 -91
-162 -18 -19 -46 -51 -63 -73 -16 -21 -44 -53 -62 -72 -18 -18 -31 -33 -28
-33 2 0 -7 -12 -20 -26 -14 -15 -23 -30 -20 -33 2 -4 -4 -14 -13 -23 -40 -36
-103 -126 -140 -198 -26 -51 -44 -83 -53 -90 -5 -5 -17 -34 -20 -48 0 -4 -6
-13 -12 -21 -6 -7 -28 -45 -47 -85 -63 -123 -70 -134 -102 -161 -28 -24 -36
-25 -97 -20 l-66 7 -35 -45 c-35 -45 -60 -57 -119 -57 -15 0 -31 -4 -36 -9
-17 -16 -127 -43 -151 -37 -13 4 -36 17 -51 31 -15 14 -33 29 -39 34 -21 18
-70 39 -104 45 -94 18 -170 39 -170 47 0 5 9 14 20 21 11 7 20 16 20 20 0 15
-32 8 -57 -12 -25 -19 -25 -19 -64 3 -37 21 -52 47 -28 47 6 0 23 8 37 19 47
32 119 45 142 26 8 -7 29 -20 45 -28 l30 -16 -32 -1 c-39 0 -63 -9 -63 -22 0
-10 23 -9 129 9 35 6 41 10 30 19 -8 7 -30 15 -49 19 -19 4 -42 14 -51 21 -9
8 -44 28 -79 45 -35 17 -83 44 -106 60 -24 16 -48 29 -55 29 -7 0 -20 7 -30
16 -9 8 -27 16 -40 16 -13 1 -28 5 -34 9 -5 3 -32 10 -59 14 -49 7 -86 23 -86
37 0 8 33 23 125 60 85 34 144 47 221 49 63 1 78 -2 97 -18 12 -12 38 -29 57
-38 19 -10 39 -24 43 -31 4 -8 12 -14 17 -14 5 0 20 -11 34 -25 14 -14 30 -25
36 -25 16 0 -6 36 -35 57 -14 10 -38 28 -53 41 -15 12 -35 25 -44 28 -10 3
-18 10 -18 15 0 5 -6 9 -12 9 -7 0 -26 8 -43 17 -40 22 -165 22 -200 -1 -13
-9 -33 -16 -43 -16 -10 0 -22 -4 -27 -8 -6 -4 -37 -16 -70 -27 -33 -10 -67
-24 -75 -31 -8 -6 -31 -14 -51 -18 -41 -7 -82 -43 -58 -50 61 -18 140 -36 162
-36 14 0 28 -4 31 -9 7 -10 -17 -21 -45 -21 -21 0 -102 -39 -107 -52 -2 -4
-18 -10 -35 -13 -18 -4 -43 -16 -57 -27 -24 -19 -24 -20 -6 -34 11 -7 36 -16
55 -19 20 -3 52 -10 71 -15 19 -5 70 -14 113 -21 42 -6 77 -16 77 -20 0 -5 8
-9 18 -9 10 0 54 -18 97 -41 96 -51 119 -58 221 -73 37 -5 102 -31 114 -45 10
-12 86 -68 107 -79 33 -18 99 -14 145 8 24 11 62 20 89 20 40 0 53 5 78 31 17
17 31 35 31 39 0 5 10 18 21 29 19 17 31 19 85 14 l64 -6 48 51 c26 28 53 61
59 74 35 71 73 158 71 160 -2 2 6 17 18 33 19 27 25 39 35 70 1 6 7 15 11 20
5 6 31 44 59 85 74 112 146 210 162 223 8 7 28 30 43 52 16 22 41 54 56 70 15
17 45 50 68 75 22 24 40 50 40 57 0 7 4 13 8 13 5 0 17 26 27 59 16 54 16 63
2 121 -14 54 -26 79 -80 165 -12 19 -79 87 -258 262 -46 44 -94 92 -105 105
-12 12 -33 32 -45 43 -28 24 -69 80 -69 94 0 5 -10 22 -23 38 -31 38 -78 146
-84 194 -3 22 -10 39 -16 39 -7 0 -7 4 1 12 7 7 12 20 12 30 0 11 10 20 28 23
105 22 243 79 250 103 3 10 0 11 -14 3 -58 -32 -207 -81 -245 -81 -25 0 -28 4
-39 58 -7 31 -13 61 -14 66 -1 5 -15 -8 -32 -29z m-955 -1998 c59 -27 131 -76
131 -88 0 -5 -8 -9 -18 -9 -19 0 -94 -37 -103 -52 -9 -14 -39 -13 -109 4 -81
20 -153 35 -207 43 l-42 7 21 29 c12 16 28 29 35 29 7 0 13 4 13 9 0 8 11 12
120 36 80 17 108 16 159 -8z"/>
<path d="M10310 7309 c-30 -34 -64 -70 -74 -80 -11 -10 -16 -22 -12 -26 9 -9
146 133 146 152 0 8 -1 15 -2 15 -2 0 -28 -28 -58 -61z"/>
<path d="M9432 7324 c-35 -39 -122 -106 -196 -149 -27 -16 -45 -30 -39 -32 29
-10 247 148 274 198 16 31 -5 22 -39 -17z"/>
<path d="M4829 7323 c-25 -71 -34 -90 -52 -117 -11 -15 -35 -34 -53 -42 -18
-8 -36 -18 -39 -24 -9 -15 45 -1 72 19 37 28 83 105 89 149 5 48 -2 55 -17 15z"/>
<path d="M4898 7321 c-5 -18 -8 -46 -8 -61 0 -15 -10 -40 -22 -56 -13 -16 -21
-31 -19 -34 9 -11 -121 -89 -159 -95 -22 -4 -42 -11 -46 -16 -20 -33 179 37
209 74 43 53 58 97 55 160 -3 54 -4 58 -10 28z"/>
<path d="M8990 7339 c0 -5 5 -7 10 -4 6 3 10 8 10 11 0 2 -4 4 -10 4 -5 0 -10
-5 -10 -11z"/>
<path d="M9095 7309 c-92 -51 -145 -76 -255 -123 -8 -3 3 -4 25 -2 22 2 62 13
87 25 26 11 49 21 51 21 3 0 29 15 59 33 126 75 151 111 33 46z"/>
<path d="M9279 7333 c-21 -24 -78 -73 -84 -73 -3 0 -26 -15 -52 -33 -27 -19
-70 -44 -96 -57 -26 -12 -46 -24 -44 -26 4 -4 120 49 178 81 35 19 129 104
129 116 0 14 -14 10 -31 -8z"/>
<path d="M9670 7291 c-30 -32 -74 -69 -97 -82 -24 -13 -43 -29 -43 -37 0 -10
5 -10 23 -1 59 31 187 150 187 174 0 15 -20 -1 -70 -54z"/>
<path d="M9533 7292 c-55 -53 -142 -118 -176 -132 -12 -5 -40 -21 -62 -35 -37
-24 -38 -26 -11 -20 16 3 53 22 82 41 30 18 57 34 60 34 12 0 141 114 162 142
25 34 -5 18 -55 -30z"/>
<path d="M2853 7268 c-89 -96 -110 -116 -152 -143 -22 -15 -41 -31 -41 -35 0
-6 -116 -67 -240 -125 l-35 -16 35 5 c38 7 215 90 225 106 3 6 21 16 38 24 35
14 207 177 226 214 20 38 -5 25 -56 -30z"/>
<path d="M2896 7232 c-51 -82 -170 -198 -259 -254 -6 -4 -9 -10 -5 -13 18 -18
157 93 227 182 58 73 93 133 79 133 -7 0 -26 -21 -42 -48z"/>
<path d="M9813 7145 c-26 -30 -6 -34 25 -5 25 24 27 30 10 30 -7 0 -23 -12
-35 -25z"/>
<path d="M9480 7142 c-14 -9 -26 -20 -28 -24 -2 -5 -10 -8 -18 -8 -8 0 -14 -4
-14 -10 0 -5 17 -2 38 7 45 21 62 33 62 44 0 13 -12 10 -40 -9z"/>
<path d="M9142 7129 c-61 -24 25 -136 354 -460 324 -318 458 -453 476 -476 10
-13 24 -20 31 -17 12 4 12 -3 0 -48 -9 -36 -12 -75 -7 -123 6 -64 9 -73 45
-107 21 -20 71 -56 111 -79 40 -24 81 -50 90 -58 31 -29 47 -41 54 -41 10 0
154 -118 219 -179 91 -86 210 -231 226 -274 7 -20 23 -44 35 -52 44 -29 107
-211 119 -345 3 -25 7 -54 9 -65 3 -11 10 -47 17 -80 6 -33 18 -67 25 -76 8
-8 14 -20 14 -25 0 -16 80 -62 121 -69 21 -4 41 -10 44 -15 6 -9 34 -155 41
-215 6 -46 30 -140 40 -156 11 -18 23 12 15 35 -5 12 -14 59 -20 106 -30 207
-39 243 -70 250 -24 5 -24 6 -5 25 15 15 19 31 17 84 -3 75 -23 111 -23 41 -1
-102 -9 -120 -54 -120 -29 0 -81 48 -89 82 -3 13 -12 48 -20 78 -8 30 -18 78
-21 105 -5 48 -32 164 -58 250 -7 22 -22 57 -35 77 -13 21 -23 40 -23 43 0 11
-194 250 -245 301 -44 45 -110 101 -289 248 -26 21 -43 43 -39 47 10 10 212
-37 228 -52 11 -11 35 -12 35 -1 0 9 -94 52 -114 52 -8 0 -17 4 -20 9 -3 5
-59 19 -124 32 -104 19 -123 26 -153 54 -58 54 -73 94 -64 167 13 102 9 189
-11 251 -7 22 -61 96 -79 109 -14 10 -19 0 -7 -14 22 -27 71 -198 56 -198 -4
0 -26 18 -50 40 -24 22 -41 40 -38 40 3 0 -9 12 -28 28 -18 15 -34 30 -36 35
-2 4 -10 7 -18 7 -8 0 -17 7 -21 16 -3 8 -16 20 -29 25 -13 4 -24 17 -24 26 0
10 -32 47 -72 83 -39 36 -81 76 -92 90 -20 24 -91 98 -261 275 -158 165 -175
184 -175 200 0 8 7 18 15 21 15 6 21 25 8 23 -5 0 -18 -4 -31 -10z"/>
<path d="M2560 6939 c-19 -10 -44 -19 -56 -19 -19 0 -61 -16 -107 -41 -10 -6
-41 -13 -68 -16 -34 -4 -49 -10 -49 -20 0 -9 6 -13 15 -9 8 3 38 8 67 11 45 5
49 4 31 -6 -13 -7 -23 -15 -23 -19 0 -3 -15 -23 -33 -44 -19 -21 -45 -69 -59
-110 -26 -71 -28 -118 -13 -216 3 -19 7 -46 9 -60 2 -14 16 -82 30 -152 14
-70 28 -142 31 -160 3 -18 10 -57 16 -86 13 -67 18 -367 8 -492 -9 -112 -23
-186 -50 -255 -18 -48 -59 -165 -61 -175 -1 -6 -23 -56 -52 -120 -11 -25 -21
-49 -22 -55 -14 -75 -21 -138 -20 -175 3 -46 38 -140 53 -140 40 2 163 139
163 182 0 28 -16 21 -30 -12 -15 -37 -88 -102 -109 -98 -20 4 -29 39 -30 113
-1 83 8 116 79 270 36 76 54 132 74 220 38 175 41 203 40 505 0 205 -18 385
-49 510 -45 181 -46 331 -3 415 14 28 31 62 38 78 7 15 18 27 24 27 6 0 23 10
37 23 15 12 50 31 78 42 28 11 51 22 51 26 0 3 -10 11 -22 17 -22 10 -21 11
20 28 23 9 42 21 42 26 0 12 -11 9 -50 -13z"/>
<path d="M2356 6940 c-11 -3 -15 -9 -10 -13 10 -6 42 9 34 16 -3 3 -14 1 -24
-3z"/>
<path d="M4784 6907 c-62 -36 -76 -55 -73 -99 4 -67 61 -129 140 -153 23 -7
23 -7 -3 14 -14 11 -30 21 -35 21 -17 0 -63 85 -63 116 0 33 0 33 106 101 17
10 15 12 -16 12 -19 0 -44 -5 -56 -12z"/>
<path d="M2690 6838 c-137 -70 -197 -129 -208 -207 -8 -50 6 -123 26 -143 11
-11 12 -2 7 47 -10 89 6 135 63 183 26 21 65 45 87 52 48 16 112 63 120 91 4
11 5 22 3 23 -1 2 -46 -19 -98 -46z"/>
<path d="M2955 6499 c-27 -34 -58 -68 -67 -77 -10 -9 -18 -22 -18 -28 0 -6
-11 -23 -25 -38 -14 -15 -25 -34 -25 -42 0 -7 -5 -14 -10 -14 -6 0 -15 -12
-20 -26 -6 -14 -24 -45 -40 -69 -17 -24 -30 -52 -30 -63 0 -10 -3 -22 -7 -26
-4 -4 -9 -19 -11 -33 -2 -15 -7 -34 -12 -44 -9 -16 -36 -153 -45 -234 -3 -22
-8 -51 -11 -65 -18 -80 -11 -347 12 -440 3 -14 10 -46 14 -72 16 -86 61 -241
96 -324 19 -46 34 -90 34 -98 0 -17 44 -119 89 -206 16 -30 34 -73 41 -95 7
-22 30 -60 50 -85 66 -80 78 -124 45 -173 -16 -26 -21 -27 -69 -21 -49 7 -114
39 -147 73 -9 9 -18 35 -21 56 -7 53 -59 164 -96 206 -41 48 -131 188 -138
216 -4 12 -10 23 -15 23 -26 0 45 -157 96 -210 18 -19 49 -60 68 -90 35 -56
70 -153 60 -164 -28 -28 -186 52 -265 135 -31 32 -61 59 -66 59 -5 0 -12 9
-15 20 -8 29 -27 24 -28 -7 -3 -51 1 -187 8 -263 9 -118 10 -125 13 -125 1 0
4 -10 5 -21 1 -12 20 -59 42 -105 33 -70 53 -96 114 -151 51 -47 91 -74 131
-89 32 -12 61 -26 64 -30 3 -5 14 -9 25 -9 15 0 19 7 19 38 0 20 4 43 9 51 6
9 4 22 -5 37 -29 43 2 32 43 -15 26 -30 64 -59 106 -79 56 -28 75 -32 145 -32
45 0 83 4 86 9 3 5 -9 40 -28 77 -45 92 -86 214 -86 256 0 19 -4 38 -9 44 -17
17 -20 61 -6 102 22 63 -1 158 -50 210 -32 32 -75 123 -75 157 0 7 -4 15 -9
17 -6 2 -32 48 -59 103 -73 150 -169 468 -188 625 -15 124 -6 419 16 510 6 25
15 65 20 91 15 80 30 126 45 139 8 7 15 19 15 26 0 7 9 29 20 49 11 19 17 35
13 35 -3 0 1 8 10 18 8 9 19 30 23 46 7 30 13 38 74 103 20 21 46 55 59 76 12
20 31 37 40 37 21 0 46 27 54 58 4 19 1 22 -26 22 -27 0 -40 -10 -82 -61z
m-478 -2052 c53 -60 126 -110 201 -137 44 -16 62 -28 62 -41 0 -9 2 -23 5 -31
4 -10 -7 -12 -50 -10 -30 2 -55 7 -55 12 0 4 -12 11 -27 15 -30 7 -95 54 -131
94 -65 73 -66 73 -63 119 2 32 14 27 58 -21z m33 -161 c61 -44 123 -73 183
-87 51 -12 57 -16 57 -39 0 -34 -17 -50 -54 -50 -40 0 -106 23 -116 41 -5 7
-12 11 -15 7 -11 -11 19 -47 50 -60 16 -7 53 -12 82 -11 49 3 52 1 57 -25 10
-48 15 -217 7 -230 -12 -20 -84 2 -135 41 -81 61 -142 144 -171 230 -28 85
-42 188 -31 231 l7 27 22 -26 c12 -13 38 -36 57 -49z m315 -36 c10 -11 26 -20
35 -20 9 0 21 -5 27 -11 6 -6 37 -16 69 -22 l59 -12 13 -83 c8 -46 11 -86 7
-90 -11 -12 -96 -3 -131 14 -19 9 -46 30 -60 46 -36 44 -42 26 -8 -23 35 -51
75 -69 153 -69 58 0 61 -1 77 -32 32 -62 54 -137 41 -145 -24 -15 -106 -5
-144 17 -69 41 -133 111 -145 158 -6 23 -16 42 -23 42 -20 0 -32 147 -13 165
3 4 17 -7 29 -24 40 -54 95 -79 162 -73 35 4 16 22 -22 22 -22 0 -43 5 -46 10
-3 6 -14 10 -24 10 -21 0 -71 40 -71 58 0 7 -11 12 -24 12 -22 0 -22 2 -12 35
12 40 25 44 51 15z"/>
<path d="M9900 6482 c0 -12 19 -26 26 -19 2 2 -2 10 -11 17 -9 8 -15 8 -15 2z"/>
<path d="M7898 5338 c-21 -6 -38 -15 -38 -20 0 -6 7 -7 16 -4 9 3 27 9 40 12
13 3 24 10 24 15 0 5 -1 9 -2 8 -2 -1 -20 -6 -40 -11z"/>
<path d="M5636 5235 c4 -8 8 -15 10 -15 2 0 4 7 4 15 0 8 -4 15 -10 15 -5 0
-7 -7 -4 -15z"/>
<path d="M5679 5190 c25 -21 121 -29 121 -10 0 6 -25 10 -55 10 -30 0 -55 5
-55 10 0 6 -8 10 -17 10 -15 -1 -14 -4 6 -20z"/>
<path d="M8153 5179 c-55 -16 -53 -33 3 -25 72 11 94 17 94 27 0 11 -55 10
-97 -2z"/>
<path d="M8080 5140 c0 -5 5 -10 10 -10 6 0 10 5 10 10 0 6 -4 10 -10 10 -5 0
-10 -4 -10 -10z"/>
<path d="M8035 5100 c-3 -5 -1 -10 4 -10 6 0 11 5 11 10 0 6 -2 10 -4 10 -3 0
-8 -4 -11 -10z"/>
<path d="M5681 5074 c19 -24 65 -44 96 -43 26 0 25 2 -11 15 -22 8 -47 21 -56
29 -23 21 -47 21 -29 -1z"/>
<path d="M2378 4748 c-2 -13 7 -40 19 -61 13 -20 26 -58 30 -82 9 -66 26 -69
19 -4 -8 82 -38 169 -57 169 -4 0 -9 -10 -11 -22z"/>
<path d="M11581 4605 c-7 -16 -11 -48 -8 -70 2 -22 1 -51 -2 -65 -6 -21 -13
-25 -50 -27 -51 -3 -88 15 -148 71 -30 28 -43 35 -43 24 0 -9 15 -27 33 -39
17 -13 45 -35 61 -50 33 -31 86 -46 97 -27 6 9 11 9 22 -1 10 -8 17 -9 22 -1
11 18 45 12 45 -8 0 -10 11 -29 25 -42 14 -13 23 -25 20 -28 -2 -2 2 -16 9
-31 15 -30 11 -51 -10 -51 -8 0 -14 -5 -14 -10 0 -6 10 -8 24 -4 13 3 27 1 30
-5 10 -15 26 -14 26 2 0 20 -70 157 -80 157 -6 0 -10 7 -10 15 0 8 -4 15 -9
15 -5 0 -9 21 -9 48 0 26 -5 72 -9 102 l-9 55 -13 -30z"/>
<path d="M11190 4606 c0 -4 108 -56 116 -56 2 0 1 7 -2 15 -4 8 -14 15 -24 15
-10 0 -23 7 -30 15 -11 13 -60 22 -60 11z"/>
<path d="M11300 4431 c0 -15 102 -68 143 -74 20 -3 37 -2 37 3 0 11 -26 20
-59 20 -16 0 -47 14 -69 30 -45 32 -52 35 -52 21z"/>
<path d="M11475 4390 c4 -6 11 -8 16 -5 14 9 11 15 -7 15 -8 0 -12 -5 -9 -10z"/>
<path d="M11491 4287 c0 -7 4 -21 9 -32 7 -17 9 -17 9 -2 1 9 6 17 11 17 18 0
10 18 -10 23 -12 3 -20 0 -19 -6z"/>
<path d="M11332 4255 c23 -21 48 -35 63 -35 33 0 25 15 -12 25 -16 4 -36 15
-46 26 -10 10 -23 19 -30 19 -7 0 5 -16 25 -35z"/>
<path d="M11452 4218 c3 -7 15 -15 27 -16 16 -3 22 1 19 10 -3 7 -15 15 -27
16 -16 3 -22 -1 -19 -10z"/>
<path d="M11721 4180 c18 -37 18 -42 4 -56 -8 -9 -15 -21 -15 -27 0 -8 4 -7
12 1 22 22 37 13 58 -33 11 -25 24 -45 29 -45 5 0 12 -11 15 -25 4 -14 13 -25
21 -25 22 0 18 17 -10 54 -14 18 -25 38 -25 44 0 6 -4 12 -8 14 -5 2 -23 33
-41 71 -18 37 -38 67 -46 67 -10 0 -9 -9 6 -40z"/>
<path d="M11521 4174 c-18 -21 -6 -30 14 -11 8 9 15 18 15 21 0 11 -15 5 -29
-10z"/>
<path d="M11210 4134 c0 -8 13 -41 29 -72 16 -31 38 -74 48 -95 22 -46 92
-114 127 -123 14 -3 26 -10 26 -14 0 -13 120 -50 162 -50 21 0 38 3 38 6 0 3
-10 28 -21 55 -12 27 -19 52 -16 55 3 4 23 -8 44 -25 21 -17 45 -31 53 -31 9
0 24 -6 35 -14 28 -19 132 -29 183 -18 47 11 64 22 45 29 -7 3 -13 11 -13 19
0 8 -5 14 -10 14 -6 0 -16 12 -23 28 -19 44 -43 65 -65 58 -20 -7 -19 -8 5
-34 29 -31 57 -81 49 -89 -2 -3 -27 -5 -54 -5 -56 1 -164 35 -207 67 -16 12
-38 25 -47 28 -9 3 -22 25 -28 49 -14 52 -19 60 -30 53 -4 -3 1 -33 11 -67 11
-34 22 -78 25 -98 3 -19 13 -41 22 -47 21 -17 9 -16 -35 2 -19 8 -46 15 -59
15 -12 0 -29 6 -37 14 -7 8 -31 23 -52 34 -21 12 -52 43 -73 74 -19 29 -39 55
-43 58 -4 3 -22 36 -39 73 -31 64 -50 84 -50 51z"/>
<path d="M11518 4105 c2 -14 8 -28 13 -31 10 -6 11 2 3 34 -9 30 -22 28 -16
-3z"/>
<path d="M11625 4110 c-3 -5 3 -10 14 -10 12 0 21 5 21 10 0 6 -6 10 -14 10
-8 0 -18 -4 -21 -10z"/>
</g>
</svg>
