<?xml version="1.0" standalone="no"?>
<!DOCTYPE svg PUBLIC "-//W3C//DTD SVG 20010904//EN"
 "http://www.w3.org/TR/2001/REC-SVG-20010904/DTD/svg10.dtd">
<svg version="1.0" xmlns="http://www.w3.org/2000/svg"
 width="1439.000000pt" height="1045.000000pt" viewBox="0 0 1439.000000 1045.000000"
 preserveAspectRatio="xMidYMid meet">
<metadata>
Created by potrace 1.13, written by Peter Selinger 2001-2015
</metadata>
<g transform="translate(0.000000,1045.000000) scale(0.100000,-0.100000)"
fill="#000000" stroke="none">
<path d="M9835 10160 c28 -12 75 -12 75 0 0 6 -21 10 -47 9 -36 0 -43 -3 -28
-9z"/>
<path d="M9972 10149 c-30 -11 34 -22 90 -16 28 4 97 2 154 -4 124 -13 162 -8
79 10 -63 14 -293 21 -323 10z"/>
<path d="M9500 10129 c38 -26 113 -60 123 -56 7 3 0 8 -15 12 -16 4 -28 11
-28 16 0 5 -9 9 -19 9 -11 0 -26 7 -35 15 -8 8 -21 15 -28 15 -10 0 -9 -3 2
-11z"/>
<path d="M9685 10130 c28 -12 37 -12 30 0 -3 6 -16 10 -28 9 -21 0 -21 -1 -2
-9z"/>
<path d="M10368 10123 c7 -3 16 -2 19 1 4 3 -2 6 -13 5 -11 0 -14 -3 -6 -6z"/>
<path d="M10410 10121 c0 -6 11 -11 25 -11 51 0 258 -120 288 -167 9 -14 27
-17 27 -5 0 17 -133 117 -197 148 -73 36 -143 53 -143 35z"/>
<path d="M9745 10110 c11 -5 27 -9 35 -9 9 0 8 4 -5 9 -11 5 -27 9 -35 9 -9 0
-8 -4 5 -9z"/>
<path d="M9804 10101 c4 -6 26 -11 48 -11 51 0 43 11 -13 17 -29 4 -39 2 -35
-6z"/>
<path d="M10080 10088 c0 -3 -9 -4 -20 -1 -11 3 -20 0 -20 -5 0 -8 23 -10 66
-7 81 4 92 12 25 16 -28 2 -51 1 -51 -3z"/>
<path d="M9953 10083 c15 -2 37 -2 50 0 12 2 0 4 -28 4 -27 0 -38 -2 -22 -4z"/>
<path d="M10200 10080 c0 -5 11 -10 25 -10 14 0 25 5 25 10 0 6 -11 10 -25 10
-14 0 -25 -4 -25 -10z"/>
<path d="M10480 10080 c0 -5 5 -10 10 -10 6 0 10 5 10 10 0 6 -4 10 -10 10 -5
0 -10 -4 -10 -10z"/>
<path d="M10800 10073 c0 -5 21 -21 47 -38 26 -16 55 -43 65 -60 32 -54 48
-85 49 -90 0 -2 6 -20 14 -39 8 -20 15 -46 15 -59 0 -17 9 -26 33 -35 44 -16
93 -61 108 -97 6 -16 11 -58 10 -92 0 -62 0 -63 28 -63 15 0 52 4 82 10 30 5
79 11 109 13 59 5 81 22 27 22 l-32 1 -7 68 c-4 38 -11 72 -16 75 -5 3 -13 22
-16 41 -12 57 -17 70 -27 70 -13 0 -11 -34 3 -48 7 -7 9 -12 6 -12 -4 0 -3
-13 2 -30 5 -16 7 -30 6 -30 -2 0 -19 16 -39 35 -24 24 -42 54 -52 89 -9 29
-24 62 -35 74 -11 12 -20 25 -20 29 0 9 -36 43 -46 43 -3 0 4 -13 15 -29 25
-34 71 -131 71 -148 0 -6 -8 -13 -17 -15 -14 -3 -7 -12 28 -38 51 -39 67 -65
76 -127 6 -46 10 -43 -74 -57 l-33 -5 0 45 c0 49 -23 114 -40 114 -6 0 -8 5
-5 10 3 6 0 10 -8 10 -7 0 -27 16 -43 35 -16 19 -34 35 -41 35 -11 0 -44 49
-49 73 -1 4 -3 9 -4 12 -1 3 -3 8 -4 13 -7 29 -19 52 -27 52 -5 0 -8 3 -7 8 2
12 -15 46 -34 66 -10 11 -18 23 -18 27 0 7 -80 49 -93 49 -4 0 -7 -3 -7 -7z"/>
<path d="M9350 10065 c0 -9 88 -64 93 -58 4 3 13 0 21 -6 8 -7 23 -11 33 -9
11 2 -10 17 -58 41 -74 36 -89 42 -89 32z"/>
<path d="M9663 10057 c10 -8 38 -18 62 -22 26 -3 49 -13 54 -23 8 -14 14 -15
39 -6 20 8 46 9 74 3 58 -11 78 -11 78 1 0 6 -13 10 -29 10 -29 0 -246 36
-278 46 -17 5 -17 5 0 -9z"/>
<path d="M10300 10061 c0 -5 17 -13 38 -16 111 -17 202 -53 202 -79 0 -7 16
-18 34 -24 34 -13 84 -57 119 -107 16 -23 47 -35 47 -18 0 4 -21 28 -47 53
-27 26 -52 52 -58 58 -44 51 -143 112 -179 112 -10 0 -26 5 -36 10 -28 15
-120 23 -120 11z"/>
<path d="M10685 10060 c4 -6 18 -15 32 -21 13 -5 22 -13 18 -18 -3 -5 4 -12
15 -16 23 -7 55 -49 91 -121 27 -52 26 -67 -1 -76 -29 -9 49 -39 93 -36 l42 4
-32 13 c-18 7 -33 17 -33 23 0 5 -17 35 -37 66 -21 31 -38 59 -38 62 0 6 -23
34 -72 88 -29 33 -95 59 -78 32z"/>
<path d="M10920 10047 c0 -8 92 -69 97 -64 5 6 -75 67 -89 67 -4 0 -8 -1 -8
-3z"/>
<path d="M10081 10019 c-14 -5 -31 -7 -38 -5 -15 6 -43 -3 -43 -13 0 -3 18 -6
40 -6 22 0 40 3 40 7 0 4 12 5 28 2 55 -10 222 -19 222 -12 0 8 -37 15 -125
22 -33 3 -69 7 -80 10 -11 3 -31 1 -44 -5z"/>
<path d="M9245 10000 c3 -5 8 -10 11 -10 2 0 4 5 4 10 0 6 -5 10 -11 10 -5 0
-7 -4 -4 -10z"/>
<path d="M11085 9970 c3 -5 8 -10 11 -10 2 0 4 5 4 10 0 6 -5 10 -11 10 -5 0
-7 -4 -4 -10z"/>
<path d="M9314 9956 c11 -9 24 -16 30 -16 12 0 7 5 -24 19 -24 11 -24 11 -6
-3z"/>
<path d="M10410 9967 c0 -8 89 -67 100 -67 17 0 93 -68 134 -120 29 -36 32 -7
5 32 -33 47 -49 61 -94 88 -22 13 -42 27 -45 31 -3 4 -18 11 -33 14 -15 4 -30
11 -33 16 -5 8 -34 13 -34 6z"/>
<path d="M9609 9946 c16 -19 44 -21 39 -3 -3 6 -15 14 -28 15 -21 3 -22 2 -11
-12z"/>
<path d="M11030 9956 c0 -2 14 -31 30 -64 31 -63 39 -112 18 -112 -9 0 -9 -3
-1 -11 7 -7 19 -9 29 -5 13 5 15 13 9 39 -3 17 -7 37 -8 42 -2 6 -14 28 -27
50 -14 22 -24 43 -23 47 1 3 -4 9 -12 12 -8 3 -15 4 -15 2z"/>
<path d="M10098 9943 c7 -3 16 -2 19 1 4 3 -2 6 -13 5 -11 0 -14 -3 -6 -6z"/>
<path d="M9835 9930 c-20 -5 1 -8 67 -9 55 0 99 3 103 9 7 12 -124 12 -170 0z"/>
<path d="M10028 9933 c7 -3 16 -2 19 1 4 3 -2 6 -13 5 -11 0 -14 -3 -6 -6z"/>
<path d="M9375 9920 c3 -5 13 -10 21 -10 8 0 12 5 9 10 -3 6 -13 10 -21 10 -8
0 -12 -4 -9 -10z"/>
<path d="M9708 9923 c7 -3 16 -2 19 1 4 3 -2 6 -13 5 -11 0 -14 -3 -6 -6z"/>
<path d="M10266 9920 c5 -4 27 -12 49 -15 26 -5 37 -4 30 2 -5 6 -28 13 -49
16 -23 4 -35 3 -30 -3z"/>
<path d="M10760 9908 c0 -9 5 -20 10 -23 13 -8 13 5 0 25 -8 13 -10 13 -10 -2z"/>
<path d="M9465 9890 c3 -5 16 -10 28 -10 12 0 43 -6 68 -14 26 -8 52 -11 59
-6 9 6 1 10 -26 15 -21 3 -55 10 -75 15 -46 13 -62 13 -54 0z"/>
<path d="M11250 9885 c7 -9 15 -13 17 -11 7 7 -7 26 -19 26 -6 0 -6 -6 2 -15z"/>
<path d="M10030 9881 c-53 -6 -54 -7 -22 -15 40 -10 121 2 101 15 -8 5 -16 8
-19 7 -3 -1 -30 -4 -60 -7z"/>
<path d="M10391 9874 c13 -16 29 -19 29 -5 0 5 -9 11 -21 14 -16 4 -18 3 -8
-9z"/>
<path d="M11335 9880 c3 -5 8 -10 11 -10 2 0 4 5 4 10 0 6 -5 10 -11 10 -5 0
-7 -4 -4 -10z"/>
<path d="M9743 9873 c-46 -6 -41 -23 5 -22 39 1 104 15 87 19 -28 5 -63 6 -92
3z"/>
<path d="M9850 9870 c0 -5 22 -10 49 -10 28 0 53 5 56 10 4 6 -15 10 -49 10
-31 0 -56 -4 -56 -10z"/>
<path d="M10140 9871 c0 -6 3 -11 8 -12 45 -4 77 -12 118 -30 27 -11 65 -26
85 -33 49 -17 86 -48 144 -120 40 -49 97 -155 92 -170 -2 -6 0 -20 6 -31 20
-38 12 -74 -16 -75 -4 0 -23 33 -41 73 -35 73 -118 177 -141 177 -8 0 -15 4
-17 8 -5 13 -131 93 -136 87 -8 -7 39 -55 53 -55 46 0 235 -234 235 -290 0
-38 -23 -32 -69 20 -97 109 -174 182 -202 192 -16 5 -29 14 -29 19 0 5 -6 9
-14 9 -7 0 -25 9 -39 20 -14 11 -28 16 -31 11 -7 -10 31 -41 50 -41 20 0 250
-217 240 -227 -3 -4 0 -16 8 -28 13 -20 13 -25 -7 -45 -16 -18 -22 -20 -25 -9
-8 23 -43 69 -53 69 -13 0 -11 -21 6 -54 19 -35 19 -60 1 -75 -10 -9 -17 -6
-28 11 -8 13 -18 32 -21 43 -4 11 -40 55 -80 97 -61 65 -80 79 -117 87 -25 6
-58 13 -75 17 -28 6 -29 5 -14 -10 8 -9 30 -18 49 -21 19 -2 45 -13 59 -25 15
-11 35 -25 46 -31 47 -26 159 -189 141 -207 -4 -3 -34 24 -68 61 -33 37 -67
67 -74 67 -8 0 -14 4 -14 9 0 5 -10 13 -22 17 -13 3 -29 11 -37 17 -7 7 -27
10 -43 8 -16 -1 -36 3 -45 11 -26 21 -278 18 -320 -5 -18 -10 -33 -20 -33 -22
0 -3 15 -2 33 1 113 19 166 25 197 25 67 -1 199 -37 248 -68 46 -28 132 -116
132 -135 0 -21 -13 -23 -32 -5 -20 19 -84 57 -97 57 -19 0 -12 -18 9 -25 31
-10 101 -88 89 -99 -14 -15 -11 -26 9 -26 11 0 57 40 105 90 47 50 91 90 98
90 6 0 41 20 78 44 41 27 81 46 106 48 40 5 85 26 85 40 0 5 12 8 28 9 59 1
62 7 42 81 -10 37 -16 69 -13 71 8 8 118 -57 145 -85 l26 -28 -26 -1 c-15 -1
-36 -1 -47 0 -11 1 -29 -5 -40 -13 -18 -14 -15 -15 40 -12 33 2 68 4 78 5 10
1 15 6 12 11 -3 6 -1 10 4 10 27 0 6 24 -53 61 -57 35 -136 118 -136 141 0 4
-8 17 -17 28 -10 11 -18 26 -18 32 0 6 -6 13 -12 16 -8 2 -13 -5 -13 -17 0
-12 -5 -21 -11 -21 -5 0 -8 4 -5 9 5 7 -15 21 -30 21 -12 0 -1 -30 20 -55 35
-40 80 -170 77 -217 -2 -28 -30 -21 -37 10 -6 25 -33 84 -72 158 -23 43 -150
181 -188 205 -52 32 -58 22 -14 -21 23 -22 45 -40 49 -40 5 0 32 -26 60 -57
53 -59 115 -173 124 -228 2 -16 6 -36 8 -44 3 -9 -7 -17 -29 -22 -30 -6 -35
-4 -44 20 -5 14 -14 34 -19 43 -5 10 -19 48 -31 85 -19 58 -32 78 -94 141 -40
39 -76 72 -79 72 -4 0 -36 14 -72 30 -35 17 -74 30 -87 30 -12 0 -26 4 -31 9
-16 15 -85 25 -85 12z"/>
<path d="M9230 9864 c0 -17 98 -74 127 -74 11 1 3 8 -19 19 -21 11 -53 29 -73
41 -19 12 -35 18 -35 14z"/>
<path d="M9658 9858 c9 -9 15 -9 24 0 9 9 7 12 -12 12 -19 0 -21 -3 -12 -12z"/>
<path d="M10775 9848 c15 -48 41 -52 29 -4 -3 14 -13 26 -21 26 -10 0 -12 -6
-8 -22z"/>
<path d="M11356 9861 c-4 -6 -3 -11 3 -11 5 0 15 -17 21 -37 6 -21 14 -45 17
-53 3 -8 7 -28 8 -45 1 -16 3 -32 5 -35 1 -3 3 -9 4 -15 1 -5 5 -25 10 -43 5
-21 4 -38 -3 -46 -15 -17 38 -67 76 -71 93 -10 138 -29 191 -82 16 -17 18 -23
7 -23 -19 0 -20 -24 -2 -39 8 -6 20 -30 27 -53 8 -24 19 -52 26 -63 7 -11 17
-44 23 -72 12 -59 49 -143 62 -143 5 0 9 -6 9 -14 0 -16 97 -126 110 -126 5 0
-14 33 -41 73 -28 39 -59 92 -71 117 -25 55 -58 150 -53 150 2 0 -7 29 -19 64
-13 36 -21 67 -19 70 9 9 -28 80 -55 103 -13 13 -42 31 -63 40 -21 10 -39 23
-39 28 0 6 -2 39 -4 75 -3 55 -27 140 -40 140 -2 0 0 -17 4 -37 5 -21 10 -67
12 -103 3 -61 2 -65 -19 -68 -24 -3 -26 8 -27 126 0 12 -4 22 -8 22 -4 0 -8 6
-8 14 0 8 -5 18 -12 22 -8 5 -9 -2 -3 -27 4 -19 9 -60 10 -91 3 -58 3 -58 -25
-58 -26 0 -28 3 -24 33 6 49 4 101 -5 107 -4 3 -15 30 -25 60 -23 74 -51 126
-60 111z"/>
<path d="M11267 9843 c10 -29 14 -34 24 -28 5 4 5 14 -1 26 -13 24 -32 25 -23
2z"/>
<path d="M9955 9802 c-5 -5 -28 -7 -115 -10 -28 -1 -50 -7 -50 -13 0 -7 22 -8
73 -3 39 5 107 7 150 6 47 -2 77 1 77 8 0 5 -12 10 -27 11 -16 0 -45 1 -65 3
-21 2 -40 1 -43 -2z"/>
<path d="M10110 9791 c0 -12 86 -43 107 -39 14 2 9 9 -18 26 -36 22 -89 30
-89 13z"/>
<path d="M9385 9780 c3 -5 8 -10 11 -10 2 0 4 5 4 10 0 6 -5 10 -11 10 -5 0
-7 -4 -4 -10z"/>
<path d="M9195 9755 c44 -37 151 -86 171 -78 11 4 -1 12 -41 24 -31 9 -64 24
-74 33 -10 9 -22 16 -28 16 -6 0 -16 7 -23 15 -7 8 -18 15 -24 15 -6 0 3 -11
19 -25z"/>
<path d="M9448 9773 c6 -2 18 -2 25 0 6 3 1 5 -13 5 -14 0 -19 -2 -12 -5z"/>
<path d="M9531 9766 c11 -9 100 -15 94 -6 -3 6 -27 10 -52 10 -26 0 -44 -2
-42 -4z"/>
<path d="M9890 9700 c-88 -8 -43 -19 73 -17 58 1 100 5 93 9 -19 10 -102 15
-166 8z"/>
<path d="M10090 9691 c0 -11 31 -24 39 -16 3 3 -1 10 -9 15 -19 12 -30 12 -30
1z"/>
<path d="M9745 9680 c3 -5 17 -10 30 -10 13 0 27 5 30 10 4 6 -8 10 -30 10
-22 0 -34 -4 -30 -10z"/>
<path d="M9625 9670 c-4 -6 7 -10 24 -10 17 0 31 5 31 10 0 6 -11 10 -24 10
-14 0 -28 -4 -31 -10z"/>
<path d="M9510 9666 c0 -9 30 -14 35 -6 4 6 -3 10 -14 10 -12 0 -21 -2 -21 -4z"/>
<path d="M9170 9624 c0 -8 32 -33 43 -34 5 0 5 4 2 10 -8 13 -45 33 -45 24z"/>
<path d="M9940 9600 c0 -5 9 -10 20 -10 11 0 20 5 20 10 0 6 -9 10 -20 10 -11
0 -20 -4 -20 -10z"/>
<path d="M9810 9590 c-28 -17 -3 -20 56 -6 l59 14 -50 1 c-27 0 -57 -3 -65 -9z"/>
<path d="M10030 9596 c0 -8 51 -13 56 -5 3 5 -9 9 -25 9 -17 0 -31 -2 -31 -4z"/>
<path d="M10160 9574 c0 -5 19 -23 41 -40 23 -16 63 -51 90 -79 26 -27 51 -46
54 -43 8 8 -44 88 -57 88 -6 0 -19 11 -29 24 -11 14 -34 28 -52 31 -17 4 -35
13 -39 19 -5 7 -8 7 -8 0z"/>
<path d="M9690 9560 c0 -13 30 -13 50 0 11 7 7 10 -17 10 -18 0 -33 -4 -33
-10z"/>
<path d="M9425 9540 c-29 -6 -29 -6 -6 -12 14 -4 31 -3 39 1 21 12 2 18 -33
11z"/>
<path d="M9731 9509 c-47 -10 -89 -23 -95 -29 -14 -14 1 -13 99 10 47 11 97
20 110 20 14 0 25 5 25 10 0 14 -43 11 -139 -11z"/>
<path d="M9905 9520 c7 -12 95 -10 95 2 0 4 -23 8 -51 8 -31 0 -48 -4 -44 -10z"/>
<path d="M9590 9471 c0 -6 -8 -11 -17 -11 -12 0 -14 -3 -7 -10 11 -11 44 -3
44 10 0 5 -4 12 -10 15 -5 3 -10 1 -10 -4z"/>
<path d="M9165 9463 c9 -10 91 -33 115 -33 26 0 -3 18 -37 23 -21 3 -49 9 -63
13 -17 4 -22 3 -15 -3z"/>
<path d="M9460 9430 l-45 -20 40 6 c45 8 85 21 85 29 0 10 -36 3 -80 -15z"/>
<path d="M9325 9427 c22 -18 85 -23 85 -7 0 6 -12 10 -27 10 -16 0 -39 3 -53
6 -24 6 -25 6 -5 -9z"/>
<path d="M11781 9409 c14 -22 45 -116 66 -199 5 -21 16 -36 27 -38 15 -3 17 1
11 42 -8 48 2 59 25 31 7 -8 21 -15 31 -15 38 0 93 -70 118 -150 30 -93 45
-113 36 -45 -20 144 -48 180 -195 250 -26 12 -43 32 -66 78 -18 37 -38 63 -49
66 -17 3 -18 1 -4 -20z"/>
<path d="M9510 9341 c-58 -18 -58 -36 1 -21 63 16 79 22 79 31 0 12 -15 10
-80 -10z"/>
<path d="M9090 9346 c0 -2 7 -7 16 -10 8 -3 12 -2 9 4 -6 10 -25 14 -25 6z"/>
<path d="M9771 9333 c-14 -3 -34 -11 -45 -18 -12 -7 -47 -21 -78 -30 -32 -9
-58 -21 -58 -26 0 -5 -9 -9 -20 -9 -11 0 -20 -4 -20 -10 0 -18 29 -11 108 26
60 28 95 38 162 43 104 10 126 8 165 -8 17 -7 45 -19 63 -27 38 -16 82 -18 82
-4 0 10 -13 14 -37 11 -6 -1 -14 3 -18 9 -3 5 -14 10 -24 10 -11 0 -38 9 -62
20 -43 19 -151 25 -218 13z"/>
<path d="M9170 9306 c35 -19 125 -32 116 -17 -4 6 -25 11 -46 11 -21 0 -42 5
-45 10 -3 6 -16 10 -28 10 -21 -1 -21 -1 3 -14z"/>
<path d="M9307 9294 c-22 -22 54 -25 106 -4 17 7 7 9 -39 9 -33 1 -64 -2 -67
-5z"/>
<path d="M9725 9219 c-101 -17 -206 -43 -211 -51 -3 -4 -15 -8 -26 -8 -12 0
-29 -7 -39 -16 -9 -8 -52 -22 -96 -30 -43 -9 -90 -18 -105 -21 -16 -3 -28 -9
-28 -14 0 -14 51 -11 106 6 27 8 57 15 67 15 10 0 48 14 84 30 35 17 71 30 79
30 8 0 49 9 92 21 52 14 113 22 188 23 103 2 114 1 165 -25 30 -16 77 -40 104
-54 48 -24 83 -60 71 -73 -6 -6 -76 29 -76 38 0 3 -14 6 -31 7 -17 1 -36 7
-43 12 -40 32 -270 56 -301 31 -6 -5 -31 -12 -55 -15 -24 -3 -48 -9 -54 -14
-6 -5 -26 -12 -43 -16 -18 -3 -33 -11 -33 -17 0 -6 6 -8 14 -5 8 3 34 11 58
17 24 6 50 13 58 16 26 10 113 18 190 18 62 0 87 -6 148 -32 41 -18 78 -30 82
-27 4 3 11 -2 14 -10 3 -9 17 -20 31 -25 24 -9 25 -11 12 -42 -12 -30 -43 -45
-57 -28 -4 5 -115 53 -130 56 -3 0 -14 4 -25 8 -90 34 -133 40 -186 25 -24 -6
-60 -13 -79 -15 -70 -8 -187 -51 -218 -81 -16 -16 -96 -53 -113 -53 -7 0 -31
-9 -54 -20 -27 -13 -73 -23 -126 -27 -104 -7 -137 -21 -51 -22 113 0 209 23
307 75 139 73 156 81 220 99 40 12 94 18 163 17 90 0 110 -3 170 -28 37 -16
75 -37 84 -46 10 -10 23 -18 29 -18 6 0 9 -10 7 -22 -4 -27 -39 -36 -59 -15
-21 21 -54 37 -128 61 -54 19 -77 21 -126 15 -100 -12 -200 -44 -268 -87 -61
-37 -36 -37 53 2 126 54 209 72 281 58 66 -12 169 -55 169 -71 0 -19 -90 -24
-168 -9 -43 8 -99 14 -127 13 -51 -3 -105 -21 -105 -37 0 -10 8 -10 50 2 44
13 184 14 206 2 14 -8 10 -13 -22 -33 -22 -13 -44 -30 -50 -38 -8 -11 -26 -12
-80 -8 -55 5 -77 3 -109 -12 -22 -10 -48 -21 -58 -25 -10 -3 -16 -10 -13 -15
3 -5 23 -3 45 5 21 7 69 16 105 20 59 6 66 5 60 -10 -3 -9 -10 -16 -15 -16 -5
0 -9 -4 -9 -10 0 -19 21 -10 83 38 73 57 154 83 267 88 102 4 175 -22 231 -83
39 -43 41 -47 34 -91 -11 -74 -33 -100 -61 -72 -6 6 -34 13 -63 17 -41 5 -62
1 -99 -15 -26 -11 -60 -24 -76 -27 -23 -5 -27 -8 -15 -16 23 -14 45 -11 95 16
56 30 85 31 139 5 35 -16 38 -20 20 -26 -11 -4 -24 -14 -28 -22 -8 -12 -101
-59 -182 -90 -37 -15 -171 -21 -240 -11 -110 15 -141 21 -175 29 -44 12 -153
15 -169 6 -24 -15 -10 -29 24 -23 19 3 35 2 35 -3 0 -4 -25 -32 -56 -61 -32
-30 -64 -62 -73 -71 -8 -10 -21 -18 -28 -18 -7 0 -13 -4 -13 -8 0 -9 -61 -37
-102 -47 -41 -10 -35 -29 7 -22 56 9 258 156 254 184 -3 21 97 53 113 37 10
-9 -125 -134 -144 -134 -4 0 -8 -5 -8 -10 0 -15 -54 -66 -103 -98 -23 -15 -44
-30 -47 -33 -3 -3 -33 -16 -67 -27 -68 -24 -163 -28 -333 -17 -109 7 -105 -9
5 -20 128 -13 180 -13 230 -3 28 5 68 14 90 18 84 17 147 60 239 159 17 17 56
51 88 74 31 23 63 52 69 65 13 24 48 29 67 10 20 -20 14 -35 -22 -57 -31 -20
-92 -98 -83 -107 2 -2 32 23 67 56 34 33 71 62 81 65 11 4 19 13 19 21 0 18
14 18 30 -1 15 -18 37 -20 43 -2 3 9 7 9 17 0 10 -9 8 -18 -11 -45 -13 -18
-29 -37 -36 -41 -7 -4 -13 -14 -13 -21 0 -38 -187 -275 -217 -276 -13 -1 -63
-48 -63 -60 0 -21 65 25 137 97 39 39 103 120 142 180 38 59 79 118 91 130 11
12 20 27 20 33 0 13 57 13 65 -1 4 -6 -2 -21 -14 -33 -12 -12 -21 -27 -21 -33
0 -6 -7 -13 -15 -17 -8 -3 -15 -12 -15 -21 0 -8 -4 -15 -9 -15 -5 0 -21 -25
-36 -54 -15 -30 -34 -57 -41 -60 -8 -3 -14 -12 -14 -19 0 -15 -71 -90 -110
-117 -41 -28 -63 -50 -57 -56 4 -4 23 6 44 21 42 30 183 174 183 186 0 4 6 14
13 21 7 7 26 36 41 63 16 28 35 54 43 58 7 4 13 12 13 17 0 12 61 72 87 87 22
11 40 3 25 -11 -4 -4 -7 -11 -8 -14 -1 -9 -30 -59 -76 -133 -21 -33 -38 -62
-38 -66 0 -3 -11 -16 -26 -29 -14 -13 -21 -24 -17 -24 4 0 -1 -7 -11 -15 -11
-8 -17 -17 -14 -20 8 -8 127 136 134 163 3 12 10 22 16 22 7 0 47 74 53 100 9
34 29 59 57 71 63 26 119 71 156 126 35 53 36 55 23 101 -24 91 -70 138 -166
171 -22 8 -50 18 -63 22 l-23 9 21 41 c12 23 36 57 53 76 17 18 32 40 33 48 1
8 9 22 18 31 22 21 20 34 -4 34 -11 0 -20 -5 -20 -11 0 -6 -7 -3 -16 5 -8 9
-20 16 -25 16 -6 0 -20 11 -32 25 -12 14 -32 27 -45 30 -12 2 -35 13 -50 23
-45 31 -217 48 -317 31z"/>
<path d="M9425 9194 c-23 -13 -61 -17 -167 -18 -91 -1 -134 -4 -127 -11 6 -6
67 -10 142 -10 125 0 135 1 182 27 41 23 46 28 25 28 -14 0 -38 -7 -55 -16z"/>
<path d="M11878 9155 c-15 -15 22 -81 67 -120 49 -43 130 -83 142 -72 3 4 -5
11 -18 16 -13 5 -32 18 -42 29 -10 11 -28 23 -40 26 -12 3 -28 14 -35 26 -11
18 -10 20 13 20 26 0 50 32 41 56 -7 17 -39 18 -67 2 -17 -11 -22 -10 -33 5
-14 18 -19 20 -28 12z m79 -51 c-3 -3 -12 -4 -19 -1 -8 3 -5 6 6 6 11 1 17 -2
13 -5z"/>
<path d="M9460 9042 c-41 -48 -221 -78 -352 -59 -27 4 -48 3 -48 -2 0 -17 35
-22 140 -22 112 1 233 28 258 59 7 9 25 22 40 28 l27 12 -25 1 c-14 0 -32 -7
-40 -17z"/>
<path d="M12230 9040 c0 -4 15 -14 34 -20 19 -6 39 -17 45 -24 6 -7 33 -21 59
-30 26 -10 56 -22 67 -27 11 -5 33 -13 49 -19 28 -10 28 -11 11 -30 -26 -29
-12 -35 35 -16 41 16 97 20 138 10 24 -7 30 -24 8 -24 -8 0 -24 -9 -37 -20
-23 -18 -23 -19 -4 -20 11 0 50 9 86 19 62 18 70 18 123 3 52 -14 75 -32 41
-32 -8 0 -15 -6 -15 -14 0 -7 -8 -16 -17 -20 -21 -6 -51 -25 -71 -43 -7 -7
-17 -13 -21 -13 -14 0 -108 -97 -108 -111 0 -8 -3 -24 -7 -36 -5 -16 1 -30 24
-56 l30 -35 -37 -7 c-21 -4 -50 -13 -65 -21 -15 -8 -40 -14 -56 -14 -16 0 -35
-7 -42 -15 -10 -12 -9 -15 6 -15 11 0 35 5 54 11 19 5 44 12 55 14 62 12 98
25 110 41 9 13 28 18 66 20 100 3 281 48 319 79 8 7 23 15 32 18 26 9 58 67
58 104 0 25 -10 42 -41 72 -38 36 -48 40 -108 46 -36 4 -95 17 -131 29 -127
45 -146 50 -195 52 -27 2 -61 6 -75 9 -53 14 -156 36 -187 42 -18 3 -38 11
-44 19 -6 8 -15 14 -20 14 -4 0 -36 13 -71 29 -83 37 -98 42 -98 31z m851
-277 c66 -32 96 -76 74 -106 -7 -9 -17 -17 -23 -17 -6 0 -15 -6 -19 -12 -15
-23 -132 -79 -185 -89 -144 -25 -210 -21 -232 14 -16 25 36 123 77 144 18 9
48 29 69 45 21 18 51 31 73 33 20 2 40 6 43 9 13 14 70 4 123 -21z"/>
<path d="M12979 8679 c-14 -27 1 -44 30 -34 28 9 30 55 1 55 -10 0 -24 -9 -31
-21z"/>
<path d="M12827 8639 c-13 -8 -15 -14 -7 -29 14 -25 52 -15 48 13 -4 25 -17
30 -41 16z"/>
<path d="M11426 8970 c-21 -4 -43 -15 -48 -24 -5 -9 -18 -16 -28 -16 -11 0
-20 -4 -20 -9 0 -5 -20 -12 -45 -15 -42 -7 -64 -26 -29 -26 24 0 117 33 132
47 7 6 33 15 58 19 25 3 43 11 41 17 -5 15 -15 16 -61 7z"/>
<path d="M11520 8970 c-13 -8 30 -40 55 -40 26 0 117 -47 148 -76 16 -14 31
-24 33 -21 7 7 -23 36 -69 67 -20 14 -37 28 -37 33 0 17 -111 49 -130 37z"/>
<path d="M11435 8890 c-4 -6 10 -10 34 -10 23 0 41 5 41 10 0 6 -15 10 -34 10
-19 0 -38 -4 -41 -10z"/>
<path d="M11525 8891 c-3 -6 2 -14 12 -17 10 -3 27 -10 38 -17 11 -6 33 -17
48 -25 15 -7 35 -25 44 -38 14 -22 43 -33 43 -16 0 13 -50 61 -88 87 -45 29
-87 41 -97 26z"/>
<path d="M11390 8870 c0 -5 7 -10 15 -10 8 0 15 5 15 10 0 6 -7 10 -15 10 -8
0 -15 -4 -15 -10z"/>
<path d="M11350 8844 c-8 -3 -37 -16 -65 -29 -27 -13 -66 -30 -85 -38 -86 -35
-88 -38 -35 -31 28 3 67 14 88 25 l38 19 30 -30 c27 -26 42 -35 52 -28 1 1 12
-4 25 -11 52 -28 235 -9 265 27 10 13 8 14 -18 8 -117 -28 -225 -30 -241 -5
-3 6 -12 8 -20 5 -7 -3 -26 5 -41 18 l-27 23 32 17 c43 22 45 43 2 30z"/>
<path d="M11509 8845 c-4 -15 -7 -26 -8 -34 0 -5 -10 -11 -21 -14 -48 -12 -10
-40 41 -30 25 5 30 10 25 27 -3 12 -6 26 -6 32 0 11 -29 28 -31 19z"/>
<path d="M9568 8823 c-16 -2 -28 -8 -28 -12 0 -5 -27 -26 -60 -47 -33 -21 -60
-42 -60 -46 0 -15 25 -7 46 15 12 12 42 32 67 45 24 12 50 29 57 37 7 8 11 14
9 14 -2 -1 -16 -4 -31 -6z"/>
<path d="M12375 8796 c-16 -17 -41 -39 -54 -48 -13 -9 -21 -22 -19 -28 4 -12
128 86 128 102 0 17 -26 5 -55 -26z"/>
<path d="M108 8813 c7 -3 16 -2 19 1 4 3 -2 6 -13 5 -11 0 -14 -3 -6 -6z"/>
<path d="M12572 8787 c-12 -13 -22 -28 -22 -34 0 -6 -9 -22 -21 -37 -11 -14
-16 -26 -11 -26 5 0 22 17 38 38 15 20 36 44 46 53 10 9 18 19 18 23 0 14 -28
4 -48 -17z"/>
<path d="M9370 8789 c0 -5 5 -7 10 -4 6 3 10 8 10 11 0 2 -4 4 -10 4 -5 0 -10
-5 -10 -11z"/>
<path d="M9287 8763 c-4 -3 -7 -10 -7 -14 0 -9 39 1 46 12 6 10 -29 12 -39 2z"/>
<path d="M9240 8740 c0 -5 7 -10 15 -10 8 0 15 5 15 10 0 6 -7 10 -15 10 -8 0
-15 -4 -15 -10z"/>
<path d="M9035 8710 c3 -5 12 -7 20 -3 21 7 19 13 -6 13 -11 0 -18 -4 -14 -10z"/>
<path d="M9080 8716 c0 -2 7 -6 15 -10 8 -3 15 -1 15 4 0 6 -7 10 -15 10 -8 0
-15 -2 -15 -4z"/>
<path d="M9372 8697 c-12 -7 -20 -16 -16 -19 8 -8 54 12 54 24 0 11 -11 10
-38 -5z"/>
<path d="M9490 8690 c0 -5 7 -10 15 -10 8 0 15 5 15 10 0 6 -7 10 -15 10 -8 0
-15 -4 -15 -10z"/>
<path d="M9620 8673 c-42 -14 -86 -37 -93 -49 -4 -8 -17 -14 -27 -14 -11 0
-20 -4 -20 -8 0 -5 -11 -15 -25 -22 -13 -7 -22 -17 -19 -22 3 -5 13 -3 22 5
36 31 172 86 172 70 0 -9 -69 -75 -99 -95 -14 -10 -36 -18 -49 -18 -13 0 -20
-4 -17 -10 12 -19 52 -10 83 20 18 17 37 30 43 30 16 0 109 91 109 107 0 13
-48 17 -80 6z"/>
<path d="M9295 8656 c-16 -8 -43 -17 -59 -21 -21 -4 -26 -9 -18 -17 12 -12 83
13 112 39 18 17 3 16 -35 -1z"/>
<path d="M9430 8640 c-8 -5 -12 -11 -9 -14 2 -3 11 -1 19 4 8 5 12 11 9 14 -2
3 -11 1 -19 -4z"/>
<path d="M9000 8620 c0 -6 7 -10 15 -10 8 0 15 2 15 4 0 2 -7 6 -15 10 -8 3
-15 1 -15 -4z"/>
<path d="M9130 8620 c0 -5 14 -10 30 -10 17 0 30 5 30 10 0 6 -13 10 -30 10
-16 0 -30 -4 -30 -10z"/>
<path d="M9395 8610 c-3 -5 -1 -10 4 -10 6 0 11 5 11 10 0 6 -2 10 -4 10 -3 0
-8 -4 -11 -10z"/>
<path d="M9360 8590 c0 -5 5 -10 10 -10 6 0 10 5 10 10 0 6 -4 10 -10 10 -5 0
-10 -4 -10 -10z"/>
<path d="M9296 8565 c-15 -8 -38 -15 -50 -15 -11 0 -34 -7 -50 -15 -33 -18
-100 -19 -144 -4 -42 14 -66 5 -27 -11 17 -6 67 -12 112 -11 69 0 92 5 147 30
36 16 66 32 66 35 0 10 -24 6 -54 -9z"/>
<path d="M9702 8569 c-4 -3 -25 -11 -47 -17 -37 -10 -92 -49 -83 -58 2 -2 38
10 79 26 82 33 156 38 253 19 41 -9 60 -9 68 -1 8 8 0 12 -28 17 -22 3 -50 9
-64 12 -33 8 -169 10 -178 2z"/>
<path d="M9375 8530 c-3 -5 1 -10 9 -10 8 0 18 5 21 10 3 6 -1 10 -9 10 -8 0
-18 -4 -21 -10z"/>
<path d="M9320 8500 c0 -5 -11 -10 -24 -10 -14 0 -31 -6 -38 -13 -7 -7 -39
-19 -70 -26 -65 -14 -82 -37 -20 -27 87 15 225 86 167 86 -8 0 -15 -4 -15 -10z"/>
<path d="M9383 8474 c-24 -14 -43 -29 -43 -34 0 -5 -15 -12 -33 -15 -18 -4
-43 -15 -57 -25 -43 -34 3 -24 83 17 82 42 119 68 110 77 -10 9 -15 8 -60 -20z"/>
<path d="M9475 8480 c-3 -5 -1 -10 4 -10 6 0 11 5 11 10 0 6 -2 10 -4 10 -3 0
-8 -4 -11 -10z"/>
<path d="M8890 8476 c0 -8 139 -46 167 -46 43 1 8 16 -54 25 -29 4 -55 11 -59
16 -5 9 -54 13 -54 5z"/>
<path d="M11532 8428 c-43 -21 -64 -38 -68 -55 -4 -12 -10 -23 -14 -23 -4 0
-11 -12 -14 -27 -10 -37 13 -56 84 -69 80 -14 93 -2 21 19 -71 21 -90 39 -67
63 9 8 21 24 26 35 15 26 34 24 50 -6 14 -25 30 -33 30 -15 0 6 -7 13 -15 16
-28 11 -10 46 31 60 49 17 89 18 117 2 12 -7 36 -13 53 -13 34 0 124 -52 124
-72 0 -20 17 -16 23 6 4 16 12 18 75 14 49 -4 80 -1 103 10 38 17 153 31 125
15 -9 -5 -14 -13 -11 -17 2 -5 -21 -36 -53 -69 l-57 -60 -50 8 c-27 5 -80 9
-117 9 -69 1 -84 11 -56 39 6 6 8 15 4 19 -4 4 -29 -16 -57 -45 -45 -47 -115
-90 -127 -77 -3 2 3 16 12 29 20 32 21 60 2 53 -23 -9 -77 10 -93 33 -16 23
-33 26 -33 6 0 -8 23 -29 50 -47 28 -18 50 -35 50 -39 0 -4 -16 -15 -35 -26
-19 -10 -35 -22 -35 -27 0 -32 117 -9 172 35 32 25 42 28 49 17 6 -10 11 -11
19 -3 14 14 154 8 213 -10 25 -7 51 -10 57 -6 7 4 28 2 46 -6 18 -8 42 -14 53
-14 12 0 44 -11 73 -24 108 -49 130 -56 197 -66 60 -10 74 -9 122 9 62 24 59
23 59 12 0 -24 -56 -67 -138 -106 -30 -14 -124 -20 -201 -12 -36 3 -36 -19 -1
-32 37 -12 205 -4 235 12 11 6 32 10 47 9 23 -2 30 5 58 65 40 85 42 98 29
144 -13 41 -9 39 -149 58 -73 10 -140 41 -184 86 -20 20 -31 25 -34 16 -2 -7
14 -32 37 -55 46 -47 96 -65 200 -72 35 -3 75 -11 89 -18 l26 -14 -28 -26
c-42 -38 -136 -50 -127 -15 2 8 6 22 8 32 8 25 -20 12 -32 -16 -12 -26 -45
-33 -75 -17 -21 11 -21 11 5 36 15 13 23 29 19 36 -5 8 -10 7 -18 -3 -23 -30
-68 -58 -84 -53 -9 3 -27 11 -39 17 -23 10 -23 10 -3 24 11 8 20 21 20 29 0 8
5 14 10 14 6 0 10 7 10 15 0 21 -17 19 -25 -4 -8 -28 -94 -52 -139 -40 -20 6
-36 15 -36 21 0 11 64 76 110 112 18 15 49 22 120 27 52 5 96 8 98 9 1 0 2 3
2 8 0 10 -347 9 -385 -1 -109 -29 -112 -29 -182 -12 -78 19 -154 44 -167 57
-6 4 -42 8 -80 8 -59 0 -81 -6 -134 -32z"/>
<path d="M9402 8378 c6 -18 28 -21 28 -4 0 9 -7 16 -16 16 -9 0 -14 -5 -12
-12z"/>
<path d="M9185 8370 c3 -5 15 -10 26 -10 11 0 17 5 14 10 -3 6 -15 10 -26 10
-11 0 -17 -4 -14 -10z"/>
<path d="M11726 8348 c-9 -46 -7 -60 6 -56 18 6 28 76 12 82 -7 3 -14 -8 -18
-26z"/>
<path d="M8960 8358 c39 -16 210 -14 210 2 0 5 -48 9 -117 9 -90 -1 -112 -3
-93 -11z"/>
<path d="M9316 8325 c-8 -8 -30 -18 -48 -22 -18 -3 -38 -10 -45 -15 -22 -18
-242 -14 -300 4 -29 9 -53 13 -53 8 0 -4 24 -16 53 -26 71 -25 219 -25 311 -1
81 22 137 47 130 59 -8 13 -31 9 -48 -7z"/>
<path d="M9770 8309 c0 -7 -8 -18 -17 -25 -13 -10 -14 -13 -4 -14 12 0 51 36
51 47 0 1 -7 3 -15 3 -8 0 -15 -5 -15 -11z"/>
<path d="M10500 8260 c0 -5 5 -10 11 -10 5 0 7 5 4 10 -3 6 -8 10 -11 10 -2 0
-4 -4 -4 -10z"/>
<path d="M8790 8236 c0 -2 7 -7 16 -10 8 -3 12 -2 9 4 -6 10 -25 14 -25 6z"/>
<path d="M8837 8209 c17 -17 86 -30 186 -35 58 -3 86 -1 82 6 -3 5 -33 10 -65
10 -32 0 -69 4 -82 9 -13 4 -48 11 -78 15 -42 6 -52 4 -43 -5z"/>
<path d="M9573 8185 c-32 -48 -29 -55 7 -15 30 33 37 50 23 50 -5 0 -18 -16
-30 -35z"/>
<path d="M9158 8193 c-56 -6 -47 -25 10 -21 26 2 46 7 45 13 -2 12 -8 13 -55
8z"/>
<path d="M5850 8134 c-62 -5 -241 -34 -265 -44 -11 -4 -36 -15 -55 -23 -19 -9
-57 -21 -85 -28 -27 -7 -61 -18 -75 -26 -14 -7 -33 -13 -42 -13 -9 0 -19 -4
-23 -9 -3 -5 -20 -13 -37 -17 -28 -6 -68 -21 -158 -58 -16 -7 -35 -18 -95 -57
-22 -14 -50 -29 -62 -33 -13 -4 -23 -11 -23 -15 0 -5 -13 -14 -28 -20 -15 -6
-40 -25 -56 -41 -15 -17 -34 -30 -42 -30 -8 0 -14 -4 -14 -10 0 -5 -7 -10 -15
-10 -9 0 -18 -7 -21 -15 -4 -8 -15 -15 -25 -15 -10 0 -28 -9 -39 -20 -11 -11
-24 -20 -29 -20 -5 0 -22 -7 -37 -15 -16 -8 -39 -15 -51 -15 -12 0 -25 -4 -28
-10 -3 -5 -16 -10 -29 -10 -12 0 -26 -3 -30 -7 -11 -11 -58 -11 -146 -1 -95
10 -120 16 -162 39 -10 5 -25 9 -33 9 -8 0 -32 9 -52 20 -21 11 -43 20 -50 20
-7 0 -13 4 -13 8 0 4 -14 13 -31 19 -27 11 -29 10 -17 -4 7 -9 33 -26 58 -37
25 -12 64 -34 88 -49 23 -15 55 -29 70 -32 15 -2 50 -11 78 -19 87 -24 254 -8
352 35 104 45 211 109 218 131 3 9 15 20 27 24 12 3 33 16 47 28 14 13 47 31
74 41 27 10 57 26 66 35 10 10 51 29 91 43 41 14 75 31 77 36 2 6 19 11 38 11
22 0 37 6 40 15 4 8 17 15 29 15 13 0 27 5 30 10 3 6 18 10 32 10 14 0 49 11
77 24 113 52 198 73 310 76 28 1 53 3 56 5 8 5 329 6 370 1 30 -3 88 -14 151
-27 25 -6 72 -12 105 -14 32 -1 76 -5 96 -8 21 -3 35 -1 32 4 -9 15 8 10 20
-6 12 -17 23 -20 139 -39 42 -7 77 -10 77 -6 0 4 19 6 43 3 23 -2 76 -5 117
-8 41 -2 95 -11 119 -20 24 -8 59 -15 78 -15 19 0 44 -5 56 -12 12 -6 38 -13
57 -15 90 -8 118 -16 132 -37 5 -7 12 -4 21 8 11 16 17 17 36 6 13 -6 25 -9
28 -6 4 3 12 1 19 -5 9 -7 24 -8 41 -3 16 4 39 6 53 5 67 -6 87 -8 105 -14 11
-4 65 -10 120 -13 55 -3 120 -7 145 -9 25 -2 98 -4 163 -4 91 -1 123 -4 142
-17 14 -9 25 -12 25 -7 0 6 50 13 113 16 172 9 235 17 285 33 37 13 68 15 161
8 180 -12 396 -10 422 3 13 6 47 19 76 28 28 9 67 30 85 48 19 18 37 33 41 35
28 11 76 46 81 57 9 23 -13 17 -38 -10 -13 -14 -27 -25 -31 -25 -5 0 -22 -10
-39 -23 -17 -12 -51 -32 -76 -42 -25 -11 -51 -25 -58 -32 -7 -7 -37 -13 -66
-13 -29 0 -55 -3 -59 -6 -6 -7 -104 -6 -293 2 -88 4 -160 2 -220 -7 -115 -18
-587 -19 -744 -1 -218 23 -315 34 -340 36 -14 1 -31 5 -37 9 -14 9 -111 12
-119 4 -3 -2 -24 0 -47 5 -23 6 -80 16 -127 23 -47 8 -114 21 -150 29 -36 9
-96 21 -135 26 -38 5 -90 14 -115 20 -25 6 -81 13 -125 15 -44 2 -98 6 -120 9
-22 3 -62 8 -90 12 -27 3 -57 8 -65 10 -60 16 -141 26 -235 30 -198 8 -369 11
-415 8z m1703 -208 c21 -16 22 -26 2 -26 -8 0 -15 6 -15 14 0 8 -6 17 -12 19
-7 3 -8 6 -3 6 6 0 18 -6 28 -13z"/>
<path d="M10553 8108 c6 -18 22 -47 34 -65 13 -17 23 -36 23 -42 0 -5 9 -12
19 -16 11 -3 22 -12 25 -20 6 -15 85 -59 93 -52 2 3 23 -3 46 -13 52 -22 232
-44 320 -38 72 4 80 8 72 30 -4 11 -24 13 -100 10 -170 -8 -311 25 -423 99
-29 19 -59 48 -69 69 -10 19 -21 37 -25 38 -5 2 -8 10 -8 18 0 8 -4 14 -9 14
-5 0 -4 -14 2 -32z"/>
<path d="M9503 8123 c-17 -6 -16 -23 1 -23 8 0 16 7 20 15 6 15 1 17 -21 8z"/>
<path d="M8766 8111 c15 -15 66 -17 71 -3 3 8 -8 12 -38 12 -27 0 -39 -4 -33
-9z"/>
<path d="M9467 8088 c-2 -8 -34 -24 -71 -37 -36 -13 -69 -27 -72 -32 -3 -5
-18 -9 -34 -9 -16 0 -32 -4 -35 -10 -14 -23 60 -6 157 38 50 22 77 47 64 59
-2 2 -6 -2 -9 -9z"/>
<path d="M9605 8090 c4 -6 11 -8 16 -5 14 9 11 15 -7 15 -8 0 -12 -5 -9 -10z"/>
<path d="M11660 8054 c-14 -7 -33 -19 -44 -26 -72 -50 -96 -69 -96 -78 0 -15
6 -13 57 24 27 18 72 46 101 60 28 14 52 29 52 31 0 10 -46 3 -70 -11z"/>
<path d="M11870 8031 c0 -6 -7 -11 -16 -11 -16 0 -47 -12 -130 -51 -66 -31
-85 -22 -25 11 70 39 74 44 28 36 -21 -4 -63 -24 -94 -44 -30 -20 -64 -41 -74
-47 -11 -5 -19 -13 -19 -17 0 -12 38 -10 45 2 3 6 13 10 21 10 8 0 14 -4 14
-10 0 -5 -7 -10 -15 -10 -18 0 -186 -163 -189 -183 -1 -7 -11 -30 -24 -50 -36
-62 -70 -141 -76 -179 -3 -19 -10 -48 -16 -63 -6 -15 -11 -39 -11 -53 0 -15
-3 -76 -5 -137 -3 -75 0 -127 9 -162 21 -78 28 -257 14 -373 -6 -55 -65 -210
-89 -234 -10 -10 -18 -22 -18 -28 0 -6 -9 -20 -20 -32 -69 -70 -210 -253 -210
-271 0 -6 -8 -20 -17 -31 -25 -28 -43 -61 -43 -78 0 -7 -6 -19 -14 -25 -8 -7
-17 -24 -21 -39 -7 -30 -56 -134 -67 -142 -3 -3 -10 -19 -14 -35 -4 -17 -11
-36 -17 -42 -5 -7 -6 -13 -3 -13 4 0 -2 -13 -13 -29 -12 -16 -21 -34 -21 -40
0 -6 -4 -11 -9 -11 -5 0 -12 -12 -16 -27 -6 -27 -24 -46 -105 -113 -23 -19
-56 -50 -73 -67 -16 -18 -38 -33 -48 -33 -9 0 -19 -7 -23 -15 -3 -8 -15 -15
-28 -15 -15 0 -19 -3 -12 -10 10 -10 111 35 144 65 9 8 20 15 25 15 9 0 125
116 125 125 0 3 9 16 21 28 30 32 70 113 63 130 -3 8 6 27 20 42 14 15 26 34
26 41 0 8 5 14 11 14 5 0 8 -4 5 -9 -4 -5 7 -35 23 -68 16 -32 39 -80 52 -108
13 -27 43 -76 66 -107 24 -31 43 -59 43 -62 0 -3 14 -25 30 -49 17 -25 30 -51
30 -59 0 -8 8 -22 19 -32 10 -9 26 -36 36 -59 9 -23 24 -54 31 -69 8 -15 14
-31 14 -35 -2 -21 23 -103 32 -103 5 0 7 -4 3 -9 -3 -5 -1 -12 5 -16 6 -4 8
-11 4 -16 -8 -13 24 -105 42 -120 8 -7 11 -16 6 -23 -5 -6 -3 -32 5 -58 11
-36 19 -48 34 -48 15 0 19 7 19 35 0 19 -4 35 -10 35 -5 0 -10 10 -10 23 0 13
-8 50 -19 83 -10 32 -24 84 -31 114 -7 30 -17 64 -23 75 -6 11 -12 25 -13 30
-1 6 -4 27 -8 48 -3 20 -17 55 -31 77 -14 22 -25 43 -25 48 0 4 -15 34 -34 65
-19 31 -32 57 -29 57 4 0 -3 10 -14 23 -18 20 -136 188 -176 249 -9 15 -22 50
-28 77 -6 27 -16 51 -24 53 -9 2 -5 19 16 62 16 33 29 66 29 73 0 7 5 13 10
13 6 0 10 8 10 18 1 9 17 40 36 67 19 28 47 67 62 89 36 52 140 156 157 156 7
0 17 14 20 32 4 17 16 45 26 62 10 17 22 38 26 46 3 8 16 31 28 50 12 19 28
67 36 105 15 81 15 325 -1 384 -17 65 -23 250 -10 321 7 36 14 78 17 94 3 16
11 39 18 50 7 12 16 36 18 54 8 48 69 172 106 214 58 66 179 151 249 175 37
12 60 23 52 23 -9 1 -5 6 10 14 44 23 158 39 229 32 36 -4 86 -8 111 -10 25
-2 66 -7 93 -11 40 -7 47 -5 47 8 0 21 -23 26 -130 32 -47 3 -129 8 -182 11
-69 4 -98 3 -98 -5z"/>
<path d="M8810 8010 c8 -5 29 -9 45 -9 29 1 29 1 5 9 -14 4 -34 8 -45 9 -16 1
-17 -1 -5 -9z"/>
<path d="M11464 7995 c-10 -8 -31 -15 -45 -15 -15 0 -32 -6 -38 -14 -6 -7 -41
-21 -78 -31 -79 -21 -106 -33 -98 -44 9 -15 94 8 173 45 42 21 87 42 100 47
12 6 22 14 22 19 0 12 -14 10 -36 -7z"/>
<path d="M8940 7990 c31 -14 209 -24 255 -16 20 4 33 11 29 17 -3 6 -18 8 -32
5 -42 -9 -90 -9 -187 -2 -67 5 -84 4 -65 -4z"/>
<path d="M2760 7867 c0 -3 30 -15 68 -27 37 -12 76 -25 87 -29 32 -13 91 -31
99 -31 23 0 -20 29 -52 35 -20 4 -50 13 -67 21 -16 8 -43 16 -60 18 -16 3 -40
8 -52 11 -13 4 -23 5 -23 2z"/>
<path d="M3060 7866 c0 -7 76 -46 90 -46 20 0 9 18 -17 28 -44 17 -73 24 -73
18z"/>
<path d="M2400 7849 c0 -5 11 -9 25 -9 14 0 25 2 25 4 0 2 -11 6 -25 8 -14 3
-25 1 -25 -3z"/>
<path d="M3310 7851 c0 -11 31 -24 39 -16 3 3 -1 10 -9 15 -19 12 -30 12 -30
1z"/>
<path d="M3517 7839 c7 -7 15 -10 18 -7 3 3 -2 9 -12 12 -14 6 -15 5 -6 -5z"/>
<path d="M2496 7832 c5 -5 34 -16 64 -25 104 -32 245 -70 265 -73 11 -1 29 -5
40 -9 16 -6 15 -3 -5 14 -14 11 -26 16 -28 11 -2 -5 -20 -1 -40 9 -20 10 -58
21 -84 25 -26 4 -50 11 -53 17 -4 5 -20 9 -36 9 -16 0 -46 7 -66 15 -38 16
-73 20 -57 7z"/>
<path d="M3360 7822 c0 -4 33 -25 73 -45 69 -36 110 -64 196 -135 22 -18 42
-28 45 -24 7 12 -80 92 -100 92 -8 0 -17 7 -20 15 -4 8 -11 15 -18 15 -6 0
-20 9 -29 21 -10 11 -23 19 -30 16 -6 -2 -16 0 -22 5 -5 5 -21 17 -34 28 -24
20 -61 27 -61 12z"/>
<path d="M3550 7821 c0 -13 48 -46 56 -38 3 2 -9 15 -25 27 -17 12 -31 17 -31
11z"/>
<path d="M2106 7791 c5 -4 25 -11 44 -14 35 -6 35 -6 10 8 -27 16 -70 21 -54
6z"/>
<path d="M3285 7754 c44 -26 94 -54 110 -62 17 -8 38 -22 48 -30 9 -8 20 -12
25 -7 4 4 2 10 -5 12 -6 2 -27 17 -45 33 -18 16 -45 32 -60 35 -16 4 -28 11
-28 16 0 5 -7 9 -16 9 -9 0 -27 9 -41 20 -14 11 -35 20 -47 20 -13 0 9 -18 59
-46z"/>
<path d="M3030 7782 c0 -10 50 -35 57 -28 3 2 -9 12 -26 21 -17 8 -31 12 -31
7z"/>
<path d="M1840 7770 c0 -4 9 -10 20 -13 11 -3 20 -2 20 3 0 4 -9 10 -20 13
-11 3 -20 2 -20 -3z"/>
<path d="M2200 7771 c16 -9 200 -55 263 -66 25 -4 37 -3 33 4 -4 5 -28 13 -54
17 -26 3 -51 9 -57 13 -10 6 -172 41 -190 41 -5 -1 -3 -4 5 -9z"/>
<path d="M3750 7770 c0 -5 5 -10 11 -10 5 0 7 5 4 10 -3 6 -8 10 -11 10 -2 0
-4 -4 -4 -10z"/>
<path d="M3637 7751 c26 -25 83 -54 91 -47 3 3 1 6 -5 6 -9 0 -23 10 -70 50
-22 18 -37 10 -16 -9z"/>
<path d="M1914 7736 c11 -9 27 -16 37 -16 16 0 87 -22 179 -55 53 -20 170 -32
170 -18 0 5 -36 15 -80 22 -80 12 -206 47 -225 62 -6 4 -31 11 -55 14 -42 6
-44 5 -26 -9z"/>
<path d="M3113 7737 c2 -7 17 -17 34 -22 18 -6 40 -18 51 -28 10 -9 23 -17 28
-17 6 0 20 -9 33 -21 37 -35 34 -15 -4 24 -20 21 -45 37 -55 37 -11 0 -20 4
-20 8 0 5 -16 14 -36 20 -26 8 -34 8 -31 -1z"/>
<path d="M1258 7728 c6 -6 18 -8 28 -6 14 3 12 5 -9 10 -19 3 -25 2 -19 -4z"/>
<path d="M1626 7731 c5 -5 20 -12 34 -16 24 -7 24 -7 5 9 -21 16 -56 23 -39 7z"/>
<path d="M3835 7713 c22 -14 53 -37 68 -50 33 -27 56 -31 36 -6 -18 22 -115
83 -131 83 -7 0 5 -12 27 -27z"/>
<path d="M1334 7695 c22 -17 46 -20 46 -6 0 5 -10 11 -22 15 -37 9 -44 6 -24
-9z"/>
<path d="M1720 7690 c19 -11 45 -19 57 -20 12 0 23 -5 25 -12 3 -9 6 -9 11 0
5 7 -7 15 -35 23 -24 7 -47 16 -52 21 -6 4 -17 8 -25 8 -9 -1 0 -9 19 -20z"/>
<path d="M2931 7706 c15 -14 109 -55 109 -47 0 10 -79 51 -100 51 -7 0 -11 -2
-9 -4z"/>
<path d="M1515 7692 c6 -6 27 -17 47 -25 31 -13 36 -13 31 -1 -3 8 -14 14 -25
14 -11 0 -29 5 -41 11 -13 7 -18 7 -12 1z"/>
<path d="M2515 7690 c3 -5 10 -10 16 -10 5 0 9 5 9 10 0 6 -7 10 -16 10 -8 0
-12 -4 -9 -10z"/>
<path d="M2565 7690 c-6 -10 2 -15 45 -23 14 -3 51 -12 83 -20 31 -8 60 -11
62 -6 7 11 -3 16 -55 24 -25 4 -52 11 -60 15 -30 15 -69 20 -75 10z"/>
<path d="M3775 7656 c35 -30 75 -52 75 -41 0 8 -93 75 -104 75 -6 0 7 -16 29
-34z"/>
<path d="M1414 7655 c26 -19 42 -19 26 0 -7 8 -20 15 -29 15 -13 -1 -13 -3 3
-15z"/>
<path d="M1842 7649 c5 -17 48 -25 48 -10 0 6 -4 11 -9 11 -5 0 -17 3 -27 7
-12 4 -15 2 -12 -8z"/>
<path d="M1625 7640 c3 -5 10 -10 16 -10 5 0 9 5 9 10 0 6 -7 10 -16 10 -8 0
-12 -4 -9 -10z"/>
<path d="M2327 7642 c-7 -10 101 -32 157 -32 61 0 32 17 -41 24 -37 4 -78 9
-89 12 -12 3 -24 1 -27 -4z"/>
<path d="M3496 7635 c4 -8 8 -15 10 -15 2 0 4 7 4 15 0 8 -4 15 -10 15 -5 0
-7 -7 -4 -15z"/>
<path d="M827 7632 c-9 -2 -15 -8 -12 -13 8 -12 55 -12 55 0 0 12 -21 18 -43
13z"/>
<path d="M1465 7630 c3 -5 11 -10 16 -10 6 0 7 5 4 10 -3 6 -11 10 -16 10 -6
0 -7 -4 -4 -10z"/>
<path d="M1911 7620 c10 -6 33 -12 53 -15 20 -2 42 -7 48 -11 6 -4 23 -9 37
-10 14 -1 51 -7 81 -12 30 -5 73 -6 95 -2 42 8 34 11 -45 15 -45 2 -111 13
-180 31 -65 17 -114 19 -89 4z"/>
<path d="M1244 7606 c11 -9 27 -16 35 -16 21 0 2 16 -29 24 -24 7 -24 6 -6 -8z"/>
<path d="M1500 7615 c0 -2 10 -10 23 -16 20 -11 21 -11 8 4 -13 16 -31 23 -31
12z"/>
<path d="M1690 7616 c0 -10 65 -36 89 -35 19 0 11 6 -29 19 -63 22 -60 21 -60
16z"/>
<path d="M3525 7610 c3 -5 8 -10 11 -10 2 0 4 5 4 10 0 6 -5 10 -11 10 -5 0
-7 -4 -4 -10z"/>
<path d="M978 7603 c7 -3 16 -2 19 1 4 3 -2 6 -13 5 -11 0 -14 -3 -6 -6z"/>
<path d="M3701 7583 c18 -23 31 -33 44 -33 6 0 -3 11 -19 25 -34 29 -44 32
-25 8z"/>
<path d="M3880 7556 c25 -24 48 -41 53 -39 11 6 -65 83 -82 83 -9 0 2 -18 29
-44z"/>
<path d="M4000 7593 c1 -14 79 -87 86 -81 3 4 -13 25 -35 47 -42 41 -51 47
-51 34z"/>
<path d="M546 7571 c-31 -12 -2 -23 39 -15 19 3 35 10 35 15 0 11 -47 11 -74
0z"/>
<path d="M1320 7573 c8 -3 39 -19 68 -35 28 -16 52 -25 52 -20 0 13 -94 62
-116 61 -14 0 -15 -2 -4 -6z"/>
<path d="M1810 7569 c0 -4 19 -13 43 -19 23 -6 64 -18 91 -26 47 -13 145 -20
134 -9 -2 3 -38 11 -79 19 -41 8 -100 21 -131 29 -32 8 -58 11 -58 6z"/>
<path d="M631 7566 c6 -6 64 -12 199 -21 59 -3 80 -2 68 5 -9 6 -31 10 -50 10
-18 0 -76 3 -128 6 -52 3 -92 3 -89 0z"/>
<path d="M1606 7561 c5 -4 23 -11 39 -15 l30 -6 -25 15 c-27 16 -60 21 -44 6z"/>
<path d="M1165 7540 c3 -5 11 -10 16 -10 6 0 7 5 4 10 -3 6 -11 10 -16 10 -6
0 -7 -4 -4 -10z"/>
<path d="M950 7529 c0 -5 9 -9 20 -9 11 0 20 2 20 4 0 2 -9 6 -20 9 -11 3 -20
1 -20 -4z"/>
<path d="M1210 7518 c8 -9 29 -19 45 -22 24 -6 28 -5 18 5 -7 7 -18 14 -25 15
-7 1 -22 5 -33 9 -18 7 -18 6 -5 -7z"/>
<path d="M1700 7520 c0 -5 9 -10 21 -10 11 0 17 5 14 10 -3 6 -13 10 -21 10
-8 0 -14 -4 -14 -10z"/>
<path d="M363 7503 c9 -2 25 -2 35 0 9 3 1 5 -18 5 -19 0 -27 -2 -17 -5z"/>
<path d="M440 7500 c20 -13 60 -13 60 0 0 6 -17 10 -37 10 -28 0 -34 -3 -23
-10z"/>
<path d="M1470 7499 c0 -10 69 -41 83 -36 4 1 -12 12 -37 24 -25 11 -46 17
-46 12z"/>
<path d="M528 7493 c7 -3 16 -2 19 1 4 3 -2 6 -13 5 -11 0 -14 -3 -6 -6z"/>
<path d="M1084 7475 c55 -28 56 -28 56 -17 0 8 -41 27 -80 36 -14 4 -3 -5 24
-19z"/>
<path d="M1770 7488 c20 -20 78 -39 85 -28 3 5 -9 13 -27 18 -18 6 -42 13 -53
17 -18 7 -18 6 -5 -7z"/>
<path d="M628 7483 c7 -3 16 -2 19 1 4 3 -2 6 -13 5 -11 0 -14 -3 -6 -6z"/>
<path d="M810 7459 c-37 -7 -31 -8 63 -15 34 -3 56 0 53 5 -8 12 -72 18 -116
10z"/>
<path d="M1295 7460 c3 -5 17 -10 31 -10 14 0 22 4 19 10 -3 6 -17 10 -31 10
-14 0 -22 -4 -19 -10z"/>
<path d="M1885 7450 c3 -5 10 -10 16 -10 5 0 9 5 9 10 0 6 -7 10 -16 10 -8 0
-12 -4 -9 -10z"/>
<path d="M1636 7426 c34 -24 113 -41 127 -27 8 8 5 11 -13 13 -50 3 -55 4 -77
16 -12 7 -30 12 -40 12 -15 0 -15 -2 3 -14z"/>
<path d="M995 7420 c3 -5 15 -10 26 -10 11 0 17 5 14 10 -3 6 -15 10 -26 10
-11 0 -17 -4 -14 -10z"/>
<path d="M1390 7415 c7 -8 22 -15 33 -15 20 0 20 0 1 15 -27 20 -51 20 -34 0z"/>
<path d="M380 7410 c0 -5 14 -10 30 -10 17 0 30 5 30 10 0 6 -13 10 -30 10
-16 0 -30 -4 -30 -10z"/>
<path d="M500 7410 c0 -5 14 -10 31 -10 17 0 28 4 24 10 -3 6 -17 10 -31 10
-13 0 -24 -4 -24 -10z"/>
<path d="M1061 7405 c17 -17 69 -30 69 -18 0 5 -18 14 -41 20 -34 9 -39 9 -28
-2z"/>
<path d="M620 7400 c0 -5 9 -10 21 -10 11 0 17 5 14 10 -3 6 -13 10 -21 10 -8
0 -14 -4 -14 -10z"/>
<path d="M1255 7400 c3 -5 8 -10 11 -10 2 0 4 5 4 10 0 6 -5 10 -11 10 -5 0
-7 -4 -4 -10z"/>
<path d="M670 7391 c0 -10 100 -19 106 -10 2 4 -13 9 -34 13 -52 8 -72 7 -72
-3z"/>
<path d="M1450 7391 c0 -5 10 -11 23 -15 35 -9 40 -7 23 9 -16 16 -46 20 -46
6z"/>
<path d="M180 7370 c0 -5 5 -10 10 -10 6 0 10 5 10 10 0 6 -4 10 -10 10 -5 0
-10 -4 -10 -10z"/>
<path d="M840 7371 c0 -10 111 -34 119 -26 11 11 -16 23 -66 28 -29 3 -53 2
-53 -2z"/>
<path d="M1148 7373 c7 -3 16 -2 19 1 4 3 -2 6 -13 5 -11 0 -14 -3 -6 -6z"/>
<path d="M1200 7360 c0 -5 5 -10 10 -10 6 0 10 5 10 10 0 6 -4 10 -10 10 -5 0
-10 -4 -10 -10z"/>
<path d="M1325 7360 c3 -5 10 -10 16 -10 5 0 9 5 9 10 0 6 -7 10 -16 10 -8 0
-12 -4 -9 -10z"/>
<path d="M1556 7362 c-12 -11 -5 -17 19 -17 14 0 25 3 25 6 0 9 -37 18 -44 11z"/>
<path d="M3065 7347 c-11 -13 -32 -30 -47 -39 -14 -10 -36 -32 -49 -49 -31
-44 -12 -32 84 54 17 15 37 27 44 27 7 0 13 7 13 15 0 22 -22 17 -45 -8z"/>
<path d="M3285 7359 c-4 -5 -18 -14 -31 -19 -13 -5 -24 -14 -24 -20 0 -14 17
-12 37 5 10 8 27 21 38 29 17 13 18 15 3 16 -9 0 -20 -5 -23 -11z"/>
<path d="M470 7352 c0 -13 36 -22 89 -22 55 0 51 6 -9 15 -25 3 -53 8 -62 11
-10 3 -18 1 -18 -4z"/>
<path d="M3478 7344 c-30 -16 -37 -34 -13 -34 8 0 15 5 15 10 0 6 15 17 33 25
22 10 26 14 12 14 -11 0 -32 -7 -47 -15z"/>
<path d="M980 7340 c0 -5 9 -10 21 -10 11 0 17 5 14 10 -3 6 -13 10 -21 10 -8
0 -14 -4 -14 -10z"/>
<path d="M1260 7340 c0 -6 7 -10 15 -10 8 0 15 2 15 4 0 2 -7 6 -15 10 -8 3
-15 1 -15 -4z"/>
<path d="M2715 7338 c-28 -17 -45 -35 -45 -49 0 -7 10 -3 23 9 13 12 29 22 35
22 7 0 12 7 12 15 0 18 1 18 -25 3z"/>
<path d="M2813 7326 c-17 -13 -38 -30 -47 -39 -9 -8 -19 -17 -23 -19 -15 -6
-105 -118 -96 -118 5 0 18 10 29 23 11 12 44 42 74 67 81 69 122 110 108 109
-7 0 -27 -11 -45 -23z"/>
<path d="M3735 7341 c-6 -5 -21 -12 -35 -15 -14 -3 2 -3 35 0 67 5 101 24 44
24 -19 0 -39 -4 -44 -9z"/>
<path d="M1037 7329 c6 -6 27 -13 49 -16 35 -6 38 -5 26 9 -7 9 -28 16 -48 16
-23 0 -32 -4 -27 -9z"/>
<path d="M689 7319 c23 -4 53 -11 65 -15 21 -6 21 -6 1 10 -12 9 -38 15 -65
15 l-45 -1 44 -9z"/>
<path d="M1390 7320 c0 -5 4 -10 9 -10 5 0 18 -3 28 -6 16 -6 16 -5 -2 9 -23
19 -35 21 -35 7z"/>
<path d="M2535 7305 c-11 -13 -27 -26 -36 -28 -8 -2 -16 -12 -16 -21 0 -22 12
-20 34 7 10 12 31 32 47 45 23 18 25 22 10 22 -11 -1 -28 -12 -39 -25z"/>
<path d="M201 7293 c-29 -15 -48 -29 -42 -31 8 -3 95 40 110 54 13 12 -22 0
-68 -23z"/>
<path d="M1154 7305 c11 -8 27 -15 35 -15 9 -1 34 -3 56 -5 l40 -5 -30 14
c-16 7 -50 16 -75 20 -41 5 -43 5 -26 -9z"/>
<path d="M3616 7311 c-3 -5 -23 -12 -43 -15 -46 -9 -93 -28 -93 -38 0 -5 -7
-8 -15 -8 -8 0 -15 -4 -15 -10 0 -5 7 -10 15 -10 8 0 15 5 15 10 0 6 6 10 14
10 7 0 27 7 42 15 16 8 37 15 46 15 9 0 20 5 23 10 3 6 17 10 30 10 13 0 27 5
30 10 3 6 -5 10 -19 10 -14 0 -27 -4 -30 -9z"/>
<path d="M2398 7264 c-46 -49 -67 -81 -68 -103 0 -8 13 1 30 20 72 83 100 117
100 123 0 16 -23 2 -62 -40z"/>
<path d="M3190 7301 c0 -5 -8 -12 -18 -15 -18 -6 -48 -46 -34 -46 5 0 26 16
48 35 28 25 34 34 22 35 -10 0 -18 -4 -18 -9z"/>
<path d="M3400 7300 c0 -5 -9 -10 -19 -10 -22 0 -36 -16 -23 -24 5 -3 26 6 48
19 33 20 35 24 17 25 -13 0 -23 -4 -23 -10z"/>
<path d="M879 7286 c7 -9 23 -15 35 -15 24 1 75 -13 123 -32 29 -12 55 -8 41
6 -7 7 -122 40 -172 49 -35 7 -38 6 -27 -8z"/>
<path d="M3883 7293 c-26 -10 -12 -22 20 -16 51 9 68 22 27 22 -19 0 -41 -3
-47 -6z"/>
<path d="M1308 7283 c7 -3 16 -2 19 1 4 3 -2 6 -13 5 -11 0 -14 -3 -6 -6z"/>
<path d="M3835 7280 c-3 -5 -17 -10 -30 -10 -28 0 -55 -9 -55 -20 0 -9 59 -6
82 4 18 8 33 36 18 36 -5 0 -12 -4 -15 -10z"/>
<path d="M1360 7270 c8 -5 20 -10 25 -10 6 0 3 5 -5 10 -8 5 -19 10 -25 10 -5
0 -3 -5 5 -10z"/>
<path d="M9376 7268 c4 -7 19 -28 32 -45 13 -18 22 -33 18 -33 -3 0 6 -19 20
-42 26 -42 88 -108 102 -108 4 0 19 -11 33 -24 14 -12 68 -42 119 -65 120 -52
165 -82 225 -151 27 -30 52 -56 57 -58 4 -2 8 -10 8 -17 0 -8 8 -19 18 -24 16
-9 26 -31 70 -151 61 -171 62 -179 66 -325 7 -284 -88 -609 -216 -737 -10 -10
-18 -23 -18 -29 0 -7 -22 -35 -49 -63 -61 -62 -111 -121 -111 -130 0 -3 6 -6
14 -6 23 0 275 297 276 326 0 5 14 36 30 69 16 33 30 69 30 79 0 22 22 88 31
96 5 5 27 101 35 160 10 64 21 229 18 260 -7 76 -17 135 -24 140 -4 3 -10 24
-13 47 -9 62 -17 90 -43 144 -13 27 -24 55 -24 63 0 8 -11 24 -25 37 -13 13
-25 30 -25 37 0 6 -4 12 -8 12 -4 0 -16 13 -25 30 -17 27 -32 43 -105 110 -60
55 -196 133 -269 155 -13 3 -23 11 -23 16 0 5 -6 9 -13 9 -22 0 -79 62 -138
148 -30 45 -60 81 -67 82 -8 0 -10 -5 -6 -12z"/>
<path d="M2280 7251 c-5 -11 -10 -30 -10 -43 0 -22 0 -22 19 -3 27 28 37 65
17 65 -8 0 -20 -9 -26 -19z"/>
<path d="M2620 7260 c0 -5 4 -10 9 -10 6 0 13 5 16 10 3 6 -1 10 -9 10 -9 0
-16 -4 -16 -10z"/>
<path d="M2875 7260 c-3 -5 1 -10 9 -10 9 0 16 5 16 10 0 6 -4 10 -9 10 -6 0
-13 -4 -16 -10z"/>
<path d="M3299 7247 c-13 -13 -45 -38 -71 -57 -65 -46 -61 -59 5 -15 28 20 64
43 79 53 16 9 28 23 28 30 0 18 -15 15 -41 -11z"/>
<path d="M4015 7255 c-27 -8 -74 -17 -102 -20 -29 -4 -53 -11 -53 -16 0 -13
29 -11 86 5 27 8 78 18 114 21 36 4 72 11 80 16 24 14 -68 9 -125 -6z"/>
<path d="M377 7250 c-70 -5 -95 -23 -39 -28 18 -2 32 1 32 7 0 7 28 11 72 11
39 0 69 3 65 6 -8 8 -52 10 -130 4z"/>
<path d="M80 7240 c0 -5 5 -10 10 -10 6 0 10 5 10 10 0 6 -4 10 -10 10 -5 0
-10 -4 -10 -10z"/>
<path d="M1094 7239 c-2 -5 8 -11 23 -14 15 -3 42 -10 60 -16 43 -13 142 -14
156 0 8 8 -6 11 -53 11 -36 0 -91 6 -123 14 -31 7 -60 10 -63 5z"/>
<path d="M2825 7218 c-61 -66 -78 -88 -71 -88 13 0 108 99 104 110 -2 6 -17
-4 -33 -22z"/>
<path d="M3640 7238 c-35 -15 -9 -22 48 -13 41 7 44 9 22 16 -34 10 -41 9 -70
-3z"/>
<path d="M4199 7231 c-13 -10 -46 -20 -72 -23 -48 -6 -65 -13 -54 -24 8 -8
121 16 128 27 3 5 42 12 88 16 45 3 84 10 87 15 3 4 -30 8 -74 8 -62 0 -85 -4
-103 -19z"/>
<path d="M241 7226 c-9 -11 -9 -15 1 -19 16 -5 48 10 48 23 0 15 -36 12 -49
-4z"/>
<path d="M613 7233 c9 -2 23 -2 30 0 6 3 -1 5 -18 5 -16 0 -22 -2 -12 -5z"/>
<path d="M2577 7218 c-29 -31 -10 -35 21 -5 17 18 21 27 12 26 -8 0 -23 -10
-33 -21z"/>
<path d="M3100 7209 c0 -5 5 -7 10 -4 6 3 10 8 10 11 0 2 -4 4 -10 4 -5 0 -10
-5 -10 -11z"/>
<path d="M3803 7213 c-24 -5 -30 -18 -13 -28 12 -7 50 12 50 25 0 6 -3 9 -7 9
-5 -1 -18 -4 -30 -6z"/>
<path d="M180 7195 c-24 -13 -24 -14 -4 -15 12 0 27 7 34 15 16 19 3 19 -30 0z"/>
<path d="M770 7200 c20 -13 63 -13 55 0 -3 6 -21 10 -38 10 -24 0 -28 -3 -17
-10z"/>
<path d="M896 7191 c-6 -9 105 -24 113 -15 3 3 -1 9 -9 14 -19 12 -97 13 -104
1z"/>
<path d="M3540 7180 c-14 -11 -21 -20 -17 -20 11 0 67 29 67 35 0 11 -27 3
-50 -15z"/>
<path d="M1020 7182 c0 -6 5 -14 10 -17 17 -10 235 -14 251 -4 7 5 12 9 9 9
-3 1 -50 3 -105 5 -55 2 -115 6 -132 10 -21 5 -33 3 -33 -3z"/>
<path d="M1317 7179 c8 -8 16 -8 30 0 16 9 14 10 -11 11 -22 0 -27 -3 -19 -11z"/>
<path d="M2237 7169 c-20 -22 -22 -42 -5 -37 17 6 41 45 30 52 -4 3 -16 -4
-25 -15z"/>
<path d="M2517 7162 c-20 -22 -21 -32 -4 -32 18 1 52 50 34 50 -8 0 -21 -8
-30 -18z"/>
<path d="M3990 7171 c-44 -9 -119 -43 -104 -48 6 -2 31 3 55 12 24 9 59 21 77
26 17 6 32 12 32 14 0 6 -11 5 -60 -4z"/>
<path d="M2004 7148 c-3 -13 -16 -36 -27 -52 -18 -26 -18 -28 -2 -25 10 2 26
18 35 34 27 49 31 65 15 65 -7 0 -17 -10 -21 -22z"/>
<path d="M2112 7150 c-6 -11 -8 -21 -3 -25 5 -3 13 4 16 16 9 28 2 33 -13 9z"/>
<path d="M4339 7166 c-2 -3 -34 -6 -72 -8 -37 -1 -67 -5 -67 -9 0 -4 -20 -12
-45 -19 -24 -7 -42 -16 -40 -21 3 -4 20 -3 38 2 59 18 191 39 245 39 33 0 51
4 47 10 -6 10 -97 15 -106 6z"/>
<path d="M403 7147 c2 -7 27 -11 63 -10 32 1 76 2 97 2 23 1 36 5 32 11 -9 15
-197 11 -192 -3z"/>
<path d="M1915 7134 c-14 -15 -25 -33 -25 -40 0 -7 -6 -14 -12 -17 -7 -2 -10
-8 -5 -13 4 -4 15 3 25 16 56 78 65 106 17 54z"/>
<path d="M315 7140 c-3 -5 -22 -10 -41 -10 -19 0 -33 -4 -30 -9 3 -5 14 -8 24
-6 9 2 34 7 55 10 20 3 37 10 37 15 0 13 -37 13 -45 0z"/>
<path d="M618 7143 c7 -3 16 -2 19 1 4 3 -2 6 -13 5 -11 0 -14 -3 -6 -6z"/>
<path d="M670 7140 c0 -5 7 -10 16 -10 8 0 12 5 9 10 -3 6 -10 10 -16 10 -5 0
-9 -4 -9 -10z"/>
<path d="M720 7131 c0 -13 37 -24 52 -15 8 5 6 10 -8 15 -27 11 -44 11 -44 0z"/>
<path d="M1440 7130 c0 -13 20 -13 40 0 12 8 9 10 -12 10 -16 0 -28 -4 -28
-10z"/>
<path d="M790 7120 c0 -5 18 -10 40 -10 22 0 40 5 40 10 0 6 -18 10 -40 10
-22 0 -40 -4 -40 -10z"/>
<path d="M925 7120 c-3 -5 1 -10 10 -10 9 0 13 5 10 10 -3 6 -8 10 -10 10 -2
0 -7 -4 -10 -10z"/>
<path d="M1410 7120 c-9 -6 -10 -10 -3 -10 6 0 15 5 18 10 8 12 4 12 -15 0z"/>
<path d="M1540 7121 c0 -5 -9 -13 -20 -16 -23 -7 -27 -25 -7 -25 14 0 47 31
47 43 0 4 -4 7 -10 7 -5 0 -10 -4 -10 -9z"/>
<path d="M2300 7116 c0 -8 -7 -17 -16 -20 -9 -4 -14 -9 -10 -13 7 -7 46 25 46
39 0 4 -4 8 -10 8 -5 0 -10 -6 -10 -14z"/>
<path d="M960 7115 c0 -10 45 -23 100 -28 154 -17 189 -18 229 -7 53 14 45 29
-11 21 -42 -7 -234 2 -290 13 -16 3 -28 3 -28 1z"/>
<path d="M1561 7070 c-30 -28 -51 -53 -48 -57 9 -8 59 26 52 36 -2 5 11 19 30
32 33 23 45 39 28 39 -5 0 -32 -23 -62 -50z"/>
<path d="M1700 7104 c0 -8 5 -12 10 -9 6 3 10 10 10 16 0 5 -4 9 -10 9 -5 0
-10 -7 -10 -16z"/>
<path d="M1783 7103 c-4 -10 -13 -24 -20 -31 -7 -7 -13 -21 -13 -30 1 -13 7
-9 26 13 40 47 47 65 29 65 -9 0 -19 -8 -22 -17z"/>
<path d="M2462 7085 c-12 -19 -20 -35 -17 -35 8 0 54 53 55 63 0 17 -17 4 -38
-28z"/>
<path d="M2730 7109 c0 -5 5 -7 10 -4 6 3 10 8 10 11 0 2 -4 4 -10 4 -5 0 -10
-5 -10 -11z"/>
<path d="M1358 7103 c7 -3 16 -2 19 1 4 3 -2 6 -13 5 -11 0 -14 -3 -6 -6z"/>
<path d="M2085 7100 c-3 -5 -1 -10 4 -10 6 0 11 5 11 10 0 6 -2 10 -4 10 -3 0
-8 -4 -11 -10z"/>
<path d="M2172 7057 c-19 -29 -58 -79 -88 -111 -30 -31 -54 -59 -54 -61 0 -17
32 0 52 28 14 17 46 54 72 81 25 27 46 57 46 67 0 10 5 21 10 24 6 3 10 10 10
16 0 21 -17 6 -48 -44z"/>
<path d="M4060 7101 c0 -10 26 -9 36 2 4 4 -2 7 -14 7 -12 0 -22 -4 -22 -9z"/>
<path d="M1665 7059 c-7 -22 -53 -68 -68 -69 -4 0 -22 -16 -40 -35 -18 -20
-42 -35 -54 -35 -27 0 -38 -16 -17 -24 17 -7 66 25 102 67 13 15 30 27 37 27
14 0 75 65 75 80 0 19 -29 10 -35 -11z"/>
<path d="M1460 7059 c0 -8 -20 -10 -62 -7 -35 3 -72 2 -83 -3 -17 -7 -16 -8 8
-8 15 -1 27 -6 27 -11 0 -12 61 -7 102 9 31 12 46 31 24 31 -9 0 -16 -5 -16
-11z"/>
<path d="M2260 7059 c0 -5 5 -7 10 -4 6 3 10 8 10 11 0 2 -4 4 -10 4 -5 0 -10
-5 -10 -11z"/>
<path d="M4355 7042 c-9 -15 -43 -52 -74 -82 -32 -30 -71 -73 -87 -95 -16 -22
-35 -44 -41 -48 -7 -4 -13 -12 -13 -17 0 -6 -16 -30 -35 -56 -19 -25 -35 -49
-35 -54 0 -5 -13 -28 -29 -52 -16 -24 -36 -61 -44 -83 -25 -66 -48 -152 -46
-167 1 -7 -2 -22 -6 -33 -32 -78 -45 -119 -49 -154 -3 -23 -7 -45 -10 -49 -3
-5 -6 -26 -7 -48 -1 -21 -6 -66 -11 -99 -8 -52 -7 -61 8 -72 15 -11 16 -13 2
-13 -23 0 -30 -56 -22 -175 4 -55 7 -107 7 -115 1 -29 -14 -149 -22 -177 -4
-15 -7 -38 -5 -50 2 -12 -1 -25 -6 -28 -6 -3 -10 -21 -10 -39 0 -18 -3 -36 -7
-39 -11 -11 -52 -140 -47 -148 2 -4 0 -10 -6 -14 -6 -4 -8 -11 -4 -16 3 -6 -2
-19 -12 -30 -9 -10 -14 -22 -11 -25 3 -4 -7 -26 -23 -50 -17 -23 -35 -53 -40
-66 -21 -46 -37 -65 -141 -168 -111 -109 -147 -140 -162 -140 -5 0 -18 -11
-29 -25 -11 -14 -41 -36 -67 -47 -25 -12 -48 -25 -51 -28 -14 -19 -58 -32
-115 -34 -42 -2 -79 -11 -107 -26 -50 -26 -58 -35 -58 -72 0 -15 -5 -30 -11
-33 -5 -4 -9 -17 -8 -28 1 -12 -1 -29 -4 -37 -16 -44 -31 -370 -16 -370 5 0
10 8 10 18 1 9 2 22 4 27 1 6 3 21 3 34 3 37 19 15 33 -44 6 -27 14 -57 17
-65 3 -8 7 -24 8 -35 13 -73 16 -85 25 -85 5 0 7 12 4 28 -3 15 -8 45 -11 67
-3 22 -13 69 -21 105 -8 36 -16 88 -16 115 -1 28 -5 55 -10 62 -8 13 0 150 10
167 4 6 8 16 8 21 0 23 52 77 92 96 44 21 76 24 220 20 40 -1 73 3 92 14 54
27 33 43 -34 25 -5 -1 -26 -2 -44 -1 l-35 1 38 34 c20 19 41 36 46 38 35 11
334 288 312 288 -4 0 7 9 23 20 17 11 30 25 30 33 0 7 12 28 26 47 27 36 53
100 41 100 -4 0 -2 4 3 8 17 12 66 112 60 122 -4 6 -2 10 2 10 5 0 15 35 22
78 6 42 19 102 28 132 13 44 17 107 18 315 2 256 2 263 37 435 20 96 39 195
42 220 20 138 185 427 314 547 42 40 80 73 85 73 10 0 9 48 -2 54 -5 3 -17 -7
-26 -22z"/>
<path d="M10260 7065 c0 -4 13 -25 29 -48 15 -23 52 -88 80 -144 31 -61 59
-103 67 -103 25 0 5 43 -88 189 -15 25 -28 50 -28 56 0 6 -13 21 -30 33 -16
13 -30 20 -30 17z"/>
<path d="M525 7050 c-16 -5 -55 -12 -85 -15 -54 -6 -90 -19 -79 -29 3 -3 21
-1 39 4 47 13 133 23 208 23 34 0 65 3 68 8 3 5 -3 9 -14 9 -11 0 -39 2 -63 4
-24 3 -57 1 -74 -4z"/>
<path d="M1950 7047 c0 -7 -9 -20 -20 -30 -12 -10 -18 -22 -14 -28 3 -6 18 3
34 23 27 31 30 48 9 48 -5 0 -9 -6 -9 -13z"/>
<path d="M760 7039 c0 -7 51 -19 76 -19 8 0 14 4 14 9 0 5 -20 11 -45 13 -25
2 -45 0 -45 -3z"/>
<path d="M1175 7035 c-22 -8 -55 -14 -73 -14 -18 -1 -31 -5 -28 -10 7 -10 196
15 210 29 14 14 -60 11 -109 -5z"/>
<path d="M1855 7041 c-6 -11 9 -23 19 -14 9 9 7 23 -3 23 -6 0 -12 -4 -16 -9z"/>
<path d="M2055 7040 c-3 -5 -1 -10 4 -10 6 0 11 5 11 10 0 6 -2 10 -4 10 -3 0
-8 -4 -11 -10z"/>
<path d="M876 7026 c3 -8 -4 -16 -18 -21 l-23 -8 23 -4 c27 -5 27 -5 36 25 6
16 3 22 -8 22 -9 0 -13 -6 -10 -14z"/>
<path d="M2247 7022 c-19 -20 -22 -32 -9 -32 5 0 14 11 20 25 14 30 11 31 -11
7z"/>
<path d="M940 7020 c20 -13 33 -13 25 0 -3 6 -14 10 -23 10 -15 0 -15 -2 -2
-10z"/>
<path d="M1003 7013 c9 -2 25 -2 35 0 9 3 1 5 -18 5 -19 0 -27 -2 -17 -5z"/>
<path d="M1278 7013 c-14 -2 -32 -10 -38 -18 -9 -11 -3 -11 32 -3 24 5 47 13
53 19 9 9 4 10 -47 2z"/>
<path d="M1725 7010 c-3 -5 -1 -10 4 -10 6 0 11 5 11 10 0 6 -2 10 -4 10 -3 0
-8 -4 -11 -10z"/>
<path d="M1830 7009 c0 -5 5 -7 10 -4 6 3 10 8 10 11 0 2 -4 4 -10 4 -5 0 -10
-5 -10 -11z"/>
<path d="M758 7004 c-3 -3 -20 -6 -37 -6 -18 -1 -34 -5 -37 -10 -3 -4 15 -7
40 -5 26 1 47 6 47 11 1 11 -7 17 -13 10z"/>
<path d="M800 7000 c-12 -8 -10 -10 8 -10 13 0 20 4 17 10 -7 12 -6 12 -25 0z"/>
<path d="M288 6993 c6 -2 18 -2 25 0 6 3 1 5 -13 5 -14 0 -19 -2 -12 -5z"/>
<path d="M613 6982 c-18 -2 -33 -8 -33 -14 0 -6 12 -8 32 -4 54 11 54 23 1 18z"/>
<path d="M1135 6980 c-17 -7 -15 -9 12 -9 17 -1 35 4 38 9 7 12 -22 12 -50 0z"/>
<path d="M1010 6970 c-40 -5 -42 -7 -15 -11 42 -6 105 1 105 12 0 10 -20 10
-90 -1z"/>
<path d="M1406 6971 c-3 -5 -22 -12 -41 -15 -20 -4 -33 -11 -30 -16 3 -5 28
-1 55 9 58 20 72 31 42 31 -11 0 -23 -4 -26 -9z"/>
<path d="M1887 6973 c-12 -12 -7 -22 8 -17 8 4 15 10 15 15 0 11 -14 12 -23 2z"/>
<path d="M1940 6915 c-29 -30 -51 -57 -48 -60 8 -8 81 53 101 86 29 45 7 34
-53 -26z"/>
<path d="M2156 6909 c-70 -72 -69 -90 1 -22 40 38 73 84 60 83 -1 0 -28 -28
-61 -61z"/>
<path d="M1618 6926 c-26 -17 -48 -34 -48 -38 0 -14 27 -9 40 7 7 8 16 15 21
15 12 0 49 32 49 42 0 13 -12 8 -62 -26z"/>
<path d="M1739 6923 c-39 -29 -63 -43 -81 -49 -9 -3 -19 -12 -22 -20 -3 -8
-10 -14 -16 -14 -6 0 -25 -13 -43 -30 -18 -16 -37 -30 -43 -30 -6 0 -17 -7
-24 -15 -22 -26 6 -17 56 20 27 19 72 48 99 64 59 36 125 90 109 91 -6 0 -22
-8 -35 -17z"/>
<path d="M1812 6900 c-24 -21 -64 -51 -90 -66 -45 -27 -92 -64 -80 -64 4 0 34
13 69 30 67 31 186 141 152 140 -5 -1 -27 -18 -51 -40z"/>
<path d="M953 6923 c-46 -2 -83 -8 -83 -13 0 -6 34 -8 83 -6 159 7 154 7 132
16 -11 5 -27 8 -35 7 -8 0 -52 -3 -97 -4z"/>
<path d="M1120 6920 c0 -5 5 -10 10 -10 6 0 10 5 10 10 0 6 -4 10 -10 10 -5 0
-10 -4 -10 -10z"/>
<path d="M1150 6920 c0 -13 40 -13 60 0 11 7 5 10 -22 10 -21 0 -38 -4 -38
-10z"/>
<path d="M720 6903 c-19 -3 -39 -9 -45 -14 -7 -7 5 -9 35 -5 25 2 64 5 88 5
23 1 42 6 42 11 0 10 -50 11 -120 3z"/>
<path d="M864 6858 c-2 -3 9 -16 26 -28 25 -18 30 -19 30 -6 0 14 18 16 118
17 64 1 124 3 132 4 8 1 25 3 38 4 12 0 22 4 22 9 0 9 -360 10 -366 0z"/>
<path d="M1495 6844 c-19 -16 -19 -16 5 -9 31 9 50 25 30 25 -8 0 -24 -8 -35
-16z"/>
<path d="M605 6823 c-30 -7 -43 -23 -19 -23 12 0 24 3 28 7 4 4 28 6 54 6 41
-1 43 0 17 7 -35 9 -52 10 -80 3z"/>
<path d="M1400 6814 c-19 -7 -46 -13 -60 -14 -29 0 -56 -15 -43 -23 14 -9 163
35 163 48 0 8 -21 4 -60 -11z"/>
<path d="M1070 6800 c0 -12 24 -12 60 0 21 7 19 8 -17 9 -24 1 -43 -3 -43 -9z"/>
<path d="M1248 6773 c6 -2 18 -2 25 0 6 3 1 5 -13 5 -14 0 -19 -2 -12 -5z"/>
<path d="M1137 6763 c-15 -2 -25 -8 -22 -13 6 -10 86 -1 100 11 9 9 -25 10
-78 2z"/>
<path d="M1590 6750 c0 -5 4 -10 9 -10 6 0 13 5 16 10 3 6 -1 10 -9 10 -9 0
-16 -4 -16 -10z"/>
<path d="M10432 6753 c2 -5 15 -34 31 -65 66 -140 79 -172 82 -213 2 -24 8
-58 14 -77 6 -18 13 -54 16 -80 4 -30 11 -48 20 -48 18 0 26 79 10 105 -13 22
-18 38 -44 141 -10 39 -35 105 -55 147 -20 42 -36 81 -36 87 0 5 -9 10 -21 10
-11 0 -19 -3 -17 -7z"/>
<path d="M1033 6743 c9 -2 23 -2 30 0 6 3 -1 5 -18 5 -16 0 -22 -2 -12 -5z"/>
<path d="M11010 6674 c0 -8 5 -12 10 -9 6 3 10 10 10 16 0 5 -4 9 -10 9 -5 0
-10 -7 -10 -16z"/>
<path d="M10986 6635 c-3 -9 0 -15 9 -15 8 0 15 7 15 15 0 8 -4 15 -9 15 -5 0
-11 -7 -15 -15z"/>
<path d="M10920 6565 c-19 -19 -39 -35 -45 -35 -7 0 -24 -13 -38 -30 -15 -16
-31 -30 -36 -30 -6 0 -15 -16 -22 -35 -7 -19 -17 -35 -23 -35 -5 0 -7 -3 -3
-6 3 -4 -7 -26 -23 -50 -17 -23 -30 -46 -30 -51 0 -10 69 67 71 79 1 4 2 11 3
16 3 18 56 73 119 122 69 53 100 90 75 90 -7 0 -29 -16 -48 -35z"/>
<path d="M7010 6401 c0 -11 -75 -51 -95 -51 -8 0 -15 -3 -15 -7 0 -5 -10 -13
-23 -20 -12 -6 -51 -26 -87 -45 -94 -47 -171 -103 -258 -183 -84 -77 -87 -81
-169 -179 -32 -39 -81 -94 -110 -124 -29 -30 -51 -57 -50 -61 4 -14 -162 -166
-193 -176 -11 -4 -20 -11 -20 -16 0 -5 -8 -9 -17 -9 -10 0 -31 -7 -47 -15 -61
-32 -55 -8 18 68 25 26 46 51 46 55 0 4 16 33 35 65 19 32 35 65 35 73 0 9 12
31 26 49 33 43 84 147 78 157 -3 5 0 8 5 8 6 0 18 17 26 37 9 21 22 44 29 53
8 8 17 26 21 40 4 14 17 36 29 50 12 14 31 39 41 55 10 17 24 34 32 38 7 4 13
16 13 25 -1 38 -150 -154 -205 -263 -11 -22 -31 -58 -45 -80 -14 -22 -36 -62
-49 -90 -13 -27 -32 -62 -43 -77 -10 -14 -18 -34 -18 -43 0 -18 -31 -67 -64
-101 -12 -12 -46 -50 -76 -84 -30 -35 -68 -75 -83 -89 -16 -14 -43 -39 -61
-56 -18 -16 -43 -37 -56 -45 -13 -8 -42 -31 -64 -50 -22 -19 -47 -39 -54 -45
-7 -5 -21 -17 -30 -26 -9 -10 -36 -27 -59 -39 -24 -12 -43 -26 -43 -31 0 -5
-5 -9 -12 -9 -7 0 -48 -17 -93 -39 -44 -21 -102 -49 -130 -62 -27 -12 -57 -28
-65 -36 -80 -72 -181 -157 -226 -189 -15 -10 -37 -29 -49 -41 -12 -13 -27 -23
-32 -23 -5 0 -18 -9 -28 -20 -10 -11 -23 -20 -29 -20 -6 0 -21 -11 -34 -24
-32 -34 -167 -96 -222 -102 -51 -5 -140 -36 -140 -49 0 -5 -4 -4 -9 4 -11 17
-46 9 -92 -22 -41 -28 -112 -57 -139 -57 -20 0 -75 -29 -126 -67 -17 -13 -36
-23 -42 -23 -7 0 -12 -7 -12 -15 0 -8 -7 -15 -16 -15 -25 0 -89 -41 -169 -109
-22 -19 -127 -140 -128 -148 -1 -4 -15 -20 -31 -35 -17 -16 -27 -28 -23 -28 5
0 -1 -13 -12 -29 -12 -16 -21 -32 -21 -36 0 -4 -9 -19 -20 -35 -11 -15 -21
-36 -23 -46 -2 -11 -12 -37 -22 -59 -20 -45 -20 -45 -29 -99 -4 -22 -10 -44
-15 -50 -5 -6 -8 -27 -7 -46 1 -19 -2 -37 -6 -40 -4 -3 -9 -17 -10 -30 -2 -14
-7 -28 -12 -31 -4 -4 -10 -24 -12 -45 -2 -22 -6 -50 -10 -64 -9 -38 -29 -255
-26 -295 1 -5 3 -89 5 -185 3 -96 8 -186 12 -200 3 -14 8 -41 12 -60 10 -66
46 -173 63 -190 19 -19 95 -34 113 -23 29 18 207 19 250 2 89 -36 171 -107
182 -157 5 -26 3 -32 -10 -32 -9 0 -23 6 -30 14 -16 15 -135 11 -167 -6 -11
-5 -18 -5 -18 1 0 5 -22 12 -50 16 -27 4 -52 11 -56 16 -3 5 -19 9 -37 9 -29
0 -30 -1 -12 -14 41 -28 122 -45 227 -48 60 -2 108 -6 108 -9 0 -3 27 -25 59
-49 33 -23 72 -62 87 -86 16 -24 31 -44 35 -44 4 0 8 -8 7 -17 0 -10 5 -43 12
-73 16 -72 16 -99 -4 -118 -14 -15 -19 -15 -44 -1 -15 9 -47 21 -72 28 -25 7
-58 19 -75 26 -16 7 -41 16 -55 19 -19 4 -33 20 -53 61 -15 30 -33 55 -42 55
-8 0 -19 9 -25 20 -6 11 -18 20 -28 20 -9 0 -26 7 -36 15 -11 8 -30 15 -42 15
-12 0 -37 7 -57 15 -19 8 -37 12 -40 8 -4 -3 -31 20 -62 50 -30 31 -55 54 -55
51 0 -4 14 -31 31 -60 31 -56 60 -80 84 -70 22 8 178 -63 203 -92 12 -15 31
-52 42 -82 11 -30 24 -62 29 -71 5 -8 7 -27 4 -42 -5 -27 10 -57 29 -57 5 0 8
26 5 60 -5 73 5 84 56 66 20 -7 40 -15 43 -19 4 -4 15 -7 25 -7 10 0 34 -14
53 -31 29 -25 41 -30 66 -24 29 6 56 36 43 49 -3 3 0 6 7 6 31 0 -10 222 -51
278 -17 22 -82 82 -90 82 -3 0 -9 25 -12 56 -7 66 -31 105 -97 157 -80 64
-100 70 -233 62 -66 -3 -128 -10 -140 -14 -12 -5 -33 -4 -47 1 -39 14 -59 68
-90 248 -4 25 -11 56 -14 70 -4 14 -6 63 -6 110 0 100 0 87 -3 220 -1 58 1
125 6 150 4 25 9 61 11 80 2 19 9 63 16 97 7 34 12 65 10 69 -1 4 3 10 9 13 6
4 12 20 13 37 1 16 7 38 14 49 13 21 29 84 26 99 -2 4 3 15 9 23 7 8 14 28 16
45 2 18 11 40 21 51 9 10 24 35 32 55 22 53 68 127 118 189 23 29 42 55 42 58
0 15 98 95 170 140 30 19 62 41 70 49 8 8 37 20 63 27 26 6 52 19 56 28 5 9
31 22 58 30 26 8 56 21 66 29 9 8 20 12 24 9 3 -4 13 -1 22 7 17 14 134 51
211 66 116 22 156 32 165 41 5 6 4 9 -5 9 -11 0 -11 3 -2 12 10 10 15 10 21
-1 7 -11 10 -11 17 2 5 8 25 17 44 19 29 2 35 7 33 25 -2 17 1 21 14 16 11 -4
14 -3 9 5 -5 8 1 12 17 12 17 0 47 22 96 70 39 39 75 70 80 70 6 0 16 8 23 18
7 10 31 29 53 42 22 13 42 28 44 33 5 14 148 105 199 127 66 29 190 94 207
109 11 10 45 35 75 56 30 21 59 44 63 52 4 7 14 13 21 13 7 0 21 9 32 21 18
20 100 79 110 79 11 0 44 -42 50 -65 3 -14 12 -29 18 -33 18 -10 46 -87 46
-125 0 -18 5 -38 11 -44 7 -7 7 -13 1 -17 -5 -3 -6 -23 -2 -47 11 -57 -13
-130 -64 -198 -14 -19 -23 -38 -20 -42 3 -5 0 -9 -6 -9 -16 0 -90 -71 -90 -87
0 -16 2 -16 37 -1 35 15 73 48 73 63 0 7 16 32 35 56 19 24 35 47 35 51 0 4 5
19 10 33 8 21 13 25 23 16 19 -15 13 205 -5 227 -7 8 -11 16 -9 16 8 2 -21 96
-29 96 -4 0 -10 12 -13 28 -3 15 -22 45 -42 67 -20 21 -34 46 -33 55 2 9 31
24 71 37 37 12 83 31 103 44 27 17 50 22 93 20 31 -1 78 3 104 8 48 9 149 -5
210 -28 15 -6 39 -13 52 -15 28 -5 341 -160 365 -180 18 -16 185 -96 199 -96
6 0 14 -6 18 -12 4 -7 58 -37 118 -66 61 -30 118 -58 127 -63 10 -5 24 -9 33
-9 8 0 35 -13 60 -29 l46 -29 -40 -33 c-23 -18 -41 -38 -41 -46 0 -7 -4 -13
-10 -13 -14 0 -122 -117 -168 -181 -7 -11 -31 -36 -53 -56 -22 -21 -50 -47
-62 -59 -12 -11 -44 -36 -72 -55 -54 -37 -66 -49 -59 -60 2 -4 -13 -13 -33
-20 -21 -6 -60 -27 -86 -46 -26 -20 -68 -41 -94 -49 -25 -8 -51 -19 -58 -24
-7 -6 -28 -12 -46 -14 -19 -2 -47 -9 -62 -15 -16 -6 -33 -11 -38 -11 -5 0 -9
-4 -9 -9 0 -9 -35 -19 -133 -40 -41 -9 -54 -17 -44 -28 4 -3 49 4 99 16 240
58 388 114 453 169 17 15 58 45 89 67 84 59 126 96 120 106 -3 5 1 9 9 9 18 0
117 100 117 118 0 6 6 12 13 12 6 0 33 26 59 58 72 89 154 172 170 172 8 0 19
5 26 12 8 8 18 9 35 1 13 -6 34 -9 48 -6 14 2 56 -7 94 -22 39 -15 90 -30 115
-35 25 -5 83 -17 130 -28 77 -18 127 -26 230 -36 31 -3 78 2 170 21 23 4 23 5
6 15 -11 6 -37 7 -65 3 -85 -14 -216 -8 -281 13 -52 16 -110 30 -152 37 -21 3
-38 10 -38 15 0 4 -22 11 -50 15 -27 4 -50 10 -50 15 0 4 -20 11 -45 14 -24 4
-47 12 -51 17 -3 5 -13 7 -22 5 -10 -3 -29 1 -44 8 -15 8 -42 17 -60 21 -18 4
-52 16 -75 27 -23 11 -47 17 -53 13 -5 -3 -10 -2 -10 2 0 9 -13 16 -162 88
-53 26 -102 44 -108 40 -5 -3 -10 -1 -10 5 0 6 -15 17 -33 25 -19 8 -39 21
-47 29 -7 9 -17 16 -22 16 -11 0 -121 52 -128 61 -12 14 -188 99 -219 105 -18
4 -44 17 -57 29 -14 13 -40 26 -59 29 -18 4 -35 11 -37 16 -6 19 -155 33 -215
21 -93 -18 -95 -16 -42 39 27 28 52 50 57 50 5 0 15 14 22 30 7 17 16 30 21
30 5 0 11 11 15 25 3 14 12 25 18 25 7 0 28 21 46 46 18 25 45 59 59 74 39 41
74 82 91 106 9 13 61 61 117 107 91 76 171 128 324 209 94 50 116 65 116 82 0
9 -4 16 -9 16 -4 0 -8 -4 -8 -9z"/>
<path d="M6430 6391 c0 -4 -12 -20 -27 -35 -14 -14 -23 -29 -20 -32 3 -4 21
10 40 30 32 33 36 46 15 46 -4 0 -8 -4 -8 -9z"/>
<path d="M10579 6258 c-1 -2 -3 -34 -4 -73 -6 -137 -13 -191 -35 -265 -7 -25
-14 -56 -16 -70 -2 -14 -7 -42 -10 -62 -4 -22 -2 -38 3 -38 12 0 67 176 66
210 -1 14 3 32 8 41 9 18 23 139 24 209 0 35 -4 45 -17 48 -10 2 -19 2 -19 0z"/>
<path d="M10662 6243 c-7 -12 -12 -30 -12 -40 1 -13 5 -11 16 10 8 16 13 34
11 40 -2 7 -9 3 -15 -10z"/>
<path d="M10495 5730 c3 -5 13 -10 21 -10 8 0 12 5 9 10 -3 6 -13 10 -21 10
-8 0 -12 -4 -9 -10z"/>
<path d="M10460 5668 c-11 -24 -40 -65 -65 -93 -25 -27 -45 -53 -45 -57 0 -4
-9 -10 -20 -13 -11 -3 -20 -11 -20 -16 0 -16 -53 -65 -78 -73 -12 -4 -44 -29
-70 -55 -26 -26 -71 -60 -99 -76 -50 -26 -65 -47 -44 -59 5 -3 29 10 54 29 25
19 49 35 53 35 4 0 14 7 23 15 9 8 36 32 61 52 143 121 300 298 300 339 0 30
-32 12 -50 -28z"/>
<path d="M8350 5356 c6 -16 19 -41 30 -56 32 -45 45 -123 29 -178 -8 -26 -14
-49 -14 -52 0 -3 -7 -16 -14 -29 -18 -32 -10 -140 11 -155 8 -6 20 -28 27 -48
17 -50 44 -83 83 -99 18 -7 47 -23 63 -35 35 -26 119 -64 143 -64 9 0 31 -7
47 -16 17 -9 40 -16 52 -16 12 1 25 -3 28 -8 3 -6 13 -10 22 -10 8 0 29 -11
47 -25 17 -14 41 -34 53 -43 12 -9 22 -23 23 -30 0 -7 13 -27 29 -45 16 -17
54 -61 83 -97 38 -46 62 -66 81 -68 15 -2 27 -9 27 -17 0 -17 94 -101 142
-125 20 -11 57 -33 81 -50 25 -16 49 -30 54 -30 6 0 18 -9 28 -20 10 -11 21
-18 25 -15 4 2 24 -14 45 -35 25 -26 48 -40 64 -40 23 0 20 6 -38 59 -34 33
-76 63 -92 66 -16 4 -29 10 -29 15 0 5 -8 11 -17 14 -10 4 -34 20 -53 36 -47
40 -50 42 -90 70 -19 14 -38 29 -41 34 -4 5 -11 6 -17 2 -6 -3 -13 3 -17 14
-4 13 -18 23 -36 27 -22 4 -29 11 -29 29 0 13 -4 24 -8 24 -15 0 -125 113
-157 160 -16 25 -34 47 -39 49 -4 2 -18 15 -30 28 -26 31 -73 56 -92 49 -7 -3
-13 -1 -11 5 1 6 -8 15 -21 20 -15 6 -21 5 -17 -1 3 -6 -1 -10 -9 -10 -9 0
-16 4 -16 9 0 5 -17 12 -37 16 -20 4 -46 13 -57 21 -11 8 -27 14 -35 14 -56 0
-219 134 -228 188 -10 60 -4 148 18 250 8 37 9 60 2 75 -45 97 -67 138 -84
153 -20 18 -20 17 -9 -10z"/>
<path d="M10355 5338 l-30 -20 30 7 c34 7 71 36 45 34 -8 0 -28 -10 -45 -21z"/>
<path d="M10265 5310 c-4 -6 7 -10 24 -10 17 0 31 5 31 10 0 6 -11 10 -24 10
-14 0 -28 -4 -31 -10z"/>
<path d="M10195 5290 c-4 -6 5 -10 19 -10 14 0 26 5 26 10 0 6 -9 10 -19 10
-11 0 -23 -4 -26 -10z"/>
<path d="M9658 5210 c-20 -21 -52 -46 -72 -55 -20 -10 -36 -21 -36 -26 0 -18
29 -8 81 26 91 59 118 40 100 -71 -10 -68 -49 -142 -103 -197 -37 -38 -36 -54
2 -27 17 12 30 24 30 28 0 4 14 23 30 42 16 19 30 40 30 45 0 6 7 23 15 38 8
15 14 40 14 55 1 15 3 48 7 75 l6 47 72 0 c59 0 76 -4 90 -19 10 -11 47 -27
84 -37 37 -9 74 -21 82 -25 8 -4 31 -10 51 -13 19 -3 49 -12 65 -21 16 -8 34
-15 40 -15 18 0 55 -22 99 -56 43 -34 93 -55 80 -34 -4 7 -27 24 -51 40 -24
15 -41 30 -38 33 3 3 -12 11 -33 17 -21 7 -60 24 -86 37 -26 13 -53 23 -60 22
-30 -5 -205 50 -211 67 -3 7 8 17 25 23 50 17 32 24 -43 17 -40 -4 -80 -7 -88
-7 -8 -1 -27 -5 -42 -11 -21 -8 -31 -7 -43 5 -8 9 -15 20 -15 26 0 24 -47 7
-82 -29z"/>
<path d="M10357 5229 c7 -7 15 -10 18 -7 3 3 -2 9 -12 12 -14 6 -15 5 -6 -5z"/>
<path d="M10380 5201 c0 -5 10 -32 23 -60 17 -40 27 -51 45 -51 17 0 22 6 22
25 0 14 -7 28 -15 31 -8 4 -15 11 -15 18 0 6 -13 20 -30 29 -16 10 -30 14 -30
8z"/>
<path d="M10620 5114 c0 -14 4 -23 10 -19 6 3 10 15 10 26 0 10 -4 19 -10 19
-5 0 -10 -12 -10 -26z"/>
<path d="M8527 5123 c-3 -3 3 -18 14 -33 18 -24 31 -62 45 -139 7 -36 23 -61
39 -61 8 0 15 -5 15 -10 0 -6 12 -16 28 -22 15 -7 34 -17 42 -23 8 -7 33 -22
55 -34 l40 -23 -37 34 c-20 19 -59 52 -87 73 -53 40 -66 63 -75 133 -9 58 -59
125 -79 105z"/>
<path d="M2300 5110 c0 -5 5 -10 11 -10 5 0 7 5 4 10 -3 6 -8 10 -11 10 -2 0
-4 -4 -4 -10z"/>
<path d="M9495 5084 c-16 -15 -45 -33 -64 -42 -20 -8 -31 -17 -24 -19 15 -5
113 39 107 48 -2 4 3 9 11 13 16 6 21 26 6 26 -4 0 -21 -12 -36 -26z"/>
<path d="M10425 5072 c6 -4 11 -25 11 -47 0 -103 13 -186 34 -220 35 -56 131
-125 182 -131 36 -5 36 12 0 19 -38 8 -104 75 -142 145 -33 60 -54 139 -39
148 5 3 9 19 9 36 0 31 -22 57 -50 58 -9 0 -11 -3 -5 -8z"/>
<path d="M10614 5048 c-2 -58 -8 -83 -22 -97 -16 -17 -7 -62 14 -74 12 -7 13
-12 3 -23 -10 -12 -6 -21 26 -47 21 -18 52 -41 69 -52 31 -19 31 -19 16 0 -27
36 -30 40 -54 76 -37 57 -52 167 -27 192 18 18 13 57 -6 57 -13 0 -18 -9 -19
-32z"/>
<path d="M9311 4994 c-19 -8 -31 -17 -28 -20 6 -6 107 24 107 32 0 9 -47 2
-79 -12z"/>
<path d="M5940 4850 c0 -40 -4 -70 -10 -70 -5 0 -10 -9 -10 -20 0 -46 -103
-118 -180 -126 -19 -2 -54 -6 -77 -9 -45 -5 -60 9 -20 19 12 3 37 15 56 26 25
16 31 24 22 33 -9 9 -21 7 -49 -8 -20 -11 -43 -26 -50 -32 -7 -7 -23 -13 -35
-13 -12 0 -34 -6 -49 -14 -15 -8 -40 -17 -57 -21 -17 -4 -31 -10 -31 -15 0 -4
-24 -11 -54 -14 -49 -7 -56 -11 -70 -41 -23 -48 -20 -76 20 -193 33 -97 40
-109 95 -162 33 -32 74 -64 92 -71 18 -7 39 -18 47 -25 8 -6 51 -31 95 -54
138 -73 189 -102 206 -116 8 -8 20 -14 26 -14 6 0 24 -16 40 -35 17 -19 35
-35 40 -35 5 0 24 -20 42 -45 18 -25 36 -45 41 -45 4 0 17 -15 29 -32 51 -80
60 -94 69 -104 41 -46 82 -178 82 -261 0 -31 4 -53 11 -53 5 0 7 -5 3 -11 -8
-14 45 -69 67 -69 10 0 21 -4 24 -10 3 -5 13 -10 21 -10 26 0 101 39 108 55 7
19 3 19 -42 -4 -64 -33 -77 -31 -113 18 -23 33 -32 56 -33 88 0 23 -4 43 -8
43 -3 0 -4 18 -1 39 4 31 1 46 -16 67 -11 15 -21 32 -21 38 0 6 -18 37 -40 69
-22 31 -40 61 -40 66 0 4 -11 20 -24 34 -13 14 -21 28 -18 31 3 3 0 6 -6 6 -6
0 -17 12 -24 27 -7 14 -21 31 -31 37 -10 6 -49 40 -86 76 -37 36 -89 76 -117
90 -27 14 -50 28 -52 33 -2 4 -9 7 -16 7 -6 0 -35 16 -65 35 -29 19 -57 35
-62 35 -5 0 -9 3 -9 8 0 8 -2 9 -104 59 -78 39 -121 79 -131 122 -4 18 -13 35
-20 37 -7 3 -16 23 -19 46 -4 22 -13 47 -21 55 -8 8 -15 22 -16 31 0 9 -2 28
-3 40 -2 13 3 30 11 38 14 14 76 34 106 34 10 0 20 6 23 14 8 20 55 29 138 28
38 -1 74 2 80 6 6 3 31 8 56 9 56 4 95 22 138 64 57 55 68 91 64 197 -3 71
-22 47 -22 -28z"/>
<path d="M9570 4829 c0 -5 5 -7 10 -4 6 3 10 8 10 11 0 2 -4 4 -10 4 -5 0 -10
-5 -10 -11z"/>
<path d="M9680 4813 c0 -28 40 -155 60 -192 5 -11 16 -25 23 -33 7 -7 29 -40
50 -73 37 -61 122 -154 233 -255 70 -64 91 -93 97 -135 13 -83 47 -197 62
-207 5 -4 18 -8 29 -8 15 0 17 5 12 28 -4 15 -16 44 -27 65 -10 21 -19 46 -19
57 0 10 -5 31 -11 47 -7 15 -11 43 -10 60 2 29 -16 63 -33 63 -23 0 -276 238
-276 260 0 4 -9 10 -20 13 -12 3 -20 14 -20 25 0 11 -7 27 -15 36 -8 8 -15 19
-15 24 0 5 -10 24 -23 43 -22 33 -47 95 -69 172 -12 43 -28 49 -28 10z"/>
<path d="M9516 4821 c-3 -4 -39 -14 -81 -20 -41 -7 -75 -15 -75 -18 0 -3 34
-3 75 0 67 5 105 20 105 41 0 9 -18 7 -24 -3z"/>
<path d="M11330 4746 c0 -7 11 -38 23 -67 36 -83 40 -93 39 -101 -3 -13 45
-115 57 -122 6 -4 11 -16 11 -27 0 -10 4 -19 9 -19 5 0 33 -45 61 -101 90
-177 107 -204 132 -209 20 -5 21 -7 6 -13 -18 -6 -25 -32 -10 -39 7 -3 30 -43
68 -118 12 -25 40 -64 63 -87 23 -22 41 -48 41 -57 0 -8 11 -23 25 -32 14 -9
22 -20 19 -25 -3 -5 3 -21 13 -37 27 -38 83 -159 83 -176 0 -8 5 -18 10 -21 6
-3 10 -15 10 -26 0 -11 7 -22 15 -25 8 -4 12 -10 9 -15 -4 -8 2 -36 24 -99 3
-8 4 -19 3 -23 -2 -12 38 -67 72 -99 16 -16 40 -28 54 -28 13 0 22 -4 19 -9
-6 -9 23 -36 87 -85 20 -16 37 -32 37 -37 0 -5 9 -28 20 -52 11 -23 21 -51 23
-62 4 -30 22 -28 20 3 -4 47 -33 123 -57 149 -13 14 -28 29 -32 34 -19 20 -58
49 -66 49 -4 0 -8 7 -8 15 0 8 -17 19 -40 26 -22 7 -40 18 -40 26 0 7 -4 13
-9 13 -5 0 -13 10 -16 23 -4 12 -13 36 -20 52 -7 17 -18 59 -25 95 -7 40 -24
84 -43 114 -18 27 -33 52 -33 57 -1 5 -2 10 -3 12 -2 1 -4 12 -7 25 -2 13 -15
40 -29 60 -14 20 -25 40 -25 44 0 11 -50 58 -61 58 -6 0 -8 4 -4 10 6 10 -48
112 -70 130 -8 7 -15 19 -15 26 0 8 -4 14 -9 14 -5 0 -11 8 -14 18 -11 31 -66
125 -79 134 -10 6 -10 10 -1 16 8 5 5 20 -13 52 -13 25 -36 70 -50 100 -15 30
-30 57 -35 60 -4 3 -11 18 -14 33 -4 15 -13 27 -21 27 -8 0 -14 5 -14 12 0 7
-12 29 -27 51 -15 21 -29 48 -30 60 -2 12 -10 31 -18 44 -13 20 -45 102 -49
128 -1 6 -8 20 -14 33 -14 24 -52 30 -52 8z"/>
<path d="M10715 4555 c21 -24 76 -77 124 -117 47 -40 88 -76 89 -81 2 -4 21
-25 42 -47 21 -22 48 -56 60 -75 12 -20 28 -41 35 -48 7 -7 20 -27 28 -44 9
-17 29 -41 45 -55 15 -13 37 -41 48 -63 10 -22 29 -44 42 -50 12 -5 22 -19 22
-30 0 -11 9 -31 20 -45 11 -14 20 -29 20 -35 0 -5 9 -21 20 -35 11 -14 20 -35
20 -47 0 -12 6 -26 14 -30 15 -9 66 -139 73 -188 5 -35 5 -163 0 -185 -1 -8
-8 -25 -15 -37 -15 -28 -15 -42 2 -75 8 -15 11 -30 6 -33 -23 -14 44 -128 114
-196 49 -47 105 -2 109 86 2 31 -1 59 -5 61 -4 3 -8 -6 -8 -21 0 -14 -5 -35
-12 -48 -6 -12 -14 -29 -18 -37 -12 -25 -49 -24 -75 2 -33 33 -65 121 -71 198
-3 36 -6 67 -7 70 -1 3 5 16 13 30 19 32 19 183 0 225 -7 17 -14 35 -16 42 -9
44 -30 91 -50 112 -13 13 -24 32 -24 43 0 10 -14 44 -31 76 -18 31 -38 69 -46
84 -7 14 -20 29 -28 32 -22 8 -18 41 8 59 12 9 17 16 10 16 -6 1 -15 -3 -18
-9 -8 -12 -45 -13 -45 -1 0 4 -11 20 -25 35 -14 15 -44 55 -66 89 -23 34 -48
69 -56 77 -7 8 -34 41 -60 73 -28 34 -55 57 -67 57 -11 0 -16 3 -12 7 7 7
-103 123 -117 123 -5 0 -30 18 -56 40 -63 53 -81 51 -36 -5z"/>
<path d="M5580 4480 c-58 -23 -73 -45 -55 -85 13 -29 14 -28 19 16 0 7 12 20
26 31 30 22 60 15 60 -13 0 -10 5 -19 10 -19 6 0 10 -14 10 -32 0 -40 16 -26
25 22 5 29 2 40 -22 66 l-28 32 -45 -18z"/>
<path d="M3920 4473 c-21 -9 -40 -30 -33 -37 7 -7 63 25 63 36 0 9 -8 9 -30 1z"/>
<path d="M5530 4350 c0 -5 5 -10 11 -10 5 0 7 5 4 10 -3 6 -8 10 -11 10 -2 0
-4 -4 -4 -10z"/>
<path d="M3140 4333 c-53 -17 -60 -26 -60 -75 0 -26 5 -48 10 -48 6 0 10 10
10 23 0 25 27 61 52 70 10 3 39 0 65 -8 57 -17 53 -17 53 -7 0 12 -78 52 -98
51 -10 0 -24 -3 -32 -6z"/>
<path d="M5545 4310 c3 -5 11 -10 16 -10 6 0 7 5 4 10 -3 6 -11 10 -16 10 -6
0 -7 -4 -4 -10z"/>
<path d="M6230 4258 c-21 -9 -22 -12 -7 -15 23 -6 47 3 47 17 0 12 -8 12 -40
-2z"/>
<path d="M6130 4228 c0 -7 19 -33 41 -58 39 -43 54 -62 114 -152 14 -21 29
-38 33 -38 5 0 24 -14 43 -31 19 -17 50 -42 70 -54 20 -13 58 -45 85 -72 27
-26 74 -63 104 -81 30 -19 59 -40 63 -48 4 -8 13 -14 18 -14 14 0 169 -119
169 -130 0 -5 9 -11 20 -15 21 -7 43 -44 70 -121 14 -41 16 -65 10 -129 -8
-80 8 -181 31 -195 13 -9 29 -64 39 -142 8 -58 6 -75 -15 -140 -31 -95 -43
-121 -85 -190 -29 -48 -45 -63 -96 -88 -51 -25 -72 -30 -135 -30 -92 0 -115
11 -71 34 17 9 43 27 57 40 15 14 32 27 38 29 7 2 8 8 4 13 -4 4 -16 3 -25 -4
-9 -6 -35 -21 -57 -32 -22 -12 -51 -28 -65 -35 -14 -8 -35 -15 -47 -15 -28 0
-30 -16 -5 -29 19 -10 177 -33 223 -33 14 0 57 10 95 22 78 23 69 14 155 190
79 163 106 258 80 285 -5 6 -16 36 -26 68 -10 31 -21 57 -26 57 -4 0 -13 17
-19 38 -26 85 -28 114 -11 197 19 93 14 128 -24 169 -14 15 -25 33 -25 41 0
14 -50 55 -67 55 -5 0 -15 8 -24 18 -26 29 -82 72 -95 72 -7 0 -14 4 -16 9 -1
4 -34 31 -73 60 -96 70 -125 92 -154 119 -85 75 -118 102 -126 102 -3 0 -19
16 -36 35 -17 19 -37 35 -45 35 -8 0 -14 3 -14 8 0 4 -18 27 -41 52 -22 25
-50 66 -62 93 -18 40 -25 47 -49 47 -16 0 -28 -5 -28 -12z"/>
<path d="M3079 4195 c-8 -8 3 -75 12 -75 5 0 9 18 9 40 0 36 -8 49 -21 35z"/>
<path d="M3080 4095 c0 -8 5 -15 10 -15 6 0 10 7 10 15 0 8 -4 15 -10 15 -5 0
-10 -7 -10 -15z"/>
<path d="M9666 3908 c10 -12 26 -29 35 -39 20 -21 95 -119 129 -168 21 -31 24
-46 22 -111 -2 -50 -9 -88 -22 -115 -26 -53 -106 -135 -156 -159 -21 -10 -47
-23 -58 -28 -14 -7 -25 -4 -45 15 -14 14 -46 37 -71 53 -38 24 -56 29 -118 30
-54 1 -77 6 -92 19 -19 17 -21 17 -44 -7 -14 -13 -28 -39 -31 -56 -3 -18 -7
-46 -11 -64 -3 -18 0 -54 7 -80 8 -37 8 -52 -1 -63 -13 -16 -70 -17 -70 -1 0
6 -5 4 -10 -4 -8 -13 -11 -13 -19 -1 -5 7 -14 10 -21 6 -16 -10 13 -41 47 -49
25 -7 103 21 103 36 0 4 7 8 15 8 8 0 15 -6 15 -12 0 -7 21 -25 48 -39 36 -20
66 -28 130 -32 81 -5 113 6 50 16 -116 20 -154 30 -188 52 -22 14 -44 25 -50
25 -6 0 -8 5 -5 10 4 6 2 17 -5 24 -17 21 -11 149 9 173 15 19 23 20 107 14
100 -8 125 -20 199 -95 50 -51 88 -76 116 -76 18 0 19 2 9 15 -7 8 -18 15 -24
15 -7 0 -23 11 -35 24 l-22 24 50 12 c125 30 240 222 229 380 -4 52 -18 81
-56 114 -7 6 -21 19 -30 30 -9 10 -23 24 -30 30 -6 6 -32 30 -56 54 -45 44
-85 60 -50 20z"/>
<path d="M2847 3878 c2 -24 9 -68 15 -98 25 -129 29 -336 8 -420 -8 -30 -13
-59 -11 -64 1 -5 -2 -30 -8 -55 -10 -44 -18 -92 -27 -154 -5 -38 -29 -107 -59
-174 -14 -29 -24 -55 -22 -57 1 -1 -3 -9 -10 -17 -17 -20 -36 -185 -28 -239 9
-57 40 -142 63 -167 21 -25 55 -43 79 -43 15 1 13 4 -9 23 -32 26 -80 120 -80
154 0 14 -6 27 -12 29 -16 6 -14 136 2 142 7 2 12 9 12 16 0 16 57 191 75 231
7 17 23 66 35 109 12 44 23 83 26 87 2 4 0 19 -5 32 -6 15 -6 27 -1 29 9 3 21
77 25 161 1 26 4 50 8 53 10 10 -3 286 -16 308 -6 12 -13 34 -15 50 -5 45 -26
99 -39 103 -8 3 -10 -9 -6 -39z"/>
<path d="M10237 3894 c-3 -3 9 -27 26 -52 17 -26 38 -58 48 -72 32 -50 57
-106 78 -180 12 -41 24 -81 26 -87 2 -7 10 -10 18 -8 9 4 12 25 11 73 -4 127
-10 139 -144 292 -32 38 -49 47 -63 34z"/>
<path d="M2995 3770 c3 -5 8 -10 11 -10 2 0 4 5 4 10 0 6 -5 10 -11 10 -5 0
-7 -4 -4 -10z"/>
<path d="M10406 3468 c-3 -7 -7 -22 -9 -33 -11 -39 -33 -90 -52 -120 -25 -39
-78 -108 -87 -115 -22 -17 -76 -105 -71 -116 3 -8 1 -14 -5 -14 -13 0 -56 -69
-49 -77 14 -13 38 10 59 54 13 26 28 53 34 58 14 14 64 83 64 89 0 8 47 53 62
58 7 3 21 23 32 44 10 22 23 47 28 58 16 30 23 126 9 126 -6 0 -13 -6 -15 -12z"/>
<path d="M9346 3298 c-16 -62 4 -91 72 -104 41 -8 42 9 2 26 -28 12 -41 30
-21 30 5 0 1 16 -7 35 -18 40 -37 45 -46 13z"/>
<path d="M8973 3287 c-2 -4 7 -31 21 -60 14 -28 27 -68 29 -87 2 -19 11 -53
21 -75 11 -22 23 -49 28 -60 25 -54 88 -102 173 -132 95 -33 225 -39 225 -11
0 6 -7 7 -16 4 -21 -8 -138 11 -194 31 -25 9 -60 29 -78 45 -18 15 -37 28 -41
28 -5 0 -14 14 -20 30 -5 17 -14 30 -20 30 -8 0 -23 45 -25 75 -1 6 -16 40
-33 78 -18 37 -33 72 -33 78 0 12 85 8 143 -7 17 -4 27 -2 27 5 0 27 -191 54
-207 28z"/>
<path d="M6212 3124 c-18 -8 -35 -21 -38 -28 -3 -8 -23 -26 -43 -39 -33 -22
-38 -30 -37 -63 1 -34 4 -39 34 -46 17 -5 32 -12 32 -16 0 -4 -17 -16 -37 -27
-61 -33 -94 -75 -91 -115 3 -32 8 -38 68 -67 36 -18 74 -33 84 -33 20 0 20 0
0 -17 -10 -10 -43 -38 -71 -61 -29 -24 -53 -50 -53 -57 0 -15 108 -68 125 -61
7 2 16 1 21 -4 13 -11 114 -31 125 -24 14 8 11 21 -8 29 -10 3 -53 13 -97 21
-108 19 -118 34 -63 94 64 70 84 83 119 78 17 -3 50 -1 72 4 39 8 55 15 142
55 36 16 134 103 134 118 0 8 -49 -21 -65 -39 -5 -6 -37 -24 -70 -41 -33 -16
-61 -33 -63 -37 -2 -4 -10 -8 -17 -8 -7 0 -15 -6 -18 -12 -3 -10 -7 -10 -20 1
-14 11 -23 11 -47 1 -38 -16 -181 0 -188 21 -2 5 -14 9 -26 9 -24 0 -61 32
-55 48 7 16 85 80 124 101 28 15 58 21 103 21 75 0 118 16 188 73 57 45 73 72
54 91 -8 8 -11 8 -8 0 4 -14 -34 -50 -107 -104 l-53 -39 -83 9 c-46 4 -87 6
-90 4 -12 -7 -69 18 -69 30 0 21 94 103 133 115 20 7 37 17 37 22 0 13 -40 10
-78 -7z"/>
<path d="M6325 3091 c3 -5 -5 -13 -17 -16 -30 -9 -58 -34 -58 -52 0 -21 23
-15 63 18 38 32 48 59 21 59 -8 0 -13 -4 -9 -9z"/>
<path d="M11660 3026 c0 -1 11 -15 25 -30 23 -25 75 -123 83 -156 2 -8 7 -53
12 -100 9 -82 41 -180 60 -180 5 0 7 -7 4 -15 -6 -16 77 -101 109 -111 9 -3
17 -9 17 -13 0 -17 137 -149 165 -159 17 -6 55 -13 85 -17 30 -3 63 -13 72
-22 14 -13 23 -14 40 -5 22 10 22 11 3 11 -11 1 -29 7 -40 15 -20 13 -56 24
-110 33 -58 10 -92 31 -141 90 -27 33 -61 65 -76 72 -29 13 -104 109 -100 128
1 6 -2 14 -8 18 -5 3 -10 16 -10 29 0 12 -5 27 -12 34 -7 7 -9 12 -6 12 3 0 0
26 -7 58 -7 31 -16 81 -20 111 -4 30 -14 61 -21 69 -8 7 -14 20 -14 28 0 8 -4
14 -10 14 -5 0 -10 6 -10 13 0 16 -64 77 -80 77 -5 0 -10 -2 -10 -4z"/>
<path d="M10113 2973 c-7 -2 -13 -10 -13 -16 0 -7 -18 -39 -40 -72 -42 -63
-47 -75 -30 -75 6 0 10 6 10 14 0 8 3 16 8 18 13 5 72 85 72 97 0 6 5 11 10
11 6 0 10 7 10 15 0 15 -6 17 -27 8z"/>
<path d="M8940 2949 c0 -26 41 -97 77 -131 15 -15 46 -34 68 -43 24 -10 74
-52 127 -106 101 -104 142 -126 247 -132 63 -3 77 -1 100 17 25 20 52 34 176
91 33 15 92 34 132 42 61 11 80 20 118 55 25 23 45 45 45 50 0 14 -40 9 -46
-6 -15 -40 -113 -82 -256 -108 -40 -7 -69 -20 -95 -43 -21 -18 -48 -35 -60
-39 -13 -4 -23 -11 -23 -16 0 -9 -84 -25 -115 -21 -61 7 -100 26 -141 66 -24
25 -44 49 -44 55 0 6 34 11 83 11 45 1 69 4 52 6 -16 2 -37 7 -45 10 -8 3 -33
7 -55 9 -87 6 -242 100 -276 166 -25 49 -18 58 46 66 67 7 36 22 -47 22 -62 0
-68 -2 -68 -21z"/>
<path d="M12505 2932 c-56 -29 -65 -32 -92 -32 -18 0 -24 -3 -17 -10 17 -17
48 -15 220 15 12 2 53 -12 91 -31 39 -18 85 -34 104 -35 66 -3 184 -31 197
-48 9 -11 15 -12 20 -5 12 20 50 -3 117 -71 49 -50 62 -70 58 -86 -4 -12 -14
-24 -25 -26 -10 -3 -18 -10 -18 -15 0 -5 3 -8 8 -6 4 3 22 10 40 17 45 18 41
48 -13 107 -14 15 -25 30 -25 34 0 12 -103 77 -140 89 -19 6 -89 17 -154 26
-66 8 -122 19 -125 24 -3 4 -33 22 -65 40 -67 35 -130 40 -181 13z"/>
<path d="M9060 2882 c0 -15 24 -32 46 -32 31 0 39 17 15 29 -23 13 -61 14 -61
3z"/>
<path d="M6180 2840 c-8 -5 -13 -10 -10 -11 93 -16 127 -28 158 -54 29 -25 52
-32 52 -17 0 8 -56 54 -85 69 -31 17 -98 24 -115 13z"/>
<path d="M12515 2760 c-3 -5 1 -10 10 -10 9 0 13 5 10 10 -3 6 -8 10 -10 10
-2 0 -7 -4 -10 -10z"/>
<path d="M12580 2761 c-8 -6 -12 -12 -10 -14 3 -2 52 -14 109 -26 57 -11 112
-28 121 -36 19 -17 70 -21 70 -5 0 6 -6 11 -12 12 -27 3 -34 5 -72 21 -22 10
-64 24 -95 31 -31 8 -65 17 -76 20 -11 4 -27 2 -35 -3z"/>
<path d="M2940 2672 c0 -10 7 -27 15 -38 16 -21 20 -8 9 34 -8 26 -24 29 -24
4z"/>
<path d="M12246 2668 c10 -13 30 -33 44 -45 14 -12 34 -31 45 -41 28 -26 84
-52 111 -52 52 0 194 -87 194 -119 0 -18 43 -41 56 -30 8 7 14 7 19 -1 11 -18
23 -11 18 10 -3 11 -12 20 -21 20 -8 0 -37 23 -63 50 -26 28 -54 50 -61 50 -8
0 -18 4 -23 9 -6 6 -35 14 -65 20 -104 18 -154 45 -223 119 -34 36 -61 45 -31
10z"/>
<path d="M13010 2662 c0 -10 59 -32 86 -32 15 0 13 4 -11 20 -30 20 -75 27
-75 12z"/>
<path d="M9300 2650 c0 -30 117 -54 156 -32 17 10 16 11 -12 12 -17 0 -53 7
-80 15 -58 18 -64 18 -64 5z"/>
<path d="M12870 2652 c0 -5 21 -27 46 -50 47 -42 48 -42 130 -44 50 -1 88 2
95 9 7 7 -9 10 -58 9 -65 -1 -71 1 -130 42 -62 41 -83 50 -83 34z"/>
<path d="M6273 2602 c-47 -15 -56 -31 -20 -33 12 -1 36 -3 54 -5 35 -4 46 5
37 29 -8 23 -24 25 -71 9z"/>
<path d="M2951 2584 c2 -17 -4 -42 -14 -57 -9 -14 -17 -30 -17 -34 0 -4 -6
-19 -13 -33 -26 -50 -27 -58 -6 -53 11 3 18 11 15 18 -2 7 10 27 28 44 31 30
33 36 28 79 -2 26 -9 52 -14 57 -6 6 -9 -1 -7 -21z"/>
<path d="M12090 2570 c0 -5 5 -10 10 -10 6 0 10 5 10 10 0 6 -4 10 -10 10 -5
0 -10 -4 -10 -10z"/>
<path d="M6758 2563 c-21 -5 -24 -29 -5 -36 18 -6 47 11 47 28 0 15 -10 17
-42 8z"/>
<path d="M12126 2536 c6 -17 98 -79 142 -96 18 -7 39 -22 47 -33 11 -15 18
-18 26 -10 14 14 -39 70 -75 79 -15 3 -29 10 -32 15 -3 5 -14 9 -24 9 -10 0
-31 11 -46 25 -30 28 -46 32 -38 11z"/>
<path d="M12977 2528 c6 -27 83 -148 94 -148 8 0 -1 42 -10 50 -4 3 -19 31
-34 63 -27 57 -61 80 -50 35z"/>
<path d="M12830 2465 c0 -11 55 -54 70 -55 8 0 1 12 -18 30 -31 28 -52 38 -52
25z"/>
<path d="M3690 2402 c0 -5 16 -13 35 -16 20 -4 57 -16 82 -27 56 -24 65 -18
27 18 -23 21 -41 28 -86 31 -35 3 -58 0 -58 -6z"/>
<path d="M12470 2404 c0 -3 14 -17 31 -31 17 -15 35 -37 40 -50 12 -32 29 -29
29 6 0 24 -8 34 -46 55 -49 28 -54 29 -54 20z"/>
<path d="M12902 2389 c2 -7 10 -15 17 -17 8 -3 12 1 9 9 -2 7 -10 15 -17 17
-8 3 -12 -1 -9 -9z"/>
<path d="M12692 2313 l3 -48 -70 0 c-38 0 -86 4 -105 8 -32 7 -33 7 -17 -7 16
-13 109 -33 130 -28 4 1 26 4 50 6 37 3 42 7 45 30 2 14 -1 26 -7 26 -6 0 -11
11 -11 24 0 14 -5 28 -10 31 -7 4 -10 -10 -8 -42z"/>
<path d="M12255 2340 c3 -6 10 -10 16 -10 5 0 19 -10 31 -22 26 -26 39 -7 14
20 -16 19 -72 29 -61 12z"/>
<path d="M2830 2326 c0 -8 4 -17 9 -20 4 -3 18 -34 31 -68 12 -35 26 -67 31
-72 5 -6 9 -21 9 -35 0 -13 4 -38 9 -55 5 -17 15 -50 22 -73 7 -24 16 -43 21
-43 4 0 8 -7 8 -15 0 -8 9 -15 20 -15 13 0 20 -7 20 -19 0 -27 10 -51 21 -51
5 0 25 -16 45 -35 39 -39 48 -41 84 -19 25 15 25 15 2 10 -17 -3 -22 -1 -18 9
2 7 -2 16 -11 19 -8 4 -13 12 -10 20 4 9 -4 16 -21 21 -43 11 -104 86 -131
162 -13 37 -31 82 -41 99 -9 17 -23 48 -30 70 -7 21 -17 44 -22 51 -5 7 -7 17
-3 23 3 5 3 19 0 30 -7 23 -45 27 -45 6z"/>
<path d="M12794 2325 c11 -8 25 -15 30 -15 6 0 2 7 -8 15 -11 8 -25 15 -30 15
-6 0 -2 -7 8 -15z"/>
<path d="M12374 2314 c4 -11 10 -31 13 -46 7 -33 26 -38 21 -5 -3 20 1 22 37
20 l40 -3 -35 19 c-19 10 -46 22 -59 26 -21 6 -23 5 -17 -11z"/>
<path d="M3406 2295 c4 -8 10 -15 15 -15 4 0 6 7 3 15 -4 8 -10 15 -15 15 -4
0 -6 -7 -3 -15z"/>
<path d="M12880 2300 c0 -13 28 -25 38 -16 3 4 0 11 -8 16 -20 13 -30 12 -30
0z"/>
<path d="M12975 2300 c-3 -5 3 -10 14 -10 12 0 21 5 21 10 0 6 -6 10 -14 10
-8 0 -18 -4 -21 -10z"/>
<path d="M12935 2290 c3 -5 10 -10 16 -10 5 0 9 5 9 10 0 6 -7 10 -16 10 -8 0
-12 -4 -9 -10z"/>
<path d="M3185 2172 c26 -51 44 -72 73 -87 20 -11 53 -32 73 -47 37 -28 74
-37 67 -17 -2 6 -22 21 -43 33 -22 11 -42 24 -45 28 -3 3 -16 9 -30 13 -24 6
-70 61 -99 118 -7 15 -18 27 -23 27 -5 0 7 -30 27 -68z"/>
<path d="M3962 2058 c-19 -19 -14 -28 16 -28 20 0 39 -11 61 -35 18 -20 37
-32 43 -29 8 5 7 10 -3 18 -8 6 -20 23 -26 39 -8 16 -20 27 -32 27 -11 0 -23
5 -26 10 -8 13 -18 13 -33 -2z"/>
<path d="M3560 1981 c0 -6 6 -11 13 -11 6 0 45 -25 85 -55 40 -30 76 -55 78
-55 3 0 -2 12 -11 28 -28 46 -165 124 -165 93z"/>
<path d="M3405 1970 c-3 -5 -1 -19 5 -29 6 -11 11 -44 13 -73 2 -49 4 -53 27
-53 22 0 25 4 22 33 -3 39 7 40 49 5 17 -15 37 -28 44 -29 6 -1 32 -17 59 -35
39 -28 49 -31 56 -19 7 11 4 17 -8 21 -10 4 -24 14 -31 23 -7 9 -20 16 -28 16
-7 0 -16 7 -19 15 -4 8 -13 15 -22 15 -8 0 -39 11 -67 25 -50 23 -70 49 -66
83 2 14 -25 16 -34 2z"/>
<path d="M3190 1964 c0 -3 19 -14 43 -24 23 -10 49 -29 57 -41 43 -62 73 -60
38 2 -15 28 -31 42 -50 46 -16 3 -31 10 -34 14 -6 10 -54 13 -54 3z"/>
<path d="M3745 1790 c3 -5 8 -10 11 -10 2 0 4 5 4 10 0 6 -5 10 -11 10 -5 0
-7 -4 -4 -10z"/>
<path d="M3325 1780 c-3 -4 2 -11 11 -14 18 -7 90 -8 83 -2 -10 10 -89 23 -94
16z"/>
<path d="M3710 1763 c0 -4 19 -13 43 -19 23 -6 50 -14 60 -19 10 -4 17 -3 17
4 0 6 -11 16 -24 21 -40 15 -96 23 -96 13z"/>
<path d="M12745 360 c3 -5 8 -10 11 -10 2 0 4 5 4 10 0 6 -5 10 -11 10 -5 0
-7 -4 -4 -10z"/>
</g>
</svg>
