<?xml version="1.0" standalone="no"?>
<!DOCTYPE svg PUBLIC "-//W3C//DTD SVG 20010904//EN"
 "http://www.w3.org/TR/2001/REC-SVG-20010904/DTD/svg10.dtd">
<svg version="1.0" xmlns="http://www.w3.org/2000/svg"
 width="500.000000pt" height="500.000000pt" viewBox="0 0 500.000000 500.000000"
 preserveAspectRatio="xMidYMid meet">

<g transform="translate(0.000000,500.000000) scale(0.100000,-0.100000)"
fill="#000000" stroke="none">
<path d="M2444 4944 l-39 -35 -9 25 c-13 35 -26 33 -26 -4 0 -29 -13 -40 -25
-20 -10 15 -25 12 -32 -7 -4 -10 -13 -24 -20 -31 -14 -14 -18 -6 -13 27 1 8
-3 17 -10 21 -11 7 -96 -3 -106 -12 -3 -3 -2 -23 2 -44 l7 -39 14 33 c10 24
19 32 39 32 21 0 25 -4 22 -22 -2 -15 -10 -23 -23 -23 -17 0 -20 -7 -20 -45 0
-34 -4 -46 -18 -48 -9 -2 -17 -7 -17 -12 0 -13 36 -18 54 -8 20 12 37 2 29
-17 -3 -9 0 -22 6 -29 9 -10 9 -16 1 -21 -6 -4 -9 -22 -8 -41 2 -35 3 -35 40
-29 31 6 38 4 38 -9 0 -17 -13 -19 -87 -16 -45 2 -54 -9 -28 -30 13 -11 23
-10 55 0 22 7 43 10 46 7 9 -9 -16 -38 -27 -31 -5 2 -11 -8 -15 -23 -3 -15 -7
-33 -9 -40 -6 -19 6 -23 39 -9 17 7 52 12 77 11 l46 -2 -1 86 c-1 81 1 89 32
134 36 54 43 73 12 36 -11 -13 -25 -31 -32 -39 -7 -8 -17 -32 -23 -55 -8 -34
-14 -41 -39 -43 -25 -3 -28 -1 -23 17 4 18 1 21 -23 21 -35 0 -61 27 -35 36
16 7 16 8 2 19 -10 7 -15 22 -12 41 2 16 4 32 4 35 1 3 13 11 28 18 16 7 23
15 16 19 -14 9 -26 67 -18 91 5 16 9 17 30 7 31 -14 34 -40 3 -31 l-21 7 21
-33 c15 -25 18 -39 11 -52 -12 -21 4 -23 21 -2 8 9 21 13 32 9 17 -5 18 -4 6
16 -12 19 -10 24 14 45 l28 24 -37 -6 -37 -6 35 44 c19 24 43 51 54 60 11 10
17 20 14 23 -3 4 -24 -10 -45 -30z m-34 -111 c-1 -21 -19 -35 -36 -29 -18 7
-18 8 0 22 22 15 36 18 36 7z m-155 -46 c2 -25 -23 -41 -26 -17 -1 6 -2 16 -3
23 -3 18 4 29 17 24 6 -2 12 -15 12 -30z m40 23 c-4 -6 -1 -18 7 -27 11 -14
11 -16 -2 -11 -18 5 -27 48 -10 48 6 0 8 -5 5 -10z m110 -281 c-8 -12 -52 -12
-60 0 -3 6 2 14 12 20 20 11 57 -4 48 -20z m-14 -29 c5 0 9 -6 9 -14 0 -9 -15
-15 -45 -18 -25 -2 -45 0 -45 4 0 5 0 11 -1 16 0 9 42 21 59 16 8 -2 18 -4 23
-4z"/>
<path d="M2741 4931 c-6 -10 -22 -26 -36 -35 -25 -16 -26 -16 -35 9 -9 23 -15
25 -69 25 -63 0 -95 -17 -85 -45 8 -19 18 -19 34 0 14 17 46 20 54 6 10 -15
-4 -39 -25 -44 -14 -4 -19 -13 -18 -34 2 -15 -1 -38 -5 -50 -5 -17 -3 -23 8
-23 8 0 18 5 21 10 10 17 23 11 28 -12 3 -17 5 -15 6 9 1 43 17 50 35 16 l15
-28 1 27 c0 19 5 26 18 24 10 -2 17 -11 16 -25 -2 -28 24 -27 28 1 2 13 12 24
26 28 13 3 22 10 20 15 -3 10 -7 11 -35 14 -16 1 -17 43 -1 59 7 7 20 12 30
12 20 0 23 12 8 41 -13 24 -26 24 -39 0z m-97 -47 c11 -29 7 -74 -8 -74 -17 0
-25 29 -19 64 6 29 18 34 27 10z m58 -56 c-4 -18 -6 -18 -20 -4 -13 13 -13 18
-2 31 16 20 30 3 22 -27z m-102 -23 c0 -14 -6 -25 -14 -25 -8 0 -12 9 -11 23
3 27 3 27 15 27 6 0 10 -11 10 -25z"/>
<path d="M2390 4745 c-7 -9 -10 -18 -7 -21 3 -3 10 4 17 15 13 25 8 27 -10 6z"/>
<path d="M2613 4665 c-31 -30 -58 -55 -60 -55 -10 0 0 36 14 52 9 10 13 21 10
24 -9 10 -38 -23 -40 -46 -1 -11 -5 -20 -9 -20 -4 0 -8 -7 -8 -15 0 -12 11
-15 52 -13 34 2 53 -1 55 -9 3 -9 -10 -13 -46 -13 -27 0 -53 -4 -56 -10 -3 -5
3 -10 14 -10 14 0 21 -7 22 -20 1 -11 2 -26 3 -32 1 -7 -1 -20 -5 -29 -7 -14
0 -15 59 -11 37 2 74 8 84 13 11 6 18 4 22 -7 3 -8 11 -12 17 -8 7 4 9 26 4
68 -4 33 -9 90 -10 126 -1 36 -3 66 -4 68 -1 4 -74 -51 -83 -63 -19 -25 -5
-26 20 -2 15 15 31 27 35 27 4 0 7 -18 7 -40 0 -22 -4 -40 -10 -40 -5 0 -10 7
-10 16 0 9 -5 12 -11 8 -18 -10 -79 -14 -79 -4 0 15 53 72 73 79 14 5 16 10 9
15 -7 4 -35 -16 -69 -49z m98 -95 c4 -43 1 -74 -7 -77 -5 -2 -10 17 -10 42 -1
25 3 45 7 45 5 0 9 -4 10 -10z m-99 -32 c-12 -12 -35 -1 -27 12 3 5 13 6 21 3
10 -4 12 -9 6 -15z m58 -35 l-13 -28 -9 28 c-6 15 -7 35 -4 44 6 15 8 15 23 0
14 -14 15 -20 3 -44z m-40 7 c0 -5 -9 -10 -20 -10 -11 0 -20 5 -20 10 0 6 9
10 20 10 11 0 20 -4 20 -10z m-5 -30 c3 -5 -3 -10 -15 -10 -12 0 -18 5 -15 10
3 6 10 10 15 10 5 0 12 -4 15 -10z"/>
<path d="M2370 4681 c0 -6 -12 -12 -27 -12 l-28 -1 30 -7 c25 -6 30 -11 28
-34 -1 -15 2 -25 8 -22 12 8 12 72 -1 80 -5 3 -10 1 -10 -4z"/>
<path d="M4093 4518 c-15 -21 -1 -64 17 -53 5 3 31 -15 57 -39 54 -51 90 -73
100 -62 9 9 -109 115 -121 108 -5 -3 -6 0 -2 7 5 7 0 21 -10 32 -20 22 -28 24
-41 7z"/>
<path d="M2571 4431 c-7 -5 -10 -14 -6 -20 10 -16 -13 -40 -34 -36 -10 2 -24
-1 -32 -6 -12 -8 -12 -10 1 -19 9 -6 18 -6 24 0 15 15 43 12 43 -5 0 -8 -9
-16 -19 -16 -10 -1 -24 -2 -30 -3 -9 -1 -13 -22 -14 -64 -2 -55 0 -62 15 -56
9 3 27 9 39 12 20 4 23 1 20 -19 -1 -13 -10 -24 -18 -25 -8 -1 -28 -2 -43 -2
-17 -1 -26 -6 -22 -12 4 -6 21 -8 42 -4 l36 7 -7 -35 c-5 -27 -3 -37 9 -41 10
-5 17 2 21 21 11 51 12 52 58 52 25 0 47 4 50 9 9 15 -4 18 -42 11 -45 -8 -62
-3 -62 16 0 21 25 28 51 14 20 -11 21 -10 16 16 -3 16 -8 40 -11 54 -13 53
-16 80 -9 81 43 4 69 18 37 20 -91 4 -89 3 -94 31 -4 20 -9 25 -19 19z m49
-86 c0 -8 -4 -15 -10 -15 -5 0 -10 7 -10 15 0 8 5 15 10 15 6 0 10 -7 10 -15z
m0 -46 c0 -11 -31 -25 -55 -25 -32 1 -31 34 2 38 33 4 53 -1 53 -13z m0 -54
c0 -11 -11 -15 -40 -15 -29 0 -40 4 -40 15 0 11 11 15 40 15 29 0 40 -4 40
-15z"/>
<path d="M4070 4415 c0 -8 8 -15 18 -15 9 0 35 -18 56 -40 44 -44 65 -53 41
-17 -18 28 -89 87 -104 87 -6 0 -11 -7 -11 -15z"/>
<path d="M2317 4412 c-9 -2 -17 -8 -17 -13 0 -6 -4 -8 -9 -4 -15 9 -24 -15
-11 -30 6 -7 12 -28 12 -45 1 -17 4 -33 9 -35 8 -5 30 50 23 58 -10 10 23 25
61 29 39 3 40 2 39 -29 -2 -39 -41 -92 -69 -93 -19 0 -18 -2 4 -19 25 -19 25
-19 55 4 17 12 39 21 49 20 9 -2 15 1 11 6 -3 5 -12 9 -20 9 -8 0 -12 5 -9 10
4 6 8 20 11 33 2 12 6 32 8 44 8 38 -16 56 -76 57 -30 1 -62 0 -71 -2z"/>
<path d="M3962 4376 c-25 -7 -32 -14 -30 -30 2 -14 10 -21 25 -20 12 0 21 -3
20 -7 -1 -4 7 -15 18 -23 20 -16 20 -16 1 -31 -11 -8 -25 -15 -30 -15 -6 0 -4
4 4 10 8 5 12 11 10 12 -3 2 -20 16 -38 31 -19 15 -39 24 -45 20 -6 -4 0 -15
17 -28 l28 -22 -33 -27 c-28 -24 -31 -30 -21 -47 7 -10 8 -19 3 -19 -6 0 -12
4 -16 9 -6 10 -65 -18 -65 -31 0 -4 14 -14 30 -23 31 -16 37 -29 21 -40 -6 -3
-24 13 -42 35 -18 22 -36 40 -41 40 -17 0 -7 -38 11 -43 22 -5 45 -43 33 -51
-5 -3 -18 3 -29 13 -19 18 -20 18 -42 -5 -25 -26 -22 -54 6 -54 10 0 34 -15
55 -34 l36 -33 53 53 c29 30 68 59 86 65 18 6 33 15 33 20 0 14 -10 11 -68
-22 -49 -28 -56 -29 -70 -15 -14 14 -14 16 2 22 9 3 20 4 23 1 5 -6 43 35 43
47 0 3 -7 6 -15 6 -8 0 -19 9 -25 20 -9 17 -8 20 13 20 15 0 31 10 41 25 21
32 49 34 44 3 -2 -15 -11 -24 -25 -26 -13 -2 -23 -8 -23 -14 0 -5 10 -18 23
-28 22 -19 22 -19 95 53 39 39 72 75 72 79 0 4 -23 6 -50 4 -28 -2 -53 0 -56
5 -5 9 5 12 38 12 10 0 15 3 13 8 -3 4 -23 6 -45 5 -22 -2 -43 1 -46 5 -3 5 0
10 5 10 6 1 16 3 21 4 6 1 31 3 58 4 64 2 35 20 -31 19 -27 0 -51 3 -54 6 -4
3 3 6 14 6 12 0 23 7 27 15 6 17 -25 18 -82 1z m142 -128 c-10 -16 -44 -57
-71 -85 -39 -41 -61 -23 -23 20 52 58 51 57 34 57 -8 0 -12 5 -9 10 3 6 22 10
41 10 25 0 33 -4 28 -12z m-149 -18 c3 -5 1 -10 -4 -10 -6 0 -11 5 -11 10 0 6
2 10 4 10 3 0 8 -4 11 -10z m-17 -28 c2 -7 -3 -12 -12 -12 -9 0 -16 7 -16 16
0 17 22 14 28 -4z m-28 -58 c20 -20 22 -27 11 -34 -17 -10 -67 33 -57 49 11
17 20 14 46 -15z m-28 -116 c-11 -11 -42 1 -42 16 0 23 13 26 32 9 10 -9 15
-20 10 -25z m-62 7 c12 -13 27 -22 31 -19 5 3 9 -2 9 -10 0 -9 -4 -16 -9 -16
-13 0 -71 50 -71 61 0 16 16 10 40 -16z"/>
<path d="M826 4347 c-14 -19 -26 -38 -26 -43 0 -5 -16 -23 -37 -39 -20 -17
-49 -41 -65 -53 -31 -27 -29 -42 7 -42 14 0 26 7 29 18 4 10 38 49 76 86 39
38 70 72 70 76 0 4 -6 13 -14 19 -11 10 -19 5 -40 -22z"/>
<path d="M1244 4369 c-9 -16 -7 -129 5 -166 7 -25 6 -35 -5 -44 -20 -16 -38 2
-39 38 0 19 -6 29 -19 31 -14 3 -17 0 -12 -13 3 -9 6 -25 6 -35 0 -11 10 -31
23 -46 l23 -26 41 46 c22 25 42 46 45 46 2 0 5 -12 6 -27 1 -15 6 -31 11 -36
16 -16 -22 -47 -50 -42 -36 7 -89 -5 -89 -21 0 -10 11 -12 45 -7 36 4 50 2 65
-12 21 -19 30 -17 34 7 1 7 6 20 11 28 31 47 33 59 18 72 -12 9 -14 27 -10 75
3 46 1 63 -9 67 -16 6 -34 -23 -27 -42 3 -8 -5 -23 -17 -34 -32 -30 -42 -8
-36 80 5 66 -2 89 -20 61z"/>
<path d="M4296 4330 c-14 -41 -11 -53 19 -63 17 -5 33 -14 36 -20 4 -5 12 -6
18 -3 6 4 11 4 10 -1 -3 -13 12 -43 22 -43 12 0 49 -38 49 -50 0 -5 5 -10 10
-10 22 0 7 27 -44 79 -30 31 -68 72 -84 91 -23 26 -32 31 -36 20z"/>
<path d="M884 4257 c-11 -12 -34 -41 -49 -65 -21 -31 -34 -42 -47 -39 -13 4
-18 0 -18 -13 0 -42 40 -35 57 10 6 17 16 30 22 30 21 0 11 -55 -15 -83 -14
-16 -23 -31 -19 -35 4 -4 15 4 24 18 9 13 31 39 49 56 21 20 30 34 23 38 -6 4
-11 2 -11 -4 0 -7 -5 -10 -12 -8 -20 7 -17 38 8 66 19 22 23 24 24 10 0 -10 3
-18 8 -18 12 0 104 -91 98 -98 -3 -3 -14 2 -24 11 -10 10 -24 17 -31 17 -6 0
-16 12 -22 27 -7 19 -13 23 -21 15 -8 -8 -8 -15 1 -25 9 -11 3 -23 -29 -58
-22 -24 -40 -48 -40 -54 0 -5 7 -2 14 8 15 20 33 22 39 5 3 -10 7 -10 20 1 21
17 22 31 2 31 -19 0 -19 14 0 30 20 16 55 4 50 -19 -5 -29 -51 -72 -81 -77
-32 -6 -40 -11 -31 -21 11 -10 87 19 87 33 0 7 5 16 11 20 9 5 10 -1 5 -20 -5
-19 -3 -26 7 -26 10 0 14 12 13 38 -1 29 2 36 15 34 9 -1 20 5 23 14 5 13 9
14 20 5 20 -17 16 -146 -5 -146 -8 0 -15 10 -17 22 -2 14 -8 20 -18 16 -30
-11 -6 -83 29 -83 9 0 26 18 38 40 19 34 51 62 48 42 -1 -4 -1 -19 0 -34 1
-20 5 -26 17 -21 10 3 13 11 8 22 -4 9 -6 37 -5 64 1 26 -3 47 -9 47 -5 0 -10
-7 -10 -16 0 -19 -28 -49 -38 -39 -4 4 -7 32 -7 62 0 47 -3 56 -19 59 -11 1
-49 32 -85 68 -37 36 -69 66 -71 66 -3 0 -14 -10 -26 -23z"/>
<path d="M4225 4193 c3 -16 16 -36 28 -45 21 -17 21 -18 3 -18 -11 0 -30 10
-43 22 -13 12 -26 19 -29 16 -5 -6 79 -90 97 -96 5 -2 6 4 2 14 -5 14 -2 16
21 12 42 -8 39 7 -9 43 -36 27 -44 39 -40 57 4 17 1 22 -16 22 -18 0 -20 -4
-14 -27z"/>
<path d="M2454 4187 c-4 -11 -23 -14 -75 -14 -76 0 -94 -7 -65 -29 17 -12 22
-12 36 1 15 14 80 22 80 10 0 -4 -7 -19 -15 -35 -14 -27 -14 -30 5 -40 15 -8
21 -8 24 2 2 7 11 34 19 60 10 29 12 50 6 53 -5 4 -12 0 -15 -8z"/>
<path d="M594 4144 c-16 -22 -56 -64 -90 -94 -48 -43 -58 -56 -45 -62 10 -4
24 3 39 20 13 15 49 55 79 89 30 33 55 64 55 68 -1 20 -14 13 -38 -21z"/>
<path d="M4173 4115 c0 -8 3 -12 7 -10 3 2 12 -1 20 -6 13 -8 12 -12 -5 -25
-17 -13 -18 -16 -5 -24 11 -7 16 -5 18 5 2 8 11 15 20 15 12 0 8 8 -13 30 -32
33 -42 37 -42 15z"/>
<path d="M4119 4103 c-1 -5 0 -12 1 -18 7 -27 6 -62 -1 -77 -8 -14 -2 -16 51
-11 39 3 60 1 60 -6 0 -6 -11 -11 -25 -11 -32 0 -31 -7 1 -37 29 -27 33 -25
88 35 23 25 51 54 64 65 12 11 22 30 22 41 -1 22 -2 20 -111 -101 -28 -31 -49
-42 -49 -25 0 4 8 15 18 24 41 41 54 57 50 68 -2 7 -13 4 -30 -9 -14 -12 -34
-21 -43 -21 -17 0 -70 36 -70 48 0 4 -4 13 -9 21 -7 10 -6 12 4 6 9 -5 11 -4
6 3 -8 13 -25 16 -27 5z m51 -83 c0 -5 -7 -10 -15 -10 -8 0 -15 5 -15 10 0 6
7 10 15 10 8 0 15 -4 15 -10z"/>
<path d="M619 4043 c-73 -80 -83 -93 -68 -93 8 0 38 29 67 65 57 70 58 89 1
28z"/>
<path d="M675 4059 c-4 -5 -9 -25 -12 -42 -3 -18 -9 -37 -13 -42 -5 -6 -10
-32 -12 -57 -2 -36 -6 -44 -15 -36 -7 6 -13 23 -13 39 0 16 -4 29 -10 29 -15
0 -12 -53 5 -94 18 -41 25 -44 50 -16 10 11 15 20 11 20 -4 0 5 12 19 26 19
19 30 23 38 15 8 -8 -1 -21 -31 -49 -23 -22 -42 -42 -42 -45 0 -12 28 -8 36 5
5 7 3 8 -6 3 -8 -5 -11 -4 -6 3 9 14 37 4 54 -20 18 -24 34 -23 60 5 28 29 29
46 2 22 -11 -10 -20 -13 -20 -7 0 7 -5 12 -11 12 -16 0 -36 24 -31 38 2 6 8
12 13 12 4 0 5 -7 2 -17 -5 -11 -3 -14 6 -8 8 4 17 2 22 -6 4 -7 11 -10 15 -6
4 4 -3 18 -16 32 -17 18 -21 28 -13 36 17 17 48 6 51 -19 2 -12 10 -22 17 -22
27 0 25 -19 -6 -63 -27 -39 -29 -47 -18 -66 19 -29 31 -27 52 9 10 17 22 30
27 30 16 0 23 -22 10 -30 -10 -6 -8 -9 5 -11 16 -4 16 -6 -4 -29 -19 -23 -20
-23 -21 -5 0 15 -2 17 -9 7 -4 -8 -12 -13 -17 -12 -5 1 -10 -4 -13 -11 -2 -8
3 -10 17 -7 12 4 30 -3 47 -18 22 -19 31 -21 42 -13 7 7 11 14 8 17 -5 5 41
72 59 84 9 6 -29 47 -44 48 -11 0 -42 62 -47 93 -8 53 -24 56 -18 4 6 -50 -2
-58 -29 -28 -15 16 -15 22 -4 41 11 19 11 23 -2 28 -8 3 -42 32 -76 64 -33 32
-63 58 -66 58 -2 0 -5 -7 -5 -15 0 -9 31 -40 68 -70 50 -40 67 -60 62 -72 -6
-14 -8 -14 -22 3 -15 18 -82 64 -94 64 -2 0 -7 -10 -10 -22 -9 -32 -20 -14
-19 28 1 20 -2 34 -6 30 -8 -9 -9 -13 -11 -72 -1 -32 -5 -44 -13 -41 -15 4
-18 42 -5 77 5 14 10 33 12 43 2 10 7 27 10 38 7 20 0 26 -10 8z m208 -233 c6
-16 -40 -69 -54 -61 -14 9 -11 20 12 49 23 29 34 33 42 12z m40 -21 c7 -16 -8
-29 -23 -20 -10 6 -2 35 10 35 4 0 10 -7 13 -15z m27 -30 c0 -8 -7 -15 -16
-15 -14 0 -14 3 -4 15 7 8 14 15 16 15 2 0 4 -7 4 -15z m20 -33 c0 -14 -38
-44 -50 -40 -14 4 17 48 36 48 8 0 14 -4 14 -8z"/>
<path d="M2528 4036 c-1 -2 -59 -6 -128 -10 -187 -10 -300 -31 -445 -84 -95
-35 -219 -92 -223 -104 -2 -4 -12 -8 -23 -8 -10 0 -19 -4 -19 -10 0 -5 -7 -10
-15 -10 -8 0 -15 -4 -15 -8 0 -5 -12 -14 -27 -21 -52 -24 -198 -141 -278 -224
-73 -75 -151 -174 -186 -237 -8 -13 -19 -29 -26 -35 -12 -10 -103 -188 -103
-202 0 -3 -9 -25 -20 -47 -10 -23 -21 -53 -24 -68 -2 -15 -7 -31 -10 -36 -14
-22 -48 -258 -35 -245 4 5 10 29 13 55 11 85 56 241 95 328 20 47 71 139 112
205 42 66 85 136 97 155 47 79 299 295 398 342 27 13 51 26 54 30 8 10 130 69
230 111 124 52 213 74 340 83 25 1 81 6 125 10 106 9 114 9 203 -11 68 -15
122 -33 267 -93 54 -23 139 -74 184 -112 20 -17 49 -39 65 -49 35 -23 209
-184 326 -302 50 -50 96 -108 113 -140 15 -30 39 -74 54 -99 25 -43 88 -193
99 -235 43 -163 43 -404 -1 -545 -53 -171 -105 -264 -207 -371 -52 -55 -188
-151 -188 -133 0 2 -17 -4 -37 -14 -37 -19 -74 -30 -123 -38 -14 -2 -44 -9
-67 -15 -23 -6 -57 -9 -75 -6 -18 3 -49 8 -68 11 -19 3 -51 8 -70 11 -19 3
-45 12 -57 21 -13 8 -23 11 -23 8 0 -4 -9 1 -20 11 -11 10 -20 14 -20 9 0 -5
-4 -3 -8 4 -5 6 -23 23 -41 36 -37 28 -91 108 -91 136 0 10 -5 30 -11 43 -15
34 11 120 53 176 59 78 68 95 80 156 14 68 14 69 4 110 -12 48 -27 74 -89 157
-60 80 -115 126 -199 165 -40 18 -64 22 -149 21 -56 -1 -120 -5 -143 -9 -23
-4 -61 -10 -86 -13 -210 -28 -402 -165 -500 -357 -11 -21 -17 -39 -13 -39 5 0
4 -4 -2 -8 -26 -19 -76 -137 -81 -192 -1 -14 -5 -47 -10 -75 -9 -61 -9 -244 0
-345 22 -237 55 -350 124 -430 7 -8 38 -54 70 -101 71 -107 93 -133 162 -189
30 -25 57 -47 60 -50 16 -17 80 -60 80 -54 0 4 9 -1 20 -11 21 -19 27 -45 11
-45 -6 0 -13 5 -16 10 -3 6 -15 10 -26 10 -26 0 -223 93 -266 126 -18 14 -33
21 -33 17 1 -14 71 -58 160 -100 113 -55 153 -70 225 -84 33 -6 71 -17 85 -24
36 -18 144 -28 300 -28 241 0 421 33 595 110 22 9 48 18 58 19 49 4 228 89
249 118 3 5 14 11 22 12 33 5 226 161 226 183 0 3 16 17 35 30 19 13 69 66
112 118 43 53 83 101 90 108 7 7 9 15 6 19 -4 3 -1 6 6 6 7 0 9 5 6 10 -3 6
-1 10 5 10 6 0 9 4 6 9 -4 5 -3 11 1 13 13 5 49 78 76 150 14 36 32 77 40 90
8 13 27 59 41 103 15 44 31 89 36 100 19 44 37 172 47 330 6 112 6 125 -1 165
-8 44 -12 70 -21 143 -3 32 -13 74 -21 93 -8 18 -14 35 -13 36 0 2 -4 15 -10
30 -6 15 -17 55 -26 89 -29 113 -98 240 -177 331 -163 186 -337 340 -503 445
-84 53 -139 84 -160 89 -14 3 -25 10 -25 14 0 5 -17 14 -37 21 -21 6 -47 16
-58 22 -11 6 -24 12 -30 14 -5 1 -48 13 -95 26 -96 27 -157 37 -280 43 -47 2
-90 6 -97 8 -6 3 -13 3 -15 2z m-145 -1511 c56 -42 60 -65 17 -115 -30 -35
-30 -35 -115 -35 -48 0 -89 5 -93 11 -20 29 -114 43 -206 30 -15 -3 -35 -2
-42 1 -27 10 -14 30 24 36 20 3 51 11 67 18 17 7 32 13 35 13 20 5 107 41 118
49 6 5 12 7 12 3 0 -4 12 -1 26 7 14 7 44 14 67 15 34 2 51 -5 90 -33z"/>
<path d="M1208 3985 c-28 -49 -64 -220 -49 -230 15 -9 29 19 29 57 0 42 9 92
24 130 10 26 7 61 -4 43z"/>
<path d="M3662 3963 c2 -20 9 -29 25 -31 28 -4 53 -31 29 -33 -19 -2 -22 -3
-62 -18 -35 -13 -41 -41 -10 -41 12 0 32 -9 46 -20 24 -18 24 -20 8 -37 -17
-16 -19 -16 -39 6 -11 12 -24 21 -27 19 -4 -2 -26 -12 -50 -22 -23 -11 -41
-25 -39 -30 2 -6 21 -17 43 -24 21 -7 45 -20 52 -29 11 -15 12 -15 12 0 0 9
-9 22 -20 30 -26 18 -17 47 11 40 11 -3 26 -14 32 -24 7 -11 17 -19 23 -19 15
0 59 73 46 78 -5 1 -17 9 -27 16 -22 16 -11 40 16 33 10 -3 20 0 22 7 2 6 22
-9 45 -34 43 -48 42 -63 -3 -74 -33 -8 -31 -27 5 -54 18 -14 27 -28 24 -37 -9
-21 -22 -19 -56 10 -28 24 -32 24 -48 10 -9 -8 -22 -15 -28 -15 -20 0 -14 -17
13 -38 13 -11 22 -21 20 -24 -9 -8 43 -50 57 -46 8 3 2 12 -17 24 -34 22 -42
46 -20 64 12 10 19 7 41 -20 l27 -31 48 47 c27 27 45 52 42 61 -4 10 -9 11
-19 2 -15 -12 -64 -4 -64 11 0 13 42 35 59 31 17 -3 -29 53 -72 89 -16 14 -50
53 -74 88 -48 67 -76 81 -71 35z"/>
<path d="M3760 3980 c-13 -8 -13 -12 0 -36 22 -41 35 -39 37 6 1 41 -8 48 -37
30z"/>
<path d="M4090 3961 c0 -4 -16 -13 -35 -21 -22 -9 -35 -20 -35 -32 0 -10 5
-18 11 -18 6 0 25 -12 42 -26 23 -19 32 -23 36 -13 7 23 21 27 85 23 59 -3 60
-3 31 11 -31 15 -112 17 -131 3 -6 -4 -19 -2 -29 6 -16 12 -17 16 -6 30 7 9
24 16 37 16 30 0 40 16 14 23 -11 3 -20 2 -20 -2z"/>
<path d="M3960 3951 c0 -5 7 -17 16 -25 14 -15 14 -19 0 -48 -13 -25 -14 -33
-4 -40 22 -13 29 -9 18 11 -7 13 -7 22 0 26 18 11 11 64 -10 75 -12 6 -20 7
-20 1z"/>
<path d="M1125 3910 c-13 -15 -22 -17 -36 -10 -28 16 -96 12 -103 -5 -6 -17 0
-18 67 -15 29 1 47 -2 47 -9 0 -22 20 -10 35 20 20 37 15 46 -10 19z"/>
<path d="M1331 3863 c-6 -21 -14 -58 -19 -83 l-8 -45 -37 38 c-39 41 -57 47
-57 19 0 -18 -34 -62 -48 -62 -4 0 -22 14 -41 30 -18 17 -37 30 -40 30 -11 0
-88 -83 -93 -100 -5 -16 5 -28 41 -48 22 -13 23 -12 16 5 -17 42 -16 54 6 78
29 30 40 31 59 5 8 -11 24 -20 35 -20 18 -1 19 -2 3 -13 -15 -12 -15 -16 8
-45 25 -32 64 -43 64 -19 0 7 16 29 35 47 30 29 37 32 45 20 5 -8 7 -22 4 -31
-3 -12 3 -18 21 -21 30 -6 40 5 26 31 -11 20 -8 174 4 204 4 10 3 17 -4 17 -5
0 -15 -17 -20 -37z m-89 -120 c24 -22 23 -35 -7 -63 l-25 -24 -22 21 -21 21
24 31 c29 36 28 35 51 14z"/>
<path d="M4044 3818 c-3 -5 -4 -11 -2 -13 7 -8 138 8 133 15 -7 11 -124 9
-131 -2z"/>
<path d="M3882 3808 c2 -7 29 -18 63 -24 33 -6 74 -15 90 -19 47 -12 17 9 -35
25 -25 8 -49 16 -55 20 -21 13 -66 12 -63 -2z"/>
<path d="M4242 3757 l-32 -33 39 -30 c44 -33 44 -44 0 -44 -20 0 -29 -4 -26
-12 2 -8 19 -12 38 -12 19 1 49 2 67 3 34 1 36 21 3 21 -25 0 -35 39 -13 48 9
3 43 6 75 5 36 0 55 3 49 9 -10 10 -142 16 -142 6 0 -11 -53 -4 -57 8 -2 6 12
19 31 28 44 21 54 36 24 36 -14 0 -38 -14 -56 -33z"/>
<path d="M4146 3765 c4 -8 10 -15 15 -15 16 0 10 -67 -6 -74 -21 -8 -19 -26 3
-26 10 0 23 -5 30 -12 9 -9 12 -9 12 -1 0 7 -4 14 -9 18 -5 3 -7 20 -5 38 7
39 -10 87 -30 87 -10 0 -13 -6 -10 -15z"/>
<path d="M3900 3741 c0 -5 18 -24 40 -41 22 -17 40 -28 40 -23 0 6 -18 24 -40
42 -22 17 -40 28 -40 22z"/>
<path d="M1299 3619 c-35 -51 -39 -54 -46 -43 -9 12 -51 24 -105 30 -35 4 -39
1 -52 -29 -18 -44 -7 -51 45 -28 51 24 72 26 99 9 20 -13 19 -14 73 49 10 12
14 23 9 26 -4 3 -15 -3 -23 -14z"/>
<path d="M498 2905 c-3 -4 -29 -7 -57 -8 -28 0 -50 -5 -48 -10 1 -4 7 -8 12
-8 13 0 29 -29 21 -36 -3 -4 -26 -6 -51 -6 -25 0 -45 -3 -45 -6 0 -16 44 -32
72 -25 30 6 31 5 25 -24 -8 -39 7 -51 62 -48 43 2 63 17 42 31 -6 3 -11 15
-11 26 0 14 7 19 25 19 18 0 23 4 19 15 -4 10 -13 13 -25 10 -18 -6 -22 1 -31
58 -2 11 -6 16 -10 12z m-7 -42 c13 -13 4 -33 -14 -33 -22 0 -40 18 -34 33 6
17 31 17 48 0z m11 -64 c4 -27 1 -32 -19 -35 -26 -4 -48 27 -32 43 12 12 48 6
51 -8z"/>
<path d="M4925 2783 c15 -35 17 -84 5 -114 -11 -27 -17 -30 -49 -27 -34 3 -36
5 -39 39 -3 31 -6 36 -23 32 -33 -9 -21 6 18 22 20 9 43 13 50 11 7 -3 13 -1
13 4 0 6 -6 10 -12 11 -7 0 -24 2 -38 4 -14 1 -32 -3 -40 -10 -18 -16 -31 -17
-47 -4 -18 16 -24 -5 -17 -58 8 -59 12 -67 30 -52 17 14 44 5 44 -15 0 -11 8
-12 41 -5 23 6 44 8 46 5 8 -8 -7 -26 -23 -26 -8 0 -14 -9 -14 -19 0 -26 16
-35 24 -15 6 15 8 15 26 -1 25 -23 37 -12 21 18 -9 17 -9 30 -2 51 6 15 11 56
11 91 0 49 -4 64 -16 69 -13 5 -14 2 -9 -11z m-145 -73 c0 -5 -2 -10 -4 -10
-3 0 -8 5 -11 10 -3 6 -1 10 4 10 6 0 11 -4 11 -10z m45 -30 c8 -13 -20 -24
-41 -16 -20 8 -9 26 16 26 10 0 22 -5 25 -10z"/>
<path d="M4585 2761 c5 -17 0 -20 -37 -23 -30 -2 -43 -7 -43 -18 0 -11 10 -14
43 -12 33 3 42 0 42 -12 0 -9 5 -16 10 -16 6 0 10 9 10 20 0 12 7 20 16 20 11
0 15 -6 11 -20 -3 -11 -1 -18 4 -14 5 3 9 12 9 20 0 9 11 14 30 14 17 0 30 -5
30 -12 0 -9 4 -8 10 2 14 23 -15 40 -61 35 -31 -3 -41 0 -49 16 -14 25 -33 25
-25 0z"/>
<path d="M130 2728 c0 -9 7 -18 15 -22 8 -3 15 -12 15 -20 0 -8 8 -19 17 -25
28 -15 8 -24 -57 -25 -64 0 -72 -5 -40 -27 20 -14 27 -42 29 -127 1 -39 3 -42
21 -32 16 9 18 14 8 35 -14 32 -5 55 21 48 15 -4 21 -13 21 -34 0 -15 5 -31
11 -34 15 -10 23 2 14 22 -12 27 -11 48 2 48 17 0 41 25 25 26 -7 1 -17 2 -23
3 -7 0 -15 11 -20 23 -9 25 10 47 34 37 21 -8 26 -25 28 -102 1 -35 6 -65 10
-67 10 -7 20 25 13 37 -12 19 -9 80 4 85 17 7 15 33 -2 33 -8 0 -17 7 -20 16
-4 9 -9 14 -13 10 -3 -3 -30 20 -60 51 -32 35 -53 51 -53 41z m40 -149 c0 -12
-7 -19 -20 -19 -26 0 -36 25 -20 45 16 19 40 2 40 -26z"/>
<path d="M4860 2689 c0 -24 4 -30 17 -27 22 4 30 38 11 49 -22 15 -28 10 -28
-22z m30 0 c0 -5 -4 -9 -10 -9 -5 0 -10 7 -10 16 0 8 5 12 10 9 6 -3 10 -10
10 -16z"/>
<path d="M238 2688 c-6 -17 1 -38 13 -38 5 0 9 11 9 25 0 26 -14 34 -22 13z"/>
<path d="M4391 2656 c-23 -44 -57 -66 -102 -66 -11 0 -19 -4 -19 -10 0 -5 -4
-10 -10 -10 -5 0 -10 6 -10 14 0 8 -4 17 -9 20 -5 4 -7 -3 -4 -14 6 -23 1 -24
-44 -8 -28 10 -36 10 -43 -2 -13 -21 6 -38 49 -46 48 -9 69 -20 108 -57 18
-17 36 -28 39 -24 4 4 -13 25 -37 47 l-44 40 33 0 c44 0 126 -44 163 -89 18
-20 26 -26 20 -13 -7 12 -39 48 -71 80 -33 31 -60 60 -60 63 0 4 13 9 28 12
16 3 39 14 52 25 19 16 21 23 13 47 -14 42 -25 40 -52 -9z"/>
<path d="M340 2682 c-19 -2 -39 -7 -44 -12 -18 -18 26 -22 115 -11 49 6 94 9
100 5 14 -8 -7 -32 -29 -33 -9 -1 -34 -1 -54 -1 -21 0 -38 -5 -38 -10 0 -14
63 -13 77 1 8 8 13 8 17 0 10 -16 56 -14 52 2 -3 6 -7 25 -10 40 -7 28 -7 28
-79 25 -40 -2 -88 -4 -107 -6z"/>
<path d="M4223 2674 c-13 -8 -13 -15 -4 -32 13 -24 26 -28 36 -12 4 6 11 8 16
5 18 -12 28 5 17 30 -11 25 -39 29 -65 9z"/>
<path d="M934 2633 c-14 -72 -8 -252 11 -351 2 -11 6 -35 9 -53 3 -19 13 -59
21 -89 9 -30 17 -64 19 -75 2 -11 6 -27 9 -35 3 -8 7 -24 10 -35 10 -39 51
-148 67 -177 6 -10 10 -22 10 -27 0 -6 20 -39 45 -73 25 -35 68 -97 97 -138
51 -74 79 -108 150 -182 20 -22 38 -42 40 -46 2 -4 16 -18 32 -32 49 -42 25
-6 -51 77 -74 81 -146 170 -198 245 -46 65 -125 198 -125 209 0 5 -4 17 -9 27
-9 15 -48 134 -57 172 -1 8 -12 52 -23 98 -12 45 -23 97 -26 115 -3 17 -11 59
-17 92 -11 62 -13 239 -2 288 3 15 3 27 0 27 -3 0 -8 -17 -12 -37z"/>
<path d="M4533 2663 c-10 -3 -10 -10 -2 -24 7 -14 7 -19 -3 -17 -6 2 -12 -2
-13 -9 0 -6 -3 -15 -7 -19 -16 -15 -7 -24 18 -18 19 5 25 4 20 -5 -9 -15 7
-14 22 1 12 12 17 2 13 -32 -1 -8 8 1 20 20 l23 35 7 -25 c7 -24 7 -24 8 -2 1
26 31 31 31 5 1 -17 1 -17 11 0 12 21 29 13 29 -14 0 -12 5 -19 13 -16 14 4
12 28 -8 89 -13 43 -13 43 -14 11 -1 -35 -9 -41 -29 -21 -9 9 -12 9 -12 0 0
-20 -17 -14 -23 8 -4 14 -10 18 -22 13 -11 -4 -21 0 -27 11 -5 9 -14 14 -20
10 -6 -4 -5 -10 3 -15 10 -6 10 -9 2 -9 -7 0 -16 6 -20 14 -4 7 -14 11 -20 9z
m85 -51 c2 -7 -3 -12 -12 -12 -9 0 -16 7 -16 16 0 17 22 14 28 -4z"/>
<path d="M832 2573 c-2 -63 5 -83 29 -83 25 0 24 22 0 37 -13 8 -21 27 -24 55
-3 42 -4 42 -5 -9z"/>
<path d="M4766 2604 c-9 -24 -7 -28 9 -14 17 14 20 30 6 30 -5 0 -12 -7 -15
-16z"/>
<path d="M321 2595 c0 -11 4 -38 9 -60 7 -31 6 -41 -6 -48 -18 -10 -18 -27 0
-27 19 0 27 26 20 57 -6 23 -5 25 17 20 22 -6 24 -3 26 28 1 19 -3 35 -9 35
-5 0 -8 -7 -4 -15 4 -10 -1 -15 -15 -15 -11 0 -24 10 -29 23 -8 20 -9 20 -9 2z"/>
<path d="M484 2581 c9 -16 12 -32 8 -37 -4 -5 0 -3 9 4 13 10 19 9 28 -2 13
-16 -1 -32 -19 -21 -5 3 -10 0 -10 -7 0 -8 -9 -21 -20 -31 -22 -19 -24 -26
-11 -46 7 -11 13 -6 24 20 8 19 26 43 41 52 14 10 26 21 26 25 0 5 -20 22 -45
40 l-45 32 14 -29z"/>
<path d="M733 2566 c4 -30 2 -36 -14 -36 -10 0 -19 7 -19 15 0 8 -5 15 -11 15
-5 0 -8 4 -5 9 7 10 -50 20 -76 13 -31 -8 -20 -23 15 -19 35 4 71 -9 62 -23
-3 -6 -16 -5 -31 0 -19 8 -26 6 -30 -5 -3 -8 -3 -19 1 -25 4 -6 1 -17 -5 -25
-10 -12 -9 -15 9 -15 16 0 21 6 21 26 0 20 4 25 16 20 9 -3 18 -6 20 -6 7 0 4
-60 -3 -61 -33 -6 -70 -4 -80 4 -18 13 -37 -1 -23 -19 8 -9 30 -13 68 -11 l57
2 -3 35 c-2 26 2 38 18 48 18 11 20 10 21 -15 1 -16 0 -34 -1 -42 -1 -8 9 -23
21 -32 13 -10 21 -20 19 -23 -3 -2 -51 -6 -108 -7 -56 -2 -102 -6 -102 -9 0
-4 11 -12 25 -18 21 -10 24 -18 27 -77 2 -37 7 -64 13 -63 5 2 8 8 6 13 -12
33 -5 50 22 53 26 3 33 -8 28 -40 0 -5 5 -8 13 -8 9 0 12 8 8 25 -3 20 0 25
17 25 16 0 21 -6 21 -25 0 -14 5 -25 11 -25 6 0 8 8 4 19 -3 11 -2 22 3 24 10
7 37 -9 37 -23 0 -5 5 -9 10 -8 6 0 9 9 7 20 -4 23 14 24 27 1 8 -14 12 -15
25 -4 9 7 13 17 10 22 -11 18 -70 36 -102 31 -32 -4 -38 2 -24 26 8 12 58 12
80 -2 6 -4 20 -3 29 3 15 8 11 13 -30 30 -26 11 -47 23 -47 26 0 17 23 45 36
45 8 0 12 -4 9 -10 -3 -5 0 -10 9 -10 21 0 -2 57 -26 63 -10 3 -18 12 -18 21
0 9 -7 16 -16 16 -8 0 -13 -4 -9 -9 3 -5 0 -13 -6 -17 -6 -3 -15 -1 -19 6 -10
16 -1 42 11 34 5 -3 9 2 9 10 0 9 7 16 15 16 8 0 15 5 15 10 0 6 -9 10 -19 10
-11 0 -27 3 -36 6 -15 6 -16 2 -12 -30z m77 -96 c0 -11 -39 -24 -47 -16 -10
10 18 35 33 29 8 -3 14 -9 14 -13z m-120 -122 c0 -13 -8 -18 -30 -18 -32 0
-39 14 -14 28 25 14 44 10 44 -10z m50 2 c0 -13 -7 -20 -20 -20 -22 0 -28 25
-7 33 22 10 27 7 27 -13z"/>
<path d="M4810 2584 c0 -8 5 -12 10 -9 6 4 8 11 5 16 -9 14 -15 11 -15 -7z"/>
<path d="M412 2537 c1 -56 18 -95 18 -43 0 19 5 26 20 26 17 0 20 6 18 31 -1
17 -6 33 -11 36 -5 3 -7 -4 -5 -15 4 -29 -14 -30 -30 -1 -11 22 -12 18 -10
-34z"/>
<path d="M380 2492 c0 -18 5 -32 10 -32 6 0 8 11 4 28 -10 39 -14 40 -14 4z"/>
<path d="M4906 2460 c5 -31 3 -41 -10 -46 -21 -8 -46 13 -46 37 0 11 -4 19
-10 19 -5 0 -7 -13 -3 -30 4 -23 2 -30 -11 -30 -11 0 -18 13 -22 40 -4 24 -11
39 -18 37 -6 -3 -9 -11 -7 -18 11 -41 13 -99 3 -99 -6 0 -17 -3 -26 -6 -10 -4
-16 -1 -16 7 -1 17 -45 69 -60 69 -5 0 -10 5 -10 10 0 14 23 13 37 -1 7 -7 20
-9 29 -5 16 6 16 8 2 23 -9 8 -33 16 -54 17 l-38 1 3 -47 c1 -27 -2 -48 -7
-48 -11 0 -22 33 -22 67 0 12 -5 25 -11 28 -6 4 -9 0 -7 -11 3 -16 -5 -19 -47
-22 l-51 -3 4 -34 4 -35 54 0 c58 0 65 -7 35 -34 -15 -14 -24 -15 -39 -7 -31
16 -53 3 -49 -28 3 -22 9 -26 33 -24 16 1 65 3 109 3 96 2 120 12 104 41 -9
18 -8 20 8 17 12 -2 18 -12 17 -31 -1 -15 4 -27 10 -27 6 0 5 -4 -3 -9 -10 -7
-10 -10 -1 -16 16 -10 29 12 22 38 -6 22 6 19 41 -11 15 -14 17 -13 17 1 0 13
9 17 39 17 43 0 61 14 37 27 -11 6 -16 30 -18 86 -1 55 -6 77 -15 77 -10 0
-12 -11 -7 -40z m-356 -45 c0 -28 -15 -33 -24 -8 -4 9 -1 20 6 25 18 11 18 11
18 -17z m46 12 c9 3 14 -2 14 -12 0 -11 -5 -15 -15 -11 -8 3 -15 1 -15 -4 0
-6 -4 -10 -10 -10 -5 0 -10 12 -10 27 0 20 3 24 11 16 6 -6 18 -9 25 -6z m130
-65 c-3 -2 -13 1 -22 9 -16 13 -17 12 -11 -9 5 -23 5 -23 -14 -6 -14 12 -16
21 -8 30 7 8 7 14 -1 19 -6 3 -7 11 -4 17 4 6 19 -4 36 -22 16 -18 27 -35 24
-38z m118 22 c9 -24 7 -54 -4 -54 -14 0 -43 48 -35 60 9 15 32 12 39 -6z m74
-13 c4 -23 -11 -41 -35 -41 -15 0 -28 44 -18 60 12 20 50 7 53 -19z m-237 -46
c-1 -10 -121 -24 -141 -17 -20 7 -9 22 13 17 12 -3 42 -1 67 4 52 10 62 9 61
-4z m56 -1 c-3 -3 -12 -4 -19 -1 -8 3 -5 6 6 6 11 1 17 -2 13 -5z"/>
<path d="M4366 2462 c5 -23 3 -32 -7 -33 -67 -4 -89 -3 -89 4 0 5 -7 4 -15 -3
-8 -7 -25 -10 -37 -7 -27 7 -45 -2 -50 -23 -2 -12 8 -15 47 -15 50 0 50 0 55
-35 3 -19 8 -30 12 -24 4 6 5 22 3 35 -6 29 9 39 61 39 38 0 41 -2 50 -35 7
-27 12 -33 23 -26 12 8 10 20 -13 73 -34 76 -49 95 -40 50z"/>
<path d="M4251 2464 c0 -11 3 -14 6 -6 3 7 2 16 -1 19 -3 4 -6 -2 -5 -13z"/>
<path d="M3003 2415 c-29 -20 -24 -83 10 -128 30 -39 80 -57 160 -57 42 0 74
9 136 37 44 20 81 40 81 44 0 3 -36 11 -81 17 -63 8 -90 17 -123 40 -88 63
-141 77 -183 47z m92 -15 c3 -6 -4 -10 -17 -10 -18 0 -20 2 -8 10 19 12 18 12
25 0z m70 -40 c3 -6 -1 -7 -9 -4 -18 7 -21 14 -7 14 6 0 13 -4 16 -10z m-90
-49 c-3 -2 -12 2 -22 10 -15 13 -16 12 -9 -6 5 -15 4 -17 -5 -8 -18 18 -2 35
21 21 11 -7 17 -14 15 -17z m205 -7 c0 -8 -19 -13 -24 -6 -3 5 1 9 9 9 8 0 15
-2 15 -3z m-120 -35 c0 -11 -36 -7 -47 6 -5 4 -3 5 4 1 6 -3 14 -2 18 4 7 12
25 4 25 -11z"/>
<path d="M500 2377 c0 -19 -8 -30 -32 -41 -38 -20 -38 -20 -38 -1 0 8 -4 15
-10 15 -5 0 -7 -7 -4 -15 4 -9 0 -15 -10 -15 -9 0 -16 8 -16 19 0 11 -4 23
-10 26 -14 9 -12 -22 4 -75 14 -43 20 -46 17 -7 -1 9 3 17 8 17 10 0 16 -22
12 -43 -1 -5 3 -6 9 -2 5 3 10 13 10 21 0 19 16 18 24 -1 3 -8 15 -15 26 -15
11 0 20 -6 20 -13 0 -8 8 -13 18 -12 9 0 17 3 17 6 0 3 6 13 13 21 11 13 9 17
-13 22 -32 8 -32 26 0 26 14 0 25 5 25 10 0 6 -9 10 -20 10 -13 0 -18 5 -13
15 3 10 0 15 -8 13 -8 -2 -14 5 -14 14 0 9 -4 20 -8 24 -4 4 -7 -4 -7 -19z m8
-70 c2 -11 -3 -17 -15 -17 -12 0 -19 8 -20 21 -2 25 30 22 35 -4z"/>
<path d="M450 2371 c0 -25 6 -27 13 -6 4 8 2 17 -3 20 -6 4 -10 -3 -10 -14z"/>
<path d="M107 2374 c-11 -19 42 -57 81 -57 39 0 40 2 23 43 l-10 25 0 -27 c-1
-21 -5 -26 -23 -25 -13 1 -32 13 -44 26 -11 13 -23 20 -27 15z"/>
<path d="M262 2341 c-10 -6 -10 -10 2 -20 10 -9 16 -9 21 -1 10 16 -7 31 -23
21z"/>
<path d="M322 2330 c-14 -23 -15 -30 -3 -30 8 0 24 41 18 47 -2 1 -8 -7 -15
-17z"/>
<path d="M133 2283 c-14 -5 -2 -155 14 -180 18 -27 30 -24 15 3 -13 23 3 58
21 47 21 -13 79 -10 84 4 3 8 21 13 44 13 22 0 39 5 39 11 0 7 7 8 18 4 37
-16 81 -22 93 -14 10 6 15 1 19 -18 6 -32 24 -32 25 0 0 19 5 22 43 22 64 0
53 22 -14 27 -31 1 -58 0 -60 -3 -2 -4 -21 -5 -41 -3 -21 2 -47 5 -58 6 -11 1
-23 7 -27 12 -4 6 -8 0 -8 -13 0 -19 -4 -22 -22 -18 -12 4 -36 0 -52 -8 -22
-11 -44 -13 -76 -7 -45 8 -45 8 -45 50 0 23 2 42 5 43 86 17 89 16 96 -4 4
-12 9 -15 13 -9 4 6 23 9 44 7 20 -1 37 1 37 6 0 5 -17 9 -38 9 -21 0 -42 3
-46 8 -7 6 -105 11 -123 5z"/>
<path d="M259 2213 c-13 -16 -12 -17 4 -4 9 7 17 15 17 17 0 8 -8 3 -21 -13z"/>
<path d="M420 2220 c-13 -8 -12 -10 3 -10 9 0 17 5 17 10 0 12 -1 12 -20 0z"/>
<path d="M207 2206 c-16 -13 -16 -14 -1 -20 20 -8 27 -3 22 18 -2 12 -6 13
-21 2z"/>
<path d="M4520 2206 c0 -8 5 -18 10 -21 6 -3 10 -15 10 -26 0 -14 -7 -19 -30
-19 -39 0 -39 -19 0 -27 26 -5 30 -10 28 -32 -3 -25 -1 -26 46 -23 58 3 63 6
46 27 -17 20 3 45 36 45 13 0 24 5 24 10 0 6 -13 9 -28 8 -38 -3 -52 8 -52 41
0 26 -3 28 -45 29 -33 2 -45 -2 -45 -12z m78 -39 c3 -22 -1 -27 -18 -27 -26 0
-37 25 -20 45 18 22 34 13 38 -18z m2 -62 c0 -8 -9 -15 -20 -15 -20 0 -26 11
-13 23 12 13 33 7 33 -8z"/>
<path d="M3778 1373 c-10 -2 -18 -13 -18 -24 0 -11 -14 -32 -30 -46 -17 -14
-28 -28 -25 -31 3 -3 18 7 34 22 25 24 32 26 50 17 28 -15 27 -22 -9 -56 -16
-16 -28 -31 -25 -34 3 -2 20 10 39 28 31 30 34 31 50 16 23 -24 20 -35 -24
-83 -38 -43 -40 -44 -70 -31 -16 8 -30 18 -30 24 0 6 -9 16 -20 23 -11 7 -20
19 -20 28 0 14 -3 14 -15 4 -8 -7 -15 -9 -15 -5 0 4 -6 2 -13 -4 -8 -6 -17 -8
-20 -4 -4 3 -7 2 -7 -3 0 -5 15 -18 33 -28 17 -11 52 -38 77 -62 25 -23 58
-54 75 -69 29 -26 29 -27 12 -56 -15 -27 -15 -30 -1 -36 22 -8 34 7 64 86 18
46 23 68 14 64 -7 -3 -16 -13 -19 -24 -7 -22 -18 -24 -37 -6 -7 7 -21 16 -32
20 -15 6 -16 10 -5 23 10 12 25 15 63 11 27 -2 71 1 98 8 27 8 52 13 56 13 4
0 17 18 29 41 12 23 19 41 15 39 -4 -2 -28 -14 -54 -28 -26 -13 -51 -21 -55
-17 -3 4 2 24 12 45 11 20 21 40 23 45 2 4 -8 7 -23 7 -19 0 -26 -4 -22 -14 3
-7 1 -33 -5 -56 -13 -51 -36 -63 -97 -51 -2 1 15 21 38 46 22 24 41 47 41 51
0 4 -20 24 -45 46 -25 22 -45 46 -45 54 0 14 -10 16 -42 7z"/>
<path d="M792 1340 c-15 -14 -35 -20 -67 -20 -51 0 -62 -14 -13 -18 51 -4 67
-42 18 -42 -16 0 -30 -5 -30 -11 0 -5 -5 -7 -10 -4 -6 4 -31 9 -56 12 -36 3
-45 1 -42 -9 6 -18 91 -19 148 -2 45 14 80 11 80 -6 0 -15 -49 -43 -64 -37
-16 7 -41 -17 -32 -31 8 -13 56 -2 88 19 32 23 48 24 48 3 0 -10 7 -14 18 -12
9 2 16 10 14 16 -12 60 -12 81 4 96 20 20 18 23 -21 30 -17 3 -24 3 -17 0 16
-8 15 -36 -2 -59 -13 -18 -14 -18 -46 1 -42 24 -50 44 -17 44 14 0 28 7 31 17
11 27 -8 35 -32 13z"/>
<path d="M1240 1335 c-7 -8 -19 -15 -26 -15 -8 0 -14 -7 -14 -16 0 -9 5 -13
13 -10 6 3 19 9 29 12 9 3 18 14 21 25 6 23 -6 25 -23 4z"/>
<path d="M1306 1327 c3 -8 16 -20 30 -27 23 -13 34 -40 15 -40 -6 0 -24 -20
-42 -45 -31 -43 -33 -45 -56 -30 -13 9 -23 11 -23 5 0 -5 4 -10 10 -10 5 0 38
-27 73 -60 36 -33 67 -60 70 -60 4 0 11 8 16 19 8 14 4 24 -22 47 -17 16 -25
20 -16 9 9 -11 19 -26 24 -34 12 -21 -34 -3 -64 26 l-26 24 39 36 38 35 49
-48 c43 -42 47 -50 34 -60 -14 -10 -14 -12 1 -18 21 -8 24 -5 30 33 4 25 2 31
-14 31 -10 0 -36 15 -58 34 -32 28 -36 35 -22 41 15 6 14 9 -5 31 -30 35 -88
78 -81 61z"/>
<path d="M1490 1291 c0 -5 5 -13 10 -16 6 -3 10 -2 10 4 0 5 -4 13 -10 16 -5
3 -10 2 -10 -4z"/>
<path d="M1525 1260 c3 -5 11 -10 16 -10 6 0 7 5 4 10 -3 6 -11 10 -16 10 -6
0 -7 -4 -4 -10z"/>
<path d="M1150 1221 c-39 -47 -90 -64 -160 -55 -29 4 -50 3 -50 -3 0 -5 10 -9
23 -10 12 0 45 -3 74 -6 34 -3 60 0 78 9 19 10 32 11 40 4 6 -5 15 -6 20 -2 4
4 6 -2 3 -13 -2 -11 -16 -26 -31 -33 -15 -7 -27 -17 -27 -22 0 -11 80 -34 88
-25 3 3 -4 8 -16 12 -24 6 -28 23 -10 41 14 14 48 -2 48 -24 0 -9 5 -12 12 -8
7 5 2 16 -18 34 -47 43 -72 74 -53 68 17 -7 45 44 34 62 -11 17 -22 11 -55
-29z"/>
<path d="M1575 1220 c17 -11 40 -27 53 -36 12 -9 22 -13 22 -8 -1 12 -77 64
-93 64 -6 0 2 -9 18 -20z"/>
<path d="M1430 1221 c0 -10 22 -31 32 -31 17 0 7 28 -12 33 -11 3 -20 2 -20
-2z"/>
<path d="M4081 1188 c-5 -13 -21 -35 -35 -50 l-27 -26 45 -42 c52 -48 76 -90
76 -132 0 -15 5 -28 10 -28 10 0 9 16 -6 85 l-6 30 29 -27 c31 -30 46 -35 41
-15 -2 6 7 27 20 44 24 34 21 55 -12 83 -13 10 -19 9 -36 -11 -14 -18 -19 -20
-20 -8 0 8 11 25 25 37 14 13 23 28 19 34 -4 7 -12 1 -20 -14 -7 -14 -20 -28
-28 -31 -19 -8 -32 11 -18 25 14 14 -13 68 -34 68 -8 0 -18 -10 -23 -22z m39
-31 c0 -8 -11 -24 -25 -37 -19 -18 -28 -21 -37 -12 -9 9 -6 18 12 37 25 27 50
33 50 12z m6 -58 c8 -14 -18 -31 -30 -19 -9 9 0 30 14 30 5 0 12 -5 16 -11z
m94 -34 c10 -13 10 -19 -5 -35 -20 -22 -24 -23 -43 -11 -10 6 -11 13 -1 34 14
30 31 34 49 12z m-70 -10 c0 -8 -6 -15 -14 -15 -17 0 -28 14 -19 24 12 12 33
6 33 -9z"/>
<path d="M1207 1169 c7 -7 15 -10 18 -7 3 3 -2 9 -12 12 -14 6 -15 5 -6 -5z"/>
<path d="M1389 1151 c19 -17 37 -31 39 -31 10 0 -33 42 -53 52 -11 6 -5 -4 14
-21z"/>
<path d="M988 1114 c-3 -3 -31 -6 -63 -6 -31 -1 -59 -6 -62 -11 -8 -14 116 -2
130 12 6 6 9 11 6 11 -3 0 -8 -3 -11 -6z"/>
<path d="M1275 1108 c3 -8 18 -24 33 -35 40 -29 61 -38 32 -13 -14 11 -35 30
-48 42 -14 12 -20 15 -17 6z"/>
<path d="M1053 1095 c9 -7 17 -18 17 -25 0 -17 13 -4 16 14 1 8 -10 16 -24 19
-24 5 -25 4 -9 -8z"/>
<path d="M966 1066 c8 -21 -12 -29 -71 -27 -50 1 -54 -1 -88 -42 -19 -23 -56
-64 -82 -92 -28 -30 -42 -51 -35 -53 7 -3 46 30 86 72 40 42 75 72 78 67 4 -5
-5 -22 -19 -37 -14 -15 -25 -31 -25 -35 0 -5 -6 -9 -14 -9 -8 0 -16 -7 -20
-15 -9 -25 14 -17 42 15 23 26 34 30 75 30 l48 0 -7 -50 c-6 -47 -5 -50 15
-50 18 0 20 3 11 19 -5 11 -10 38 -10 61 l0 41 -51 -6 c-36 -5 -49 -3 -45 4 4
6 13 11 21 11 8 0 17 5 20 11 4 6 0 9 -11 7 -13 -2 -20 4 -22 19 -3 20 1 22
46 21 27 0 59 5 70 11 15 8 23 7 32 -4 10 -12 7 -17 -16 -26 -16 -7 -35 -11
-41 -10 -7 1 -13 -3 -13 -9 0 -15 52 -12 74 5 25 19 36 19 36 0 0 -8 10 -19
22 -26 19 -10 20 -9 13 7 -4 11 -10 27 -12 37 -3 9 -13 17 -22 17 -9 0 -33 11
-53 25 -23 15 -35 20 -32 11z"/>
<path d="M1229 1037 c12 -53 29 -76 68 -92 20 -8 38 -14 40 -12 2 3 -10 19
-27 37 -16 18 -30 36 -30 40 0 9 51 0 66 -12 8 -5 14 -3 18 7 3 8 1 15 -5 15
-6 0 -25 10 -42 22 -21 15 -32 18 -35 10 -5 -17 -29 -15 -36 3 -11 29 -24 15
-17 -18z"/>
<path d="M3900 1011 c-15 -29 -13 -50 3 -29 11 14 19 15 56 5 35 -9 44 -9 51
3 16 25 12 28 -35 22 -30 -3 -45 -1 -45 7 0 18 -18 13 -30 -8z"/>
<path d="M4257 985 c3 -21 0 -35 -6 -35 -6 0 -11 6 -11 12 0 7 -12 0 -27 -15
l-28 -27 75 -72 c46 -44 76 -66 78 -58 3 7 -2 18 -10 24 -61 46 -116 100 -111
112 7 18 33 18 33 0 0 -8 9 -21 20 -29 11 -8 17 -17 14 -20 -16 -16 28 -18 45
-2 18 15 20 15 29 -2 7 -11 7 -24 1 -38 -7 -13 -1 -10 16 9 15 16 22 32 18 35
-22 15 -21 40 3 55 27 18 32 46 9 46 -8 0 -15 -4 -15 -9 0 -5 -19 -8 -42 -6
-23 2 -48 0 -54 -6 -7 -6 -15 -6 -18 -1 -8 13 25 41 52 45 45 7 33 17 -20 17
l-56 0 5 -35z m58 -56 c-10 -15 15 -10 31 6 24 23 40 18 18 -6 -33 -36 -53
-43 -75 -23 -18 16 -18 18 -2 30 19 13 37 9 28 -7z"/>
<path d="M3960 958 c-1 -12 -44 -68 -53 -68 -3 0 -8 16 -11 35 -5 22 -13 35
-23 35 -10 0 -13 -5 -8 -17 14 -34 22 -78 19 -108 l-3 -30 14 32 c31 67 53 55
45 -26 -5 -55 -4 -60 16 -65 12 -3 24 -15 27 -27 3 -11 15 -23 26 -26 12 -3
21 -9 21 -13 0 -5 15 -25 33 -47 30 -36 67 -55 67 -35 0 5 9 12 20 15 11 3 25
19 31 36 7 20 18 31 30 31 10 0 20 3 20 8 10 62 1 112 -21 112 -5 0 -25 -16
-43 -36 -29 -32 -34 -34 -46 -20 -11 13 -6 21 30 55 24 22 40 43 36 47 -4 4
-13 -1 -21 -11 -11 -15 -17 -17 -28 -7 -8 6 -18 9 -21 6 -3 -4 -9 5 -12 19 -7
28 -37 46 -44 26 -2 -6 -12 -20 -23 -31 -18 -18 -18 -19 9 -43 16 -13 31 -25
36 -25 4 0 7 -9 7 -19 0 -11 5 -23 10 -26 6 -4 9 -22 6 -41 -3 -35 15 -45 20
-10 5 33 14 30 14 -5 0 -65 -15 -69 -63 -19 -23 25 -55 55 -71 68 -19 14 -26
26 -20 32 6 6 26 -5 53 -31 31 -28 47 -37 55 -29 12 12 -3 44 -23 46 -6 1 -18
2 -26 3 -9 0 -20 12 -25 26 -11 29 -22 31 -40 10 -22 -27 -27 -16 -26 60 2 78
17 115 36 85 5 -8 10 -25 10 -37 0 -13 5 -23 10 -23 16 0 11 30 -11 66 -21 35
-39 44 -39 22z m120 -116 c0 -13 -12 -22 -22 -16 -10 6 -1 24 13 24 5 0 9 -4
9 -8z m21 -35 c-13 -13 -26 -3 -16 12 3 6 11 8 17 5 6 -4 6 -10 -1 -17z m84
-88 c-9 -26 -13 -49 -14 -68 -1 -11 -4 -12 -12 -4 -7 7 -8 19 -4 30 5 10 7 22
6 27 -3 15 8 36 19 36 7 0 9 -8 5 -21z m29 -14 c-4 -8 -10 -13 -15 -10 -4 3
-6 12 -3 20 4 8 10 13 15 10 4 -3 6 -12 3 -20z"/>
<path d="M1189 911 c-25 -26 -61 -55 -80 -64 -21 -10 -27 -17 -16 -17 10 0 36
9 58 21 32 16 44 18 55 8 19 -16 18 -29 -4 -29 -11 0 -27 -9 -38 -21 -19 -21
-19 -21 21 -55 l40 -33 24 23 c23 24 22 46 -3 46 -8 0 -13 -8 -12 -17 1 -22
-24 -27 -49 -9 -17 12 -17 16 -6 30 8 9 20 15 28 12 7 -3 13 1 13 9 0 8 7 15
15 15 8 0 15 5 15 10 0 6 9 10 19 10 11 0 23 -4 26 -10 9 -14 21 -12 39 6 22
22 20 31 -11 42 -16 5 -42 23 -58 40 l-30 30 -46 -47z m104 -19 c21 -23 5 -41
-18 -22 -12 10 -15 10 -15 1 0 -21 -54 -8 -58 13 -3 16 0 18 24 12 23 -6 26
-5 16 7 -7 8 -9 17 -6 20 9 8 35 -6 57 -31z"/>
<path d="M880 926 c0 -3 9 -10 20 -16 11 -6 20 -8 20 -6 0 3 -9 10 -20 16 -11
6 -20 8 -20 6z"/>
<path d="M4396 905 c-6 -17 3 -25 30 -25 25 0 40 15 24 25 -21 13 -49 13 -54
0z"/>
<path d="M858 898 c18 -18 14 -27 -10 -23 -18 4 -15 -2 17 -35 21 -21 42 -37
47 -34 5 3 -3 15 -18 27 l-27 21 21 16 21 17 -25 12 c-32 14 -41 14 -26 -1z"/>
<path d="M788 858 c20 -20 14 -30 -15 -28 -47 3 -47 1 3 -33 28 -19 50 -43 52
-55 2 -13 8 -19 18 -15 23 8 16 43 -10 53 -28 10 -40 26 -31 40 4 7 13 6 27
-1 16 -9 19 -8 16 3 -2 7 -14 17 -26 23 -12 5 -22 13 -22 17 0 5 -5 8 -12 8
-9 0 -9 -3 0 -12z"/>
<path d="M3710 850 c-13 -24 -13 -33 1 -25 17 11 69 -16 69 -36 0 -22 -47 -72
-61 -64 -5 4 -9 21 -9 40 0 20 -6 35 -15 39 -12 4 -14 0 -9 -22 4 -15 11 -36
17 -47 6 -11 10 -21 9 -22 -10 -14 2 -21 17 -11 29 18 53 -6 50 -51 -3 -51 2
-70 10 -41 4 14 3 43 -1 65 -14 65 -14 70 2 70 8 0 19 -15 25 -32 6 -22 15
-33 28 -33 10 0 15 5 12 11 -4 5 -8 21 -10 34 -1 14 -12 33 -25 43 -20 16 -21
19 -6 31 25 21 19 31 -19 31 -22 0 -43 8 -55 20 -19 19 -20 19 -30 0z"/>
<path d="M4478 828 c-12 -18 -42 -51 -65 -73 -47 -44 -52 -55 -25 -55 21 0
152 127 152 147 0 25 -39 13 -62 -19z"/>
<path d="M2618 816 c-3 -29 -5 -31 -40 -28 l-37 3 4 -61 c2 -33 1 -60 -3 -61
-4 0 -17 -2 -29 -5 -13 -2 -23 -1 -24 4 0 4 -2 15 -4 25 -3 14 32 46 43 39 1
-1 5 -2 10 -2 4 0 0 5 -8 10 -8 5 -23 7 -32 4 -15 -4 -18 1 -18 25 0 17 0 34
1 37 1 11 -23 22 -36 18 -8 -4 -11 -20 -7 -50 4 -43 4 -44 -24 -44 -34 0 -61
-14 -46 -24 6 -3 21 -2 35 3 30 12 37 6 37 -30 0 -25 -5 -29 -42 -36 -27 -6
-43 -14 -43 -23 0 -21 47 -16 122 14 60 23 62 24 68 5 8 -23 18 -24 35 -4 7 8
21 15 33 15 17 0 19 -5 14 -46 -4 -38 -2 -45 12 -42 11 2 17 16 19 47 l3 44
44 -6 c56 -8 62 1 55 89 -4 54 -8 68 -22 70 -10 1 -20 -2 -24 -7 -3 -5 -16 -9
-30 -9 -22 0 -28 9 -25 36 1 7 -8 14 -18 17 -16 4 -20 -1 -23 -27z m89 -52 c8
-21 -11 -37 -35 -30 -14 5 -18 13 -15 26 6 24 41 27 50 4z m-89 -17 c2 -12 -3
-17 -17 -17 -15 0 -21 6 -21 21 0 25 33 22 38 -4z m92 -52 c0 -20 -5 -25 -24
-25 -27 0 -40 22 -23 39 21 21 47 13 47 -14z m-87 -4 c3 -12 -1 -22 -10 -25
-20 -8 -33 1 -33 25 0 25 36 25 43 0z"/>
<path d="M1265 810 c3 -5 16 -10 28 -9 21 0 21 1 2 9 -28 12 -37 12 -30 0z"/>
<path d="M880 792 c0 -10 22 -32 32 -32 15 0 8 15 -12 28 -11 7 -20 9 -20 4z"/>
<path d="M1033 758 c-17 -24 -49 -62 -72 -85 -23 -23 -41 -43 -41 -45 0 -2 24
-1 54 0 43 3 55 8 59 23 8 30 40 22 82 -21 38 -38 65 -51 65 -30 0 6 -7 10
-15 10 -23 0 -18 13 19 56 l33 39 -31 23 -31 23 -32 -37 c-21 -23 -38 -34 -48
-31 -24 10 -17 35 15 52 32 16 38 33 18 53 -22 22 -44 13 -75 -30z m72 1 c-4
-5 -12 -9 -19 -9 -15 0 -33 -18 -38 -38 -5 -20 -54 -72 -68 -72 -18 0 -6 23
47 89 39 50 50 58 65 50 10 -6 16 -14 13 -20z m75 -46 c0 -8 -5 -13 -12 -11
-18 6 -21 25 -3 25 8 0 15 -7 15 -14z m-17 -20 c9 -9 -13 -34 -24 -27 -14 8
-11 34 4 34 8 0 17 -3 20 -7z m-33 -38 c10 -12 10 -15 -4 -15 -9 0 -16 7 -16
15 0 8 2 15 4 15 2 0 9 -7 16 -15z"/>
<path d="M713 739 c31 -28 62 -59 67 -68 8 -14 9 -13 9 4 0 12 -23 39 -59 68
-78 63 -90 60 -17 -4z"/>
<path d="M557 743 c-12 -11 -8 -23 8 -23 8 0 15 -4 15 -8 0 -4 12 -15 28 -24
15 -9 50 -39 77 -67 28 -28 53 -51 58 -51 4 0 7 11 7 25 0 19 -5 25 -22 25
-14 0 -49 25 -92 65 -75 71 -70 68 -79 58z"/>
<path d="M4266 678 c-9 -5 -16 -15 -16 -22 0 -8 -16 -26 -35 -40 -33 -26 -45
-46 -26 -46 15 0 121 92 121 105 0 14 -22 15 -44 3z"/>
<path d="M1044 633 c1 -15 -10 -19 -54 -24 l-55 -6 56 -1 c57 -2 89 14 74 38
-10 16 -23 12 -21 -7z"/>
<path d="M4360 615 c-7 -8 -9 -15 -5 -15 4 0 -4 -11 -19 -25 -15 -14 -30 -25
-34 -25 -4 0 -27 -20 -51 -45 -32 -33 -42 -48 -34 -56 12 -12 53 -3 53 11 0
11 81 94 113 115 31 20 36 55 8 55 -10 0 -24 -7 -31 -15z"/>
<path d="M1086 606 c4 -11 -7 -16 -53 -21 -84 -9 -89 -16 -10 -11 48 3 67 0
64 -8 -2 -6 -17 -13 -32 -16 -34 -6 -39 -24 -8 -28 12 -2 31 6 42 17 12 12 28
21 36 21 24 0 18 17 -15 40 -21 15 -28 17 -24 6z"/>
<path d="M908 588 c6 -6 18 -8 28 -6 14 3 12 5 -9 10 -19 3 -25 2 -19 -4z"/>
<path d="M840 571 c0 -5 12 -16 26 -26 14 -9 52 -43 84 -76 55 -55 60 -58 69
-40 17 30 13 41 -13 41 -13 0 -26 3 -28 8 -4 9 -124 102 -132 102 -3 0 -6 -4
-6 -9z"/>
<path d="M2396 523 c-19 -26 -34 -48 -33 -49 1 -1 25 3 53 9 45 9 54 8 69 -6
16 -17 55 -24 55 -9 0 4 -21 19 -46 34 -25 16 -43 32 -40 37 3 5 -1 14 -8 21
-12 9 -21 3 -50 -37z m52 -6 c3 -12 -4 -17 -22 -17 -29 0 -32 5 -13 25 15 18
31 14 35 -8z"/>
<path d="M2800 560 c0 -5 -7 -10 -15 -10 -8 0 -15 -4 -15 -10 0 -5 7 -7 15 -4
10 4 15 0 15 -15 0 -15 -7 -21 -25 -22 -14 -1 -35 -2 -47 -2 -14 -1 -24 5 -26
16 -2 12 3 17 19 17 32 0 18 9 -20 14 -31 3 -33 2 -28 -23 9 -46 -13 -144 -39
-178 -14 -18 -21 -33 -16 -33 11 0 55 62 73 103 10 21 19 27 36 25 31 -4 31
-22 0 -26 -20 -2 -24 -9 -25 -37 -1 -35 10 -51 28 -40 7 4 7 13 0 24 -13 26 6
41 53 41 31 0 38 -3 35 -17 -2 -12 -16 -20 -38 -23 l-35 -6 40 -6 c48 -6 51
-4 59 46 7 37 6 38 -16 32 -53 -16 -59 -15 -56 2 3 18 6 19 68 21 31 1 38 4
33 17 -3 10 -11 13 -22 8 -26 -11 -64 -10 -68 2 -2 7 7 14 20 18 23 5 43 49
30 68 -6 12 -33 10 -33 -2z m-52 -92 c-3 -7 -13 -13 -23 -13 -10 0 -20 6 -22
13 -3 7 5 12 22 12 17 0 25 -5 23 -12z"/>
<path d="M2326 542 c-3 -6 -18 -8 -32 -6 -24 4 -26 2 -19 -18 7 -24 12 -79 14
-160 1 -37 5 -48 17 -48 13 0 15 7 10 34 -7 37 7 57 27 37 6 -6 19 -11 29 -11
26 0 22 -19 -7 -30 -14 -5 -25 -15 -25 -21 0 -7 7 -8 18 -4 9 5 37 11 62 15
30 5 36 8 18 9 -16 0 -28 5 -28 10 0 13 26 32 33 24 4 -3 7 -1 7 6 0 8 -15 10
-49 7 l-49 -4 0 33 c0 19 -3 38 -6 44 -3 5 -1 21 6 36 9 21 9 29 -4 41 -10 10
-18 12 -22 6z m1 -47 c-15 -16 -22 -11 -13 10 3 9 10 13 16 10 6 -4 5 -11 -3
-20z m3 -55 c4 -27 0 -41 -9 -35 -5 3 -9 19 -9 36 1 29 14 29 18 -1z"/>
<path d="M2393 459 c-14 -6 -12 -8 10 -8 34 -1 32 -22 -4 -33 -16 -4 -4 -6 33
-6 32 1 63 5 70 10 9 6 3 8 -17 6 -26 -3 -30 0 -27 19 3 19 -1 23 -22 21 -13
-1 -33 -5 -43 -9z"/>
<path d="M2485 391 c-16 -3 -25 -9 -20 -12 6 -4 26 -1 45 7 37 13 25 16 -25 5z"/>
<path d="M2498 335 c9 -13 21 -20 26 -15 11 11 1 26 -24 33 -19 5 -19 4 -2
-18z"/>
<path d="M2801 307 c-7 -17 -20 -26 -44 -31 -19 -4 -38 -13 -41 -21 -7 -18
-27 -20 -23 -3 1 7 11 20 22 30 11 9 16 17 10 18 -28 0 -59 -50 -50 -81 5 -15
-1 -22 -27 -33 -37 -16 -24 -28 27 -23 29 2 30 0 29 -35 -1 -26 3 -38 12 -38
8 0 14 8 14 18 1 16 1 16 11 -1 11 -20 29 -14 29 10 0 8 10 27 21 41 l22 27
-6 -47 c-5 -37 -4 -48 7 -48 8 0 16 -4 18 -8 2 -5 15 -12 29 -15 35 -9 51 11
43 52 -7 36 -19 40 -34 11 -18 -33 -42 -25 -38 13 2 24 8 33 26 35 24 4 24 3
28 50 3 41 -19 39 -24 -2 -5 -37 -26 -28 -30 12 -3 26 0 32 17 33 42 3 46 4
46 19 0 16 -17 17 -47 5 -13 -5 -18 -2 -18 8 0 27 -20 29 -29 4z m9 -78 c0
-16 -4 -29 -10 -29 -5 0 -10 9 -10 19 0 11 -4 23 -10 26 -6 4 -10 -7 -10 -26
0 -27 -2 -30 -15 -19 -22 18 -18 45 8 57 31 15 47 5 47 -28z m-76 -24 c4 -11
-2 -15 -21 -15 -21 0 -24 2 -13 15 7 8 16 15 20 15 4 0 10 -7 14 -15z m36 -50
c0 -8 -9 -15 -20 -15 -11 0 -20 7 -20 15 0 8 9 15 20 15 11 0 20 -7 20 -15z"/>
<path d="M2430 305 c-6 -22 -7 -31 -8 -52 -2 -28 -32 -31 -32 -3 0 11 -5 20
-11 20 -6 0 -9 -7 -5 -15 8 -21 -4 -19 -32 8 -13 12 -23 18 -22 12 5 -24 -2
-33 -31 -39 -36 -7 -30 -27 6 -20 16 3 25 0 26 -8 0 -7 2 -23 5 -36 3 -18 -4
-27 -31 -43 -35 -21 -38 -39 -7 -39 33 0 61 29 64 67 5 64 27 51 30 -19 l3
-63 53 0 c52 -1 112 17 112 32 0 4 -5 15 -10 23 -8 13 -11 13 -22 -3 -7 -10
-27 -19 -43 -20 l-30 -2 -1 60 c-1 61 8 85 32 85 15 0 10 -65 -7 -86 -8 -9 -5
-11 10 -7 13 3 21 14 21 27 0 11 3 39 7 60 6 36 4 39 -13 32 -47 -20 -52 -19
-57 11 -2 15 -5 24 -7 18z m-55 -85 c3 -5 -1 -10 -10 -10 -9 0 -13 5 -10 10 3
6 8 10 10 10 2 0 7 -4 10 -10z m45 -48 c0 -55 -16 -73 -22 -26 -3 22 -3 47 0
56 7 29 22 9 22 -30z"/>
<path d="M2637 117 c-37 -32 -46 -47 -27 -47 13 0 80 60 80 71 0 16 -14 9 -53
-24z"/>
</g>
</svg>
