<?xml version="1.0" standalone="no"?>
<!DOCTYPE svg PUBLIC "-//W3C//DTD SVG 20010904//EN"
 "http://www.w3.org/TR/2001/REC-SVG-20010904/DTD/svg10.dtd">
<svg version="1.0" xmlns="http://www.w3.org/2000/svg"
 width="250.000000pt" height="250.000000pt" viewBox="0 0 250.000000 250.000000"
 preserveAspectRatio="xMidYMid meet">

<g transform="translate(0.000000,250.000000) scale(0.100000,-0.100000)"
fill="#000000" stroke="none">
<path d="M1020 2315 l0 -35 230 0 230 0 0 35 0 35 -230 0 -230 0 0 -35z"/>
<path d="M1020 2185 l0 -35 230 0 230 0 0 35 0 35 -230 0 -230 0 0 -35z"/>
<path d="M567 2122 c-31 -32 -57 -62 -57 -68 0 -6 9 -19 20 -29 21 -19 22 -18
87 48 66 65 67 66 48 87 -10 11 -23 20 -29 20 -7 0 -37 -26 -69 -58z"/>
<path d="M1835 2160 c-19 -21 -17 -23 143 -182 159 -160 161 -162 182 -143 11
10 20 23 20 29 0 14 -302 316 -316 316 -6 0 -19 -9 -29 -20z"/>
<path d="M563 1931 c-84 -85 -153 -158 -153 -162 0 -3 9 -14 20 -24 21 -19 23
-17 182 143 160 159 162 161 143 182 -10 11 -23 19 -29 18 -6 0 -80 -71 -163
-157z"/>
<path d="M1027 2084 c-4 -4 -7 -20 -7 -36 l0 -28 231 0 230 0 -3 33 -3 32
-221 3 c-121 1 -223 -1 -227 -4z"/>
<path d="M1745 2070 c-19 -21 -17 -23 143 -182 159 -160 161 -162 182 -143 11
10 20 21 20 24 0 9 -312 321 -321 321 -3 0 -14 -9 -24 -20z"/>
<path d="M655 1840 c-157 -157 -159 -159 -140 -180 10 -11 23 -20 29 -20 14 0
316 302 316 316 0 10 -31 44 -41 44 -2 0 -76 -72 -164 -160z"/>
<path d="M1657 1982 c-10 -10 -17 -23 -17 -28 0 -13 113 -124 126 -124 6 0 19
9 29 20 18 20 18 22 -45 85 -36 36 -67 65 -71 65 -3 0 -13 -8 -22 -18z"/>
<path d="M377 1932 c-31 -32 -57 -62 -57 -68 0 -6 9 -19 20 -29 21 -19 22 -18
87 48 66 65 67 66 48 87 -10 11 -23 20 -29 20 -7 0 -37 -26 -69 -58z"/>
<path d="M1175 1843 c-232 -31 -432 -205 -501 -438 -24 -81 -24 -229 0 -310
78 -262 317 -444 587 -445 74 0 196 32 272 72 81 42 203 164 245 245 70 133
88 286 52 427 -29 113 -73 190 -160 276 -137 138 -309 198 -495 173z"/>
<path d="M1847 1792 c-10 -10 -17 -23 -17 -28 0 -13 113 -124 126 -124 6 0 19
9 29 20 18 20 18 22 -45 85 -36 36 -67 65 -71 65 -3 0 -13 -8 -22 -18z"/>
<path d="M150 1250 l0 -230 35 0 35 0 0 230 0 230 -35 0 -35 0 0 -230z"/>
<path d="M280 1385 l0 -95 35 0 35 0 0 95 0 95 -35 0 -35 0 0 -95z"/>
<path d="M414 1467 c-2 -7 -3 -109 -2 -227 l3 -215 33 -3 32 -3 0 230 0 231
-30 0 c-17 0 -33 -6 -36 -13z"/>
<path d="M2080 1386 l0 -96 35 0 36 0 -3 93 -3 92 -32 3 -33 3 0 -95z"/>
<path d="M2210 1251 l0 -231 35 0 35 0 -2 228 -3 227 -32 3 -33 3 0 -230z"/>
<path d="M2340 1385 l0 -95 35 0 35 0 0 95 0 95 -35 0 -35 0 0 -95z"/>
<path d="M280 1115 l0 -95 35 0 35 0 0 95 0 95 -35 0 -35 0 0 -95z"/>
<path d="M2080 1114 l0 -95 33 3 32 3 3 93 3 92 -36 0 -35 0 0 -96z"/>
<path d="M2340 1115 l0 -95 35 0 35 0 0 95 0 95 -35 0 -35 0 0 -95z"/>
<path d="M515 840 c-19 -21 -17 -23 143 -182 159 -160 161 -162 182 -143 11
10 20 23 20 29 0 14 -302 316 -316 316 -6 0 -19 -9 -29 -20z"/>
<path d="M1887 802 c-31 -32 -57 -62 -57 -68 0 -6 9 -19 20 -29 21 -19 22 -18
87 48 66 65 67 66 48 87 -10 11 -23 20 -29 20 -7 0 -37 -26 -69 -58z"/>
<path d="M427 752 c-10 -10 -16 -23 -16 -28 1 -5 30 -36 65 -68 l65 -60 22 22
21 22 -64 65 c-35 36 -67 65 -71 65 -3 0 -13 -8 -22 -18z"/>
<path d="M1980 705 l-64 -65 21 -22 22 -22 65 60 c35 32 64 64 65 70 1 10 -30
44 -40 44 -3 0 -34 -29 -69 -65z"/>
<path d="M337 662 c-10 -10 -17 -23 -17 -28 0 -13 113 -124 126 -124 6 0 19 9
29 20 18 20 18 22 -45 85 -36 36 -67 65 -71 65 -3 0 -13 -8 -22 -18z"/>
<path d="M1975 520 c-157 -157 -159 -159 -140 -180 10 -11 23 -20 29 -20 14 0
316 302 316 316 0 10 -31 44 -41 44 -2 0 -76 -72 -164 -160z"/>
<path d="M1697 612 c-31 -32 -57 -62 -57 -68 0 -6 9 -19 20 -29 21 -19 22 -18
87 48 66 65 67 66 48 87 -10 11 -23 20 -29 20 -7 0 -37 -26 -69 -58z"/>
<path d="M615 560 c-18 -20 -17 -21 41 -84 32 -35 64 -64 70 -65 6 0 19 8 29
19 18 20 18 22 -45 85 -36 36 -67 65 -71 65 -3 0 -14 -9 -24 -20z"/>
<path d="M1790 515 c-63 -63 -63 -65 -45 -85 10 -11 21 -20 25 -20 9 0 130
121 130 130 0 7 -34 40 -41 40 -3 0 -33 -29 -69 -65z"/>
<path d="M527 472 c-10 -10 -17 -23 -17 -28 0 -13 113 -124 126 -124 6 0 19 9
29 20 18 20 18 22 -45 85 -36 36 -67 65 -71 65 -3 0 -13 -8 -22 -18z"/>
<path d="M1027 473 c-4 -3 -7 -19 -7 -35 l0 -28 95 0 95 0 0 35 0 35 -88 0
c-49 0 -92 -3 -95 -7z"/>
<path d="M1290 445 l0 -35 96 0 95 0 -3 33 -3 32 -92 3 -93 3 0 -36z"/>
<path d="M1027 344 c-4 -4 -7 -20 -7 -36 l0 -28 96 0 95 0 -3 33 -3 32 -85 3
c-47 1 -89 0 -93 -4z"/>
<path d="M1297 344 c-4 -4 -7 -20 -7 -36 l0 -28 96 0 95 0 -3 33 -3 32 -85 3
c-47 1 -89 0 -93 -4z"/>
<path d="M1027 214 c-4 -4 -7 -20 -7 -36 l0 -28 96 0 95 0 -3 33 -3 32 -85 3
c-47 1 -89 0 -93 -4z"/>
<path d="M1297 214 c-4 -4 -7 -20 -7 -36 l0 -28 96 0 95 0 -3 33 -3 32 -85 3
c-47 1 -89 0 -93 -4z"/>
</g>
</svg>
