<?xml version="1.0" standalone="no"?>
<!DOCTYPE svg PUBLIC "-//W3C//DTD SVG 20010904//EN"
 "http://www.w3.org/TR/2001/REC-SVG-20010904/DTD/svg10.dtd">
<svg version="1.0" xmlns="http://www.w3.org/2000/svg"
 width="800.000000pt" height="800.000000pt" viewBox="0 0 800.000000 800.000000"
 preserveAspectRatio="xMidYMid meet">

<g transform="translate(0.000000,800.000000) scale(0.100000,-0.100000)"
fill="#000000" stroke="none">
<path d="M1168 6830 l-1168 -1168 0 -1658 1 -1659 1168 -1172 1168 -1173 1663
0 1664 0 1167 1173 1168 1172 0 1656 1 1657 -1172 1171 -1172 1171 -1661 -1
-1660 -2 -1167 -1167z m5487 -177 l1106 -1107 -1 -1545 -1 -1544 -829 -836
c-456 -460 -950 -957 -1099 -1106 l-271 -270 -1558 0 -1557 0 -203 200 c-112
110 -608 608 -1103 1106 l-899 907 0 1538 c0 863 4 1545 9 1553 5 7 503 508
1107 1112 l1099 1099 1547 0 1547 0 1106 -1107z"/>
<path d="M2744 7517 c-3 -8 18 -68 46 -133 28 -65 61 -143 73 -171 l22 -53
1116 0 1116 0 38 93 c111 269 108 259 94 268 -8 5 -573 9 -1257 9 -1033 0
-1243 -2 -1248 -13z"/>
<path d="M2014 7004 c-203 -207 -371 -381 -373 -386 -4 -11 236 -248 251 -248
5 0 153 145 329 323 302 304 320 324 315 353 -7 50 -127 334 -141 334 -7 0
-179 -169 -381 -376z"/>
<path d="M5593 7368 c-6 -7 -22 -40 -36 -73 -85 -205 -107 -259 -107 -268 0
-13 641 -647 654 -647 14 0 246 232 246 245 0 6 -168 178 -373 383 -291 291
-376 370 -384 360z"/>
<path d="M3020 6851 c0 -9 21 -69 39 -111 5 -14 30 -72 53 -130 l44 -105 329
0 330 0 0 175 0 175 -397 3 c-227 1 -398 -2 -398 -7z"/>
<path d="M4184 6847 c-2 -7 -3 -87 -2 -177 l3 -165 328 -3 327 -2 26 57 c39
89 114 280 114 292 0 17 -789 15 -796 -2z"/>
<path d="M1979 6020 c-380 -381 -687 -696 -683 -700 12 -11 332 -140 347 -140
22 0 1177 1164 1177 1185 -1 29 -125 338 -138 343 -6 2 -322 -308 -703 -688z"/>
<path d="M5240 6533 l-72 -176 231 -231 231 -231 125 125 c69 69 125 128 125
133 0 9 -552 557 -561 557 -4 0 -39 -79 -79 -177z"/>
<path d="M990 5985 c-234 -234 -371 -378 -365 -384 9 -8 185 -84 304 -131 l53
-21 319 323 c175 177 319 327 319 333 0 10 -240 255 -250 255 -3 0 -174 -169
-380 -375z"/>
<path d="M6492 6237 c-67 -67 -122 -126 -122 -130 0 -4 144 -152 320 -327 212
-213 327 -320 340 -320 18 0 337 125 350 136 4 5 -751 764 -760 764 -3 0 -60
-55 -128 -123z"/>
<path d="M3308 6182 c-16 -6 -9 -26 53 -172 39 -91 78 -171 87 -177 12 -10
138 -13 552 -13 413 0 540 3 553 13 16 12 142 293 149 332 3 20 -6 20 -687 22
-379 1 -698 -1 -707 -5z"/>
<path d="M2451 5548 c-270 -270 -491 -495 -491 -499 0 -8 330 -149 350 -149
20 0 790 771 790 790 -1 25 -134 343 -146 347 -6 2 -232 -218 -503 -489z"/>
<path d="M4966 5864 l-70 -175 132 -132 132 -132 125 125 c69 69 124 128 122
133 -5 16 -351 357 -361 357 -6 0 -42 -79 -80 -176z"/>
<path d="M6017 5762 c-64 -64 -117 -122 -117 -127 0 -6 101 -111 223 -233
l224 -224 34 10 c44 13 312 122 322 131 9 8 -541 561 -558 561 -5 0 -63 -53
-128 -118z"/>
<path d="M3775 5591 c-237 -40 -414 -104 -605 -219 -314 -188 -577 -518 -691
-864 -60 -183 -95 -428 -84 -578 34 -432 183 -767 470 -1056 166 -167 301
-260 510 -349 211 -90 413 -130 650 -128 263 2 473 53 710 173 306 154 560
406 710 705 294 588 210 1276 -219 1777 -229 267 -573 463 -931 529 -160 29
-380 33 -520 10z m497 -95 c139 -26 261 -67 403 -136 180 -87 287 -164 422
-303 209 -215 340 -458 405 -755 32 -143 32 -453 0 -598 -68 -312 -197 -551
-416 -769 -179 -179 -330 -271 -525 -322 -134 -35 -348 -37 -466 -5 -142 39
-239 94 -336 191 -71 71 -94 102 -133 181 -25 52 -53 127 -61 165 -41 198 10
449 124 611 82 117 149 173 350 290 306 179 443 537 336 879 -31 99 -74 175
-151 266 -139 166 -387 272 -598 256 -43 -4 -77 -5 -75 -3 11 10 168 48 251
61 110 17 353 12 470 -9z m-556 -591 c205 -61 232 -334 42 -429 -179 -89 -375
67 -328 263 16 69 74 134 143 160 63 24 80 25 143 6z"/>
<path d="M4295 3540 c-107 -16 -195 -119 -195 -227 0 -42 26 -110 57 -151 52
-69 184 -103 266 -69 111 47 169 172 136 291 -10 38 -76 118 -112 137 -28 16
-107 25 -152 19z"/>
<path d="M5540 5285 l-125 -125 130 -130 c71 -72 135 -130 142 -130 11 0 132
48 301 120 28 13 52 26 52 30 0 12 -351 360 -363 360 -7 0 -68 -56 -137 -125z"/>
<path d="M475 5228 c-7 -42 -2 -2474 6 -2482 5 -5 76 22 274 106 l80 34 0
1114 0 1114 -170 73 c-93 40 -173 73 -177 73 -4 0 -10 -15 -13 -32z"/>
<path d="M7380 5206 c-69 -29 -146 -62 -173 -74 l-47 -21 2 -1112 3 -1112 174
-74 c96 -40 177 -71 180 -67 8 8 13 2327 5 2432 -3 45 -9 82 -12 81 -4 0 -63
-24 -132 -53z"/>
<path d="M1147 4973 c-4 -3 -7 -183 -7 -400 l0 -393 185 0 185 0 0 328 0 329
-27 12 c-33 15 -322 131 -326 131 -2 0 -7 -3 -10 -7z"/>
<path d="M6785 4959 c-27 -11 -105 -43 -172 -71 l-123 -50 0 -838 0 -838 179
-71 c99 -39 182 -71 185 -71 3 0 6 441 6 980 0 778 -3 980 -12 979 -7 0 -35
-9 -63 -20z"/>
<path d="M1815 4557 c-5 -123 -4 -264 4 -365 1 -10 40 -12 179 -10 l177 3 2
180 c2 99 0 185 -5 191 -4 7 -84 43 -178 82 l-172 70 -7 -151z"/>
<path d="M6120 4685 c-30 -13 -104 -45 -165 -70 -60 -26 -116 -51 -122 -57
-10 -8 -13 -59 -13 -194 l0 -184 179 0 179 0 5 53 c7 58 3 464 -4 471 -3 3
-29 -6 -59 -19z"/>
<path d="M1830 3820 c-13 -8 -15 -50 -17 -264 -1 -141 1 -257 5 -260 10 -5
345 135 354 148 4 6 8 93 8 192 0 157 -2 183 -16 188 -26 10 -318 7 -334 -4z"/>
<path d="M5832 3822 c-9 -7 -12 -52 -10 -193 l3 -184 40 -19 c99 -47 300 -126
311 -122 8 3 12 69 12 251 0 203 -3 248 -15 260 -11 12 -47 15 -171 15 -86 0
-163 -4 -170 -8z"/>
<path d="M1147 3814 c-10 -11 -9 -782 2 -788 4 -3 88 26 185 65 l176 71 -2
327 -3 326 -176 3 c-96 1 -178 -1 -182 -4z"/>
<path d="M2137 3033 c-98 -42 -176 -80 -175 -84 9 -22 991 -1000 998 -993 9 9
140 339 140 352 0 4 -177 186 -393 405 l-392 397 -178 -77z"/>
<path d="M5292 2707 c-215 -215 -392 -397 -392 -402 0 -14 131 -338 141 -349
6 -7 988 971 997 994 3 8 -321 150 -341 150 -7 0 -189 -177 -405 -393z"/>
<path d="M1470 2759 c-80 -32 -156 -63 -169 -69 -24 -11 -14 -22 260 -296 156
-156 288 -284 294 -284 6 0 66 56 135 125 l125 125 -230 230 c-150 149 -238
230 -250 229 -11 0 -85 -27 -165 -60z"/>
<path d="M5767 2243 c-318 -318 -582 -585 -586 -593 -6 -10 15 -74 60 -185 38
-93 69 -171 69 -172 0 -2 5 -3 12 -3 17 0 1399 1383 1390 1391 -11 11 -335
139 -351 139 -9 0 -276 -260 -594 -577z"/>
<path d="M796 2477 c-93 -40 -171 -77 -173 -83 -5 -14 741 -744 760 -744 17 0
247 220 247 235 0 14 -643 666 -655 665 -5 -1 -86 -34 -179 -73z"/>
<path d="M6238 1773 c-428 -428 -781 -786 -784 -795 -5 -17 118 -322 140 -345
9 -10 212 188 901 877 489 489 886 892 883 895 -7 7 -345 145 -356 145 -4 0
-357 -350 -784 -777z"/>
<path d="M3436 2158 c-8 -13 -44 -94 -80 -181 -45 -109 -61 -159 -53 -163 7
-2 125 -3 262 -2 l250 3 3 183 2 182 -185 0 c-180 0 -185 -1 -199 -22z"/>
<path d="M4184 2167 c-2 -7 -3 -89 -2 -182 l3 -170 263 -3 c144 -1 262 -1 262
1 0 3 -48 121 -109 266 -17 41 -36 80 -42 88 -16 19 -367 19 -375 0z"/>
<path d="M2230 1975 l-125 -125 240 -241 c285 -285 333 -328 346 -308 18 29
129 317 129 335 0 20 -436 464 -455 464 -6 0 -66 -56 -135 -125z"/>
<path d="M1764 1510 c-65 -67 -121 -126 -123 -132 -4 -12 739 -758 755 -758
12 0 144 317 144 345 0 21 -626 666 -646 665 -6 0 -64 -54 -130 -120z"/>
<path d="M3156 1488 c-25 -40 -148 -339 -142 -346 8 -7 1964 -8 1971 0 6 6
-117 307 -141 346 l-14 22 -830 0 -830 0 -14 -22z"/>
<path d="M2880 820 c-19 -36 -140 -321 -140 -331 0 -5 215 -8 538 -7 l537 3 0
175 0 175 -462 3 c-456 2 -462 2 -473 -18z"/>
<path d="M4175 787 c-4 -29 -4 -104 -1 -167 3 -63 5 -121 6 -127 0 -10 115
-13 541 -13 l540 0 -6 23 c-4 12 -37 92 -74 177 l-67 155 -466 3 -467 2 -6
-53z"/>
</g>
</svg>
