<?xml version="1.0" encoding="UTF-8"?>
<svg version="1.1" xmlns="http://www.w3.org/2000/svg" width="330" height="548">
<path d="M0 0 C3.25102503 0.27091875 4.64560719 0.61016791 6.875 3.0625 C7.57625 4.031875 8.2775 5.00125 9 6 C10.09618064 7.23629395 11.20117827 8.46479859 12.3125 9.6875 C16.28167639 14.18074513 19.65227993 19.03438482 23 24 C23.33 22.35 23.66 20.7 24 19 C25.32 19 26.64 19 28 19 C29.23828125 20.46875 29.23828125 20.46875 30.3125 22.5 C32.99736952 27.19852165 36.34109327 31.03530567 40 35 C40.33773437 34.4225 40.67546875 33.845 41.0234375 33.25 C41.69246094 32.13625 41.69246094 32.13625 42.375 31 C43.03628906 29.88625 43.03628906 29.88625 43.7109375 28.75 C44.13632813 28.1725 44.56171875 27.595 45 27 C45.66 27 46.32 27 47 27 C47.17015625 26.30132812 47.3403125 25.60265625 47.515625 24.8828125 C47.75796875 23.97273438 48.0003125 23.06265625 48.25 22.125 C48.48203125 21.22007812 48.7140625 20.31515625 48.953125 19.3828125 C50 17 50 17 54 15 C54 17.97 54 20.94 54 24 C54.66 24.33 55.32 24.66 56 25 C57.96818336 19.17745757 59.40214229 14.16618181 59 8 C59.66 8 60.32 8 61 8 C61.33 6.35 61.66 4.7 62 3 C62.66 3 63.32 3 64 3 C64 2.34 64 1.68 64 1 C64.99 1 65.98 1 67 1 C66.7215625 2.8253125 66.7215625 2.8253125 66.4375 4.6875 C66.01006818 8.02977939 66.07741117 10.71968417 67 14 C67.66 14 68.32 14 69 14 C69.495 18.455 69.495 18.455 70 23 C70.99 20.69 71.98 18.38 73 16 C73.66 16 74.32 16 75 16 C75 15.34 75 14.68 75 14 C75.66 14 76.32 14 77 14 C76.34 18.95 75.68 23.9 75 29 C79.12541249 26.93729376 79.75407381 26.22621774 81.35546875 22.1328125 C82.08172763 19.72955585 82.51289635 17.34877779 82.9375 14.875 C83.74191812 10.60639418 84.60822274 7.93342898 88 5 C91.75 3.6875 91.75 3.6875 95 3 C95 3.99 95 4.98 95 6 C94.21625 6.45375 93.4325 6.9075 92.625 7.375 C89.42629185 9.35515266 89.13016291 10.47949252 88 14 C87.71075978 15.86934884 87.46278346 17.74541276 87.25 19.625 C86.14163569 26.59308882 83.77499053 33.83650901 78.19140625 38.515625 C77.01097773 39.27719179 75.81857353 40.02061562 74.61328125 40.7421875 C71.62444163 43.07246923 70.3770525 46.55309219 69 50 C71.31 50.66 73.62 51.32 76 52 C76 52.99 76 53.98 76 55 C74.72125 55.0825 73.4425 55.165 72.125 55.25 C69.94666582 55.45869931 69.94666582 55.45869931 68 56 C66.4100567 57.92064793 66.4100567 57.92064793 66 60 C67.98 60.495 67.98 60.495 70 61 C70 61.66 70 62.32 70 63 C69.34 63 68.68 63 68 63 C67.62875 63.804375 67.62875 63.804375 67.25 64.625 C65.52713402 67.89844535 63.63127385 71.36872615 61 74 C68.92 73.505 68.92 73.505 77 73 C75.86918963 79.7848622 75.86918963 79.7848622 72.6875 82.3125 C72.09324219 82.80363281 71.49898438 83.29476562 70.88671875 83.80078125 C68.91557017 85.05366451 67.28269857 85.57167908 65 86 C65.53625 86.969375 66.0725 87.93875 66.625 88.9375 C68.66523296 93.56835434 67.46907374 97.33912577 66 102 C65.01 102 64.02 102 63 102 C62.01 98.04 62.01 98.04 61 94 C57.37 94 53.74 94 50 94 C50.495 95.85625 50.495 95.85625 51 97.75 C51.79891159 100.74591845 52 102.80107719 52 106 C50.02 105.505 50.02 105.505 48 105 C48.495 105.9075 48.99 106.815 49.5 107.75 C51 111 51 111 51 115 C49.02 114.505 49.02 114.505 47 114 C47 113.34 47 112.68 47 112 C45.68 112 44.36 112 43 112 C43.66 113.32 44.32 114.64 45 116 C45.66 116 46.32 116 47 116 C47.99 118.31 48.98 120.62 50 123 C50.495 121.515 50.495 121.515 51 120 C51.99 120 52.98 120 54 120 C54 120.66 54 121.32 54 122 C54.80566406 121.6803125 55.61132812 121.360625 56.44140625 121.03125 C71.96650363 116.5322097 88.0805173 121.55646694 103 126 C104.98563492 126.58843186 106.97390991 127.16803523 108.96484375 127.73828125 C109.84648193 127.99520752 110.72812012 128.25213379 111.63647461 128.5168457 C114.9754434 129.19940115 117.04214154 128.62682215 120 127 C121.01868662 126.01904252 122.02351983 125.02297922 123 124 C123.99 124 124.98 124 126 124 C124.87548273 126.9719385 123.77706209 129.33440687 122 132 C125.48321217 130.59189295 126.81437105 129.13413212 128.625 125.875 C129.8515625 123.6796875 129.8515625 123.6796875 131 122 C131.66 122 132.32 122 133 122 C133 123.32 133 124.64 133 126 C135.31 121.71 137.62 117.42 140 113 C140.66 113 141.32 113 142 113 C142.19335938 112.44570313 142.38671875 111.89140625 142.5859375 111.3203125 C144.59926756 108.01667146 147.53651388 106.09897398 150.625 103.875 C152.80482668 102.29761487 154.90500913 100.69369684 157 99 C157 98.34 157 97.68 157 97 C157.57878906 97.19464844 158.15757812 97.38929688 158.75390625 97.58984375 C161.40942653 98.07476484 162.50126244 97.64795238 164.9375 96.5625 C167.63313681 95.42434223 168.72075428 94.96752957 171.6875 95.3125 C172.450625 95.209375 173.21375 95.10625 174 95 C175.51571925 93.00400924 176.70828696 90.96099906 177.88671875 88.75 C178.25410156 88.1725 178.62148437 87.595 179 87 C179.66 87 180.32 87 181 87 C183.73397536 84.47107279 185.93063422 82.10404867 188 79 C189.66666667 78.33333333 191.33333333 77.66666667 193 77 C193.99 75.515 193.99 75.515 195 74 C195.66 74 196.32 74 197 74 C197 73.34 197 72.68 197 72 C197.99 72 198.98 72 200 72 C201.51308656 70.64349496 201.51308656 70.64349496 203 69 C207.6606525 65.54141624 212.30670471 63.42936879 217.83203125 61.74609375 C222.11420331 60.27240931 225.79340982 57.79458377 229.5625 55.3125 C232.37730423 53.79683618 234.84218013 53.36718836 238 53 C238.33 53.66 238.66 54.32 239 55 C239.99 55.33 240.98 55.66 242 56 C242 57.32 242 58.64 242 60 C241.360625 60.28875 240.72125 60.5775 240.0625 60.875 C237.84793921 61.82823451 237.84793921 61.82823451 237 64 C237.99 64 238.98 64 240 64 C240 64.99 240 65.98 240 67 C233.375 71 233.375 71 230 71 C230 71.66 230 72.32 230 73 C226.96474514 75.02350324 225.80573798 75.32124018 222.3125 75.625 C221.50425781 75.69976562 220.69601562 75.77453125 219.86328125 75.8515625 C218.94095703 75.92503906 218.94095703 75.92503906 218 76 C218 76.99 218 77.98 218 79 C215.03 79.495 215.03 79.495 212 80 C212.99 81.485 212.99 81.485 214 83 C214.7425 82.525625 215.485 82.05125 216.25 81.5625 C219 80 219 80 220.875 79.5625 C223.59862165 78.84154133 225.77700035 77.41768338 228.18359375 75.98828125 C230.68265404 74.62857748 233.27688553 73.79700911 236 73 C236.33 74.32 236.66 75.64 237 77 C237.20625 76.195625 237.4125 75.39125 237.625 74.5625 C239 72 239 72 241.875 71.125 C244.63309913 71.01467603 246.39548446 71.28151295 249 72 C250.485 71.505 250.485 71.505 252 71 C252 70.34 252 69.68 252 69 C252.66 69 253.32 69 254 69 C254.144375 69.969375 254.28875 70.93875 254.4375 71.9375 C254.67562341 74.86486773 254.67562341 74.86486773 256 76 C256.33 73.03 256.66 70.06 257 67 C257.99 67.33 258.98 67.66 260 68 C260.66 71.3 261.32 74.6 262 78 C259.41767086 78.98188561 256.83421317 79.96059589 254.25 80.9375 C253.52039063 81.21529297 252.79078125 81.49308594 252.0390625 81.77929688 C251.33007812 82.04677734 250.62109375 82.31425781 249.890625 82.58984375 C249.24125977 82.83597412 248.59189453 83.08210449 247.92285156 83.33569336 C245.967424 84.01125435 244.01334243 84.52800046 242 85 C242 85.66 242 86.32 242 87 C241.01 87 240.02 87 239 87 C242.15996758 88.20379717 244.66103255 89 248.0625 89 C251.20503026 89 253.18084187 89.67333735 256 91 C255.12201379 94.24854898 254.4000449 95.71575757 251.625 97.6875 C245.68562086 99.83796486 239.32755489 101 233 101 C232.30003906 101.01160156 231.60007812 101.02320313 230.87890625 101.03515625 C230.11449219 101.04417969 229.35007812 101.05320312 228.5625 101.0625 C227.80066406 101.07410156 227.03882813 101.08570313 226.25390625 101.09765625 C224.03260702 101.00141278 222.1301615 100.61624262 220 100 C220 100.66 220 101.32 220 102 C216.7 102 213.4 102 210 102 C210 102.66 210 103.32 210 104 C206.7 104.99 203.4 105.98 200 107 C200 107.66 200 108.32 200 109 C201.051875 108.525625 202.10375 108.05125 203.1875 107.5625 C207.66783729 105.54195573 211.96416425 104.87073654 216.86328125 104.90234375 C218.19262695 104.90717773 218.19262695 104.90717773 219.54882812 104.91210938 C220.9168457 104.92467773 220.9168457 104.92467773 222.3125 104.9375 C223.24384766 104.94201172 224.17519531 104.94652344 225.13476562 104.95117188 C227.42324373 104.96290766 229.71158808 104.97932637 232 105 C232.33 105.99 232.66 106.98 233 108 C232.03320312 108.03738281 231.06640625 108.07476562 230.0703125 108.11328125 C222.28782671 108.50625826 215.3696632 109.24287894 208 112 C210.43800966 111.69112547 212.87535367 111.37805338 215.3125 111.0625 C216.00279297 110.97548828 216.69308594 110.88847656 217.40429688 110.79882812 C220.40142288 110.40789865 223.12450119 109.9584996 226 109 C227.0725 109.020625 228.145 109.04125 229.25 109.0625 C233.19321175 108.9967798 236.23172381 108.0962258 240 107 C243.375 106.8125 243.375 106.8125 246 107 C246.33 107.33 246.66 107.66 247 108 C247.33 107.34 247.66 106.68 248 106 C248.99 106.33 249.98 106.66 251 107 C252.5159375 106.7834375 252.5159375 106.7834375 254.0625 106.5625 C258.7150333 105.89785239 263.30569518 105.69424068 268 106 C268.33 106.33 268.66 106.66 269 107 C270.299375 107.103125 271.59875 107.20625 272.9375 107.3125 C275.12109375 107.546875 275.12109375 107.546875 277 108 C278.5 110.0625 278.5 110.0625 279 112 C276.93083047 115.1037543 276.41805705 115.53219022 273.125 116.75 C272.10792969 117.14445312 272.10792969 117.14445312 271.0703125 117.546875 C268.70100488 118.06544044 267.27877644 117.75618591 265 117 C265 117.66 265 118.32 265 119 C264.02417969 118.98839844 263.04835938 118.97679687 262.04296875 118.96484375 C260.77066406 118.95582031 259.49835938 118.94679688 258.1875 118.9375 C256.92292969 118.92589844 255.65835937 118.91429687 254.35546875 118.90234375 C251.00394763 118.83840884 251.00394763 118.83840884 248 120 C246.68 120 245.36 120 244 120 C242.88625 120.309375 241.7725 120.61875 240.625 120.9375 C235.48214027 122.34983837 230.28273058 122.33595281 224.9765625 122.4609375 C221.88035795 122.65940843 221.88035795 122.65940843 220.5859375 125.0390625 C220.39257812 125.68617188 220.19921875 126.33328125 220 127 C220.74765625 127.09796875 221.4953125 127.1959375 222.265625 127.296875 C223.25046875 127.44640625 224.2353125 127.5959375 225.25 127.75 C226.22453125 127.88921875 227.1990625 128.0284375 228.203125 128.171875 C231.45006821 129.13326042 232.82722029 130.45474377 235 133 C234.44127197 132.99476318 233.88254395 132.98952637 233.30688477 132.98413086 C230.72543506 132.96308281 228.14400351 132.95025266 225.5625 132.9375 C224.68400391 132.92912109 223.80550781 132.92074219 222.90039062 132.91210938 C217.18350237 132.89101385 211.66330249 133.18933708 206 134 C205.67 134.33 205.34 134.66 205 135 C203.32286809 135.55331019 201.63314575 136.06883098 199.9375 136.5625 C199.01839844 136.83191406 198.09929687 137.10132813 197.15234375 137.37890625 C196.44207031 137.58386719 195.73179687 137.78882813 195 138 C196.07314453 137.97643433 196.07314453 137.97643433 197.16796875 137.95239258 C200.44523039 137.88959253 203.7223649 137.85086697 207 137.8125 C208.12535156 137.78736328 209.25070313 137.76222656 210.41015625 137.73632812 C216.97517893 137.67874021 222.11188957 137.96394306 228 141 C228.33 141.99 228.66 142.98 229 144 C227.11087891 143.75636719 227.11087891 143.75636719 225.18359375 143.5078125 C219.8016805 142.91111066 214.47254735 142.85218884 209.0625 142.875 C208.11826172 142.87113281 207.17402344 142.86726562 206.20117188 142.86328125 C204.85055664 142.86521484 204.85055664 142.86521484 203.47265625 142.8671875 C202.25461304 142.86887939 202.25461304 142.86887939 201.01196289 142.87060547 C198.92863568 142.8736458 198.92863568 142.8736458 197 144 C198.21623047 144.14695312 198.21623047 144.14695312 199.45703125 144.296875 C217.6806047 146.75779994 217.6806047 146.75779994 223.6875 152.625 C225 155 225 155 225 157 C222.69287459 156.13482797 220.46396216 155.27684535 218.34375 154.01171875 C212.16398855 150.41122214 206.04617548 150.21482242 199 150 C199.70125 150.10957031 200.4025 150.21914063 201.125 150.33203125 C207.10143048 151.33080971 212.39812682 152.69923066 218 155 C218.99 155.33 219.98 155.66 221 156 C221 156.66 221 157.32 221 158 C221.61875 158.144375 222.2375 158.28875 222.875 158.4375 C225 159 225 159 227 160 C227 160.66 227 161.32 227 162 C227.66 162 228.32 162 229 162 C232.34594658 167.18082051 233.56826496 170.84777564 234 177 C227.375 177.125 227.375 177.125 224 176 C224 175.01 224 174.02 224 173 C223.01 173 222.02 173 221 173 C221 172.34 221 171.68 221 171 C220.401875 170.855625 219.80375 170.71125 219.1875 170.5625 C217.43849596 170.1127561 215.71322977 169.57107659 214 169 C213.01 169.33 212.02 169.66 211 170 C211.433125 170.83144531 211.433125 170.83144531 211.875 171.6796875 C212.24625 172.40414062 212.6175 173.12859375 213 173.875 C213.37125 174.59429687 213.7425 175.31359375 214.125 176.0546875 C215 178 215 178 215 180 C214.01 180 213.02 180 212 180 C210.39453125 178.3203125 210.39453125 178.3203125 208.8125 176.125 C208.28269531 175.40570313 207.75289062 174.68640625 207.20703125 173.9453125 C206 172 206 172 206 170 C202.77484237 168.26337666 199.48670834 167.1094072 196 166 C196.38671875 166.40089844 196.7734375 166.80179688 197.171875 167.21484375 C202.31199376 172.82571596 206.22234884 178.73722198 206.25 186.5625 C206.1675 187.696875 206.085 188.83125 206 190 C205.34 190 204.68 190 204 190 C203.67128906 188.948125 203.67128906 188.948125 203.3359375 187.875 C200.33226478 178.88840195 196.58494823 171.57863905 188 167 C187.01 167 186.02 167 185 167 C185.70125 167.61875 186.4025 168.2375 187.125 168.875 C194.31969879 176.13119194 198 184.8574918 198 195 C197.01 195 196.02 195 195 195 C194.8040625 194.33355469 194.608125 193.66710937 194.40625 192.98046875 C191.02841795 182.57033979 185.59709494 173.61339515 176 168 C173.24038963 166.70925629 173.24038963 166.70925629 171 166 C171.33 166.33 171.66 166.66 172 167 C177.40340188 174.0575045 180 180.08013535 180 189 C179.01 189 178.02 189 177 189 C176.91363281 188.443125 176.82726562 187.88625 176.73828125 187.3125 C175.38702557 179.97357008 172.81128166 174.49891703 167.1875 169.5 C166.465625 169.005 165.74375 168.51 165 168 C165.33 169.98 165.66 171.96 166 174 C165.01 174 164.02 174 163 174 C161.64172029 172.35360035 160.30745749 170.68704193 159 169 C158.34 169 157.68 169 157 169 C157.99 173.455 157.99 173.455 159 178 C158.34 178 157.68 178 157 178 C155.66666667 176 154.33333333 174 153 172 C152.34 172 151.68 172 151 172 C151.185625 172.5775 151.37125 173.155 151.5625 173.75 C152.04023546 176.20692525 151.75729364 177.64397534 151 180 C150.01 180 149.02 180 148 180 C147.87625 179.030625 147.7525 178.06125 147.625 177.0625 C147.41875 176.051875 147.2125 175.04125 147 174 C146.34 173.67 145.68 173.34 145 173 C145 175.97 145 178.94 145 182 C144.34 182 143.68 182 143 182 C141.68 178.7 140.36 175.4 139 172 C138.979375 173.464375 138.95875 174.92875 138.9375 176.4375 C138.92009766 177.67306641 138.92009766 177.67306641 138.90234375 178.93359375 C138.76732652 180.99163938 138.76732652 180.99163938 140 182 C140.52524818 189.70363998 140.04700649 200.32949802 136 207 C132.9609375 208.14453125 132.9609375 208.14453125 129.375 208.8125 C128.18648437 209.04582031 126.99796875 209.27914062 125.7734375 209.51953125 C124.85820312 209.67808594 123.94296875 209.83664062 123 210 C123.08701172 210.86044922 123.08701172 210.86044922 123.17578125 211.73828125 C123.65939708 220.84407641 121.12932612 228.93398983 118.67138672 237.59423828 C117.6499614 241.25428375 116.72483212 244.93648351 115.8125 248.625 C115.64943359 249.2837915 115.48636719 249.94258301 115.31835938 250.62133789 C114.8766349 252.41366701 114.43820161 254.20680633 114 256 C113.77183594 256.9178125 113.54367188 257.835625 113.30859375 258.78125 C112.32521049 262.90733359 111.49535785 266.76100595 112 271 C113.37506099 272.87890434 113.37506099 272.87890434 115 274 C115.70125 273.505 116.4025 273.01 117.125 272.5 C121.01029148 270.4728914 123.93905842 270.39384071 128.125 271.625 C130.89747718 273.65814993 132.35362414 276.0121327 134 279 C133.67 279.99 133.34 280.98 133 282 C132.34 282 131.68 282 131 282 C130.34 280.68 129.68 279.36 129 278 C123.07415223 278.58096547 119.23938937 279.76061063 115 284 C112.34462628 284.56520003 109.70855287 284.73788198 107 285 C106.67 285.99 106.34 286.98 106 288 C105.34 288 104.68 288 104 288 C104 288.66 104 289.32 104 290 C101.05106099 292.21170426 98.29265186 293.25329715 94.75 294.0625 C92.89375 294.5265625 92.89375 294.5265625 91 295 C90.67 295.66 90.34 296.32 90 297 C88.14375 296.62875 88.14375 296.62875 86.25 296.25 C84.0737169 295.90454802 84.0737169 295.90454802 82 296 C79.60204619 297.81287195 79.60204619 297.81287195 78 300 C77.34 300 76.68 300 76 300 C75.6875 297.25 75.6875 297.25 76 294 C78.4375 291.75 78.4375 291.75 81 290 C81.33 289.34 81.66 288.68 82 288 C76.08807536 288.34776027 73.9612654 289.70862915 70 294 C69.01 294 68.02 294 67 294 C68.25215101 288.15662862 71.21899104 285.26897494 76 282 C79.62343618 280.79218794 83.09498105 280.68389281 86.875 280.5 C91.33322451 280.28074306 95.62675986 279.93462281 100 279 C104.05352868 268.24400554 106.30653734 257.15311295 108.6875 245.9375 C109.2905282 243.12409061 109.89545 240.31110048 110.50190735 237.49842834 C110.87602422 235.76052597 111.24785604 234.0221297 111.61711121 232.28318787 C111.86791191 231.11034996 111.86791191 231.11034996 112.1237793 229.91381836 C112.2693779 229.22831406 112.4149765 228.54280975 112.56498718 227.83653259 C113 226 113 226 114 223 C113.34 223 112.68 223 112 223 C112 222.34 112 221.68 112 221 C112.66 221 113.32 221 114 221 C114 217.37 114 213.74 114 210 C113.34 210 112.68 210 112 210 C111.401875 209.319375 110.80375 208.63875 110.1875 207.9375 C109.465625 207.298125 108.74375 206.65875 108 206 C105.29294488 206.14025199 105.29294488 206.14025199 103 207 C103 207.66 103 208.32 103 209 C101.02 209.99 101.02 209.99 99 211 C99 212.65 99 214.3 99 216 C97.35 216.33 95.7 216.66 94 217 C94 217.66 94 218.32 94 219 C93.27554688 219.25394531 92.55109375 219.50789062 91.8046875 219.76953125 C86.6892199 221.59063772 81.83899831 223.52423342 77 226 C76.030625 226.309375 75.06125 226.61875 74.0625 226.9375 C71.50396484 227.82515506 69.55637782 228.76409383 67.25 230.125 C64 232 64 232 62 232 C64.03802135 236.06024321 64.03802135 236.06024321 68 238 C68.1875 240.8125 68.1875 240.8125 68 244 C66.5625 245.625 66.5625 245.625 65 247 C64.9071875 247.64195312 64.814375 248.28390625 64.71875 248.9453125 C64 251 64 251 61.77734375 252.265625 C54.94041936 254.63550801 49.63369422 256.01715239 42.4375 254.4375 C38.69273804 252.22905064 35.55612659 249.53458454 33 246 C33.0625 243.0625 33.0625 243.0625 34 241 C34.66 241 35.32 241 36 241 C36 240.01 36 239.02 36 238 C36.50144531 237.82726562 37.00289063 237.65453125 37.51953125 237.4765625 C46.18228519 234.25938983 54.18573405 229.78395979 62.31494141 225.43359375 C67.03268542 222.91471824 71.76578799 220.42524505 76.5 217.9375 C77.40210205 217.46046631 78.3042041 216.98343262 79.23364258 216.49194336 C80.07435303 216.04987549 80.91506348 215.60780762 81.78125 215.15234375 C82.52439453 214.76038818 83.26753906 214.36843262 84.03320312 213.96459961 C86 213 86 213 89 212 C89 211.34 89 210.68 89 210 C87.948125 209.62875 87.948125 209.62875 86.875 209.25 C83.62914068 207.83875682 80.94128133 205.96085422 78 204 C76.700625 203.566875 76.700625 203.566875 75.375 203.125 C72.02928653 201.54018836 71.03226892 199.0774358 69 196 C61.93066491 188.20689965 53.35452404 184.97187698 42.99609375 184.21484375 C40.18548883 183.91233246 37.66640769 182.90900262 35 182 C33.7934375 182.0309375 33.7934375 182.0309375 32.5625 182.0625 C28.93095311 181.97392569 26.27119536 180.51876927 23 179 C22.113125 178.649375 21.22625 178.29875 20.3125 177.9375 C11.66537942 174.43191058 3.14514166 169.09729856 -1.8125 161.0625 C-5.41610329 151.70541645 -3.05993051 140.17979153 0 131 C-0.639375 131.598125 -1.27875 132.19625 -1.9375 132.8125 C-5.97070896 135.69336355 -10.93736877 138 -16 138 C-16 135 -16 135 -13.75 132.6875 C-12.8425 131.800625 -11.935 130.91375 -11 130 C-9.56119581 128.05094896 -8.28978468 126.05410153 -7 124 C-12.445 124.99 -12.445 124.99 -18 126 C-18 125.01 -18 124.02 -18 123 C-17.38125 122.938125 -16.7625 122.87625 -16.125 122.8125 C-15.073125 122.4103125 -15.073125 122.4103125 -14 122 C-13.30341637 120.34561387 -12.63903117 118.67745682 -12 117 C-9.11303669 114.3121376 -6.82726934 113.53090774 -3 112 C-8.28 112 -13.56 112 -19 112 C-19 110.68 -19 109.36 -19 108 C-18.44699219 107.88527344 -17.89398438 107.77054687 -17.32421875 107.65234375 C-14.63610013 106.8978634 -12.31127113 105.80634915 -9.8125 104.5625 C-8.93207031 104.13066406 -8.05164063 103.69882812 -7.14453125 103.25390625 C-4.86344208 102.18221457 -4.86344208 102.18221457 -4 100 C-8.95 100.33 -13.9 100.66 -19 101 C-17.88809524 97.66428571 -17.53679327 97.41582921 -14.625 95.8125 C-14.01914062 95.46832031 -13.41328125 95.12414062 -12.7890625 94.76953125 C-11 94 -11 94 -8 94 C-8 93.34 -8 92.68 -8 92 C-6.35 92 -4.7 92 -3 92 C-7.33420699 89.96834048 -11.28596212 89.47939368 -16 89 C-14.82255415 85.46766245 -14.04394359 85.13691925 -10.9375 83.3125 C-10.20402344 82.87550781 -9.47054687 82.43851562 -8.71484375 81.98828125 C-8.14894531 81.66214844 -7.58304688 81.33601563 -7 81 C-10.83133495 75.93716453 -13.56610342 72.89359675 -20 72 C-20 71.34 -20 70.68 -20 70 C-14.06 69.505 -14.06 69.505 -8 69 C-8.33 68.01 -8.66 67.02 -9 66 C-11.84979639 64.88319294 -11.84979639 64.88319294 -15 64 C-18.81566623 62.54106879 -20.66834803 60.33093138 -23 57 C-23 56.34 -23 55.68 -23 55 C-22.01 55 -21.02 55 -20 55 C-20 55.66 -20 56.32 -20 57 C-16.04 57 -12.08 57 -8 57 C-10.70721514 53.81868504 -10.70721514 53.81868504 -14.125 53.0625 C-15.07375 52.711875 -16.0225 52.36125 -17 52 C-17.875 49.875 -17.875 49.875 -18 48 C-18.66 48 -19.32 48 -20 48 C-20.99 46.02 -21.98 44.04 -23 42 C-20.70485555 42.52964872 -18.58130829 43.1595016 -16.375 44 C-11.95221573 45.3104546 -7.5859641 45.65559953 -3 46 C-4.66033817 41.88868643 -6.16795809 38.4477032 -9 35 C-9.66 34.01 -10.32 33.02 -11 32 C-13.0476785 30.95551146 -13.0476785 30.95551146 -15.375 30.125 C-20.9923681 27.7304168 -23.40604381 24.72592088 -25.6875 19.125 C-26.98055645 15.42854514 -27.5949252 11.88871812 -28 8 C-27.01 8 -26.02 8 -25 8 C-24.76925781 8.73605469 -24.53851562 9.47210938 -24.30078125 10.23046875 C-22.1315883 16.72089982 -20.41489359 21.79255321 -14 25 C-12.12620395 25.07033769 -10.24998898 25.0843022 -8.375 25.0625 C-7.37210938 25.05347656 -6.36921875 25.04445312 -5.3359375 25.03515625 C-4.17964844 25.01775391 -4.17964844 25.01775391 -3 25 C-3.680625 24.360625 -4.36125 23.72125 -5.0625 23.0625 C-7.74866944 18.81661926 -6.95524244 15.76582912 -6 11 C-4.0625 11.31640625 -4.0625 11.31640625 -2 12 C-1.32060826 13.99571323 -0.65438441 15.99594773 0 18 C1.88370471 19.3169667 1.88370471 19.3169667 4 20 C4.99 20.66 5.98 21.32 7 22 C6.58440587 19.5064352 6.18899955 17.36590312 5.0234375 15.109375 C3.62669549 12.23059376 3.16185017 9.34393305 2.5625 6.21875 C1.98268356 3.93169625 1.12677692 2.06575768 0 0 Z M9 34 C9.66 35.32 10.32 36.64 11 38 C11 37.01 11 36.02 11 35 C10.34 34.67 9.68 34.34 9 34 Z M12 38 C13 40 13 40 13 40 Z M63 38 C61.35 39.98 59.7 41.96 58 44 C58.99 45.485 58.99 45.485 60 47 C60.680625 45.88625 61.36125 44.7725 62.0625 43.625 C62.44535156 42.99851562 62.82820313 42.37203125 63.22265625 41.7265625 C63.47917969 41.15679687 63.73570313 40.58703125 64 40 C63.67 39.34 63.34 38.68 63 38 Z M13 40 C14 42 14 42 14 42 Z M39 43 C36.9921875 43.34375 36.9921875 43.34375 34.875 43.5 C32.956875 43.7475 32.956875 43.7475 31 44 C30.67 44.66 30.34 45.32 30 46 C31.32 46.33 32.64 46.66 34 47 C34.33 48.65 34.66 50.3 35 52 C29.62515138 52.18859118 24.99133677 52.26022797 20 50 C17.98053952 47.50117263 16.44514389 44.86364919 15 42 C13.77373928 45.67878216 14.36607013 46.95388805 15.625 50.5625 C15.94726562 51.53316406 16.26953125 52.50382812 16.6015625 53.50390625 C17.80696827 56.16973929 17.80696827 56.16973929 20.41015625 57.33203125 C23.66642703 58.1718839 26.65237691 58.13127934 30 58 C30.33 58.66 30.66 59.32 31 60 C31.66 58.68 32.32 57.36 33 56 C34.45922693 56.11409593 35.91740598 56.24165544 37.375 56.375 C38.18710938 56.44460938 38.99921875 56.51421875 39.8359375 56.5859375 C42 57 42 57 44 59 C44.23042499 62.53318313 44.04184255 65.61401171 43 69 C43.66 69 44.32 69 45 69 C45.33 70.32 45.66 71.64 46 73 C45.505 72.525625 45.01 72.05125 44.5 71.5625 C41.60584442 69.75365276 39.31513532 69.73036185 35.97265625 69.44921875 C32.70555733 68.70522593 31.05581559 66.50552526 29 64 C28.67 65.98 28.34 67.96 28 70 C26.35 70 24.7 70 23 70 C23.26393501 73.43230448 23.26393501 73.43230448 24 77 C26.71549154 79.30671915 26.71549154 79.30671915 29.1875 78.625 C29.785625 78.41875 30.38375 78.2125 31 78 C30.814375 77.38125 30.62875 76.7625 30.4375 76.125 C30 74 30 74 31 72 C33.64 72.33 36.28 72.66 39 73 C39.33 73.99 39.66 74.98 40 76 C42.00016466 77.20882096 42.00016466 77.20882096 44 78 C44 77.01 44 76.02 44 75 C45.485 75.495 45.485 75.495 47 76 C47.6875 78.0625 47.6875 78.0625 48 80 C47.01 80 46.02 80 45 80 C45.66 81.32 46.32 82.64 47 84 C48.98491642 83.73323796 48.98491642 83.73323796 51 83 C51.33 82.01 51.66 81.02 52 80 C51.01 80 50.02 80 49 80 C49 78.02 49 76.04 49 74 C49.99 74 50.98 74 52 74 C52.33 74.66 52.66 75.32 53 76 C53 74.02 53 72.04 53 70 C52.34 70 51.68 70 51 70 C51 70.66 51 71.32 51 72 C50.34 72 49.68 72 49 72 C47.88563774 67.54255094 47.63172391 63.5666235 48 59 C49.75 57 49.75 57 52 56 C53.32 56 54.64 56 56 56 C55.505 54.02 55.505 54.02 55 52 C54.30132812 52.08378906 53.60265625 52.16757812 52.8828125 52.25390625 C51.97273438 52.35574219 51.06265625 52.45757812 50.125 52.5625 C49.22007813 52.66691406 48.31515625 52.77132812 47.3828125 52.87890625 C45 53 45 53 43 52 C41.00448218 51.64080679 39.00451121 51.30503431 37 51 C37.33 49.68 37.66 48.36 38 47 C42 47 42 47 44.0625 48.9375 C44.701875 49.618125 45.34125 50.29875 46 51 C46.99 51.33 47.98 51.66 49 52 C51.12508244 48.81237635 51.5020163 46.73487777 52 43 C47.4506497 39.9670998 43.5493503 39.9670998 39 43 Z M29 46 C28.67 47.32 28.34 48.64 28 50 C28.99 50 29.98 50 31 50 C30.34 48.68 29.68 47.36 29 46 Z M56 47 C57 50 57 50 57 50 Z M19 59 C18.67 59.66 18.34 60.32 18 61 C18.99 61 19.98 61 21 61 C21 61.99 21 62.98 21 64 C23.64 64 26.28 64 29 64 C28.67 62.68 28.34 61.36 28 60 C27.2575 60.020625 26.515 60.04125 25.75 60.0625 C23.29537721 60.00671312 21.33890739 59.6930096 19 59 Z M26 66 C27 68 27 68 27 68 Z M22 67 C23 69 23 69 23 69 Z M248 74 C248 74.66 248 75.32 248 76 C249.32 76.33 250.64 76.66 252 77 C252 76.34 252 75.68 252 75 C250.68 74.67 249.36 74.34 248 74 Z M240 78 C240 78.99 240 79.98 240 81 C240.99 80.67 241.98 80.34 243 80 C242.01 79.34 241.02 78.68 240 78 Z M32 79 C32.33 79.66 32.66 80.32 33 81 C33.66 80.67 34.32 80.34 35 80 C34.01 79.67 33.02 79.34 32 79 Z M210 83 C211 85 211 85 211 85 Z M236 83 C236 83.66 236 84.32 236 85 C236.66 85 237.32 85 238 85 C238 84.34 238 83.68 238 83 C237.34 83 236.68 83 236 83 Z M206 86 C205.67 86.66 205.34 87.32 205 88 C205.99 87.67 206.98 87.34 208 87 C207.34 86.67 206.68 86.34 206 86 Z M235 87 C235.33 87.66 235.66 88.32 236 89 C236.33 88.34 236.66 87.68 237 87 C236.34 87 235.68 87 235 87 Z M227 88 C228 90 228 90 228 90 Z M230 89 C231.485 89.99 231.485 89.99 233 91 C233.33 90.34 233.66 89.68 234 89 C232.68 89 231.36 89 230 89 Z M229 90 C230 93 230 93 230 93 Z M195 93 C195.99 94.485 195.99 94.485 197 96 C197 95.01 197 94.02 197 93 C196.34 93 195.68 93 195 93 Z M218 98 C218 98.66 218 99.32 218 100 C218.66 99.67 219.32 99.34 220 99 C219.34 98.67 218.68 98.34 218 98 Z M166 102 C165.67 102.66 165.34 103.32 165 104 C165.99 103.67 166.98 103.34 168 103 C167.34 102.67 166.68 102.34 166 102 Z M185 103 C184.34 103.66 183.68 104.32 183 105 C183.99 105 184.98 105 186 105 C185.67 104.34 185.34 103.68 185 103 Z M151 107 C150.01 107.99 149.02 108.98 148 110 C148.33 110.66 148.66 111.32 149 112 C149.99 111.34 150.98 110.68 152 110 C151.67 109.01 151.34 108.02 151 107 Z M147 112 C146.01 113.485 146.01 113.485 145 115 C145.99 114.67 146.98 114.34 148 114 C147.67 113.34 147.34 112.68 147 112 Z M228 113 C229 115 229 115 229 115 Z M224 114 C225 116 225 116 225 116 Z M144 115 C145 117 145 117 145 117 Z M142 118 C143 120 143 120 143 120 Z M38 122 C38.33 123.65 38.66 125.3 39 127 C40.65 127 42.3 127 44 127 C43.67 126.01 43.34 125.02 43 124 C40.49552484 122.78130071 40.49552484 122.78130071 38 122 Z M75 124 C76 127 76 127 76 127 Z M154 125 C155 127 155 127 155 127 Z M66 127 C67 129 67 129 67 129 Z M51 129 C52 131 52 131 52 131 Z M72 130 C73 132 73 132 73 132 Z M80 130 C81 132 81 132 81 132 Z M176 130 C176.66 130.66 177.32 131.32 178 132 C178.33 131.34 178.66 130.68 179 130 C178.01 130 177.02 130 176 130 Z M173 132 C174 134 174 134 174 134 Z M176 134 C175.67 134.66 175.34 135.32 175 136 C175.66 136 176.32 136 177 136 C176.67 135.34 176.34 134.68 176 134 Z M22 135 C23 138 23 138 23 138 Z M8 140 C9 142 9 142 9 142 Z M32 140 C32.99 140.99 33.98 141.98 35 143 C34.67 142.01 34.34 141.02 34 140 C33.34 140 32.68 140 32 140 Z M11 143 C12 145 12 145 12 145 Z M37 142 C36.34 142.66 35.68 143.32 35 144 C35.99 144 36.98 144 38 144 C37.67 143.34 37.34 142.68 37 142 Z M6 144 C6 145.65 6 147.3 6 149 C6.66 148.67 7.32 148.34 8 148 C7.34 146.68 6.68 145.36 6 144 Z M154 146 C153.01 146.495 153.01 146.495 152 147 C152.33 147.66 152.66 148.32 153 149 C153.66 148.67 154.32 148.34 155 148 C154.67 147.34 154.34 146.68 154 146 Z M188 147 C186.02 147.99 186.02 147.99 184 149 C185.98 149 187.96 149 190 149 C189.34 148.34 188.68 147.68 188 147 Z M5 153 C6 155 6 155 6 155 Z M176 161 C176 161.66 176 162.32 176 163 C176.99 162.67 177.98 162.34 179 162 C178.01 161.67 177.02 161.34 176 161 Z M26 165 C27 167 27 167 27 167 Z M22 166 C23 168 23 168 23 168 Z M39 166 C40 168 40 168 40 168 Z M209 167 C210 169 210 169 210 169 Z M61 169 C62 171 62 171 62 171 Z M52 170 C51.34 170.66 50.68 171.32 50 172 C51.98 172.99 51.98 172.99 54 174 C54 172.68 54 171.36 54 170 C53.34 170 52.68 170 52 170 Z M32 171 C33 173 33 173 33 173 Z M59 172 C59 172.66 59 173.32 59 174 C59.66 173.67 60.32 173.34 61 173 C60.34 172.67 59.68 172.34 59 172 Z M72 172 C72.33 172.66 72.66 173.32 73 174 C73.66 174 74.32 174 75 174 C75 173.34 75 172.68 75 172 C74.01 172 73.02 172 72 172 Z M39 173 C43 174 43 174 43 174 Z M71 177 C71 177.99 71 178.98 71 180 C71.66 180 72.32 180 73 180 C72.67 179.01 72.34 178.02 72 177 C71.67 177 71.34 177 71 177 Z M114 179 C114.33 179.66 114.66 180.32 115 181 C115.33 180.34 115.66 179.68 116 179 C115.34 179 114.68 179 114 179 Z M63 180 C63.66 180.66 64.32 181.32 65 182 C65 181.34 65 180.68 65 180 C64.34 180 63.68 180 63 180 Z M131 192 C130.67 192.99 130.34 193.98 130 195 C130.66 195 131.32 195 132 195 C131.67 194.01 131.34 193.02 131 192 Z M123 196 C124 198 124 198 124 198 Z M47 239 C46.67 239.99 46.34 240.98 46 242 C45.01 242.33 44.02 242.66 43 243 C47.60823232 246.22193962 47.60823232 246.22193962 52.9375 246.75 C53.618125 246.5025 54.29875 246.255 55 246 C55.33 244.68 55.66 243.36 56 242 C56.99 242 57.98 242 59 242 C59.33 242.66 59.66 243.32 60 244 C60.99 244.66 61.98 245.32 63 246 C61.91235329 242.3659248 61.91235329 242.3659248 59.25 239.84375 C56.60346899 238.85130087 54.56790436 238.80084462 51.75 238.875 C50.41195312 238.90207031 50.41195312 238.90207031 49.046875 238.9296875 C48.37140625 238.95289063 47.6959375 238.97609375 47 239 Z M110 275 C110 275.99 110 276.98 110 278 C110.66 277.67 111.32 277.34 112 277 C112 276.34 112 275.68 112 275 C111.34 275 110.68 275 110 275 Z M87.75 286.875 C87.1725 287.24625 86.595 287.6175 86 288 C86 288.33 86 288.66 86 289 C88.64 288.67 91.28 288.34 94 288 C91.05590637 286.06403854 91.05590637 286.06403854 87.75 286.875 Z " fill="#000000" transform="translate(44,220)"/>
<path d="M0 0 C2.475 0.495 2.475 0.495 5 1 C5.33 2.65 5.66 4.3 6 6 C6.33 5.01 6.66 4.02 7 3 C7.99 3 8.98 3 10 3 C10.02691685 5.45840605 10.04679802 7.91651882 10.0625 10.375 C10.07087891 11.07367188 10.07925781 11.77234375 10.08789062 12.4921875 C10.11328125 17.7734375 10.11328125 17.7734375 9 20 C8.01 20 7.02 20 6 20 C6 19.01 6 18.02 6 17 C5.34 17 4.68 17 4 17 C4 20.3 4 23.6 4 27 C2.68 27.33 1.36 27.66 0 28 C-0.33 25.36 -0.66 22.72 -1 20 C-3.66735273 22.48952921 -5.55746343 24.63408134 -7 28 C-7.99 28 -8.98 28 -10 28 C-10.33 27.01 -10.66 26.02 -11 25 C-11.99 25.99 -12.98 26.98 -14 28 C-14.99 27.67 -15.98 27.34 -17 27 C-16.34 26.01 -15.68 25.02 -15 24 C-14.34 24 -13.68 24 -13 24 C-12.94552953 22.58376784 -12.90699492 21.16691809 -12.875 19.75 C-12.85179687 18.96109375 -12.82859375 18.1721875 -12.8046875 17.359375 C-13.02232364 14.73033049 -13.53709188 13.18951811 -15 11 C-15.99 10.67 -16.98 10.34 -18 10 C-18 9.01 -18 8.02 -18 7 C-15.36 7 -12.72 7 -10 7 C-12.31 6.34 -14.62 5.68 -17 5 C-17 4.01 -17 3.02 -17 2 C-16.39671875 2.01160156 -15.7934375 2.02320313 -15.171875 2.03515625 C-14.37265625 2.04417969 -13.5734375 2.05320312 -12.75 2.0625 C-11.96109375 2.07410156 -11.1721875 2.08570313 -10.359375 2.09765625 C-8.09308998 2.00385306 -6.1711105 1.63241063 -4 1 C-3.67 2.32 -3.34 3.64 -3 5 C-2.34 5 -1.68 5 -1 5 C-0.67 3.35 -0.34 1.7 0 0 Z M4 8 C4.33 8.99 4.66 9.98 5 11 C5 10.01 5 9.02 5 8 C4.67 8 4.34 8 4 8 Z M4 13 C5 15 5 15 5 15 Z M-10 20 C-9 22 -9 22 -9 22 Z " fill="#000000" transform="translate(163,10)"/>
<path d="M0 0 C4.9190625 -0.0309375 4.9190625 -0.0309375 9.9375 -0.0625 C10.97253662 -0.071604 12.00757324 -0.08070801 13.07397461 -0.09008789 C14.28839233 -0.09383423 14.28839233 -0.09383423 15.52734375 -0.09765625 C16.77632446 -0.10551147 16.77632446 -0.10551147 18.05053711 -0.11352539 C20 0 20 0 21 1 C21.09949077 2.75685674 21.1308026 4.51767333 21.1328125 6.27734375 C21.13474609 7.88319336 21.13474609 7.88319336 21.13671875 9.52148438 C21.13285156 10.64876953 21.12898438 11.77605469 21.125 12.9375 C21.13080078 14.62262695 21.13080078 14.62262695 21.13671875 16.34179688 C21.13542969 17.41365234 21.13414062 18.48550781 21.1328125 19.58984375 C21.13168457 20.57847412 21.13055664 21.56710449 21.12939453 22.58569336 C21 25 21 25 20 27 C19.01 27 18.02 27 17 27 C17 26.01 17 25.02 17 24 C14.8535247 24.11344376 12.70779408 24.24106345 10.5625 24.375 C9.36753906 24.44460937 8.17257813 24.51421875 6.94140625 24.5859375 C5.97074219 24.72257812 5.00007813 24.85921875 4 25 C3.67 25.66 3.34 26.32 3 27 C1.68 26.67 0.36 26.34 -1 26 C-0.67 17.42 -0.34 8.84 0 0 Z M15 3 C15 4.65 15 6.3 15 8 C15.66 8 16.32 8 17 8 C17 6.35 17 4.7 17 3 C16.34 3 15.68 3 15 3 Z M3 5 C4 8 4 8 4 8 Z M3 11 C3 14.63 3 18.26 3 22 C3.33 22 3.66 22 4 22 C4 18.37 4 14.74 4 11 C3.67 11 3.34 11 3 11 Z M16 11 C16 14.63 16 18.26 16 22 C16.33 22 16.66 22 17 22 C17 18.37 17 14.74 17 11 C16.67 11 16.34 11 16 11 Z M7 21 C7 21.33 7 21.66 7 22 C8.98 22 10.96 22 13 22 C13 21.67 13 21.34 13 21 C11.02 21 9.04 21 7 21 Z " fill="#000000" transform="translate(116,11)"/>
<path d="M0 0 C2.475 0.495 2.475 0.495 5 1 C5 4.3 5 7.6 5 11 C6.32 11.33 7.64 11.66 9 12 C9 10.02 9 8.04 9 6 C9.66 6 10.32 6 11 6 C12.33333333 9.33333333 13.66666667 12.66666667 15 16 C11.59575912 18.09491746 8.96585158 18.49573145 5 18 C1.84987198 15.68913967 1.07752314 14.43929777 0.390625 10.546875 C0.34421875 9.29390625 0.2978125 8.0409375 0.25 6.75 C0.19328125 5.48671875 0.1365625 4.2234375 0.078125 2.921875 C0.05234375 1.95765625 0.0265625 0.9934375 0 0 Z " fill="#000000" transform="translate(189,20)"/>
<path d="M0 0 C4.06444395 0.92373726 5.73192865 1.67693966 8.4375 4.9375 C8.953125 5.948125 9.46875 6.95875 10 8 C9.67 8.99 9.34 9.98 9 11 C6.75 10.9375 6.75 10.9375 4 10 C1.52994022 6.9301813 0 4.00503984 0 0 Z " fill="#000000" transform="translate(199,20)"/>
<path d="M0 0 C0.66 0 1.32 0 2 0 C2.97533063 2.63339271 3.019574 3.92348347 2.3125 6.6875 C1 9 1 9 -1.125 9.8125 C-1.74375 9.874375 -2.3625 9.93625 -3 10 C-2.49287967 6.28111761 -1.88391785 3.26545761 0 0 Z " fill="#000000" transform="translate(186,24)"/>
<path d="M0 0 C2.78211944 0.37596209 4.5879284 0.67318459 6.8125 2.4375 C8 4 8 4 8 6 C3.25 7.125 3.25 7.125 1 6 C0.375 2.9375 0.375 2.9375 0 0 Z " fill="#000000" transform="translate(192,13)"/>
<path d="M0 0 C-1 3 -1 3 -3 5 C-3.99 5 -4.98 5 -6 5 C-6 3.68 -6 2.36 -6 1 C-3 0 -3 0 0 0 Z " fill="#000000" transform="translate(298,271)"/>
<path d="M0 0 C1.98 0.495 1.98 0.495 4 1 C4 1.99 4 2.98 4 4 C2.35 3.67 0.7 3.34 -1 3 C-0.67 2.01 -0.34 1.02 0 0 Z " fill="#000000" transform="translate(288,276)"/>
<path d="M0 0 C0.66 0 1.32 0 2 0 C2 0.99 2 1.98 2 3 C2.66 3 3.32 3 4 3 C4 3.66 4 4.32 4 5 C3.01 5 2.02 5 1 5 C0.67 3.35 0.34 1.7 0 0 Z " fill="#000000" transform="translate(282,445)"/>
<path d="M0 0 C1.98 0 3.96 0 6 0 C6 0.66 6 1.32 6 2 C4.02 2 2.04 2 0 2 C0 1.34 0 0.68 0 0 Z " fill="#000000" transform="translate(259,251)"/>
<path d="M0 0 C1.32 0 2.64 0 4 0 C4 0.66 4 1.32 4 2 C2.68 2.33 1.36 2.66 0 3 C0 2.01 0 1.02 0 0 Z " fill="#000000" transform="translate(286,282)"/>
<path d="M0 0 C0.99 0 1.98 0 3 0 C3 0.99 3 1.98 3 3 C2.01 3 1.02 3 0 3 C0 2.01 0 1.02 0 0 Z " fill="#000000" transform="translate(17,165)"/>
<path d="M0 0 C0.99 0.33 1.98 0.66 3 1 C2.67 1.66 2.34 2.32 2 3 C1.34 3 0.68 3 0 3 C0 2.01 0 1.02 0 0 Z " fill="#000000" transform="translate(120,467)"/>
<path d="M0 0 C0.99 0 1.98 0 3 0 C3 0.66 3 1.32 3 2 C2.01 2 1.02 2 0 2 C0 1.34 0 0.68 0 0 Z " fill="#000000" transform="translate(37,533)"/>
<path d="M0 0 C0.66 0 1.32 0 2 0 C2 0.99 2 1.98 2 3 C1.34 3 0.68 3 0 3 C0 2.01 0 1.02 0 0 Z " fill="#000000" transform="translate(44,531)"/>
<path d="M0 0 C0.99 0 1.98 0 3 0 C3 0.66 3 1.32 3 2 C2.01 2 1.02 2 0 2 C0 1.34 0 0.68 0 0 Z " fill="#000000" transform="translate(217,484)"/>
<path d="M0 0 C0.99 0 1.98 0 3 0 C3 0.66 3 1.32 3 2 C2.01 2 1.02 2 0 2 C0 1.34 0 0.68 0 0 Z " fill="#000000" transform="translate(51,446)"/>
<path d="M0 0 C0.66 0 1.32 0 2 0 C2 0.99 2 1.98 2 3 C1.34 3 0.68 3 0 3 C0 2.01 0 1.02 0 0 Z " fill="#000000" transform="translate(67,434)"/>
<path d="M0 0 C0.66 0 1.32 0 2 0 C2 0.99 2 1.98 2 3 C1.34 3 0.68 3 0 3 C0 2.01 0 1.02 0 0 Z " fill="#000000" transform="translate(117,287)"/>
<path d="M0 0 C0.66 0 1.32 0 2 0 C2 0.99 2 1.98 2 3 C1.34 3 0.68 3 0 3 C0 2.01 0 1.02 0 0 Z " fill="#000000" transform="translate(284,272)"/>
<path d="M0 0 C0.66 0 1.32 0 2 0 C2 0.99 2 1.98 2 3 C1.34 3 0.68 3 0 3 C0 2.01 0 1.02 0 0 Z " fill="#000000" transform="translate(278,191)"/>
<path d="M0 0 C0.99 0 1.98 0 3 0 C3 0.66 3 1.32 3 2 C2.01 2 1.02 2 0 2 C0 1.34 0 0.68 0 0 Z " fill="#000000" transform="translate(171,186)"/>
<path d="M0 0 C0.66 0 1.32 0 2 0 C2 0.99 2 1.98 2 3 C1.34 3 0.68 3 0 3 C0 2.01 0 1.02 0 0 Z " fill="#000000" transform="translate(251,148)"/>
<path d="M0 0 C0.66 0 1.32 0 2 0 C2 0.99 2 1.98 2 3 C1.34 3 0.68 3 0 3 C0 2.01 0 1.02 0 0 Z " fill="#000000" transform="translate(3,120)"/>
<path d="M0 0 C0.99 0 1.98 0 3 0 C3 0.66 3 1.32 3 2 C2.01 2 1.02 2 0 2 C0 1.34 0 0.68 0 0 Z " fill="#000000" transform="translate(307,57)"/>
<path d="M0 0 C0.99 0 1.98 0 3 0 C3 0.66 3 1.32 3 2 C2.01 1.67 1.02 1.34 0 1 C0 0.67 0 0.34 0 0 Z " fill="#000000" transform="translate(290,281)"/>
<path d="M0 0 C0.66 0 1.32 0 2 0 C2 0.66 2 1.32 2 2 C1.34 2 0.68 2 0 2 C0 1.34 0 0.68 0 0 Z " fill="#000000" transform="translate(91,490)"/>
<path d="M0 0 C0.66 0 1.32 0 2 0 C2 0.66 2 1.32 2 2 C1.34 2 0.68 2 0 2 C0 1.34 0 0.68 0 0 Z " fill="#000000" transform="translate(270,427)"/>
<path d="M0 0 C0.66 0 1.32 0 2 0 C2 0.66 2 1.32 2 2 C1.34 2 0.68 2 0 2 C0 1.34 0 0.68 0 0 Z " fill="#000000" transform="translate(265,345)"/>
<path d="M0 0 C0.66 0 1.32 0 2 0 C2 0.66 2 1.32 2 2 C1.34 2 0.68 2 0 2 C0 1.34 0 0.68 0 0 Z " fill="#000000" transform="translate(312,309)"/>
<path d="M0 0 C0.66 0 1.32 0 2 0 C2 0.66 2 1.32 2 2 C1.34 2 0.68 2 0 2 C0 1.34 0 0.68 0 0 Z " fill="#000000" transform="translate(143,286)"/>
<path d="M0 0 C0.66 0 1.32 0 2 0 C2 0.66 2 1.32 2 2 C1.34 2 0.68 2 0 2 C0 1.34 0 0.68 0 0 Z " fill="#000000" transform="translate(83,230)"/>
<path d="M0 0 C0.66 0 1.32 0 2 0 C2 0.66 2 1.32 2 2 C1.34 2 0.68 2 0 2 C0 1.34 0 0.68 0 0 Z " fill="#000000" transform="translate(47,208)"/>
<path d="M0 0 C0.66 0 1.32 0 2 0 C2 0.66 2 1.32 2 2 C1.34 2 0.68 2 0 2 C0 1.34 0 0.68 0 0 Z " fill="#000000" transform="translate(122,180)"/>
<path d="M0 0 C0.66 0 1.32 0 2 0 C2 0.66 2 1.32 2 2 C1.34 2 0.68 2 0 2 C0 1.34 0 0.68 0 0 Z " fill="#000000" transform="translate(119,142)"/>
<path d="M0 0 C0.66 0 1.32 0 2 0 C2 0.66 2 1.32 2 2 C1.34 2 0.68 2 0 2 C0 1.34 0 0.68 0 0 Z " fill="#000000" transform="translate(301,127)"/>
<path d="M0 0 C0.66 0 1.32 0 2 0 C2 0.66 2 1.32 2 2 C1.34 2 0.68 2 0 2 C0 1.34 0 0.68 0 0 Z " fill="#000000" transform="translate(286,83)"/>
<path d="M0 0 C0.66 0 1.32 0 2 0 C2 0.66 2 1.32 2 2 C1.34 2 0.68 2 0 2 C0 1.34 0 0.68 0 0 Z " fill="#000000" transform="translate(9,24)"/>
<path d="M0 0 C0.66 0 1.32 0 2 0 C2 0.66 2 1.32 2 2 C1.34 2 0.68 2 0 2 C0 1.34 0 0.68 0 0 Z " fill="#000000" transform="translate(306,23)"/>
</svg>
