<svg xmlns="http://www.w3.org/2000/svg" width="800" height="1195"><path d="M671 550h3c3.357 6.366 4.657 11.573 4.5 18.75l-.023 2.626c-.2 7.46-1.86 13.638-4.477 20.624v2c7.571-11.15 12.917-22.106 17-35h3c2.707 8.12.556 15.48-3 23-3.987 7.462-8.263 14.746-14 21h-2v2a159 159 0 0 1-6 5l2 1v-2c1.863-1.402 1.863-1.402 4.313-2.937 2.338-1.473 4.412-2.784 6.355-4.754C683 600 683 600 685 600l1-3c1.777-1.824 1.777-1.824 3.938-3.687l2.152-1.887C694 590 694 590 696 590c-1.119 7.83-5.962 12.248-11.375 17.563l-2 1.998C673.1 619 673.1 619 669 619v2l-2 1c5.825 3.039 10.482 3.354 17 3-1 3-1 3-3.25 4.25-3.032.827-4.761.604-7.75-.25v2c-2.525 1.262-4.312 1.099-7.125 1.063l-2.758-.028L661 632l7 1 1 3c-10.469 1.978-20.614 2.483-30-3-3.693-2.115-6.022-2.244-10.172-1.621-2.126.526-2.126.526-3.64 3.121L624 637l-3 1a499 499 0 0 0-3 4h-2l.125 2.375c-.107 3.112-.541 5.346-1.312 8.313-1.113 5.115-.243 8.85 1.363 13.769 1.04 3.207 1.66 6.398 2.136 9.73.554 2.021.554 2.021 2.75 3.063L623 680v2l2.188.25c2.812.75 2.812.75 5.375 2.813 2.44 2.352 2.44 2.352 6.437 1.937v3l5 2v2l1.863.184 2.45.254 2.425.246C651 695 651 695 654 696v2l2.25.313c2.997.749 4.535 1.551 6.75 3.687l.438 1.938c.838 3.073 3.127 4.126 5.562 6.062v3l-1.937-.562L665 712l-1 1c-2.655.455-5.322.702-8 1 2.663 2.272 2.663 2.272 4.813 1.688L663 715c3-.812 3-.812 6-1 3.437 2.482 4.583 5.104 6 9a316 316 0 0 0 3.195 6.035C679 731 679 731 679 735h-7l7 1 1 4-12 1 1 2c2.025.652 2.025.652 4 1l1-3h5c.687 2.49 1 4.379 1 7 .46 1.74.964 3.469 1.5 5.188l.844 2.73L683 758h-3l-1.812-1.937c-2.69-2.536-4.57-2.734-8.188-3.063l1 5-3 1c1.961 2.302 1.961 2.302 5.438 2.875C677 763 677 763 678.938 764.938 680 767 680 767 680 770l-3-1 1 3c.068 1.728.085 3.458.063 5.188l-.028 2.73L678 782h-2l-2-11h-4c1.356 5.671 1.356 5.671 5 10v2l-5-1 2 5 1-3h2c.125 5.75.125 5.75-1 8h-2l-.586 1.828-.789 2.422-.773 2.39c-.804 2.226-1.75 4.27-2.852 6.36h-3l-2 4h-3l-.562 2.125c-2.628 5.256-7.236 8.37-12.438 10.875l-2.25 1.563c-3.642 1.903-6.666 2.09-10.75 2.437v3c-8 3.538-8 3.538-11 4l-1-1v3h2v6l6 1v-6h2l1 7h2l1 5v-5h2c4 6.801 5.097 13.207 6 21l2.922.7 3.828.987 3.797.95c3.865 1.526 5.13 3.003 7.453 6.363l2 1v2l2 .688c3.246 1.42 6.07 3.167 9.035 5.093 1.94 1.203 3.91 2.23 5.965 3.219l.875-2.437C682 880 682 880 684 879c.264-1.365.461-2.744.625-4.125 1.026-4.993 3.178-7.626 7.145-10.754 2.587-1.3 3.742-1.362 6.543-.746 2.783 1.04 4.997 2.09 6.687 4.625v2l-5-1-1 3 10-1 1 3h2v3l-2.266-.508-2.984-.617-2.953-.633c-3.058-.265-4.301.03-6.797 1.758l-1 2c3.9.05 3.9.05 7.375-.25 6.25.431 9.41 3.868 13.375 8.375l1.734 2.07c1.541 1.888 1.541 1.888 3.516 3.805v3c-6.75-.75-6.75-.75-9-3-3.77.102-4.89.887-7.562 3.625-.805.784-1.61 1.567-2.438 2.375-2.312-.187-2.312-.187-4-1l1 3-1.863 1.828-2.45 2.422-2.425 2.39c-2.27 2.26-2.27 2.26-3.93 4.657L688 914h-2v2a418 418 0 0 1-3.812 2l-2.145 1.125C678 920 678 920 675 920v2c-1.574 1.516-1.574 1.516-3.687 3.25-2.566 2.17-4.617 4.124-6.75 6.75-3.362 3.935-7.183 7.228-11.563 10h-3l2 13c-6-2-6-2-7.375-4.625L644 948l1-1c.23-1.347.412-2.704.563-4.062L646 939h-2v7c-3-1-3-1-4.687-4.062L638 939l-2.125.813c-2.875.187-2.875.187-6-1.688-3.598-3.347-5.128-7.322-5.875-12.125.572-3.792 1.407-5.389 4.063-8.125 4.684-2.99 9.672-5.12 14.937-6.875v-2c2.765-1.927 5.506-3.21 8.625-4.5 3.004-1.335 4.246-2.178 6.375-4.5a458 458 0 0 0-3.687-2.875l-2.075-1.617c-4.486-3.022-8.754-3.851-14.086-4.438l-4.025-.472a1244 1244 0 0 0-6.252-.697c-11.854-1.305-23.024-3.102-32.75-10.463l-1.739-1.294c-4.905-3.678-9.674-7.537-14.46-11.366-4.383-3.464-8.883-6.35-13.926-8.778l-2-1v-2l-1.713-.382c-4.253-1.15-8.205-3.085-12.225-4.868l-2.708-1.16c-5.048-2.24-8.702-4.321-12.354-8.59l-2.281-2.5-2.219-2.5c-3.081-3.436-6.152-6.82-9.5-10l-1.984-2.04C512.706 817.78 509.46 816 502 816v2h-5v2h-2v2c-4.011-.512-7.78-1.202-11.687-2.25-3.498-.882-3.498-.882-6.75.625L475 822h-2l1-3-3-1 .938 3.125c.062 3.875.062 3.875-1.36 5.676C465.728 831 465.728 831 463 831l-1 4 2.813-.125C468 835 468 835 471 837c1.95 2.729 2.017 3.848 1.625 7.25L472 847l-3 1v-2h-3l1.563 2.188c1.719 3.364 1.457 4.267.437 7.812-3.2 6.468-7.374 11.03-14 14h-2l1-10-2.352.105c-7.334.184-13.741-.641-20.867-2.304-11.33-2.4-22.646-2.946-34.195-2.763-5.786.06-10.964-.563-16.586-2.038l1 9h-4a403 403 0 0 1-3.062-5.687l-1.723-3.2c-1.302-3.337-1.303-4.763-.215-8.113l5-1-2-1v-3h-2c-.233-4.499.33-7.59 2.188-11.687l1.23-2.825c1.941-3.053 3.205-4.166 6.582-5.488 2.812.153 5.257.476 8 1q2.765.436 5.531.867 2.985.501 5.969 1.008l3.012.488c4.485.765 8.683 1.59 12.918 3.282 3.259 1.237 4.843 1.701 8.195 1.168l2.254-.352c2.794-.607 5.453-1.435 8.121-2.461v-2c1.68-1.29 1.68-1.29 3.875-2.625l2.18-1.352C444 818 444 818 446 818v-2q1.754-1.704 3.516-3.402c3.696-3.98 6.402-8.847 9.246-13.45 7.776-12.515 7.776-12.515 14.238-15.148v-2l5-5c2.852-3.524 5.093-6.496 6-11l-2.125-.687c-2.85-1.301-4.855-2.906-7.21-4.942-5.257-4.33-9.82-6.943-16.665-7.371v-2h-9l-1-3c-.626.095-1.253.19-1.898.29-.818.11-1.635.22-2.477.335l-2.46.352L439 749l-2-2c-3.597.323-3.597.323-7 1v-2l-2.187 1.438c-4.315 2.198-8.938 2.116-13.692 2.351-2.8.19-5.39.59-8.121 1.211v-2l1.938-.312L410 748c1.005-3.015 1.103-5.042 1.063-8.187l-.028-2.731L411 735l4 1c.765-3.355.765-3.355 1-7-1.293-1.964-1.293-1.964-3-3l-2 1 .625 1.688c.482 2.972-.36 4.632-1.625 7.312h-2l-1-7-4-1 1.5 2.813c2.34 5.49 2.537 11.735.82 17.449-.82 1.926-.82 1.926-2.32 4.738h-2v2h-2a57 57 0 0 1 2-6.75c1.166-3.788 1.593-7.312 2-11.25l-5-1v-3h2v-3l-1.898-.332-2.477-.48-2.46-.458C391 728 391 728 389 725c-3.066-.733-3.066-.733-6-1l1.5 1.375C386 727 386 727 386 729l3.313-.25c3.687.25 3.687.25 5.343 1.875 1.636 2.89 2.068 5.343 2.531 8.625l.481 3.266L398 745h-3l-1-3-5-1v2h-2l.219 1.836c1.847 16.672 1.847 16.672-1.094 20.789C384 767 384 767 382 767l1.063-2.437c1.158-4.401.98-8.144-.063-12.563l-2-3v-3h3v-2l-4 1v6l-3 1c.174 4.698.174 4.698 2.563 8.438 2.047 2.225 1.967 4.331 1.855 7.261-.82 4.515-3.2 8.335-5.418 12.301-3.623 6.607-5.932 12.508-7 20h-2l-.125 3.438c-.819 7.836-4.125 15.238-6.875 22.562h-2l.5-2.25c1.027-7.7 1.793-14.952-2.5-21.75v-2h-2l1-4-5-1 1.46 1.535c2.088 3.342 2.018 5.987 2.165 9.903.318 7.772.318 7.772 2.438 15.187C357 824 357 824 357 827h2v2h-2l-.332 1.715-.48 2.222-.458 2.215L355 837l-3 1-.402 2.52-.536 3.293-.527 3.269C350 850 350 850 349 853h-3l-.437 2.375C345 858 345 858 344 860l3 1v3h2l1 7h3l-1-1.875c-1.404-4.387-1.16-8.557-1-13.125h2l2 7h2l3 12h2q.253 3.343.5 6.688l.281 3.761c.13 2.118.211 4.242.188 6.364.036 2.547.745 4.017 2.031 6.187v-4c1.875.188 1.875.188 4 1 1.25 2.563 1.25 2.563 2 5h1l-.035 2.152-.027 2.785-.036 2.778c-.161 2.25-.161 2.25 1.098 3.285l1-5h2v10l1-5c3.875 1.75 3.875 1.75 5 4-.168 2.696-.612 5.324-1 8h2l-1-7 3 1c.688 2.063.688 2.063 1 4h2v8l1.688.125c7.257 2.746 10.266 12.407 13.312 18.875q1.908-2.842 3.813-5.687l2.144-3.2c2.054-3.007 2.054-3.007 3.5-5.968C414 931 414 931 416.305 930.335c4.299.066 6.896.115 10.507 2.602 7.406 10.368 7.406 10.368 7.188 17.063l1 1c.264 2.818.469 5.613.625 8.438l.156 2.392c.343 5.921.343 5.921-.781 8.17h-2l-3-7c-6.985 1.654-13.204 6.144-18.18 11.227C410 976 410 976 408 976l-.754 1.816C403.373 984.603 393.013 988.402 386 991h-3v2h-2l-.687 1.625c-1.798 3.252-3.735 5.674-6.313 8.375h-4v2l-10 4c-.297 7.237-.297 7.237 2 14-3.616.2-6.009.123-9-2-4.697-5.664-6.058-11.533-5.937-18.75 1.795-6.225 6.161-8.493 11.562-11.5 2.8-1.488 5.365-2.747 8.375-3.75l1-3c2.063-.687 2.063-.687 4-1v-2l-3.25 2.313c-3.608 2.306-6.815 3.273-11 4.125-4.021.775-4.021.775-7.266 3.042-.883 1.476-1.689 2.996-2.484 4.52l-1.984.426c-2.184.367-2.184.367-3.063 2.422l-.703 2.215-.734 2.222L341 1004h-2c-3.017-6.788-4.792-13.287-2.05-20.496 2.914-5.6 6.06-9.426 12.171-11.629l3.317-.875c3.793-1.079 6.408-1.895 9.687-4.125 5.518-3.599 12.394-4.016 18.875-3.875v2h3l1-5h2c-1.925-2.224-1.925-2.224-5-3a159 159 0 0 1-3-5l-2-1v-2l-1.875-.437C373 948 373 948 371 947v-2l-3.437-1.125a395 395 0 0 1-9.454-3.27c-6.868-2.468-13.685-4.827-20.734-6.73-7.82-2.177-12.72-4.922-18.375-10.875l-2.812-2.187L314 919v-2l-2.75-.812c-3.063-1.12-4.705-2.243-7.25-4.188-9.28-6-17.524-5.349-28-4l-3.723.46c-4.176.59-4.176.59-8.277 1.54l-1 2h-3v-2l-3.875-.562C244.52 907.103 232.29 902.416 223 895l-2 3h-3l-1 4h-2v-2h-3l-.375-1.937L211 896l-2-1 1 6 3 1v4h-2l-.437 1.938C210 910 210 910 209 911c-1.666.04-3.334.043-5 0l1-3h3l-2-13h-3l1.5 2.813C206 901 206 901 206 904h-2v2h-2l1 6-5 1-.629-1.652c-3.452-8.45-8.75-15.129-15.371-21.348l-1 2h-3v-2h-2l-1.125-2.937L173 884a129 129 0 0 0-6-1c-6.758-6.56-9.304-16.008-11-25v-4l-1.832-.295c-2.632-.856-3.295-1.732-4.86-3.978l-1.423-2-1.447-2.102a1458 1458 0 0 0-2.88-4.086l-1.271-1.837c-1.252-1.737-1.252-1.737-2.81-3.224-2.222-2.224-3.78-4.845-5.477-7.478l-1 1c.254 3.775.554 7.536.947 11.299.474 6.022.474 6.022-1.525 9.248-3.13 1.878-5.222 1.954-8.86 1.89l-3.37-.003c-3.485-.474-5.266-1.563-8.192-3.434-2.318-.557-2.318-.557-4.687-.812C101.494 847.15 96.606 844.703 92 841l-2-4 11 1 .184-2.746c.774-11.261.774-11.261 1.254-16.192l.183-1.902c.379-2.16.379-2.16 1.45-5.45 1.02-4.074.839-6.99.367-11.148-.603-6.535.01-12.094 1.442-18.47 1.236-5.795 1.34-11.338 1.096-17.246-.157-4.768.531-8.38 2.024-12.846a75.6 75.6 0 0 0-14 1c.188-1.875.188-1.875 1-4 2.563-1.25 2.563-1.25 5-2v-2c6.905-3.163 14.614-3.09 21.75-.562l2.145.835c2.215.765 4.215 1.064 6.543 1.29C135 747 135 747 137 749c.407 8.363-1.641 16.669-3.627 24.73-1.976 7.363-1.976 7.363-.13 14.465l1.632 1.93c1.667 2.006 3.035 3.681 4.133 6.055.916 2.174.916 2.174 3.992 2.82v2l3 1v2l3 1c2.02 2.333 3.826 4.79 5.672 7.262 5.982 7.035 12.179 10.328 20.766 13.613l3.083 1.219q3.733 1.472 7.479 2.906v3a701 701 0 0 1-10-3l-3.758-1.102c-7.178-2.176-13.056-4.206-18.242-9.898v-2h-2v-2h-2a94 94 0 0 1-4.125-5.375l-2.195-3.023C142 804 142 804 142 802c-2.382-1.414-2.382-1.414-5-2v2h2c1.202 1.45 1.202 1.45 2.54 3.473l1.496 2.217 1.589 2.372c5.224 7.589 10.1 13.534 18.188 18.125 5.169 3.047 8.847 7.614 12.769 12.07 2.255 2.637 2.255 2.637 4.242 4.485C181 846 181 846 181 848c2.974 1.24 5.853 2.3 9 3l-2.687-1.687c-3.156-2.107-5.775-4.477-8.313-7.313v-2h-2l-2-6c7.321-.851 13.35 2.2 20 5l-1.437-2.937c-1.852-4.261-2.26-8.463-2.563-13.063l3 1c.957 2.582.957 2.582 1.813 5.813 1.286 4.12 1.855 5.876 5.062 8.875 3.098 1.3 5.786 1.994 9.125 2.312l1 5-2.371-.656-3.066-.844-3.06-.844c-2.233-.698-2.233-.698-3.503-.656v4c2.906.74 5.822 1.417 8.75 2.063l2.422.535L212 850v-2l1.563.938c3.104 1.353 6.088 1.676 9.437 2.062l1-3-2.437-1.25C219 845 219 845 218.188 842.813L218 841l-2.812-.25C212 840 212 840 210.613 838.012c-1.455-2.218-1.455-2.218-3.988-2.664l-2.625-.285c-4.75-.77-4.75-.77-7.125-3.563C196 829 196 829 196 827h2l1.375 1.938c1.435 2.122 1.435 2.122 3.375 2.937 3.346.186 6.104-.807 9.25-1.875l1-1q-1.617-1.228-3.25-2.437l-1.828-1.372c-1.999-1.239-3.638-1.705-5.922-2.191l-2-1v-3h3v2l1.75-1.875c2.052-1.938 3.684-3.025 6.25-4.125-2.43-4.529-2.43-4.529-6.75-6.875L202 808l-1-5h3l-1-2-3 1v16h-2c-3.188-6.375-.716-15.46 1-22h2l1-4h2l-.125-3.562c-.015-4.162.813-7.503 2.125-11.438h-2l-1-9h2c1.858 3.135 2.201 5.375 2 9h2l-.5 2.375A67.5 67.5 0 0 0 208 793l1 1 7-2-.875-1.793c-3.687-7.848-3.687-7.848-3.125-12.207h2q.971 2.155 1.938 4.313l1.09 2.425C218 787 218 787 219 790c3.008 1.225 3.008 1.225 6 2l-1.062 1.5c-1.398 3.727-.588 6.598.062 10.5-1.887.03-1.887.03-3.812.063l-2.145.035C216 804 216 804 213 803l-1-5h3v2l5 1-1-6-2 1c-3.86 1.287-6.942 1.138-11 1v4a301 301 0 0 0 4.531 3.496c2.643 2.706 2.851 5.858 3.469 9.504 4.06-2.038 4.06-2.038 6-6l10 1-2 4 4 1-1-10c3 1 3 1 4.688 4.063L237 811v-8l-4-2-3 2v3l-4-1-1-5 4-2-1-2.187c-1.006-2.83-1.17-4.842-1-7.813l4-1 1 3 5-1v2h3l1 3 2 1-.062-2.437C243 790 243 790 244 789l-2-1v-3h-3l2 1v3c-5.875-1.875-5.875-1.875-7-3a86 86 0 0 0-4.562-.562l-2.504-.254L225 785l-1-3-3-1-1-14-2 1c-.652 2.025-.652 2.025-1 4l-3-1c.528-3.8 1.371-6.17 4-9l3-1c1.366-2.984 1.366-2.984 2.5-6.5 1.219-3.594 1.219-3.594 2.5-6.5l3-1 1-3.5 1-3.5 3-1v4l1.313-2.437C237 738 237 738 240 737l1-2h2v-2h3v-2l2.938-1.375c3.133-1.283 3.133-1.283 4.062-3.625h2v-2q2.49-2.51 5-5c6.297-8.396 10.918-16.983 14-27h2l2 6c3.695.95 6.305.95 10 0v2l2 1v-3l7-2c-2.12-3.18-2.539-3.455-5.937-4.562-2.806-.929-4.536-1.754-7.063-3.438l-4 2 6 3-1 3c-3.458-.288-4.784-.79-7.312-3.25-1.857-3.025-1.78-4.317-1.688-7.75l-3-2v-3a337 337 0 0 0-4.312-1.562c-.801-.29-1.602-.58-2.426-.88-2.405-.807-2.405-.807-5.262.442l-1-2-4 2 5 1-1 3h2l1-3h2c0 12.424 0 12.424-2.062 15.5-1.719 2.565-1.719 2.565-1.5 5.5l.562 2c-1.64 4.749-3.807 8.168-7 12l-1 3h-2v2l-1.875.813C247.7 720.956 247.7 720.956 246 724h-3v3c-5.292 3.077-5.292 3.077-8.875 2.688L232 729v2l-2 1c-.652 2.025-.652 2.025-1 4l-5 1-1-3-2-1v2l-7 1-.297 2.012c-.896 5.294-1.628 9.168-5.703 12.988h-2l.813-2.375c1.48-4.517 2.836-9.068 4.187-13.625h-4c-.182.88-.364 1.76-.55 2.668-.252 1.161-.504 2.323-.762 3.52l-.739 3.48c-.923 3.24-2.15 5.514-3.949 8.332-1.101 4.314-.93 7.662 0 12-1.937-.562-1.937-.562-4-2-1.884-5.098-.788-7.882 1.438-12.75 2.717-5.945 3.134-10.793 2.562-17.25-4.046-.37-4.046-.37-7 2l.254 2.336.309 3.039.316 3.023C195 746 195 746 194 748v4l-3-1v-2h-2l-.148 2.012c-.743 8.77-.743 8.77-2.852 12.988h-5l-1 2c-3.062.625-3.062.625-6 1l-.187 2.875L173 773c-2.562 1.375-2.562 1.375-5 2l2-4-3 1-1.125 2.5C164 777 164 777 161.949 777.586c-5.553.673-9.205.576-13.949-2.586v2h-12c0-8.881 0-8.881 3.625-12.937 2.768-2.895 2.768-2.895 2.25-6.688-.463-1.787-.943-3.573-1.54-5.32-.436-2.672.22-3.898 1.415-6.305 2-4.186 3.665-8.39 5.25-12.75h3l2 7 3-1h3l-2.687-1.875c-4.13-3.44-6.71-8.024-8.313-13.125.371-2.812.371-2.812 1-5 4.42-1.082 6.302-1.408 10.313.938l1.71 1.136c3.827 1.792 7.841 1.153 11.977.926l2-9-3.062-.312C167 712 167 712 163.5 710.375c-4.653-1.828-7.7-1.131-12.437.148-7.815 2.107-13.694 2.162-21.063-1.523l1 5c-2.99-.323-4.564-.548-6.687-2.75C123 709 123 709 122 706.313L121 704c-3.214-1.071-5.851-1.02-9.208-.934-16.72.406-16.72.406-22.702-4.695-5.152-5.414-8.082-11.87-11.094-18.621-.865-1.965-.865-1.965-3.121-2.5L73 677v6c-2.25.75-2.25.75-5 1-2.375-1.375-2.375-1.375-4-4-.354-3.222-.055-5.935 1-9 2.625-2.625 2.625-2.625 6-4 5.425 0 8.095 1.364 12 5 1.547 2.326 2.923 4.56 4.25 7l1.063 1.867c1.663 2.982 3.111 5.746 3.687 9.133h2v2c3.587 1.56 6.958 2.475 10.813 3.125l2.957.508L110 696v2l-5 1q2.375.039 4.75.063l2.672.035c2.36-.09 4.323-.429 6.578-1.098v-2l7 1v-2h-2v-2h-2c-.528-5.285-.528-5.285 0-8 3-2.5 3-2.5 6-4-4.368-3.054-8.557-5.308-13.625-7-4.789-1.643-7.84-3.373-11.375-7-2.221-6.664-.873-12.788 2-19 1.781-2.86 3.64-5.587 6-8h2c.487-4.559.487-4.559-1.043-8.766-1.796-2.17-3.418-3.965-5.957-5.234v-2h-2c-2.433-4.299-2.837-8.146-2-13 2.183-2.887 3.687-3.805 7.266-4.336 2.369-.1 4.414-.17 6.734.336 2 3 2 3 1.625 5.188L117 614l-2-1v4l-5-1c1.364 4.465 3.344 6.21 7 9v2h2c2.34 3.655 2.3 6.735 2 11-1 2.938-1 2.938-2 5l-3-1 .473-1.793c1.666-6.13 1.666-6.13.527-12.207-1.85-1.258-1.85-1.258-4-2l-3-2v2l1.813.688c2.91 1.746 3.867 3.186 5.187 6.312-.25 5.72-1.743 8.562-5.5 12.813-4.346 4.985-5.833 7.229-5.8 13.789.478 3.82 2.15 6.241 4.3 9.398l-.95-1.664c-2.413-5.367-2.756-11.42-.737-16.899C110 648 110 648 112 646l3 1-1.445 1.691c-1.73 2.57-2.119 4.188-2.43 7.246-.15 1.252-.15 1.252-.305 2.528.24 3.388.977 4.938 3.18 7.535 2.53.946 4.7 1.592 7.313 2.125 11.292 2.48 11.292 2.48 14.687 5.875 2.254.283 4.508.448 6.773.621C145 675 145 675 148 677c.688 2.625.688 2.625 1 5h9l.063-2.187c1.377-4.133 4.33-5.6 7.937-7.813l-1-2.562c-1.083-3.723-1.364-6.582-1-10.438 1.188-2 1.188-2 3-3 2.675.261 4.601.8 7 2l.625-2.437L176 653c3.125-.812 3.125-.812 6-1l-1.5-2.875C179 646 179 646 179 644c-2.552-1.054-5.085-2.027-7.719-2.86-6.209-1.988-9.896-3.462-13.281-9.14-3.204-8.06-2.718-16.518-.047-24.645 2.154-4.845 5.805-8.144 9.547-11.793 6.626-6.79 9.48-12 10.5-21.562l3 1c-.034 8.012-1.989 13.716-7 20a116 116 0 0 1-7.73 6.797c-5.08 4.932-6.255 10.776-6.52 17.578.098 5.917 1.688 9.987 5.813 14.313 2.653 2.042 5.363 3.11 8.5 4.25 4.918 1.83 7.094 3.66 9.937 8.062.813 2.375.813 2.375 1 4l4-1-.91-1.793c-3.07-6.38-3.07-6.38-3.153-9.832 1.538-3.438 3.498-6.603 6.063-9.375h2c-.499 2.695-1.064 4.084-2.75 6.313-1.507 2.5-1.507 2.5-.777 4.562.757 1.748 1.636 3.442 2.527 5.125 2.08-2.08 1.38-6.42 1.523-9.238.53-3.072 1.327-4.532 3.477-6.762h2l1-5h2l.25-3.562c.89-7.002 4.46-11.869 9.75-16.438 7.025-5 7.025-5 11-5v3h5l1 2 1.46-1.898 1.915-2.477 1.898-2.46C236 594 236 594 238 592l3 1v4l1.375-2 1.625-2h2l1 4 1-2h2l-3-9 4 1c5.842 9.903 3.94 23.145 3 34h-2v3c1.781.864 1.781.864 4 1 2.271-1.854 2.271-1.854 4-4l-4-2c1.049-2.622 1.65-3.794 4.125-5.25L262 613v-2c6.75.75 6.75.75 9 3-.023 2.82-.023 2.82-.375 6.125l-.336 3.32L270 626h-2l-.125 2c-1.26 4.323-3.696 7.814-6.875 11-2.2.734-2.2.734-4 1v1h4l1 2h1.898C275 643 275 643 279 645l.375-2.312C280 640 280 640 282 637h2l1 3c3.949-4.26 5.566-7.263 7-13 2-2 2-2 4.164-2.195l2.461.07 2.477.055L303 625c1.164 1.633 1.164 1.633 2 4-.977 2.805-.977 2.805-2.625 5.875l-1.719 3.207c-5.103 8.991-5.103 8.991-9.656 11.918l7 2 .188 1.813c1.133 3.05 3.058 3.575 5.812 5.187 1.313 2.188 1.313 2.188 2 4 4.66-3.066 5.855-5.587 7-11h2c1.497 5.688.335 10.418-1 16h-2l-.375 1.875C311 672 311 672 309 674l2 3c.125 2.086.125 2.086 0 4.375-.11 3.76.565 6.14 2 9.625l-2 3-.937 2.813c-1.119 3.354-2.128 6.216-4.063 9.187-3.19.976-4.972 1.514-8 0l1 2c3.767-.514 6.641-1.263 10-3h3v-2l-2-1 1-3 2.957-.77L317 697c1.276-3.06 1.276-3.06 1.688-6.687l.69-3.829L320 683c1.598-6.77 6.285-10.432 12-14h2l.75-1.875c1.478-2.512 2.69-2.886 5.25-4.125l1-3h2l.813-1.687C345 656 345 656 346.438 653.813c1.363-2.455 2.17-4.532 3-7.188 1.67-5.195 3.492-9.743 7.625-13.5 4.52-1.731 9.132-1.881 13.937-2.125l-1 3c-2.398.914-2.398.914-5.375 1.625l-2.96.727L359 637l-3 1-.55 3.254-.762 4.308-.358 2.135c-1.002 5.575-2.793 10.23-5.33 15.303h-2l-.625 1.688c-1.52 2.555-3.347 3.995-5.656 5.824-3.26 2.822-5.988 6.162-8.719 9.488l-1.582 1.684c-3.815 6.232-3.656 13.846-3.793 20.941-.577 16.044-4.895 33.914-15.625 46.375h-2l-1 3c-1.355.949-2.718 1.887-4.117 2.77-7.09 4.633-14.455 9.732-16.883 18.23a97 97 0 0 0 0 7c3.497 1.749 7.275.815 11 0 2.496-1.154 4.667-2.524 7-4h2l.855-1.738a110 110 0 0 1 2.258-4.242c3.344-6.155 5.328-12.389 7.1-19.13 1.565-5.786 2.868-8.746 8.037-11.827q1.875-1.033 3.75-2.063c5.847-3.222 8.012-6.572 10.746-12.617 1.864-3.542 3.918-5.208 7.254-7.383h3v5c1.187-3.56 1.097-6.438 1.063-10.187l-.028-3.856L351 705l3-1 .75 2.875c.936 3.212.936 3.212 3.375 4.5L360 712l1.563-2.437c3.07-3.227 5.086-3.312 9.437-3.563l.813-2.375C373 701 373 701 376 699l3.063-.437L382 698l2-3c2.164-.293 2.164-.293 4.625-.187l2.477.082L393 695l.621-2.082.817-2.73.808-2.708c.558-1.835 1.147-3.66 1.754-5.48h3l4 10 4-3c6.751-1.58 15.385-2.203 22.098-.453 4.66 1.11 10.084-.554 14.191-2.797a92 92 0 0 0 3.922-2.727C450 682 450 682 454 682l-2 10 6.738-.293c2.806.363 3.35 1.301 5.262 3.293 2.134.64 2.134.64 4.438.938 4.152.8 5.652 1.965 8.562 5.062 2.072.86 4.144 1.55 6.293 2.191L485 704l1 3 1.426-1.059 1.887-1.379 1.863-1.37c3.005-1.963 5.518-2.312 9.012-2.255L504 701c-1.45 4.11-3.511 7.433-6 11l2.875.813C504 714 504 714 506 717c1.947 1.214 1.947 1.214 4.125 2.188l2.195 1.042 1.68.77v5l2.75.688c3.699 1.493 5.03 3.066 7.25 6.312l1.617-.437c5.885-1.467 11.333-1.79 17.383-1.563v2l-8 4 1.977.297c5.533.947 9.653 1.957 14.023 5.703l1.781 2.844c2.443 3.474 4.897 5.45 8.344 7.906 7.744 5.567 7.744 5.567 8.29 8.414l.21 2.461.227 2.477L570 769h-2l-2-5c.59 8.605.59 8.605 4.813 15.75 2.576 1.54 2.576 1.54 7.187 3.25l8-8 2 1q.08 4.375.125 8.75l.05 2.5.02 2.422.032 2.222c-.26 2.414-1.123 3.963-2.227 6.106-.167 3.167-.167 3.167 0 6l1-2h2v-9l4-2-4-1v-2c6.625-1.25 6.625-1.25 10 1 4.997.974 10.067 1.48 15 0l-.062-2.875C614 783 614 783 615 781h3c1.605 1.75 1.605 1.75 3.188 4l1.605 2.25L624 789l1-3 3.75-.187c3.527-.41 4.024-.555 6.5-3.375L637 780h4l.875-2.937C643 774 643 774 645 773l-1-2.75c-1-3.25-1-3.25-1-7.25l8 1-1.062-2.687c-1.007-3.557-.681-4.804.062-8.313q.098-2.906.063-5.812l-.028-2.958L650 742h-9c2.193-4.386 3.914-5.513 8-8a439 439 0 0 0-3.187-5.312l-1.793-2.989c-2.56-3.42-5.278-4.828-9.02-6.699-2.41.999-2.41.999-5 2.438-4.804 2.562-4.804 2.562-7 2.562.615-3.995 2.706-6.745 5-10-4.555-5.143-9.91-7.955-16-11a98 98 0 0 0-6.125 1.438l-3.32.87L600 706l-1-4 3-1.812 3-2.188c0-3.979-1.412-5.052-4-8l-2.187-1.875c-2.486-2.913-2.478-5.368-2.813-9.125-.104-2.102-.104-2.102-1-4-2.304-1.358-2.304-1.358-5.062-2.25l-2.786-1.016L585 671v-3l8 1-.125-3.437c-.01-5.757 1.313-11.126 3.125-16.563-.91-2.65-.91-2.65-2.312-5.437l-1.364-2.872a142 142 0 0 0-2.492-4.851C589 634 589 634 589 631h3l4 5h3l2-4h2l.688-2.812c1.53-3.717 2.71-4.567 6.312-6.188h2a895 895 0 0 0 1.5-4.812l.844-2.708c.784-2.536.784-2.536.656-5.48h4l2 6 1.563-1.375C625 613 625 613 628.563 612.25c3.668-.935 3.668-.935 5.312-4.25 2.557-7.608 2.262-15.168 1.125-23 4.52 1.507 5.82 4.93 8 9 1.516 3.753 2 5.915 2 10h2q.04-4.5.063-9l.025-2.543A102 102 0 0 0 646 577l3 1a90 90 0 0 1 3.188 7.563l.826 2.154c.672 1.757 1.33 3.52 1.986 5.283 1.921-8.445 2.079-14.954-.273-23.32C654 567 654 567 654 564c3.312.571 4.882 1.385 7 4 2.38 6.775 3.406 13.87 4 21q1.222-3.124 2.438-6.25l1.37-3.516c1.602-4.348 2.317-7.795 2.29-12.437l-.01-2.969-.025-3.078-.014-3.125q-.018-3.812-.049-7.625m4 15v8h1v-8zm15 7 1 2Zm-16 1-.918 3.148q-.63 2.115-1.27 4.227l-.67 2.221c-1.315 4.205-2.82 7.937-5.017 11.779-2.735 5.01-2.3 9.16-1.125 14.625a367 367 0 0 0 3.438-2.812l1.933-1.583c1.884-1.613 1.884-1.613 2.629-4.605l3-1v-2h2c1.748-1.877 1.748-1.877 3.5-4.25l1.844-2.39c1.475-2.103 2.744-3.961 3.656-6.36l-1-3a783 783 0 0 0-3 4.375l-1.687 2.46c-1.486 2.028-1.486 2.028-1.313 4.165h-2c-2.295 2.178-4.473 4.432-6.625 6.75C670 600 670 600 667 601l1.496-3.613 1.942-4.7.986-2.38.947-2.295.873-2.11c1.268-3.19 1.874-5.68 1.818-9.09L675 573zm-15 1 1 11h1l.125-3.812.07-2.145c-.062-2.357-.062-2.357-2.195-5.043m30 0 1 2Zm-1 3 1 2Zm-1 2 1 2Zm-27 8-2 11h2c1.176-3.674 1.074-7.17 1-11zm-9 7-2 11 4-2-1-9zm-11 3-3 14 3 1c2.804-4.948 1.774-9.617 1-15zm17 1 1 2Zm-410 2 2 2v-2zm411 2 2 2c.414 2.164.414 2.164.625 4.625l.227 2.477L661 613h1v-10zm-431 2 1 2Zm3 1 1 2Zm18 0 1 2Zm397 0 1 2Zm9 1-2 3 1.875.375C656 610 656 610 658 612v-5zm-403 3 1 2Zm393 0v3l10 1 1 3h2v-2h-2v-2zm32 0c-1.827.856-1.827.856-3.75 2.188l-2.14 1.406L668 614l-1.86 1.156c-1.417.891-2.784 1.861-4.14 2.844v2c7.05-1.2 10.975-5.1 16-10zm-439 2 1 2Zm13 0-1 4 2 1v-5zm-43 1 1 2Zm23 0 1 2Zm16 0 1 2Zm-30 1-2 5h2l-.035 1.863-.028 2.45-.035 2.425c.001 2.43.001 2.43 1.098 5.262h-2l-1-11h-1v9h-2c1.097 5.691 2.54 10.746 5 16l1-3 2-1-2-6h2l-1-8 4-2h-5l1-11zm20 0 1 2Zm-130 1c-1.296 1.066-1.296 1.066-1.062 3.563L105 620l2 1v-7zm100 0 1 2Zm427 0-2 2 4 1v-3zm27 0 1 2Zm-425 1v9h-2l-1-2v5l1-2h2l1 2v-12zm27 0 .75 3.25c.25 3.75.25 3.75-1.687 6.063L259 626v2h-2c.447 4.479.447 4.479 3 8a369 369 0 0 0 3-4.25l1.688-2.39c1.636-2.493 1.636-2.493 1.312-6.36l2-1-1-7zm380 0 2 2v-2zm5 0-2 10 4-3-1-7zm4 0v7l3-1-2-6zm-426 1a1180 1180 0 0 0-.062 6.25l-.036 3.516c.08 2.644.312 4.732 1.098 7.234l-4 2 1.938.313L226 636l1 3h3c-.455-2.35-.927-4.69-1.477-7.02-1.249-5.323-2.004-10.536-2.523-15.98zm14 0 1 3Zm3 0v7l.375-1.937L243 619l2-1h-2zm376 0 1 3Zm-413 1 1 4Zm46 0 1 2Zm373 0-1 2h-4v2l7 1 1-5zm14 1 1 3 2-2zm-8 1-1 3h4l-1-3zm-523 2 1 2Zm122 1v6h1v-6zm407 0v5l5-1zm-426 2 1 4Zm408 0 1 2 1-2zm36 1v2c4.463 1.723 8.102 2.222 12.875 2.125l3.492-.055L673 629c-2.796-1.465-5.57-2.622-8.562-3.625-.765-.26-1.53-.52-2.317-.79-3.147-.868-5.021-.618-8.121.415m-412 0v6h1v-6zm381 1h3l-1 3h3l-1-5c-1.462-.092-1.462-.092-4 2m-401 0-2 1 1 3v-2h2zm-17 2c-.37 5.56.7 10.039 2.344 15.352.659 2.659.774 4.921.656 7.648l3-1a764 764 0 0 0-.437-4.375l-.247-2.46c-.207-2.208-.207-2.208-1.316-4.165h2l-1-4v2h-2l-2-9zm48 0 1 2Zm355 0-1 4 8-1v8h2l.5-3.812.281-2.145c.272-2.198.272-2.198.219-5.043zm-409 1 1 4Zm100-1c-2.539 1.156-2.539 1.156-5 3a76 76 0 0 0-1 5c-3.263 4.632-3.263 4.632-6 6v2h3l1 2 2-3-2-1v-2h5l5-10zm-78 3 1 2Zm15-4v5h-2l-1-3v3l-3-1 1 5 1-3h2l.375 1.813c.58 2.45.58 2.45 2.625 5.187 1.297-4.61.711-8.338 0-13zm7 4v5h1v-5zm11 0 1 3Zm392 0 1 2 4-1zm-444 1 1 3Zm404 0v2l-3 1c-.733 2.015-.733 2.015-1 4 2.756-.498 2.756-.498 5-2 .04-1.666.043-3.334 0-5zm14 0 2 3 1-3zm-424 1 1 3Zm415 0-1 3h2zm-411 2 1 3Zm52 0 1 2Zm-49 1 1 2Zm41 0 1 2Zm3 0 1 2Zm-6 1 1 3Zm-40 2 1 2Zm29 0 1 2Zm15 0 1 2Zm363 0v3Zm-410 1 1 3Zm14 0 1 2Zm400 0-.375 1.938L611 644l-2 1h2v2l2-1v-6zm-15 1 1 4 3-1-1-3zm-384 2 1 6 1-3zm19 1 1 13h1c.054-1.604.093-3.208.125-4.812l.07-2.708c-.012-2.734-.012-2.734-2.195-5.48m11 0-1 6 3-1-1-5zm-26 1 1 4Zm6 0 1 2Zm40 1-1 2c.892 2.117.892 2.117 2 4v-2h2l2-4zm11 0-1 5 4-3zm7 2v2l-1.875.438c-2.158.494-2.158.494-4.125 1.562v2h-2v2l-1.625.75c-2.51 1.261-2.51 1.261-5.187 3.188-4.78 3.092-9.544 5.207-15.188 6.062v1l8 2v-2l6-2v-2l4-1v-2l1.625-.75c2.957-1.557 5.672-3.284 8.375-5.25v-2l1.875-.75c2.476-1.456 3.076-2.628 4.125-5.25-1.462-.092-1.462-.092-4 2m319-2v6l2-1-1-5zm-350 1 1 2Zm9 0 1 2Zm345 0 4 1Zm-391 2 1 4Zm56 0c-2.277 2.815-2.277 2.815-2 6l3-1v-5zm340 0-2 2h4v-2zm-386 1 1 3Zm-47 8c-.79 2.079-.79 2.079-1 4l2.188.813C180 664 180 664 182.625 665.625c2.35 1.626 2.35 1.626 5.375 1.375v3l-3.812-1.187c-2.153-.603-2.153-.603-4.188-.813-2.05 1.21-2.05 1.21-3 3 2.925.224 2.925.224 5-1l-2 5h3l-5 6 2 3 1.813-.937C184 682 184 682 187 681v-3h2v-5l2-1 1 2 6-2-2 3v4h5v-4h2v-3h2v6l1.188-1.562C208 675 208 675 210.5 675c2.5 1 2.5 1 4.375 3.25 1.283 3.136 1.125 4.567.125 7.75l-3.875.438c-2.382.268-3.97.484-6.125 1.562l2 5-5 1-1 3c-2.375 1.063-2.375 1.063-5 2l-3 2c-7.348.765-13.454.416-20-3h-3v3l-7-1c1.292 2.584 2.167 2.643 4.86 3.559 5.412 1.704 10.751 2.14 16.39 2.504q2.883.193 5.766.41l2.54.164c3.018.448 6.225 1.144 8.444 3.363.557 5.677-.496 8.714-4 13l-2.27 2.82A857 857 0 0 1 188 734l1 2 1.293-1.39c5.128-5.034 9.828-6.843 16.703-8.715 4.42-1.317 7.54-2.966 10.379-6.707 1-3.498 1.314-5.553.625-9.188-2.744-2.468-5.788-4.208-9-6l-3-2v-2c6.537.311 10.63 1.513 16.152 5.04L224 706l2-1-3-5h3v-2l-2.371-.805-3.066-1.07-3.06-1.055C215 694 215 694 214 692l2.668.656 3.52.844 3.48.844c2.9.571 5.393.789 8.332.656l-.375-3.25L232 688c3-2.437 3-2.437 6-4l-2-4-10 2v-3h7v-2l-5-1v-2l8 1-2-1v-3l4 1-1-3 5 1v-2l9 2v-3l-2.852-.078c-7.078-.323-11.368-.65-17.148-4.922-3.107-.944-6.221-1.681-9.39-2.387C219 659 219 659 217 658c-6.253-.585-10.438-.046-16 3-2.312-.187-2.312-.187-4-1l-1-2 5.957-.488c2.458-.616 3.424-1.607 5.043-3.512q-2.186-.755-4.375-1.5l-2.46-.844c-7.624-2.311-18.257 1.37-24.165 6.344m112-6-1.375 1.938C285 656 285 656 282 657l1 3 6-2v-6zm322 1 1 2Zm-381 1 1 3Zm63 0-1 7-5 1v4h2l1-2 2.875.063c3.032.163 3.032.163 5.125-1.063l1 3 2-1-1.437 2.813c-1.608 3.099-1.608 3.099-2.563 6.187h-2l-2 5 4-1 .25-1.875c.75-2.125.75-2.125 2.688-3.312L301 672l2-1v2c3.693-.903 5.554-1.405 7.875-4.5 1.262-2.347 1.262-2.347 1.125-4.5l-1.687.875c-2.398 1.166-4.829 2.159-7.313 3.125l-.687-3.25c-1.466-4.187-2.801-5.229-6.313-7.75l-1-3zm-28 1-1 3h2zm345 0c-2.555 1.283-2.555 1.283-5 3v3h-3v2l-5-1v3l5 1 1-2 1.813-.375c2.988-.854 4.305-2.185 6.187-4.625-.136-2.219-.136-2.219-1-4m-370 2 1 3Zm9 0 1 2Zm3 0v7l2-2c-.32-2.603-.32-2.603-1-5zm4 0v5h2l-1-5zm-13 3-1 3h2zm358-1-2 2h3zm-327 2-1 2 3-1zm39 1 1 2Zm292 4c3.2 1.6 5.723.032 9-1l-1-3c-3.282 0-5.379 2.177-8 4m-324-3-1 4 3-1 1-3zm-6 3-1 2h2zm20 0-1 4 4-2v-2zm-29 1-1 2 3-1zm24 0c-1.542 1.375-1.542 1.375-3 3v2l4-1zm308.438 1.375c-1.659 1.513-1.659 1.513-1.438 3.625h3l1-5c-1.222-.11-1.222-.11-2.562 1.375M266.875 671 265 673c1.94-.276 1.94-.276 4-1l2-3c-2.244-.228-2.244-.228-4.125 2M603 669l-1 3 3-1v-2zm4 1-2 4 9-2-1-4c-2.564 0-3.83.644-6 2m-349 0v2l-2 1c2.867-.573 3.861-.861 6-3zm18.875 0-2.195.563L273 671v2l-2 1q2.157-.174 4.313-.375c.8-.07 1.6-.14 2.425-.21 2.534-.31 2.534-.31 5.262-2.415v-2c-2.21 0-3.987.448-6.125 1M72 671l-2 2 3.313.438C77 674 77 674 80 675v2h2l.25 1.938c1.328 5.42 3.66 10.426 6.75 15.062h2c-1.557-4.013-3.311-7.91-5.125-11.812l-1.633-3.52L83 676h-2v-2c-3.367-2.432-4.734-3-9-3m45 0 4 1Zm127 0 1 2 2-1zm86.438 1.375c-1.659 1.513-1.659 1.513-1.438 3.625l-1.863.684c-3.65 2.248-4.113 5.693-5.332 9.64-1.043 4.765-1.266 9.386-1.451 14.246-.679 16.127-4.822 30.799-16.342 42.285-2.24 1.898-2.24 1.898-2.012 4.145l-1.574.684C290.05 753.314 278.786 762.518 275 774c-1.044 8.142.724 15.08 3.094 22.824 2.96 10.375-1.01 20.65-5.969 29.864a212 212 0 0 1-4.738 7.867c-8.2 13.062-10.19 27.497-6.824 42.508 1.563 6.293 3.393 10.734 8.437 14.937 2.108.674 2.108.674 4 1v2c5.94 3.299 11.95 5.733 18.375 7.875 11.21 3.803 20.526 9.566 29.625 17.125l2-1-1-5 8-1v3h-4v2l5 2c2.278-2.78 2.278-2.78 1.89-5.746-1.072-3.917-2.906-6.98-5.14-10.317l-1.16-1.814c-3.184-4.86-6.864-10.214-12.59-12.123l-3 1 2 3a75 75 0 0 1 1 5l2-1-1-3c1.938 1 1.938 1 4 3 .85 2.682 1.147 5.191 1 8-1.416 2.439-2.575 2.831-5.164 3.86-4.257.21-6.8-2.132-10.086-4.548-7.655-5.362-14.907-8.764-23.805-11.585-2.327-.87-4.051-2.136-5.945-3.727h-2l-3-6h-2c-1.86-14.857-1.86-14.857 1-21 2.313-1.375 2.313-1.375 5-2l2.18-1.371c3.427-1.98 6.874-3.126 10.632-4.317l2.1-.681c1.694-.55 3.39-1.09 5.088-1.631l-1-3-1.906.473c-5.762 1.31-10.303 1.848-16.094.527-2.429-1.567-2.857-2.526-3.687-5.277-.383-3.331.272-4.98 1.625-8.035l1.386-3.16a248 248 0 0 1 3.758-7.587l1.084-2.106a240 240 0 0 1 2.154-4.051c2.439-4.656 3.391-8.517 3.68-13.784l-1-3c2.914 2.435 2.914 2.435 3.285 4.875-.733 6.997-3.735 12.146-7.285 18.125-3.224 5.64-5.696 11.411-6 18l2 3 6-1 1 2c2.473-.344 2.473-.344 5-1l1-2h4v-4l3-1 1 2c2.727-2.407 4.12-4.925 5.688-8.187.436-.902.873-1.803 1.324-2.731L305 830c-3.01-.934-3.867-1.044-7 0 7.292-19.146 7.292-19.146 11-21 2.152-6.228 2.19-11.533 1-18l-1-2c-5.533 1.341-8.784 5.552-12 10v2h-2v2h-12c-1.332-6.298-1.332-6.298.125-9.375 2.264-1.962 3.93-2.307 6.875-2.625v2l-4 1a100 100 0 0 0 0 5c1.133 1.36 1.133 1.36 4.125 1.125 2.67-.416 3.667-.896 5.508-2.918a597 597 0 0 0 3.324-4.715c3.073-3.749 6.873-6.192 10.883-8.863L312 782v-2h2c5.721-8.697 8.974-16.16 10.43-26.504.515-3.158 1.115-5.655 2.57-8.496 2.375-1.125 2.375-1.125 5-2a70 70 0 0 0 4-3l2 1 2-2h-3l5-8-2-1-.312 1.938L339 734l-3 1-1.687 1.75c-2.583 2.513-5.226 3.97-8.41 5.613-4.073 3.504-5.19 9.377-6.588 14.384-2.977 10.549-7.006 20.387-16.846 26.233-6.036 2.493-12.185 2.478-18.469 1.02-1.738-7.425.17-12.768 3.875-19.312 2.142-2.71 4.412-4.578 7.125-6.688v-2l2.695-.773c10.303-3.824 15.317-12.826 19.711-22.262 1.679-3.916 2.669-7.808 3.594-11.965l.598-2.555c1.008-5.03 1.508-9.916 1.692-15.033.727-20.042.727-20.042 7.46-26.412l2.25-2v-4c-1.222-.11-1.222-.11-2.562 1.375M121 672c2.2 2.2 4.246 3.558 7 5h4c-2.518-3.123-3.726-3.945-7.75-4.75zm117 0 1 2c2.025.652 2.025.652 4 1v-2zm-170 1-1 5 2 1 1-6zm184 0 1 3 1-3zm23 4 2 2c1.993.024 1.993.024 4.125-.375L285 678v2c2-.791 2-.791 4-2l1-3c-6.055-1.388-9.32-.491-15 2m-105-2 2 3c3 .5 3 .5 6 0l2-3zm430 0 1 5c1.542-1.375 1.542-1.375 3-3v-2zm-354 1-1 4 3-3zm57 0-2 2 4 1-.5 2.25c-.62 2.94-.62 2.94-.5 6.75l1.938.313L308 689l1 3c.137-3.752.137-3.752-.5-6.375-.557-2.924-.57-5.656-.5-8.625-2.397-.68-2.397-.68-5-1m307 0 1 3Zm-402 2 1 2Zm33 0-2 5 3-2zm58 0-1 3-8 1-2 5c2.52 1.26 3.854.919 6.625.563l2.477-.31L299 687l-1.937-.875C295 685 295 685 294 683l2.813.688c3.155.675 3.155.675 5.062-1.125L303 681zm315 0c-1.47 3.91-1.47 3.91-2 8h2l2-7zm-480 1-1.125 2.875C131 685 131 685 127.813 686.375L125 687l1 4h3l1-2c2.563-.625 2.563-.625 5-1l1 7 5-1v-2h5v5h6c.334-3.374.334-3.374 0-7-1.79-1.697-1.79-1.697-4-3l-3-5c-2.685-2.78-3.79-2.99-7.75-3.187zm117 1 1 4c1.542-1.375 1.542-1.375 3-3v-2c-2.075-.15-2.075-.15-4 1m-82 0v2l2-1zm88 0 1 2Zm-64 1c.575 3.93.575 3.93 3 7l3-1h-2l-2-6zm55 0 1 3Zm-45 1 1 2Zm10 0 1 2Zm69-1-3 1v3h7l1-2h-4zm336 1-1 7 2-1 .5-2.5.5-2.5 2-1zm-17 1 1 4h2v-4zm7 0-1 4 3-1v-3zm-423 1 1 2h5l-1-2zm24 0 4 1Zm36 0 1 2Zm16 1 1 2Zm-107 1 .691 1.758c3.101 8.426 3.101 8.426 1.309 13.242-4.008 4.654-9.209 5.145-15 6v1c6.028.362 9.574-.169 15-3 3.875-.187 3.875-.187 7 0l-3-3c1.451-4.596 1.451-4.596 3.656-6.219 3.28-1.093 5.713-.515 9.094.094l3.547.617L179 697l-3-8-4 1c-5.772.525-7.63-.414-12-4-3.21-.335-3.21-.335-6 0m87-1-2 2 3 1zm381 1v4h4v-3l2-1c-3.05-1.011-3.05-1.011-6 0m-177 3.438c-4.131 3.04-7.97 3.437-13 3.562v2l3 1-.125 2.875c-.225 3.227-.225 3.227 2.125 5.125 2.201-3.804 2.201-3.804 3-8l2 1-1.062 2.625c-1.007 3.623-.799 5.76.062 9.375l3 1v-9l6 4c.685-2.858.685-2.858 1-6l-2-3c-.195-2.262-.195-2.262-.125-4.687l.055-2.45L449 687c-1.515-.105-1.515-.105-4 2.438M185 689l-1 6 6-2v-4zm8 0-1 5 2-1zm41 0-1 7 6 1-1-4h-3zm164 0-2 9-4.375-.187c-2.418-.177-2.418-.177-4.625.187l-2 3c-2.624.985-5.245 1.422-8 2v2h13l1 3 5-1v-6h2v8h6l-1-5h-2l-2-4h-2l1-3h4c-.523-2.763-1.109-5.326-2-8zm-149 1 1 4Zm47.75-.125L295 691c2.329 1.198 2.329 1.198 5 2l3-2c-2.944-1.936-2.944-1.936-6.25-1.125M605 691l6 3-1-5c-1.84 0-3.396 1.172-5 2m22-1 1 3 3-3zm-430 1-1 4 3-3zm48 0v4l2-1zm165 0c-2.74 2.821-2.74 2.821-5 6-2.25.688-2.25.688-4 1l-1 3 7 2v-6l3 2-1 6 4 2 1-9h2l1 3c3.112-1.985 3.112-1.985 4.75-5.187L422 694h3l-2 4-1 2.125C421 702 421 702 419 704l1.438 1.438c1.954 3.206 2.006 5.743 2.156 9.44.493 2.577 1.423 3.47 3.406 5.122 1.689-1.637 1.689-1.637 3-4-.226-3.192-.226-3.192-1-6h3l1 2c.924-5.645 1.795-11.445 0-17-4.006-3.305-7.806-3.249-12.762-3.016-2.238.016-2.238.016-5.988-.859zm208 0v5h3l-1-5zm-487 1v2h-2l1 3 4-1-1-4zm493 0 1 2Zm6.813 1.875c-2.03 1.913-2.03 1.913-1.813 4.125h3l.875-2.437C634 693 634 693 636 692c-3.1-.325-3.1-.325-5.187 1.875m-327.438.625L302 696l1 3 1-3h3v-3c-2.124-.226-2.124-.226-3.625 1.5M91 694l1 3 4-1zm520 1-2 5 7-1v-3l-4 1zm14 2-1 3h2zm16 0 1 3v-2l2-1zm-500 1-1 2 3-1zm314-2a665 665 0 0 0-1.5 4.313l-.844 2.425c-.823 2.838-.994 4.586.344 7.262h2l1-3 2-1v2c1.946.59 1.946.59 4 1 1.356-1.125 1.356-1.125 1.063-4.062L463 702l1.75.625c2.77.462 3.896-.196 6.25-1.625-3.445-2.296-5.938-2.54-10-3l-1 3h-4v-4l4-1zm-215 3-1 2h7v-1zm380 0 1 2Zm17 0-2 3 2 1 2-2zm9 0v2l-3 1c3.688-.498 5.605-1.1 8-4-2.21-.105-2.21-.105-5 1m-503 1v1h5v-1zm152 0 1 4 5-1v-3c-3-1.333-3-1.333-6 0m22 0 1 2Zm-43 1-1 3c3.254 2.259 3.254 2.259 7 3l1-4zm16 0v2h-3v2l-5-2v5h3v3h-2v2l3.25.813c3.315 1.05 5.189 1.933 7.75 4.187l1-4-1.937-.812C291 712 291 712 290 709h-2v-4h4v-4zm328 0 2 2v-2zm-390 1 2 2 3-1zm88 0-2.062 2.813c-2.23 2.738-3.122 3.259-6.625 4.625-3.686 1.262-3.686 1.262-4.625 5.187L302 718l-2 1c-.595 2.045-.955 4.093-1.34 6.188L298 727l-3 1 2-5h-12l1 4h4l-4 5c3.01.934 3.867 1.044 7 0l-3 5h8v3h-2v2q-2.625.506-5.25 1l-2.953.563C285 744 285 744 281 744l-1 5-2-1 .625-1.687c.482-2.973-.36-4.633-1.625-7.313h-1v6h-2v-2h-5l1 3-3 2 1 2h-3l-1-2h-4v4l5 1-1 2h-5l2 4 4-2v4l-4-1 1 3h4v-4h2l1 5-8 1v-2c-2.709-1.354-5.01-1.065-8-1 .195 1.95.195 1.95 1 4 1.984 1.284 1.984 1.284 4 2l-2 3h8l-3-4 8 2v4q-2.375.039-4.75.063l-2.672.035c-2.36-.09-4.323-.429-6.578-1.098l-.55 1.898-.762 2.477-.739 2.46C252 781 252 781 249 783l1 7-5 2 1 6c4.08-1.302 4.08-1.302 8-3v4h-2l-1.562 3.25c-2.372 4.22-5.135 5.681-9.438 7.75-.09 5.857-.121 11.715.25 17.563l.14 2.378c.816 2.755 2.227 3.567 4.61 5.059 2.588-3.056 2.588-3.056 3-7h3c.105 5.786-.007 11.293-1 17l4-1 1 5h-2l-1-2c-2.445.188-2.445.188-5 1-1.794 2.563-2 3.831-2 7h-2v2c1.892.681 1.892.681 4 1l2-2 3.313-.875c2.795-1.138 3.586-1.938 5.046-4.637a286 286 0 0 0 2.399-6.304c1.162-2.978 2.488-5.48 4.18-8.184 8.266-13.33 12.649-23.4 9.062-39a425 425 0 0 0-1.125-4.25c-2.053-8.799-.071-16.147 2.125-24.75l.41-2.328L276 764l3-1v-2h2v-3l2.04-.617c4.033-1.884 7.02-4.57 10.335-7.508l2.023-1.78c10.006-8.91 16.306-17.487 20.414-30.283l.665-2.052c1.22-4.014 1.939-7.569 1.523-11.76zm316-1-2 2h3zm18 1 1 2 1-2zm-399 1-1 2 3-1zm378 0 1 2Zm-499 1 1 2 3-1zm343-1-1 3-5-2 2 5h3l2-6zm24 1-7 4v2l-2 1 7 1a101 101 0 0 0 3-6zm124 1 5 1v-3c-2.324-.185-2.324-.185-5 2m24-1-1 4h2zm5 3 3 1v2h-2l-1 4c2.016-.716 2.016-.716 4-2l.375-1.937C655 708 655 708 658.063 706.25L661 705v-1c-4.675-.326-7.167.294-11 3m-403-2-2 2 4-1zm169 0-2 6 1.875 1.875L420 717c.178-4.548-.002-7.88-2-12zm224-1-3 2 1 3 3-2zm-476 2 4 1Zm468 0-1 3-2 1 4 1 1-5zm-464 1c1.898 2.35 1.898 2.35 5.125 2.125L176 709c-3.088-1.765-4.233-2-8-2m52 0v2l-2 1 3 1 1-3zm10 0v1h5v-1zm41 0-1 3h2l1 2v-2h5l-1 5 4-1c-.403-2.517-.403-2.517-2-5-2.665-1.082-5.14-1.493-8-2m103 0v2h6l1 3 7 1-1-5zm32 0c.61 3.558 1.578 6.683 3 10h2c.44-4.746.44-4.746-1.375-8.937-1.58-1.245-1.58-1.245-3.625-1.063m30 0-1.25 2.625c-1.728 3.333-3.62 6.291-5.75 9.375l1 1.625c1.738 4.129 1.298 8.158 0 12.375h-2l-.805 2.082-1.07 2.73-1.055 2.708C424 743 424 743 422 746c4.386-1.196 7.367-2.196 10-6 .615-2.993.87-5.95 1-9l2 1c.316 5.26-.334 8.446-3 13 4.394-.502 6.872-1.872 10-5 .88-2.635.88-2.635 1-5h2a597 597 0 0 1-1.375 3.813l-.773 2.144C442 743 442 743 440 746l8-2-2-1 .496-1.64c.59-2.762.6-5.288.567-8.11l-.028-2.984L447 728a125 125 0 0 0-6 4v2h-3l1.063-3.187c.887-3.608.99-5.34-.063-8.813l5 5c2.192-2.982 3.034-4.43 2.813-8.187-.599-2.92-.599-2.92-2.813-4.813l-2 7h-2l.07-1.793c.104-4.545.067-8.066-2.07-12.207zm11 0c-.864 2.757-.864 2.757-1 6 1.81 2.87 1.81 2.87 4 5l1-1c-.204-4.064-.204-4.064-1-8zm18 0-2 4 3 1 1 2v-6zm16 0c-1.875 3.868-1.875 3.868-1 8l5-3c-.267-1.985-.267-1.985-1-4zm-187 0-3 2 4 2 1-2zm180 1-2 5 4 1 1-4zm185 0-1 2 6 1c-1.375-1.542-1.375-1.542-3-3zm-405 1-1 2h2zm111 1c-1.648 2.602-2 3.862-2 7h5l-1-4 4-1v3h7v-3c-6.447-2.585-6.447-2.585-13-2m281-1-2 2c.322 3.1.322 3.1 1 6h-2l2 5c2.21-3.314 2.225-4.345 2.125-8.187l-.055-2.731L647 709zm-402 1-1 3h2v-2l2-1zm147 0v7h7c-.64-2.476-.64-2.476-2-5-2.524-1.36-2.524-1.36-5-2m249 0-2 4 2 3 2-7zm-445 1 .563 2.125c.489 3.214.1 5.71-.563 8.875 2.523-1.974 2.993-2.967 3.688-6.187L199 713zm204 0 2 7 6 1c-1.261-3.889-2.453-5.894-6-8zm-222 1 .313 3.188C177 719 177 719 174.75 721.813c-2.238 1.78-4.12 3.115-6.75 4.187l3 2c2.932-.733 4.611-1.611 6.75-3.75 1.518-2.732 1.9-5.163 2.25-8.25h3v-4zm9 0 1 4Zm82 0-2 6c2.622 2.154 4.644 3.4 8 4l1-4-1.937-.875C271 716 271 716 270 714h5c-1.839-2.287-1.839-2.287-4.625-2.125zm30 0v5c1.542-1.375 1.542-1.375 3-3v-2zm55 1 .324 2.082.363 2.73.387 2.708C354 723 354 723 352.5 724.625L351 726c.233 3.15.233 3.15 1 6l-2.375.375c-2.766.416-2.766.416-4.625 2.625-.167 3.583-.167 3.583 0 7l-5 1 2 2v3l-5 2 1 4-2.375-1.562L333 751l-2 1 .508 1.758c1.346 5.161 1.656 8.192-.508 13.242v3l-4 2v2h7l3 6h5l3 7 14-3c.253 9.505.253 9.505-1.312 12.563-.926 3.282.061 4.317 1.687 7.25A176 176 0 0 0 362 808c2.66-2.66 2.714-4.273 3-8-.724-3.465-.724-3.465-1.937-6.875l-1.153-3.492L361 787h3l2 9c2.257-3.385 2.173-4.024 1.688-7.875l-.329-2.672c-.367-2.507-.783-4.985-1.359-7.453l2-1 2 6c1.908-3.175 2.16-5.106 1.625-8.75l-.336-2.422L371 770c-2.277 2.815-2.277 2.815-2 6h-2l.063-2.875c.163-3.032.163-3.032-1.063-5.125h-6l4 9h-3l-.062-2.312c-.733-3.09-.733-3.09-4.438-4.5-3.042-1.242-3.042-1.242-4.5-1.188v5h-2l-.59-2.36c-1.212-2.921-1.212-2.921-4.414-3.968l-3.558-.922c-6.398-1.71-6.398-1.71-7.438-2.75 2.313-.687 2.313-.687 5-1l1.375 1.438c1.693 1.97 1.693 1.97 5.313 1.75L349 766c-.59-2.502-.59-2.502-2-5-2.585-1.141-2.585-1.141-5.562-1.625-3.004-.602-3.004-.602-5.438-1.375l-1-3 2.555.656 3.32.844 3.305.844c2.662.732 2.662.732 4.82.656l-1-3-2.437-.375L343 754l-1-2 7-2-1-3c-2.015-.733-2.015-.733-4-1v-3l6 1 2-3c2.806-.28 4.466-.267 7 1l-1-5-5-1v-3l2-1h-2v-5h4v5h7l-1-4h-3v-3c2.375.625 2.375.625 5 2 1.313 3.125 1.313 3.125 2 6h12l1 2v-2h4c-.625-2.524-.625-2.524-2-5-2.548-.894-2.548-.894-5-1l-1 4h-2v-3c-3.228-2.152-4.284-2.2-8-2v-2l4-1-4-4-3 1v3l-4-1 .25-2.812c.092-3.252.092-3.252-2.125-5.063-2.019-1.281-2.019-1.281-4.125-1.125m280 0-1 3 4-2zm-441 1v6h1v-6zm264-1c-2.248 2.052-3.002 3.007-4 6l5 4c1.2-5.282 1.2-5.282-1-10m13 1 2 4 1-2-1-2zm-89 1c.547 2.537.547 2.537 2 5 3.053.898 3.053.898 6 1-.547-2.537-.547-2.537-2-5-3.053-.898-3.053-.898-6-1m34 0-2 6 4 2c1.43-2.862.6-4.934 0-8zm63 0v2h-2l1 4h2l1-6zm9 0 2 8 3-1-1-6zm-203 1-1 2h3v2l2-1v-2zm4 0 2 2v-2zm176 0 2 2v-2zm20 0-3 7 4 1c1.097-3.29.8-4.713 0-8zm11.813-.625L493 716v7l6-1-4-1v-4h5c-2.715-2.307-2.715-2.307-5.187-1.625M420 717c-1.176 3.674-1.074 7.17-1 11h3c.841-4.018 1.054-7.018 0-11zm80 0 1 3Zm-260 1 4 1Zm24 0v3Zm14 0v3h4v-3zm93 0 2 6h2l1 2 4-2-1-5zm94 0 1 2 2-1zm201-1-5 5c3.908 0 5.116-1.506 8-4zm-206 2-1 8h2l1 5h1c.167-4.921.248-8.503-2-13zm-270 1v2h2v-2zm202 0 2 5h6l-2-5zm58 0-3 8h2l1 6c2.63-1.944 3.056-3.205 3.938-6.437.44-3.617.44-3.617-1.875-6zm-48 1-1 6 3.375-.5C408 726 408 726 410 726l-1-4zm101 0 2 3 3-1v3h-3v2l6-1c-.276-1.94-.276-1.94-1-4-2.954-2.37-2.954-2.37-7-2m-320-4-2 10h-2v2c-4.524 1.508-9.718 1.76-14.25.25-2.16-1.543-3.905-3.346-5.75-5.25-2.954-2.37-2.954-2.37-7-2 .557 4.597 2.207 8.338 5 12 3.945 2.52 8.438 2.659 13 2 6.578-1.983 11.205-6.368 15-12 .982-1.987.982-1.987 1-4zm6 5 1 2Zm72 0c.113 1.959.113 1.959 1 4 2.49 1.297 2.49 1.297 5 2v-3zm165 0-2 9h-4l-2 9h-2l-2 7c5.613-2.613 5.613-2.613 9-7.562 1.336-3.378 1.336-3.378 0-6.438l1.875-.187c2.34-.64 2.34-.64 3.438-3.063.752-3.011.531-4.795-.313-7.75zm239 3c2.667 1.333 4.167.671 7 0l-1-3c-2.762 0-3.893 1.314-6 3m-317-2-2 7c1.646-1.228 1.646-1.228 3-3-.228-2.163-.228-2.163-1-4m118 0 1 4 2-3zm181 0 3 1v2l7 1 1-2-5 1v-3zm-376 1-2 5 6 1 2-6zm9-1-2 2c.319 2.108.319 2.108 1 4h6c-.781-2.496-.781-2.496-2-5zm-63 2 4 1Zm12 0v1h5v-1zm262 0v9l4-1-1-8zm7 0v5l3-1v-5c-1.224-.075-1.224-.075-3 1m-240 1v2l2-1zm227 0 3 3v-3zm-29 1-1.187 3.625c-1.578 4.278-3.82 6.977-6.813 10.375v2c2.867-1.285 4.976-2.571 7-5v-2l3 1 1-10zm16 0-1 2c.894 2.61.894 2.61 2 5l3-3-1-3zm188 0v2l4-1zm-318 1 1 2Zm139 0v2l2-1zm187 0-2 2 1 3 7-2v-2c-2.9-.678-2.9-.678-6-1m-407 1c3.203 2.834 5.78 3.52 10 4-3.41-3.176-3.41-3.176-7.812-4.25zm249 0-2 3 2 2 1-3 3-1zm-254 0-6 3v2l-5 1v1l10 1v-2l2.875 2c2.787 2.18 2.787 2.18 5.125 2 .418-2.373.418-2.373 0-5-2.34-1.754-2.34-1.754-5-3zm130 1 2 7 5 1c-.03-2.416-.03-2.416-1-5-2.967-1.86-2.967-1.86-6-3m79.938 1L464 733l2 1c-.75 6.625-.75 6.625-3 10h2c-1.152 2.468-2.048 4.048-4 6 1.439-.087 2.876-.196 4.313-.312l2.425-.176c2.704-.612 3.665-1.26 5.262-3.512.36-2.054.36-2.054.188-4.187L473 738l-2 1v2h-4l1-3 2-1-1-8c-1.36-.116-1.36-.116-3.062 2M654 730l1 2Zm-176 1-.375 1.875C477 735 477 735 475 737c.32 2.603.32 2.603 1 5h2l3-9zm24 0c-.21 4.14-.21 4.14 1 8h4c-.547-3.375-1.055-5.082-3-8zm-221 1-1 4h6v-4zm235 0v3l4-1zm142 0-1 3 4 1v-4zm-386 1 2 4h3v-4zm189 0-2 5h-2l-.562 2.25c-2.047 3.915-4.526 4.794-8.438 6.75v1c4.308.422 6.293.563 9.75-2.187 2.98-3.69 2.98-3.69 5.25-7.813-.213-2.742-.213-2.742-1-5zm36 0v2l-3 1 6 13c2.293-3.605 2.293-3.605 1.625-6.25L501 741h-3l1.063-2.312c1.26-2.736 1.26-2.736-.063-5.688zm-318 1 1 2 1-2zm181 0 2 7h5l-1-5zm-95 1 1 5h5l-1-4zm104 0-1 7c3.815 1.467 6.29.433 10-1l-2-5zm11 0v6l6 1-1-6zm108 0c.697 4.459 2.282 8.456 3.938 12.625 4.446 11.662 5.27 20 3.062 32.375-1.443 10.258 4.893 18.563 10.781 26.418 2.84 3.305 5.97 5.815 9.442 8.426 3.284 2.55 6.347 5.277 9.402 8.093l1.69 1.557a111 111 0 0 1 8.935 9.381c5.915 6.843 13.916 11.913 22.75 14.125a62 62 0 0 0 4-1l-1.605-.87a2410 2410 0 0 1-7.207-3.942l-2.526-1.37-2.432-1.338-2.237-1.221c-3.809-2.406-5.812-5.446-8.255-9.198-4.841-7.327-9.382-11.725-17.738-15.061l1-6 6-1v2h2v2l-6-1 1 3q3.49.57 7 1c1.258-1.067 1.258-1.067 1.438-3.5-.47-3.753-1.08-4.564-3.313-7.437-3.736-5.177-4.02-10.095-4.633-16.329-.694-5.27-2.435-9.864-4.492-14.734q-1.002-2.5-2-5c-1.028 3.17-.946 5.088-.004 8.266l.693 2.449 1.485 5.023c1.77 6.256 2.942 11.914.826 18.262l-2 1v2h-10l-1-3h-2c-5.122-12.574-7.219-23.433-5.375-37 .492-3.885-.058-6.344-1.625-10l-.816-2.273c-2.255-6.132-5.138-11.573-9.184-16.727zm22 0v3l5-1c-2.382-1.414-2.382-1.414-5-2m142 0-2 3h3zm-132 1-1 2h2zm7 0-1 3h2l1-3zm-283 1c-1.895 5.684-1.147 10.498 1 16l4-2c.68-5.273-1.752-9.394-4-14zm97 0-1 2h2zm142 0-1 4 3-3zm181 0 1 3 4-3zm-415 2v3c2.268 1.844 2.268 1.844 5 3l3-1v-5c-3.287-.8-4.71-1.097-8 0m404-1 2 3 3-3zm-373 1v2l3.875.563 2.18.316c2.026.29 2.026.29 3.945-.879v-2c-3.695-.95-6.305-.95-10 0m235 0c-2.61.894-2.61.894-5 2l1 5 5-1 1-5zm5 1-1 6 5-3-3-1zm6 0 1 2Zm-287 1c-3.388 4.489-3.388 4.489-4 10h-3l-1-2c-2.287 5.651-2.029 9.217.063 14.875L232 766h2c1.478-2.957 1.06-5.742 1-9h-2l-1-5 2.75 1.063c3.363 1.264 3.363 1.264 7.25-.063l-2-12zm21 0-1 4 6 2 1-4zm273 0-1 2h3v2h10v2l2 1c.625 2.563.625 2.563 1 5l-2 1 3 2c1.188 2.625 1.188 2.625 2 5l5-1-3-1v-3h5a1716 1716 0 0 0-2.812-3.312l-1.583-1.864C551.4 748.316 551.4 748.316 549 746h-2v-2c-6.806-2.6-6.806-2.6-14-3m126 0 1 2 3-2zm-487 1v2l2-1zm161.438 1.313c-1.762 1.698-1.762 1.698-1.438 4.687l3 1 1-7c-1.212-.107-1.212-.107-2.562 1.313M504 743c-.733 3.066-.733 3.066-1 6 2.756-.498 2.756-.498 5-2 .04-2 .043-4 0-6-1.462-.092-1.462-.092-4 2m-357 0 2 2v-2zm15 0-1 5h3l-1-5zm4 0v5h2l1-4zm23 0 1 2Zm171 0 1 7-3 1 1.438 1.375C361 754 361 754 362 756l2.5.5 2.5.5 1 2-1-7-5-2v-2l8 1c-.425-2.03-.425-2.03-2-4-2.652-.985-5.205-1.46-8-2m126-1-3 2v4c-3.967 1.803-7.682 2.492-12 3l-1 3c2.771 1.386 4.933 1.188 8 1l3-2v-3l1.813-.875c2.38-1.172 2.38-1.172 5.187-3.125zm-329 2-1 3h2zm193 0c.547 2.537.547 2.537 2 5 3.053.898 3.053.898 6 1-.188-2.445-.188-2.445-1-5-2.873-2.107-3.533-2.156-7-1m125 0v4l5-2v-2zm189 0v4l4 1c-.267-1.985-.267-1.985-1-4zm-477 1 1 2Zm187-1-2 2 3 6h2l1-7c-1.892-.681-1.892-.681-4-1m147 3v5l5-1 1-4 4-1c-4.054-1.158-6.218-.837-10 1m134-2-1 4h2v-2h2v-2zm-546 2 4 2v-2zm76-9-1.102 1.39c-4.682 5.716-9.493 9.948-16.898 11.61-5.6-.336-10.94-1.986-16.328-3.477-2.759-.768-2.759-.768-5.672.477l-1 3c5.602 2.062 10.993 3.782 17 4l3.332.148c7.065-.003 7.065-.003 13.242-3.046A53.6 53.6 0 0 0 183 745l1.77-2.672L186 740zm65 9c.64 2.032.64 2.032 2 4 2.555.812 2.555.812 5 1l1-5zm260 0c-2.408 3.512-3.366 5.727-3 10l3-1 1-6h3v6c2.12-1.087 2.12-1.087 4-3 .334-3.126.334-3.126 0-6l-2.875.563C512 748 512 748 510 747m161 0v3h6c-1.312-1.562-1.312-1.562-3-3zm-556 2 1 2 4-1v-2c-2.925-.224-2.925-.224-5 1m417-1-3 2v2c2.709 1.354 5.01 1.065 8 1zm-408 1 1 5 3-3zm246 0 1 3Zm118 0v2l-5 1v4l-1.937.375L479 757l-1 2c1.736.874 1.736.874 4 1 2.874-1.805 4.644-3.013 5.813-6.25L488 752h2v-3zm171 0-1 3 3 1 1-4zm-331 1c-1.506 3.227-2.3 6.332-2.937 9.813C323.133 769.65 319.16 776.04 313 784a105 105 0 0 0 4 5h2l.332-1.934.48-2.504.458-2.496L321 780l3-1c.526-1.974 1.043-3.951 1.469-5.95.694-2.68 2.085-4.7 3.531-7.05 2.41-5.965 1.758-10.036 0-16zm-199 1v2h5l-1-2zm54 1 1 2Zm167 0 2 6c2.345.77 2.345.77 5 1 1.835-1.334 1.835-1.334 3-3l-1-2c-2.118-.687-2.118-.687-4.562-1.125l-2.504-.508zm152 0v4h2v-4zm-386 1-1 3h5v-3zm421 0v3h-6c-1.792 5.166-2.12 8.51-1 14 2.537-.547 2.537-.547 5-2 .898-3.053.898-3.053 1-6l-1 2c-2.062.625-2.062.625-4 1l1-1.75c1.27-2.449 1.27-2.449 1-6.25h3l2 4 1-3h2l-2-5zm126 1 1 3 3-1v-3c-2.075-.15-2.075-.15-4 1m-292 0c-1.121 6.08-1.222 9.51 2 15 .78 2.314 1.385 4.634 2 7 2.368-2.368 2.585-3.7 3.25-6.937l.578-2.653c.438-2.674.438-2.674-1.828-5.41v3h-2l.063-3.312c.122-3.632.122-3.632-1.063-6.688zm283 0 2 2h3v-2zm-543 1v9h1v-9zm70 0 1 2Zm62.938-.125-3.286.492L238 756l-1 2 13 3 2-7c-2.743 0-5.352.455-8.062.875M253 755v4h4v-3zm237 0a523 523 0 0 0-4 5 98 98 0 0 1-3 3c3.871-.574 6.082-2.487 9-5l-1-3zm31 0v2l-5 1 1 7 2-1 .5-2 .5-2 2-1v5c3.726-1.119 3.726-1.119 6-4 .04-2 .043-4 0-6-2.621 0-4.51.313-7 1m132 0 1 3Zm-529 1c-1.313 1.086-1.313 1.086-1.098 3.723l.035 3.34.028 3.347L123 769l1-4h3v2l5-1-1-3h-5l-1-7zm102 0c-2.528 3.792-2.224 6.809-2.125 11.188l.027 2.271c.024 1.847.06 3.694.098 5.541h4c.095-6.433.153-12.658-1-19zm318 0 1 2Zm-33 2c-2.117.892-2.117.892-4 2v3h-2l-1-3-1 5 3-1v3c2.763-.523 5.326-1.109 8-2-.342-2.97-.342-2.97-1-6zm-394 1-2 3h5l-1-3zm11 0v2l5-1v-1zm364 0-.75 1.813c-1.414 2.473-2.9 3.62-5.25 5.187l.638 1.789C487 770 487 770 486.15 771.708l-1.354 1.675-1.473 1.847-1.574 1.895-1.527 1.918c-2.316 2.862-4.12 4.888-7.223 6.957v2l-1.8.773c-6.002 3.347-9.29 10.284-12.397 16.175-3.75 7.108-7.118 12.043-13.932 16.67L443 823v2c11.744-4.058 18.286-16.682 24-27v-2a299 299 0 0 1 8.875-3.437C479.64 791.16 483.32 789.61 487 788c-3.133-1.044-3.99-.934-7 0 .423-1.484.864-2.962 1.313-4.437l.738-2.497L483 779l3-1 1.438-2.062c.515-.64 1.03-1.28 1.562-1.938h4c1.107-4.429 1.223-8.46 1-13zm171-1-4 2 5 1zm-305 2 2 6 8-1c-.991-2.627-.991-2.627-3-5-3.626-.417-3.626-.417-7 0m295 0 2 8-3 1 1 2h5l-1-7 2-1v-2zm-415 1-1 5 5 1v-5zm113 0-1 6 3 1c2.19-1.372 2.19-1.372 4-3a91 91 0 0 0-4-4zm188 0-.375 3.313C538 768 538 768 536 771l9-1v7l4-1v-2l2-1h-4v-4h4v3h2l.938-2.812L556 763l2-1c-3.558.61-6.683 1.578-10 3l-2-4zm25 0 1 2Zm-319 1v5l7 1c-.625-2.524-.625-2.524-2-5-2.548-.894-2.548-.894-5-1m-135 2v5h1v-5zm555 0 2 5 2-4zm-551 3v3l5-1 1-4c-3.185-.277-3.185-.277-6 2m445-2-1 2 4 1v-3zm-39 2 3 5 3-1 1-6c-2.353 0-4.794 1.249-7 2m-151 0 1 2Zm141.938 1.875c-2.163 1.892-2.163 1.892-1.938 4.125l-2 1c3.053.981 4.947.981 8 0l-1-7c-1.341-.112-1.341-.112-3.062 1.875M647 767v2l2-1zm14 0v4l3-1-1-3zm-539 2 1 3Zm4 0v3l4 1v-4zm109-1-5 1 2 12h5l-2-5h-2v-3l6.055.781c1.95.256 1.95.256 3.945.219v3l-5-2c.498 2.756.498 2.756 2 5h5l-2-11h-4v2h-3zm268 1-1 5c2-.791 2-.791 4-2l1-3zm-349 1 1 2 1-2zm92 0 1 8 3-4 2 3 1-7zm307 2 1 2.063c1.173 3.445 1.142 6.321 1 9.937 2.97-.342 2.97-.342 6-1l1-2 3-2-7-1-.812-2.437L556 773zm-436 0-2 1 1 3h2zm413 1v6l4-2v-5c-1.369-.053-1.369-.053-4 1m8.938.875c-2.163 1.892-2.163 1.892-1.938 4.125l4-1 1-5c-1.341-.112-1.341-.112-3.062 1.875M650 773l-1 4h5zm5 0v5h5c-.669-3.113-.669-3.113-3.062-4.187zm6 0 2 4h4l1-3c-1.125-1.356-1.125-1.356-4.062-1.062zm-135 1-1 5 2 1v-6zm35 0v2l3-1zm-437 1v2h5v-2zm366 1-2 3 4-1v-2zm21 1v2l6 1-1-5c-1.84 0-3.396 1.172-5 2m-184 0-.312 1.938L326 781l-3 1v4h3l1 3 .953-1.46c4.25-6.275 4.25-6.275 8.047-7.54-2.36-2.097-3.546-2.97-6.75-3.187zm176 0v5l2-1v-4zm41 0c-1.604 3.508-2.22 6.144-2 10l4-2c.167-2.917.167-2.917 0-6zm7 0-2 1c-.29 2.025-.573 4.052-.754 6.09C548 786 548 786 547 788h2l1 6 5-1-1.625-1.875c-2.042-4.64-.66-8.365.625-13.125zm-326 1v4h6l-2-4zm23 0 1 2 1-2zm-134 1v2h3v-2zm394 0-3 6 6 2 3-3c-1.375-1.542-1.375-1.542-3-3h-2zm-387 1v1l2.375.313C126 782 126 782 128 785v-5zm444 0c.114 1.46.242 2.917.375 4.375.07.812.14 1.624.21 2.46.244 2.368.244 2.368 2.415 4.165l4-5c-3.175-3.426-3.175-3.426-7-6m80 0-1 3-2.875.188L638 784c-1.453 2.463-1.453 2.463-2 5l-3.187-.812c-3.949-.64-3.949-.64-6.563 2.25L624 793h-3l.438 2.563A457 457 0 0 1 623 806h-2v3l4 2c1.064-4.02.761-6.942 0-11a98 98 0 0 1 0-5h2l1 3c.597-2.763 1-5.16 1-8 2.972 1.125 5.334 2.223 8 4l1-3h2c-.573 2.867-.861 3.861-3 6l1 3c.964 3.339 1.047 6.317.938 9.8.117 4.148 1.137 8.168 2.062 12.2 2.687-2.103 2.687-2.103 5-5-.08-3.953-.798-5.696-3-9h-2l.625-2.75c.388-3.36.18-4.49-1.625-7.25h5l-.437-1.687c-.59-2.428-1.085-4.861-1.563-7.313l-.562-2.812L642 784l7 1c-1.309-3.122-1.309-3.122-4-5m6 0 1 4 4 1-1-3h-2v-2zm-165 1-1 2 4-2zm42 0-2 2c.202 3.144.202 3.144.875 6.625l.617 3.602L528 796h3l1-7-4 1 2-2.812c2.266-2.984 2.266-2.984 2-6.188zm7 0-2 7h2l-2 10c2.537-.547 2.537-.547 5-2 .898-3.053.898-3.053 1-6h-2l3-9zm123 0 1 4 4-1c-1.375-1.542-1.375-1.542-3-3zm-74 1a210 210 0 0 0-4 5l3 2-1 9 2-1c1.55-4.806 1.087-10.008 1-15zm-341 1 2 1 1 3 1-2-1-2zm97-1c-2.108.319-2.108.319-4 1l1 5h5v-4zm177 1a159 159 0 0 0-3 5l5 1-1-6zm148 0 1 8-1.812-1.5c-2.158-1.783-2.158-1.783-5.188-1.5v3l1.813.625c2.997 1.884 3.8 4.186 5.187 7.375 2.434-2.434 2.411-3.515 2.75-6.875l.297-2.617c-.051-2.73-.648-4.195-2.047-6.508zm-546 1 1 2 1-2zm-7 2v2h3l1-4c-1.462-.092-1.462-.092-4 2m219 0-1 4h5l1-2zm224 0 1 3Zm3 2 1 3 4-2v-3c-2.324-.185-2.324-.185-5 2m-210 2 1 2c1.895.465 1.895.465 4.063.625L357 793v-6c-4.096-.341-5.928.27-9 3m228-3v3l-4-1-2 5h2v-3h3l-1 4c2.993-1.098 3.846-1.677 5.25-4.625L580 788zm41 0-1 6h-2l-1 4h3l-.945 2.23-1.18 2.957-1.195 2.918c-.8 3.408-.275 4.844 1.32 7.895l1-2h2l-1-8 4 2a348 348 0 0 0-.375-4.25l-.21-2.39c-.43-2.446-1.201-4.208-2.415-6.36h3l-1-5zm28 0v4h2l1 3 2-1c-.195-1.95-.195-1.95-1-4-1.984-1.284-1.984-1.284-4-2m7 0-.062 3.875-.036 2.18c-.028 2.027-.028 2.027 1.098 3.945h3c1.2-5.282 1.2-5.282-1-10zm-531 1-4 4 1 2 4-2zm3 0 1 4 3-1-2-3zm188 0q.465 2.657.938 5.313l.527 2.988c.492 2.78.492 2.78 1.535 5.699h3c2.427-2.619 2.427-2.619 3-6h2l1 4 2-10-4-1v5l-5.273-3.125c-1.702-1.026-1.702-1.026-3.727-.875zm179 0-2 3 3 1zm13 0 2 6c1.542-1.375 1.542-1.375 3-3v-2zm36 0-1 2h3v4l5-1v-5zm-428 3-1 3h3v-3zm228 0v7l7-1-1-6c-3.05-1.011-3.05-1.011-6 0m172 0c-1.765 3.088-2 4.233-2 8 2.848 2.367 2.848 2.367 6.188 1.625L519 800l1-5-6 2 1-2c2.563-.625 2.563-.625 5-1l-1-2a109 109 0 0 0-7-1m54 0-2 7 4-1 1-4h-2zm-330 1 1 2Zm250 0 1 2Zm110 0v3h3l1 2 5-2v-1h-8zm-488 1v8h1v-8zm123 0 1 3 3-3zm101.438-.5-2.504.281L328 793l-1 5 3-1-1-3h2l2 5 5-2v-5c-1.863 0-3.714.292-5.562.5M555 793v3h2l1 4 2-1v-2h-2l-2-4zm7-1-2 1 1 3 2-1zm-80 1-4 2v1h6zm5 1 1 3h4l-1-3zm144 0 1 5 3 1-1-5zm28 0-2 5a181 181 0 0 0 4 4h1c.25-3.416.25-3.416 0-7zm-530 1v4l3-1zm445 2c-.905 1.952-.905 1.952-1 4l1 2 4-1 1-7c-1.992 0-3.354.971-5 2m20-2c-1.296 1.066-1.296 1.066-1.062 3.563L593 801l2-1c.656-2.527.656-2.527 1-5zm15-1-2 1v3l6 3v-4h-3zm39 1-.312 1.875C647 799 647 799 644 801c-.25 3.084-.25 3.084 0 6h2l3 10c3.053-3.631 3.053-3.631 4-7-.998-3.07-2.199-5.298-4-8l2-1v-5zm-530 1 2 3 1-3zm119 0v3h8v-1zm313 0v5c2-.791 2-.791 4-2l1-3zm-436 0-3 3 2 1 2-1zm10 1-2 4 3-1 1-3zm360 0-1 3 4 2-2-5zm8 0v3l-2 1 4 4-1-8zm47 1-1 1q-3.493.553-7 1l3 7 1-3 5-1 1-5h2v5c3.224-1.67 3.224-1.67 3.688-4.625L547 796c-2.9 0-5.29 1.02-8 2m-68 0-2 4 5 2-2-6zm4 0c1.156 2.539 1.156 2.539 3 5 2.591.887 2.591.887 5 1l-1-2h-2l-1-3c-2.015-.733-2.015-.733-4-1m126 0q-.04 3.188-.062 6.375l-.036 3.586c-.117 2.958-.117 2.958 1.098 5.039h2v-8h2v2h3l1-5-3-2-2 3-3 1 2-6zm-32 1-2 3h3zm84 0c.553 4.03 1.156 8.02 2 12 2.274-2.718 2.274-2.718 1.758-5.262l-.633-2.426-.617-2.449L655 799zm-327 1-1 3 3 1 1 5 4-1c-.03-2.416-.03-2.416-1-5-2.967-1.86-2.967-1.86-6-3m19 0-2 2 2 4h6l-1-5c-2.397-.68-2.397-.68-5-1m151 0 1 6 3-1a159 159 0 0 0-3-5zm102 0v2c-.71.182-1.42.364-2.152.55l-2.785.763-2.778.738L588 805l-1 3-4-1v2l6 1v9h3l1 3 1-3h2l1 4 2-1v6l1-4h2l1 3v-5h2v2h2l1 4 2-1v2c2.895-.3 3.838-.81 5.75-3.062 1.657-3.895 1.464-6.727 1.25-10.938l-2-1-1.312 2.438C612 819 612 819 609 820c-1.667 1.5-1.667 1.5-3 3v-7l-6 1-1-6h-3l1.5-2.687c1.444-3.189 1.802-4.895 1.5-8.313zm29 0c.344 2.473.344 2.473 1 5l2 1v-6zm-306 1 1 2 1-2zm14 0v7l6-1-1-5zm-201 1v3h2l-1-3zm106 0 1 4h3v-2l3-1v-1zm-128 1v5l5-1-1-5c-1.369-.053-1.369-.053-4 1m208 0c-6.127 6.97-9.284 13.657-11.695 22.57-2.703 9.91-7.093 17.189-15.305 23.43l3 2c10.519-7.116 13.59-19.222 17-30.75 3.515-11.594 3.515-11.594 9-15.25zm233.75-.625-3.203.21c-.84.138-1.681.274-2.547.415l-1 2h3l-2 9h2v-3l1.875-.125L554 810c1.305-2.996 1.305-2.996 2-6h3l-1 5c3.83-1.453 5.12-3.429 7-7-3.769-.042-7.49.106-11.25.375M572 803l-2 4 4 3 1-2c-.894-2.61-.894-2.61-2-5zm9-1c-3.224 1.67-3.224 1.67-3.687 4.625L577 809l5-3zm53 1c-1.015 4.102-1.015 4.102 0 8h2c.77-2.345.77-2.345 1-5-1.334-1.835-1.334-1.835-3-3m-512 1 2 4 1-4zm7 0-2 5h3l1 2v-7zm183 0v5l2-3zm155 0-1 2h2l1 3 5 1v-4zm-359 1 1 4Zm369 0-1 2 4 6 3-1-2-1-2-5zm65 2a180 180 0 0 0-1 6l-2 1 .125 2.813C539 820 539 820 537 823c4.833-.414 6.827-2.464 10-6l-1-3-5 3v-3l1.875-.75c2.52-1.483 3.137-2.534 4.125-5.25v-3c-2.324-.185-2.324-.185-5 2m24-2-1 3h5l-3-1zm-244 1-1 3h4v-2zm167 0v3h3l-1-3zm-25 1-1 3 5 2a159 159 0 0 0-3-5zm18 0 1 4h4l-1-4zm53 1 1 4h2l2-6c-2.324-.185-2.324-.185-5 2m-400 1-2 2v3l3-1zm210 0 .367 1.652.508 2.285.555 2.485q.55 2.481 1.078 4.969c1.077 5.025 2.179 9.982 4.492 14.609 1.804-3.833 2.44-6.768 2-11l-1.5-2.312c-1.917-3.435-1.7-5.94-1.508-9.797L351 810c-1.066-1.296-1.066-1.296-3.562-1.062zm151 0 3 2 3-1zm-357 1v3h2l-1-3zm200 0c-1.49 3.874-.32 6.187 1 10 .442 2.664.722 5.312 1 8h2l-1 3 .188 2.5L342 836l-1.992 1.332c-2.247 1.501-2.247 1.501-2.434 4.086l.113 2.77.106 2.937c.263 3.658.66 7.248 1.207 10.875h-2l-2-11h-9c.25 5.292.25 5.292 3.5 9.25L332 858l1 3-2.562-2.375c-3.317-2.794-6.234-3.7-10.438-4.625l-1 4 5 2-1 8 2-1v-2h2l1 3v-4l2.375.188L333 864l2-3c3.125-.187 3.125-.187 6 0 3.376-5.922 3.707-13.145 2.063-19.687L342 838h3l1 14h1c1.673-7.589 2.85-15.219 2-23l-2-2a154 154 0 0 1-2-7l-4-1v-3l3-1-2-5zm229 0-1 8 5-3-2-5zm7 3 3 2 2-5c-1.968 0-3.505 1.843-5 3m33-3c-.692 1.847-.692 1.847-1 4l2 3h2c1.333-2.892 1.333-2.892.063-5.187L610 810zm12 0-2 5 3 3 2-5zm9 0-2 4 4 1v-5zm-517 1 4 2v-2zm197 0-1 2h2zm254-1c-2.61.894-2.61.894-5 2l1 5 5-1 1-5zm-441 2 1 2Zm5 0 2 5 2-1-1-5c-1.224-.075-1.224-.075-3 1m191 1-1 3h3v2h6c1.011-3.05 1.011-3.05 0-6-3.044-.082-5.072.024-8 1m11.813-1.062c-.599.35-1.197.7-1.813 1.062l2 4h7c-.781-2.496-.781-2.496-2-5-2.892-1.333-2.892-1.333-5.187-.062M461 812l-4 7 3 1v-4l2 1c2 .04 4 .043 6 0-.64-2.032-.64-2.032-2-4-2.555-.812-2.555-.812-5-1m15 0v5l2-1-1-4zm-6 1 3 3 1-3zm80 1v5c1.959-.113 1.959-.113 4-1 1.297-2.49 1.297-2.49 2-5-3.776-.298-3.776-.298-6 1m-431 0v5h1v-5zm4 0v6l4-1zm99-1-5 3c1.2 3.128 1.2 3.128 3.938 4.875 2.375.352 2.375.352 5.062-1.875v-3c-1.94-1.705-1.94-1.705-4-3m271 1 2 1 1 3v-2l3-1zm133 0c-1.011 3.05-1.011 3.05 0 6l2-1-1-5zm9 0c-.677 3.403-.677 3.403-1 7l2 2c2.152-3.228 2.2-4.284 2-8zm-529 1 1 3Zm4 0 1 4h5v-3zm34 0v6l3-1-2-5zm89 0v3Zm-93 1c-1.765 3.088-2 4.233-2 8l3 1c1.108-3.325.845-5.622 0-9zm392 0c1.309 3.122 1.309 3.122 4 5l1-6c-1.72 0-3.342.572-5 1m47 0 1 2Zm-444 1a125 125 0 0 0-3 4l4 4v-8zm102 0-1 2h2zm70 0 1 4Zm260 4 1 6c3.775-1.258 5.462-2.968 8-6-.045-2.275-.045-2.275-1-4-3.282 0-5.379 2.177-8 4m-462-3v6h1v-6zm124 0v2h-2v2h-2v2c2.788 1.033 3.868 1.045 6.75.063L234 823l-1.5 1.375c-1.726 1.501-1.726 1.501-1.5 3.625l8 2v-3h-3v-4l2-1c-2.647-1.46-3.894-2-7-2v-2zm87 0c-.677 3.403-.677 3.403-1 7l2 2 4-2c-1.25-3.653-1.671-4.78-5-7m140 1 1 6 3 1 1-3-1.937-.312L457 822zm104 0-1 4 5-1v-3zm25 0 1 2Zm3 0 1 4Zm34 0v2h-2l-1.375 2.813C617 827 617 827 615 830v3h2v-3l1.813-.25c2.888-.99 3.714-2.1 5.187-4.75.251-2.668.251-2.668 0-5zm9 0 1 2Zm-423 2c1.538 2.208 1.538 2.208 4 4 3.694-.146 3.694-.146 7-1-1.799-2.56-1.799-2.56-4-5-3.106 0-4.353.54-7 2m116-1-2 2 2 4h4v-5c-1.892-.681-1.892-.681-4-1m9 0-2 2v4c2.815 2.277 2.815 2.277 6 2l1-6zm131 0v3h4v-3zm84 0 1 2Zm33 0 1 2Zm-472 1a100 100 0 0 0 0 5c1.066 1.296 1.066 1.296 3.563 1.063L115 827l1-5zm467 0-1.75 2.938c-2.25 3.062-2.25 3.062-5 3.937L567 828l-1 3 6 3c2.201-3.804 2.201-3.804 3-8h2l1 3 3-1v-2h-2l-2-5zm-270 0-3 2v2l4-1zm233 4c1.152 2.468 2.048 4.048 4 6v-3l3-1 1-5c-2.61 0-5.64 1.97-8 3m10-3-1 7c5.106-3.027 5.106-3.027 8-8-2.621 0-4.51.313-7 1m81 0v2h-2v2l3-1zm-510 1 1 4Zm3 1v2h6v-4c-2.463 0-3.852.855-6 2m23-1c-1.648 1.752-1.648 1.752-3 4 .217 2.208.217 2.208 1 4 1.648-1.752 1.648-1.752 3-4-.217-2.208-.217-2.208-1-4m4 0v5l2-1zm235 0-1 2 1 3-2 1h7c-.781-2.496-.781-2.496-2-5zm173 0 1 2Zm26 0 1 2Zm50 0 1 2Zm-412 1c-3.301 1.192-3.301 1.192-6 3l3 4 7-1 1-3c-2.126-1.827-2.126-1.827-5-3m230-1-6 4 4 3c1.628-1.81 1.628-1.81 3-4zm135 1 1 2Zm9 0 1 2Zm-215 1v3l2-1zm82 0v3l-7-1v4l-3-1v5h2v-3l1.75.625c2.881.48 3.827-.035 6.25-1.625 2.25-1.917 2.25-1.917 4-4v-2zm-71 1v5h3v-5zm165 0-2.375 1.438c-1.514.901-3.049 1.774-4.625 2.562v7l7 3c1.296-1.066 1.296-1.066 1.063-3.562L558 834l-5 3 1.129-1.898 1.433-2.477 1.442-2.46L558 828zm7-1-4 2 2 2 3-2zm31 1 1 2Zm31 0 1 2 1-2zm-487 1v3Zm259 0-1 5h4l-1-5zm5 0v6l3 1-2-7zm40 0v2l-4 1c1.839 2.287 1.839 2.287 4.625 2.125L446 832l-2-5zm146 0 1 2Zm-181 1v7h3v-6zm-303 1v7h1v-7zm4 0v5h8l-3-1v-3zm14 0v1h7v-1zm30 0-2 3 1 3 2-1v-5zm3 0v2l4-1zm161 0 .938 2.188c1.316 3.485 1.967 6.795 2.312 10.5.537 2.584.537 2.584 3.313 3.625L326 846c1.265-1.054 1.265-1.054 1.25-3.437L327 840c-2.815-2.277-2.815-2.277-6-2l1-2c2.563-.625 2.563-.625 5-1-.276-1.94-.276-1.94-1-4-3.435-2.29-4.985-2.178-9-2m10 0 3 6h4l-2-6zm51 0c-1.61 2.376-1.61 2.376-3 5l1 2 5-5zm166.438 1.5L543 832l4 2v-5c-1.24-.115-1.24-.115-2.562 1.5M588 829l1 2Zm19 0v2l-2 1 3 1zm-460 1c-2.287 3.238-2.287 3.238-3 7l3-1 1-6zm79.813 1.438c-.929.515-1.857 1.03-2.813 1.562l1 2h4v3l-2.687-.75c-3.43-.603-3.43-.603-6.188 1.688L218 841c3.836 2.433 5.33 3.14 9.875 2.188L231 842v2l-2 1c2.853 1.303 2.853 1.303 5.043.223l2.144-1.16 2.168-1.153L240 842v-1l-7-1-1-3 2.117.508 2.758.617 2.742.633L242 839l2-2-4-2v2h-4v-3l3-1-4-1-1 4h-3v-3h2v-2c-3.072-1.401-3.072-1.401-6.187.438M335 830v6h2l1 2c2.456-3.686 2.456-3.686 3-8zm79 0-1 7c3.113-.669 3.113-.669 4.188-3.062L418 832zm145 1-1 3 2 1c.625 2.063.625 2.063 1 4h3l1-3c-1.738-2.735-1.738-2.735-4-5zm22 0-1 4 4-2v-2zm-461 1 1 7h1l-1-7zm41 0c-2.277 2.815-2.277 2.815-2 6h2l1-6zm51 0-1 3h2v2c3.583 1.002 3.583 1.002 7 0-.195-1.95-.195-1.95-1-4-2.907-2.035-3.529-2.157-7-1m100 0c-1.35 3.944-1.35 3.944-2 8 1.703 3.008 1.703 3.008 4 5l5-1-1-4-6-1v-2h6l-1-4zm72 0 4 1Zm53 0v8l2-1v-6zm138 0-2 4 4-2v-2zm-451 1 1 4h5v-4zm304 1c-.167 2.917-.167 2.917 0 6l2 2 1-8h3v-2c-2.463 0-3.852.855-6 2m20-2-2 2 1 3 3-1-1-4zm144 2 3.375.875C599 836 599 836 601 838l-1-5c-3.403-1.215-4.933-.862-8 1m-6 0-1 2 3-1zm28 0 1 2Zm3 0-1 9c2.29-3.435 2.178-4.985 2-9zm-452 1-1 4 3-3zm84 0-1.812 2.938c-2.348 3.286-2.576 3.34-6.188 4.062-1.284 1.984-1.284 1.984-2 4 3.133 1.044 3.99.934 7 0v-4h3l1-7zm133 0v3h10c-3.006-3.006-5.824-2.596-10-3m39 0 4 2v-2zm21 0-1 4 3-1v-3zm164 0 1 3Zm-502 1 1 2Zm4 0 1 4h5v-3zm291 0 4 1Zm-244 0-3 2 1 4 3-3zm263 1 1 4 4-1c-2.263-2.079-2.263-2.079-5-3m151 0 1 2Zm-389 1 1 3 5-1-1-2zm149 0 1 6 6 1-2-7zm134 0 1 2Zm121 0-2 7 4-1v-2h2v-3l3-1zm-436 1-1 3h2zm285 0v2l2-1zm20 0 1 4h2l-1-4zm5 0 1 4h2l-1-4zm106 0c-1.705 1.94-1.705 1.94-3 4l5 2 1-6zm6 0-.625 3.375C568 846 568 846 564.875 847.438L562 848l3 1v2c1.362.953 2.733 1.896 4.14 2.781 2.83 1.855 5.462 3.962 8.126 6.047 1.661 1.359 1.661 1.359 3.734 1.172l1 3a100 100 0 0 0 5.25 4.438l2.89 2.308L593 873l2.648 2.129c11.99 9.54 25.416 11.223 40.319 12.188 8.116.544 16.045 1.295 21.826 7.656a226 226 0 0 1 3.656 4.382L663 901h2c-.645-3.485-2.101-6.028-4-9h5l1-6-3 1v3h-3l-1-3-2 1v2l-1.95-.805c-9.779-3.822-19.226-5.093-29.675-5.57-9.928-.603-17.426-3.466-25.402-9.355-2.02-1.3-3.67-1.702-5.973-2.27l-.937-1.937c-.936-2.328-.936-2.328-3.688-3.313L588 866v-2a125 125 0 0 0-6-4c-3.207-2.138-3.523-2.67-4.754-6.098l-.9-2.427-.909-2.538a671 671 0 0 0-1.816-4.972l-.799-2.23c-.696-1.929-.696-1.929-2.822-2.735m4 0 2 5c2.496-.781 2.496-.781 5-2l1-3zm17 0-2 6 4-2v-3zm-467 1v3l6-1v-2zm43 0-2 2c.319 2.108.319 2.108 1 4h2v-6zm22 0 1 3v-3zm210 0 4 7 3-1c-.625-2.524-.625-2.524-2-5-2.548-.894-2.548-.894-5-1m26 0 1 2Zm23 0 1 3h2v-2zm16 0 1 3v-3zm4 0 1 3Zm-88 1 1 3h2v2h2c-.791-2-.791-2-2-4zm13 0 3 6h3l-2-6zm16 0-1 3c1.235 2.23 1.235 2.23 3 4h2a101 101 0 0 0-2-6zm188 0-2 4 9-3c-1.613 2.547-2.443 3.824-5.375 4.75-4.047 1.927-5.69 5.31-7.625 9.25-.852 2.807-.852 2.807-1 5h2c2.277-2.815 2.277-2.815 2-6h3l-1 6c2.016-.716 2.016-.716 4-2 .805-2.05.805-2.05 1-4h-2l1-1.812c1.208-2.242 1.208-2.242 1-5.188l4 1c2.624-3.061 3-3.732 3-8zm22 0 1 4Zm3 0 1 3Zm-518 0-2 2h3zm12 1 1 2Zm42 2 1 3 3-1 1-5c-1.968 0-3.505 1.843-5 3m13-2 1 4 1-2zm14 0 1 2Zm123 0c-2.287 3.238-2.287 3.238-3 7 2.397.68 2.397.68 5 1l2-2-3-6zm79 0c.625 2.524.625 2.524 2 5 2.548.894 2.548.894 5 1-1.788-3.058-1.788-3.058-4-6zm27 0 2 7h2c-.656-3.61-.656-3.61-2-7zm30-1-4 2h6zm-249 2v5h1v-5zm-75 1-3 4 4 1 1-2zm491 0-1 4 4-2h-2zm14 0v2l2-1zm-496 0-4 2 3 3 2-2zm24 1v3h4l-2-1v-2zm38 0 1 3Zm236 0v5h3c-.348-1.975-.348-1.975-1-4zm5 0 2 7h2c-.27-2.437-.27-2.437-1-5zm196 0 1 3Zm-207 1v4h4l-1-4zm36 0v1h6v-1zm122 0c-.681 1.892-.681 1.892-1 4l2 2 1-6zm-265 1 1.875 1.313C318 850 318 850 320 853l3-1 1-3c-.793-2.144-.793-2.144-2.75-2.687-2.642-.367-4.677.044-7.25.687m270 0-2 6c2.884-1.293 4.872-2.66 7-5v4c3.122-1.309 3.122-1.309 5-4-2.287-1.144-3.593-1.103-6.125-1.062zm-357.937 3L225 852c4.236 1.009 4.236 1.009 8.375.063L235 851v-3c-5.001-.598-5.001-.598-8.937 2M374 848l1 5 2-4zm64 0 1 5h3l-1-5zm6 0 1 5h3v-4zm6 0v5l3 1v-5zm-292 2 1 3h2l1-4c-2.075-.15-2.075-.15-4 1m7-1-1 3h3v-3zm7 0-1 4 2-1zm4 0 1 3v-3zm62 0-2 5h6l2-5zm218 0v5h2l-1-5zm155 3c-.334 2.626-.334 2.626 0 5l4-1 2-7c-2.882 0-3.956 1.024-6 3m-232-3c9.832 5.599 24.988 3.098 36 3-7.105-3.706-14.399-3.069-22.172-2.191-4.656.315-9.21-.228-13.828-.809m81 1v5l3-1-1-4zm5 0 1 4Zm141 0c-1.416 1.184-1.416 1.184-1.062 4.563L605 858l3-2-1-6zm22 0 1 4Zm-427 1c4.136 4.366 6.48 6.73 12.5 7.375 3.569-.059 3.569-.059 5.938-2.375l1.562-2c-5.196-1.511-9.61-2.193-15.02-1.973C204 852 204 852 201 851m100 0 .938 2.313A111 111 0 0 1 304 859l5 1c.417-2.874.417-2.874 0-6-2.85-2.311-4.314-3-8-3m10 0c2.038 4.06 2.038 4.06 6 6v-5zm313 0 1 2Zm-209 1v1h5v-1zm-236 1-1 5 3-1v-4zm247 0v1h6v-1zm192 0 2 8 4-2-2-1-2-4zm-434 1 1 2 1-2zm40 0-1.375 2.375C221 859 221 859 219 861c3.33 1.11 3.978.934 7.125-.25l2.133-.766c2.095-.927 2.095-.927 2.742-3.984h-6zm73.438.5L296 856h2l.75 2.25c1.98 4.356 4.025 6.279 8.5 8l2.75.75c.043-1.931.043-1.931-1-4l-3.437-1.312C302 860 302 860 300.563 856.313L300 853c-1.24-.115-1.24-.115-2.562 1.5M627 854l1 3Zm-461 1-2 2 3 1 1-3zm67 0-1.312 2.813c-1.439 2.717-2.509 4.154-4.688 6.187 5.934.433 5.934.433 11.5-1.25 1.854-1.9 1.854-1.9 2.5-5.75zm-62.625 2.5L169 859l1 2 4-2v-3c-2.124-.226-2.124-.226-3.625 1.5M197 856l2 3h2l-1 2.188c-1.44 4.052-1.353 6.752 0 10.812-.437 2.688-.437 2.688-1 5l4-2c.103-5.126.036-9.95-1-15l2 1 1 3c5.358 2.218 11.201 3.47 17 3v2l3-1c.733-2.015.733-2.015 1-4l-2.875.188L220 864l-2-3c-2.746-.693-2.746-.693-5.875-1-4.395-.518-6.701-1.226-10.125-4-2.668-.251-2.668-.251-5 0m247 0v1h9v-1zm139 0 3 3 2-1v-2zm-396 1c-1.754 2.34-1.754 2.34-3 5l1 2 4-1v-3h3l1 3 3-3-3-1-1-2v2h-3v-2zm66 1c-.656 2.527-.656 2.527-1 5l3-1v-2h2v-3c-2.075-.15-2.075-.15-4 1m363-1-2 2c.32 2.603.32 2.603 1 5h1l1-7zm23 0-1 6 2-1v-5zm-479 1 1 4h3l1 3c-.188-2.445-.188-2.445-1-5-1.968-1.36-1.968-1.36-4-2m130 2v5c1.968-.031 1.968-.031 4-1 1.305-2.996 1.305-2.996 2-6-2.463 0-3.852.855-6 2m22-2v2l-2 1c3.364 2.96 6.692 3.923 11 5 .134-2.43.134-2.43-1-5-2.555-1.383-5.209-2.218-8-3m144 0 1 7 5-5-2-2zm-275 1c-2.277 2.815-2.277 2.815-2 6h2l1-6zm62 1-3 5h8l1-4zm100 0 1 2Zm260 0-5 4 1 4c3.064-.68 3.064-.68 4.25-2.875 1.044-2.266 1.044-2.266-.25-5.125m4 0-1 5h4l1-5zm19 0 1 2Zm-341 1v2h-2v4l3-1 1-5zm-10 1-1 2 4-2zm22 0-.812 1.875C295 866 295 866 292 868c-.226 2.031-.45 4.063-.64 6.098-.36 1.902-.36 1.902-2.048 3.777C287 879 287 879 283.938 880c-3.6 1.208-3.6 1.208-5.937 4 .23 2.655.23 2.655 1 5 2.56-1.799 2.56-1.799 5-4v-3h3l1 2c4.312-3.776 4.312-3.776 6-9v-4h2l4-7zm326 0-1 5h3l1-5zm6 0v3h5c-2.263-2.079-2.263-2.079-5-3m-456 1 2 2v-2zm418 0c1.375 1.542 1.375 1.542 3 3h2v-2zm25.438 1.188c-1.877 2.365-1.677 3.869-1.438 6.812h4v-8c-1.194-.1-1.194-.1-2.562 1.188M162 865c.481 5.774 2.185 9.959 5 15h2c.678-2.9.678-2.9 1-6l-2-2-2 1v-6h-3zm26 0c-2.398 2.637-2.398 2.637-3 6l5-1v-5zm6 0-2 6 4-2v-4zm80 3 3 3c2.343-2.672 2.343-2.672 3-6-2.762 0-3.893 1.314-6 3m-18-4v2l-6 1-1 7 6-1v-2h2v-7zm45 2 1 2Zm12 0-1 2h5zm25 0 1 2Zm-109 0c-1.645 2.463-1.645 2.463-3 5-3.187.313-3.187.313-6 0v-2q-3.467-.54-6.937-1.062l-3.903-.598L206 867c-1.356 1.125-1.356 1.125-1.062 4.063L205 874l1-3 1.813 2.5c2.023 2.088 3.027 2.48 5.968 2.832 2.755-.018 5.473-.116 8.219-.332v3c3.473 1.158 6.36 1.069 10 1l1-4-3.937-.375c-2.215-.21-2.215-.21-4.063-.625l-1-2 1.793.176c5.587.326 5.587.326 10.27-2.676L238 868l-1-2c-4.032-.354-4.032-.354-8 0m42 1-2 6 3-1v-5zm366 0-1 4 4-1-1-3zm57 0-1 4 4-1v-2zm-526 1 1 2Zm13 0 1 2Zm57 0-1 5c5.114.474 5.114.474 9.438-1.937 1.663-1.765 1.663-1.765 1.562-3.063zm370 0-1 6c2.016-.716 2.016-.716 4-2 .805-2.05.805-2.05 1-4zm22 0v5h2l2-5zm-459 1 1 2Zm132.438 1.5L302 872l2 4c1.646-1.228 1.646-1.228 3-3-.228-2.163-.228-2.163-1-4-1.24-.115-1.24-.115-2.562 1.5M325 869l-1 4 2 1 1-5zm19 0v14l2-2c.022-2.907.022-2.907-.375-6.125l-.336-3.32L345 869zm3 0 1 2Zm255 0-2 2 5 3v-5zm24 0-2 2v3l3-1zm14.5 1.563c-1.855 3.014-1.816 4.958-1.5 8.437 2.5-2.174 3.436-3.73 4-7h2l1 3 5-5c-5.51-1.322-5.51-1.322-10.5.563m-361.937 1.687c-1.947 1.82-1.947 1.82-1.813 5.438L277 881c3.669-2.51 3.669-2.51 5.813-6.25L283 873h2l1 4 3-2c.25-3.584.25-3.584 0-7-3.325 0-7.485 2.736-10.437 4.25M310 870v2l2-1zm19 0 1 4Zm5 0 1 3Zm-37.062 3L295 875l2 2a89 89 0 0 1 2 4c1.144-2.287 1.103-3.593 1.063-6.125L300 871c-1.36-.116-1.36-.116-3.062 2M620 871l1 2Zm31 0v3h2l-1-3zm-476 1v4h-2l.875 2.188L177 886l2-2-.937-2.625c-.988-3.137-1.599-6.126-2.063-9.375zm137 3 1 5c1.999-.58 1.999-.58 4-2 1.292-3.042 1.292-3.042 2-6-3.517 0-4.371.824-7 3m28-3 1 2Zm-153 1v3h3v-3zm6.438 1.313c-1.762 1.698-1.762 1.698-1.438 4.687l4-1v-5c-1.212-.107-1.212-.107-2.562 1.313M257 873c-2.684 3.006-3 3.756-3 8l5-1-1 4-5 1v5l5-2c-2.351 2.916-3.678 3.923-7.375 4.813-3.625.187-3.625.187-6.453-.391-3.617-.481-6.047.043-9.547 1.015l-3.21.872L229 895c4.106 2.737 8.115 3.529 13 4 3.578-.748 3.578-.748 7-2 2.304-.335 4.605-.56 6.922-.79 4.097-.415 6.618-.903 10.078-3.21l-.988-1.836c-3.087-5.92-5.322-11.708-7.012-18.164zm359 1v5l2 1v-2h2v-5c-2.075-.15-2.075-.15-4 1m73-1v2l5 1 1-2zm-369 1v3h2v-3zm306 2c-.25 2.584-.25 2.584 0 5l4-1v-6c-1.462-.092-1.462-.092-4 2m8-2c-1.106 2.39-1.106 2.39-2 5l1 2h3c1.002-3.583 1.002-3.583 0-7zm21 0v2h-8v2l-4 1 2 1v3l3-1v-4h2v5l2-1-1-3 4 1 2-5zm-448 1v7l2-1-1-6zm63 2 1 6c2.9-2.395 3.502-4.312 4-8-2.324-.185-2.324-.185-5 2m63-2-1 2 5-1zm-97 1-2 6c2.332.335 2.332.335 5 0 2.355-1.771 2.355-1.771 4-4v-2zm67.875 2.5L301 881l1 3 3-2 2 3c1.625-2.833 1.625-2.833 3-6l-1-3c-2.59 0-3.2.827-5.125 2.5M337 876c.656 3.61.656 3.61 2 7h2l1-4zm17 0v6h1v-6zm258-1-3 2 4 1zm-400 2v2l2-1zm447 0-1 3h3l-1-3zm29 0-1 2 4 1 1-2zm-492 1 1 3Zm49 0-1.312 2.438C242 883 242 883 240.03 883.484q-2.38.206-4.765.34c-2.95.229-5.474 1.226-8.266 2.176-2.664.437-5.312.722-8 1 2.19 2.92 3.61 4.658 7.207 5.543 7.249.422 12.02-2.416 17.793-6.543l-1 4c2.947-.102 2.947-.102 6-1 1.453-2.463 1.453-2.463 2-5l-6 1v-3h4l2-4c-2.874-.417-2.874-.417-6 0m103 0v5h1v-5zm274 0v3Zm-436 1v2l2-1zm16 0a125 125 0 0 0-3 4l5 1-1-5zm12 0 4 7 10-2c-2.954-2.37-2.954-2.37-7-2v-3zm107 1v4l6-1-2-4c-1.369-.053-1.369-.053-4 1m-127 1 2 2v-2zm17 0-2 4 3 1 1-3zm84 0-1 3 2 1 2 3 2-3zm19 2c-.25 2.584-.25 2.584 0 5l3 1c1.354-2.709 1.065-5.01 1-8-1.462-.092-1.462-.092-4 2m343-2-1 2 2 3 2-1v-2h-2zm-382 1-2 4 3 1v-5zm388 0 1 3 2-1v-2zm23 0 3 2v-2zm-329 1v2l3 1v-2zm347-1v4h-3l-1-3c-1.217 1.765-1.217 1.765-2 4 .783 2.235.783 2.235 2 4h2l-1-4 5-1 1-3zm-518 2 2 1 2 4 2 1-2-6zm104.938 1.688c-2.188 2.164-2.188 2.164-2.188 5.062L289 893h2l3-9c-1.315-.106-1.315-.106-3.062 1.688M310 885l1 2Zm18-1-8 4 1 3 3-2v3c2-.791 2-.791 4-2l1-3h3v3l5-2v-2h-8zm13 1-1 5 3 1 2-4zm328 0v4l5-1-2-1v-2zm-383 1-1 3c-2.062 1.188-2.062 1.188-4 2l4 3c2.35-1.898 2.35-1.898 2.125-5.125L287 886zm396 0 1 2c2.025.652 2.025.652 4 1l-1-3zm28 0-3 4 6-1zm-508 1 3 2 3-1zm493 1c-1.333 3-1.333 3 0 6h3l-2-6zm-480 1 1 3Zm89 0-1 6 5-1c-1.309-3.122-1.309-3.122-4-5m53 0 1 3v-3zm-165 1v3l-2 1 1.934 2.117 2.504 2.758 2.496 2.742C199 904 199 904 200 906l2-1a653 653 0 0 0-2.75-5.25l-1.547-2.953c-1.651-2.712-3.368-4.665-5.703-6.797m107 0-2 2c.319 2.108.319 2.108 1 4l3-2v-4zm36.5 2.188c-2.517 2.831-3.184 4.126-3.5 7.812 2.176.206 2.176.206 4.063-1.625 2.298-2.818 2.612-4.8 2.937-8.375-1.428-.11-1.428-.11-3.5 2.188M347 890l1 2 2-1zm-141 1 4 1Zm148 0 1 5 1-3zm328 0 1 3 2-2zm-469 1 1 2Zm3 0v3l4-1-1-2zm143 0-1 5 2-2zm310 0v4l4-2v-2zm-342 1-2 3 3 3 2-2v-4zm375 0 1 2 1-2zm-437.625 2.375c-1.59 1.525-1.59 1.525-1.375 3.625l-2.937-.562c-4.335-.61-8.83-.645-13.063.562l-2 3q2.656.039 5.313.063l2.988.035c2.799.025 2.799.025 5.699-1.098l-3 4c6.945-.177 11.423-1.882 17-6a141 141 0 0 0-5-5c-2.1-.215-2.1-.215-3.625 1.375M293 893l-2 2 3 1zm49 1-3 5 4 1 3-5zm333 0v3l5-1-2-2zm15 0 2 4 1-5c-1.224-.075-1.224-.075-3 1m-476 1 1 3Zm134 0 1 4 3-3zm318 0 1 3Zm-358 2-2 2 1 3 3-2v-3zm-107 1 1 2Zm101-1-2 2 3 1zm-29 2-1 5-3 1c2.577 1.288 3.502.778 6.25.063 3.67-.884 6.955-1.258 10.75-1.063-2.463-2.463-4.274-2.768-7.625-3.625-1.003-.26-2.006-.52-3.04-.79zm73 0v2c-.897.03-.897.03-1.812.063-2.621.842-2.621.842-3.938 4.5L339 909c3.787-1.488 5.774-3.62 8-7zm321 0 1 3h2v-2zm7 0-1 3-3 1c3.735-.498 5.812-.875 9-3l1 2 1-3zm13-1-2 2 4 2-1-4zm-353 2-1 8c2.756-.498 2.756-.498 5-2 .04-2 .043-4 0-6zm349 0c-.688 2.354-.688 2.354-1 5l2 3 2-4zm-354 1 1 3 2-2zm34 0 1 2Zm-160 1 1 2Zm107 0-1 3 3 1zm4 0 1 5 2-2-1-3zm35 0 1 3 2-1v-2zm13 1 1 2Zm7 0-2 5h3v-5zm295 1 2 2v-2zm-304 1-1 2h2zm312 0c-.434 3.878-.434 3.878 1.5 5.75L675 912l-8-1c3.279 2.322 3.279 2.322 7 3 2.494-1.145 4.672-2.522 7-4l-1-4-6 2v-3zm-13 0-3 3 5 1 1-3zm-312 5 1 3c2.04-1.363 2.04-1.363 4-3v-2c-2.324-.185-2.324-.185-5 2m8-2-1 3 3-1zm296 1v2h5c-2.676-2.185-2.676-2.185-5-2m-316 2 2 4 1-5c-1.224-.075-1.224-.075-3 1m6 0 1 3 1-3zm305 0-1 2 6 2 1-2zm-276 1 1 2Zm307 3-2 2c4.487-.339 4.487-.339 7.875-3.062L684 912c-2.925 0-4.584 1.43-7 3m-320-2-2 3 1 3 3-6zm308 1-1 2 5 1 1-2zm-304 1v2l2-1zm281 0-1 3c2.397.68 2.397.68 5 1l2-2c-2.815-2.277-2.815-2.277-6-2m-293 1-2 6h3l2-6zm-7 1-1 6 1-2c2.063-1.125 2.063-1.125 4-2v-2zm-7 2v4l3-1c.733-2.015.733-2.015 1-4-1.369-.053-1.369-.053-4 1m29-1v2h-2v7c3.502-3.849 3.502-3.849 4-9zm270 0-2 2c3.51 1.686 3.51 1.686 7.313 1.625L641 921zm-276 2c-1.296 1.066-1.296 1.066-1.062 3.563L357 926l2-1v-5zm11 0v2l3-1zm283 0-2 2.313c-2.724 2.755-5.48 3.853-9.133 5.011-2.157.697-2.157.697-4.867 2.676l1 8 2.125-2.187c1.893-1.905 3.776-3.545 5.875-5.25 3.12-2.666 5.463-5.355 8-8.563zm4 2-1 2 7 1 1-2zm-330 1c6.32 7.192 18.531 11.386 28 12l3-1-3-.988q-5.084-1.681-10.158-3.392a905 905 0 0 0-4.549-1.515c-3.662-1.27-5.077-1.781-7.293-5.105-3.084-.25-3.084-.25-6 0m22 2c.267 1.985.267 1.985 1 4l3 1c2.37-2.954 2.37-2.954 2-7-2.463 0-3.852.855-6 2m28-2v4l3-1-1-3zm-32 1-2 2 3 1zm19 3-1 6 3-1 1-3 2-1v2l4-1 1-4c-3.904 0-6.38.684-10 2m290-1-1 3 5-1zm-24 1c.498 3.688 1.1 5.605 4 8l-1-7zm-270 1-2 3h3zm21 1-3 3 1 3 3-2zm-7 2-1 5 2-1zm12 0v2l3-1zm263 0v3l4-1v-2zm9 1-2 4 4-4zm-272 4v4l3-1c1.219-2.504 1.219-2.504 2-5-1.84 0-3.396 1.172-5 2m-28-1c3.366 2.753 7.043 4.62 10.938 6.5 4.129 2.005 8.16 4.072 12.062 6.5v-2c-3.362-3.04-6.897-5.165-10.937-7.187l-3.028-1.543c-3.048-1.275-5.767-1.866-9.035-2.27m61 1c-.934 3.01-1.044 3.867 0 7 1.46-2.647 2-3.894 2-7zm5 0 1 4Zm230 0-1 2 3-1zm-278 1 1 3 2-3zm5 0v5l2 1v-6zm12 0-4 5 6-1zm255 1v1h5v-1zm-225 2 1 2Zm4 0 1 3 2-1-1-2zm-12 2v4l2-3zm-26 3-1 4 1.813-.937C391 947 391 947 394 946l-1 3 5-1-2-5c-2.636 0-5.485 1.268-8 2m22-1-1 2 2 3 1-2zm-26 1 1 2 1-2zm36.75 1.438L418 949l2 1 3-2a75 75 0 0 1 5-1v-2c-3.304-1.652-4.619-.782-7.25 1.438M407 948c-1.709 1.579-1.709 1.579-3 4 .229 3.688.229 3.688 1 7 1.892-2.386 3.024-4.072 4-7-.875-2.167-.875-2.167-2-4m7 1-3 6 3-1 1-5zm10 1-1 5h2v-5zm-31 1v2l3-1zm7 0a82 82 0 0 0-2.562 3.5l-1.38 1.969L395 958c2.169-.506 4-1 6-2v-5zm19 1v8h1v-8zm8.375 4.5L425 959l2.875-.125C431 959 431 959 433 961l-1-7c-2.363-.23-2.363-.23-4.625 2.5M422 955l1 2Zm-7 1c-2.307 2.715-2.307 2.715-1.625 5.188L414 963h2v-7zm-25 1 2 4 1-4zm34 2-2 3 3-1zm-37 1 1 2Zm14-1-7 2v2h5v2h-4v2h5c1.43-2.354 2.087-3.48 1.625-6.25zm10 1 1 3Zm-4 2c-1.416 1.184-1.416 1.184-1.062 4.563L406 970l1-2h2l-1-6zm11 1-1 2 3-1zm-28 2-1 3h2l1-3zm-14 1v2l8 4c-.574-4.202-.574-4.202-4-6zm27 0-2 6h2l1-6zm8 2v3l2-3zm-38 1 1 2 2-1zm19 0 2 2c2.603-.32 2.603-.32 5-1v-1zm-27 1v2l8 1c-3.061-2.624-3.732-3-8-3m-4 2-1 2 3-1zm32 2c2.139 2.139 3.133 2.427 6 3l1-3zm-37 1 1 3 5 1-1-3zm30 0c2.56 2.011 5.046 3.628 8 5l2-2c-3.73-2.034-5.67-3-10-3m-4 2v2l3-1zm-37 1-3 4 4 2 3-3zm21 1 1 2Zm12 1-1 2c2.354 1.43 3.48 2.087 6.25 1.625L385 983zm-27 4c-2.271 1.854-2.271 1.854-4 4l1 2 1-3c3.063-1.187 3.063-1.187 6-2-1.781-.864-1.781-.864-4-1m23 0-2 3 6 2 2-3zm15 0-1 2 3-1zm-49 2c-1.144 2.287-1.103 3.593-1.062 6.125L339 996c3.092-2.53 3.91-5.225 5-9zm29 2-2 3 8 1-1-2h-4zm-6 4-3 3c4.122 1.63 6.707 2.263 11 1-2.463-2.463-4.707-2.998-8-4m-8 5v2l9 1-1-2c-1.895-.465-1.895-.465-4.062-.625zm9 6h6v-2c-3.185-.277-3.185-.277-6 2m-13-1-1 2 5-1zm1 6c.264 3.432.264 3.432 1 7l3 2 1-11c-1.84 0-3.396 1.172-5 2M290 7h3l2 7c10.214.281 10.214.281 20.375-.5 3.845-.53 7.488-.522 11.36-.457 2.4.034 2.4.034 5.202-.73C334 12 334 12 335.75 13.187c1.38 2.001 2.016 3.392 2.25 5.813l-2 2c-.291 1.939-.291 1.939-.227 4.174v2.609l.032 2.819.008 2.883c.011 3.047.037 6.093.062 9.14q.016 3.093.027 6.188.035 7.593.098 15.187l-3 1v2l-5-1v-3l-2.316.219C302.962 65.187 302.962 65.187 296 63l-1 3h-4c-1.027-12.846-1.12-25.62-1.062-38.5q.008-2.998.013-5.996Q289.968 14.25 290 7m9 11c-2.057 2.218-2.948 3.54-3.293 6.578l.106 2.672.082 2.703L296 32l1-2h11v-2l-7 1-1-11zm7 0v2q2.655.079 5.313.125l2.988.07c2.923.012 2.923.012 5.699-2.195zm18 0v9l-3.437.375L317 28l-1 2h7v-2h5l1-9zm-16 4-1 2c3.435.625 6.49 1 10 1l-1-3zm-12 11v27c9.401.861 9.401.861 18.75 1.125l3.672.008c3.59-.133 7.034-.56 10.578-1.133.058-3.125.094-6.25.125-9.375l.05-2.695.02-2.578.032-2.38c-.047-2.206-.047-2.206-2.227-3.972-1.324 1.09-1.324 1.09-1.027 3.766q.09 3.468.187 6.937c-.16 3.295-.569 5.419-2.16 8.297l-3 1-1-3a557 557 0 0 0-5.187-.562l-2.918-.317c-2.837-.119-5.15.201-7.895.879v2l-4 1V36c9.625.063 9.625.063 12.624.09 4.575.014 8.875-.14 13.376-1.09l1 3h2l-1-5zm8 6v14h17V38l-7.375-.062-2.318-.028c-3.779-.079-3.779-.079-7.307 1.09M398 9c4.75 1.875 4.75 1.875 7 3v8h4l1-3 6 1c1.026 3.079.978 4.312.563 7.438-.575 4.961-.607 9.81-.5 14.8C416 42.99 415.783 45.36 415 48c-2.562 1.313-2.562 1.313-5 2l-1.312-1.937c-1.6-2.33-1.6-2.33-4.688-3.063l.035 2.414c.09 10.524.09 10.524-1.035 15.586h2v3h-2v2l-4 1c-1.292-4.915-1.111-9.773-1.062-14.812l.013-2.678q.02-3.255.049-6.51l-3 1-2-1-1 5h-5c-1.174-7.338-1.094-14.582-1-22-1.324 1.095-1.324 1.095-1.082 3.804l.055 3.716.037 4.037q.036 3.189.086 6.379c.03 2.049.048 4.097.064 6.146l.051 3.726c-.2 3.024-.614 4.663-2.211 7.192h-2c-2.094-3.434-2.234-6.094-2.195-10.078l.02-3.516.05-3.656.027-3.703q.036-4.523.098-9.047l-.076 2.874q-.143 5.289-.296 10.578-.065 2.288-.125 4.574-.088 3.293-.187 6.583l-.05 2.059c-.101 3.237-.297 6.23-1.266 9.332h-4l-1-33-1 15c-3.636 8.696-3.636 8.696-6 12l-3 1c.875-5.75.875-5.75 2-8h-2v-2h2c1.162-4.16 1.184-8.208 1.188-12.5l.037-2.3c.048-5.428.048-5.428-2.225-10.2-2.034-1.268-2.034-1.268-4-2l1-3h27v-5c2.169.506 4 1 6 2l-1 11h6l-.108-1.896a2782 2782 0 0 1-.454-8.479l-.17-2.984-.147-2.852-.143-2.634C397 11 397 11 398 9m7 14-2 1c-.043 2-.04 4 0 6 1.066 1.296 1.066 1.296 3.563 1.063L409 31l-1-7zm-35 5 1 2h2v-2zm22 6v9h5l1-9zm12 0c-1.16 3.478-.708 5.459 0 9l4-1v-8zM490 12.25c2 .75 2 .75 4 3.75v3l-1.863-.07-2.45-.055-2.425-.07c-2.546.037-2.546.037-5.262 2.195-1.01 4.68-1.097 9.225-1 14 5.585-.199 5.585-.199 10-3 2.438-.437 2.438-.437 5 0 1.819 2.383 3 3.958 3 7l-3.465-.035-4.473-.028-2.287-.025A183 183 0 0 0 483 39c-1.83 1.83-1.132 4.356-1.137 6.79l.012 2.335-.012 2.266c.007 3.614.186 6.92.75 10.507C483 64 483 64 481.313 66.5 479 68 479 68 476.75 67.75L475 67c-.835-2.898-1.109-5.43-1.062-8.441l.023-2.518.039-2.603q.039-2.565.063-5.13l.035-2.287c-.017-2.227-.017-2.227-1.098-5.021-2.928-.976-4.956-1.082-8-1l.035 3.395q.015 2.209.027 4.417l.026 2.237c.015 3.25-.053 5.845-1.088 8.951l.125 2.5C464 64 464 64 462.75 65.813 461 67 461 67 457 67v-2h-3l2-4h2V37l-4-1v9l4-2c-.229 1.462-.484 2.92-.75 4.375l-.422 2.46C456 52 456 52 453.977 53.153L452 54l-.875 2.188c-1.55 3.876-3.99 7.044-7.125 9.812h-3l1-4h2c2.732-12.467 5.477-26.688 1-39h2V13l2.3.508 3.012.617 2.989.633c2.922.546 2.922.546 5.699-1.758 1.875.313 1.875.313 4 1 4.431 1.13 8.771 1.115 13.313 1.063l2.244-.014q2.722-.02 5.443-.049v-2c2-1 2-1 4-.75M454 19c-1.203 2.405-1.1 3.95-1.062 6.625l.027 2.477L453 30l1-2h3l1 3h1l-1-11zm10 1c-.394 5.407.093 10.674 1 16 3.416.25 3.416.25 7 0 2.484-3.726 2.422-6.687 2-11-.898-3.368-.898-3.368-2-6-4.323-.504-4.323-.504-8 1"/><path d="M182 512h3c1.713 11.535 2.922 20.454-1.562 31.5-3.76 9.476-2.64 15.903.138 25.566 1.785 6.402 2.056 12.408.424 18.934h-2l-.062 2.438c-1.526 5.798-5.525 10.122-9.7 14.343-3.942 4.047-5.15 7.241-5.425 12.914.248 3.049 1.321 4.917 3.187 7.305v2c4.374 2.253 7.274 2.362 12 1 5.859-3.796 9.708-8.403 12-15 .627-3.802.83-7.59 1-11.437.344-7.734 1.318-13.702 5-20.563l1.484-2.848 1.266-2.215 1.297-2.285L205 572h2c-.36 4.916-1.875 7.633-4.844 11.387-2.003 2.795-2.292 5.417-2.402 8.746l-.1 2.445q-.09 2.511-.172 5.024c-.347 8.29-1.306 15.417-5.982 22.46l-1.844 2.848L190 627h-2v2c-3.813 3.304-7.578 3.577-12.426 3.41-4.299-.685-7.48-2.354-10.574-5.41-1.5-3.25-1.5-3.25-2-7l-.488-1.992c-.67-4.409.105-6.485 2.77-10.121a208 208 0 0 1 4.433-5.003c4.15-4.572 6.975-9.13 9.285-14.884l1.313-3.187c.973-3.985 1.566-8.055-.313-11.813l-3-1a78 78 0 0 1-3.25-7.625l-.852-2.121c-1.832-4.89-2.049-8.155-.898-13.254l3-1 2 15c1.341-1.108 1.341-1.108 1.027-3.914l-.09-3.711c-.048-5.26.195-9.471 2.063-14.375l-2 4h-3c1.008-4.309 2.319-7.736 4.563-11.562 4.126-7.243 3.37-13.373 2.437-21.438m0 23 1 2Zm-3 33 1 2Z"/><path d="M208 549h3c1.343 12.629 1.933 22.842-4.125 34.188-3.84 7.225-4.233 12.37-3.297 20.406.75 7.12-.996 12.196-4.578 18.406l-1.156 2.063c-1.031 1.687-1.031 1.687-2.844 3.937h-2c.439-3.399 1.477-6.126 2.938-9.187 3.113-6.907 4.193-13.023 3.838-20.61-.34-7.98 1.125-12.706 5.599-19.426 2.646-4.522 2.664-8.637 2.625-13.777q.018-2.122.04-4.246c.027-3.919.004-7.835-.04-11.754M306 39h13c.898 4.492.903 6.684 0 11l-3.75.438c-2.302.28-4.437.61-6.687 1.187L307 52c-1-1-1-1-1.098-3.723zm6 4-1 4 4-1-1-3zM222 738l3 1c-1.252 8.075-3.696 14.118-9.937 19.563-3.583 1.681-5.311 1.509-9.063.437l-1-7h3l1 3c2.867-.031 2.867-.031 6-1 3.606-4.006 4.68-7.981 5.605-13.145C221 739 221 739 222 738M289 822c2 0 2 0 4 1.938l2 2.062 2 1v2l-4 1 3 9-2.875.188L290 840c-1.17 2.424-1.17 2.424-2 5-2.125 1.313-2.125 1.313-4 2 .616-4.001 2.637-6.778 5-10l2-1-1-3.062c-1.07-3.693-1.157-7.09-1-10.938M381 13l3 1a88 88 0 0 1 1 5c-2.102 2.102-6.483 1.231-9.375 1.25-1.172.03-1.172.03-2.367.063-5.853.04-5.853.04-8.007-1.834L364 17l1-2c5.152-.09 9.92.153 15 1zM243.05 5.867l3.057-.004 3.206.012 3.17-.012 3.068.004 2.802.004C260.995 6 263.424 6.414 266 7v2h-30V7c2.51-1.255 4.245-1.13 7.05-1.133M395 746l3 1q-.466 2.156-.937 4.313l-.528 2.425C396 756 396 756 395 759c-2.562 1.188-2.562 1.188-5 2 .503-2.617 1.274-4.537 2.5-6.937 1.362-2.78 2.053-5.025 2.5-8.063M433 714h3c2.036 4.072 2.147 6.602 1 11l-2 3h-2l.254-2.047.308-2.703.317-2.672c.116-2.462-.143-4.243-.879-6.578M672 757c3.619-.329 5.395-.446 8.375 1.75C682 761 682 761 682 765h-2l-1.25-1.875c-2.262-2.746-4.37-3.224-7.75-4.125zM337 769c2.313-.312 2.313-.312 5 0 2.636 3.272 3 4.72 3 9l-3-1-2-4-3-1zM273 6l16 1v2h-16zM347 775l5 1 2 6c-2.929-.628-5.361-1.586-8-3zM211 763h2c-.508 4.318-1.197 8.033-3 12h-2c.857-8.571.857-8.571 3-12M356 776c2.438.375 2.438.375 5 1 1.354 2.709 1.065 5.01 1 8h-2l-.812-2.437L358 780l-3-1zM272 748h2l1 10h-4q-.04-2.22-.062-4.437l-.036-2.497C271 749 271 749 272 748M425 700h3c1.125 5.625 1.125 5.625 0 9h-3zM347 735h5l-1 4-4 1zM410 693h4v5l-4-1z"/><path d="M301 831v4h-5v-3c2-1 2-1 5-1M388 700h4v4l-5-1zM194 817l3 1v5h-3zM569 774h3l1 6-3-1zM316 795l4 1-1 3h-3zM543 762l3 1v3h-4zM267 752h3v4l-4-1zM444 695l4 1-1 3h-3zM378 538l6 1v2h-6zM250 849l4 1-2 3h-2zM187 832h5v3c-1.937-.375-1.937-.375-4-1zM364 889h2v4l-3-1zM638 786h3l-1 3h-3zM626 650l3 1v2h-4zM553 543h4l-1 3-3-1zM122 719h3v3h-3zM112 696h5l-1 2h-4zM217 777l3 1v2h-3zM359 64h2v3h-3zM242 323l3 1-1 2h-2zM711 1163h2v3h-2zM389 885h3v2h-3zM736 860l2 1v2l-3-1zM663 827h3v2h-3zM212 774h2v3h-2zM594 701h3v2h-3zM190 381h3v2h-3zM389 230h3v2h-3zM417 570l3 1-3 1zM117 495l3 1-3 1zM244 219l1 3h-2zM570 1188h2v2h-2zM677 1143h2v2h-2zM42 1033h2v2h-2zM569 771h2v2h-2zM258 764h2v2h-2zM213 632h2v2h-2zM212 513h2v2h-2zM738 263h2v2h-2zM215 190h2v2h-2zM394 21h2v2h-2zM351 7h2v2h-2zM310 7h2v2h-2z"/></svg>