<?xml version="1.0" standalone="no"?>
<!DOCTYPE svg PUBLIC "-//W3C//DTD SVG 20010904//EN"
 "http://www.w3.org/TR/2001/REC-SVG-20010904/DTD/svg10.dtd">
<svg version="1.0" xmlns="http://www.w3.org/2000/svg"
 width="561.000000pt" height="445.000000pt" viewBox="0 0 561.000000 445.000000"
 preserveAspectRatio="xMidYMid meet">

<g transform="translate(0.000000,445.000000) scale(0.100000,-0.100000)"
fill="#000000" stroke="none">
<path d="M5305 4440 c3 -5 8 -10 11 -10 2 0 4 5 4 10 0 6 -5 10 -11 10 -5 0
-7 -4 -4 -10z"/>
<path d="M5377 4423 c-2 -5 -7 -21 -11 -36 -6 -25 -5 -28 14 -22 14 4 20 2 20
-8 0 -17 -67 -29 -74 -12 -3 5 -10 2 -16 -7 -6 -10 -20 -18 -30 -18 -10 0 -22
-5 -26 -11 -4 -7 9 -10 42 -7 44 3 49 1 52 -19 2 -13 10 -23 18 -23 11 0 13 7
8 26 -8 30 7 44 46 44 16 0 20 3 13 8 -7 4 -10 17 -6 30 4 18 8 20 19 11 9 -7
14 -8 14 -1 0 5 -7 13 -16 16 -8 3 -13 10 -10 15 3 5 -1 12 -10 15 -21 8 -42
8 -47 -1z"/>
<path d="M5260 4391 c0 -16 19 -23 40 -16 30 10 24 25 -10 25 -16 0 -30 -4
-30 -9z"/>
<path d="M5416 4286 c3 -9 11 -16 16 -16 13 0 5 23 -10 28 -7 2 -10 -2 -6 -12z"/>
<path d="M5332 4195 c-11 -12 -10 -15 3 -15 11 0 15 -10 15 -35 0 -34 -1 -35
-27 -29 -25 7 -27 6 -14 -9 7 -10 20 -17 28 -17 9 0 13 -6 9 -15 -7 -19 5 -19
30 0 13 10 15 14 5 15 -9 0 -4 9 13 25 34 32 33 45 -5 45 -36 0 -35 21 2 31
22 7 22 7 2 8 -12 1 -27 3 -35 6 -7 2 -19 -2 -26 -10z"/>
<path d="M5435 4060 c3 -5 2 -10 -3 -10 -6 0 -8 -10 -5 -21 5 -19 3 -21 -23
-17 -16 3 -38 9 -49 13 -17 8 -18 7 -7 -7 17 -21 69 -30 94 -17 15 8 17 14 9
22 -16 16 -14 27 5 27 8 0 12 5 9 10 -3 6 -13 10 -21 10 -8 0 -12 -4 -9 -10z"/>
<path d="M5385 4050 c3 -5 8 -10 11 -10 2 0 4 5 4 10 0 6 -5 10 -11 10 -5 0
-7 -4 -4 -10z"/>
<path d="M5305 4020 c-3 -5 1 -10 10 -10 9 0 13 5 10 10 -3 6 -8 10 -10 10 -2
0 -7 -4 -10 -10z"/>
<path d="M5358 3913 c-10 -2 -18 -8 -18 -13 0 -5 6 -7 14 -4 19 7 32 -16 15
-28 -11 -7 -11 -11 -1 -15 20 -8 14 -30 -10 -38 -20 -6 -20 -8 -5 -12 9 -2 39
3 66 12 28 9 60 13 75 9 15 -4 26 -2 26 4 0 15 -40 19 -77 8 -39 -11 -51 -3
-32 20 11 13 11 18 2 21 -21 7 -15 31 10 36 13 3 8 4 -13 4 -19 1 -43 -1 -52
-4z"/>
<path d="M1110 3882 c0 -14 26 -33 33 -25 4 3 7 -6 7 -20 0 -31 -17 -35 -36
-10 -7 10 -16 15 -20 11 -4 -4 -1 -14 6 -23 10 -12 10 -15 -1 -15 -10 0 -10
-3 -1 -12 9 -9 18 -9 37 0 35 16 37 15 25 -8 -7 -13 -21 -20 -39 -20 -36 0
-43 -8 -28 -31 12 -20 37 -26 37 -9 0 6 -6 10 -12 10 -14 0 11 20 25 20 12 0
8 -48 -5 -52 -9 -3 -9 -6 -1 -11 16 -10 43 20 43 47 0 19 9 26 53 39 l52 16
-47 -4 c-47 -4 -77 12 -63 35 9 15 25 12 25 -5 0 -29 19 -15 26 19 8 45 0 56
-42 56 -21 0 -33 -4 -29 -10 8 -13 -1 -13 -26 0 -10 6 -19 7 -19 2z m95 -22
c3 -5 -1 -10 -9 -10 -9 0 -16 5 -16 10 0 6 4 10 9 10 6 0 13 -4 16 -10z"/>
<path d="M1937 3807 c-3 -7 1 -30 8 -50 13 -37 12 -39 -16 -59 -16 -12 -29
-27 -29 -34 0 -7 -6 -17 -13 -21 -28 -17 -60 -72 -54 -93 4 -14 0 -23 -11 -28
-9 -3 -23 -12 -30 -19 -7 -7 -22 -13 -32 -13 -26 0 -35 -32 -13 -48 26 -19 88
-12 87 11 -1 10 5 17 17 17 23 0 24 -7 4 -27 -19 -19 -11 -33 16 -26 16 5 20
11 16 32 -4 20 2 34 31 63 19 21 32 41 28 45 -4 5 -22 -8 -39 -27 -18 -20 -38
-34 -49 -32 -11 2 -22 -6 -30 -22 -8 -19 -19 -26 -40 -26 -15 0 -28 5 -28 10
0 6 7 10 15 10 23 0 85 68 85 94 0 25 35 76 52 76 6 0 4 -8 -5 -18 -28 -30
-20 -49 8 -22 20 19 24 30 20 51 -5 22 -2 30 17 39 13 7 30 21 38 31 15 18 16
18 48 -3 28 -17 33 -26 30 -52 -3 -30 -5 -31 -44 -28 -23 2 -45 -1 -49 -7 -4
-7 10 -12 39 -13 25 -1 53 -2 62 -2 13 -1 17 8 18 37 1 20 -2 37 -5 37 -4 0
-10 7 -13 15 -13 36 54 90 72 59 8 -14 10 -13 15 5 11 44 -43 35 -90 -16 -18
-19 -26 -21 -45 -12 -13 6 -28 20 -33 31 -6 12 -20 27 -31 35 -18 11 -22 12
-27 0z m43 -54 c0 -13 -3 -13 -15 -3 -8 7 -15 19 -15 27 0 13 3 13 15 3 8 -7
15 -19 15 -27z"/>
<path d="M1220 3740 c0 -5 7 -10 16 -10 8 0 12 5 9 10 -3 6 -10 10 -16 10 -5
0 -9 -4 -9 -10z"/>
<path d="M4120 3698 c0 -27 4 -38 15 -38 8 0 15 -7 15 -16 0 -12 -6 -15 -24
-10 -17 4 -26 1 -30 -10 -12 -31 -7 -42 16 -36 13 3 19 1 15 -5 -4 -6 0 -16 7
-22 11 -9 16 -9 23 2 4 9 17 17 28 19 17 2 21 -3 23 -34 5 -63 22 -42 22 27 0
67 5 76 24 50 9 -13 13 -11 23 11 15 33 -8 44 -47 20 -30 -17 -70 -22 -70 -7
0 14 30 22 30 8 0 -7 12 1 26 17 39 45 29 61 -39 61 l-57 1 0 -38z m90 8 c0
-3 -4 -8 -10 -11 -5 -3 -10 -1 -10 4 0 6 5 11 10 11 6 0 10 -2 10 -4z"/>
<path d="M5408 3716 c-18 -9 -29 -11 -36 -4 -6 6 -19 8 -29 4 -17 -7 -17 -8 0
-17 25 -14 21 -29 -8 -29 -22 0 -25 -4 -25 -39 0 -54 11 -102 22 -95 5 3 6 25
2 49 -6 40 -4 44 17 47 18 2 25 10 27 31 4 34 20 35 24 2 4 -32 20 -35 33 -6
17 38 28 22 21 -31 -4 -29 -7 -62 -9 -72 -2 -22 19 -34 24 -14 3 7 3 52 1 101
-4 95 -9 101 -64 73z m42 -16 c0 -5 -7 -10 -15 -10 -8 0 -15 5 -15 10 0 6 7
10 15 10 8 0 15 -4 15 -10z"/>
<path d="M1160 3655 c-7 -8 -28 -17 -48 -21 -31 -6 -33 -8 -18 -19 11 -8 18
-28 19 -54 1 -33 4 -40 17 -35 8 3 31 8 51 11 31 5 38 10 43 35 6 32 1 48 -15
48 -6 0 -8 -8 -5 -17 3 -10 1 -25 -4 -33 -7 -11 -10 -3 -10 28 0 38 6 46 30
44 3 0 14 -4 25 -8 18 -7 19 -6 6 10 -8 9 -24 16 -35 14 -12 -1 -26 1 -32 5
-7 4 -17 0 -24 -8z m-5 -74 c8 -17 11 -32 6 -36 -11 -6 -41 33 -41 52 0 23 19
14 35 -16z"/>
<path d="M2115 3630 c-3 -5 -1 -10 4 -10 6 0 11 5 11 10 0 6 -2 10 -4 10 -3 0
-8 -4 -11 -10z"/>
<path d="M5380 3610 c0 -5 5 -10 11 -10 5 0 8 -4 4 -10 -3 -5 -12 -7 -20 -3
-8 3 -15 0 -15 -5 0 -16 14 -22 38 -15 30 7 31 53 2 53 -11 0 -20 -4 -20 -10z"/>
<path d="M4255 3590 c-8 -13 4 -32 16 -25 12 8 12 35 0 35 -6 0 -13 -4 -16
-10z"/>
<path d="M1260 3515 c7 -8 16 -15 21 -15 5 0 9 7 9 15 0 9 -9 15 -21 15 -18 0
-19 -2 -9 -15z"/>
<path d="M2108 3504 c5 -26 4 -27 -29 -19 -72 18 -195 -3 -169 -29 8 -8 15 -7
23 4 16 21 98 24 141 6 37 -15 49 -35 20 -32 -9 0 -19 -4 -21 -11 -3 -8 6 -12
27 -10 l31 2 -3 54 c-2 30 -8 56 -14 58 -7 2 -10 -6 -6 -23z"/>
<path d="M1165 3510 c3 -5 13 -10 21 -10 8 0 14 5 14 10 0 6 -9 10 -21 10 -11
0 -17 -4 -14 -10z"/>
<path d="M1118 3502 c-10 -2 -18 -12 -18 -23 0 -22 4 -23 29 -7 14 9 23 8 42
-5 41 -29 86 -16 74 22 -8 25 -27 28 -23 4 4 -25 -27 -28 -59 -6 -16 11 -36
18 -45 15z"/>
<path d="M4225 3474 c-5 -1 -27 -5 -47 -9 -41 -6 -52 -24 -15 -26 16 -1 18 -2
5 -6 -10 -2 -18 -13 -18 -24 0 -10 -6 -19 -12 -19 -8 -1 -6 -6 4 -14 10 -7 15
-16 11 -20 -4 -4 0 -4 9 -1 10 4 17 10 16 13 -3 26 4 52 12 47 27 -17 -4 -95
-38 -95 -13 0 -21 4 -17 9 3 5 1 12 -5 16 -5 3 -10 26 -10 51 0 24 -5 44 -10
44 -7 0 -10 -24 -8 -62 3 -59 4 -62 33 -69 35 -10 84 -1 64 12 -11 6 -11 11
-2 20 9 9 16 9 29 -2 15 -13 16 -11 9 11 -4 14 -12 30 -17 37 -5 6 -11 23 -14
37 -3 21 0 26 15 26 10 0 22 -7 25 -16 10 -26 7 -122 -4 -129 -6 -4 -8 -11 -4
-16 12 -20 22 4 29 70 9 91 -3 125 -40 115z"/>
<path d="M5424 3458 c3 -12 8 -56 11 -96 5 -61 4 -73 -10 -78 -14 -6 -14 -8 1
-25 24 -27 34 -14 28 34 -3 23 -6 73 -7 111 -1 47 -6 71 -15 74 -9 3 -11 -3
-8 -20z"/>
<path d="M5322 3440 c-18 -24 -20 -30 -7 -30 25 0 17 -18 -12 -28 -25 -9 -26
-10 -5 -11 25 -1 30 -16 7 -25 -23 -8 -18 -28 5 -21 17 5 20 2 21 -22 0 -24 2
-25 8 -8 5 11 6 26 4 33 -3 6 2 12 11 12 19 0 22 16 4 23 -10 3 -10 7 0 19 10
13 10 17 -4 22 -15 6 -15 8 -2 24 15 16 14 42 -1 42 -4 0 -17 -13 -29 -30z"/>
<path d="M1986 3425 c10 -8 23 -15 28 -15 6 0 1 7 -10 15 -10 8 -23 15 -28 15
-6 0 -1 -7 10 -15z"/>
<path d="M5395 3400 c-3 -5 -1 -18 4 -27 9 -16 10 -14 11 10 0 28 -5 34 -15
17z"/>
<path d="M1992 3386 c10 -7 15 -16 11 -19 -3 -4 -12 -2 -20 4 -9 8 -13 8 -13
1 0 -15 40 -26 52 -14 14 14 3 28 -24 35 -21 5 -21 5 -6 -7z"/>
<path d="M2098 3393 c-10 -3 -18 -8 -18 -13 0 -5 8 -7 18 -4 14 5 14 3 -3 -10
-11 -9 -25 -14 -33 -11 -10 3 -11 -1 -7 -16 8 -25 -2 -69 -15 -69 -6 0 -10 9
-10 21 0 11 -4 18 -9 15 -5 -4 -12 0 -14 6 -4 8 -6 7 -6 -4 -1 -17 24 -48 39
-48 12 0 22 18 30 54 4 22 12 31 25 31 21 0 41 34 28 45 -4 4 -16 5 -25 3z"/>
<path d="M1792 3361 c-6 -16 -8 -32 -5 -35 3 -3 2 -13 -1 -23 -7 -17 -8 -17
-17 -1 -8 14 -12 13 -39 -10 -16 -15 -30 -32 -30 -39 0 -6 -27 -20 -60 -30
-38 -11 -62 -24 -66 -35 -3 -10 -9 -16 -14 -13 -8 5 -50 -119 -50 -149 0 -9
-7 -33 -15 -52 -8 -20 -17 -81 -20 -137 -7 -131 -11 -151 -47 -209 -32 -52
-33 -85 -3 -102 11 -6 32 -19 46 -28 14 -10 29 -15 33 -11 16 16 3 33 -34 44
-64 19 -70 35 -27 74 24 22 37 43 37 59 0 14 5 28 10 31 6 3 8 23 5 43 -3 20
-6 44 -7 52 -1 8 2 46 6 83 7 52 13 70 29 78 16 9 22 8 28 -4 5 -9 17 -13 28
-10 13 3 24 -4 36 -25 10 -16 29 -37 44 -45 14 -9 42 -30 61 -47 27 -25 31
-33 20 -40 -10 -6 -29 2 -61 26 -26 19 -50 34 -55 34 -4 0 -19 10 -32 23 -21
19 -24 19 -19 4 4 -10 7 -22 7 -27 0 -5 10 -12 21 -15 35 -11 109 -59 109 -70
0 -17 -77 -45 -125 -45 l-45 0 -1 43 c-1 67 -17 14 -18 -58 -1 -85 22 -129
133 -257 17 -20 16 -21 -67 -63 -33 -16 -54 -31 -49 -33 6 -2 37 10 69 26 86
43 118 47 141 17 24 -30 35 -31 71 -4 23 17 33 19 49 10 28 -15 57 -14 90 3
15 7 39 16 55 20 26 6 27 5 21 -21 -16 -68 -83 -131 -162 -149 l-27 -7 21 24
c21 25 44 72 44 92 0 6 -16 -14 -36 -46 -33 -53 -38 -57 -74 -57 -21 0 -50 7
-66 15 -30 15 -40 14 -29 -4 3 -6 15 -11 26 -11 10 0 19 -4 19 -9 0 -5 10 -11
23 -14 19 -3 20 -4 4 -11 -32 -15 -87 3 -98 31 -9 25 -10 25 -29 8 -18 -17
-21 -16 -65 1 -25 11 -45 25 -45 32 0 15 3 15 34 0 21 -9 33 -8 65 7 22 10 47
15 55 12 10 -4 16 -1 16 9 0 13 -7 15 -32 9 -72 -14 -118 -17 -118 -6 0 6 -7
11 -15 11 -8 0 -15 -4 -15 -10 0 -13 -37 -13 -44 -1 -4 5 0 11 6 14 10 3 10 7
0 20 -13 15 -47 13 -37 -3 3 -4 -1 -10 -8 -13 -8 -3 -19 4 -26 15 -7 11 -15
18 -18 15 -6 -7 16 -50 31 -59 15 -10 -4 -39 -35 -55 -13 -7 -18 -13 -11 -13
20 0 -5 -40 -26 -40 -14 0 -14 -2 -3 -9 11 -7 10 -14 -6 -37 -11 -16 -28 -51
-38 -79 -10 -27 -20 -51 -21 -53 -1 -2 -22 2 -45 8 -60 16 -112 66 -104 100
11 44 34 60 87 60 l48 0 0 -60 c0 -33 4 -60 10 -60 6 0 10 11 10 24 0 14 7 31
15 39 10 10 13 25 9 44 -4 21 0 35 18 54 43 48 64 86 54 97 -4 4 -15 -3 -24
-16 -16 -20 -23 -22 -78 -16 -89 9 -210 -30 -238 -77 -36 -60 -38 -95 -11
-162 6 -13 3 -16 -9 -11 -13 5 -16 -1 -16 -27 -1 -45 -10 -151 -15 -166 -2 -7
-11 -10 -20 -7 -9 4 -15 1 -15 -9 0 -8 8 -14 18 -13 15 1 17 -9 18 -81 0 -46
3 -86 7 -90 4 -3 7 6 7 21 0 27 1 27 48 20 26 -3 51 -9 57 -12 5 -3 26 -5 47
-3 20 1 46 -3 58 -9 17 -9 26 -8 44 4 21 13 25 13 45 -7 l22 -22 19 25 c24 31
25 18 3 -37 -21 -51 -38 -55 -47 -11 -3 17 -9 29 -12 26 -3 -4 0 -24 6 -46 11
-34 10 -43 -6 -67 -17 -25 -19 -26 -31 -9 -12 16 -13 14 -13 -17 0 -36 -20
-61 -60 -74 -12 -4 -19 -12 -16 -20 2 -7 -11 -26 -30 -41 l-34 -29 36 -10 c45
-12 48 -26 9 -44 -45 -22 -107 -25 -130 -7 -64 51 -130 96 -142 96 -23 0 -14
-15 23 -35 19 -10 40 -27 45 -37 5 -10 16 -18 24 -18 8 0 30 -9 50 -20 47 -26
109 -26 146 1 24 17 33 18 44 9 8 -7 15 -18 15 -24 0 -22 55 -66 82 -66 27 0
68 43 68 72 0 8 3 9 8 3 4 -5 16 -17 26 -25 18 -14 19 -14 8 7 -7 12 -23 30
-37 42 l-26 20 27 53 c39 76 64 171 71 266 5 67 9 82 21 80 22 -4 81 -108 83
-147 0 -11 2 -12 6 -3 11 29 -19 109 -58 151 -21 24 -39 48 -39 53 0 5 26 7
60 4 32 -3 62 -2 64 3 6 10 -41 21 -88 21 -84 1 -100 25 -86 136 7 51 6 82 0
95 -6 10 -12 19 -13 19 -1 0 -3 -30 -5 -66 -1 -36 -7 -74 -12 -84 -7 -13 -7
-21 0 -25 5 -3 10 -17 10 -30 0 -23 -2 -24 -72 -20 -111 6 -147 14 -226 53
l-74 36 7 60 c4 34 9 63 12 66 2 3 12 -5 21 -17 38 -49 193 -105 270 -98 18 2
36 5 38 8 3 2 -2 22 -10 43 -8 22 -14 46 -14 54 0 8 -1 34 -3 57 -2 34 6 55
40 111 61 101 101 133 82 65 -13 -44 -16 -138 -7 -204 8 -55 8 -56 42 -56 18
0 35 6 38 14 4 9 -4 13 -24 13 -35 0 -39 6 -47 70 -5 43 13 134 33 172 2 3 23
-3 45 -14 23 -11 58 -22 78 -25 20 -3 46 -14 59 -23 17 -14 30 -16 59 -9 21 4
57 5 81 2 40 -5 56 -1 114 28 10 5 23 9 30 9 24 0 139 -135 167 -195 43 -91
79 -238 86 -350 8 -131 30 -277 52 -343 16 -50 16 -53 -1 -70 -15 -15 -18 -15
-29 -1 -7 8 -38 32 -70 53 -32 21 -63 48 -69 60 -6 11 -21 33 -34 48 -12 15
-24 33 -27 40 -2 7 -7 10 -11 6 -10 -9 30 -84 62 -117 15 -15 49 -41 76 -59
51 -33 50 -35 -19 -48 l-40 -8 33 -4 c19 -2 47 1 63 7 19 6 31 6 35 0 4 -6 13
-4 24 6 13 11 26 14 42 10 23 -8 23 -8 4 14 -11 11 -16 21 -13 21 3 0 -3 30
-14 68 -31 109 -39 164 -54 362 -4 47 -13 110 -22 140 -8 30 -19 72 -24 92
-11 46 -70 152 -99 178 -3 3 -31 35 -63 72 l-57 66 35 39 c19 21 35 47 35 58
0 12 4 25 10 31 5 5 6 15 1 22 -6 10 -16 9 -50 -3 -59 -20 -125 -20 -117 0 7
19 3 19 -47 -5 -45 -22 -87 -20 -108 6 -6 8 -20 12 -30 9 -29 -9 -12 28 19 43
23 11 29 10 40 -5 9 -12 15 -14 23 -6 6 6 9 16 5 21 -7 11 -56 22 -56 13 0
-13 -60 -39 -79 -34 -20 5 -81 74 -81 93 0 6 -6 23 -14 38 -7 15 -16 43 -19
63 l-5 37 35 -9 c43 -9 104 11 144 47 14 13 32 24 40 24 7 0 25 9 39 20 21 17
23 21 10 29 -8 6 -11 13 -7 18 5 4 12 2 16 -5 5 -9 20 -11 48 -6 40 6 42 5 68
-36 29 -46 28 -77 -3 -108 -25 -26 -75 -93 -90 -121 -9 -18 -10 -27 -2 -35 18
-17 110 85 110 121 0 16 7 39 16 51 9 13 13 31 9 42 -4 11 -2 20 4 20 6 0 11
-5 11 -12 0 -6 2 -9 5 -6 9 9 -6 38 -20 38 -7 0 -20 11 -29 25 -32 48 -13 61
28 20 14 -14 33 -25 43 -25 15 0 14 3 -6 19 -13 10 -21 23 -17 30 5 7 -1 10
-15 8 -24 -2 -36 22 -38 77 -1 21 3 27 14 22 17 -6 19 2 7 22 -17 26 -38 3
-36 -41 3 -77 -3 -87 -52 -87 -24 0 -53 6 -64 12 -19 12 -19 13 6 39 22 23 24
29 13 47 -17 27 -59 47 -59 28 0 -7 6 -19 14 -26 17 -13 10 -40 -10 -40 -17 0
-18 -17 -1 -23 10 -4 10 -6 0 -6 -19 -1 -16 -51 2 -51 15 0 20 -12 9 -23 -11
-11 -54 37 -54 59 0 12 -7 41 -15 64 -19 54 -19 84 0 100 12 10 12 15 -5 32
-11 12 -17 25 -14 30 3 4 1 8 -5 8 -15 0 -28 28 -36 78 -6 40 -6 42 18 42 35
0 54 -26 39 -51 -16 -24 -16 -24 9 -26 24 -2 29 -6 33 -25 7 -33 19 -50 27
-37 6 10 11 10 23 0 20 -17 21 -32 1 -25 -9 4 -15 0 -15 -9 0 -13 76 -57 99
-57 5 0 7 -9 4 -20 -3 -11 -1 -20 5 -20 5 0 12 10 16 23 8 30 80 61 96 42 7
-8 9 -23 5 -35 -3 -11 -3 -20 2 -20 5 0 13 -10 18 -22 10 -23 55 -39 55 -20 0
5 -10 13 -22 16 -22 7 -22 7 -3 15 29 12 45 2 45 -28 0 -32 -13 -53 -30 -49
-7 2 -15 -3 -17 -10 -3 -8 1 -10 11 -6 9 3 16 2 16 -4 0 -6 -5 -12 -11 -14 -6
-2 7 -28 30 -57 33 -44 39 -60 34 -85 -3 -17 -11 -36 -18 -41 -7 -6 -12 -33
-13 -60 0 -28 -2 -68 -6 -90 -5 -37 -4 -36 12 13 9 29 21 51 27 49 14 -5 47
31 35 38 -6 4 -14 3 -20 0 -13 -8 -13 46 1 81 13 36 6 65 -26 102 l-25 30 16
83 c22 115 15 168 -30 213 -19 20 -39 36 -44 36 -15 0 -23 -28 -16 -56 7 -27
19 -31 28 -9 12 31 28 13 37 -40 1 -5 5 -20 10 -32 5 -13 4 -25 -1 -28 -6 -4
-13 2 -17 12 -9 26 -38 51 -66 58 -22 6 -24 10 -19 51 4 36 2 44 -12 44 -11 0
-16 -9 -16 -30 0 -39 -16 -39 -24 1 -3 17 -10 28 -16 24 -5 -3 -10 0 -10 7 -1
7 -8 -3 -16 -22 -11 -26 -13 -40 -5 -52 6 -10 8 -25 4 -34 -5 -14 -3 -14 15
-3 27 17 41 3 16 -16 -25 -19 -48 -19 -86 1 -28 14 -29 17 -15 32 13 13 19 13
32 2 24 -20 28 -6 8 28 -17 27 -21 29 -37 16 -11 -7 -23 -11 -27 -8 -14 9 -11
55 4 52 7 -2 14 0 16 5 6 15 -11 93 -26 115 -13 21 -13 26 3 43 22 25 34 24
34 -2 0 -11 9 -32 20 -46 11 -14 20 -33 20 -42 0 -21 74 -50 119 -48 33 2 72
36 70 61 0 7 -2 7 -6 -1 -7 -19 -27 -16 -41 7 -7 11 -17 20 -23 20 -5 0 -8 -4
-5 -9 4 -5 0 -12 -6 -14 -8 -4 -5 -8 9 -12 13 -4 20 -12 16 -21 -4 -11 -9 -12
-18 -4 -9 8 -15 8 -20 0 -7 -11 -45 -14 -45 -3 0 4 10 17 22 30 12 13 19 25
16 28 -9 10 -57 -17 -60 -33 -2 -8 -14 11 -27 44 -14 32 -32 64 -40 70 -13 10
-13 14 -1 29 12 14 12 18 -1 26 -26 16 -47 9 -57 -20z m34 -28 c-11 -11 -19 6
-11 24 8 17 8 17 12 0 3 -10 2 -21 -1 -24z m-29 -81 c13 -8 35 -93 27 -101 -9
-9 -24 23 -24 50 0 15 -7 29 -15 33 -8 3 -15 10 -15 16 0 12 10 13 27 2z m-11
-99 l5 -48 -20 24 c-15 16 -19 31 -15 48 5 17 1 28 -11 37 -10 7 -15 18 -11
25 13 21 46 -34 52 -86z m-148 0 c2 -79 14 -136 32 -161 18 -24 53 -132 43
-132 -10 0 -76 50 -87 67 -7 10 -18 39 -25 65 -12 42 -17 47 -44 50 -29 3 -30
4 -13 20 9 10 19 30 20 45 2 16 4 31 5 35 2 14 33 38 50 38 13 0 18 -8 19 -27z
m55 -105 c12 -18 1 -56 -13 -42 -5 5 -11 22 -14 37 -5 30 10 33 27 5z m237
-425 c0 -11 -52 -75 -57 -70 -6 6 40 77 50 77 4 0 7 -3 7 -7z m-630 -357 c0
-8 5 -16 11 -18 9 -3 9 -9 1 -25 -10 -17 -18 -20 -56 -16 -53 6 -112 -12 -127
-38 -11 -22 -3 -76 15 -98 20 -25 85 -61 111 -61 14 0 37 -7 50 -16 24 -16 24
-16 19 18 -4 30 9 69 19 58 2 -3 7 -33 10 -67 l7 -63 -33 1 c-17 0 -41 5 -52
10 -15 7 -8 8 25 5 35 -4 21 3 -64 32 -77 27 -115 45 -132 65 -53 62 -40 124
35 158 25 12 54 25 63 30 10 5 29 9 43 9 14 0 25 4 25 9 0 13 -131 -19 -157
-38 -91 -67 -56 -186 67 -226 73 -23 88 -39 31 -32 -85 11 -163 92 -163 170 0
39 43 108 75 121 70 28 177 35 177 12z m660 -21 c-7 -8 -20 -15 -29 -15 -12 1
-11 5 8 21 26 22 41 18 21 -6z m-63 -28 c-5 -15 -79 -16 -84 -2 -2 6 17 11 43
12 31 1 44 -2 41 -10z m-758 -384 c2 -2 2 -6 -1 -9 -8 -8 -80 13 -102 29 -11
8 -16 19 -12 25 6 10 57 -11 115 -45z m-41 -73 c-3 -41 -5 -45 -28 -42 -32 3
-50 27 -50 67 0 41 4 44 46 31 34 -11 35 -12 32 -56z m259 30 c56 0 63 -3 82
-28 21 -29 19 -72 -3 -72 -6 0 -5 -4 3 -9 13 -8 13 -23 3 -95 -11 -88 -49
-216 -64 -216 -4 0 -8 -5 -8 -11 0 -6 -9 -24 -21 -40 -11 -16 -16 -29 -11 -29
16 0 25 -52 10 -61 -27 -18 -46 -7 -97 56 -29 36 -60 65 -69 65 -13 0 -13 3 3
20 10 11 26 22 36 25 11 4 19 13 19 21 0 8 24 45 53 83 91 122 129 204 103
223 -6 4 -5 13 3 21 10 13 3 16 -56 20 -77 4 -165 27 -170 43 -2 7 16 7 59 -2
35 -8 91 -14 125 -14z m-175 -12 c7 -7 28 -14 47 -15 47 -2 64 -21 48 -53 -18
-35 -48 -32 -68 6 -15 30 -16 31 -25 10 -5 -12 -20 -22 -35 -24 -22 -3 -28 2
-33 23 -10 39 2 65 29 65 13 0 30 -6 37 -12z m183 -38 c2 -3 -4 -16 -14 -28
-21 -29 -51 -20 -51 14 0 21 4 24 31 22 17 -1 32 -5 34 -8z"/>
<path d="M1153 3353 c-27 -5 -30 -18 -6 -27 15 -6 15 -8 3 -17 -13 -8 -12 -11
4 -24 26 -20 13 -43 -26 -47 -18 -2 -32 -7 -30 -13 3 -13 53 -14 130 -1 73 12
79 33 8 28 -47 -4 -47 -3 -36 18 10 18 9 24 -1 31 -11 7 -12 12 -1 29 20 32
14 34 -45 23z"/>
<path d="M2101 3303 c-1 -6 -4 -20 -7 -30 -5 -17 -5 -17 6 0 6 10 9 23 6 30
-3 9 -5 9 -5 0z"/>
<path d="M4220 3237 c0 -14 19 -37 32 -37 16 0 7 30 -12 40 -15 8 -20 8 -20
-3z"/>
<path d="M3584 3203 c-14 -42 -7 -73 18 -73 26 0 19 -9 -12 -15 -66 -13 -130
-100 -130 -177 0 -26 4 -48 10 -48 5 0 7 13 3 30 -12 61 64 171 125 183 32 6
67 -9 87 -39 19 -30 49 -25 53 9 3 22 -1 27 -18 27 -13 0 -19 4 -14 11 3 6 1
15 -7 19 -10 7 -10 11 0 24 17 20 35 21 27 1 -6 -18 -1 -19 25 -5 15 9 21 7
26 -6 4 -10 2 -19 -5 -22 -17 -5 -15 -32 2 -32 13 0 26 28 26 57 0 21 -73 50
-146 58 -14 1 -30 7 -37 14 -16 16 -22 14 -33 -16z m50 -20 c8 -21 -8 -38 -29
-29 -13 4 -14 10 -5 26 13 24 26 26 34 3z m56 -2 c0 -21 -13 -41 -26 -41 -14
0 -19 31 -7 43 10 10 33 8 33 -2z m-10 -55 c0 -3 -4 -8 -10 -11 -5 -3 -10 -1
-10 4 0 6 5 11 10 11 6 0 10 -2 10 -4z"/>
<path d="M4100 3205 c-7 -9 -11 -18 -8 -20 8 -9 36 5 42 21 7 19 -18 18 -34
-1z"/>
<path d="M4143 3174 c-30 -47 -29 -56 5 -47 15 4 42 7 60 6 21 -1 32 3 32 12
0 17 -43 32 -48 16 -5 -14 -32 -15 -32 -1 0 6 5 10 10 10 6 0 10 9 10 20 0 29
-12 24 -37 -16z"/>
<path d="M2076 3155 c4 -8 11 -15 17 -15 6 0 22 -10 36 -22 22 -20 23 -20 11
-3 -17 23 -52 54 -62 55 -4 0 -5 -7 -2 -15z"/>
<path d="M5350 3160 c-13 -8 -13 -10 2 -10 11 0 15 -6 11 -20 -3 -11 -9 -20
-14 -20 -5 0 -9 -5 -9 -11 0 -5 5 -7 10 -4 6 3 10 1 10 -4 0 -6 -5 -11 -12
-11 -6 0 -9 -3 -6 -6 4 -3 15 -1 26 5 16 8 21 7 26 -5 8 -22 8 -25 -6 -23 -23
3 -38 -1 -38 -9 0 -4 16 -6 35 -4 44 5 46 -14 3 -21 -41 -6 -56 10 -64 75 -4
26 -11 48 -16 48 -6 0 -8 -10 -5 -22 3 -13 9 -44 12 -70 l7 -48 59 0 c65 0 62
-4 74 91 8 66 1 79 -49 79 -22 0 -48 -5 -56 -10z m90 -24 c0 -7 -5 -17 -12
-24 -9 -9 -9 -12 0 -12 7 0 12 -13 11 -32 0 -18 -3 -26 -6 -18 -4 8 -12 20
-19 25 -10 8 -19 52 -15 77 2 11 41 -4 41 -16z"/>
<path d="M2211 2949 c10 -42 6 -59 -14 -59 -7 0 -13 -9 -13 -20 0 -11 3 -20 7
-20 12 0 76 -65 83 -84 5 -14 9 -16 20 -7 7 6 16 8 19 4 4 -3 7 -4 7 0 0 3
-12 18 -27 31 -18 17 -28 37 -30 60 -1 30 -46 136 -57 136 -2 0 0 -18 5 -41z"/>
<path d="M3598 2977 c-40 -16 -34 -26 7 -13 19 6 35 14 35 18 0 10 -8 9 -42
-5z"/>
<path d="M3740 2960 c0 -30 22 -42 35 -20 3 6 -1 10 -11 10 -13 0 -14 3 -5 14
9 10 8 15 -4 20 -11 4 -15 -2 -15 -24z"/>
<path d="M3520 2976 c0 -2 7 -7 16 -10 8 -3 12 -2 9 4 -6 10 -25 14 -25 6z"/>
<path d="M3496 2925 c-2 -7 1 -15 7 -18 15 -6 54 8 41 15 -26 14 -43 15 -48 3z"/>
<path d="M3591 2926 c-8 -10 -9 -16 -1 -21 5 -3 10 1 10 9 0 9 7 16 15 16 8 0
15 -5 15 -11 0 -5 5 -7 10 -4 18 11 10 25 -14 25 -13 0 -29 -6 -35 -14z"/>
<path d="M3742 2870 c0 -14 2 -19 5 -12 2 6 2 18 0 25 -3 6 -5 1 -5 -13z"/>
<path d="M3555 2860 c-19 -8 -19 -9 3 -9 12 -1 22 4 22 9 0 6 -1 10 -2 9 -2 0
-12 -4 -23 -9z"/>
<path d="M3725 2809 c-27 -22 -63 -47 -78 -55 -16 -9 -27 -18 -24 -21 3 -2 15
1 27 7 21 11 22 10 16 -17 -3 -15 -8 -45 -12 -66 -4 -21 -13 -41 -20 -44 -8
-3 -14 -9 -14 -15 0 -5 5 -6 11 -2 17 10 2 -47 -16 -65 -13 -13 -17 -9 -31 25
-9 21 -19 34 -21 27 -2 -6 8 -37 23 -68 38 -78 94 -131 94 -90 0 8 -7 15 -15
15 -17 0 -21 45 -5 55 6 4 22 0 35 -9 21 -14 24 -14 19 -1 -3 8 8 32 26 55 18
23 30 43 28 45 -2 3 -24 -14 -49 -37 -50 -47 -62 -36 -33 29 10 21 18 52 19
69 3 45 12 64 30 64 10 0 14 -5 10 -12 -4 -7 9 4 28 25 34 36 36 37 46 18 8
-14 8 -28 1 -47 -6 -15 -8 -29 -6 -32 3 -3 10 7 15 22 6 14 12 26 15 26 2 0
28 -35 57 -77 l54 -78 1 -145 c3 -217 4 -238 13 -215 5 11 9 94 10 185 1 158
0 167 -25 215 -14 28 -50 78 -80 110 -30 33 -64 79 -75 103 -12 23 -22 42 -22
42 -1 0 -24 -18 -52 -41z"/>
<path d="M3495 2811 c3 -18 5 -45 5 -60 1 -23 2 -24 11 -8 6 9 7 26 4 37 -4
11 -2 20 4 20 6 0 11 5 11 10 0 6 -6 10 -14 10 -8 0 -17 6 -20 13 -4 6 -4 -3
-1 -22z"/>
<path d="M2140 2812 c0 -5 9 -17 21 -28 12 -10 30 -31 40 -46 20 -27 20 -27 1
-46 -26 -26 -18 -70 14 -78 12 -3 25 -13 27 -22 4 -15 5 -15 6 0 1 18 42 35
59 24 15 -9 55 81 44 101 -9 15 -11 14 -23 -5 -26 -42 -109 -16 -109 33 0 14
-12 34 -31 49 -31 26 -49 33 -49 18z"/>
<path d="M3552 2789 c2 -6 7 -10 11 -10 4 1 14 1 23 1 8 0 12 5 9 10 -8 13
-48 13 -43 -1z"/>
<path d="M2225 2780 c3 -5 10 -10 16 -10 5 0 9 5 9 10 0 6 -7 10 -16 10 -8 0
-12 -4 -9 -10z"/>
<path d="M3550 2751 c0 -5 5 -13 10 -16 6 -3 10 -2 10 4 0 5 -4 13 -10 16 -5
3 -10 2 -10 -4z"/>
<path d="M3445 2680 c-23 -26 -4 -26 26 0 18 15 20 19 8 20 -9 0 -24 -9 -34
-20z"/>
<path d="M3520 2688 c0 -7 9 -31 19 -53 23 -48 28 -23 6 29 -16 37 -25 46 -25
24z"/>
<path d="M2020 2681 c0 -6 4 -13 10 -16 6 -3 7 1 4 9 -7 18 -14 21 -14 7z"/>
<path d="M1683 2660 c-28 -11 -29 -16 -4 -23 13 -3 21 1 24 14 3 11 4 19 4 18
-1 0 -12 -4 -24 -9z"/>
<path d="M3620 2660 c0 -5 7 -7 15 -4 8 4 15 8 15 10 0 2 -7 4 -15 4 -8 0 -15
-4 -15 -10z"/>
<path d="M1716 2651 c-4 -5 -2 -12 3 -15 5 -4 12 -2 15 3 4 5 2 12 -3 15 -5 4
-12 2 -15 -3z"/>
<path d="M1967 2644 c-3 -4 -1 -16 4 -27 6 -11 9 -48 7 -84 -3 -46 -1 -58 6
-46 6 10 9 47 7 83 -2 63 -10 87 -24 74z"/>
<path d="M2040 2646 c0 -2 7 -20 16 -41 11 -26 19 -34 26 -27 7 7 4 20 -11 41
-20 28 -31 38 -31 27z"/>
<path d="M3407 2644 c-4 -4 -7 -14 -7 -23 0 -11 3 -12 11 -4 6 6 10 16 7 23
-2 6 -7 8 -11 4z"/>
<path d="M3790 2629 c-7 -11 -10 -23 -7 -25 2 -2 9 7 15 21 14 30 7 33 -8 4z"/>
<path d="M2350 2620 c0 -16 23 -60 32 -60 8 0 1 44 -9 63 -6 10 -23 9 -23 -3z"/>
<path d="M1480 2601 c0 -6 4 -13 10 -16 6 -3 7 1 4 9 -7 18 -14 21 -14 7z"/>
<path d="M2267 2591 c-3 -14 -1 -18 9 -14 16 6 18 19 5 27 -5 3 -11 -3 -14
-13z"/>
<path d="M3367 2565 c-9 -20 -17 -41 -16 -48 0 -7 9 8 20 32 23 53 20 66 -4
16z"/>
<path d="M3866 2518 c6 -51 4 -57 -16 -68 -12 -6 -44 -10 -71 -8 -62 4 -48
-11 18 -18 31 -4 58 -2 73 6 20 11 22 17 17 61 -3 27 -11 57 -17 67 -8 13 -9
3 -4 -40z"/>
<path d="M1527 2535 c16 -22 43 -41 43 -30 0 6 -50 55 -56 55 -3 0 3 -11 13
-25z"/>
<path d="M2217 2543 c-13 -13 -7 -25 7 -14 16 13 20 9 30 -31 8 -36 28 -36 25
0 -2 15 0 33 4 40 6 9 -1 12 -26 12 -18 0 -37 -3 -40 -7z"/>
<path d="M3439 2539 c0 -2 -1 -19 -2 -37 -2 -31 -1 -32 36 -32 25 0 37 4 35
12 -4 11 -67 64 -69 57z m48 -46 c3 -7 -4 -9 -16 -6 -12 3 -18 9 -15 15 7 11
26 6 31 -9z"/>
<path d="M2305 2520 c3 -5 8 -10 11 -10 2 0 4 5 4 10 0 6 -5 10 -11 10 -5 0
-7 -4 -4 -10z"/>
<path d="M3389 2503 c-13 -16 -12 -17 4 -4 16 13 21 21 13 21 -2 0 -10 -8 -17
-17z"/>
<path d="M475 2500 c-3 -5 -3 -15 0 -20 4 -6 -1 -24 -9 -42 -21 -42 -20 -80 3
-106 21 -25 36 -29 27 -7 -3 9 0 15 10 15 8 0 17 -13 21 -30 3 -16 10 -30 15
-30 6 0 6 -6 -1 -14 -8 -9 -8 -21 -1 -40 15 -41 22 -31 18 27 -3 46 0 53 20
62 12 5 22 13 22 17 0 4 10 23 21 43 17 28 24 33 35 24 8 -6 14 -24 14 -40 0
-24 -7 -32 -41 -49 -23 -11 -45 -17 -49 -15 -9 5 12 -70 21 -80 4 -3 4 6 2 19
-3 14 -2 34 2 43 7 17 8 16 15 -2 5 -11 6 -31 3 -44 -4 -18 -3 -22 7 -16 8 5
10 20 6 46 -5 34 -3 39 21 51 36 17 40 48 10 84 -12 16 -24 42 -25 58 -3 38
-5 40 -47 38 -19 -1 -37 3 -40 8 -8 13 -72 13 -80 0z"/>
<path d="M2195 2460 c-19 -27 -42 -44 -67 -52 -43 -13 -45 -31 -5 -36 18 -2
27 1 27 11 0 15 44 57 60 57 9 0 30 40 30 56 0 14 -19 -2 -45 -36z"/>
<path d="M2329 2474 c-7 -8 -26 -22 -42 -30 -32 -17 -31 -30 2 -19 11 3 30 19
41 36 22 30 22 40 -1 13z"/>
<path d="M1430 2469 c0 -6 4 -19 10 -29 8 -15 5 -19 -16 -24 -30 -8 -22 -26
12 -26 19 0 24 5 24 25 0 14 5 25 10 25 7 0 7 6 0 20 -11 21 -40 28 -40 9z"/>
<path d="M3363 2473 c-18 -7 -16 -23 2 -23 8 0 15 7 15 15 0 8 -1 15 -2 14 -2
0 -9 -3 -15 -6z"/>
<path d="M1916 2453 c-6 -14 -5 -15 5 -6 7 7 10 15 7 18 -3 3 -9 -2 -12 -12z"/>
<path d="M1553 2435 c-27 -13 -56 -31 -63 -40 -21 -26 18 -19 56 10 18 14 43
29 55 33 12 5 18 11 13 15 -6 3 -33 -5 -61 -18z"/>
<path d="M3295 2448 c-12 -5 -27 -18 -33 -29 -12 -19 -12 -19 17 -5 45 24 59
54 16 34z"/>
<path d="M3620 2410 c0 -15 33 -50 48 -50 9 0 6 9 -10 29 -24 31 -38 38 -38
21z"/>
<path d="M3346 2395 c4 -8 8 -15 10 -15 2 0 4 7 4 15 0 8 -4 15 -10 15 -5 0
-7 -7 -4 -15z"/>
<path d="M3573 2385 c-13 -14 -6 -58 8 -49 13 8 10 -17 -4 -43 -9 -17 -16 -20
-27 -12 -11 8 -12 12 -2 16 24 10 11 23 -23 23 -24 0 -35 5 -35 14 0 23 -34
24 -46 1 -5 -11 -17 -19 -26 -17 -19 3 -48 -80 -39 -113 5 -18 6 -17 11 5 12
57 50 80 50 30 0 -10 6 -20 12 -22 9 -3 12 -27 9 -84 -1 -43 0 -77 2 -74 3 3
7 32 8 64 2 48 6 60 21 64 12 3 17 10 13 22 -4 13 4 25 25 40 28 20 30 20 30
3 0 -10 14 6 30 36 35 63 36 72 13 94 -15 12 -20 13 -30 2z"/>
<path d="M3292 2358 c-15 -20 -23 -54 -16 -72 9 -23 22 -11 17 16 -3 14 4 32
17 46 15 16 17 22 7 22 -8 0 -19 -6 -25 -12z"/>
<path d="M3736 2355 c4 -8 11 -15 16 -15 6 0 5 6 -2 15 -7 8 -14 15 -16 15 -2
0 -1 -7 2 -15z"/>
<path d="M3320 2314 c-14 -36 -12 -42 6 -19 14 19 16 19 25 2 6 -9 14 -15 20
-12 10 7 -18 55 -32 55 -5 0 -14 -12 -19 -26z"/>
<path d="M3761 2314 c0 -11 3 -14 6 -6 3 7 2 16 -1 19 -3 4 -6 -2 -5 -13z"/>
<path d="M679 2300 c-12 -13 -13 -19 -2 -28 10 -10 14 -7 19 13 8 32 3 36 -17
15z"/>
<path d="M3610 2274 c0 -21 -3 -56 -6 -76 -6 -32 -11 -38 -31 -38 -21 0 -23 3
-17 23 3 12 3 19 -1 15 -4 -4 -12 -29 -17 -55 -18 -90 -19 -97 -24 -104 -2 -4
0 -10 5 -14 6 -3 13 11 16 32 13 84 16 89 26 70 6 -9 17 -17 26 -17 12 0 14
-7 9 -31 -3 -17 -6 -42 -6 -56 0 -22 -3 -23 -47 -19 -27 3 -51 5 -55 5 -3 1
-9 9 -11 19 -4 16 -5 16 -6 0 -1 -24 38 -48 74 -44 36 5 44 -6 39 -53 -3 -31
-2 -32 5 -11 5 14 9 46 10 71 1 26 6 71 12 100 11 61 15 206 5 216 -3 3 -6
-11 -6 -33z"/>
<path d="M388 2293 c-9 -2 -19 -10 -21 -17 -7 -17 38 -9 54 10 12 15 3 17 -33
7z"/>
<path d="M450 2265 c0 -8 4 -15 9 -15 5 0 11 7 15 15 3 9 0 15 -9 15 -8 0 -15
-7 -15 -15z"/>
<path d="M510 2264 c0 -8 5 -12 10 -9 6 4 8 11 5 16 -9 14 -15 11 -15 -7z"/>
<path d="M3257 2253 c-6 -34 -2 -41 11 -16 6 11 7 25 3 32 -6 9 -10 4 -14 -16z"/>
<path d="M3212 2254 c-1 -12 -13 -26 -28 -33 -21 -9 -24 -14 -14 -26 7 -8 22
-15 34 -15 12 0 27 -5 33 -11 7 -7 12 -3 15 14 4 19 1 23 -13 20 -14 -4 -18 3
-22 34 -2 21 -4 29 -5 17z"/>
<path d="M3308 2247 c-3 -19 -2 -25 4 -19 6 6 8 18 6 28 -3 14 -5 12 -10 -9z"/>
<path d="M3780 2251 c0 -12 5 -21 10 -21 6 0 10 6 10 14 0 8 -4 18 -10 21 -5
3 -10 -3 -10 -14z"/>
<path d="M3880 2261 c0 -6 5 -13 10 -16 6 -3 10 1 10 9 0 9 -4 16 -10 16 -5 0
-10 -4 -10 -9z"/>
<path d="M4596 2254 c-3 -9 -6 -26 -6 -38 0 -12 -11 -33 -25 -46 -23 -22 -45
-76 -45 -110 1 -20 29 30 30 51 0 29 48 64 88 63 88 0 122 -34 116 -114 -4
-35 -2 -42 8 -32 7 7 13 35 13 63 0 42 4 53 25 69 14 10 21 22 17 26 -4 4 -7
2 -7 -5 0 -7 -5 -9 -10 -6 -6 4 -18 1 -27 -7 -14 -11 -16 -11 -11 2 2 8 15 20
27 26 l22 12 -28 19 c-61 43 -175 59 -187 27z m111 -18 c14 -14 -35 -44 -71
-43 -20 0 -36 2 -36 3 0 2 4 14 9 27 8 21 15 24 51 22 22 -1 44 -5 47 -9z m53
-15 c0 -14 -18 -23 -30 -16 -6 4 -8 11 -5 16 8 12 35 12 35 0z"/>
<path d="M4661 2226 c-8 -9 -11 -19 -7 -23 9 -9 29 13 24 27 -2 8 -8 7 -17 -4z"/>
<path d="M706 2245 c-3 -8 -1 -15 4 -15 6 0 10 7 10 15 0 8 -2 15 -4 15 -2 0
-6 -7 -10 -15z"/>
<path d="M329 2233 c-13 -16 -12 -17 4 -4 9 7 17 15 17 17 0 8 -8 3 -21 -13z"/>
<path d="M345 2199 c-4 -6 -13 -8 -21 -5 -8 3 -11 0 -7 -10 8 -20 30 -17 43 6
11 21 -3 29 -15 9z"/>
<path d="M685 2201 c-3 -6 0 -11 7 -11 8 -1 7 -5 -5 -14 -14 -11 -15 -15 -5
-19 10 -4 10 -8 -2 -16 -12 -8 -13 -14 -3 -29 9 -15 9 -22 0 -31 -8 -8 -8 -11
0 -11 14 0 27 36 19 49 -4 5 1 16 10 25 17 18 16 57 -3 63 -6 2 -14 -1 -18 -6z"/>
<path d="M612 2180 c0 -14 2 -19 5 -12 2 6 2 18 0 25 -3 6 -5 1 -5 -13z"/>
<path d="M3693 2150 c-1 -28 1 -50 5 -50 8 0 10 86 2 94 -3 3 -7 -17 -7 -44z"/>
<path d="M3302 2165 c0 -16 2 -22 5 -12 2 9 2 23 0 30 -3 6 -5 -1 -5 -18z"/>
<path d="M428 2155 c-19 -26 -24 -75 -8 -75 6 0 10 4 10 10 0 5 9 14 20 20 31
17 105 -7 136 -42 13 -17 27 -28 29 -26 8 8 -27 44 -65 67 -20 12 -52 21 -74
21 -33 0 -37 2 -26 15 8 10 9 19 4 25 -5 5 -16 -1 -26 -15z"/>
<path d="M561 2170 c-1 -20 34 -72 42 -63 4 3 7 -1 7 -9 0 -9 7 -19 16 -22 26
-10 26 -7 4 22 -12 15 -26 27 -32 27 -5 0 -16 14 -23 30 -7 17 -14 23 -14 15z"/>
<path d="M1900 2166 c0 -8 5 -18 10 -21 6 -3 10 -13 10 -20 0 -19 -45 -3 -77
27 -33 31 -36 18 -4 -17 35 -40 102 -63 136 -47 29 13 36 49 8 37 -45 -18 -57
-19 -50 -1 7 17 -11 56 -25 56 -5 0 -8 -6 -8 -14z"/>
<path d="M1748 2143 c17 -31 115 -127 163 -160 55 -38 162 -61 206 -45 26 10
25 10 -19 11 -26 1 -58 5 -72 11 -30 11 -35 44 -8 59 16 9 16 11 -3 25 -11 9
-14 16 -7 16 6 0 12 6 12 14 0 14 -12 15 -41 2 -15 -7 -15 -12 -3 -53 8 -26
12 -48 10 -50 -12 -12 -61 15 -98 54 -84 88 -110 113 -130 124 -17 9 -18 8
-10 -8z"/>
<path d="M3987 2147 c-4 -10 -17 -17 -34 -17 -24 -1 -26 -2 -10 -11 9 -6 27
-7 38 -4 16 5 20 3 17 -6 -3 -8 -20 -16 -39 -19 -28 -4 -31 -7 -15 -13 14 -6
16 -11 8 -19 -13 -13 -5 -38 13 -38 12 0 26 -31 38 -85 3 -11 3 9 2 44 -2 39
-8 67 -16 72 -11 6 -10 12 4 27 14 16 16 27 9 53 -6 26 -10 29 -15 16z"/>
<path d="M4680 2136 c0 -21 21 -31 30 -15 5 7 6 17 4 21 -9 14 -34 9 -34 -6z"/>
<path d="M3795 2131 c-3 -5 -1 -12 5 -16 5 -3 10 1 10 9 0 18 -6 21 -15 7z"/>
<path d="M3874 2090 c-5 -41 -12 -53 -33 -64 -14 -8 -37 -34 -50 -58 -18 -31
-20 -39 -8 -29 9 7 17 19 17 25 0 6 18 22 41 36 43 26 59 53 59 100 0 50 -19
43 -26 -10z"/>
<path d="M3170 2111 c0 -11 5 -23 10 -26 6 -4 10 5 10 19 0 14 -4 26 -10 26
-5 0 -10 -9 -10 -19z"/>
<path d="M3296 2105 c-3 -8 -17 -15 -31 -15 -14 0 -25 -4 -25 -10 0 -5 10 -10
23 -10 13 0 28 -5 35 -12 9 -9 12 -4 12 25 0 39 -4 46 -14 22z"/>
<path d="M3332 2060 c0 -19 2 -27 5 -17 2 9 2 25 0 35 -3 9 -5 1 -5 -18z"/>
<path d="M3391 2080 c-1 -8 -4 -26 -7 -40 -5 -22 -4 -23 6 -7 6 10 9 28 7 40
-2 12 -5 15 -6 7z"/>
<path d="M322 2045 c-17 -14 -43 -47 -58 -73 -15 -26 -30 -49 -34 -52 -4 -3
-10 -18 -14 -35 -4 -16 -15 -48 -25 -70 -40 -87 -71 -171 -71 -195 0 -14 -7
-43 -15 -65 -19 -53 -18 -66 6 -94 15 -18 32 -25 72 -28 48 -4 51 -3 33 11
-11 9 -30 16 -42 16 -26 0 -56 31 -36 37 15 6 15 40 1 98 -10 41 -8 49 31 142
24 54 55 126 70 161 30 71 72 128 101 137 14 5 27 -2 45 -24 14 -17 31 -31 37
-31 7 0 2 8 -10 18 -12 9 -27 29 -32 45 -13 33 -21 34 -59 2z"/>
<path d="M430 2063 c0 -15 47 -33 84 -33 46 0 89 -23 74 -38 -9 -9 -7 -17 10
-32 18 -17 22 -18 22 -5 0 28 21 15 36 -22 8 -21 18 -45 23 -54 27 -47 20
-199 -9 -199 -13 0 -71 71 -85 103 -7 16 -15 25 -18 20 -9 -15 28 -88 57 -110
35 -28 33 -40 -9 -64 -32 -19 -56 -62 -42 -75 3 -4 17 -7 31 -8 31 -1 31 -4
10 -28 -16 -16 -15 -18 7 -27 13 -5 18 -10 11 -10 -7 -1 -11 -5 -8 -10 4 -5 2
-21 -4 -35 -9 -23 -12 -25 -30 -14 -16 11 -28 10 -65 -3 -64 -23 -80 -6 -76
79 2 34 19 26 27 -13 3 -19 11 -35 16 -35 12 0 6 52 -13 125 l-14 50 -3 -37
c-2 -20 -10 -42 -18 -48 -8 -7 -14 -20 -14 -29 0 -9 -9 -1 -22 19 -12 21 -23
30 -26 22 -2 -7 7 -30 21 -50 13 -21 28 -52 32 -70 8 -39 30 -53 63 -41 18 7
29 6 42 -6 19 -17 80 -32 80 -18 0 5 -14 13 -32 18 -17 6 -33 16 -36 23 -6 19
22 14 52 -9 l26 -20 40 22 c29 17 37 26 29 33 -8 8 -13 7 -16 -1 -3 -7 -12
-13 -21 -13 -20 1 44 60 65 60 7 0 17 9 23 19 19 36 10 39 -21 10 -17 -16 -35
-26 -40 -23 -12 7 -12 34 1 34 16 0 28 34 23 63 -7 35 -23 35 -23 -1 0 -30
-16 -52 -38 -52 -9 0 -12 6 -8 16 3 9 9 28 12 42 l7 27 -30 -27 c-32 -31 -43
-35 -43 -15 0 20 47 60 63 54 20 -7 67 101 59 138 -4 21 -1 26 9 23 8 -3 13
-13 12 -23 0 -10 3 -13 8 -8 12 12 28 102 19 108 -9 6 -20 -19 -20 -46 0 -10
-7 -19 -15 -19 -11 0 -15 11 -15 39 0 22 -4 42 -9 45 -4 3 -11 18 -14 34 -6
29 -49 82 -67 82 -5 0 -10 7 -10 15 0 14 -10 17 -110 30 -24 3 -50 11 -57 17
-8 6 -13 6 -13 1z"/>
<path d="M1756 2049 c10 -12 33 -37 51 -55 67 -71 112 -196 114 -315 0 -41 0
-78 -1 -84 -6 -26 1 -86 9 -80 6 3 9 57 7 123 -4 149 -30 251 -86 333 -22 32
-40 64 -40 69 0 6 -4 9 -9 6 -4 -3 -17 1 -27 9 -29 22 -40 18 -18 -6z"/>
<path d="M1915 2060 c3 -5 8 -10 11 -10 2 0 4 5 4 10 0 6 -5 10 -11 10 -5 0
-7 -4 -4 -10z"/>
<path d="M3186 2002 c4 -39 3 -62 -3 -62 -10 0 -9 -44 2 -85 10 -37 45 -68 85
-75 37 -7 43 -5 65 22 14 16 25 34 25 40 0 6 -9 -1 -21 -16 -15 -19 -30 -26
-55 -26 -34 0 -34 0 -35 48 0 26 -4 56 -9 67 -6 13 -7 -3 -4 -45 6 -59 5 -64
-9 -50 -18 17 -36 76 -21 67 13 -7 -4 154 -17 168 -6 5 -7 -16 -3 -53z"/>
<path d="M3682 2035 c-2 -16 -5 -57 -8 -90 -4 -45 -2 -56 6 -43 6 10 9 49 7
90 -1 40 -4 60 -5 43z"/>
<path d="M1637 2029 c-10 -6 -15 -14 -12 -20 10 -14 45 -11 45 5 0 21 -12 26
-33 15z"/>
<path d="M1715 2030 c3 -5 12 -7 20 -3 21 7 19 13 -6 13 -11 0 -18 -4 -14 -10z"/>
<path d="M4511 1994 c0 -27 3 -42 6 -34 3 8 11 18 17 22 7 5 7 8 -2 8 -7 0
-10 5 -6 11 4 7 20 8 41 4 38 -7 39 9 1 18 -13 2 -31 8 -40 12 -16 6 -18 1
-17 -41z"/>
<path d="M3297 2023 c-4 -3 -7 -42 -7 -86 0 -44 3 -78 6 -74 5 4 13 167 8 167
0 0 -4 -3 -7 -7z"/>
<path d="M4648 2023 c-10 -2 -18 -9 -18 -15 0 -6 9 -8 21 -5 15 4 19 2 15 -9
-3 -8 0 -14 7 -14 7 0 3 -7 -7 -15 -20 -15 -10 -20 18 -9 18 7 22 34 6 34 -6
0 -10 7 -8 16 3 19 -8 24 -34 17z"/>
<path d="M3226 2003 c-4 -9 -2 -21 4 -27 7 -7 10 -2 10 17 0 31 -5 34 -14 10z"/>
<path d="M3332 1995 c0 -16 2 -22 5 -12 2 9 2 23 0 30 -3 6 -5 -1 -5 -18z"/>
<path d="M3773 2005 c-3 -9 -3 -18 -1 -21 3 -3 8 4 11 16 6 23 -1 27 -10 5z"/>
<path d="M3381 1994 c0 -11 3 -14 6 -6 3 7 2 16 -1 19 -3 4 -6 -2 -5 -13z"/>
<path d="M3933 1935 c0 -38 2 -53 4 -32 2 20 2 52 0 70 -2 17 -4 1 -4 -38z"/>
<path d="M3960 1967 c0 -20 5 -39 11 -42 7 -5 8 5 3 32 -9 51 -14 54 -14 10z"/>
<path d="M4766 1985 c4 -8 10 -15 15 -15 4 0 6 7 3 15 -4 8 -10 15 -15 15 -4
0 -6 -7 -3 -15z"/>
<path d="M475 1980 c-25 -6 -20 -8 27 -9 31 0 60 4 63 9 7 12 -45 12 -90 0z"/>
<path d="M4550 1976 c0 -7 8 -16 19 -19 14 -3 17 -11 14 -31 -5 -23 -2 -26 20
-26 27 0 44 15 28 24 -5 4 -11 1 -13 -6 -8 -23 -28 3 -22 29 4 16 2 28 -7 34
-21 13 -39 11 -39 -5z"/>
<path d="M1580 1960 c0 -5 5 -10 10 -10 6 0 10 5 10 10 0 6 -4 10 -10 10 -5 0
-10 -4 -10 -10z"/>
<path d="M4745 1960 c4 -6 1 -19 -7 -28 -12 -15 -11 -16 5 -3 19 15 23 41 6
41 -5 0 -7 -5 -4 -10z"/>
<path d="M3376 1952 c-11 -18 -19 -97 -8 -87 5 6 13 29 17 53 6 39 3 53 -9 34z"/>
<path d="M1755 1940 c-3 -5 -1 -10 4 -10 6 0 11 5 11 10 0 6 -2 10 -4 10 -3 0
-8 -4 -11 -10z"/>
<path d="M1790 1940 c0 -5 7 -10 15 -10 8 0 15 5 15 10 0 6 -7 10 -15 10 -8 0
-15 -4 -15 -10z"/>
<path d="M3490 1918 c0 -36 4 -35 14 5 4 16 2 27 -4 27 -5 0 -10 -14 -10 -32z"/>
<path d="M4517 1920 c3 -12 0 -20 -7 -20 -9 0 -10 -21 -5 -83 6 -71 5 -86 -10
-100 -9 -9 -22 -17 -29 -17 -8 0 -13 -11 -13 -26 l0 -25 22 21 c21 20 24 20
33 4 6 -11 5 -32 -3 -63 -7 -26 -10 -61 -7 -79 l4 -32 39 35 c40 36 84 46 107
23 16 -16 21 -7 11 20 -10 25 -59 31 -81 9 -14 -14 -53 -37 -62 -37 -12 0 -6
28 9 40 11 9 13 26 9 69 -4 45 -1 61 11 71 20 17 19 27 -5 33 -17 4 -20 14
-20 54 0 62 8 71 31 34 10 -16 27 -32 38 -36 12 -3 21 -10 21 -15 0 -15 73
-114 104 -139 17 -14 43 -38 58 -53 15 -16 34 -28 43 -28 8 0 15 -7 15 -16 0
-9 5 -13 13 -10 6 3 20 9 30 12 12 5 17 17 17 46 l0 40 -20 -23 -20 -24 6 36
c3 22 1 39 -5 43 -7 4 -13 -8 -17 -33 -8 -52 -32 -61 -61 -24 -13 15 -23 31
-23 36 0 4 -8 7 -19 7 -10 0 -27 12 -37 26 -10 14 -29 38 -41 52 -43 51 -23
57 22 7 l45 -50 20 25 c29 36 33 58 16 75 -13 13 -15 13 -21 -4 -3 -10 -14
-26 -25 -36 -20 -18 -21 -18 -32 12 -9 25 -19 32 -48 37 -41 6 -58 22 -90 84
-24 46 -31 53 -23 22z m223 -170 c-6 -12 -14 -19 -17 -16 -4 3 0 18 8 32 7 14
15 21 17 15 2 -5 -2 -20 -8 -31z"/>
<path d="M297 1874 c-19 -60 -23 -119 -8 -94 6 8 13 37 16 65 4 27 11 55 17
62 5 6 5 14 0 17 -4 2 -16 -20 -25 -50z"/>
<path d="M382 1906 c-17 -37 -15 -45 4 -18 8 12 14 27 12 33 -2 6 -9 -1 -16
-15z"/>
<path d="M4776 1899 c5 -29 2 -39 -13 -48 -16 -9 -16 -10 -1 -11 22 0 32 38
19 70 -9 22 -10 20 -5 -11z"/>
<path d="M3816 1903 c-9 -28 -66 -84 -101 -99 -19 -8 -23 -13 -12 -14 37 0
100 50 117 94 6 16 9 31 6 33 -2 3 -7 -4 -10 -14z"/>
<path d="M3871 1891 c-1 -24 2 -32 9 -25 7 7 7 19 1 35 -9 23 -10 22 -10 -10z"/>
<path d="M1765 1900 c28 -12 45 -12 45 0 0 6 -15 10 -32 9 -28 0 -30 -2 -13
-9z"/>
<path d="M3976 1870 c8 -62 12 -72 26 -64 8 5 9 2 5 -9 -3 -10 -2 -17 3 -17
12 0 16 41 10 105 l-3 30 -6 -35 -7 -35 -17 35 -16 35 5 -45z"/>
<path d="M451 1783 c0 -65 4 -127 9 -138 5 -13 9 27 9 108 1 70 1 130 2 134 0
4 -4 9 -9 11 -7 2 -10 -41 -11 -115z"/>
<path d="M1991 1873 c-1 -6 6 -42 14 -79 9 -36 14 -68 11 -71 -2 -2 -16 13
-30 34 -38 55 -32 18 8 -48 35 -59 46 -73 113 -150 23 -27 47 -58 53 -69 6
-11 19 -24 30 -30 17 -9 18 -8 6 15 -7 13 -37 49 -67 80 -77 80 -96 115 -98
185 0 33 -9 77 -20 102 -11 23 -20 38 -20 31z"/>
<path d="M3569 1833 c-12 -38 -19 -47 -35 -45 -10 2 -22 9 -26 15 -12 18 -9 1
3 -27 18 -39 107 -51 131 -18 7 11 18 21 25 23 8 2 9 9 4 17 -6 10 -15 6 -39
-17 -29 -30 -65 -40 -76 -23 -3 5 4 27 15 50 11 23 19 48 17 57 -2 8 -10 -6
-19 -32z"/>
<path d="M788 1853 c-9 -40 2 -53 45 -52 l42 1 -34 12 c-76 27 -32 49 52 25
52 -14 68 -6 28 14 -47 23 -127 23 -133 0z"/>
<path d="M4625 1860 c-19 -8 -19 -9 3 -9 12 -1 22 4 22 9 0 6 -1 10 -2 9 -2 0
-12 -4 -23 -9z"/>
<path d="M4700 1835 c-13 -14 -21 -25 -17 -25 3 0 17 11 31 25 14 14 22 25 17
25 -4 0 -18 -11 -31 -25z"/>
<path d="M361 1834 c0 -11 3 -14 6 -6 3 7 2 16 -1 19 -3 4 -6 -2 -5 -13z"/>
<path d="M1510 1840 c0 -5 5 -10 10 -10 6 0 10 5 10 10 0 6 -4 10 -10 10 -5 0
-10 -4 -10 -10z"/>
<path d="M3921 1834 c0 -11 3 -14 6 -6 3 7 2 16 -1 19 -3 4 -6 -2 -5 -13z"/>
<path d="M4796 1819 c-2 -8 -11 -38 -20 -68 -26 -87 -17 -96 27 -27 21 34 32
43 47 39 27 -7 25 -3 -15 36 -24 23 -36 29 -39 20z"/>
<path d="M234 1808 c-4 -6 -6 -41 -5 -76 2 -50 8 -74 27 -101 31 -46 33 -16 3
47 -17 34 -20 55 -16 93 6 50 4 58 -9 37z"/>
<path d="M894 1805 c-4 -8 -13 -15 -21 -15 -21 0 -8 -15 33 -40 l37 -21 -16
24 c-15 24 -15 25 5 30 18 5 19 8 8 21 -16 20 -39 20 -46 1z"/>
<path d="M3397 1794 c-15 -13 -23 -24 -17 -24 6 0 8 -4 5 -10 -3 -5 -4 -10 -2
-10 11 0 97 53 93 57 -3 3 -15 -2 -28 -11 -30 -21 -62 -22 -34 -1 11 8 18 17
15 19 -2 2 -17 -7 -32 -20z"/>
<path d="M3835 1780 c-7 -21 -34 -27 -50 -11 -6 6 -10 -1 -11 -20 -1 -17 4
-29 12 -29 13 0 64 56 64 71 0 16 -8 10 -15 -11z"/>
<path d="M342 1723 c-7 -51 -6 -77 4 -103 12 -33 13 -28 13 68 1 56 -1 102 -3
102 -2 0 -8 -30 -14 -67z"/>
<path d="M396 1727 c5 -68 32 -154 41 -129 3 7 -2 31 -11 53 -9 21 -16 54 -17
72 0 17 -4 41 -9 52 -5 13 -7 -6 -4 -48z"/>
<path d="M3856 1751 c-23 -26 -19 -34 8 -16 18 12 29 13 50 5 31 -11 46 -6 46
16 0 17 -17 19 -22 2 -3 -8 -12 -9 -35 0 -26 9 -34 7 -47 -7z"/>
<path d="M770 1750 c0 -5 7 -10 15 -10 8 0 15 5 15 10 0 6 -7 10 -15 10 -8 0
-15 -4 -15 -10z"/>
<path d="M1785 1750 c-3 -5 1 -10 9 -10 8 0 18 5 21 10 3 6 -1 10 -9 10 -8 0
-18 -4 -21 -10z"/>
<path d="M3348 1753 c7 -3 16 -2 19 1 4 3 -2 6 -13 5 -11 0 -14 -3 -6 -6z"/>
<path d="M3218 1733 c-23 -26 -58 -99 -58 -120 0 -10 12 5 26 32 14 28 36 60
49 71 13 12 21 25 18 28 -10 10 -19 7 -35 -11z"/>
<path d="M3978 1720 c-17 -30 -17 -30 2 -20 11 6 20 20 20 30 0 26 -2 25 -22
-10z"/>
<path d="M4570 1741 c0 -6 4 -13 10 -16 6 -3 7 1 4 9 -7 18 -14 21 -14 7z"/>
<path d="M271 1714 c0 -11 3 -14 6 -6 3 7 2 16 -1 19 -3 4 -6 -2 -5 -13z"/>
<path d="M1540 1726 c0 -2 7 -7 16 -10 8 -3 12 -2 9 4 -6 10 -25 14 -25 6z"/>
<path d="M1583 1718 c2 -7 8 -13 13 -13 5 -1 19 -6 32 -13 29 -16 29 2 0 22
-27 19 -51 21 -45 4z"/>
<path d="M3435 1714 c-11 -8 -25 -12 -32 -10 -7 3 -13 -1 -13 -8 0 -19 30 -29
45 -16 10 8 29 51 22 50 -1 0 -11 -7 -22 -16z"/>
<path d="M3480 1705 l-24 -25 32 16 c18 8 32 20 32 25 0 16 -16 10 -40 -16z"/>
<path d="M3587 1699 c-15 -12 -32 -31 -38 -42 -10 -19 -7 -18 17 5 16 15 45
34 64 42 31 14 32 15 10 15 -14 0 -37 -9 -53 -20z"/>
<path d="M4900 1715 c0 -4 8 -19 19 -33 10 -15 21 -36 24 -47 13 -41 16 -111
7 -125 -9 -13 -12 -12 -25 4 -12 16 -25 19 -65 17 -31 -1 -50 2 -50 8 0 6 -9
11 -20 11 -11 0 -20 -4 -20 -10 0 -5 -5 -10 -11 -10 -6 0 -8 8 -4 19 3 12 0
21 -10 25 -20 7 -20 -20 0 -58 9 -16 13 -37 10 -46 -3 -9 -1 -28 4 -41 8 -20
10 -21 10 -5 1 18 2 18 19 3 11 -10 26 -14 40 -10 17 4 22 1 21 -13 -4 -36 1
-54 14 -54 20 0 38 -45 24 -59 -17 -17 -27 -13 -27 8 0 11 -5 23 -11 26 -7 5
-8 -5 -4 -29 6 -27 4 -36 -6 -37 -8 0 -5 -4 6 -8 45 -18 79 25 54 70 -13 26
-9 31 33 32 29 2 33 -1 36 -26 3 -21 -4 -34 -27 -55 -22 -18 -31 -36 -31 -57
0 -44 -11 -76 -23 -68 -6 4 -8 0 -4 -11 17 -44 -67 -128 -130 -130 -20 -1 -38
-6 -40 -11 -2 -7 17 -10 49 -8 49 2 56 5 93 46 22 24 48 56 58 71 10 14 22 26
26 26 14 0 23 -33 11 -40 -6 -4 0 -12 15 -18 l26 -12 -6 -133 c-4 -77 -3 -149
3 -172 8 -33 10 -17 12 95 2 74 3 165 4 202 1 37 -3 80 -10 95 -8 19 -13 22
-13 11 -1 -19 -18 -23 -40 -9 -19 12 3 51 29 51 11 0 20 3 21 8 0 4 1 75 1
157 1 151 -9 217 -47 301 -14 30 -45 64 -45 49z m64 -263 c-8 -8 -18 -11 -22
-7 -4 4 -1 10 6 12 6 3 12 12 12 21 0 14 2 14 9 3 6 -9 4 -19 -5 -29z m-84 -7
c0 -10 10 -15 30 -15 20 0 30 -5 30 -15 0 -27 -30 -29 -56 -5 -24 24 -32 50
-14 50 6 0 10 -7 10 -15z m98 -213 c2 -7 -6 -12 -17 -12 -21 0 -27 11 -14 24
9 9 26 2 31 -12z m12 -142 c0 -5 -2 -10 -4 -10 -3 0 -8 5 -11 10 -3 6 -1 10 4
10 6 0 11 -4 11 -10z"/>
<path d="M832 1690 c-20 -16 -21 -21 -10 -45 11 -25 10 -29 -17 -51 -17 -13
-24 -24 -17 -24 21 0 52 39 52 67 0 40 25 62 65 56 19 -3 35 -1 39 6 13 20
-86 13 -112 -9z"/>
<path d="M3305 1700 c-3 -5 -1 -10 4 -10 6 0 11 5 11 10 0 6 -2 10 -4 10 -3 0
-8 -4 -11 -10z"/>
<path d="M4090 1705 c0 -2 27 -23 61 -47 63 -44 79 -68 79 -119 0 -22 -5 -29
-20 -29 -15 0 -20 7 -20 29 0 39 -14 47 -17 10 -3 -35 -24 -59 -51 -59 -18 0
-19 3 -9 31 11 29 10 33 -23 62 l-35 31 -3 -29 c-2 -17 -13 -40 -24 -52 l-21
-22 27 -7 c14 -3 26 -11 26 -16 0 -6 7 -8 15 -4 8 3 21 -2 29 -10 9 -8 19 -14
23 -14 4 1 12 -15 17 -35 8 -34 9 -35 27 -19 11 10 27 14 40 11 20 -5 21 -3
16 33 -3 21 -1 42 4 47 14 14 14 87 0 120 -8 20 -30 37 -76 60 -36 18 -65 30
-65 28z"/>
<path d="M3745 1649 c-14 -28 -24 -53 -22 -55 4 -4 67 89 67 100 0 21 -22 -1
-45 -45z"/>
<path d="M762 1664 c-11 -22 -15 -23 -34 -13 l-23 11 22 -23 23 -23 20 22 c21
23 25 38 11 46 -4 3 -13 -6 -19 -20z"/>
<path d="M3317 1665 c-4 -8 -2 -17 2 -20 5 -2 11 4 14 15 6 23 -8 27 -16 5z"/>
<path d="M3990 1660 c6 -11 15 -20 20 -20 6 0 2 9 -7 20 -10 11 -19 20 -21 20
-1 0 2 -9 8 -20z"/>
<path d="M1196 1652 c-3 -5 -10 -40 -16 -78 -6 -38 -20 -86 -31 -108 -22 -43
-19 -61 4 -24 33 50 77 218 58 218 -5 0 -12 -4 -15 -8z"/>
<path d="M4098 1648 c5 -5 16 -8 23 -6 8 3 3 7 -10 11 -17 4 -21 3 -13 -5z"/>
<path d="M4640 1654 c0 -13 48 -59 55 -52 3 2 -9 17 -25 33 -17 16 -30 24 -30
19z"/>
<path d="M1250 1620 c0 -16 2 -30 4 -30 2 0 6 14 8 30 3 17 1 30 -4 30 -4 0
-8 -13 -8 -30z"/>
<path d="M2004 1628 c3 -13 6 -27 6 -33 0 -5 4 -4 9 4 10 16 3 51 -11 51 -6 0
-8 -10 -4 -22z"/>
<path d="M3493 1614 c-20 -39 -20 -40 -2 -39 11 1 26 10 34 21 16 22 20 38 6
29 -5 -3 -11 3 -13 12 -2 13 -9 6 -25 -23z"/>
<path d="M3775 1615 c-20 -49 -12 -57 10 -10 10 19 15 38 12 41 -3 4 -13 -11
-22 -31z"/>
<path d="M4135 1620 c3 -5 8 -10 11 -10 2 0 4 5 4 10 0 6 -5 10 -11 10 -5 0
-7 -4 -4 -10z"/>
<path d="M4430 1604 c-5 -16 -16 -40 -25 -54 -31 -51 -56 -111 -52 -123 2 -7
12 4 22 23 10 19 21 37 25 40 12 8 53 130 47 137 -4 3 -11 -7 -17 -23z"/>
<path d="M180 1591 c0 -34 28 -88 56 -106 15 -10 24 -25 25 -43 0 -24 1 -25 9
-7 7 18 8 19 15 3 8 -20 25 -15 25 8 0 8 -9 14 -21 14 -16 0 -19 4 -14 20 4
12 2 20 -5 20 -14 0 -47 38 -72 84 -17 28 -18 29 -18 7z"/>
<path d="M3146 1573 c-6 -14 -5 -15 5 -6 7 7 10 15 7 18 -3 3 -9 -2 -12 -12z"/>
<path d="M1831 1564 c0 -11 3 -14 6 -6 3 7 2 16 -1 19 -3 4 -6 -2 -5 -13z"/>
<path d="M4683 1531 c1 -27 6 -48 11 -48 5 1 11 -18 13 -43 6 -72 13 -72 8 0
-5 84 -15 140 -25 140 -5 0 -8 -22 -7 -49z"/>
<path d="M1021 1544 c0 -11 3 -14 6 -6 3 7 2 16 -1 19 -3 4 -6 -2 -5 -13z"/>
<path d="M1060 1539 c-18 -32 -95 -107 -116 -111 -29 -6 62 -56 106 -59 40 -3
80 8 80 22 0 11 -3 11 -37 -2 -15 -6 -42 -8 -60 -4 -42 8 -43 33 -5 83 28 36
56 92 47 92 -2 0 -9 -9 -15 -21z"/>
<path d="M4576 1541 c-4 -5 0 -11 6 -14 10 -3 10 -9 1 -25 -19 -32 -6 -82 21
-81 17 1 17 2 4 6 -20 5 -23 19 -7 29 8 5 8 8 0 14 -9 5 -9 14 -1 34 10 28 6
46 -10 46 -5 0 -11 -4 -14 -9z"/>
<path d="M2009 1533 c0 -5 -3 -17 -5 -28 -12 -55 -6 -157 11 -210 23 -67 21
-69 -74 -81 -111 -14 -150 -6 -151 30 0 12 62 -2 71 -15 8 -14 59 17 59 37 0
7 -5 25 -12 39 -10 21 -8 32 10 64 23 40 31 131 12 131 -5 0 -10 -20 -10 -44
0 -24 -7 -56 -15 -72 l-14 -28 -16 38 c-9 22 -17 47 -18 57 -1 21 -17 26 -17
6 0 -27 31 -129 46 -153 9 -13 14 -27 11 -30 -3 -3 -51 -8 -108 -10 -56 -3
-106 -7 -110 -9 -4 -3 -5 -14 -2 -25 6 -23 -18 -28 -39 -7 -7 6 -35 13 -62 15
-37 2 -56 -2 -82 -20 -40 -27 -40 -29 -13 -54 22 -20 67 -22 160 -9 34 6 54 3
79 -10 83 -43 120 -40 120 9 l0 32 83 11 c45 7 100 18 122 24 38 12 39 13 15
20 -14 4 -22 7 -19 8 4 1 -2 34 -12 74 -15 55 -18 89 -13 145 3 39 3 72 0 72
-3 0 -6 -3 -7 -7z m-221 -339 c13 -26 21 -48 19 -51 -8 -7 -51 7 -72 24 -14
10 -16 17 -7 20 19 7 14 23 -8 23 -11 0 -20 7 -20 15 0 10 10 15 33 15 29 0
36 -5 55 -46z m-147 5 c12 -20 -24 -30 -93 -27 -63 3 -75 15 -37 36 30 16 118
10 130 -9z"/>
<path d="M3136 1525 c-9 -26 -7 -32 5 -12 6 10 9 21 6 23 -2 3 -7 -2 -11 -11z"/>
<path d="M3276 1528 c-12 -39 -15 -68 -7 -68 5 0 11 18 13 40 4 40 1 51 -6 28z"/>
<path d="M3898 1505 c2 -14 6 -25 8 -25 2 0 4 11 4 25 0 14 -4 25 -9 25 -4 0
-6 -11 -3 -25z"/>
<path d="M1521 1510 c-2 -8 -3 -19 -2 -23 3 -19 -22 -194 -30 -209 -11 -20 9
-37 21 -17 11 17 23 163 18 219 -3 25 -6 38 -7 30z"/>
<path d="M1572 1495 c0 -16 2 -22 5 -12 2 9 2 23 0 30 -3 6 -5 -1 -5 -18z"/>
<path d="M3385 1483 c-22 -27 -25 -33 -10 -26 31 17 71 63 54 62 -8 0 -27 -17
-44 -36z"/>
<path d="M3561 1504 c0 -11 3 -14 6 -6 3 7 2 16 -1 19 -3 4 -6 -2 -5 -13z"/>
<path d="M4443 1498 c-24 -26 -26 -40 -23 -118 3 -55 3 -55 10 19 5 61 10 77
28 89 22 14 29 32 14 32 -5 0 -18 -10 -29 -22z"/>
<path d="M336 1461 c-4 -24 -5 -46 -2 -48 7 -7 19 63 14 79 -3 7 -8 -7 -12
-31z"/>
<path d="M910 1491 c-32 -10 -101 -53 -118 -74 -19 -23 -5 -62 34 -97 35 -30
50 -35 78 -24 23 9 1 34 -30 34 -24 0 -54 33 -54 61 0 10 18 32 40 49 35 27
46 31 76 25 31 -5 35 -4 32 12 -4 20 -22 25 -58 14z"/>
<path d="M3818 1473 c-2 -17 -10 -29 -23 -33 -23 -6 -29 -36 -12 -55 20 -21
47 21 47 72 0 48 -7 58 -12 16z"/>
<path d="M4520 1461 c0 -17 5 -33 10 -36 6 -4 10 8 10 29 0 20 -4 36 -10 36
-5 0 -10 -13 -10 -29z"/>
<path d="M3133 1430 c0 -30 2 -43 4 -27 2 15 2 39 0 55 -2 15 -4 2 -4 -28z"/>
<path d="M4479 1478 c-6 -23 -23 -257 -21 -293 1 -16 4 -39 6 -50 2 -11 5 -33
5 -48 1 -16 5 -26 9 -23 5 3 5 33 1 68 -10 78 -1 253 16 321 5 17 3 27 -4 27
-6 0 -11 -1 -12 -2z"/>
<path d="M3284 1444 c3 -9 6 -19 6 -24 0 -5 14 -2 30 6 37 19 38 23 5 16 -15
-2 -25 0 -25 7 0 6 -5 11 -11 11 -6 0 -8 -7 -5 -16z"/>
<path d="M4003 1443 c15 -2 37 -2 50 0 12 2 0 4 -28 4 -27 0 -38 -2 -22 -4z"/>
<path d="M4662 1425 c0 -16 2 -22 5 -12 2 9 2 23 0 30 -3 6 -5 -1 -5 -18z"/>
<path d="M3253 1415 c-7 -16 -8 -27 -1 -31 14 -9 20 1 16 30 l-3 26 -12 -25z"/>
<path d="M246 1386 c-7 -23 -5 -32 9 -43 22 -15 41 -17 50 -3 3 6 -5 10 -19
10 -21 0 -25 5 -28 33 l-4 32 -8 -29z"/>
<path d="M3998 1397 c-20 -15 -33 -57 -19 -57 6 0 11 4 11 9 0 5 10 11 23 13
20 3 21 6 12 25 -10 19 -14 21 -27 10z"/>
<path d="M4526 1385 c-4 -16 -11 -38 -14 -48 -4 -10 -3 -47 2 -82 8 -51 14
-66 32 -74 20 -9 22 -15 17 -48 -6 -39 11 -38 19 1 1 11 8 21 15 23 12 4 17
-9 27 -69 8 -43 39 -60 64 -34 20 20 29 142 15 196 -8 29 -10 19 -10 -56 -1
-106 -7 -134 -33 -134 -14 0 -21 10 -25 38 -4 20 -7 44 -9 52 -1 8 4 27 11 42
15 31 33 146 26 165 -9 24 -23 2 -23 -35 0 -28 -3 -33 -10 -22 -7 11 -10 8
-10 -15 0 -17 5 -36 11 -42 8 -8 6 -18 -7 -37 -24 -32 -52 -33 -64 -3 -5 12
-9 16 -9 9 -1 -7 -5 -11 -10 -8 -14 9 -23 123 -11 146 6 12 10 31 7 43 -3 19
-4 18 -11 -8z"/>
<path d="M182 1380 c-7 -11 -18 -20 -26 -20 -7 0 -19 -7 -27 -16 -13 -16 -3
-15 62 2 15 4 34 -20 31 -38 -1 -4 5 -5 13 -2 12 5 12 9 -2 30 -8 13 -20 24
-25 24 -6 0 -8 9 -5 20 3 11 2 20 -2 20 -3 0 -12 -9 -19 -20z"/>
<path d="M4336 1358 c-3 -24 -8 -61 -10 -83 -2 -22 -5 -44 -6 -50 -5 -20 0
-45 8 -45 5 0 9 15 8 33 0 17 4 67 8 110 8 80 1 108 -8 35z"/>
<path d="M4617 1394 c-4 -4 -7 -17 -7 -28 1 -19 1 -20 11 -3 11 19 8 43 -4 31z"/>
<path d="M685 1380 c-10 -17 12 -37 25 -24 8 8 6 15 -4 23 -10 9 -16 9 -21 1z"/>
<path d="M3168 1373 c6 -2 18 -2 25 0 6 3 1 5 -13 5 -14 0 -19 -2 -12 -5z"/>
<path d="M4762 1350 c0 -19 2 -27 5 -17 2 9 2 25 0 35 -3 9 -5 1 -5 -18z"/>
<path d="M3132 1345 c0 -16 2 -22 5 -12 2 9 2 23 0 30 -3 6 -5 -1 -5 -18z"/>
<path d="M3693 1335 c-1 -25 4 -34 19 -38 11 -3 17 -10 13 -16 -3 -6 1 -11 9
-11 8 0 22 -7 30 -16 13 -12 16 -13 16 -1 0 7 11 20 25 27 32 17 33 51 0 66
-19 9 -27 9 -36 -2 -6 -8 -20 -14 -29 -14 -10 0 -21 -6 -23 -12 -3 -7 -6 -1
-6 14 -1 40 -17 42 -18 3z"/>
<path d="M4220 1321 c0 -34 4 -50 10 -46 11 7 8 80 -4 92 -3 3 -6 -17 -6 -46z"/>
<path d="M367 1341 c8 -29 27 -32 40 -5 10 22 9 24 -17 24 -23 0 -27 -4 -23
-19z"/>
<path d="M3261 1344 c0 -11 3 -14 6 -6 3 7 2 16 -1 19 -3 4 -6 -2 -5 -13z"/>
<path d="M598 1320 c-20 -35 -61 -54 -103 -47 -28 5 -32 2 -47 -36 -18 -46
-30 -140 -18 -132 5 3 11 24 15 48 4 23 13 57 21 75 10 26 19 32 43 32 16 0
33 -4 36 -10 3 -5 16 -15 27 -21 20 -11 21 -9 15 20 -5 26 -2 38 18 59 25 27
31 42 18 42 -5 0 -16 -14 -25 -30z"/>
<path d="M4135 1330 c-22 -10 -63 -19 -92 -19 -28 -1 -55 -5 -58 -11 -4 -6 15
-10 49 -10 34 0 56 -5 59 -12 4 -9 11 -6 24 8 10 12 33 29 51 38 60 31 31 36
-33 6z"/>
<path d="M540 1324 c-14 -8 -37 -14 -53 -14 -15 0 -44 -9 -64 -20 -32 -17 -34
-20 -15 -20 13 0 30 7 38 15 10 10 35 15 69 15 37 0 55 4 58 15 9 21 -4 24
-33 9z"/>
<path d="M147 1323 c-8 -12 30 -29 40 -19 4 3 -1 6 -9 6 -9 0 -18 5 -20 12 -3
9 -6 9 -11 1z"/>
<path d="M3272 1306 c-29 -31 -28 -44 3 -38 31 6 37 14 28 41 -8 20 -8 20 -31
-3z"/>
<path d="M3887 1302 c-10 -10 -17 -26 -17 -34 0 -9 -15 -23 -32 -32 -18 -9
-48 -28 -66 -44 l-33 -27 23 -25 c13 -13 23 -31 24 -40 1 -25 27 -73 56 -103
l27 -27 20 29 21 29 -31 12 c-24 10 -29 18 -25 34 3 12 6 29 6 39 0 32 28 17
49 -28 12 -25 21 -49 21 -55 0 -5 5 -10 10 -10 13 0 12 10 -5 40 -18 32 -19
50 -1 50 16 0 31 -35 28 -61 -2 -8 13 -30 33 -47 19 -18 35 -37 35 -43 0 -18
33 -46 38 -31 6 19 34 14 66 -12 25 -21 26 -25 12 -33 -15 -8 -11 -13 23 -36
23 -15 41 -32 41 -37 0 -17 -69 -11 -97 8 -15 9 -24 12 -20 6 13 -22 75 -44
121 -44 43 0 45 1 34 19 -6 10 -24 26 -40 35 -32 20 -35 34 -11 51 15 11 13
13 -15 20 -31 6 -32 8 -33 63 -2 52 -2 54 -8 18 -3 -22 -11 -41 -17 -43 -13
-4 -74 65 -74 83 0 6 12 12 27 12 14 0 33 8 40 18 8 11 18 18 23 17 11 -3 18
40 9 63 -6 15 -8 12 -8 -13 -1 -39 -16 -43 -25 -8 -7 28 -26 25 -26 -3 0 -9
-22 -30 -47 -45 -44 -27 -48 -28 -60 -11 -16 22 -18 68 -2 59 5 -4 15 -19 21
-33 6 -15 12 -21 15 -15 2 7 -2 22 -10 34 -20 28 -11 49 22 49 15 0 32 5 39
12 8 8 15 8 26 -1 11 -9 20 -10 36 -1 17 9 29 8 56 -5 19 -9 32 -20 29 -26 -3
-5 -1 -17 4 -26 8 -13 10 3 10 62 -1 80 -2 84 -13 32 -9 -40 -48 -34 -57 8
l-7 30 -1 -27 c-1 -35 -45 -50 -65 -23 -12 16 -13 16 -19 1 -4 -9 -16 -16 -27
-16 -15 0 -20 7 -20 24 0 13 6 26 13 29 9 3 8 9 -5 22 -15 17 -16 17 -15 0 1
-10 -4 -20 -10 -22 -8 -3 -13 4 -13 15 0 19 -61 82 -79 82 -4 0 -15 -8 -24
-18z m73 -82 c0 -5 -7 -10 -16 -10 -8 0 -12 5 -9 10 3 6 10 10 16 10 5 0 9 -4
9 -10z"/>
<path d="M305 1300 c2 -4 18 -10 35 -12 20 -3 27 -1 21 5 -12 12 -63 19 -56 7z"/>
<path d="M4155 1295 c-25 -12 -26 -14 -5 -9 28 7 60 23 45 23 -5 0 -23 -6 -40
-14z"/>
<path d="M4760 1300 c0 -3 -4 -21 -10 -40 -8 -32 -8 -33 5 -16 14 18 15 18 25
-10 37 -101 50 -124 50 -86 0 12 -4 22 -8 22 -7 0 -36 71 -37 90 -1 7 -24 46
-25 40z"/>
<path d="M3695 1270 c-3 -5 -1 -10 4 -10 6 0 11 5 11 10 0 6 -2 10 -4 10 -3 0
-8 -4 -11 -10z"/>
<path d="M3480 1256 c0 -8 -15 -19 -32 -26 -18 -7 -27 -14 -20 -17 20 -8 72
20 72 39 0 10 -4 18 -10 18 -5 0 -10 -6 -10 -14z"/>
<path d="M4066 1261 c-4 -5 -2 -20 3 -33 9 -21 10 -21 10 10 1 32 -3 39 -13
23z"/>
<path d="M4410 1249 c0 -11 4 -18 10 -14 5 3 7 12 3 20 -7 21 -13 19 -13 -6z"/>
<path d="M196 1248 c-13 -40 -16 -72 -8 -63 10 11 24 75 16 75 -2 0 -6 -6 -8
-12z"/>
<path d="M3156 1252 c-7 -12 22 -38 31 -28 4 3 0 14 -9 22 -9 10 -18 12 -22 6z"/>
<path d="M387 1243 c-4 -3 -7 -11 -7 -17 0 -6 5 -5 12 2 6 6 9 14 7 17 -3 3
-9 2 -12 -2z"/>
<path d="M3120 1226 c0 -13 7 -29 15 -36 8 -7 15 -29 15 -49 l1 -36 14 38 c12
35 11 41 -8 72 -26 40 -37 44 -37 11z"/>
<path d="M3697 1244 c-3 -3 -3 -37 0 -75 7 -76 4 -79 -50 -54 l-32 16 36 -33
c32 -29 36 -39 38 -88 2 -30 5 -58 7 -62 3 -4 7 -41 11 -83 5 -65 3 -79 -13
-97 -19 -20 -19 -20 1 -16 22 4 21 -25 16 331 -1 92 -4 167 -5 167 -1 0 -5 -3
-9 -6z"/>
<path d="M261 1194 c-16 -61 -8 -67 11 -9 9 25 12 48 8 50 -4 3 -13 -16 -19
-41z"/>
<path d="M2214 1221 c4 -6 2 -11 -5 -11 -8 0 -7 -5 2 -17 8 -9 14 -19 14 -22
0 -8 17 -2 30 10 13 13 -6 43 -30 47 -11 3 -15 0 -11 -7z"/>
<path d="M361 1184 c-6 -15 -9 -29 -7 -32 3 -2 10 8 16 23 14 36 7 43 -9 9z"/>
<path d="M482 1170 c0 -22 4 -40 9 -40 5 0 9 7 9 15 0 9 7 18 15 22 14 5 14 8
-1 24 -25 28 -33 23 -32 -21z"/>
<path d="M3200 1200 c0 -5 5 -10 11 -10 5 0 7 5 4 10 -3 6 -8 10 -11 10 -2 0
-4 -4 -4 -10z"/>
<path d="M598 1171 c3 -22 -5 -43 -31 -83 -20 -29 -34 -54 -32 -56 6 -7 75 73
81 94 8 29 2 67 -12 71 -7 2 -9 -8 -6 -26z"/>
<path d="M4650 1159 c7 -11 14 -18 17 -15 8 8 -5 36 -17 36 -7 0 -7 -6 0 -21z"/>
<path d="M4320 1158 c0 -33 23 -90 38 -96 9 -3 36 -19 58 -34 44 -29 64 -35
64 -18 0 5 -12 13 -26 16 -34 9 -114 89 -114 114 0 10 -4 22 -10 25 -5 3 -10
0 -10 -7z"/>
<path d="M182 1135 c0 -16 2 -22 5 -12 2 9 2 23 0 30 -3 6 -5 -1 -5 -18z"/>
<path d="M3269 1155 c-1 -3 -2 -8 -3 -12 -1 -5 -4 -12 -7 -18 -3 -5 -2 -26 1
-45 l6 -35 8 48 c5 26 13 47 18 47 5 0 6 5 3 10 -6 10 -24 14 -26 5z"/>
<path d="M3406 1140 c-79 -16 -79 -16 -48 -29 28 -12 37 -11 74 8 l43 21 6
-22 c5 -21 -13 -87 -31 -113 -4 -5 -10 -19 -14 -30 -5 -16 -3 -15 13 5 34 44
64 163 44 172 -5 2 -44 -3 -87 -12z"/>
<path d="M4748 1140 c-4 -14 -8 -43 -8 -65 1 -32 3 -37 11 -22 5 9 9 39 7 65
-2 38 -4 42 -10 22z"/>
<path d="M247 1123 c-3 -4 -8 -44 -11 -88 -7 -97 0 -88 12 15 9 74 9 89 -1 73z"/>
<path d="M3196 1097 c-54 -63 -86 -110 -80 -118 3 -5 10 -7 15 -3 5 3 23 -1
40 -10 42 -21 79 -5 79 34 0 10 -6 8 -18 -8 -16 -21 -20 -22 -48 -10 -28 12
-30 16 -22 38 5 13 12 27 16 30 14 9 54 71 50 75 -2 2 -16 -10 -32 -28z"/>
<path d="M329 1073 c-9 -21 -20 -53 -24 -71 -4 -18 -18 -53 -32 -77 -26 -48
-28 -84 -2 -44 21 32 91 229 81 229 -4 0 -15 -17 -23 -37z"/>
<path d="M177 1093 c-4 -3 -6 -27 -6 -52 l2 -46 7 50 c8 53 7 59 -3 48z"/>
<path d="M410 1056 c-4 -13 -14 -42 -20 -65 -11 -43 -18 -49 -38 -29 -14 14
-23 6 -40 -34 -9 -21 -9 -28 0 -28 6 0 8 -3 5 -6 -3 -4 2 -17 12 -30 23 -29
21 -69 -9 -194 -31 -129 -31 -130 -22 -130 10 0 52 166 52 204 0 31 23 44 45
26 11 -9 14 -24 10 -49 -4 -27 -1 -22 14 21 11 31 23 77 27 103 5 35 12 49 26
53 10 2 25 20 33 39 22 51 18 61 -7 23 -31 -45 -53 -52 -44 -14 4 16 14 34 22
41 11 8 12 13 4 18 -6 4 -9 13 -6 21 3 8 2 14 -3 14 -5 0 -12 -17 -15 -37 -11
-63 -17 -73 -36 -73 -27 0 -31 12 -14 45 8 15 13 30 10 32 -2 2 0 20 4 39 9
39 4 45 -10 10z m25 -188 c-10 -75 -21 -80 -32 -15 -7 44 1 67 23 67 13 0 15
-8 9 -52z"/>
<path d="M4920 1042 c0 -23 4 -42 9 -42 6 0 7 17 4 38 -8 51 -13 53 -13 4z"/>
<path d="M586 1038 c-9 -12 -16 -32 -16 -45 0 -12 -4 -24 -8 -27 -5 -3 -9 -22
-10 -42 -2 -49 5 -40 24 32 8 32 19 63 23 67 14 14 33 -50 27 -90 -21 -138
-25 -389 -7 -434 7 -17 8 2 4 61 -3 47 0 146 7 220 18 207 19 233 2 258 -18
28 -27 28 -46 0z"/>
<path d="M4235 1005 c3 -25 15 -70 25 -100 11 -31 15 -55 9 -55 -6 0 -7 -5 -3
-12 5 -8 11 -6 20 6 10 14 9 23 -3 47 -8 17 -13 33 -10 35 9 9 106 -45 115
-63 11 -21 5 -43 -11 -43 -6 0 -21 10 -34 22 -29 27 -43 16 -17 -14 19 -21 19
-21 -3 -16 -13 4 -23 2 -23 -3 0 -5 6 -9 14 -9 8 0 16 -6 19 -12 4 -10 7 -10
18 0 7 6 21 12 31 12 11 0 20 10 24 26 11 42 -17 76 -80 99 -54 19 -56 22 -71
72 -19 65 -30 69 -20 8z"/>
<path d="M4586 993 c-3 -21 -15 -87 -25 -148 -11 -60 -16 -116 -12 -124 5 -7
10 13 14 48 3 34 10 68 16 75 6 7 8 16 4 19 -3 4 0 7 9 7 18 0 37 59 28 85 -7
17 -9 15 -19 -15 -10 -31 -10 -28 -5 28 6 69 0 83 -10 25z"/>
<path d="M3810 985 c0 -8 4 -15 10 -15 5 0 7 7 4 15 -4 8 -8 15 -10 15 -2 0
-4 -7 -4 -15z"/>
<path d="M4537 983 c-4 -3 -7 -15 -7 -25 0 -26 24 -17 28 10 3 21 -8 29 -21
15z"/>
<path d="M4867 966 c-4 -15 -6 -31 -2 -34 10 -10 16 6 13 35 l-3 28 -8 -29z"/>
<path d="M4912 920 c-14 -83 -15 -179 -3 -200 7 -9 9 2 8 35 -1 28 2 92 6 143
4 50 6 92 4 92 -2 0 -8 -32 -15 -70z"/>
<path d="M160 964 c0 -8 5 -12 10 -9 6 3 10 10 10 16 0 5 -4 9 -10 9 -5 0 -10
-7 -10 -16z"/>
<path d="M3500 955 c0 -17 -10 -32 -35 -47 -19 -13 -35 -27 -35 -33 0 -5 -12
-20 -27 -33 -17 -14 -21 -21 -11 -18 23 7 31 -9 13 -24 -12 -10 -18 -10 -30 0
-9 7 -18 11 -20 8 -14 -14 33 -31 88 -33 43 -1 88 -12 147 -34 47 -19 97 -36
113 -38 33 -6 83 13 92 34 9 26 -2 27 -34 3 -25 -17 -39 -20 -74 -15 -65 10
-91 35 -92 87 0 37 -3 43 -23 46 -23 3 -23 3 -8 -27 16 -29 22 -71 10 -71 -19
0 -44 24 -44 43 0 12 -5 29 -10 37 -11 16 -13 8 -10 -29 1 -20 -1 -22 -17 -16
-10 5 -28 8 -40 8 -36 -1 -28 37 17 85 25 26 40 51 40 67 0 14 -2 25 -5 25 -3
0 -5 -11 -5 -25z"/>
<path d="M4660 959 c0 -12 -16 -47 -36 -79 -20 -32 -34 -64 -32 -71 5 -16 47
50 70 111 21 52 22 60 8 60 -5 0 -10 -9 -10 -21z"/>
<path d="M4713 821 c-2 -97 1 -141 7 -131 7 11 10 3 10 -28 0 -24 4 -41 9 -38
19 12 38 290 21 301 -6 4 -10 -23 -11 -72 0 -43 -4 -87 -9 -98 -6 -13 -9 20
-9 92 -1 165 -16 145 -18 -26z"/>
<path d="M3307 949 c7 -7 15 -10 18 -7 3 3 -2 9 -12 12 -14 6 -15 5 -6 -5z"/>
<path d="M3390 940 c0 -11 2 -20 5 -20 2 0 9 9 15 20 9 16 8 20 -5 20 -8 0
-15 -9 -15 -20z"/>
<path d="M3761 944 c0 -11 3 -14 6 -6 3 7 2 16 -1 19 -3 4 -6 -2 -5 -13z"/>
<path d="M3130 947 c0 -8 48 -63 84 -99 11 -10 27 -18 35 -18 12 0 10 5 -7 18
-15 12 -19 21 -13 27 7 7 4 15 -9 23 -16 10 -18 9 -14 -3 10 -25 -4 -17 -41
23 -19 20 -35 34 -35 29z"/>
<path d="M155 919 c-6 -8 -10 -23 -9 -34 1 -11 2 -54 4 -95 2 -71 3 -73 11
-35 13 53 8 183 -6 164z"/>
<path d="M3831 910 c-1 -8 11 -48 25 -87 22 -59 24 -76 14 -88 -20 -24 -40
-18 -40 13 0 27 -29 115 -43 128 -12 12 -7 -19 10 -61 8 -22 16 -58 17 -80 1
-36 3 -40 26 -37 30 3 60 36 60 66 0 11 -10 37 -21 56 -12 19 -28 51 -35 70
-7 19 -13 28 -13 20z"/>
<path d="M4010 914 c0 -13 47 -70 54 -64 2 3 -9 21 -25 40 -15 19 -29 30 -29
24z"/>
<path d="M4855 864 c-8 -69 0 -83 10 -17 5 26 9 54 11 61 1 6 -1 12 -6 12 -4
0 -11 -25 -15 -56z"/>
<path d="M3368 882 c-20 -34 -59 -46 -85 -26 -27 20 -38 16 -18 -6 39 -44 131
-14 123 40 -3 20 -4 20 -20 -8z"/>
<path d="M4526 895 c-9 -26 -7 -32 5 -12 6 10 9 21 6 23 -2 3 -7 -2 -11 -11z"/>
<path d="M491 875 c-1 -11 -8 -33 -16 -49 -17 -32 -19 -46 -6 -46 18 0 41 67
32 92 -9 20 -10 21 -10 3z"/>
<path d="M551 870 c-1 -8 -4 -24 -7 -35 -3 -19 -4 -132 -1 -202 4 -68 16 -29
19 60 3 83 -5 214 -11 177z"/>
<path d="M4666 854 c-3 -9 -6 -28 -6 -42 1 -26 1 -26 15 7 8 18 15 37 15 42 0
15 -17 10 -24 -7z"/>
<path d="M220 843 c-1 -5 -3 -41 -6 -80 -4 -47 -2 -73 4 -73 6 0 12 34 14 80
2 44 0 80 -4 80 -5 0 -8 -3 -8 -7z"/>
<path d="M4805 820 c-3 -5 -1 -10 4 -10 6 0 11 5 11 10 0 6 -2 10 -4 10 -3 0
-8 -4 -11 -10z"/>
<path d="M4640 754 c0 -8 5 -12 10 -9 6 3 10 10 10 16 0 5 -4 9 -10 9 -5 0
-10 -7 -10 -16z"/>
<path d="M4844 754 c3 -9 6 -45 6 -80 0 -35 3 -64 8 -64 4 0 6 17 5 37 -1 21
-2 57 -2 81 -1 23 -6 42 -12 42 -6 0 -8 -7 -5 -16z"/>
<path d="M4801 744 c0 -11 3 -14 6 -6 3 7 2 16 -1 19 -3 4 -6 -2 -5 -13z"/>
<path d="M450 675 c0 -27 3 -45 7 -41 7 7 5 77 -2 85 -3 2 -5 -17 -5 -44z"/>
<path d="M4637 714 c-4 -4 -7 -14 -7 -23 0 -11 3 -12 11 -4 6 6 10 16 7 23 -2
6 -7 8 -11 4z"/>
<path d="M4970 695 c0 -3 11 -18 25 -33 19 -21 25 -23 25 -10 0 9 -7 24 -16
32 -15 16 -34 21 -34 11z"/>
<path d="M379 631 c-8 -28 -11 -47 -7 -44 16 9 43 93 31 93 -5 0 -16 -22 -24
-49z"/>
<path d="M4539 660 c-14 -14 -14 -20 -2 -35 7 -11 14 -37 14 -59 1 -23 4 -31
6 -18 7 34 25 26 21 -10 -3 -32 -4 -33 -50 -33 -26 -1 -50 -4 -54 -8 -3 -3 0
-37 7 -74 l14 -68 3 55 c3 71 9 87 24 72 7 -7 20 -12 29 -12 20 0 27 -34 29
-143 1 -62 -2 -79 -15 -83 -23 -9 -29 1 -18 33 5 15 6 42 2 58 l-7 30 -1 -35
c-2 -50 -20 -110 -34 -111 -7 -1 6 -5 28 -8 22 -4 44 -3 50 1 6 5 9 59 8 128
l-3 120 25 0 c13 0 40 -9 59 -20 21 -11 38 -15 41 -10 4 6 2 10 -4 10 -6 0
-13 11 -17 24 -4 16 -11 23 -20 19 -8 -3 -14 1 -14 10 0 8 -4 17 -8 19 -12 5
-52 77 -52 95 0 9 -6 13 -14 10 -16 -6 -32 26 -21 42 10 17 -10 18 -26 1z m78
-176 c-9 -10 -38 16 -31 28 4 6 13 4 22 -6 9 -8 13 -19 9 -22z"/>
<path d="M4492 615 l1 -60 7 45 c4 25 4 52 -1 60 -5 9 -8 -8 -7 -45z"/>
<path d="M4700 651 c0 -6 5 -13 10 -16 6 -3 10 1 10 9 0 9 -4 16 -10 16 -5 0
-10 -4 -10 -9z"/>
<path d="M4916 635 c-3 -8 -1 -15 4 -15 6 0 10 7 10 15 0 8 -2 15 -4 15 -2 0
-6 -7 -10 -15z"/>
<path d="M5002 588 c-8 -30 -18 -48 -27 -48 -17 0 -18 -15 -9 -83 4 -26 10
-44 15 -41 4 2 6 10 4 17 -2 7 -6 31 -9 55 -5 32 -3 42 8 42 17 0 39 51 34 82
-3 17 -6 11 -16 -24z"/>
<path d="M210 594 c0 -8 5 -12 10 -9 6 4 8 11 5 16 -9 14 -15 11 -15 -7z"/>
<path d="M213 525 c0 -22 2 -30 4 -17 2 12 2 30 0 40 -3 9 -5 -1 -4 -23z"/>
<path d="M540 510 c-14 -10 -22 -21 -20 -24 3 -2 16 4 30 14 14 10 22 21 20
24 -3 2 -16 -4 -30 -14z"/>
<path d="M4858 510 c-7 -24 -3 -38 8 -28 3 4 4 17 2 30 l-3 23 -7 -25z"/>
<path d="M191 418 c-1 -18 -5 -20 -49 -22 -19 -1 -27 -11 -42 -56 -11 -30 -25
-64 -31 -75 -10 -18 -9 -17 13 3 27 24 44 28 50 10 2 -6 15 6 28 28 23 38 23
39 30 14 5 -20 12 -25 33 -23 31 2 33 -6 12 -47 -13 -24 -13 -33 -3 -50 10
-16 10 -22 -2 -34 -17 -17 -84 -23 -115 -11 -19 7 -19 7 -4 -10 12 -12 33 -18
68 -18 28 0 51 -4 51 -9 0 -4 5 -8 12 -8 6 0 8 3 5 7 -4 3 0 14 9 24 14 16 17
16 41 -7 32 -29 49 -30 63 -4 6 11 21 20 33 20 30 0 47 18 47 49 0 44 -11 51
-50 33 l-35 -16 38 -4 c20 -2 37 -6 37 -10 -1 -18 -19 -29 -57 -34 -42 -6 -53
2 -59 42 -1 8 -5 23 -9 33 -8 19 14 24 31 7 18 -18 64 6 64 32 0 13 3 34 5 48
5 23 5 23 -4 3 -12 -26 -65 -40 -86 -23 -8 7 -15 22 -16 34 0 21 0 21 -9 -1
-5 -13 -12 -23 -14 -23 -15 0 -75 69 -79 90 -2 14 -5 17 -6 8z m-42 -89 c-7
-14 -14 -18 -21 -11 -13 13 -2 32 18 32 12 0 13 -4 3 -21z m137 -65 c-3 -9 -6
-22 -6 -30 0 -8 -9 -14 -20 -14 -24 0 -25 4 -4 35 18 28 40 34 30 9z m14 -90
c0 -8 -4 -12 -10 -9 -5 3 -10 10 -10 16 0 5 5 9 10 9 6 0 10 -7 10 -16z"/>
<path d="M4540 403 c0 -13 5 -23 10 -23 13 0 13 11 0 30 -8 12 -10 11 -10 -7z"/>
<path d="M480 370 c-8 -5 -23 -11 -32 -14 -19 -6 -25 -50 -8 -61 5 -3 7 0 4 8
-11 31 84 74 101 46 8 -12 -23 -49 -41 -49 -7 0 -16 -5 -20 -12 -7 -11 -4 -10
44 9 7 3 12 -3 12 -15 0 -12 4 -23 9 -26 10 -7 13 54 5 97 -5 21 -11 27 -32
26 -15 0 -34 -4 -42 -9z"/>
<path d="M622 329 c-10 -32 -10 -44 -1 -53 9 -8 10 -8 5 2 -4 7 -3 19 4 27 6
8 10 26 8 40 -3 24 -4 22 -16 -16z"/>
<path d="M580 355 c0 -5 5 -17 10 -25 5 -8 10 -10 10 -5 0 6 -5 17 -10 25 -5
8 -10 11 -10 5z"/>
<path d="M4996 323 c4 -15 16 -46 26 -68 18 -39 19 -39 13 -7 -4 17 -4 32 0
32 3 0 31 -25 62 -55 56 -56 64 -85 23 -85 -11 0 -20 -7 -20 -15 0 -8 -7 -15
-15 -15 -9 0 -27 -7 -40 -16 -13 -8 -36 -14 -51 -12 -23 2 -30 10 -37 38 -4
19 -11 46 -14 60 -6 24 -25 50 -37 50 -12 0 -6 -30 12 -62 36 -64 36 -71 2
-65 -38 8 -38 2 0 -18 59 -30 190 -13 190 26 0 14 7 19 30 19 51 0 49 27 -4
72 -25 22 -46 45 -46 51 0 12 -63 77 -88 91 -10 6 -11 1 -6 -21z"/>
<path d="M4502 305 c-1 -16 -5 -41 -8 -55 -5 -22 -4 -23 6 -7 6 9 9 34 7 55
-3 32 -4 33 -5 7z"/>
<path d="M639 243 c6 -12 11 -31 11 -42 0 -12 5 -21 10 -21 17 0 11 34 -11 60
-17 21 -19 22 -10 3z"/>
<path d="M155 240 c3 -5 13 -10 21 -10 8 0 14 5 14 10 0 6 -9 10 -21 10 -11 0
-17 -4 -14 -10z"/>
<path d="M535 230 c-4 -6 3 -10 14 -10 25 0 27 6 6 13 -8 4 -17 2 -20 -3z"/>
<path d="M4758 203 c-16 -31 -15 -31 9 -29 29 3 56 26 31 26 -9 0 -18 8 -20
18 -3 13 -7 9 -20 -15z"/>
<path d="M5012 188 c29 -55 27 -52 34 -45 3 3 -3 19 -15 35 -12 17 -21 35 -21
41 0 6 -5 11 -11 11 -5 0 0 -19 13 -42z"/>
<path d="M590 206 c6 -8 18 -12 26 -9 19 7 7 23 -18 23 -17 0 -18 -3 -8 -14z"/>
<path d="M487 183 c-11 -3 -16 -11 -13 -19 3 -7 1 -16 -4 -19 -15 -9 -12 -25
4 -25 8 0 16 10 18 23 2 18 10 23 43 25 33 2 45 -2 65 -23 21 -22 22 -28 10
-35 -12 -8 -11 -10 7 -10 30 0 34 11 13 38 -32 38 -93 58 -143 45z"/>
<path d="M4510 166 c0 -9 12 -21 26 -26 32 -13 31 -13 38 6 4 11 1 14 -13 12
-10 -2 -25 3 -34 11 -15 12 -17 11 -17 -3z"/>
<path d="M4791 148 c-1 -13 -10 -18 -31 -18 -17 0 -30 5 -30 12 0 9 -3 9 -12
0 -7 -7 -22 -12 -35 -12 -13 0 -23 -4 -23 -9 0 -6 8 -10 18 -9 44 1 168 -16
173 -24 3 -5 12 -2 19 7 10 13 9 15 -8 15 -11 0 -22 7 -26 15 -3 8 -12 12 -20
9 -8 -3 -16 2 -19 13 -4 16 -5 16 -6 1z"/>
<path d="M4855 150 c-3 -5 3 -10 14 -10 12 0 21 5 21 10 0 6 -6 10 -14 10 -8
0 -18 -4 -21 -10z"/>
<path d="M4600 110 c-12 -8 -11 -10 8 -10 12 0 22 5 22 10 0 13 -11 13 -30 0z"/>
</g>
</svg>
