<?xml version="1.0" standalone="no"?>
<!DOCTYPE svg PUBLIC "-//W3C//DTD SVG 20010904//EN"
 "http://www.w3.org/TR/2001/REC-SVG-20010904/DTD/svg10.dtd">
<svg version="1.0" xmlns="http://www.w3.org/2000/svg"
 width="800.000000pt" height="1474.000000pt" viewBox="0 0 800.000000 1474.000000"
 preserveAspectRatio="xMidYMid meet">

<g transform="translate(0.000000,1474.000000) scale(0.100000,-0.100000)"
fill="#000000" stroke="none">
<path d="M7646 14460 c7 -7 19 -7 35 -1 23 9 22 10 -10 10 -24 1 -32 -2 -25
-9z"/>
<path d="M2192 14339 l2 -91 83 4 c46 2 83 1 83 -3 0 -15 -205 -209 -221 -209
-5 0 -9 -4 -9 -10 0 -17 16 -11 41 16 22 23 134 110 184 142 32 20 105 52 120
52 12 0 33 38 23 43 -1 1 -13 10 -25 21 -21 18 -23 17 -72 -9 -39 -22 -58 -26
-87 -22 -20 3 -38 8 -41 11 -2 2 -5 28 -5 57 0 81 -4 89 -43 89 l-34 0 1 -91z"/>
<path d="M4335 14410 c-24 -14 -45 -17 -112 -13 -51 2 -84 0 -88 -6 -4 -8 30
-11 108 -11 63 0 135 -3 160 -6 42 -6 46 -5 44 14 -1 14 -12 25 -31 32 -38 13
-45 12 -81 -10z"/>
<path d="M5036 14376 c-17 -52 -19 -54 -59 -60 -40 -5 -195 -1 -227 6 -8 1
-15 -4 -15 -12 0 -13 18 -14 116 -11 76 2 119 -1 123 -8 13 -20 -14 -89 -59
-153 -25 -34 -54 -76 -65 -93 -10 -16 -25 -37 -32 -45 -19 -21 -38 -60 -29
-60 11 0 131 126 131 139 0 6 4 11 9 11 23 0 37 -276 15 -312 -3 -5 0 -15 6
-24 21 -24 40 2 35 49 -2 22 -1 45 2 51 8 13 7 121 -1 134 -3 6 -3 24 0 41 l7
31 71 2 c39 0 83 0 99 -1 15 -1 27 3 27 9 0 8 -29 11 -92 9 -84 -2 -93 0 -97
17 -2 10 -8 25 -13 32 -7 8 -7 12 1 12 6 0 11 6 11 14 0 18 22 26 73 27 38 0
40 1 17 10 -14 6 -37 8 -52 5 -15 -3 -29 -2 -32 2 -2 4 13 30 34 57 l39 50
140 -5 c128 -5 140 -4 151 14 19 30 -4 44 -32 20 -18 -16 -35 -20 -73 -18 -27
1 -68 3 -90 4 -62 3 -95 11 -95 22 0 5 13 21 29 36 l30 25 -26 14 c-46 24 -59
17 -77 -41z"/>
<path d="M3800 14386 c0 -15 12 -17 90 -14 56 2 89 6 87 13 -2 5 -15 8 -28 7
-46 -7 -94 -6 -121 2 -23 7 -28 5 -28 -8z"/>
<path d="M4030 14391 c-36 -5 -41 -7 -22 -13 13 -3 36 -5 53 -3 22 3 29 0 29
-13 1 -9 2 -41 4 -69 2 -29 -1 -53 -6 -53 -5 0 -7 -4 -3 -9 3 -5 5 -51 4 -103
0 -51 0 -112 1 -135 0 -24 -3 -43 -9 -43 -17 0 -61 91 -61 126 0 19 -4 34 -10
34 -5 0 -10 -8 -10 -17 0 -10 -6 -30 -13 -44 -8 -14 -17 -45 -20 -70 l-7 -44
19 23 c11 12 24 22 30 22 10 0 12 -4 11 -25 0 -3 7 -19 16 -36 13 -26 20 -30
41 -24 l26 6 -7 -53 c-3 -29 -9 -63 -12 -75 -5 -20 -2 -23 19 -23 23 0 26 4
29 43 2 23 -1 52 -6 64 -7 17 -5 28 8 42 14 16 16 25 7 58 -8 29 -9 174 -2
266 1 4 33 7 71 7 39 0 70 4 70 8 0 4 -21 6 -47 5 -92 -6 -110 12 -82 84 6 17
7 29 1 31 -6 2 -20 12 -33 23 -12 10 -27 18 -33 17 -6 0 -31 -4 -56 -7z"/>
<path d="M1049 14298 c-1 -51 -1 -97 0 -101 1 -5 2 -107 2 -228 0 -185 2 -221
15 -226 8 -3 25 5 38 20 l24 26 190 1 c183 0 191 0 197 -20 3 -11 9 -20 13
-20 35 1 53 76 47 202 -15 294 -15 362 0 378 13 15 12 19 -9 39 -20 19 -28 21
-46 11 -11 -6 -45 -12 -75 -13 -68 -2 -73 -17 -7 -17 75 0 96 -35 76 -127 -6
-33 -28 -45 -37 -20 -3 9 -9 7 -24 -5 -29 -26 -119 -25 -126 1 -2 11 0 24 6
30 8 8 -2 11 -33 13 -72 2 -79 3 -86 10 -4 4 -7 18 -8 30 -1 13 -7 23 -16 23
-11 0 -15 -12 -15 -47 0 -39 3 -48 18 -48 9 0 17 5 17 10 0 6 14 10 31 10 26
0 30 -3 27 -22 -4 -27 -31 -36 -113 -37 l-60 -1 0 79 c0 79 0 80 30 89 30 10
30 10 4 11 -14 1 -34 10 -44 21 -10 11 -22 20 -27 20 -4 0 -9 -42 -9 -92z
m453 -146 c9 -9 14 -79 10 -132 -1 -14 3 -63 8 -109 9 -67 8 -86 -2 -93 -7 -5
-62 -8 -123 -7 -60 2 -139 -1 -175 -5 -35 -3 -77 -4 -92 -1 -28 7 -28 7 -27
85 0 43 -4 87 -10 98 -6 10 -7 22 -4 26 4 3 6 30 5 59 -1 28 1 57 6 64 15 24
382 37 404 15z"/>
<path d="M1395 14111 l-30 -7 25 -7 c24 -6 25 -8 25 -99 l0 -93 -107 -2 -108
-3 -1 48 c0 26 -3 67 -5 92 -4 33 -1 47 11 56 13 10 10 12 -20 12 l-37 0 5
-76 c3 -43 6 -101 7 -129 2 -58 9 -64 40 -33 17 17 33 20 109 20 78 0 90 -2
102 -21 12 -18 16 -18 33 -6 11 8 20 30 23 55 3 35 1 42 -14 42 -14 0 -15 2
-4 9 9 6 12 19 8 40 -4 17 -2 43 3 57 7 19 7 31 -1 40 -12 15 -18 15 -64 5z"/>
<path d="M1283 14103 c9 -2 23 -2 30 0 6 3 -1 5 -18 5 -16 0 -22 -2 -12 -5z"/>
<path d="M1233 13997 c6 -67 13 -79 31 -54 9 12 27 17 58 17 l46 0 -2 46 -1
47 -69 1 -68 2 5 -59z m97 36 c0 -5 3 -18 6 -30 6 -21 3 -23 -30 -23 -31 0
-36 3 -36 23 0 13 3 27 7 30 9 9 53 9 53 0z"/>
<path d="M3038 14351 l-3 -36 -82 3 c-72 3 -82 1 -77 -12 7 -17 13 -18 92 -16
40 1 54 -2 58 -15 8 -19 2 -26 -22 -29 -11 -2 -18 -14 -21 -36 -2 -18 -5 -35
-6 -37 -2 -2 -31 -6 -65 -9 -71 -8 -73 -25 -3 -23 26 1 53 -1 59 -5 7 -4 12
-31 12 -62 0 -53 1 -55 35 -70 19 -7 57 -14 85 -14 39 0 49 -3 43 -12 -4 -7
-8 -20 -8 -28 0 -9 -17 -19 -45 -27 -39 -10 -40 -19 -3 -14 25 3 0 -29 -48
-64 -27 -19 -49 -39 -49 -45 0 -11 70 14 107 38 28 17 40 10 45 -28 3 -23 -1
-37 -17 -52 -12 -12 -20 -29 -18 -39 6 -22 40 -31 66 -18 15 9 18 19 15 55 -2
24 0 44 4 44 5 0 8 18 8 41 0 29 -3 38 -12 33 -7 -4 -2 5 11 19 14 15 20 27
15 27 -6 0 -10 15 -10 34 l0 33 77 -2 c85 -4 117 9 106 40 -6 13 -13 16 -35
10 -53 -14 -302 -18 -317 -5 -17 14 -18 87 -2 108 5 6 29 12 53 12 28 0 44 -5
45 -12 1 -25 10 -73 15 -87 3 -10 10 -8 27 10 18 19 21 29 13 47 -7 18 -5 25
10 37 19 13 19 14 0 28 -13 10 -17 21 -13 38 5 18 1 28 -15 38 -25 16 -41 0
-35 -36 6 -32 -4 -41 -47 -45 -55 -4 -70 21 -33 56 16 15 26 30 23 34 -2 4 11
18 30 31 33 23 37 41 8 41 -8 0 -14 10 -14 24 0 19 -6 25 -30 28 -27 4 -29 2
-32 -31z"/>
<path d="M3244 14365 c-3 -12 -4 -46 -2 -76 3 -47 6 -54 25 -57 45 -7 38 -62
-7 -62 -16 0 -32 -4 -35 -10 -4 -6 7 -10 25 -10 35 0 49 -23 31 -51 -10 -17
-8 -19 19 -19 28 0 30 3 30 36 l0 37 80 -5 c61 -4 80 -2 84 9 8 20 -19 27 -66
15 -49 -13 -88 -1 -88 27 0 11 6 22 13 25 12 5 11 6 -32 35 -27 18 0 32 58 30
69 -2 91 7 64 26 -12 9 -22 10 -30 3 -41 -34 -124 -8 -103 33 14 26 14 26 -25
31 -30 3 -36 1 -41 -17z"/>
<path d="M5775 14338 c17 -110 10 -409 -11 -492 -10 -41 7 -27 35 29 13 27 33
50 47 55 13 5 24 16 24 24 0 8 3 21 6 30 5 12 0 16 -19 16 -21 0 -25 6 -29 38
-2 20 -2 64 2 97 l6 60 10 -35 c8 -27 16 -35 33 -35 12 0 27 -9 33 -19 6 -10
11 -78 12 -152 0 -74 4 -134 9 -134 4 0 7 6 7 14 0 8 6 16 13 19 9 3 12 58 12
233 l0 229 40 13 c53 17 78 5 93 -46 16 -51 16 -169 1 -174 -9 -3 -9 -10 -2
-23 19 -35 33 -300 18 -325 -9 -15 23 -19 42 -5 13 11 14 14 4 15 -12 0 -11 3
2 13 14 10 17 23 13 67 -3 30 -6 55 -6 55 -2 0 -11 78 -13 115 -1 20 6 47 16
62 16 24 16 27 1 30 -23 4 -30 160 -8 183 8 8 12 20 9 26 -4 5 1 17 11 24 17
13 11 15 -51 16 -38 1 -85 1 -104 0 -19 -2 -44 3 -57 9 -19 10 -25 10 -38 -2
-11 -12 -26 -13 -65 -7 -27 4 -59 12 -70 18 -32 17 -34 14 -26 -41z m124 -22
c16 -19 26 -112 14 -119 -6 -4 -18 2 -28 13 -10 11 -26 20 -37 20 -10 0 -18 6
-19 13 -2 22 3 72 8 80 7 12 50 8 62 -7z"/>
<path d="M6242 14365 c-20 -10 -21 -13 -7 -19 22 -8 85 -8 85 0 0 10 -33 33
-45 33 -5 -1 -20 -7 -33 -14z"/>
<path d="M1305 14360 c-19 -8 -19 -9 3 -9 12 -1 22 4 22 9 0 6 -1 10 -2 9 -2
0 -12 -4 -23 -9z"/>
<path d="M1218 14348 c17 -8 26 -8 34 0 9 9 4 12 -22 11 -33 0 -34 -1 -12 -11z"/>
<path d="M1348 14353 c7 -3 16 -2 19 1 4 3 -2 6 -13 5 -11 0 -14 -3 -6 -6z"/>
<path d="M1168 14343 c7 -3 16 -2 19 1 4 3 -2 6 -13 5 -11 0 -14 -3 -6 -6z"/>
<path d="M1405 14310 c-3 -5 -16 -10 -28 -11 l-22 0 23 -11 c25 -13 29 -28 7
-28 -24 0 -17 -17 9 -22 26 -5 36 11 36 60 0 23 -14 30 -25 12z"/>
<path d="M4307 14258 c-13 -14 -15 -23 -8 -32 6 -7 9 -34 6 -60 -2 -25 -1 -56
4 -68 4 -12 4 -43 -1 -70 -10 -53 2 -88 30 -88 15 0 17 13 15 122 -1 68 3 138
8 156 18 55 -17 81 -54 40z"/>
<path d="M2002 14242 c-19 -3 -21 -6 -11 -18 15 -18 56 -18 111 0 24 8 52 16
63 19 23 4 -129 4 -163 -1z"/>
<path d="M3889 14198 c0 -24 0 -81 0 -128 2 -178 2 -206 -2 -252 -3 -34 -1
-48 8 -48 16 0 25 32 25 88 0 30 5 44 16 49 12 4 13 8 3 14 -9 5 -13 46 -14
151 0 79 -4 149 -8 156 -16 24 -27 11 -28 -30z"/>
<path d="M5230 14190 c-6 -11 -9 -29 -6 -38 9 -28 11 -284 2 -320 -8 -33 -8
-33 -57 -27 -27 3 -49 2 -49 -2 1 -16 91 -74 103 -67 18 11 42 47 42 64 1 8 4
20 8 27 4 6 3 15 -3 18 -7 4 -7 11 -2 18 13 16 22 57 13 57 -4 0 -6 13 -3 29
2 16 -1 32 -7 35 -6 4 -7 15 -2 29 5 13 8 61 8 107 -2 71 -5 85 -19 88 -9 2
-22 -6 -28 -18z"/>
<path d="M5170 14190 c0 -5 9 -10 21 -10 11 0 17 5 14 10 -3 6 -13 10 -21 10
-8 0 -14 -4 -14 -10z"/>
<path d="M4214 14165 c-4 -8 -16 -16 -28 -16 -16 -1 -17 -2 -3 -6 12 -3 17
-15 17 -44 0 -27 4 -39 14 -39 10 0 14 10 14 30 -1 17 6 38 15 48 13 14 14 21
5 30 -16 16 -27 15 -34 -3z"/>
<path d="M3991 14150 l-23 -20 23 0 c31 0 53 15 45 29 -10 15 -17 14 -45 -9z"/>
<path d="M6307 14142 c-26 -29 -20 -42 17 -42 29 0 33 3 29 20 -9 33 -28 42
-46 22z"/>
<path d="M5980 14100 c0 -5 24 -10 53 -10 37 0 48 3 37 10 -20 13 -90 13 -90
0z"/>
<path d="M6238 14103 c7 -3 16 -2 19 1 4 3 -2 6 -13 5 -11 0 -14 -3 -6 -6z"/>
<path d="M4182 14011 c-7 -21 -12 -49 -12 -62 l1 -24 20 24 c11 13 21 22 23
20 2 -2 15 -23 30 -46 16 -26 34 -43 45 -43 24 0 43 -49 29 -73 -5 -9 -18 -17
-28 -17 -22 0 -25 -12 -10 -41 12 -21 52 -27 44 -6 -2 7 4 22 15 33 13 14 16
25 10 37 -6 10 -5 18 1 22 14 9 12 45 -2 45 -9 0 -9 3 1 9 21 13 5 41 -24 41
-31 0 -61 29 -81 80 -21 53 -47 53 -62 1z"/>
<path d="M2040 13966 c-6 -6 -10 -16 -10 -23 0 -7 -6 -13 -14 -13 -7 0 -19
-14 -26 -30 -7 -17 -26 -38 -42 -48 -16 -9 -27 -23 -26 -31 5 -27 25 -22 38 9
7 17 29 44 49 61 l36 30 49 -52 c53 -54 93 -77 154 -84 20 -3 49 -8 65 -11 15
-4 65 -3 112 1 80 6 86 9 102 36 11 19 26 29 40 29 13 0 23 5 23 10 0 12 -24
10 -150 -10 -87 -14 -215 -7 -281 15 -56 19 -112 82 -85 97 9 5 16 12 16 16 0
11 -39 9 -50 -2z"/>
<path d="M5075 13951 c-40 -4 -54 -8 -42 -13 40 -17 153 -4 125 13 -7 5 -15 8
-18 7 -3 -1 -32 -4 -65 -7z"/>
<path d="M5188 13943 c7 -3 16 -2 19 1 4 3 -2 6 -13 5 -11 0 -14 -3 -6 -6z"/>
<path d="M3433 13928 c-31 -15 -29 -28 5 -28 34 0 57 14 48 29 -9 13 -24 13
-53 -1z"/>
<path d="M2865 13910 c3 -5 8 -10 11 -10 2 0 4 5 4 10 0 6 -5 10 -11 10 -5 0
-7 -4 -4 -10z"/>
<path d="M3254 13842 c18 -35 79 -83 126 -99 47 -17 57 -16 82 7 12 11 28 20
37 20 13 0 7 14 -7 15 -36 3 -101 23 -165 51 -43 19 -80 34 -83 34 -2 0 2 -13
10 -28z"/>
<path d="M5883 13793 c-20 -7 -15 -19 11 -31 20 -9 27 -7 40 7 9 10 16 20 16
22 0 7 -53 8 -67 2z"/>
<path d="M2950 13780 c0 -5 7 -7 15 -4 8 4 15 8 15 10 0 2 -7 4 -15 4 -8 0
-15 -4 -15 -10z"/>
<path d="M5706 13781 c-4 -7 -5 -15 -2 -18 9 -9 19 4 14 18 -4 11 -6 11 -12 0z"/>
<path d="M2555 11708 c132 -9 281 -35 345 -58 19 -7 67 -28 107 -47 39 -18 79
-33 87 -33 8 0 18 -4 21 -10 3 -5 14 -10 25 -10 10 0 83 -32 162 -72 78 -40
170 -82 203 -94 33 -11 98 -35 145 -53 148 -56 239 -69 380 -56 14 1 49 3 78
3 29 1 51 6 48 11 -5 8 -24 8 -177 -4 -59 -5 -96 -1 -160 14 -103 25 -211 60
-224 72 -5 5 -16 9 -26 9 -18 0 -248 103 -321 144 -26 14 -83 40 -127 56 -44
16 -99 39 -121 50 -23 12 -92 34 -153 50 -92 23 -140 29 -267 33 l-155 5 130
-10z"/>
<path d="M2317 11704 c-3 -3 -26 -8 -52 -10 -25 -3 -76 -16 -113 -30 -37 -14
-71 -27 -77 -28 -5 -1 -32 -13 -60 -26 -42 -21 -46 -25 -27 -28 13 -2 31 3 40
10 9 8 37 20 61 27 25 7 54 19 65 25 20 13 46 19 201 50 l70 14 -51 1 c-28 1
-53 -2 -57 -5z"/>
<path d="M1877 11540 c-37 -22 -88 -59 -113 -82 -25 -24 -53 -46 -62 -49 -9
-3 -17 -10 -17 -15 0 -5 -4 -15 -8 -21 -5 -7 -5 -13 -2 -13 9 0 118 85 135
105 7 9 30 25 49 36 40 21 111 79 96 78 -6 0 -40 -18 -78 -39z"/>
<path d="M4525 11350 c-44 -5 -93 -11 -110 -14 -16 -4 -79 -15 -140 -26 -79
-14 -93 -18 -50 -15 58 4 94 9 145 21 21 5 74 11 245 26 11 1 47 -1 80 -5 38
-4 52 -4 39 2 -34 15 -123 19 -209 11z"/>
<path d="M4870 11289 c186 -67 193 -70 230 -92 56 -34 121 -85 178 -139 29
-28 66 -58 82 -67 50 -27 282 -187 345 -238 57 -47 169 -176 221 -255 89 -138
86 -355 -7 -492 -36 -54 -126 -138 -196 -183 -54 -34 -77 -58 -46 -46 31 11
136 84 176 122 22 20 57 62 79 94 34 51 44 71 64 135 3 10 10 9 34 -5 16 -9
30 -20 30 -24 0 -4 11 -20 24 -36 13 -15 35 -50 50 -78 15 -27 46 -79 68 -115
25 -39 60 -122 89 -208 45 -134 62 -205 104 -455 10 -54 19 -96 21 -94 6 5
-22 231 -40 327 -14 80 -69 252 -106 335 -79 180 -131 261 -213 337 l-52 47 0
98 c0 244 -124 404 -520 673 -12 8 -35 24 -51 35 -27 18 -101 77 -187 147 -56
46 -135 97 -192 123 -88 41 -245 95 -273 95 -16 0 21 -18 88 -41z"/>
<path d="M1585 11293 c-10 -16 -28 -37 -39 -48 -19 -17 -39 -47 -81 -116 -5
-9 -37 -70 -70 -135 -33 -66 -63 -120 -67 -122 -5 -2 -8 -15 -8 -28 0 -13 -4
-24 -10 -24 -5 0 -10 -11 -10 -24 0 -14 -4 -28 -10 -31 -5 -3 -10 -14 -10 -24
0 -25 -84 -279 -108 -326 -11 -22 -23 -60 -27 -85 -4 -25 -16 -62 -26 -82 -11
-21 -19 -49 -19 -64 0 -42 -58 -332 -70 -349 -17 -23 -71 -312 -71 -377 0 -15
-4 -30 -10 -33 -5 -4 -7 -10 -4 -15 3 -4 -2 -24 -10 -43 -8 -20 -11 -38 -6
-41 5 -4 5 -24 0 -48 -6 -23 -8 -47 -5 -54 3 -8 -1 -35 -9 -60 -8 -26 -12 -51
-9 -56 4 -5 -1 -15 -10 -21 -10 -8 -18 -34 -21 -72 -7 -82 -23 -184 -35 -220
-5 -16 -12 -115 -16 -220 -3 -104 -8 -208 -10 -230 -3 -22 -7 -78 -10 -125 -2
-47 -9 -107 -14 -135 -5 -27 -12 -90 -15 -140 -4 -49 -9 -103 -11 -120 -2 -16
-8 -93 -14 -169 -6 -77 -12 -149 -15 -160 -2 -12 -10 -124 -16 -251 -6 -126
-13 -250 -14 -275 -2 -25 -6 -94 -10 -155 -20 -333 -23 -655 -7 -655 4 0 9 37
10 82 1 45 6 86 11 91 11 11 119 -17 174 -45 76 -39 120 -74 277 -223 141
-133 223 -195 237 -181 3 3 -3 9 -13 12 -31 11 -100 71 -256 220 -181 173
-231 209 -318 225 -118 21 -114 17 -107 116 3 47 8 87 10 90 7 6 171 -49 188
-63 8 -8 19 -14 24 -14 17 0 112 -66 180 -124 63 -54 67 -45 5 13 -128 119
-233 178 -355 200 l-40 7 3 124 c2 69 7 128 11 133 13 13 113 -14 186 -51 39
-19 98 -57 132 -84 85 -67 228 -220 303 -325 35 -48 66 -90 70 -93 3 -3 18
-22 33 -42 49 -67 182 -118 282 -109 5 1 -8 18 -30 39 -55 51 -113 119 -142
165 -13 21 -27 37 -30 34 -8 -8 70 -117 112 -157 20 -19 41 -43 47 -54 9 -17
6 -18 -44 -11 -29 4 -65 14 -80 21 -39 20 -150 131 -184 184 -93 144 -273 332
-396 413 -48 31 -97 61 -110 66 -53 20 -96 31 -121 31 l-27 0 0 94 c0 52 4 97
9 101 20 12 167 -28 240 -65 106 -53 237 -173 340 -312 25 -34 56 -73 68 -86
23 -25 60 -82 107 -164 33 -58 44 -64 16 -8 -48 94 -157 251 -235 339 -100
112 -283 261 -321 261 -6 0 -36 11 -66 24 -30 13 -68 26 -84 29 -48 8 -64 18
-70 42 -7 28 2 181 12 196 10 17 170 5 219 -15 58 -24 160 -97 231 -163 57
-54 87 -91 193 -243 21 -31 47 -62 57 -70 18 -14 18 -14 4 6 -8 12 -28 39 -45
61 -16 23 -37 51 -45 63 -96 145 -220 267 -343 338 -43 25 -161 52 -226 52
l-44 0 6 139 c6 135 18 191 41 191 6 0 40 -9 74 -20 97 -30 108 -23 14 9 -46
15 -88 33 -94 39 -9 9 -9 44 -1 142 6 71 14 134 18 140 20 32 164 -3 312 -76
135 -66 173 -106 313 -320 51 -76 94 -141 97 -144 9 -7 -57 112 -72 130 -6 8
-36 55 -66 104 -65 108 -128 172 -220 225 -62 36 -203 86 -304 108 l-40 9 -3
94 c-3 89 13 309 24 319 6 6 99 -17 144 -36 91 -38 126 -57 178 -95 67 -49
155 -134 170 -164 6 -12 26 -40 44 -62 31 -38 61 -83 116 -171 30 -48 89 -165
112 -221 10 -25 32 -75 49 -113 17 -37 31 -70 31 -73 0 -13 101 -214 111 -220
14 -8 13 -7 -27 71 -18 33 -51 107 -74 165 -132 328 -247 524 -418 711 -87 95
-264 192 -406 224 l-28 6 7 101 c4 56 11 115 16 132 5 17 9 45 9 63 0 17 3 34
8 36 4 3 36 -3 72 -12 70 -19 153 -59 210 -102 19 -14 40 -28 47 -30 26 -9
126 -147 188 -261 52 -96 84 -140 144 -201 42 -43 90 -85 106 -93 30 -14 30
-14 5 3 -14 9 -55 47 -91 84 -61 61 -91 106 -192 289 -17 30 -33 57 -36 60 -3
3 -26 31 -50 63 -41 54 -151 147 -173 147 -5 0 -24 6 -41 14 -18 7 -61 24 -97
36 -77 28 -93 38 -85 58 3 9 10 50 16 91 13 106 17 121 33 121 14 0 104 -40
141 -63 94 -58 170 -115 221 -169 106 -109 150 -183 259 -438 32 -74 83 -173
114 -220 69 -105 69 -104 40 -95 -17 5 -21 4 -14 -3 14 -15 95 -32 95 -21 0 5
-4 9 -9 9 -4 0 -32 33 -62 73 -30 39 -60 79 -67 88 -8 9 -55 110 -104 225 -50
115 -106 231 -124 258 -49 73 -135 170 -174 197 -19 13 -54 39 -79 57 -51 40
-174 106 -213 116 -26 6 -28 10 -28 63 0 30 5 84 12 119 10 54 15 64 32 64 33
0 153 -37 178 -54 12 -9 28 -16 35 -16 20 0 144 -80 208 -134 40 -34 52 -41
37 -22 -58 75 -241 183 -392 231 -30 10 -60 21 -66 26 -7 6 -7 34 2 96 15 113
41 251 50 264 3 6 22 -14 41 -43 46 -70 102 -127 193 -198 68 -52 126 -110
258 -257 68 -75 163 -280 187 -403 12 -63 36 -312 30 -318 -8 -8 -55 48 -55
66 0 8 -6 28 -14 45 -8 18 -26 73 -41 122 -14 50 -31 104 -36 120 -13 45 -93
177 -120 200 -19 17 -19 14 4 -13 55 -68 107 -196 163 -402 8 -30 22 -70 31
-88 18 -36 113 -120 98 -87 -4 11 -12 61 -16 110 -16 162 -41 319 -61 379 -26
74 -104 210 -170 296 -61 78 -112 129 -238 235 -115 96 -103 84 -175 175 -32
41 -63 78 -67 81 -13 9 64 424 82 443 10 10 52 -19 123 -87 27 -26 53 -45 56
-41 9 9 -113 119 -159 144 -13 7 -19 18 -16 28 42 152 42 152 100 102 58 -51
356 -431 356 -455 0 -2 24 -42 53 -88 153 -247 223 -332 367 -447 84 -67 167
-116 177 -106 3 3 -7 10 -22 16 -30 12 -53 28 -158 114 -108 89 -208 205 -284
329 -15 25 -42 65 -58 89 -17 23 -59 92 -95 151 -36 60 -90 138 -120 175 -30
36 -72 88 -94 116 -21 28 -64 77 -94 108 -31 31 -59 63 -64 71 -5 11 13 32 68
78 78 66 130 108 180 146 16 12 24 22 18 22 -10 1 -133 -90 -216 -160 -44 -36
-46 -29 -19 56 85 263 227 605 252 605 4 0 16 17 25 37 10 20 45 65 77 100 47
50 55 63 39 63 -11 0 -28 -12 -37 -27z"/>
<path d="M5165 11220 c3 -5 8 -10 11 -10 2 0 4 5 4 10 0 6 -5 10 -11 10 -5 0
-7 -4 -4 -10z"/>
<path d="M2880 11170 c-17 -6 -2 -8 53 -9 45 -1 77 3 77 9 0 12 -94 12 -130 0z"/>
<path d="M3020 11170 c0 -6 29 -10 73 -11 39 0 97 -4 127 -9 77 -11 311 -73
395 -105 110 -42 157 -57 162 -52 9 10 -232 93 -385 133 -152 40 -372 66 -372
44z"/>
<path d="M2705 11150 c-13 -6 10 -7 60 -3 44 3 82 7 84 9 9 8 -125 2 -144 -6z"/>
<path d="M2588 11123 c6 -2 18 -2 25 0 6 3 1 5 -13 5 -14 0 -19 -2 -12 -5z"/>
<path d="M2538 11115 c-3 -3 -25 -9 -49 -14 -43 -9 -43 -9 -9 -9 34 -1 111 26
79 27 -9 1 -18 -1 -21 -4z"/>
<path d="M2385 11081 c-11 -5 -51 -19 -90 -31 -96 -31 -345 -136 -345 -145 0
-3 17 2 38 11 20 9 44 18 52 21 20 7 40 15 152 62 53 23 126 49 162 58 36 9
66 20 66 24 0 11 -8 10 -35 0z"/>
<path d="M3810 10978 c14 -6 84 -40 156 -75 72 -35 136 -63 141 -63 6 0 55
-19 109 -43 95 -41 291 -108 419 -141 130 -35 313 -75 365 -82 96 -11 360 -89
440 -129 14 -7 60 -30 103 -51 87 -43 160 -101 182 -145 8 -15 15 -51 15 -79
0 -27 5 -50 10 -50 6 0 10 22 10 48 0 57 -36 121 -95 169 -62 52 -279 150
-432 197 -29 9 -76 23 -105 32 -28 8 -70 18 -92 20 -57 6 -205 33 -241 43 -16
5 -55 14 -85 21 -116 25 -496 155 -545 186 -11 7 -40 18 -65 24 -25 7 -82 32
-127 56 -79 42 -157 74 -178 73 -5 0 1 -5 15 -11z"/>
<path d="M1895 10882 c-49 -21 -236 -120 -250 -133 -18 -18 20 -9 50 12 17 11
78 45 138 75 59 30 107 56 107 59 0 6 2 7 -45 -13z"/>
<path d="M3744 10734 c4 -14 4 -34 1 -45 -8 -24 -35 -25 -35 -1 0 18 -18 42
-31 42 -4 0 -5 -18 -2 -40 5 -34 3 -40 -13 -40 -18 -1 -18 -1 -1 -14 20 -16
22 -30 4 -45 -10 -8 -17 -7 -25 1 -10 10 -11 5 -6 -22 12 -60 22 -78 46 -82
36 -5 31 -41 -7 -49 l-30 -7 28 -1 c39 -2 35 -31 -12 -74 -21 -19 -44 -37 -52
-39 -8 -3 -11 -8 -7 -12 14 -16 88 35 109 75 11 23 23 38 26 35 3 -3 11 1 17
8 6 8 31 19 56 25 l45 11 -57 -5 c-51 -5 -57 -3 -63 16 -9 26 -4 30 37 32 l33
2 0 55 c0 49 -2 55 -24 60 -23 5 -23 6 -7 23 10 9 28 17 42 17 13 0 24 5 24
10 0 6 -12 9 -27 8 -24 -3 -28 1 -29 24 -1 29 -19 58 -36 58 -6 0 -7 -11 -4
-26z m-10 -103 c3 -5 -1 -14 -9 -21 -13 -10 -15 -9 -15 9 0 21 14 28 24 12z
m46 -76 c0 -30 -3 -35 -24 -35 -13 0 -38 -3 -56 -7 -30 -6 -33 -4 -28 15 4 12
2 25 -3 28 -18 11 -8 23 24 27 85 10 87 10 87 -28z"/>
<path d="M3704 10549 c12 -8 25 -8 40 -1 18 9 16 11 -19 11 -33 0 -37 -1 -21
-10z"/>
<path d="M1584 10712 c-61 -41 -98 -72 -92 -77 5 -5 138 92 138 100 0 8 -3 6
-46 -23z"/>
<path d="M3533 10608 c1 -94 -10 -152 -40 -210 -13 -27 -19 -48 -14 -48 13 0
49 52 63 90 5 17 13 29 16 26 3 -3 11 -1 19 5 10 9 13 5 13 -24 0 -19 -5 -37
-11 -39 -6 -2 -5 -14 5 -33 l15 -29 11 28 c5 15 10 88 10 162 0 115 -2 136
-16 141 -9 3 -24 1 -34 -5 -11 -7 -21 -7 -27 -1 -6 6 -10 -16 -10 -63z m65 14
c2 -17 -1 -32 -5 -32 -17 0 -33 24 -33 48 0 38 34 24 38 -16z m-4 -87 c-4 -11
-11 -26 -17 -33 -15 -19 -26 5 -20 45 5 28 7 31 24 20 13 -8 17 -18 13 -32z"/>
<path d="M4405 10630 c-11 -5 -33 -9 -49 -9 -19 -1 -26 -5 -20 -10 5 -6 33 -7
69 -2 33 5 67 6 75 4 10 -3 8 1 -4 11 -22 18 -41 19 -71 6z"/>
<path d="M4231 10621 c-11 -7 -9 -11 8 -20 26 -14 31 -67 5 -57 -9 3 -18 6
-20 6 -2 0 -4 8 -4 18 0 19 -18 42 -33 42 -5 0 -5 -19 -1 -42 13 -75 6 -182
-16 -233 -24 -56 -25 -61 -4 -45 23 20 33 44 39 91 7 50 2 45 43 52 32 6 32 6
32 -32 0 -34 -3 -38 -20 -34 -25 7 -25 -5 -1 -36 33 -43 44 -19 37 78 -15 205
-18 221 -35 221 -9 0 -22 -4 -30 -9z m38 -127 c10 -9 -11 -34 -29 -34 -15 0
-20 7 -20 26 0 22 3 24 23 18 12 -3 24 -8 26 -10z"/>
<path d="M4329 10583 c-3 -20 3 -69 9 -75 4 -3 30 -1 57 6 46 12 50 16 50 42
0 29 -3 31 -60 22 -5 0 -20 2 -32 6 -13 4 -23 4 -24 -1z m76 -33 c3 -5 4 -10
1 -10 -2 0 -11 -3 -19 -6 -8 -3 -17 2 -20 10 -7 18 27 23 38 6z"/>
<path d="M4393 10488 c-48 -9 -74 -28 -38 -28 17 0 18 -2 9 -24 -3 -9 -10 -16
-16 -16 -5 0 -7 4 -4 9 3 5 -1 14 -10 21 -13 12 -15 4 -12 -63 3 -82 23 -109
23 -32 0 29 4 45 12 45 16 0 36 38 29 56 -7 17 41 31 56 16 12 -12 7 -67 -7
-68 -5 -1 -25 -5 -42 -9 -33 -8 -46 -25 -18 -25 8 0 17 -14 21 -35 5 -29 9
-33 20 -24 8 6 14 22 14 35 0 13 5 24 10 24 6 0 10 -11 10 -25 0 -14 -4 -25
-10 -25 -14 0 -12 -11 5 -34 12 -16 17 -17 30 -6 22 18 22 182 -1 204 -8 9
-18 15 -22 15 -4 -1 -31 -6 -59 -11z"/>
<path d="M4400 10453 c1 -18 19 -35 29 -28 9 5 9 10 0 21 -12 15 -29 19 -29 7z"/>
<path d="M3770 10380 c34 -63 64 -90 102 -90 55 0 54 14 -3 39 -27 13 -64 35
-81 49 l-31 26 13 -24z"/>
<path d="M1355 10270 c-15 -6 -5 -9 35 -10 186 -3 480 -51 685 -110 79 -23
132 -27 70 -5 -60 21 -146 41 -289 70 -70 14 -131 27 -135 29 -6 4 -168 21
-291 30 -30 3 -64 1 -75 -4z"/>
<path d="M1450 10122 c0 -7 50 -12 153 -14 154 -3 165 -3 155 8 -12 11 -308
17 -308 6z"/>
<path d="M2201 10121 c17 -11 107 -28 99 -18 -5 6 -27 11 -85 23 -23 4 -26 3
-14 -5z"/>
<path d="M1790 10112 c0 -4 64 -18 143 -31 78 -13 149 -27 157 -31 8 -4 35
-11 60 -14 38 -5 107 -27 242 -78 15 -5 33 -8 40 -5 8 3 6 7 -7 12 -11 4 -29
11 -40 15 -97 43 -273 86 -470 116 -55 8 -106 17 -112 19 -7 2 -13 1 -13 -3z"/>
<path d="M5726 10070 c-23 -47 -135 -144 -222 -190 -68 -37 -92 -56 -49 -40
73 28 169 86 211 130 42 43 93 115 94 133 1 20 -17 3 -34 -33z"/>
<path d="M2318 10093 c7 -3 16 -2 19 1 4 3 -2 6 -13 5 -11 0 -14 -3 -6 -6z"/>
<path d="M2350 10086 c0 -6 172 -58 176 -53 3 2 -33 16 -78 31 -83 26 -98 29
-98 22z"/>
<path d="M2550 10020 c8 -5 22 -9 30 -9 10 0 8 3 -5 9 -27 12 -43 12 -25 0z"/>
<path d="M1320 9992 c0 -5 10 -17 21 -28 35 -31 151 -192 219 -302 34 -57 65
-101 67 -98 3 3 -4 18 -16 34 -12 17 -21 33 -21 36 0 13 -143 229 -195 294
-53 66 -75 85 -75 64z"/>
<path d="M2650 9985 c47 -18 74 -18 31 0 -18 8 -41 15 -50 14 -9 0 0 -7 19
-14z"/>
<path d="M2720 9965 c0 -5 132 -45 146 -44 13 0 -118 49 -133 49 -7 0 -13 -2
-13 -5z"/>
<path d="M2466 9933 c4 -10 9 -60 12 -112 5 -104 -10 -172 -59 -279 -16 -35
-29 -65 -29 -67 0 -9 -114 -204 -137 -233 -14 -18 -23 -36 -20 -38 9 -9 89
114 156 241 77 146 102 229 107 359 3 60 6 111 7 113 4 3 392 -114 416 -126 8
-4 19 -21 24 -37 17 -53 156 -334 166 -334 5 0 19 -15 30 -34 12 -19 53 -65
93 -102 39 -38 85 -83 102 -99 34 -34 398 -219 416 -213 13 4 4 9 -130 69 -52
23 -122 60 -154 81 -33 21 -65 38 -72 38 -26 0 -37 31 -35 98 2 53 -5 90 -29
166 -31 96 -43 123 -109 239 -19 32 -31 60 -28 63 6 6 66 -8 217 -50 68 -19
84 -27 82 -41 -2 -9 1 -14 6 -11 18 11 89 -122 129 -241 22 -67 24 -87 21
-199 -2 -80 1 -123 7 -121 15 5 18 173 4 252 -8 47 -31 111 -70 193 -33 67
-59 125 -59 128 0 6 43 2 128 -12 25 -4 42 -3 42 3 0 6 -28 13 -63 16 -35 3
-92 15 -128 26 -35 11 -100 27 -144 36 -90 19 -211 50 -239 61 -14 5 -17 4
-12 -4 4 -7 13 -12 21 -12 8 0 22 -13 32 -30 9 -16 21 -30 26 -30 4 0 5 -5 2
-11 -4 -5 0 -18 8 -27 43 -49 104 -189 137 -313 14 -54 10 -111 -8 -117 -16
-5 -162 142 -216 218 -44 62 -143 263 -152 310 -8 36 2 37 85 15 30 -8 50 -10
45 -5 -8 8 -105 35 -159 45 -11 2 -65 18 -120 35 -117 36 -134 41 -240 69 -43
12 -84 26 -89 31 -16 16 -29 11 -20 -7z"/>
<path d="M2885 9910 c3 -5 15 -10 25 -10 11 0 29 -4 42 -9 13 -5 59 -17 103
-26 44 -9 109 -23 145 -32 178 -43 208 -48 515 -98 150 -25 238 -32 165 -14
-19 4 -66 13 -105 18 -229 34 -387 63 -535 101 -47 12 -112 26 -145 31 -33 5
-73 13 -90 19 -43 13 -111 30 -119 30 -4 0 -4 -4 -1 -10z"/>
<path d="M5340 9800 c0 -5 7 -7 15 -4 8 4 15 8 15 10 0 2 -7 4 -15 4 -8 0 -15
-4 -15 -10z"/>
<path d="M5223 9777 c-29 -5 -53 -14 -53 -19 0 -11 63 0 105 18 35 15 21 15
-52 1z"/>
<path d="M5603 9760 c-13 -5 -23 -12 -23 -15 0 -10 27 -5 46 10 21 16 11 18
-23 5z"/>
<path d="M5123 9753 c9 -2 23 -2 30 0 6 3 -1 5 -18 5 -16 0 -22 -2 -12 -5z"/>
<path d="M5033 9743 c-13 -2 -23 -9 -23 -14 0 -11 -4 -12 50 5 43 14 26 19
-27 9z"/>
<path d="M4835 9725 c-66 -7 -160 -15 -210 -19 -49 -4 -92 -10 -95 -13 -5 -5
213 3 255 10 11 2 62 7 113 11 51 5 95 13 98 17 6 11 -6 10 -161 -6z"/>
<path d="M5497 9713 c-4 -3 -7 -10 -7 -14 0 -9 39 1 46 12 6 10 -29 12 -39 2z"/>
<path d="M3948 9703 c7 -3 16 -2 19 1 4 3 -2 6 -13 5 -11 0 -14 -3 -6 -6z"/>
<path d="M3995 9700 c3 -5 30 -10 58 -9 38 0 47 3 32 9 -29 12 -98 12 -90 0z"/>
<path d="M4115 9700 c4 -6 85 -9 198 -9 153 2 177 3 117 9 -110 12 -322 11
-315 0z"/>
<path d="M5431 9633 c-13 -68 -23 -333 -13 -350 4 -6 8 32 10 85 2 90 12 192
28 285 11 61 -12 43 -25 -20z"/>
<path d="M5311 9660 c-36 -9 -67 -23 -69 -30 -4 -10 1 -11 14 -5 11 4 48 14
84 22 36 8 69 18 75 24 14 14 -31 9 -104 -11z"/>
<path d="M3714 9628 c-3 -4 6 -8 20 -8 14 0 26 4 26 8 0 4 -9 8 -21 8 -11 0
-23 -4 -25 -8z"/>
<path d="M3780 9622 c0 -10 94 -20 280 -28 69 -4 122 -3 117 2 -4 4 -31 8 -60
9 -99 4 -272 16 -304 21 -18 3 -33 1 -33 -4z"/>
<path d="M5140 9612 c-48 -15 -108 -17 -503 -15 -247 1 -447 -1 -445 -3 3 -2
68 -6 146 -8 78 -3 145 -7 150 -10 26 -16 54 -416 37 -528 -4 -30 -3 -48 2
-48 6 0 13 24 16 53 7 63 -8 379 -22 462 -5 33 -8 61 -5 64 2 2 55 -1 117 -7
61 -6 158 -11 215 -11 76 0 102 -3 103 -13 2 -15 5 -90 9 -208 3 -82 3 -80 10
45 11 197 20 210 88 122 45 -57 88 -151 122 -265 12 -40 24 -71 26 -69 8 8
-27 138 -50 192 -14 29 -43 85 -65 123 -23 39 -41 73 -41 75 0 7 134 47 155
47 9 0 13 5 10 10 -8 12 -8 12 -75 -8z"/>
<path d="M3965 9570 c3 -5 8 -10 11 -10 2 0 4 5 4 10 0 6 -5 10 -11 10 -5 0
-7 -4 -4 -10z"/>
<path d="M1630 9546 c0 -2 8 -10 18 -17 15 -13 16 -12 3 4 -13 16 -21 21 -21
13z"/>
<path d="M3990 9541 c0 -6 4 -13 10 -16 6 -3 7 1 4 9 -7 18 -14 21 -14 7z"/>
<path d="M4794 9473 c25 -50 69 -166 117 -308 22 -64 24 -86 23 -250 0 -133
-5 -201 -18 -260 -10 -44 -20 -100 -22 -125 -5 -54 -30 -170 -49 -225 -7 -23
-18 -74 -25 -115 -30 -205 -27 -198 -130 -265 -36 -23 -81 -52 -100 -64 -59
-38 0 -13 82 35 87 51 169 134 219 221 62 108 121 332 134 513 9 121 -3 94
-15 -34 -14 -147 -29 -209 -96 -396 -20 -59 -73 -150 -86 -150 -5 0 -7 12 -4
28 3 15 8 52 11 82 4 30 16 91 27 135 46 182 86 428 95 588 7 131 -7 226 -52
362 -31 92 -104 246 -127 270 -6 6 2 -13 16 -42z"/>
<path d="M1670 9490 c58 -109 147 -225 236 -307 94 -88 152 -136 189 -158 15
-9 15 -14 -4 -58 -12 -27 -21 -52 -21 -55 0 -10 32 38 62 93 76 142 89 167 84
172 -3 3 -9 -3 -12 -13 -18 -49 -75 -124 -93 -124 -52 0 -277 221 -374 368
-62 93 -94 132 -67 82z"/>
<path d="M4020 9495 c0 -4 9 -18 20 -32 11 -14 20 -22 20 -18 0 4 -9 18 -20
32 -11 14 -20 22 -20 18z"/>
<path d="M4885 9440 c-3 -5 -2 -10 4 -10 5 0 13 5 16 10 3 6 2 10 -4 10 -5 0
-13 -4 -16 -10z"/>
<path d="M4148 9308 c80 -119 140 -194 148 -185 3 2 -17 31 -44 63 -27 33 -71
93 -99 134 -28 42 -58 82 -67 89 -8 7 19 -38 62 -101z"/>
<path d="M3040 9250 c0 -5 4 -10 10 -10 5 0 22 -18 37 -41 l27 -41 -34 -29
c-26 -21 -30 -29 -17 -29 9 0 26 9 37 20 27 27 38 25 46 -5 7 -28 -29 -91 -58
-100 -25 -8 -41 -32 -28 -40 6 -4 31 14 56 39 25 25 49 46 54 46 15 0 12 -57
-4 -73 -12 -12 -13 -18 -2 -32 14 -20 20 -17 99 58 45 42 40 49 -9 12 -49 -38
-68 -30 -43 16 8 15 7 24 -2 35 -14 17 6 44 53 72 35 20 36 32 2 32 -16 0 -28
-7 -31 -18 -2 -10 -13 -24 -25 -31 -17 -10 -23 -10 -39 5 -27 24 -24 40 12 54
20 9 27 16 20 23 -7 7 -19 4 -36 -7 -15 -10 -28 -16 -29 -14 -1 2 -13 18 -25
36 -21 31 -71 46 -71 22z"/>
<path d="M4963 9220 c5 -44 17 -49 17 -7 0 21 -4 37 -10 37 -5 0 -8 -14 -7
-30z"/>
<path d="M5420 9202 c0 -23 5 -42 10 -42 7 0 8 14 4 38 -9 51 -14 53 -14 4z"/>
<path d="M5217 9120 c3 -25 10 -49 15 -55 6 -6 7 5 2 30 -10 58 -24 78 -17 25z"/>
<path d="M5446 9085 c5 -67 45 -303 68 -408 20 -86 76 -236 131 -352 44 -92
89 -164 63 -100 -7 17 -24 50 -38 75 -80 142 -157 408 -201 693 -6 40 -15 90
-20 112 -7 33 -7 29 -3 -20z"/>
<path d="M2412 9098 l-22 -11 22 -11 c29 -14 41 -83 13 -72 -9 3 -21 6 -26 6
-5 0 -9 8 -9 18 0 18 -29 52 -43 52 -3 0 1 -17 9 -37 19 -43 21 -151 4 -212
-6 -23 -24 -61 -40 -84 -16 -23 -25 -43 -20 -45 16 -6 70 62 81 103 12 46 35
85 49 85 6 0 10 -29 10 -65 0 -37 -4 -65 -10 -65 -16 0 -11 -26 9 -51 18 -22
20 -22 26 -7 4 10 3 80 -2 155 -5 76 -6 158 -2 183 4 26 3 50 -3 58 -12 14
-16 14 -46 0z m15 -138 c21 0 15 -37 -6 -43 -27 -7 -31 0 -30 47 0 37 1 39 11
19 6 -13 17 -23 25 -23z"/>
<path d="M4320 9080 c24 -34 40 -46 40 -31 0 6 -4 11 -8 11 -5 0 -15 11 -22
25 -7 14 -17 25 -22 25 -5 0 0 -13 12 -30z"/>
<path d="M3310 9070 c38 -32 60 -38 60 -16 0 20 -39 46 -69 46 -25 0 -24 -1 9
-30z"/>
<path d="M2532 9068 c-36 -8 -41 -12 -31 -24 6 -8 19 -13 27 -12 18 3 46 -46
39 -66 -3 -8 -22 -17 -41 -20 -44 -8 -38 -28 7 -24 29 3 32 1 39 -37 4 -22 7
-70 7 -107 1 -71 7 -98 23 -98 8 0 6 182 -2 225 -6 27 5 34 61 40 73 9 68 20
-9 20 l-57 0 -6 43 -5 42 38 6 c21 4 35 10 32 15 -7 11 -66 10 -122 -3z"/>
<path d="M5237 9030 c3 -11 7 -20 9 -20 2 0 4 9 4 20 0 11 -4 20 -9 20 -5 0
-7 -9 -4 -20z"/>
<path d="M6417 8782 c5 -399 4 -368 15 -297 8 50 4 480 -5 537 -10 62 -13 -6
-10 -240z"/>
<path d="M4360 9026 c0 -2 8 -10 18 -17 15 -13 16 -12 3 4 -13 16 -21 21 -21
13z"/>
<path d="M5005 8920 c15 -162 23 -196 18 -70 -3 69 -10 130 -15 135 -6 6 -7
-18 -3 -65z"/>
<path d="M5252 8955 c0 -16 2 -22 5 -12 2 9 2 23 0 30 -3 6 -5 -1 -5 -18z"/>
<path d="M4410 8964 c0 -13 53 -94 61 -94 5 0 9 -17 10 -37 l0 -38 15 45 c7
25 14 46 14 47 0 1 -6 0 -14 -3 -9 -3 -26 12 -46 40 -29 43 -40 54 -40 40z"/>
<path d="M3270 8953 c0 -5 4 -13 9 -18 6 -6 17 -26 25 -47 l16 -36 -41 -40
c-53 -50 -34 -66 20 -17 46 42 51 38 58 -44 5 -54 -1 -80 -34 -143 -2 -5 0 -8
6 -8 5 0 21 21 35 46 30 53 33 104 10 159 -8 20 -13 39 -11 42 3 2 29 -3 58
-11 30 -8 80 -20 112 -26 55 -11 60 -10 103 15 25 15 44 28 42 30 -2 2 -44 -2
-95 -8 -93 -11 -203 2 -203 23 0 5 12 20 26 33 42 40 24 55 -20 17 -39 -35
-47 -33 -70 12 -11 22 -46 38 -46 21z"/>
<path d="M3780 8956 c0 -2 7 -7 16 -10 8 -3 12 -2 9 4 -6 10 -25 14 -25 6z"/>
<path d="M4512 8940 c0 -14 2 -19 5 -12 2 6 2 18 0 25 -3 6 -5 1 -5 -13z"/>
<path d="M3820 8936 c0 -3 9 -10 20 -16 11 -6 20 -8 20 -6 0 3 -9 10 -20 16
-11 6 -20 8 -20 6z"/>
<path d="M3870 8906 c0 -2 15 -11 33 -20 17 -9 42 -24 55 -32 12 -9 22 -14 22
-10 0 4 -21 20 -47 36 -43 28 -63 36 -63 26z"/>
<path d="M2045 8864 c-29 -66 -45 -116 -44 -133 0 -18 16 14 49 102 25 65 20
91 -5 31z"/>
<path d="M5267 8860 c3 -11 7 -20 9 -20 2 0 4 9 4 20 0 11 -4 20 -9 20 -5 0
-7 -9 -4 -20z"/>
<path d="M5287 8765 c3 -33 9 -64 14 -70 9 -9 5 24 -12 95 -6 25 -6 18 -2 -25z"/>
<path d="M3430 8771 c0 -12 39 -25 48 -16 7 7 -17 25 -35 25 -7 0 -13 -4 -13
-9z"/>
<path d="M4465 8765 c-16 -49 -16 -51 0 -31 15 19 20 46 10 46 -3 0 -8 -7 -10
-15z"/>
<path d="M3490 8726 c0 -3 9 -20 19 -38 11 -18 26 -64 35 -103 8 -38 15 -58
15 -42 1 33 13 34 40 5 37 -38 37 -59 2 -88 -17 -15 -31 -30 -31 -33 0 -15 27
-6 52 18 15 14 30 25 33 25 10 0 5 -36 -7 -48 -8 -8 -8 -15 2 -27 13 -16 40
-21 40 -7 0 5 23 33 50 61 41 43 53 51 65 41 18 -15 35 -5 35 21 0 16 -7 19
-52 19 -47 -1 -51 -2 -31 -13 21 -12 21 -13 -18 -41 -21 -17 -39 -33 -39 -38
0 -4 -4 -8 -9 -8 -6 0 -9 17 -9 38 1 32 8 43 58 87 40 35 53 51 42 54 -9 2
-35 -17 -60 -43 -24 -25 -50 -46 -58 -46 -20 0 -17 10 13 42 35 36 21 50 -15
15 -34 -33 -49 -25 -22 11 28 35 25 50 -6 21 -23 -22 -27 -23 -52 -9 -21 12
-27 24 -30 56 l-3 41 48 -12 c26 -7 66 -21 87 -30 22 -9 41 -13 45 -7 3 5 20
16 36 25 30 16 29 16 -46 16 -73 0 -153 15 -173 33 -10 8 -56 11 -56 4z"/>
<path d="M4208 8669 c90 -94 163 -223 228 -403 10 -27 20 -44 22 -38 4 12 -43
138 -77 209 -23 46 -26 69 -11 78 17 11 11 27 -8 21 -19 -6 -22 -4 -116 107
-27 32 -58 63 -69 69 -11 6 3 -14 31 -43z"/>
<path d="M1990 8700 c0 -5 5 -10 11 -10 5 0 7 5 4 10 -3 6 -8 10 -11 10 -2 0
-4 -4 -4 -10z"/>
<path d="M4419 8638 c-13 -35 -26 -67 -28 -72 -2 -5 1 -6 6 -3 13 8 58 126 51
133 -3 2 -16 -24 -29 -58z"/>
<path d="M1971 8637 c-6 -23 -14 -48 -17 -54 -3 -7 -2 -13 3 -13 10 0 42 99
33 105 -3 2 -12 -15 -19 -38z"/>
<path d="M3595 8640 c-3 -5 1 -10 9 -10 9 0 16 5 16 10 0 6 -4 10 -9 10 -6 0
-13 -4 -16 -10z"/>
<path d="M3440 8620 c-6 -11 -21 -20 -33 -20 -22 -1 -22 -1 4 -23 27 -23 129
-169 129 -185 0 -5 9 -17 20 -27 41 -37 17 33 -34 100 -41 53 -45 69 -16 60
27 -9 26 7 -7 66 -28 53 -46 61 -63 29z m52 -42 c20 -23 20 -23 -2 -26 -25 -4
-25 -4 -34 26 -5 14 -3 22 5 22 6 0 20 -10 31 -22z"/>
<path d="M5313 8565 c0 -33 2 -45 4 -27 2 18 2 45 0 60 -2 15 -4 0 -4 -33z"/>
<path d="M1946 8543 c-28 -93 -41 -259 -38 -467 3 -147 13 -91 16 90 2 93 10
219 19 279 14 104 16 139 3 98z"/>
<path d="M5315 8308 c-3 -95 -10 -191 -15 -213 -5 -22 -11 -60 -15 -85 -3 -25
-12 -70 -20 -100 -20 -80 -27 -136 -17 -125 5 6 17 51 26 100 15 81 24 126 28
140 15 57 38 455 26 455 -3 0 -9 -78 -13 -172z"/>
<path d="M6015 8395 c5 -22 11 -62 14 -90 5 -41 10 -50 26 -50 28 -1 45 -13
45 -33 0 -12 -3 -13 -12 -4 -19 19 -28 14 -28 -14 0 -23 -3 -25 -32 -22 l-33
3 0 110 0 110 -35 -3 c-42 -3 -66 -22 -28 -22 19 0 27 -6 32 -25 4 -14 4 -30
1 -35 -9 -15 -25 -12 -25 3 0 8 -8 21 -18 30 -17 15 -18 12 -16 -79 2 -61 -3
-113 -12 -145 -20 -67 -12 -72 17 -11 13 27 32 55 42 61 15 10 17 7 17 -29 0
-29 -4 -40 -15 -40 -19 0 -19 0 2 -40 15 -31 17 -32 30 -14 8 10 13 28 12 39
-4 61 -2 63 54 61 50 -1 52 -2 55 -31 5 -62 13 -95 23 -95 6 0 7 24 3 63 -8
77 0 85 85 89 54 2 60 4 45 15 -21 16 -29 16 -74 3 -51 -15 -72 -5 -68 33 3
33 38 54 38 23 0 -24 19 -19 24 7 3 12 7 52 11 88 5 62 4 67 -16 72 -26 7 -77
-2 -85 -14 -9 -15 -46 -10 -67 9 -19 17 -20 16 -12 -23z m145 -15 c0 -13 -7
-20 -20 -20 -13 0 -20 7 -20 20 0 13 7 20 20 20 13 0 20 -7 20 -20z m-76 -6
c21 -8 20 -20 0 -28 -17 -6 -44 9 -44 25 0 10 21 12 44 3z m74 -56 c-5 -34
-38 -37 -38 -4 0 20 5 26 21 26 15 0 20 -5 17 -22z m-68 -18 c0 -27 -17 -34
-29 -12 -7 13 -7 22 1 30 15 15 28 6 28 -18z m-130 -39 c12 -23 3 -54 -14 -48
-14 5 -21 67 -7 67 6 0 15 -9 21 -19z"/>
<path d="M6410 8373 c-1 -46 -18 -258 -24 -293 -2 -14 -7 -50 -11 -80 -3 -31
-15 -89 -26 -130 -36 -135 -38 -143 -27 -132 23 23 77 271 83 384 4 62 11 140
16 173 12 78 11 115 -1 115 -5 0 -10 -17 -10 -37z"/>
<path d="M3875 8394 c-6 -3 -9 -20 -7 -39 5 -43 -8 -45 -31 -5 -12 20 -26 30
-43 30 -31 0 -30 -11 4 -33 15 -11 35 -37 44 -59 17 -39 17 -42 0 -54 -9 -7
-20 -14 -24 -14 -12 0 -9 -30 3 -30 6 0 31 20 57 45 26 24 65 58 87 75 l40 32
22 -29 c33 -41 51 -102 33 -113 -11 -7 -8 -11 13 -19 16 -6 33 -11 38 -11 17
0 9 36 -21 98 -16 34 -30 68 -30 76 0 12 -28 25 -52 26 -4 0 -28 -20 -55 -45
-68 -63 -95 -56 -57 17 13 25 14 33 2 43 -7 7 -18 11 -23 9z"/>
<path d="M3780 8260 c31 -24 53 -26 48 -2 -2 11 -14 18 -38 20 l-35 3 25 -21z"/>
<path d="M3922 8248 c-7 -7 -12 -18 -12 -25 0 -8 -7 -16 -16 -20 -14 -5 -15
-8 -3 -17 8 -6 20 -23 28 -38 8 -16 20 -28 28 -28 20 0 16 14 -12 42 -22 22
-23 27 -10 44 14 19 14 19 29 -1 10 -14 11 -22 3 -27 -6 -4 -9 -10 -5 -13 7
-7 48 30 48 44 0 5 -9 11 -20 14 -11 3 -20 12 -20 21 0 19 -21 21 -38 4z"/>
<path d="M4460 8201 c0 -6 4 -13 10 -16 6 -3 7 1 4 9 -7 18 -14 21 -14 7z"/>
<path d="M5730 8188 c0 -3 21 -48 46 -98 26 -51 53 -116 61 -144 29 -100 63
-242 70 -291 l7 -50 4 39 c3 37 -20 169 -37 211 -5 11 -19 54 -31 95 -12 41
-38 104 -58 140 -38 70 -62 108 -62 98z"/>
<path d="M3760 8170 c0 -5 16 -14 35 -21 19 -7 35 -17 35 -22 0 -11 53 -77 63
-77 18 0 3 39 -31 76 -34 38 -102 67 -102 44z"/>
<path d="M4487 8130 c5 -25 8 -110 7 -189 -1 -99 2 -137 8 -120 13 32 4 298
-10 329 -10 21 -11 18 -5 -20z"/>
<path d="M4049 8093 c-1 -5 0 -25 1 -47 2 -37 1 -38 -24 -32 -35 9 -33 -6 7
-41 60 -55 80 -82 86 -120 8 -51 29 -52 126 -8 42 19 83 35 90 35 6 0 26 20
44 45 18 25 28 45 22 45 -5 0 -13 -5 -16 -10 -7 -12 -112 -80 -123 -80 -4 0
-15 17 -25 39 -10 21 -30 51 -43 66 -13 15 -24 31 -24 34 0 2 12 18 27 33 l27
28 -26 0 c-20 0 -33 -11 -58 -50 -19 -30 -39 -50 -50 -50 -31 0 -33 20 -6 58
19 27 23 39 14 49 -11 14 -47 18 -49 6z m138 -140 c51 -64 58 -82 36 -98 -10
-8 -30 -19 -45 -24 -30 -11 -28 -13 -32 51 -1 15 -10 36 -20 47 -14 15 -15 23
-6 40 16 30 33 26 67 -16z"/>
<path d="M1922 7940 c0 -25 4 -56 8 -70 8 -24 8 -24 8 5 1 17 -3 48 -7 70 l-9
40 0 -45z"/>
<path d="M3667 7869 c-19 -120 -20 -216 -4 -226 7 -4 8 10 4 40 -4 26 -3 47 2
47 5 0 28 -25 52 -55 24 -30 48 -54 52 -55 5 0 -10 21 -31 48 -68 81 -73 98
-61 196 16 130 6 133 -14 5z"/>
<path d="M3956 7931 c-17 -7 -16 -8 7 -24 27 -18 44 -9 33 18 -6 16 -12 17
-40 6z"/>
<path d="M4035 7819 c34 -34 38 -42 24 -49 -9 -5 -27 -18 -40 -29 l-24 -20 30
-1 c21 0 42 11 68 35 40 37 47 55 20 55 -9 0 -31 11 -49 25 -18 14 -41 25 -50
25 -14 0 -8 -10 21 -41z"/>
<path d="M2970 7809 c11 -39 6 -49 -25 -49 -13 0 -27 -5 -31 -12 -5 -8 7 -10
44 -5 31 4 52 2 52 -3 0 -6 -12 -10 -27 -10 -25 0 -25 -1 -9 -19 9 -10 14 -25
10 -35 -6 -16 11 -23 20 -7 3 4 17 6 32 3 23 -4 25 -9 22 -38 -3 -23 0 -34 9
-34 7 0 13 -4 13 -10 0 -5 7 -10 16 -10 12 0 15 6 10 24 -4 15 0 28 8 35 12
10 15 8 18 -11 2 -14 9 -22 18 -19 50 13 60 13 60 -2 0 -28 27 -40 77 -32 37
6 44 9 28 15 -11 4 -32 6 -46 3 -22 -4 -27 -1 -31 21 -5 23 -1 26 29 32 18 3
36 10 39 15 7 12 -18 11 -49 0 -22 -9 -26 -7 -32 16 -7 31 -5 34 36 42 18 4
34 12 37 19 5 15 -30 16 -45 1 -21 -21 -36 1 -19 27 21 31 20 51 -3 64 -27 14
-28 13 -23 -18 4 -32 -21 -102 -37 -102 -14 0 -14 37 -1 45 17 10 11 29 -17
49 l-26 19 6 -22 c5 -19 -8 -73 -31 -131 -3 -9 -8 -2 -11 19 -7 43 -31 54 -31
15 0 -25 -2 -26 -14 -14 -8 8 -16 26 -18 40 -3 22 2 26 35 34 20 5 37 15 37
23 0 14 -15 16 -44 4 -13 -5 -27 1 -48 21 -39 36 -49 35 -38 -3z m225 -145 c0
-22 -5 -30 -22 -32 -15 -2 -23 2 -23 11 0 9 -3 22 -6 30 -3 10 1 17 13 20 30
8 38 2 38 -29z"/>
<path d="M1937 7810 c3 -11 7 -20 9 -20 2 0 4 9 4 20 0 11 -4 20 -9 20 -5 0
-7 -9 -4 -20z"/>
<path d="M5515 7744 c-8 -76 0 -99 10 -27 4 26 9 55 11 65 3 9 1 19 -4 22 -6
3 -13 -24 -17 -60z"/>
<path d="M5223 7743 c-6 -16 -33 -80 -58 -143 -62 -153 -234 -485 -279 -540
-17 -20 -31 -59 -16 -44 32 32 124 194 217 382 l105 213 26 -23 c21 -18 23
-19 12 -3 -8 11 -19 23 -25 27 -6 5 -1 35 16 83 25 72 26 104 2 48z"/>
<path d="M5580 7765 c0 -3 14 -24 30 -47 36 -50 39 -43 5 12 -23 36 -35 48
-35 35z"/>
<path d="M1950 7726 c0 -8 4 -17 9 -20 5 -4 7 3 4 14 -6 23 -13 26 -13 6z"/>
<path d="M4467 7726 c-4 -10 -7 -25 -6 -34 0 -11 4 -9 10 7 5 13 8 29 6 35 -2
5 -6 2 -10 -8z"/>
<path d="M2939 7716 c-3 -3 -3 -23 -1 -45 3 -27 9 -41 19 -41 11 0 12 8 7 38
-6 37 -16 56 -25 48z"/>
<path d="M6282 7665 c-23 -48 -28 -70 -13 -61 10 6 43 97 38 102 -2 2 -13 -17
-25 -41z"/>
<path d="M4440 7650 c-6 -12 -9 -24 -7 -27 3 -2 11 5 17 17 6 12 9 24 7 27 -3
2 -11 -5 -17 -17z"/>
<path d="M5640 7661 c0 -5 4 -12 9 -15 4 -3 11 -20 15 -37 3 -18 8 -30 11 -28
7 7 -14 77 -25 84 -6 4 -10 2 -10 -4z"/>
<path d="M5502 7640 c0 -14 2 -19 5 -12 2 6 2 18 0 25 -3 6 -5 1 -5 -13z"/>
<path d="M3000 7633 c1 -18 18 -35 24 -24 4 6 4 16 1 21 -7 12 -25 13 -25 3z"/>
<path d="M984 7601 c3 -5 16 -11 28 -14 22 -6 22 -5 4 8 -22 17 -40 20 -32 6z"/>
<path d="M5491 7594 c0 -11 3 -14 6 -6 3 7 2 16 -1 19 -3 4 -6 -2 -5 -13z"/>
<path d="M1982 7585 c0 -11 4 -31 8 -45 6 -20 8 -21 8 -5 0 11 -4 31 -8 45 -6
20 -8 21 -8 5z"/>
<path d="M2935 7584 c4 -11 11 -43 16 -73 10 -71 34 -97 25 -27 -3 27 -6 59
-6 72 0 14 -9 28 -22 35 -19 10 -20 9 -13 -7z"/>
<path d="M3825 7572 c38 -42 153 -98 225 -110 30 -4 80 -5 110 -1 54 6 53 6
-25 8 -88 2 -177 26 -237 66 -21 14 -41 25 -45 25 -4 0 -18 10 -32 22 -20 18
-19 15 4 -10z"/>
<path d="M4399 7583 c-13 -16 -12 -17 4 -4 9 7 17 15 17 17 0 8 -8 3 -21 -13z"/>
<path d="M2980 7580 c0 -5 4 -10 9 -10 5 0 11 -12 13 -27 2 -21 9 -29 27 -31
31 -5 50 13 32 31 -11 10 -14 10 -18 0 -8 -23 -25 -13 -21 11 3 16 0 27 -9 30
-22 9 -33 7 -33 -4z"/>
<path d="M6213 7520 c-42 -79 -94 -155 -146 -209 -18 -20 -41 -48 -50 -62 -16
-24 -87 -69 -109 -69 -11 0 -8 40 11 150 5 30 9 93 8 140 0 52 -2 64 -4 30 -7
-137 -37 -314 -74 -439 -23 -76 -26 -123 -5 -75 8 17 17 46 20 65 20 102 28
119 55 119 24 0 46 13 104 63 11 9 23 17 27 17 14 0 31 -55 37 -117 3 -34 10
-63 14 -63 15 0 10 63 -10 141 l-20 74 21 22 c12 13 26 23 31 23 11 0 46 -41
47 -55 0 -5 13 -25 29 -43 17 -21 33 -56 41 -90 7 -32 21 -77 31 -102 l18 -45
1 43 c0 23 -4 42 -10 42 -5 0 -10 15 -10 34 0 33 -37 98 -116 201 l-23 31 23
39 c53 91 107 197 102 202 -2 3 -22 -27 -43 -67z"/>
<path d="M6290 7572 c0 -10 4 -22 9 -27 5 -6 17 -46 26 -89 21 -96 15 -224
-14 -265 -28 -41 -33 -51 -24 -51 14 0 43 56 56 107 20 79 14 169 -17 261 -28
83 -36 97 -36 64z"/>
<path d="M1040 7575 c0 -2 16 -12 35 -21 40 -19 186 -169 245 -252 23 -31 63
-88 90 -125 27 -38 81 -122 120 -188 40 -66 74 -118 77 -115 9 8 -151 276
-169 284 -5 2 -8 8 -8 14 0 16 -113 166 -190 253 -79 88 -200 179 -200 150z"/>
<path d="M3080 7525 c0 -32 -5 -47 -15 -52 -14 -5 -14 -8 1 -24 27 -30 44 -7
44 62 0 46 -3 59 -15 59 -11 0 -15 -12 -15 -45z"/>
<path d="M3141 7531 c1 -20 4 -47 8 -61 11 -41 22 -6 12 39 -10 45 -7 49 29
46 34 -2 43 -54 11 -62 -11 -3 -19 -9 -16 -13 3 -5 26 -2 51 6 25 7 61 15 80
16 19 1 34 5 34 9 0 13 -32 19 -71 13 -35 -6 -39 -4 -39 15 0 23 2 23 -57 25
l-43 2 1 -35z"/>
<path d="M5480 7558 c0 -7 -3 -24 -7 -38 -9 -36 6 -19 17 19 5 19 5 31 -1 31
-5 0 -9 -6 -9 -12z"/>
<path d="M3671 7545 c0 -11 6 -51 15 -90 8 -38 20 -99 25 -134 6 -35 17 -77
24 -93 12 -29 12 -30 18 -7 3 13 1 29 -5 36 -6 7 -12 23 -14 36 -4 25 -42 196
-54 242 -5 20 -8 23 -9 10z"/>
<path d="M4359 7541 c-13 -10 -39 -26 -56 -35 -18 -9 -33 -23 -33 -32 0 -10
20 0 60 31 54 41 68 55 56 55 -2 0 -14 -8 -27 -19z"/>
<path d="M5694 7500 c2 -14 8 -67 12 -118 3 -51 11 -95 15 -98 12 -7 11 12 -2
121 -6 50 -15 97 -21 105 -7 11 -8 9 -4 -10z"/>
<path d="M2001 7500 c0 -8 4 -22 9 -30 12 -18 12 -2 0 25 -6 13 -9 15 -9 5z"/>
<path d="M5456 7478 c-2 -7 -14 -41 -26 -75 -21 -59 -32 -74 -43 -55 -2 4 -2
2 -1 -5 1 -6 -6 -28 -17 -49 -25 -50 -25 -78 1 -36 11 17 22 32 25 32 3 0 13
-17 22 -37 9 -21 18 -33 20 -26 2 6 -4 28 -14 50 l-19 38 29 60 c42 86 48 103
37 110 -6 4 -12 0 -14 -7z"/>
<path d="M5331 7443 c7 -12 15 -20 18 -17 3 2 -3 12 -13 22 -17 16 -18 16 -5
-5z"/>
<path d="M1530 7415 c0 -6 39 -75 56 -100 25 -36 14 -1 -16 53 -27 46 -40 62
-40 47z"/>
<path d="M2020 7401 c0 -6 4 -13 10 -16 6 -3 7 1 4 9 -7 18 -14 21 -14 7z"/>
<path d="M4279 7370 c-6 -45 -4 -58 7 -48 3 3 4 26 2 49 l-3 44 -6 -45z"/>
<path d="M3118 7394 c-4 -3 -3 -18 1 -32 3 -15 6 -34 5 -42 -1 -8 -2 -22 -3
-31 -1 -12 -19 -20 -61 -30 -33 -7 -60 -16 -60 -20 0 -11 37 -17 51 -8 21 13
69 11 69 -3 0 -13 -18 -71 -33 -108 -6 -14 -34 -49 -61 -77 -51 -53 -53 -62
-13 -42 63 32 127 141 127 216 0 18 4 33 10 33 5 0 53 -41 105 -91 83 -79 99
-90 123 -85 15 3 47 8 72 12 25 3 46 7 48 8 1 2 -30 11 -70 21 -82 19 -161 55
-198 89 -14 13 -35 29 -47 35 -13 6 -23 15 -23 20 0 11 79 41 108 41 13 0 22
6 22 15 0 8 -6 15 -14 15 -20 0 -80 -22 -87 -32 -3 -5 -13 -6 -22 -3 -11 5
-14 15 -10 41 7 42 -19 79 -39 58z"/>
<path d="M2044 7324 c15 -54 34 -104 35 -91 2 16 -31 122 -40 131 -4 5 -2 -13
5 -40z"/>
<path d="M4465 7359 c-22 -5 -50 -11 -63 -14 -26 -6 -20 -25 9 -25 12 0 19 -7
19 -20 0 -31 -48 -27 -60 4 -10 27 -28 42 -38 32 -3 -4 -1 -16 6 -26 6 -11 14
-41 18 -67 3 -26 7 -49 9 -52 2 -2 16 -1 30 3 28 7 34 25 8 22 -11 0 -19 7
-21 21 -3 23 0 25 80 38 44 7 61 25 24 25 -34 0 -34 28 -1 36 32 8 33 7 35
-36 4 -65 2 -68 -32 -66 -17 1 -33 7 -36 14 -6 20 -22 3 -22 -25 0 -26 12 -27
65 -7 13 5 16 2 13 -17 -3 -21 -10 -25 -63 -32 l-60 -8 0 -100 c0 -97 9 -127
21 -71 11 49 13 52 49 52 19 0 35 5 35 11 0 7 -11 9 -27 6 -33 -6 -53 1 -53
18 0 8 14 15 32 17 17 2 33 9 36 17 3 10 -3 12 -26 6 -18 -3 -33 -2 -37 4 -7
13 35 31 70 31 20 0 23 -6 26 -44 2 -24 2 -67 0 -96 -3 -45 -6 -51 -22 -47
-15 4 -17 2 -10 -11 50 -91 64 -67 67 115 3 206 3 204 13 240 7 25 6 35 -8 47
-19 18 -28 18 -86 5z"/>
<path d="M1610 7275 c0 -9 101 -165 107 -165 3 0 -6 17 -18 38 -37 60 -89 135
-89 127z"/>
<path d="M5717 7256 c-4 -10 -3 -24 2 -30 10 -11 -16 -291 -38 -416 -10 -58
-54 -258 -67 -300 -4 -17 -3 -22 3 -15 12 12 38 93 47 147 4 21 13 41 21 46
17 9 105 141 105 157 0 6 9 27 20 48 21 39 25 57 12 57 -4 0 -15 -23 -25 -50
-23 -65 -96 -182 -109 -174 -5 3 -6 13 -3 23 23 54 61 436 48 487 -7 31 -10
35 -16 20z"/>
<path d="M1810 7241 c0 -5 4 -12 9 -15 5 -4 26 -35 45 -71 20 -35 42 -67 48
-71 7 -4 2 10 -12 32 -13 21 -34 58 -47 81 -25 44 -43 62 -43 44z"/>
<path d="M4230 7205 c-12 -19 -47 -53 -77 -75 -50 -36 -62 -40 -115 -40 -60 0
-120 22 -163 60 -11 9 -33 26 -50 36 l-30 18 20 -23 c30 -35 145 -98 191 -106
23 -3 57 -3 76 0 47 9 125 70 155 123 30 51 24 57 -7 7z"/>
<path d="M3765 7220 c3 -5 11 -10 16 -10 6 0 7 5 4 10 -3 6 -11 10 -16 10 -6
0 -7 -4 -4 -10z"/>
<path d="M2090 7193 c13 -44 26 -75 91 -216 63 -136 98 -201 105 -194 4 4 -70
162 -112 239 -21 40 -74 171 -74 186 0 6 -4 12 -9 12 -6 0 -6 -11 -1 -27z"/>
<path d="M5316 7182 c-9 -11 -31 -39 -49 -64 -17 -25 -58 -67 -89 -92 -64 -52
-72 -64 -29 -41 31 16 191 188 191 205 0 14 -5 13 -24 -8z"/>
<path d="M5440 7167 c0 -20 5 -39 11 -42 7 -5 8 5 3 32 -9 51 -14 54 -14 10z"/>
<path d="M3751 7175 c0 -11 4 -29 9 -40 l9 -20 0 20 c0 11 -4 29 -9 40 l-9 20
0 -20z"/>
<path d="M3150 7145 c0 -2 8 -18 19 -35 15 -25 20 -28 25 -15 8 22 9 21 -19
39 -14 9 -25 14 -25 11z"/>
<path d="M3776 7070 c7 -47 23 -90 24 -60 0 8 -7 35 -15 60 l-15 45 6 -45z"/>
<path d="M5453 6966 c1 -94 4 -138 9 -120 12 41 11 231 -1 251 -6 12 -9 -29
-8 -131z"/>
<path d="M1726 7087 c3 -10 9 -15 12 -12 3 3 0 11 -7 18 -10 9 -11 8 -5 -6z"/>
<path d="M6102 7035 c0 -16 2 -22 5 -12 2 9 2 23 0 30 -3 6 -5 -1 -5 -18z"/>
<path d="M1940 7041 c0 -6 4 -13 10 -16 6 -3 7 1 4 9 -7 18 -14 21 -14 7z"/>
<path d="M3255 7035 c-45 -13 -45 -30 -1 -30 39 0 43 -18 9 -34 -25 -11 -29
-10 -46 10 -9 12 -20 19 -24 16 -6 -6 11 -82 27 -124 8 -19 6 -22 -23 -25 -32
-3 -37 -24 -4 -22 25 1 21 -12 -19 -67 -37 -51 -34 -66 7 -25 26 25 69 43 69
29 0 -5 -20 -30 -45 -55 -25 -26 -45 -49 -45 -52 0 -14 76 49 102 84 22 30 38
41 66 45 20 3 47 8 58 10 31 7 35 -22 12 -84 -18 -48 -22 -52 -45 -47 -23 6
-23 5 -11 -16 7 -13 11 -26 10 -30 -3 -13 6 -9 28 9 11 10 20 23 20 29 0 7 4
14 10 16 5 2 19 30 31 62 18 52 18 61 6 74 -13 13 -26 12 -104 -2 -48 -10 -97
-20 -108 -22 -14 -4 -16 -3 -7 4 8 5 12 17 10 27 -2 16 11 23 77 42 44 12 95
24 112 25 18 2 33 6 33 10 0 15 -57 17 -95 4 l-40 -14 -5 81 c-3 44 -9 81 -15
83 -5 1 -28 -4 -50 -11z m39 -83 c9 -15 -10 -32 -42 -38 -28 -6 -31 -4 -26 11
9 23 58 43 68 27z m3 -68 c6 -17 -48 -28 -58 -12 -5 7 -3 16 4 20 16 11 50 6
54 -8z"/>
<path d="M4834 6977 c-26 -31 -132 -189 -140 -210 -12 -33 5 -17 41 38 21 30
40 55 45 55 4 0 10 8 13 18 3 9 19 41 36 70 34 56 35 65 5 29z"/>
<path d="M6100 6970 c0 -32 -8 -69 -26 -129 -4 -15 -3 -22 3 -18 5 3 15 32 22
64 19 87 19 90 10 104 -6 10 -9 3 -9 -21z"/>
<path d="M3802 6970 c0 -14 2 -19 5 -12 2 6 2 18 0 25 -3 6 -5 1 -5 -13z"/>
<path d="M6320 6975 c7 -8 20 -15 29 -15 25 0 112 -91 143 -151 15 -30 28 -48
28 -41 0 21 -38 89 -73 128 -45 53 -168 128 -127 79z"/>
<path d="M1835 6939 c22 -22 56 -49 76 -59 57 -30 199 -58 199 -39 0 5 -6 9
-12 9 -7 0 -22 13 -33 29 -21 33 -33 34 -16 2 15 -27 4 -31 -54 -19 -56 12
-90 31 -145 81 -53 50 -64 47 -15 -4z"/>
<path d="M1995 6960 c10 -11 20 -20 22 -20 2 0 -2 9 -9 20 -7 11 -17 20 -22
20 -5 0 -1 -9 9 -20z"/>
<path d="M3103 6962 c-39 -19 -43 -36 -7 -29 21 4 26 0 31 -24 3 -16 9 -27 13
-24 8 5 8 80 0 88 -3 3 -20 -2 -37 -11z"/>
<path d="M5040 6939 c-41 -22 -47 -28 -25 -24 28 6 95 42 95 51 0 9 -17 2 -70
-27z"/>
<path d="M6291 6940 c-1 -19 -10 -65 -20 -102 -9 -38 -14 -68 -10 -68 10 0 16
20 29 102 7 36 10 75 7 85 -3 10 -5 2 -6 -17z"/>
<path d="M3811 6920 c0 -14 6 -43 14 -65 18 -52 19 -14 1 45 -11 32 -15 38
-15 20z"/>
<path d="M3060 6911 c0 -21 13 -41 26 -41 17 0 18 22 2 38 -14 14 -28 16 -28
3z"/>
<path d="M4875 6900 c-8 -13 75 -13 95 0 11 7 0 10 -37 10 -28 0 -55 -4 -58
-10z"/>
<path d="M3130 6855 c0 -9 5 -15 11 -13 6 2 11 8 11 13 0 5 -5 11 -11 13 -6 2
-11 -4 -11 -13z"/>
<path d="M3075 6850 c4 -6 10 -59 13 -118 4 -63 11 -106 17 -104 10 2 12 51 5
152 -4 68 -8 80 -27 80 -8 0 -11 -5 -8 -10z"/>
<path d="M3945 6770 c21 -22 41 -37 44 -35 5 5 -67 75 -77 75 -3 0 11 -18 33
-40z"/>
<path d="M5445 6799 c-4 -6 -5 -12 -2 -15 2 -3 7 2 10 11 7 17 1 20 -8 4z"/>
<path d="M6022 6752 c-23 -33 -64 -74 -91 -93 -67 -45 -65 -58 2 -15 28 18 65
51 80 72 55 78 60 85 55 89 -3 3 -23 -21 -46 -53z"/>
<path d="M1680 6755 c17 -24 55 -72 85 -107 30 -35 55 -66 55 -70 0 -13 -41
-9 -90 8 -63 21 -158 88 -205 145 -22 26 -44 48 -49 48 -7 1 51 -77 79 -104
19 -19 126 -86 153 -96 24 -9 166 -39 186 -39 5 0 -9 13 -30 29 -44 32 -78 68
-153 164 -60 76 -77 88 -31 22z"/>
<path d="M3847 6751 c3 -30 11 -73 18 -95 l13 -41 -6 55 c-3 30 -11 73 -18 95
l-13 40 6 -54z"/>
<path d="M3323 6735 c-27 -41 -28 -45 -9 -45 16 0 46 42 46 65 0 24 -13 17
-37 -20z"/>
<path d="M5417 6688 c-15 -46 -27 -90 -27 -99 0 -30 -52 -165 -110 -284 -106
-220 -200 -356 -352 -509 -43 -43 -77 -81 -75 -83 2 -2 51 43 108 99 66 66
130 141 175 208 63 94 148 237 149 250 0 3 14 32 31 65 17 33 41 92 53 130 12
39 26 84 32 100 29 83 56 205 46 205 -2 0 -16 -37 -30 -82z"/>
<path d="M2255 6745 c-65 -20 -198 -91 -224 -119 -31 -33 -20 -34 22 -2 56 42
151 94 197 107 25 7 81 15 125 19 l80 7 -80 0 c-44 1 -98 -5 -120 -12z"/>
<path d="M2475 6752 c6 -6 27 -15 47 -20 80 -22 158 -89 271 -234 18 -22 18
-22 0 12 -31 58 -162 184 -223 213 -65 30 -110 44 -95 29z"/>
<path d="M6240 6748 c0 -7 -3 -24 -6 -38 -5 -17 -4 -22 4 -15 16 15 26 65 13
65 -6 0 -11 -6 -11 -12z"/>
<path d="M4663 6718 c-14 -19 -44 -101 -38 -106 2 -2 16 22 30 53 24 56 28 79
8 53z"/>
<path d="M4000 6711 c0 -5 7 -15 17 -22 15 -13 15 -12 4 9 -12 23 -21 28 -21
13z"/>
<path d="M3244 6649 c-16 -17 -42 -40 -59 -50 -39 -25 -10 -25 38 0 38 19 87
60 87 74 0 18 -39 4 -66 -24z"/>
<path d="M6210 6659 c-7 -11 -10 -23 -7 -25 2 -2 9 7 15 21 14 30 7 33 -8 4z"/>
<path d="M6530 6608 c0 -24 -5 -60 -11 -81 -12 -45 -4 -62 11 -23 15 39 22
146 10 146 -5 0 -10 -19 -10 -42z"/>
<path d="M4078 6610 c69 -121 112 -219 118 -273 4 -32 11 -60 15 -63 38 -23
-46 244 -96 304 -7 9 -24 28 -35 42 l-22 25 20 -35z"/>
<path d="M5823 6603 c-7 -2 -13 -8 -13 -13 0 -10 38 -1 46 11 6 10 -13 11 -33
2z"/>
<path d="M4601 6568 c-5 -18 -19 -62 -30 -97 -11 -35 -16 -60 -12 -55 13 13
64 174 58 181 -3 2 -10 -10 -16 -29z"/>
<path d="M6152 6581 c-22 -19 -28 -31 -14 -31 7 1 46 50 39 50 -2 0 -14 -8
-25 -19z"/>
<path d="M1975 6556 c-31 -40 -82 -144 -90 -183 -4 -15 11 9 33 54 21 45 51
100 66 123 32 49 27 53 -9 6z"/>
<path d="M3881 6525 c0 -27 4 -57 9 -65 8 -12 10 -10 9 10 0 14 -4 43 -8 65
l-9 40 -1 -50z"/>
<path d="M3300 6540 c-166 -41 -209 -54 -203 -62 6 -11 72 -1 89 13 5 4 26 10
45 13 19 2 45 9 59 14 14 6 51 14 83 17 31 4 55 11 52 16 -8 12 -37 10 -125
-11z"/>
<path d="M6108 6533 c7 -3 16 -2 19 1 4 3 -2 6 -13 5 -11 0 -14 -3 -6 -6z"/>
<path d="M6072 6513 c-32 -13 -115 -74 -92 -68 14 4 29 11 35 16 13 12 45 11
45 -2 0 -6 -10 -33 -21 -60 -12 -27 -19 -52 -17 -55 6 -5 52 87 63 126 4 14
12 31 17 38 11 13 -4 16 -30 5z"/>
<path d="M3285 6480 c-9 -17 -20 -28 -25 -25 -6 4 -10 -5 -10 -18 0 -17 -19
-41 -66 -83 -37 -32 -72 -62 -78 -66 -6 -4 -7 -10 -3 -14 8 -8 73 35 130 88
47 43 47 42 62 -44 3 -21 10 -38 15 -38 13 0 12 41 -1 97 -7 26 -8 48 -3 52 9
6 12 15 22 59 7 34 -24 28 -43 -8z"/>
<path d="M5586 6428 c-8 -24 -34 -97 -56 -163 -45 -131 -65 -169 -134 -260
-25 -33 -46 -65 -46 -72 0 -6 -8 -18 -18 -25 -9 -7 -41 -44 -69 -83 -49 -66
-195 -215 -293 -298 l-45 -38 46 30 c47 30 134 107 219 191 25 25 79 90 120
145 l75 100 105 17 c130 22 255 61 295 94 30 24 29 32 -3 14 -101 -56 -340
-117 -356 -91 -7 10 26 78 60 122 20 26 129 348 121 356 -3 2 -12 -15 -21 -39z"/>
<path d="M6497 6463 c-4 -3 -7 -11 -7 -17 0 -6 5 -5 12 2 6 6 9 14 7 17 -3 3
-9 2 -12 -2z"/>
<path d="M2847 6396 c16 -30 30 -52 32 -50 7 6 -41 104 -51 104 -5 0 4 -24 19
-54z"/>
<path d="M3340 6431 c0 -3 26 -17 58 -30 31 -12 67 -28 80 -34 16 -8 25 -8 33
0 15 15 3 32 -29 44 -32 12 -142 28 -142 20z"/>
<path d="M3892 6410 c0 -19 2 -27 5 -17 2 9 2 25 0 35 -3 9 -5 1 -5 -18z"/>
<path d="M6641 6417 c46 -39 138 -168 154 -217 9 -27 20 -77 24 -112 l8 -63 2
56 c2 103 -75 271 -149 325 -50 37 -79 46 -39 11z"/>
<path d="M4541 6364 c0 -11 3 -14 6 -6 3 7 2 16 -1 19 -3 4 -6 -2 -5 -13z"/>
<path d="M1866 6332 c-3 -5 -8 -27 -11 -48 -3 -21 -10 -57 -16 -79 -5 -22 -15
-58 -20 -80 -12 -49 -45 -121 -59 -130 -5 -3 -10 -15 -10 -26 0 -10 -5 -19
-11 -19 -6 0 -33 -24 -60 -54 -40 -44 -106 -92 -199 -146 -44 -25 -189 -90
-201 -90 -8 0 -32 32 -54 71 -61 109 -155 192 -300 265 -66 34 -144 67 -172
74 -48 12 -53 16 -53 41 0 15 -4 30 -8 33 -15 9 -27 -275 -25 -569 3 -419 13
-964 19 -1015 14 -126 16 -233 3 -241 -9 -5 -10 -11 -2 -21 6 -7 14 -29 18
-48 4 -19 10 -39 13 -44 3 -5 6 -22 7 -38 3 -27 13 -103 51 -363 13 -90 19
-140 29 -230 7 -65 33 -176 44 -189 7 -8 13 -30 14 -50 2 -19 6 -38 10 -42 3
-4 4 -18 1 -30 -4 -13 -2 -24 3 -24 5 0 10 -30 11 -67 1 -45 7 -72 16 -78 10
-8 11 -16 5 -28 -6 -9 -6 -17 -2 -17 5 0 17 -14 27 -31 11 -18 14 -29 7 -25
-14 9 -14 -7 1 -22 6 -6 12 -24 14 -39 1 -15 10 -64 19 -108 10 -44 19 -96 22
-115 2 -19 11 -51 19 -70 9 -19 19 -44 24 -55 11 -27 21 -75 21 -102 -1 -13 3
-23 9 -23 13 0 29 -63 23 -93 -3 -13 0 -28 6 -31 6 -4 11 -16 11 -26 0 -10 7
-23 16 -28 16 -9 43 -74 44 -105 0 -20 20 -68 80 -192 58 -121 130 -276 130
-281 0 -8 142 -236 159 -254 9 -10 31 -40 49 -67 170 -250 284 -381 440 -505
19 -15 59 -50 89 -78 30 -28 71 -59 91 -69 20 -10 58 -37 84 -60 25 -23 49
-41 54 -41 4 0 21 -10 38 -23 17 -13 58 -38 91 -56 33 -18 64 -37 69 -42 6 -5
16 -9 23 -9 25 0 13 16 -29 38 -109 56 -189 109 -353 231 -140 105 -386 332
-366 339 18 6 12 22 -8 22 -11 0 -37 21 -58 48 -63 76 -164 222 -159 230 17
27 300 -31 384 -79 17 -10 32 -15 32 -11 0 13 -125 73 -175 83 -27 6 -97 16
-155 22 -73 7 -109 15 -118 26 -52 64 -212 340 -212 367 0 12 206 -4 273 -22
142 -36 308 -112 347 -158 7 -9 18 -16 24 -16 7 0 27 -13 46 -30 19 -16 39
-29 44 -30 5 0 27 -15 50 -33 94 -77 319 -207 355 -207 9 1 -24 21 -74 46 -93
47 -149 83 -301 195 -140 104 -241 162 -359 204 -38 14 -79 30 -90 35 -31 14
-177 40 -226 40 -99 0 -108 7 -172 138 -31 66 -57 127 -57 136 0 9 -6 29 -14
44 -8 15 -18 44 -24 64 l-10 37 76 0 c172 0 379 -57 487 -134 17 -11 63 -40
103 -64 40 -24 94 -63 120 -86 80 -71 234 -176 307 -210 128 -60 208 -78 308
-71 l88 6 -4 -58 c-3 -31 -2 -46 0 -32 2 14 29 124 59 245 56 227 83 315 115
375 10 19 38 78 63 130 25 52 55 111 66 130 l22 35 -31 -34 c-34 -38 -30 -39
-106 28 -35 32 -37 33 -15 6 14 -16 37 -41 52 -55 l26 -25 -17 -50 c-24 -69
-49 -115 -62 -115 -6 0 -9 -6 -6 -13 3 -8 -3 -32 -13 -54 -40 -89 -98 -289
-115 -393 -4 -25 -13 -60 -21 -77 l-13 -33 -104 0 c-150 0 -295 47 -396 129
-25 20 -63 50 -86 66 -118 85 -142 103 -183 138 -163 139 -359 213 -594 224
l-126 6 -12 45 c-6 25 -18 61 -27 81 -9 20 -31 80 -49 134 l-32 98 61 -6 c45
-5 58 -4 47 4 -8 6 -31 11 -51 11 -19 0 -43 6 -52 13 -34 25 -94 340 -67 357
10 6 9 10 -4 17 -17 9 -57 148 -82 283 -7 41 -16 86 -20 99 l-7 24 71 -6 c157
-13 421 -114 627 -240 81 -50 176 -131 266 -228 130 -139 141 -152 214 -259
32 -47 70 -99 84 -117 14 -18 35 -43 46 -57 11 -14 24 -26 28 -26 4 0 -11 25
-35 55 -24 30 -60 78 -81 107 -20 29 -60 85 -87 123 -94 132 -150 191 -306
325 -163 140 -435 266 -699 325 -38 8 -82 15 -96 15 -35 0 -43 12 -62 100 -18
81 -42 319 -33 328 13 12 173 -30 241 -64 76 -38 234 -151 307 -220 42 -40 99
-90 172 -149 75 -60 280 -181 338 -199 10 -3 20 -20 24 -43 8 -44 58 -162 90
-213 75 -118 161 -168 323 -186 68 -8 118 -19 123 -26 4 -7 8 -27 8 -45 0 -17
4 -35 10 -38 6 -4 7 11 3 40 -7 56 -2 61 81 70 34 4 78 14 99 22 21 9 40 13
43 10 3 -3 10 -25 15 -49 5 -24 13 -52 18 -63 5 -11 16 -38 26 -61 9 -22 28
-54 41 -70 21 -25 20 -20 -9 41 -45 91 -69 167 -65 201 2 22 11 29 43 39 22 7
56 20 76 28 l37 16 22 -62 c33 -89 43 -93 19 -8 -23 80 -20 90 33 117 15 8 28
19 28 25 0 6 -15 1 -32 -10 -42 -27 -195 -101 -211 -101 -7 0 -32 -10 -57 -21
-103 -48 -238 -61 -397 -38 -157 23 -261 118 -324 295 -17 49 -21 84 -23 204
-1 127 2 154 22 217 13 40 23 75 23 78 -3 14 62 125 96 166 39 47 156 156 259
244 58 49 102 92 196 191 74 79 231 189 406 284 61 34 112 63 112 66 0 6 -71
-28 -102 -48 -25 -17 -48 -23 -48 -14 0 6 41 77 55 96 6 8 16 27 23 42 9 23 9
26 -3 21 -8 -3 -15 -9 -15 -15 0 -24 -97 -147 -143 -181 -29 -22 -54 -42 -57
-46 -10 -12 -56 -29 -126 -44 -64 -14 -77 -14 -130 -1 -147 38 -288 146 -346
264 -37 75 -77 235 -88 350 -9 92 -31 187 -62 261 -18 41 -98 160 -137 203
-35 38 -120 86 -151 85 -25 -1 -25 -1 3 -9 91 -28 211 -156 260 -280 26 -65
47 -145 67 -260 42 -236 52 -275 87 -348 80 -170 269 -292 450 -292 29 0 53
-1 53 -3 0 -9 -248 -251 -314 -307 -279 -235 -329 -295 -386 -470 -27 -80 -34
-125 -34 -215 -1 -93 -8 -99 -78 -66 -67 32 -284 187 -394 281 -286 246 -373
296 -569 325 -35 6 -46 12 -50 29 -14 66 -26 149 -31 232 -7 92 -6 94 15 94
12 0 38 -7 58 -15 19 -8 44 -15 54 -15 27 0 143 -56 222 -108 108 -71 274
-232 444 -433 91 -106 91 -89 1 24 -46 56 -148 167 -228 246 -188 188 -299
259 -460 296 -115 27 -116 28 -125 77 -13 75 -32 273 -27 281 14 27 168 -31
277 -105 70 -47 315 -281 428 -408 88 -99 200 -175 336 -226 65 -24 171 -33
171 -14 0 6 9 10 19 10 27 0 37 19 14 26 -10 3 -51 22 -92 42 -118 59 -209
138 -315 275 -51 67 -106 136 -121 152 -14 17 -34 41 -43 55 -68 102 -227 273
-264 286 -10 3 -18 9 -18 14 0 14 -160 97 -220 113 -30 9 -81 21 -112 27 -32
6 -60 14 -62 18 -2 4 -6 36 -7 72 -3 60 -1 69 30 114 32 47 35 48 73 42 122
-20 321 -127 403 -217 19 -21 39 -39 44 -39 6 0 36 -30 67 -67 115 -136 269
-305 243 -268 -8 11 -16 22 -19 25 -3 3 -49 57 -101 120 -95 114 -235 257
-315 322 -76 61 -192 118 -276 137 -32 7 -58 16 -58 20 0 18 172 161 194 161
29 0 139 -87 262 -207 96 -94 163 -172 252 -293 190 -259 231 -310 247 -310 4
0 -12 22 -36 48 -24 27 -80 101 -124 166 -67 99 -173 237 -195 256 -3 3 -16
19 -28 35 -44 58 -198 207 -269 261 -40 30 -75 58 -78 63 -3 5 7 18 22 29 35
25 149 82 163 82 6 0 26 -25 46 -56 20 -31 38 -53 41 -50 4 3 -1 14 -9 23 -9
10 -25 34 -36 54 l-20 37 21 19 c26 23 150 65 170 57 7 -2 22 5 33 17 l19 22
-41 -5 c-22 -3 -70 -19 -105 -35 -35 -17 -93 -44 -129 -60 -101 -47 -152 -72
-192 -95 -42 -24 -273 -245 -280 -268 -16 -47 -23 28 -23 228 l0 226 110 -2
c70 0 132 5 170 14 33 9 89 22 125 29 193 40 470 186 593 312 86 88 108 127
139 243 43 160 56 238 34 202z m-1062 -307 c77 -25 185 -77 240 -114 63 -42
136 -126 170 -191 32 -63 33 -69 18 -83 -21 -17 -45 -26 -100 -37 -43 -8 -45
-7 -84 36 -46 50 -65 52 -24 4 32 -38 32 -48 4 -59 -69 -26 -106 -31 -216 -31
l-122 0 0 129 0 129 68 -14 c75 -16 157 -53 202 -91 17 -14 30 -20 30 -14 0
30 -185 120 -275 133 -18 3 -20 12 -21 96 -2 104 2 132 21 132 7 0 47 -11 89
-25z m37 -1209 c106 -33 297 -144 326 -189 5 -7 28 -30 53 -52 25 -21 67 -71
94 -110 27 -38 65 -88 86 -110 20 -22 64 -76 97 -120 79 -106 191 -215 278
-272 136 -89 145 -96 139 -104 -7 -12 -74 -11 -115 2 -55 17 -179 80 -249 125
-67 43 -121 96 -205 199 -60 75 -181 192 -306 299 -82 68 -109 85 -170 105
-41 12 -84 27 -97 32 -13 5 -31 9 -41 9 -11 0 -22 7 -25 16 -8 21 -8 169 1
177 11 12 88 8 134 -7z"/>
<path d="M2882 6319 c27 -67 62 -139 65 -135 7 7 -20 79 -34 94 -7 7 -13 20
-13 27 0 8 -5 17 -12 21 -7 5 -9 2 -6 -7z"/>
<path d="M3898 6212 c2 -64 6 -119 8 -121 2 -2 4 48 4 112 0 64 -4 118 -9 121
-4 3 -6 -47 -3 -112z"/>
<path d="M6000 6314 c0 -8 5 -12 10 -9 6 3 10 10 10 16 0 5 -4 9 -10 9 -5 0
-10 -7 -10 -16z"/>
<path d="M5980 6279 c0 -5 5 -7 10 -4 6 3 10 8 10 11 0 2 -4 4 -10 4 -5 0 -10
-5 -10 -11z"/>
<path d="M1205 6245 c22 -36 75 -92 57 -60 -7 11 -26 36 -44 55 -29 33 -30 33
-13 5z"/>
<path d="M3340 6252 c0 -12 5 -24 10 -27 20 -12 9 -34 -20 -40 -16 -4 -30 -11
-30 -17 0 -5 12 -7 29 -3 18 4 32 2 37 -6 10 -17 -23 -39 -58 -39 -15 0 -28
-4 -28 -9 0 -17 16 -21 50 -11 19 5 35 8 38 6 2 -2 -4 -18 -12 -35 -23 -43
-21 -52 9 -41 33 12 33 -3 0 -42 -14 -17 -24 -33 -21 -35 6 -7 56 28 56 39 0
5 5 6 10 3 6 -3 10 -21 10 -40 0 -31 -2 -33 -27 -30 -16 2 -37 4 -48 5 -21 1
-61 54 -71 95 -5 22 -39 43 -50 33 -2 -3 9 -23 25 -45 16 -21 32 -49 35 -61 6
-19 3 -22 -18 -22 -33 0 -57 -10 -50 -21 3 -5 23 -6 46 -3 22 4 120 1 218 -6
l177 -13 44 27 44 27 -70 -5 c-38 -4 -104 -9 -146 -12 l-76 -7 -6 58 c-4 41
-2 66 9 86 8 15 14 35 14 44 0 25 -28 17 -42 -12 -15 -30 -38 -42 -38 -20 0
34 40 66 91 73 27 4 49 10 49 15 0 17 -38 19 -75 3 -25 -10 -41 -12 -48 -5
-16 16 -1 38 33 44 17 4 29 11 25 17 -3 5 -19 7 -36 3 -25 -5 -31 -2 -36 16
-3 11 -9 21 -13 21 -5 0 -15 3 -24 6 -11 4 -16 0 -16 -14z"/>
<path d="M4218 6203 c5 -101 9 -111 11 -25 0 45 -2 82 -6 82 -5 0 -7 -26 -5
-57z"/>
<path d="M5970 6249 c0 -5 5 -7 10 -4 6 3 10 8 10 11 0 2 -4 4 -10 4 -5 0 -10
-5 -10 -11z"/>
<path d="M2453 6227 c11 -30 -37 -120 -99 -187 -89 -96 -131 -137 -149 -143
-8 -4 -15 -11 -15 -17 0 -19 106 50 151 99 23 25 35 29 108 36 54 5 81 11 78
19 -4 12 -34 13 -89 2 -52 -11 -50 5 12 81 28 34 50 66 50 71 0 5 -12 19 -27
33 -20 18 -25 20 -20 6z"/>
<path d="M5910 6179 c-61 -67 -62 -69 -11 -26 44 36 79 78 64 76 -4 -1 -28
-23 -53 -50z"/>
<path d="M3213 6155 c19 -29 24 -32 36 -21 17 18 9 31 -29 44 l-29 11 22 -34z"/>
<path d="M1270 6156 c0 -2 7 -9 15 -16 13 -11 14 -10 9 4 -5 14 -24 23 -24 12z"/>
<path d="M6130 6147 c0 -8 9 -25 20 -38 16 -20 19 -21 20 -6 0 9 1 20 3 23 1
4 -8 13 -20 22 -20 13 -23 13 -23 -1z"/>
<path d="M2955 6130 c3 -5 8 -10 11 -10 2 0 4 5 4 10 0 6 -5 10 -11 10 -5 0
-7 -4 -4 -10z"/>
<path d="M2537 6093 c21 -21 57 -59 81 -86 46 -51 48 -52 132 -48 l55 3 -45
14 c-72 23 -105 41 -177 99 -79 63 -101 72 -46 18z"/>
<path d="M1354 6033 c30 -48 61 -90 67 -92 8 -2 5 9 -7 26 -82 127 -100 153
-106 153 -5 0 17 -39 46 -87z"/>
<path d="M3496 6069 c-11 -21 -23 -39 -28 -39 -18 0 4 -21 44 -41 33 -17 42
-18 49 -7 14 22 10 28 -21 35 -32 6 -41 30 -15 39 18 7 19 28 2 42 -9 8 -17 1
-31 -29z"/>
<path d="M4216 6064 c-4 -14 -5 -28 -3 -31 3 -2 8 8 11 23 4 14 5 28 3 31 -3
2 -8 -8 -11 -23z"/>
<path d="M3885 6025 c-13 -107 -70 -256 -119 -307 -28 -31 -33 -32 -69 -19
-14 5 -69 11 -123 12 -86 3 -144 13 -244 43 -24 7 -24 7 -5 -6 37 -27 139 -48
231 -48 114 0 178 -20 205 -64 25 -41 24 -106 -2 -151 -12 -20 -19 -38 -16
-41 12 -13 27 9 42 60 15 52 16 53 60 59 49 7 182 64 172 73 -4 4 -17 0 -30
-9 -24 -16 -149 -57 -173 -57 -8 0 -14 6 -14 14 0 7 -12 30 -26 51 l-25 38 30
31 c53 55 100 183 125 344 3 17 2 32 -3 32 -5 0 -12 -25 -16 -55z"/>
<path d="M6154 6039 c3 -24 5 -52 5 -61 1 -10 6 -18 11 -18 16 0 8 112 -8 118
-10 3 -12 -6 -8 -39z"/>
<path d="M2993 6000 c6 -22 13 -37 15 -35 7 7 -8 75 -17 75 -5 0 -3 -18 2 -40z"/>
<path d="M5842 6029 c-13 -5 -21 -13 -17 -18 3 -6 13 -7 21 -4 12 4 15 0 12
-18 -2 -16 -11 -25 -25 -27 -20 -3 -23 1 -23 27 0 20 -5 31 -14 31 -9 0 -14
-11 -13 -32 0 -18 -3 -50 -7 -70 l-7 -38 36 0 c55 0 46 -27 -10 -32 -54 -4
-65 5 -65 49 0 18 -4 33 -10 33 -5 0 -10 -16 -10 -35 0 -47 -26 -37 -40 16
-11 38 -26 57 -38 45 -3 -4 -2 -15 4 -24 11 -19 11 -124 0 -189 -4 -23 -21
-63 -38 -88 -17 -25 -28 -48 -25 -51 10 -10 87 98 87 122 0 13 4 24 9 24 5 0
16 3 25 6 12 5 16 0 16 -17 0 -46 -11 -67 -31 -62 -17 5 -17 3 4 -35 28 -52
47 -40 47 29 0 40 4 50 23 60 12 7 26 18 30 25 4 8 12 14 17 14 16 0 11 -33
-10 -65 -21 -32 -25 -45 -12 -45 4 0 25 28 47 62 28 43 41 57 43 44 7 -33 -46
-119 -94 -156 -58 -43 -41 -52 20 -10 49 33 92 96 102 149 5 22 12 31 23 29
32 -7 -1 -148 -35 -148 -20 0 -13 -24 9 -28 22 -4 54 49 68 115 17 73 5 85
-77 82 -38 -1 -69 3 -78 10 -15 13 -18 10 -41 -33 -14 -26 -30 -16 -28 18 1
15 3 29 5 31 2 2 144 11 221 15 4 0 7 5 7 11 0 8 -12 10 -33 6 -19 -3 -38 -2
-43 1 -12 9 -10 64 5 116 16 58 -4 77 -57 55z m6 -115 c-16 -16 -48 -13 -48 4
0 5 10 14 23 19 29 14 47 -2 25 -23z m-138 -109 c0 -8 -9 -19 -20 -25 -18 -9
-20 -8 -20 15 0 18 5 25 20 25 11 0 20 -7 20 -15z"/>
<path d="M4204 6005 c-3 -8 -4 -20 -2 -27 3 -7 7 -1 10 15 6 29 1 36 -8 12z"/>
<path d="M6210 6010 c0 -5 13 -18 30 -29 16 -10 27 -21 24 -24 -4 -4 1 -9 10
-13 9 -3 14 -10 11 -14 -2 -4 5 -16 16 -26 17 -16 22 -16 29 -4 6 10 5 19 -3
25 -6 6 -16 18 -22 28 -13 22 -95 72 -95 57z"/>
<path d="M3042 5980 c7 -11 17 -20 22 -20 5 0 1 9 -9 20 -10 11 -20 20 -22 20
-2 0 2 -9 9 -20z"/>
<path d="M5665 5970 c-3 -6 5 -10 19 -10 13 0 26 -5 28 -12 2 -6 9 -8 16 -4 6
3 9 13 5 21 -6 17 -58 20 -68 5z"/>
<path d="M6057 5963 c-14 -52 -16 -73 -8 -73 9 0 31 60 31 83 0 15 -19 6 -23
-10z"/>
<path d="M2533 5963 c-35 -4 -40 -12 -22 -30 6 -6 13 -54 16 -107 3 -53 10
-96 14 -96 11 0 15 81 9 152 -6 58 -1 68 35 68 14 0 14 -67 1 -100 -3 -8 -2
-22 4 -30 18 -29 31 5 28 76 -3 76 -5 77 -85 67z"/>
<path d="M4192 5940 c0 -14 2 -19 5 -12 2 6 2 18 0 25 -3 6 -5 1 -5 -13z"/>
<path d="M2425 5940 c-11 -5 -33 -9 -49 -9 -21 -1 -27 -5 -22 -17 3 -9 6 -40
6 -71 0 -39 4 -54 13 -51 6 3 13 14 15 25 3 21 28 33 70 33 23 0 30 14 11 26
-6 3 -9 15 -6 25 7 27 -14 49 -38 39z m5 -51 c0 -10 -2 -19 -4 -19 -2 0 -11
-3 -20 -6 -12 -5 -16 0 -16 19 0 24 16 39 33 30 4 -2 7 -13 7 -24z"/>
<path d="M3010 5943 c0 -4 5 -15 10 -23 8 -13 10 -13 10 2 0 9 -4 20 -10 23
-5 3 -10 3 -10 -2z"/>
<path d="M3085 5930 c56 -70 138 -140 163 -140 10 0 5 7 -13 16 -16 8 -61 45
-100 82 -38 37 -60 56 -50 42z"/>
<path d="M6160 5930 c0 -13 5 -18 15 -14 8 4 15 12 15 20 0 8 -7 14 -15 14 -8
0 -15 -9 -15 -20z"/>
<path d="M1438 5915 c12 -25 50 -60 57 -53 3 2 -12 20 -31 39 -23 21 -33 26
-26 14z"/>
<path d="M4176 5884 c-4 -14 -5 -29 -2 -31 3 -3 8 7 12 21 3 15 4 29 1 32 -2
3 -8 -7 -11 -22z"/>
<path d="M6772 5873 c-6 -20 -7 -32 -2 -27 10 10 25 64 18 64 -3 0 -10 -16
-16 -37z"/>
<path d="M3031 5890 c0 -8 4 -24 9 -35 5 -13 9 -14 9 -5 0 8 -4 24 -9 35 -5
13 -9 14 -9 5z"/>
<path d="M6160 5870 c0 -18 -6 -33 -15 -36 -19 -8 -19 -14 6 -44 19 -22 22
-23 32 -9 17 23 9 119 -9 119 -9 0 -14 -11 -14 -30z"/>
<path d="M6027 5866 c-3 -8 -3 -17 0 -20 9 -9 34 15 27 25 -8 13 -21 11 -27
-5z"/>
<path d="M6725 5778 c-86 -149 -219 -223 -421 -235 -105 -6 -129 2 -104 32 20
24 -8 19 -44 -8 -17 -13 -57 -38 -88 -56 -32 -18 -58 -34 -58 -36 0 -7 52 15
85 35 25 15 55 19 178 22 81 2 147 0 147 -4 0 -14 28 -8 34 7 3 8 11 15 19 15
35 0 127 57 178 110 31 32 59 64 63 71 3 8 15 29 26 47 11 17 16 32 12 32 -4
0 -16 -15 -27 -32z"/>
<path d="M3277 5769 c7 -7 15 -10 18 -7 3 3 -2 9 -12 12 -14 6 -15 5 -6 -5z"/>
<path d="M3070 5760 c0 -8 7 -37 15 -65 l15 -50 -6 50 c-6 50 -23 98 -24 65z"/>
<path d="M4063 5681 c-18 -15 -33 -31 -33 -34 0 -12 50 25 61 44 13 24 10 24
-28 -10z"/>
<path d="M4792 5675 c-17 -14 -34 -25 -38 -25 -5 0 -36 -21 -69 -45 -33 -25
-79 -55 -103 -66 -24 -12 -41 -23 -39 -26 6 -6 134 61 172 90 101 76 126 97
117 97 -6 0 -24 -11 -40 -25z"/>
<path d="M6240 5630 c-19 -15 -21 -20 -9 -20 16 0 46 27 38 35 -2 2 -15 -5
-29 -15z"/>
<path d="M3093 5604 c4 -21 7 -66 8 -99 l2 -60 7 45 c9 53 1 138 -13 147 -7 4
-8 -8 -4 -33z"/>
<path d="M5345 5620 c-3 -5 -1 -10 4 -10 6 0 11 5 11 10 0 6 -2 10 -4 10 -3 0
-8 -4 -11 -10z"/>
<path d="M2568 5593 c-42 -6 -34 -23 11 -23 38 0 39 -1 45 -45 11 -70 2 -85
-49 -85 -28 0 -45 5 -48 15 -7 17 -3 20 41 30 42 9 41 25 -2 25 -32 0 -35 3
-38 32 -2 20 -9 34 -19 36 -13 2 -14 -7 -8 -69 11 -102 10 -101 68 -93 26 3
51 2 54 -2 4 -7 17 -141 19 -194 1 -27 -5 -40 -18 -40 -19 0 -14 -20 9 -34 32
-20 38 3 27 119 -6 59 -10 154 -8 209 1 56 -1 107 -5 114 -8 12 -26 13 -79 5z"/>
<path d="M2398 5558 c-37 -13 -36 -31 2 -26 26 4 30 1 30 -18 0 -30 -45 -42
-71 -18 -25 23 -30 16 -19 -31 20 -91 27 -221 15 -275 -8 -37 11 -41 25 -6 8
23 5 206 -5 252 -4 16 1 23 17 27 12 3 25 4 30 1 12 -8 -1 -46 -21 -61 -14
-11 -14 -12 4 -13 12 0 36 14 55 30 29 26 31 30 12 25 -21 -6 -22 -4 -16 22 4
15 7 36 6 45 0 10 4 20 9 24 14 8 -9 34 -30 33 -9 0 -28 -5 -43 -11z"/>
<path d="M1533 5550 c-24 -3 -46 -10 -50 -15 -5 -4 3 -5 17 -2 14 4 56 7 94 7
38 0 67 2 65 4 -10 8 -88 13 -126 6z"/>
<path d="M3156 5518 c9 -15 34 -35 78 -61 26 -16 25 -13 -9 17 -47 43 -82 65
-69 44z"/>
<path d="M4450 5484 c-36 -14 -69 -29 -75 -34 -5 -4 -57 -23 -115 -41 -102
-33 -110 -34 -260 -33 -112 1 -169 6 -205 17 -53 18 -76 15 -29 -4 99 -38 274
-46 404 -19 98 20 360 118 360 135 0 8 -11 5 -80 -21z"/>
<path d="M4885 5478 c-16 -6 -41 -19 -55 -28 -14 -9 -50 -29 -80 -44 -30 -15
-59 -32 -65 -38 -7 -7 -4 -8 10 -1 11 6 45 22 74 36 64 31 81 33 122 11 39
-20 48 -12 13 10 l-26 18 23 24 c12 13 21 24 18 23 -2 0 -17 -5 -34 -11z"/>
<path d="M5265 5473 c-16 -9 -25 -18 -19 -20 7 -2 27 5 45 16 40 25 18 28 -26
4z"/>
<path d="M6395 5454 c-8 -20 -15 -39 -15 -43 -1 -34 -178 -271 -203 -271 -4 0
-23 -11 -40 -23 -18 -13 -48 -30 -67 -37 -19 -8 -50 -22 -68 -32 -29 -16 -94
-27 -262 -44 -30 -3 -102 -1 -160 4 -98 9 -120 9 -109 -2 2 -3 65 -8 139 -13
l135 -9 -55 -11 -55 -12 75 6 c41 3 94 9 118 13 63 11 72 -2 73 -113 1 -87 2
-89 10 -42 5 28 7 78 4 111 l-6 62 38 12 c62 20 194 90 253 134 78 59 75 58
117 41 33 -13 35 -13 19 0 -11 8 -23 15 -28 15 -13 0 -9 27 6 39 26 22 122
251 105 251 -5 0 -16 -16 -24 -36z"/>
<path d="M1432 5450 c8 -25 28 -51 28 -37 0 15 -24 67 -30 67 -5 0 -4 -14 2
-30z"/>
<path d="M5360 5475 c0 -15 116 -59 189 -71 77 -13 100 -13 211 2 69 9 132 21
140 26 15 9 13 9 -145 -13 -129 -17 -238 -4 -343 42 -45 20 -52 22 -52 14z"/>
<path d="M5955 5460 l-20 -9 20 0 c11 0 27 4 35 9 13 9 13 10 0 9 -8 0 -24 -4
-35 -9z"/>
<path d="M3275 5430 c16 -26 75 -42 198 -53 119 -11 132 -14 135 -32 2 -11 8
-24 13 -29 5 -5 6 6 2 27 -4 30 -2 38 13 43 53 19 87 35 82 39 -2 3 -28 -4
-57 -15 -77 -28 -275 -24 -344 8 -26 11 -45 17 -42 12z"/>
<path d="M5195 5431 c-17 -17 -158 -40 -210 -35 -41 4 -47 3 -31 -7 35 -21
253 12 271 42 8 12 -18 12 -30 0z"/>
<path d="M1475 5360 c9 -16 18 -30 21 -30 2 0 -2 14 -11 30 -9 17 -18 30 -21
30 -2 0 2 -13 11 -30z"/>
<path d="M3113 5303 c1 -37 -1 -106 -5 -153 l-7 -85 14 75 c16 88 19 216 5
225 -6 4 -9 -20 -7 -62z"/>
<path d="M4658 5365 c-2 -3 -42 -12 -89 -21 -46 -8 -109 -22 -139 -31 -30 -8
-86 -21 -125 -28 -78 -15 -141 -40 -176 -72 -13 -12 -46 -40 -72 -64 -27 -24
-58 -61 -68 -84 l-20 -40 23 30 c73 96 132 141 148 115 7 -11 10 -8 15 11 12
47 78 79 215 104 96 17 291 63 298 70 3 3 3 7 0 10 -2 3 -7 3 -10 0z"/>
<path d="M5059 5295 c-13 -19 -29 -37 -36 -39 -19 -8 -114 -78 -110 -82 9 -9
74 26 115 61 42 36 81 95 64 95 -5 0 -20 -16 -33 -35z"/>
<path d="M1300 5305 c0 -28 109 -141 185 -192 22 -15 59 -43 83 -62 23 -18 45
-32 48 -29 2 3 -44 41 -103 86 -103 76 -158 127 -196 182 -9 13 -17 20 -17 15z"/>
<path d="M3655 5220 c24 -92 104 -237 156 -284 62 -56 140 -83 195 -68 l39 11
-45 -5 c-99 -12 -207 73 -278 219 -22 45 -46 100 -52 122 -19 61 -31 65 -15 5z"/>
<path d="M1540 5250 c0 -5 5 -10 11 -10 5 0 7 5 4 10 -3 6 -8 10 -11 10 -2 0
-4 -4 -4 -10z"/>
<path d="M1560 5223 c0 -7 4 -13 8 -13 4 0 16 -15 26 -32 10 -18 61 -74 112
-125 51 -51 98 -101 104 -112 10 -19 9 -20 -17 -10 -16 6 -57 26 -93 45 -53
29 -60 31 -36 10 43 -36 129 -77 176 -83 l42 -6 -104 104 c-58 57 -130 133
-161 169 -31 36 -57 59 -57 53z"/>
<path d="M4200 5190 c0 -5 10 -15 23 -21 22 -12 22 -12 3 10 -21 23 -26 26
-26 11z"/>
<path d="M5040 5155 c25 -13 52 -27 60 -31 8 -3 42 -19 75 -34 72 -33 193 -70
226 -69 l24 0 -25 11 c-14 6 -45 14 -70 18 -46 8 -112 35 -235 96 -78 38 -125
46 -55 9z"/>
<path d="M4851 5155 c-51 -23 -197 -56 -270 -62 -67 -5 -120 4 -266 46 -44 13
-64 16 -55 8 17 -15 101 -42 178 -57 117 -23 258 -5 414 53 38 13 59 27 42 27
-5 -1 -24 -7 -43 -15z"/>
<path d="M6432 5094 c86 -89 157 -194 182 -269 27 -83 46 -164 46 -195 0 -17
4 -30 9 -30 4 0 4 24 0 53 -17 107 -45 194 -89 269 -47 80 -165 220 -203 239
-12 6 12 -24 55 -67z"/>
<path d="M4140 5144 c0 -3 7 -31 16 -61 19 -65 84 -143 118 -142 14 0 16 2 6
6 -50 18 -120 122 -120 179 0 13 -4 24 -10 24 -5 0 -10 -3 -10 -6z"/>
<path d="M3081 5020 c-6 -25 -16 -62 -22 -83 -10 -36 -5 -67 5 -36 19 56 37
140 33 151 -2 7 -9 -7 -16 -32z"/>
<path d="M4500 5010 c-46 -17 -49 -18 -15 -12 22 4 90 7 150 7 101 0 115 -2
168 -28 96 -47 108 -105 46 -213 -34 -59 -110 -134 -156 -153 -18 -7 -33 -17
-33 -22 0 -14 8 -11 68 27 111 70 171 156 172 245 0 53 -30 107 -71 126 -92
44 -238 54 -329 23z"/>
<path d="M3951 4993 c-18 -44 -32 -98 -22 -87 13 14 45 104 39 110 -3 2 -10
-8 -17 -23z"/>
<path d="M4375 4975 c-22 -8 -31 -13 -20 -13 11 0 36 6 55 13 45 17 18 17 -35
0z"/>
<path d="M5515 4950 c4 -6 11 -8 16 -5 14 9 11 15 -7 15 -8 0 -12 -5 -9 -10z"/>
<path d="M4155 4910 c-13 -6 -15 -9 -5 -9 8 0 22 4 30 9 18 12 2 12 -25 0z"/>
<path d="M4088 4883 c7 -3 16 -2 19 1 4 3 -2 6 -13 5 -11 0 -14 -3 -6 -6z"/>
<path d="M6165 4831 c0 -33 -5 -65 -10 -70 -6 -6 -37 -12 -69 -13 -56 -2 -57
-3 -37 -19 17 -14 28 -15 53 -9 55 16 57 2 15 -88 -19 -42 -54 -72 -131 -114
-47 -27 -4 -23 50 3 61 31 109 85 129 147 9 28 20 52 23 52 4 -1 40 -48 81
-105 l75 -103 63 -4 c35 -2 63 -2 63 -1 0 1 -33 21 -72 44 -75 44 -188 148
-188 174 0 11 13 15 51 15 46 0 50 2 38 16 -9 11 -25 14 -53 12 -23 -2 -43 0
-44 5 -2 4 -1 25 3 47 5 27 3 46 -5 55 -25 30 -35 16 -35 -44z"/>
<path d="M3019 4831 c-29 -65 -42 -102 -37 -106 3 -3 17 26 33 65 29 73 32
106 4 41z"/>
<path d="M4940 4831 c0 -5 9 -13 21 -16 53 -17 108 -85 134 -169 8 -25 13 -33
14 -20 3 60 -59 154 -128 192 -23 13 -41 19 -41 13z"/>
<path d="M5891 4754 c0 -11 3 -14 6 -6 3 7 2 16 -1 19 -3 4 -6 -2 -5 -13z"/>
<path d="M5880 4722 c0 -7 -18 -39 -40 -71 -43 -62 -105 -119 -209 -191 -34
-24 -59 -46 -53 -48 17 -5 166 105 228 169 56 59 95 131 80 146 -3 4 -6 1 -6
-5z"/>
<path d="M2960 4695 c0 -8 2 -15 4 -15 2 0 6 7 10 15 3 8 1 15 -4 15 -6 0 -10
-7 -10 -15z"/>
<path d="M3390 4688 c-92 -12 -202 -37 -220 -49 -16 -11 2 -8 103 17 31 7 100
17 153 20 57 4 90 10 82 15 -15 10 -28 10 -118 -3z"/>
<path d="M3590 4670 c30 -5 82 -16 114 -24 32 -9 61 -14 64 -11 3 3 1 5 -4 5
-5 0 -40 9 -79 20 -38 11 -88 19 -110 18 -36 -1 -35 -1 15 -8z"/>
<path d="M4107 4639 c12 -12 25 -20 28 -17 3 3 -7 13 -22 23 l-28 17 22 -23z"/>
<path d="M3093 4603 c-29 -15 -51 -28 -49 -30 6 -6 93 35 100 46 10 15 8 14
-51 -16z"/>
<path d="M3781 4626 c13 -11 128 -62 123 -54 -6 10 -103 58 -118 58 -5 0 -7
-2 -5 -4z"/>
<path d="M4150 4614 c0 -2 25 -20 55 -39 66 -43 149 -66 230 -63 l60 1 -75 7
c-82 8 -135 25 -217 69 -29 16 -53 27 -53 25z"/>
<path d="M6673 4545 c0 -27 2 -38 4 -22 2 15 2 37 0 50 -2 12 -4 0 -4 -28z"/>
<path d="M4600 4555 c-17 -10 -20 -14 -9 -15 9 0 22 7 29 15 15 18 12 18 -20
0z"/>
<path d="M5086 4544 c-4 -14 -5 -28 -3 -31 3 -2 8 8 11 23 4 14 5 28 3 31 -3
2 -8 -8 -11 -23z"/>
<path d="M3924 4551 c4 -6 16 -16 28 -22 15 -8 18 -8 14 0 -4 6 -16 16 -28 22
-15 8 -18 8 -14 0z"/>
<path d="M3985 4510 c5 -8 21 -24 35 -35 14 -11 48 -40 75 -65 45 -40 46 -41
15 -6 -43 46 -138 127 -125 106z"/>
<path d="M5050 4466 c-12 -20 -50 -55 -86 -78 -35 -23 -64 -45 -64 -49 0 -16
82 26 115 58 35 34 70 91 62 99 -3 3 -15 -11 -27 -30z"/>
<path d="M1580 4470 c0 -5 5 -10 11 -10 5 0 7 5 4 10 -3 6 -8 10 -11 10 -2 0
-4 -4 -4 -10z"/>
<path d="M6664 4446 c-3 -8 -4 -27 -2 -43 3 -23 5 -20 9 15 5 43 2 53 -7 28z"/>
<path d="M1770 4446 c0 -2 17 -16 38 -31 l37 -28 -29 31 c-26 28 -46 40 -46
28z"/>
<path d="M6225 4430 c-3 -6 5 -14 19 -20 16 -6 24 -15 20 -24 -11 -29 -33 -25
-55 10 -12 19 -22 34 -24 32 -1 -2 0 -34 4 -73 6 -68 7 -70 34 -70 19 1 27 -4
27 -17 0 -15 -9 -18 -61 -18 l-61 0 3 83 4 82 -52 0 c-29 1 -53 -2 -53 -6 0
-4 7 -19 15 -35 26 -52 -11 -180 -82 -281 -8 -13 -11 -23 -6 -23 14 0 46 39
77 93 31 54 52 57 48 6 -5 -67 -11 -81 -32 -74 -11 4 -20 4 -20 1 0 -13 35
-76 42 -76 15 0 35 65 41 133 8 82 12 90 37 74 26 -16 25 -29 -6 -67 -33 -38
-24 -51 16 -22 50 38 55 24 10 -27 -17 -18 -30 -38 -30 -43 0 -15 62 40 83 73
11 16 25 29 33 29 33 0 -40 -95 -122 -158 l-29 -23 28 6 c16 3 43 16 62 28 35
23 95 105 95 130 0 16 37 30 45 17 15 -25 -64 -149 -93 -146 -12 1 -16 -6 -14
-23 1 -14 5 -27 7 -30 8 -8 50 19 60 39 6 10 25 44 43 74 21 36 32 66 30 83
l-3 28 -74 -3 c-53 -2 -76 1 -82 10 -16 24 -9 28 49 28 84 0 162 11 156 22 -4
5 -27 9 -53 8 -80 -4 -83 -3 -77 28 3 15 8 55 11 90 l7 62 -35 0 c-20 0 -39
-5 -42 -10z m-123 -75 c-6 -50 -15 -49 -25 3 -6 28 -4 33 11 30 12 -2 16 -11
14 -33z m168 -9 c0 -18 -15 -36 -31 -36 -21 0 -26 25 -6 33 16 7 37 8 37 3z
m-170 -69 c0 -7 -7 -22 -15 -33 -12 -16 -14 -17 -15 -2 0 23 11 48 21 48 5 0
9 -6 9 -13z"/>
<path d="M1625 4420 c3 -5 8 -10 11 -10 2 0 4 5 4 10 0 6 -5 10 -11 10 -5 0
-7 -4 -4 -10z"/>
<path d="M1850 4376 c0 -2 8 -10 18 -17 15 -13 16 -12 3 4 -13 16 -21 21 -21
13z"/>
<path d="M5492 4353 c-13 -32 -106 -147 -172 -213 -45 -46 -91 -78 -150 -108
-47 -24 -90 -48 -96 -53 -6 -5 -32 -14 -58 -19 -25 -6 -67 -15 -93 -21 -77
-17 -183 -4 -250 30 -68 34 -94 60 -123 121 -21 44 -21 45 -16 10 13 -80 15
-75 -29 -72 -22 2 -55 12 -72 22 -18 11 -33 16 -33 12 0 -4 14 -16 32 -26 29
-18 30 -20 13 -32 -31 -23 -127 -38 -240 -38 -92 0 -118 3 -159 22 -58 26 -71
23 -24 -6 81 -49 209 -55 354 -16 157 43 168 42 271 -7 77 -37 98 -43 173 -47
58 -3 104 1 146 12 34 9 68 16 76 16 9 0 44 -26 79 -58 74 -67 184 -142 208
-142 9 0 21 -4 27 -9 11 -11 145 -53 244 -77 114 -27 113 -24 81 -119 -43
-128 -78 -185 -141 -227 -91 -62 -117 -66 -210 -34 -43 15 -87 26 -97 24 -10
-3 7 -12 42 -22 82 -24 234 -103 323 -168 68 -49 211 -163 222 -177 3 -4 17
-14 31 -23 15 -9 51 -39 82 -65 30 -27 68 -55 84 -63 15 -8 53 -30 84 -48 81
-47 199 -82 305 -89 58 -4 93 -2 97 4 4 7 -18 11 -62 11 -89 0 -222 28 -275
56 -137 76 -186 108 -269 176 -50 42 -118 95 -151 119 -32 24 -66 51 -75 60
-9 9 -65 48 -125 88 l-109 71 54 27 c30 15 79 53 109 85 l55 58 85 -50 c161
-96 261 -139 364 -156 77 -13 106 -14 149 -5 63 13 187 67 187 82 0 5 -19 -1
-42 -14 -81 -45 -133 -57 -226 -52 -48 2 -105 9 -127 14 -49 13 -181 77 -257
126 -31 20 -61 37 -66 37 -24 0 -62 26 -58 40 3 8 15 49 27 90 35 122 34 120
76 120 60 1 230 27 250 39 20 12 21 12 -112 -10 -110 -17 -191 -12 -320 21
-208 54 -268 78 -370 146 -68 46 -152 125 -139 130 28 12 192 109 222 132 18
14 47 46 65 71 39 58 117 152 140 169 19 14 23 42 7 42 -6 0 -14 -8 -18 -17z"/>
<path d="M6651 4349 c-1 -26 -11 -53 -77 -216 -18 -46 -31 -83 -29 -83 7 0 76
151 97 214 10 32 17 70 15 85 l-4 26 -2 -26z"/>
<path d="M4171 4333 c21 -23 157 -200 181 -237 4 -6 9 -8 13 -5 3 3 -6 19 -20
35 -14 16 -58 73 -98 126 -39 53 -79 100 -87 103 -8 4 -3 -6 11 -22z"/>
<path d="M1901 4343 c8 -20 140 -113 162 -113 16 0 6 9 -33 32 -30 17 -73 45
-94 61 -21 17 -37 26 -35 20z"/>
<path d="M1770 4311 c39 -32 142 -79 186 -85 21 -3 30 -3 19 1 -10 3 -62 26
-115 51 -117 57 -121 58 -90 33z"/>
<path d="M4685 4321 c-80 -14 -157 -88 -154 -148 1 -10 6 -2 13 18 6 21 20 47
30 58 24 26 99 61 132 61 12 0 26 5 29 10 3 6 3 9 -2 9 -4 -1 -26 -5 -48 -8z"/>
<path d="M4818 4323 c12 -2 30 -2 40 0 9 3 -1 5 -23 4 -22 0 -30 -2 -17 -4z"/>
<path d="M2990 4261 c0 -6 4 -13 10 -16 6 -3 7 1 4 9 -7 18 -14 21 -14 7z"/>
<path d="M3040 4193 c0 -6 7 -16 16 -24 9 -7 36 -54 62 -103 44 -87 46 -94 45
-176 0 -47 -5 -97 -11 -112 -17 -41 -76 -81 -120 -81 -80 0 -124 45 -189 193
-33 76 -45 77 -19 2 13 -35 13 -41 0 -46 -8 -3 -14 -15 -14 -27 0 -22 -50
-119 -78 -151 -8 -10 -11 -18 -6 -18 13 1 44 45 81 118 17 34 35 64 38 65 4 1
21 -23 39 -53 42 -71 84 -100 147 -100 43 0 52 4 98 48 27 26 53 60 57 76 4
16 4 69 1 117 -7 95 -18 121 -96 219 -51 65 -51 65 -51 53z"/>
<path d="M3910 4081 c0 -5 5 -13 10 -16 6 -3 10 -2 10 4 0 5 -4 13 -10 16 -5
3 -10 2 -10 -4z"/>
<path d="M6517 4022 c-21 -24 -24 -50 -3 -33 12 10 29 51 22 51 -2 0 -10 -8
-19 -18z"/>
<path d="M2791 4015 c0 -11 4 -27 9 -35 9 -13 10 -13 9 0 0 8 -4 24 -9 35 l-9
20 0 -20z"/>
<path d="M3219 3976 c86 -90 326 -124 494 -70 45 15 87 31 92 37 7 7 4 8 -10
2 -108 -41 -213 -56 -321 -44 -104 10 -167 31 -234 75 l-55 36 34 -36z"/>
<path d="M3860 3974 l-25 -15 25 7 c14 3 29 10 35 15 15 14 -7 10 -35 -7z"/>
<path d="M6473 3952 c-12 -30 -94 -116 -142 -147 -54 -36 -45 -45 12 -11 61
35 160 156 143 173 -3 3 -9 -3 -13 -15z"/>
<path d="M4028 3781 c-43 -10 -81 -21 -85 -26 -5 -4 6 -4 22 0 97 24 185 31
270 22 155 -16 217 -64 255 -198 18 -63 19 -63 19 -23 1 67 -9 101 -46 144
-47 54 -73 66 -186 84 -119 19 -151 19 -249 -3z"/>
<path d="M2386 3772 c12 -9 34 -42 49 -72 25 -49 27 -62 22 -135 -2 -44 -15
-114 -27 -155 -20 -65 -32 -84 -88 -142 -36 -38 -72 -68 -81 -68 -9 0 -29 -7
-45 -15 -15 -8 -55 -19 -88 -25 -69 -11 -87 -20 -39 -20 34 0 108 20 180 50
80 32 173 142 191 225 8 37 19 37 120 -1 61 -23 91 -28 160 -28 93 0 149 19
205 69 32 28 14 24 -20 -5 -70 -60 -251 -61 -402 -4 -37 14 -43 21 -43 45 0
28 1 29 52 29 55 0 118 32 168 85 38 40 9 29 -44 -17 -51 -45 -93 -60 -137
-51 -23 4 -27 11 -31 48 -9 76 -80 205 -112 205 -6 0 -1 -8 10 -18z"/>
<path d="M3458 3770 c-15 -4 -29 -5 -32 -2 -3 3 -6 1 -6 -5 0 -11 85 -6 108 7
19 10 -36 10 -70 0z"/>
<path d="M3583 3763 c15 -2 37 -2 50 0 12 2 0 4 -28 4 -27 0 -38 -2 -22 -4z"/>
<path d="M3370 3750 c-13 -9 -13 -10 0 -10 8 0 22 5 30 10 13 9 13 10 0 10 -8
0 -22 -5 -30 -10z"/>
<path d="M6447 3721 c77 -60 159 -149 210 -226 25 -38 53 -81 63 -95 9 -14 20
-34 23 -44 4 -10 10 -16 14 -13 3 4 -3 19 -13 34 -10 15 -29 48 -42 73 -54
103 -176 241 -257 291 -51 32 -49 21 2 -20z"/>
<path d="M3248 3696 c-42 -23 -94 -57 -115 -76 -22 -19 -53 -45 -69 -56 -16
-12 -26 -25 -23 -28 4 -4 26 10 50 30 78 65 143 111 204 142 33 17 53 31 45
30 -8 0 -50 -19 -92 -42z"/>
<path d="M3844 3725 c-24 -18 -7 -19 26 0 16 9 19 14 9 15 -8 0 -24 -7 -35
-15z"/>
<path d="M6120 3710 c-47 -16 -78 -29 -69 -29 16 -1 170 46 178 55 10 10 -30
0 -109 -26z"/>
<path d="M1675 3542 c27 -28 54 -52 59 -52 6 0 -5 14 -24 31 -74 66 -83 72
-35 21z"/>
<path d="M3624 3559 c-57 -64 -169 -100 -331 -107 -113 -5 -150 -22 -47 -22
30 0 54 -2 54 -5 0 -4 -7 -19 -15 -35 -11 -22 -12 -28 -2 -25 7 3 18 18 25 34
11 24 20 30 60 35 59 8 209 60 241 84 29 21 57 62 44 62 -6 0 -18 -10 -29 -21z"/>
<path d="M3710 3564 c0 -14 80 -43 145 -54 67 -11 162 0 236 26 78 28 57 32
-38 8 -111 -29 -174 -30 -249 -3 -90 31 -94 32 -94 23z"/>
<path d="M1780 3450 c19 -16 39 -30 45 -30 5 0 -6 13 -25 30 -19 16 -39 29
-45 29 -5 0 6 -13 25 -29z"/>
<path d="M4220 3365 c-78 -13 -140 -35 -200 -68 -19 -11 -47 -26 -61 -34 -15
-7 -38 -25 -53 -39 -22 -23 -32 -26 -68 -21 -27 4 -37 2 -27 -4 7 -5 23 -9 34
-9 32 -1 -42 -58 -85 -66 -88 -15 -252 -89 -354 -158 -68 -46 -153 -122 -261
-233 l-110 -114 -26 24 c-14 13 -40 48 -59 77 -19 29 -36 48 -38 42 -4 -14 46
-87 82 -121 30 -28 32 -43 10 -61 -8 -8 -19 -23 -25 -34 -5 -12 7 -1 28 24 99
118 317 323 399 376 87 56 220 123 284 142 147 45 156 47 302 47 98 0 144 3
137 10 -6 6 -63 9 -141 7 l-131 -2 24 31 c28 35 137 104 219 138 30 12 102 29
159 37 58 8 107 17 110 19 8 9 -71 3 -149 -10z"/>
<path d="M4475 3368 c162 -24 324 -78 361 -119 11 -12 32 -28 48 -36 17 -9 55
-39 86 -68 114 -108 152 -141 290 -251 134 -108 247 -175 407 -245 69 -30 247
-69 309 -68 57 1 55 2 -36 15 -220 33 -451 134 -619 273 -25 20 -55 43 -67 51
-49 34 -213 173 -278 235 l-68 66 22 24 c28 30 64 41 152 50 68 7 105 25 50
25 -55 0 -147 -22 -193 -46 -56 -29 -73 -30 -107 -5 -26 18 -53 30 -137 65
-64 25 -165 46 -225 45 l-55 -2 60 -9z"/>
<path d="M6764 3320 c3 -8 21 -60 41 -114 46 -125 63 -229 52 -316 -18 -140
-141 -335 -262 -413 -27 -17 -57 -37 -65 -44 -8 -7 -24 -20 -35 -28 -19 -16
-19 -16 5 -9 62 17 189 129 272 238 69 92 75 105 95 206 17 90 17 142 -2 230
-15 69 -78 237 -96 255 -7 7 -9 5 -5 -5z"/>
<path d="M3217 3281 c-25 -43 -138 -191 -146 -191 -3 0 -17 -10 -31 -23 -14
-12 -38 -33 -55 -46 -16 -13 -22 -21 -13 -18 15 5 100 64 211 146 l32 23 -27
-4 c-16 -3 -28 -2 -28 1 0 9 29 50 62 89 28 32 35 52 20 52 -4 0 -15 -13 -25
-29z"/>
<path d="M3463 3223 c-48 -2 -83 -8 -83 -14 0 -10 41 -8 205 11 66 7 67 7 15
7 -30 -1 -92 -3 -137 -4z"/>
<path d="M3673 3213 c9 -2 23 -2 30 0 6 3 -1 5 -18 5 -16 0 -22 -2 -12 -5z"/>
<path d="M3288 3193 c7 -3 16 -2 19 1 4 3 -2 6 -13 5 -11 0 -14 -3 -6 -6z"/>
<path d="M3240 3180 c0 -5 7 -7 15 -4 8 4 15 8 15 10 0 2 -7 4 -15 4 -8 0 -15
-4 -15 -10z"/>
<path d="M4255 3105 c60 -19 111 -32 112 -31 8 7 -182 67 -209 65 -7 0 36 -15
97 -34z"/>
<path d="M4381 3066 c2 -2 31 -19 64 -36 102 -56 197 -122 283 -198 45 -40 82
-69 82 -65 0 10 -133 133 -159 147 -9 5 -32 23 -52 41 -39 35 -251 142 -218
111z"/>
<path d="M1025 3019 c-16 -6 -14 -8 13 -8 33 -1 41 4 20 12 -7 2 -22 1 -33 -4z"/>
<path d="M1175 2993 c113 -21 198 -48 290 -94 175 -87 227 -129 535 -441 124
-126 230 -228 235 -228 20 0 -481 498 -571 567 -58 45 -205 134 -254 153 -60
24 -235 60 -282 59 -20 -1 -2 -7 47 -16z"/>
<path d="M4851 2714 c30 -32 130 -108 184 -141 54 -33 181 -88 275 -118 181
-58 243 -63 440 -35 34 4 6 5 -75 2 -110 -4 -148 -1 -240 17 -109 23 -214 56
-291 92 -22 10 -43 19 -47 19 -18 0 -177 113 -217 154 -24 25 -49 46 -54 46
-5 0 6 -16 25 -36z"/>
<path d="M2451 2644 c0 -11 3 -14 6 -6 3 7 2 16 -1 19 -3 4 -6 -2 -5 -13z"/>
<path d="M1275 2596 c61 -13 131 -31 157 -39 66 -22 302 -144 324 -168 10 -11
34 -29 53 -41 20 -12 46 -31 59 -42 14 -13 21 -15 17 -6 -8 19 -91 84 -170
135 -141 89 -368 175 -480 181 l-70 4 110 -24z"/>
<path d="M4160 2548 c-157 -24 -248 -66 -375 -173 -49 -41 -94 -75 -100 -75
-6 0 -22 -12 -36 -27 -18 -20 -20 -25 -6 -20 28 10 137 86 197 138 30 26 91
65 135 87 66 33 98 43 180 53 94 12 107 11 195 -10 52 -13 133 -40 180 -61
110 -50 192 -82 197 -77 2 2 -20 14 -49 27 -29 12 -93 41 -143 64 -122 57
-281 89 -375 74z"/>
<path d="M4040 2473 c6 -16 15 -37 20 -48 5 -11 14 -54 19 -95 l9 -75 -3 75
c-3 89 -23 170 -41 170 -10 0 -11 -6 -4 -27z"/>
<path d="M2230 2482 c0 -12 147 -141 170 -150 8 -3 22 -10 30 -17 22 -17 50
-26 50 -15 0 5 -9 12 -20 15 -27 8 -179 121 -207 153 -13 14 -23 20 -23 14z"/>
<path d="M2555 2447 c10 -15 20 -25 23 -22 3 3 -5 16 -17 28 l-23 22 17 -28z"/>
<path d="M5840 2416 c0 -2 7 -6 15 -10 8 -3 15 -1 15 4 0 6 -7 10 -15 10 -8 0
-15 -2 -15 -4z"/>
<path d="M2613 2392 c22 -24 96 -77 101 -71 2 2 -24 24 -58 48 -33 24 -53 35
-43 23z"/>
<path d="M5880 2397 c0 -3 36 -19 80 -37 44 -18 80 -36 80 -41 0 -18 -70 -76
-151 -126 -127 -77 -174 -88 -359 -87 -147 1 -160 3 -245 33 -49 18 -99 36
-110 41 -22 10 -63 22 -83 26 -8 1 -39 15 -70 30 -79 39 -79 39 -67 27 14 -14
122 -68 165 -83 19 -6 71 -25 114 -41 104 -38 268 -63 364 -55 71 7 72 7 72
-17 0 -52 -50 -141 -112 -199 -34 -32 -65 -58 -69 -58 -4 0 -14 -6 -21 -13
-24 -23 -118 -87 -128 -87 -6 0 -10 -4 -10 -10 0 -5 -6 -10 -14 -10 -7 0 -19
-7 -26 -15 -7 -8 -10 -15 -7 -15 13 0 86 42 98 56 6 8 16 14 21 14 16 0 121
82 172 134 29 30 61 77 78 116 49 109 53 114 100 126 81 21 215 105 280 177
l37 41 105 -3 c107 -2 208 15 269 46 51 26 20 25 -53 -1 -95 -34 -199 -42
-317 -22 -50 8 -104 21 -120 29 -34 17 -73 30 -73 24z"/>
<path d="M4570 2380 c0 -5 5 -10 10 -10 6 0 10 5 10 10 0 6 -4 10 -10 10 -5 0
-10 -4 -10 -10z"/>
<path d="M4415 2346 c-19 -15 -19 -15 6 -16 20 0 28 -6 31 -24 3 -13 1 -31 -4
-40 -12 -22 -38 -20 -38 2 0 10 -6 26 -12 35 -11 14 -13 2 -13 -70 -1 -99 -17
-144 -72 -202 -18 -19 -30 -37 -28 -40 10 -9 67 54 97 106 41 73 68 80 68 17
0 -20 -6 -37 -16 -42 -14 -8 -14 -12 -3 -30 15 -23 25 -27 33 -14 3 5 6 80 8
168 3 153 2 159 -17 162 -11 1 -29 -4 -40 -12z m35 -136 c0 -32 -23 -51 -41
-33 -14 14 7 63 26 63 10 0 15 -10 15 -30z"/>
<path d="M4570 2348 c0 -4 -15 -8 -32 -10 -54 -5 -27 -23 31 -21 l53 1 -5 -36
c-4 -19 -12 -39 -19 -45 -8 -5 11 -6 50 -3 51 5 62 3 62 -9 0 -17 18 -19 39
-6 13 8 13 12 1 26 -10 12 -27 16 -59 14 -45 -3 -46 -3 -43 26 2 17 5 31 7 33
3 3 31 10 50 11 5 1 4 6 -3 13 -12 12 -132 18 -132 6z"/>
<path d="M4778 2353 c7 -3 16 -2 19 1 4 3 -2 6 -13 5 -11 0 -14 -3 -6 -6z"/>
<path d="M4850 2321 c0 -6 18 -20 40 -31 22 -11 40 -16 40 -10 0 5 -5 10 -11
10 -6 0 -24 9 -40 21 -16 11 -29 16 -29 10z"/>
<path d="M2742 2304 c10 -10 20 -15 24 -12 3 4 -5 12 -18 18 -22 12 -22 12 -6
-6z"/>
<path d="M4548 2258 c4 -28 3 -30 -17 -25 -17 4 -25 0 -33 -18 -12 -26 -4 -60
12 -50 5 3 10 15 10 26 0 12 10 23 25 29 19 7 25 17 25 40 0 18 -5 30 -13 30
-9 0 -12 -10 -9 -32z"/>
<path d="M2505 2270 c3 -5 11 -10 16 -10 6 0 7 5 4 10 -3 6 -11 10 -16 10 -6
0 -7 -4 -4 -10z"/>
<path d="M1976 2208 c35 -34 67 -59 69 -56 6 5 -117 118 -128 118 -3 0 24 -28
59 -62z"/>
<path d="M2550 2252 c0 -4 17 -16 38 -27 20 -11 48 -26 62 -35 28 -17 93 -41
98 -35 3 3 -84 45 -94 45 -2 0 -26 13 -54 30 -27 16 -50 26 -50 22z"/>
<path d="M3608 2244 c-12 -11 -167 -44 -241 -50 -43 -4 -80 -11 -83 -16 -4 -6
13 -7 42 -3 27 3 65 8 84 11 116 15 210 41 210 59 0 7 -5 6 -12 -1z"/>
<path d="M2277 2209 c7 -7 15 -10 18 -7 3 3 -2 9 -12 12 -14 6 -15 5 -6 -5z"/>
<path d="M4588 2205 c-4 -4 -4 -13 -1 -21 5 -14 -1 -18 -49 -28 -40 -9 -35
-26 7 -26 19 0 35 -2 35 -5 0 -22 -35 -64 -69 -85 -57 -35 -54 -52 4 -30 15 6
41 26 59 45 19 19 41 35 50 35 20 0 20 -2 -5 -45 -15 -25 -26 -34 -38 -30 -15
4 -17 0 -13 -25 2 -16 9 -30 16 -30 6 0 28 27 49 61 30 48 36 64 26 75 -6 8
-20 14 -31 14 -38 0 -11 25 35 34 58 10 61 26 6 26 -29 0 -46 6 -58 21 -9 11
-19 17 -23 14z"/>
<path d="M2334 2175 c11 -8 27 -15 35 -15 11 0 10 4 -5 15 -10 8 -26 14 -34
14 -11 0 -10 -3 4 -14z"/>
<path d="M4035 2128 c-49 -78 -139 -173 -189 -200 -43 -22 -86 -58 -69 -58 6
0 21 8 34 18 43 33 116 71 123 65 3 -3 6 -23 6 -44 0 -21 5 -41 10 -44 6 -4
10 18 10 58 0 58 4 71 36 118 36 54 88 149 81 149 -2 0 -21 -28 -42 -62z"/>
<path d="M2445 2125 c28 -13 57 -24 65 -24 8 0 -12 11 -44 24 -75 31 -87 31
-21 0z"/>
<path d="M2060 2136 c0 -7 146 -116 155 -116 4 0 -10 14 -31 31 -22 16 -54 42
-73 57 -36 29 -51 37 -51 28z"/>
<path d="M2531 2096 c9 -9 109 -36 129 -35 8 0 -7 7 -35 16 -71 21 -101 27
-94 19z"/>
<path d="M2275 1984 c103 -65 321 -164 360 -164 11 1 -27 19 -85 40 -57 22
-147 65 -200 95 -98 56 -148 75 -75 29z"/>
<path d="M4460 1940 c0 -5 4 -10 9 -10 6 0 13 5 16 10 3 6 -1 10 -9 10 -9 0
-16 -4 -16 -10z"/>
<path d="M4524 1914 c4 -16 8 -31 9 -34 0 -3 -3 -24 -7 -47 -7 -37 -11 -42
-42 -48 -19 -3 -39 -3 -44 0 -13 8 -13 41 0 65 8 15 6 21 -9 29 -22 12 -84 3
-75 -11 3 -5 12 -7 19 -4 18 6 39 -20 31 -39 -9 -24 -31 -18 -46 13 -14 26
-14 24 -21 -48 -7 -89 -17 -116 -60 -164 -17 -20 -30 -39 -27 -41 7 -8 88 65
88 80 0 19 24 35 39 26 17 -11 10 -46 -9 -46 -18 0 -15 -33 4 -53 19 -20 34 5
41 64 11 109 12 111 46 106 29 -4 30 -6 24 -43 -5 -31 -4 -39 8 -39 17 0 30
40 21 64 -4 11 -1 16 10 16 12 0 16 -10 16 -40 0 -22 4 -40 9 -40 11 0 24 67
16 80 -3 6 2 11 12 11 44 3 87 9 92 14 2 3 -1 11 -7 17 -9 9 -20 10 -41 1 -16
-6 -35 -7 -42 -2 -10 6 -3 17 26 43 30 26 37 37 29 46 -9 9 -17 4 -33 -19 -28
-38 -43 -40 -41 -3 3 44 1 51 -21 63 -20 10 -21 9 -15 -17z m-124 -158 c0 -22
-17 -46 -32 -46 -9 0 -11 64 -2 73 12 12 34 -6 34 -27z"/>
<path d="M4470 1861 c0 -35 11 -53 26 -40 10 8 10 16 2 35 -13 29 -28 31 -28
5z"/>
<path d="M3705 1854 l-30 -14 35 5 c19 3 39 10 44 15 15 15 -14 12 -49 -6z"/>
<path d="M3600 1830 c-12 -8 -10 -10 10 -9 14 0 34 4 45 9 17 7 16 9 -10 9
-16 0 -37 -4 -45 -9z"/>
<path d="M3932 1764 c-22 -140 -100 -246 -261 -355 -44 -30 -78 -55 -77 -56 1
-1 33 13 70 31 44 22 92 58 136 101 74 74 76 73 79 -14 1 -26 -11 -81 -30
-138 -26 -78 -40 -103 -82 -149 -27 -30 -79 -71 -114 -90 -34 -20 -66 -40 -69
-46 -8 -12 -5 -11 58 21 25 13 69 41 97 62 28 22 54 39 56 39 3 0 5 -16 5 -35
0 -19 5 -35 10 -35 6 0 10 7 10 15 0 8 1 15 3 15 1 0 27 9 56 20 47 17 242 38
361 38 68 1 300 -20 335 -29 138 -37 268 -84 412 -149 46 -22 94 -33 203 -50
41 -6 85 -14 98 -16 12 -2 22 0 22 6 0 5 -4 10 -10 10 -5 0 -58 7 -116 16
-105 16 -204 46 -314 97 -102 48 -200 80 -335 109 -78 16 -119 18 -315 14
-205 -4 -255 -8 -372 -31 -33 -7 -38 -5 -38 12 0 10 4 23 9 29 15 15 57 136
68 191 5 28 6 81 2 118 -6 61 -4 71 22 118 16 30 31 75 34 107 3 30 8 65 11
78 2 12 1 22 -4 22 -4 0 -13 -34 -20 -76z"/>
<path d="M3468 1813 c12 -2 32 -2 45 0 12 2 2 4 -23 4 -25 0 -35 -2 -22 -4z"/>
<path d="M3400 1801 c0 -5 9 -7 20 -4 11 3 20 7 20 9 0 2 -9 4 -20 4 -11 0
-20 -4 -20 -9z"/>
<path d="M2988 1688 c-34 -12 -36 -28 -5 -28 31 0 34 -4 29 -40 -5 -34 -42
-44 -42 -11 0 10 -7 24 -15 31 -13 11 -15 5 -11 -46 3 -49 0 -67 -24 -114 -16
-30 -42 -64 -59 -75 -17 -11 -31 -23 -31 -27 0 -31 86 36 100 77 10 29 16 35
41 35 27 0 29 -2 29 -40 0 -33 -3 -40 -19 -40 -18 0 -19 -2 -4 -31 30 -60 49
-17 53 120 4 119 1 201 -7 200 -5 0 -20 -5 -35 -11z m20 -145 c-4 -22 -48 -31
-48 -10 0 19 10 27 32 27 13 0 18 -6 16 -17z"/>
<path d="M4460 1646 c-5 -13 -19 -34 -31 -45 -24 -22 -15 -29 11 -8 19 14 50
58 50 69 0 18 -21 6 -30 -16z"/>
<path d="M4541 1635 c-1 -58 8 -66 71 -66 105 -2 137 16 109 60 -8 12 -13 11
-29 -9 -16 -20 -29 -24 -73 -25 l-53 0 -12 40 -12 40 -1 -40z"/>
<path d="M5170 1614 c-36 -20 -66 -40 -68 -45 -2 -5 -8 -9 -13 -9 -36 0 -200
-158 -257 -247 -30 -48 -37 -50 -90 -28 -59 25 -226 63 -376 85 -73 11 -119
11 -250 2 -88 -7 -165 -17 -170 -22 -13 -13 45 -13 99 0 66 15 227 20 291 9
32 -5 89 -14 125 -19 83 -11 203 -43 282 -75 33 -14 64 -25 69 -25 5 0 48 -18
96 -41 88 -41 171 -74 160 -64 -3 4 -56 30 -118 60 -62 30 -114 56 -117 59 -9
9 50 105 99 160 59 67 169 148 261 193 37 19 67 36 67 38 0 12 -30 1 -90 -31z"/>
<path d="M3120 1580 c-53 -6 -53 -11 -3 -25 8 -3 9 -15 2 -44 -5 -23 -9 -44
-8 -48 5 -32 -3 -43 -31 -43 -16 0 -30 -4 -30 -9 0 -15 20 -18 78 -10 30 4 79
3 110 -1 61 -10 67 -9 58 16 -5 14 -18 16 -85 12 l-78 -5 4 61 c5 71 15 86 56
86 17 0 28 2 25 5 -9 9 -41 11 -98 5z"/>
<path d="M2626 1539 c-9 -47 -7 -89 4 -89 6 0 10 27 10 60 0 67 -4 76 -14 29z"/>
<path d="M2618 1388 c-1 -29 -1 -93 0 -142 l2 -89 -40 6 c-22 3 -40 1 -40 -4
0 -5 15 -9 34 -9 43 0 52 -12 64 -85 8 -48 9 -34 4 65 -4 69 -7 167 -7 218 1
97 -14 130 -17 40z"/>
<path d="M3545 1334 c-37 -19 -42 -24 -24 -24 8 0 25 9 39 20 30 24 25 25 -15
4z"/>
<path d="M2112 1266 c48 -23 120 -51 160 -61 119 -29 248 -52 248 -45 0 4 -20
10 -45 13 -95 14 -283 67 -353 101 -40 20 -78 36 -85 36 -6 0 27 -20 75 -44z"/>
<path d="M3115 1232 c-43 -5 -51 -18 -16 -25 38 -8 40 -24 4 -38 -20 -7 -29
-7 -34 3 -4 7 -15 22 -24 33 -15 19 -16 18 -10 -22 10 -64 -2 -119 -28 -131
-17 -8 10 -11 111 -11 103 -1 133 2 129 12 -4 13 -68 14 -144 1 -40 -6 -43 -5
-43 15 0 20 4 22 37 19 36 -3 38 -2 46 37 23 112 23 113 -28 107z m3 -107 c-2
-15 -9 -19 -28 -17 -31 5 -34 7 -27 26 4 10 17 15 32 14 20 -2 25 -7 23 -23z"/>
<path d="M2884 1168 c11 -90 -23 -203 -81 -272 -13 -16 -21 -31 -18 -35 10 -9
83 80 95 117 8 22 18 32 32 32 18 0 20 -4 14 -31 -3 -17 -6 -42 -6 -56 0 -20
-4 -23 -22 -18 -18 6 -20 4 -13 -11 4 -11 10 -27 12 -36 3 -10 9 -18 14 -18
16 0 27 42 44 171 9 68 21 136 25 151 12 38 -7 52 -50 37 -26 -9 -34 -9 -42 2
-7 10 -8 -1 -4 -33z m66 -22 c0 -19 -5 -38 -11 -41 -14 -9 -16 -6 -24 38 -7
33 -5 37 14 37 17 0 21 -6 21 -34z m-8 -91 c-5 -27 -10 -29 -30 -17 -17 11 -4
42 18 42 13 0 16 -6 12 -25z"/>
<path d="M6181 1173 c18 -70 19 -70 39 -45 23 28 18 43 -20 65 l-28 17 9 -37z"/>
<path d="M6446 1201 c-43 -9 -47 -33 -5 -29 29 3 34 0 37 -21 3 -21 1 -23 -30
-19 l-34 3 0 -62 c-1 -46 3 -63 13 -63 7 0 13 7 13 16 0 11 9 14 37 12 30 -2
38 -8 44 -28 7 -30 -6 -61 -24 -55 -6 3 -21 -9 -32 -25 -18 -28 -73 -65 -82
-56 -2 2 0 37 5 77 12 96 6 108 -53 102 -41 -5 -45 -4 -45 15 0 16 8 23 35 28
38 7 52 19 35 29 -7 4 -7 12 0 25 16 30 -8 68 -25 40 -3 -5 -24 -10 -46 -10
-28 0 -39 -4 -36 -12 2 -8 21 -13 46 -12 28 0 41 -3 41 -13 0 -14 -6 -17 -52
-27 -25 -6 -28 -11 -28 -47 0 -25 5 -42 14 -45 11 -4 12 -13 6 -35 -8 -27 -7
-28 11 -18 11 5 24 21 29 35 6 15 17 24 30 24 17 0 19 -3 11 -19 -6 -10 -7
-21 -4 -25 3 -3 -1 -6 -10 -6 -9 0 -20 -6 -24 -13 -15 -24 -93 -80 -100 -73
-5 4 4 18 20 30 15 12 24 25 21 29 -4 4 -13 2 -21 -4 -10 -9 -13 -7 -13 8 0
10 5 24 11 30 6 6 9 19 7 29 -3 16 -7 13 -21 -13 -10 -18 -33 -48 -52 -68 -35
-35 -35 -35 -20 -71 l15 -37 23 20 c12 11 44 30 72 42 27 12 58 29 69 39 18
17 19 16 13 -22 -8 -48 -13 -53 -36 -39 -27 17 -32 6 -13 -33 20 -40 25 -41
50 -9 11 14 25 25 32 25 7 0 37 14 66 31 l54 30 -3 -33 c-3 -27 -7 -33 -25
-31 -27 3 -28 -8 -3 -38 16 -20 21 -21 35 -10 23 19 36 78 39 173 l2 83 -48
-2 c-36 -2 -49 1 -54 13 -7 20 9 36 39 38 16 1 23 7 24 21 1 12 7 31 14 44 19
37 -5 47 -74 32z"/>
<path d="M1863 1114 c3 -4 35 -16 71 -29 35 -12 102 -43 148 -67 251 -136 374
-179 522 -180 55 -1 59 -2 72 -32 16 -38 18 -15 3 39 -7 22 -15 63 -20 90 l-8
50 2 -65 2 -65 -90 2 c-56 1 -113 9 -150 21 -49 16 -320 144 -415 197 -51 28
-156 58 -137 39z"/>
<path d="M5135 1110 c3 -5 14 -10 23 -10 15 0 15 2 2 10 -20 13 -33 13 -25 0z"/>
<path d="M6135 1083 c3 -10 9 -30 12 -45 3 -16 11 -28 19 -28 36 0 27 61 -12
79 -24 10 -26 10 -19 -6z"/>
<path d="M3800 1015 c0 -61 -5 -87 -20 -112 -21 -36 -159 -178 -205 -212 l-30
-23 40 23 c22 12 64 40 93 62 29 22 55 37 59 34 7 -7 6 -94 -1 -106 -3 -4 -12
-39 -20 -77 -21 -104 -85 -211 -164 -277 -87 -73 -205 -95 -312 -57 -30 11
-61 19 -68 20 -7 0 -55 20 -105 44 -75 35 -109 60 -180 127 -71 69 -94 99
-127 166 -22 46 -40 88 -40 95 0 6 -3 8 -6 5 -10 -10 36 -127 70 -177 16 -25
59 -73 95 -108 60 -57 63 -63 36 -56 -65 15 -173 53 -234 83 -68 33 -95 39
-89 19 2 -6 23 -17 46 -24 24 -6 63 -21 87 -33 25 -12 49 -21 54 -21 4 0 28
-9 52 -19 24 -11 67 -22 94 -26 28 -4 66 -17 85 -29 19 -13 49 -31 65 -42 127
-81 310 -90 440 -22 49 26 154 143 180 201 38 82 68 230 62 305 -5 60 -3 65
27 97 54 57 254 135 345 135 17 0 32 4 35 9 4 5 -12 7 -36 4 -52 -6 -239 -53
-253 -63 -5 -4 -21 -10 -35 -13 -25 -6 -25 -6 -22 53 2 32 -1 67 -7 77 -8 14
-10 -1 -11 -62z"/>
<path d="M5220 1080 c8 -5 22 -9 30 -9 10 0 8 3 -5 9 -27 12 -43 12 -25 0z"/>
<path d="M5280 1060 c8 -5 24 -10 35 -10 17 0 17 2 5 10 -8 5 -24 10 -35 10
-17 0 -17 -2 -5 -10z"/>
<path d="M5872 1053 c-9 -14 -35 -16 -273 -11 -234 4 -254 3 -179 -7 47 -7
160 -12 251 -11 l166 1 -10 -22 c-11 -26 -20 -29 -119 -48 l-73 -14 75 6 c41
3 85 7 98 8 15 1 29 14 41 35 21 40 42 55 65 47 38 -15 2 -97 -42 -97 -11 0
-30 -10 -43 -21 -36 -33 -116 -67 -189 -80 -83 -16 -362 -22 -415 -9 -22 5
-70 12 -107 15 -37 3 -109 18 -160 34 -51 16 -120 37 -153 45 -33 9 -100 32
-150 50 -94 35 -187 56 -246 56 -25 0 -30 -3 -19 -10 8 -5 30 -10 47 -10 33 0
174 -35 202 -51 19 -10 160 -54 216 -68 22 -6 66 -19 98 -31 58 -20 78 -25
172 -35 28 -3 57 -8 65 -11 27 -10 373 -4 435 7 91 15 157 39 186 65 14 13 29
24 35 24 38 0 86 24 99 50 21 40 19 57 -10 85 -28 29 -50 32 -63 8z"/>
<path d="M4213 1032 c-6 -4 22 -7 63 -7 41 0 74 3 74 8 0 9 -121 9 -137 -1z"/>
<path d="M3520 1020 l-25 -8 28 -1 c15 -1 27 4 27 9 0 6 -1 10 -2 9 -2 -1 -14
-5 -28 -9z"/>
<path d="M6442 980 c-17 -28 -29 -50 -27 -50 8 0 75 70 75 79 0 28 -21 15 -48
-29z"/>
<path d="M3001 973 c-26 -25 -30 -33 -17 -33 10 0 29 9 43 20 15 11 29 17 32
14 3 -4 0 -9 -6 -11 -7 -3 -13 -11 -13 -18 0 -8 -15 -24 -32 -36 -34 -24 -50
-41 -43 -47 6 -7 85 50 80 58 -3 4 2 10 10 14 8 3 15 12 15 20 0 17 27 29 35
16 10 -17 -72 -115 -115 -138 -42 -22 -86 -62 -70 -62 20 0 140 77 140 89 0 5
8 12 18 15 20 7 54 59 50 78 -2 8 8 14 25 16 26 3 27 1 21 -25 -8 -34 -47
-105 -68 -122 -8 -7 -24 -10 -36 -6 -16 5 -20 2 -20 -14 0 -48 76 -9 125 64
34 51 43 78 32 102 -8 19 -17 21 -79 21 -38 0 -74 4 -81 9 -8 6 -23 -2 -46
-24z"/>
<path d="M5340 940 c8 -5 22 -10 30 -10 13 0 13 1 0 10 -8 5 -22 10 -30 10
-13 0 -13 -1 0 -10z"/>
<path d="M5443 933 c31 -2 83 -2 115 0 31 2 5 3 -58 3 -63 0 -89 -1 -57 -3z"/>
<path d="M6354 678 c3 -13 6 -38 6 -55 0 -23 5 -33 15 -33 19 0 21 80 3 98
-19 19 -31 14 -24 -10z"/>
<path d="M6478 608 c-3 -42 -4 -43 -41 -46 -21 -2 -45 2 -53 9 -12 9 -17 10
-23 1 -3 -6 -27 -12 -51 -14 -45 -3 -45 -3 -45 29 0 18 -6 38 -12 44 -11 10
-13 1 -13 -49 l0 -63 63 6 c34 4 84 11 110 16 65 12 74 12 59 -3 -18 -18 -15
-40 6 -36 9 2 17 12 18 23 1 11 4 27 7 35 19 53 16 90 -8 90 -9 0 -15 -15 -17
-42z"/>
<path d="M6364 470 c1 -28 6 -50 11 -50 11 -1 18 47 10 77 -10 41 -23 25 -21
-27z"/>
<path d="M6230 439 c5 -18 7 -49 4 -70 -4 -21 -2 -39 4 -43 6 -3 48 1 94 10
46 9 99 17 118 18 35 1 35 1 32 -38 -5 -58 21 -41 35 25 17 82 16 107 -7 119
-11 6 -20 7 -21 3 0 -4 -1 -26 -2 -48 -2 -40 -2 -40 -45 -43 -33 -2 -47 1 -57
15 -13 17 -15 17 -30 -4 -12 -17 -26 -23 -55 -23 l-39 0 -3 52 c-2 40 -7 54
-20 56 -15 3 -16 -1 -8 -29z"/>
</g>
</svg>
