<svg xmlns="http://www.w3.org/2000/svg" width="800" height="1237"><path d="M292 766h4v3l-4 1 3 2 3-1 1 2h2v2h-2v2l-4 1 3 1c-1.098 2.993-1.677 3.846-4.625 5.25L291 785v2l-2.312.25c-3.259.91-3.787 2.072-5.688 4.75h-3v2h-3v-2h-2v3a99 99 0 0 1-5 3l-1 2h-3v-2l-1-1a180 180 0 0 1-1-6l-1.75 2.688c-2.466 3.698-5.102 7.164-8.25 10.312h2c-1 3-1 3-3.812 4.5L249 810l-2.062 1.625c-2.287 1.623-4.215 1.86-6.938 2.375l-1 2 6 1 .625-2.437L247 812c3.125-.812 3.125-.812 6-1l1 2 1.75-1.5C258 810 258 810 262 810c1.765-3.088 2-4.233 2-8l3-1c1.125 5.75 1.125 5.75 0 8l8 1v-3c1.375-1.687 1.375-1.687 3-3h2v-2h3v-2h2v3l-4 1h5v-2h3l1 3c2.294-3.44 3-4.723 3-9 1.75-2.75 1.75-2.75 4-5h4v2h-3c-1.125 1.833-1.125 1.833-2 4l1 3c-.278 2.34-.605 4.676-1 7h2l-2 4h-3v-2h-2v2l-3 1 1 4 4-2v-2h3c-.812 1.938-.812 1.938-2 4l-3 1 1 5 4-1v2h2l-1 7h-5v3c2.954-1.372 5.44-2.989 8-5l-1-4h5v-2c3.01-.934 3.867-1.044 7 0v2l7 1v-2h2v-3h2c-.565 3.955-1.418 6.902-4 10-3.095.706-5.837 1-9 1l-2 1h6v2h4a125 125 0 0 0 4-6h2l-.562 2.625c-.628 3.35-.628 3.35.25 6.5.312 2.875.312 2.875-1.313 5.188C319 844 319 844 316.563 844.438c-3.603.79-5.152 2.875-7.563 5.562 3.812-.515 5.38-1.26 8-4h3c-1.282 2.86-2.492 5.07-5 7h-4v5a668 668 0 0 0 5.375-2.812l3.023-1.583c2.83-1.497 2.83-1.497 4.602-4.605h2c-.613 2.962-1.254 4.38-3 7q-1.992.53-4 1a249 249 0 0 0-4 3h-2l1 4c4.147-2.376 4.147-2.376 7-6h6v2l-5 2h4l-1 4h-2l-1 5h2v2l2.813-2.5c2.812-2.5 2.812-2.5 6.187-2.5v4l3 1c-.312 2.875-.312 2.875-1 6l-3 2 .5 1.75c.5 2.25.5 2.25.5 6.25l.953-1.46c4.389-6.478 4.389-6.478 8.047-7.54h4v2l-1.75.563c-4.221 2.696-5.776 7.414-7.812 11.812-.492 4.07-.234 4.282 1.937 7.438 4.417 6.846 3.004 15.377 2.625 23.187l1.207-1.75 1.606-2.25 1.582-2.25L347 917h3c-1.548 3.177-3.26 6.237-5 9.313-3.32 6.065-3.32 6.065-5 12.687 1.266 3.284 1.266 3.284 3 6v2h2l.313-3.062c.84-4.815 2.503-8.57 4.687-12.938h3l-2 7 3-1-.93 3.39c-1.187 4.754-1.729 9.49-2.195 14.36l-.262 2.535c-.362 3.61-.613 7.079-.613 10.715l2 1 3-6h2l.367-1.977c.922-4.81 1.935-9.413 3.633-14.023h3l1 4 1-6h2c2.5 8.657 2.034 21.932-2 30h-2l-.812 1.875C362 979 362 979 359 981c-.724 2.06-.724 2.06-1 4 4.478-1.368 6.252-3.278 9-7l2-1.687c4.781-5.529 6.444-13.311 8-20.313h2l2 6 3-7h2c-.886 6.548-1.958 13.058-3.125 19.563l-.531 3.365c-1.178 6.387-2.347 10.226-7.719 14.1C373 993 373 993 371 994c2.329 2.157 3.39 3.015 6.625 2.938 2.425-.71 2.425-.71 3.5-2.5L382 992l.781-2.043A464 464 0 0 0 385 984h3v9l3-1c.405 6.752-1.317 10.475-5 16a88 88 0 0 1-5 3l1 3 1.828-1.496c.8-.64 1.599-1.281 2.422-1.942l2.39-1.933c2.222-1.534 3.727-2.2 6.36-2.629-1.017 5.956-4.325 8.244-8.906 11.68C384 1019 384 1019 382 1019l1 4 1.313-2 1.687-2h3v-3h2c-.45 4.832-1.439 7.631-5 11-3.25.813-3.25.813-6 1l-1 5c4.869-.596 9.328-1.57 14-3-.557 3.378-1.428 4.796-4.187 6.813-2.796 1.876-3.563 2.197-7.063 2.062A442 442 0 0 1 376 1037v4l3.063-.437L390 1039v3l-4 1v2c-3.477 1.59-6.164 2.415-10 2l-2-2c-1.51 3.386-1.51 3.386-2 7l2.063-.5c3.353-.57 6.54-.567 9.937-.5v2c-3.424 2.923-5.192 4.013-9.75 3.938C371 1056 371 1056 369 1053l-2 4c4.376.593 8.575 1.138 13 1v2c-5.203 2.243-8.343 3.556-14 2l-1-3c-3.224 1.67-3.224 1.67-3.687 4.625L361 1066h7c-.812 1.938-.812 1.938-2 4l-3 1v2h-6v2c7.54 1.079 7.54 1.079 15 0v-2h2l.625-2.062c2.657-5.677 6.698-10.176 12.375-12.938l3-1v-2c1.375-1.625 1.375-1.625 3-3h2l.184-2.266.253-2.984.247-2.953c.316-2.797.316-2.797.84-4.781 1.601-6.776.73-14.328-.587-21.079-1.707-9.479-.206-17.406 2.688-26.437 2.197-7.025 3.616-13.241 1.375-20.5-1.65-3.12-3.442-5.958-5.504-8.82C393 960 393 960 393 958l-3-1a80 80 0 0 1-3.625-6.75l-.945-1.883c-1.342-2.741-2.398-5.172-2.89-8.195-.32-2.272-.32-2.272-2.142-3.36-2.566-.869-5.162-1.565-7.78-2.258-5.887-1.637-10.217-3.153-13.555-8.616-1.728-3.43-2.063-4.986-2.063-8.938h2c1.008 1.61 1.008 1.61 2.125 3.75 2.812 4.64 5.749 6.6 10.875 8.25 2.598.532 5.17.982 7.8 1.313 2.862.894 3.708 2.137 5.2 4.687v2h2v-2l3-2c-.452-5.915-1.158-11.352-3-17h3c3.15 6.61 5.165 12.615 4 20l-2 3h4v2h2v-2l4-1c2.73-10.528 2.391-16.948-1.809-27.047-.943-2.337-1.672-4.497-2.191-6.953 3 1 3 1 4.316 3.074 7.928 16.625 7.928 16.625 5.008 26.125-.7 1.635-1.502 3.225-2.324 4.801h3v3h2l1-3 3 1-1 2h-2l-1 3c-2.062 1.188-2.062 1.188-4 2 2.84 0 5.237-.403 8-1l1-3c2.563-1.187 2.563-1.187 5-2l1 1h3l-2 5h2l-2 4h-3v2h-3v2c1.485-.396 2.963-.818 4.438-1.25l2.496-.703c2.266-.855 2.266-.855 2.851-3.156L426 947h4l2-.562c2.326-.51 3.757-.159 6 .562l-2 4 2.875-2c3.125-2 3.125-2 5.125-2v2l3 1 1-2h3c.676 1.715.676 1.715 1 4-1.145 2.254-1.145 2.254-2.812 4.563l-1.645 2.316L446 961l-2 3 3-1v3c-2 1.688-2 1.688-4 3l1 5h-2v2l-4 1-1 4 2-3h3c-1.324 4.706-4.122 7.514-7.441 10.938-1.737 1.983-1.737 1.983-2.051 4.605-.632 3.058-1.646 3.874-4.07 5.77l-1.942 1.55L425 1002c3.053.158 3.053.158 6-1l1 5h-2v3c-5.364 5.227-10.72 7.764-18.164 8.027L410 1017l1 3h-6v-3h3v-3l11-2h-5v-5h-3l.5 1.875c.5 2.125.5 2.125.5 4.125h-5l-1 3-5-1 1 1q.553 3.492 1 7h-2v4h2v4l2 1-1 6 1-1h2l1 4h3v3h-8c-.976 2.928-1.082 4.956-1 8h2v-2l3-1v-2l1.906-.297c5.33-.931 9.697-2.207 14.403-4.898C425 1041 425 1041 428 1041c-.25 2.375-.25 2.375-1 5-2.062 1.313-2.062 1.313-4 2v4l-4-1-.375 1.938L418 1055c-2.82 1.41-5.233 1.17-8.375 1.188l-3.46.042c-3.004-.218-4.644-.66-7.165-2.23l-1 5 7 1v3l2 1v3l9 1c.125 7.75.125 7.75-1 10h-4l-1 7h-2v2h-2l-2 4h-8c.254-1.902.254-1.902 1-4 1.777-.941 1.777-.941 3.938-1.562 3.505-1.025 3.892-1.183 6.062-4.438l-5-1v2h-4v3l-6-3v-2h-2c-2.172-2.962-3.836-5.507-5-9v5h2l1 5h2l-1 5h2c-.375 2.438-.375 2.438-1 5l-2 1 2 4-1.312 1.5c-2.252 3.335-3.36 6.703-4.688 10.5h-5v-2h2l.375-2.312C382 1101 382 1101 384 1098a75 75 0 0 0 1-5h-2l-2-3-1 2h-2v2h-3v-3h-2c.476 2.57 1.08 4.119 2.563 6.313 1.884 3.523 1.847 5.727 1.437 9.687-.835 2.46-1.853 4.657-3 7h-4l-1 4h-3l1-6-3-1c1.375-2.5 1.375-2.5 3-5h2c.333-4.245.439-6.355-2-9.937l-2-2.063-1 2h2l1 5h-2v-2c-2.987 1.042-3.855 1.702-5.266 4.602l-.984 3.023-1.016 3.04L357 1112c2.102-2.868 2.102-2.868 3-6h3c-.068 3.383-.185 6.023-2.414 8.695-4.224 3.703-8.79 7.305-14.586 7.305.386-2.798.801-3.82 2.938-5.75C351 1115 351 1115 353 1115l1-6-2.687 2.563c-1.657 1.398-1.657 1.398-3.313 2.437-2.687-.312-2.687-.312-5-1l-3 2c-2.332.08-4.668.088-7 0l-1 3h-2c0-4 0-4 2.5-6.75l2.5-2.25h-3v-3l2.813-.562c3.425-1.545 3.708-1.824 5.062-5.063L341 1097h4l-.867 1.672c-1.21 2.487-2.243 5.005-3.258 7.578l-1.07 2.703L339 1111c2.291-2.19 3.698-4.095 5-7h3v5l2.813-2c3.187-2 3.187-2 6.187-2v-7h-2v4h-2c-1.604-3.508-2.22-6.144-2-10h3v-8h6l-1.437-1.375C356 1081 356 1081 355 1079l-5 1c-1.187 3.56-1.097 6.438-1.062 10.188l.027 3.855L349 1097l-3-1-1-6h-4c-1.312-2.623-.896-4.23-.562-7.125l.308-2.758L341 1078h-2l.313 3.25L339 1085a174 174 0 0 1-5 4c-1.148 2.268-2.07 4.58-3.02 6.938-1.187 2.498-2.546 3.758-4.98 5.062 3.217-.348 4.592-.5 6.688-3.062L334 1096h2c-.326 2.938-.882 4.819-2.5 7.313-3.701 2.498-7.158 2.153-11.5 1.687a85 85 0 0 1-4-1v-3l2.75-1.187c6.664-3.717 9.1-10.165 12.25-16.813h3l.332-2.633c1.664-12.092 1.664-12.092 4.668-16.367l4-2 .438-2.375c.562-2.625.562-2.625 2.5-4.687 2.764-1.75 5.001-2.643 8.062-3.688 4.636-1.777 6.75-3.605 9.043-7.988 4.25-10.042 7.083-21.736 2.957-32.262-2.535-5.124-5.48-8.173-10.812-10.312-5.631-1.766-11.427-2.735-17.261-3.562-4.314-.65-7.322-1.69-10.927-4.126l-3-1-2 1.438c-4.533 2.36-8.984 1.8-14 1.562v-3a1204 1204 0 0 0-3.812 1.875l-2.145 1.055c-2.255 1.136-2.255 1.136-5.043 3.07-3.398.266-3.398.266-7.375.25l-3.96.016c-3.384-.246-5.643-.796-8.665-2.266l1.5 1.375C282 999 282 999 282 1001l-11-2 1 3-12-3 3 1c2.188 1.438 2.188 1.438 4 3v2l3 1v2l-7 1v-2c-2.652-1.075-5.284-2.095-8-3a36 36 0 0 0 2.125 6.625L258 1013l-1 2c-2.962-.613-4.38-1.254-7-3v-2l-1.863-.586-2.45-.789-2.425-.773C241 1007 241 1007 238 1005v-2h4v-2c-4.233-1.713-4.233-1.713-8.687-1.437L231 1000c-1.687-1.437-1.687-1.437-3-3h-2v2l2.875 1.313C232 1002 232 1002 234 1005c2.563.73 2.563.73 5 1v2l1.75.375c4.936 1.371 7.283 3.387 10.25 7.625v2l-4-1v2l-4-1-.187-1.875L242 1014a125 125 0 0 0-5-2l-1-3c-1.96-.99-1.96-.99-4.312-1.625l-2.364-.727c-2.1-.586-4.205-1.134-6.324-1.648 1.119 3.726 1.119 3.726 4 6v2h3c4 6.75 4 6.75 4 9l-4 1-1-3-5 1v-2l2-1c-3.093-2.977-3.093-2.977-7-4 .43 2.489.749 3.749 2.563 5.563L223 1021v3h-3a105 105 0 0 1-4-5h-1l1.5 1.375C218 1022 218 1022 218 1024h-3v2l-4-1v2c-3.669-.706-6.705-2.277-10-4v2h-2l1 4c-2.169-.506-4-1-6-2v-3l-4-1 3 2v3h-3v-2l-9-2v3h-2v2h-2l-1-4-4 1 1-6-3-1-1-9q-2.407.465-4.812.938l-2.708.527c-2.594.512-2.594.512-5.48 1.535l3 1c1.168 1.777 1.168 1.777 2.188 3.938l1.042 2.152c.77 1.91.77 1.91.77 3.91h-3l-1-2-2-.75c-2-1.25-2-1.25-2.75-4.375L154 1014h-6l-1-4 2-1v-5h3l1 4h2c-.124-1.977-.124-1.977-1-4-2.182-1.036-2.182-1.036-4.812-1.562-3.807-.906-6.117-2.033-9.188-4.438h-2v2h2l-1 7h-2v-4l-6-1 1 9h-2l-.812-2.437L128 1006l-3-1v-4h-2c.35-6.646 1.805-9.837 6-15h-3a250 250 0 0 0-4 6h-2c.41-2.947.76-4.696 2.625-7.062 1.649-1.855 1.649-1.855 1.063-4.188L123 979l4-1v-2a85 85 0 0 0-7 2c-2.333.04-4.667.044-7 0v2h7l-1 4c-11.957.788-11.957.788-16.062-2.312L101 979l-2.312-1.625L97 976v-3c2.962.613 4.38 1.254 7 3v2l5 1v-2h-2v-3h3l-1-1.812C108 970 108 970 108 967l-3-1 2-4c1.938.313 1.938.313 4 1l1 3a78 78 0 0 0 5 2l2.313 1.438c2.924 1.7 5.815 2.751 9.015 3.816C130 974 130 974 131 976h2v-3l11-1v-2l9 1v-2c5.905 1.136 10.664 3.77 14.184 8.637 1.832 1.669 1.832 1.669 4.777 1.289l3.414-.614 3.398-.574c2.923-.668 5.458-1.62 8.227-2.738h3l1 3 2.09-1.336c3.087-1.765 6.147-3.033 9.472-4.289 1.116-.425 2.23-.85 3.38-1.29 2.355-.835 4.622-1.549 7.058-2.085v-2c4.47-4 4.47-4 7-4-1.875 4.75-1.875 4.75-3 7l2.512.367c4.539.824 8.931 2.08 13.361 3.348 1.698.47 3.412.883 5.127 1.285l1-1-2.75-1.75c-2.77-1.918-4.97-3.794-7.25-6.25l-2 2c-2.125-.375-2.125-.375-4-1v-2h-2l-1-6h3v-2h-2l-4-7-1 2h-2l-2-4 1 2.313c1 2.687 1 2.687 1 5.687-3-1-3-1-4.133-2.863-2.72-6.713-3.619-12.916-3.867-20.137l-5-1-1 3-5-1-1 3h-2l-1-3h-2l-1-2c-2.527-.656-2.527-.656-5-1v3h-7v-2l-1 1 1 2h2l1 17h-2l-2-7-3 1v3h-2c-1.283-3.85-1.066-6.947-1-11h-3v2h2v3h-2l3 11h2v-2h3a418 418 0 0 1 2 3.813l1.125 2.144C178 960 178 960 178 963c-3-1-3-1-5-3h-2c-1.635-1.742-3.078-3.598-4.562-5.469L165 953h-2a895 895 0 0 1-1.5-4.812l-.844-2.708C160 943 160 943 160 940h3l1-2h-3l1-8-2 3h-2c.75-6.75.75-6.75 3-9l-2-3-1.375 2-1.625 2h-2c-.7-3.153-1-5.727-1-9l-1.375 1.5C150 919 150 919 148 919c.375-2.437.375-2.437 1-5l2-1-2-2c-3.871 2.581-6.941 5.55-9.687 9.313L138 922h-2c1.289-4.715 3.025-7.648 6.313-11.25l2.3-2.578c3.324-3.025 5.9-4.172 10.387-4.172v-2l-6 1v-2h-2c.063-1.812.063-1.812 1-4 5.817-3.324 10.881-3.824 17.5-2.5l1.5.5v-2h-5v-2l-9 1-.437-2.312c-.526-2.77-.526-2.77-1.563-5.688 5.875 1.875 5.875 1.875 7 3q3.493.553 7 1v-3l3-1-7-1 1 3c-3.159-.075-5.3-.375-7.7-2.52-2.434-2.8-4.115-4.926-5.3-8.48h2l-2-6 2-1-3-12h3v-4l3 1c1.188 3.063 1.188 3.063 2 6l-.437-2.195c-.959-4.99-1.84-9.698-1.563-14.805h3l1-9 4-1c1.666-2.556 1.666-2.556 3-5.687 3.232-6.89 3.232-6.89 5.25-9.75 1.683-2.465 2.76-4.759 3.75-7.563h2l1 3 2-4h3l.313-2.75c.7-3.31 1.267-4.92 3.687-7.25h4l.688-1.875c1.691-2.74 3.304-3.175 6.312-4.125v-2l5-1 1 2h2c-.492 6.4-.492 6.4-3.062 9.438L200 802l-3-1c-2.2.516-2.2.516-4 2-.812 2.555-.812 2.555-1 5l1.375-2.5L195 803h2c-.787 3.41-1.871 6.689-3 10 2.967.989 4.511 1.079 7.563.813l2.378-.168c2.235-.452 2.235-.452 3.254-2.594L208 809c1.721-2.131 2.735-2.916 5.375-3.75 3.37-1.605 4.565-3.683 6.512-6.79L221 797h2v-2c5.294-4 5.294-4 9-4v2h5l1-3h2l1 1 3 1-4 4 8-2v-2h2l.844-1.734a101 101 0 0 1 3.656-6.516l1.281-2.14L257 780h2l.875-1.875C261 776 261 776 263 774v-2h11l1-3h2v2c2.489-.43 3.749-.749 5.563-2.562L284 767h3v2l5-1zm-3 5-1 2 3-1zm-19 4v2l-4 1v2h-2v-2h-2l-.75 3c-1.208 4.281-3.158 8.09-5.25 12h2l1 2v-3h2l3-6h-2l1.5-1.375c1.726-1.501 1.726-1.501 1.5-3.625l2.313-.312c2.871-.735 3.917-1.36 5.687-3.688v-2zm15-1a91 91 0 0 0-4 4v2l-3 1 1 2 7-6zm4 1c-1.666 1.165-1.666 1.165-3 3 .23 2.655.23 2.655 1 5l-2 1 4 1v-2l2-1-1-3 3-1-3-1zm-14 1 2 4v-2l2-1zm1 7 1 2 1-2zm5 0 1 2Zm-16 1 1 2Zm15 1-4 4h2v2h3v-3l3-1zm-14 1v2l3-1zm6 1-1 2h2zm-17 1-1 2h2zm10 0 1 2Zm9 2 1 2Zm-76.125 4L196 796c3.726-1.119 3.726-1.119 6-4-2.244-.228-2.244-.228-4.125 2M271 792l-1 2h2zm-2 2-1 2h2zm-42 1v2l-1.687.625c-3.283 1.952-5.02 4.317-7.313 7.375v2l-4 1 2 1v2l6-2v-2h3v2h2l1-4h-2l2-5h2l-1-5zm30 0 1 2Zm-22 2v3l4-3zm16 0c-2.5 2.174-3.436 3.73-4 7l4-1v-2l3-1-2-1zm-19 7c-2.22 2.48-4.19 5.015-6.113 7.73-2.058 2.475-4.095 3.718-6.887 5.27v1l3.813.438c2.614.3 4.661.72 7.187 1.562l1 3c2.277-2.815 2.277-2.815 2-6h2c1.363-1.79 1.363-1.79 2.625-4l1.352-2.25L240 809h-3v-3l4-1-1-4h2v2h2v-2l3-1-1-2c-5.813 0-9.445 2.514-14 6m-43-2-3 2 3 1zm55 2v2l3-1zm-57 2c-1.875 3.868-1.875 3.868-1 8l3-8zm103 0 1 2 1-2zm-48 0-2 1 1 2 2-1zm42 1-2 2 4 1v-3zm-19 3 1 2Zm-54 0-3 2 1 2 3-2zm57 1 1 3Zm10 0a105 105 0 0 0-4 5l1 2h3l-1 3h2l1 3h3l1 2 2-7h2l-1-3v2h-2l1-5-3-2c-1.562 1.312-1.562 1.312-3 3v3h-2l2-6zm-96 1 1 2Zm78 0-1 2h2zm4 0 1 2Zm-86 2 1 2Zm69.875 2L246 818l4 3 2-3h-2l2-4c-2.244-.228-2.244-.228-4.125 2m9.125-2 1 2Zm6 0-1 2h2zm-82 1-1 3h3l-1-3zm18 0 1 2Zm4 0-2 6c3.122-1.309 3.122-1.309 5-4h-2zm9.375 2.375c-2.599 2.282-2.599 2.282-2.375 4.625 1.923-.04 1.923-.04 4-1 1.784-2.984 1.784-2.984 3-6-2.343-.224-2.343-.224-4.625 2.375M261 816l-1.61 1.023-2.14 1.352-2.11 1.336c-2.005 1.208-4.032 2.273-6.14 3.289 3.129 1.564 6.098.602 9.492.156 2.447-.152 4.187.11 6.508.844l2 7h1l1-8h-3l-1-2-3 1 .625-1.875L263 818zm-71 1v3Zm4 0 1 2Zm4 0 1 2Zm70 0-2 3 3-1zm-83 1v3Zm89 0 1 3Zm-102 2 2 2v-2zm16 0v3Zm54 0 4 2-.062 2.438c-.234 2.496-.234 2.496 1.062 3.562q3.5.062 7 0l1-2-7 1-1-6zm-59 1 1 2Zm86 0 1 2Zm4 0 1 2Zm-47 1 1 3v-3zm9 0-2 3 10 2-1-4-6 1zm56 0-1 2h2zm-112 1 1 2Zm37 0v2h7l-1-2zm-41 1-1 4 2-4zm11-1-4 2h5zm4 3v2h-2v2l-1.824.258c-2.807.957-3.416 2.142-4.988 4.617-2.89 4.114-5.506 5.252-10.188 7.125-4.294 4.107-5.645 7.083-6 13 3.356-1.389 5.073-2.917 7-6v-2q2.405-.292 4.813-.562l2.707-.317C182 846 182 846 185 847v4l-12 1c3.564 3.564 6.177 3.886 11 4 2.39-.193 4.639-.557 7-1v6l-3 1-1 3-2.875-.062c-3.032-.164-3.032-.164-5.125 1.062v-2l-4-1-2 3-3 1v-3l2-1h-2l-1-2-4 5h3v2c10.462 3.036 10.462 3.036 21 2v-4l2 1v5l-6 1v5h-2v5l-7 1 1 7 2-1v-2l3-1v-2l13-1v2c4.076 5.162 8.934 6.81 15 9l2 1 .875-3.437L214 889l2-1-4-1v-2l-4-2c-.125-6.625-.125-6.625 1-10h-3v-8h4l-1 5c4.495-.509 8.879-1.164 13.313-2.062 5.598-1.059 11.007-1.136 16.687-.938l1-2 3-1-6 6c-.562 3.373-1 6.578-1 10l3-1h4v2l-2.187.375c-2.79.532-2.79.532-5.188 1.625-3.183 1.212-6.256 1.563-9.625 2l-3 1v2l-2.812.688c-3.695 1.52-4.513 2.776-6.188 6.312 4.561-.537 7.238-2.467 11-5 3.375-1.25 3.375-1.25 6-2l-1 2h-3v2l-5 2v1c8.004.804 8.004.804 15.063-2.25L239 890l1.813-2.187c1.37-1.73 1.37-1.73 1.187-3.813 3.39-.904 6.695-1.149 10.188-1.25l2.605-.078L257 883c2.68 4.019 2.156 6.242 2 11h2v3l-2.703.297-3.547.453-3.516.422c-3.645.933-4.82 2.03-7.234 4.828l-3 2 7 1v3l-2.625-1.062c-5.353-1.487-8.474-.388-13.375 2.062l9 2v3l-2.309-.805c-6.178-2.113-12.232-4.17-18.691-5.195l-3 2 2.598.988c17.179 6.566 17.179 6.566 18.402 9.012l-1.605-.658c-2.398-.978-4.803-1.942-7.208-2.904l-2.525-1.038-2.432-.966-2.237-.905c-2.176-.773-2.176-.773-4.993.471 2.815 2.277 2.815 2.277 6 2v3l-9-4-1 3-2 1v-7c-8.778-4.092-15.4-5.747-25-4l-1-2-9 2c2.657 3.305 2.657 3.305 6.063 3.25 3.024-.192 5.991-.473 9-.812 3.852-.424 7.13-.34 10.937.562v3l-3-1v2c-6.055.195-6.055.195-8 0l-2-2c-2.476.64-2.476.64-5 2-1.36 2.524-1.36 2.524-2 5h-2v4c-2.526-2.363-3.888-3.665-5-7l-3 1c-1.219 2.504-1.219 2.504-2 5 3.8 4.262 3.8 4.262 9 6a424 424 0 0 0 5.806-1.546c3.703-.766 7.268-.37 11.006-.016 5.654.593 5.654.593 11.188-.438l1 2h2v-3h2v-2c6.697 1.893 13.397 3.8 20 6l1 5-3-1v2l-2 1 1.563 2.813C231 944 231 944 230 947h2l1 3h3l3 6c-4.003-2.173-6.904-4.666-10-8l-2.125-2.125c-2.79-4.277-3.734-8.938-4.875-13.875-1.565 1.357-1.565 1.357-3 3 .228 2.163.228 2.163 1 4h-3l-1-3 1 9 1-2h3l.313 2.125c.78 3.266 2.108 5.922 3.687 8.875l-2 1 1.938.375L227 956l1 2h2l.188 1.75c1.15 3.184 3.069 4.356 5.812 6.25 6.728 2.243 13.725 1.044 20.5-.512 2.532-.494 4.926-.63 7.5-.738 5.8-.488 10.496-3.137 15-6.75v-2h3v3l-6 3v2c-7.29 2.171-13.692 3.31-21.309 2.813-4.592.32-7.679 2.858-10.691 6.187 7.45 4.354 7.45 4.354 16 5l2.375-1c2.666-1.016 4.134-1.077 6.938-1 7.408.148 12.724-1.456 18.687-6l2-2h3l-2.5 2.375c-2.73 2.262-2.73 2.262-2.5 4.625-4.69 2.302-9.314 2.574-14.437 3-5.543.463-10.272 1.214-15.563 3-7.746.685-14.05.475-21-3-2.345.184-2.345.184-4 1l1 2c-3.042.081-6.082.14-9.125.188l-2.594.076c-5.162.06-8.873-.243-13.281-3.264l-1-3-4 1c3.432 5.884 8.794 7.204 15 9l2.785.484L224 986l1 2-9-1 2 1v2c-3.065-.033-6.124-.1-9.187-.187l-2.62-.018c-4.548-.157-6.559-.267-10.162-3.264L194 984c-2.166-1.295-2.166-1.295-4-2l-1 4q2.089 1.445 4.188 2.875l2.355 1.617c3.517 2.159 6.3 3.508 10.457 3.508v2l-12-2-1 2c-4.905-.118-8.062-.222-11.937-3.437L179 990l-2-2-2 2c2.746 4.647 5.156 7.32 10 10h3v2c-7.75-.875-7.75-.875-10-2v3c-1.462-.424-2.92-.865-4.375-1.312l-2.46-.739C169 1000 169 1000 167 997h-2l-3-9h-4c.445 5.044 2.61 7.444 6 11h2l-1 4c7.84 4.194 15.048 7.43 24 5 2.72-1.232 5.354-2.618 8-4a868 868 0 0 1 3.965-1.965l3.972-1.972 2.114-1.05c3.733-1.866 7.398-3.796 11.012-5.888 6.93-3.868 13.49-4.388 21.304-4.836 3.389-.27 6.61-.774 9.946-1.414 8.705-1.536 15.506.149 23.687 3.125q2.373.787 4.75 1.563c2.365.776 4.55 1.576 6.813 2.625 3.514 1.171 6.804 1.387 10.437.812 1.675-.902 3.349-1.815 4.941-2.855 3.54-1.968 7.424-2.962 11.29-4.118 2.786-1.033 4.663-1.93 6.769-4.027.44-3.832.44-3.832-1.316-5.5L315 977c-1.508-1.994-2.955-4.024-4.402-6.062-3.58-4.343-7.286-5.6-12.575-6.997-2.588-1.204-2.982-2.34-4.023-4.941l-1.562-2.5c-2.628-4.57-2.549-8.51-2.5-13.75l.027-3.828L290 936l-4-2-1 4-9-4v3h-2v-2h-3v-2l2-1-5-1v3h2v2h2l1 3q3.48 1.546 7 3c1.938 1.688 1.938 1.688 3 3l-6-2v2l-6-2-1 4 1.938.875C274 949 274 949 275 951c-6.713-2.486-6.713-2.486-8.187-5.125L266 944c-2.13-.799-3.733-1-6-1l-1-3h-2l-1-3h-2l-.687-1.937c-1.16-2.707-2.477-4.994-4-7.5-1.858-3.248-2.329-4.266-2.125-8.125L248 917h2v-3l2-.312c3.163-.638 3.163-.638 6.625-2.188 3.363-1.333 6.267-1.705 9.875-1.875 5.548-.415 9.45-1.723 13.5-5.625 2.031-2.86 3.552-5.812 5-9l1.375-2.625c.907-3.447.5-5.941-.375-9.375-2.833-3.486-5.218-4.597-9.5-5.75-5.041-1.687-5.041-1.687-7.07-4.176A40 40 0 0 1 269 867l-1-3c1.875.625 1.875.625 4 2a253 253 0 0 1 2 6l3 1 2-1 1 2v-2l3 1c1.728.068 3.458.085 5.188.063l2.73-.028L293 873c-3.25-3.25-7.59-2.78-12.031-3.242C278 869 278 869 276.719 867.18L276 865l-1.125-2.25L274 861c2.224-.87 4.453-1.72 6.688-2.562l1.896-.749c3.862-1.435 6.507-2.154 10.416-.689 2.063 1.488 2.063 1.488 4 3.313l2.063 1.898L301 864a335 335 0 0 0 5 4v-3h-2l-.223-2.293c-.99-3.447-2.208-4.158-5.214-6.02l-2.434-1.55c-2.02-1.294-2.02-1.294-4.129-1.137v-2c-4.33-3.775-7.359-4.422-13.047-4.238-2.03.136-2.03.136-3.953 1.238-1.955.123-3.916.176-5.875.188l-3.18.042c-2.929-.229-4.418-.846-6.945-2.23h-3v-2c3.377.537 6.697 1.11 10 2v-3h-2v-2c-1.715-1.588-1.715-1.588-3.875-3.125l-2.18-1.633c-1.841-1.421-1.841-1.421-3.945-1.242v-2c-9.637-4.088-17.667-5.541-28.12-4.99-5.209.228-8.275-.263-12.88-3.01-7.86-2.794-15.118-2.627-23 0m99-2 1 2Zm-34 1v1h5v-1zm55-1-4 3v-2l-3 1 2 1v2h-3l1 2 7-4zm-140 3 1 2Zm109 0 1 2 2-1zm8 0 1 2Zm-5 2 1 2Zm-18 1 1 4Zm19 1 1 3Zm5 0 1 2Zm-123 1 1 2Zm114 0 1 3Zm-104 2v3l2-3zm122 0-2 3 2 1 2-4zm6 0-2 3 2 2v-2l2-1zm6 1v2l3-1zm-145 1 1 2Zm99 1 2 2v-2zm24-1-3 2h7zm-127 2v5h1v-5zm120 0 1 2 2-2zm11 0 1.438 1.625c1.844 2.803 2.187 5.071 2.562 8.375l2-1-1-7zm17-1-2 1v2l-5-1v2h-2l1 5 1.75-1.437c2.22-1.542 3.667-1.98 6.25-2.563l3-2h-2zm-42 2v1h6v-1zm48 0 1 2Zm4 0 1 2 1-2zm-41 1-1 5h2v-5zm-4 1 1 2Zm16 0 2 2v-2zm-8 1v3h2v-3zm10 1 1 3Zm-131 1 1 3Zm139 5 3 2 3-1c-1.066-1.296-1.066-1.296-3.562-1.062zm-138 1 1 5h1v-5zm-3 2c.467 5.414 1.243 9.205 4 14 1.217-1.765 1.217-1.765 2-4-.783-2.235-.783-2.235-2-4h-2l-1-6zm148 0 1 2Zm-6 1 3 2v-2zm-149 3 1 2Zm157 0 1 4Zm-131 3 1 2Zm102 3c.58 1.999.58 1.999 2 4 3.618 1.573 6.02 2 10 2l-1-3h-5l1-3 5-1v2h3l.75 3.375c.884 3.56.884 3.56 2.938 5.063 3.141.764 6.094.686 9.312.562l-3-2a228 228 0 0 1-3.937-3.437C292.7 859.996 288.279 857.36 279 862m-100-1 1 2Zm-25 4 1 5-3-1c.276 1.94.276 1.94 1 4l3 2v-2h3l1 4h-2l1 3 4-1h-2v-2l4-1-2.375-.75c-3.092-1.472-3.318-2.2-4.625-5.25a174 174 0 0 0-4-5m4 0 1 2Zm5 1 1 2 1-2zm148 1 1 3c1.907.914 1.907.914 4 1l2-2h-2v-2zm-151 2 2 3 2-1zm54 4c-1.202 4.086-1.202 4.086 0 8h3v2l-5-1v2c6.908 1.507 10.829.328 17-3l-1-4 1.875.625L232 878c2.35-1.898 2.35-1.898 2.125-5.125L234 870c-2.397-.081-4.79-.14-7.187-.187l-2.042-.077c-4.45-.065-7.287.432-10.771 3.264m-47-1-1 2 2 2 2-4zm9 0-2 2 5 1v5l3-2c.25-2.584.25-2.584 0-5-2.9-.678-2.9-.678-6-1m155 1-.187 1.875L330 877a95 95 0 0 1-5 2 296 296 0 0 0-5.312 2.625l-2.676 1.352L315 884v3l3.813.125 2.144.07c2.357-.062 2.357-.062 5.043-2.195h-3c1.4-2.8 3.266-3.568 6-5h3v-7zm-10 1-1 2 3-1zm-165 1 1 2Zm15 0-1 5h2v-5zm135 0-3 2 3 1zm11 0-2 1v4l7-1-2-1v-2zm-107 2v5h2l-1-5zm79 0 2 3v-3zm7 0 2 2c.4 2.323.74 4.657 1 7h1v-9zm16 1 1 3Zm-140 2v1h6v-1zm123 0 1 4Zm-138 1 1 2 2-1zm147 2 1 2 1-2zm24 0-1 2 2 2 1-4zm-84.062 4-.938 2 1 2 1.688-1.5c2.707-1.756 4.146-1.842 7.312-1.5 1 1 1 1 1.063 4.063L254 895l4-1h-2l.625-3.375L257 887c-2.403-2.403-3.139-2.32-6.437-2.375-3.75.015-3.75.015-6.625 2.375M297 886v2l-2 1 4-1v-2zm6 0 1 4 1-2zm-120 3c-3.126 3-3.126 3-4 7l-8 2c-.77 2.345-.77 2.345-1 5 1.62 2.52 2.779 2.943 5.688 3.688L178 907l-1-5h8l1 4c2.9.678 2.9.678 6 1l2-2-1-3 1-2h5l.75 2.438c.974 2.699.974 2.699 3.25 3.437 2.073.298 2.073.298 4-.875v-2l3-1c-1.25-3.653-1.671-4.78-5-7l-3.437-.812c-4.102-1.368-5.048-2.806-7.563-6.188-3.774-1.952-7.231-.48-11 1m126 0 1 2Zm15 0c-2.48.195-2.48.195-5.187.125l-2.731-.055L314 889v2l-3 1 4 1v2q-2.222-.676-4.437-1.375l-2.497-.773C306 892 306 892 305 890v3l-2 1c1.67 3.224 1.67 3.224 4.625 3.688L310 898l-1 5-9-2v2c1.559 1.357 1.559 1.357 3.5 2.625l1.969 1.352L307 908l1-3 1.906.613c5.295 1.48 5.295 1.48 10.54.407 1.95-1.249 3.774-2.538 5.554-4.02l-3.125 5.273c-1.026 1.702-1.026 1.702-.875 3.727-1.77.222-3.54.427-5.312.625l-2.989.352C311 912 311 912 308 910l-2 1v2l-4-1 2 4-3 1 5 1v3l-3.25-1.062c-4.004-1.005-4.004-1.005-7.75.062 1.312 1.562 1.312 1.562 3 3h3v3l-5-2c-4.189 14.38-4.189 14.38-1.746 28.676 3.838 5.44 8.372 8.468 14.746 10.324h2v2h2l2 6h2l.328 1.715c.776 2.638 1.914 4.55 3.422 6.847l1.484 2.317c3.961 4.758 10.123 6.71 15.704 9.058l2.54 1.073a131 131 0 0 0 18.542 6.103c3.268.973 6.04 2.156 8.98 3.887 3.606 6.715 4.164 12.875 4.125 20.375l.012 2.21c-.008 4.572-.387 8.905-1.137 13.415 2.394-.92 2.394-.92 3.324-4.316q.694-2.12 1.363-4.246l.721-2.096c2.742-8.63.817-14.918-3.22-22.78l-1.042-2.177c-1.128-2.328-1.128-2.328-3.146-5.385a58 58 0 0 0-4-1c-1.441-2.276-2.144-4.433-3-7-1.946-.59-1.946-.59-4-1l-2-2-2 3c-4.188 1.512-6.948.602-11-1-1-6.625-1-6.625-1-10h6v4h-3l1 4 5 1 1-3h2c.338-3.628.347-5.473-1.687-8.562-2.272-2.48-2.272-2.48-4.868-4.614-2.928-3.382-3.391-6.165-3.882-10.449-.787-5.411-1.851-9.508-4.75-14.25-4.84-8.057-2.86-15.365-1.266-24.227.932-5.963 1.289-11.404-1.547-16.898-.816 2.922-1.176 5.664-1.375 8.688-.277 3.562-.732 7.002-1.46 10.496-2.387 11.148-2.387 11.148.835 21.816 7.516 14.767 7.516 14.767 6 24-1.258 3.709-2.307 5.403-5.25 7.938-3.75 1.448-5.886 1.118-9.75.062-2.074-2.906-2.074-2.906-3.687-6.5-1.787-4.653-1.787-4.653-5.52-7.406L314 964v-2c-2.12-1.417-2.12-1.417-4.75-2.812-3.938-2.3-6.925-4.144-9.25-8.188-1.189-4.776-.754-8.302.375-13.062l.836-3.598L302 931c.341-1.665.678-3.331 1-5l2.16.254c6.775.72 12.316.92 18.84-1.254l1 2h-2l-1.5 1.875c-3.634 3.09-7.765 3.928-12.5 4.125-2.312-.96-2.312-.96-4-2l-2 6c6.476.235 13.094-.047 19-3v-2h4l-1.5 1.813c-1.783 2.157-1.783 2.157-1.5 5.187l-4 2-1.86 1.055c-2.387 1.054-4.042 1.213-6.64 1.195l-2.281.016c-2.449-.293-4.092-1.048-6.219-2.266v5h2l2 5c5.966-.508 10.638-2.386 16-5v-2l6-1-.14-1.66c-.257-5.638.554-10.292 2.14-15.715 2.013-6.971 4.06-14.779 1.094-21.758a174 174 0 0 0-2.203-3.777c-1.76-4.13-1.182-8.689-.891-13.09-1.462-.092-1.462-.092-4 2m-75 1 1 3 1-3zm49 1 1 2Zm-125 1v2h3v-2zm68 0-2 3 3-1zm58 1 1 2Zm-54 1-1 2 3-1zm51 1 1 2Zm4 0 1 2Zm31 0 1 3Zm-176 2-2 2 5-1zm136 0 1 3Zm10 0 1 3h3l-1-3zm-84 1v2h-5v2h8l1-3zm12 0v2l-6 1v1c5.802.363 9.64-.743 15-3v-1zm103 0 1 5 1-3zm-173 1c-1.772 1.354-1.772 1.354-3 3h6l1-2c-1.837-.772-1.837-.772-4-1m81 1-2 4h3l2-4zm52 0 1 3v-3zm4 1 1 2Zm-9 1 1 2 2-1zm-106 1v2h2v-2zm113 0 2 4 1-2-1-2zm-76 1v2l3-1zm6 1 1 2 8-1v-1zm61 0v2h-2l2 8 4-1v-3h2l-1-4 4 2-2-4zm-131 1 1 2Zm5 1-1 2 5-1zm121 2 1 2Zm14 0 1 3 2-1zm-140 1 1 2Zm146 0 2 2v-2zm-19 1 1 2Zm10 0 1 2Zm-78 1 3 2v-2zm65 0 1 2Zm-14 2 1 2Zm7 0 1 2Zm18 0 2 2v-2zm-110 2 1 2Zm93 0 2 6h3a250 250 0 0 0-4-6zm19 0 2 3h2v-2zm-129 1-2 3 4 1v-4zm115 0 1 2Zm-18 2c.344 2.473.344 2.473 1 5l2 1-2-6zm-92 1-1 2h2zm85 0v4l2-1zm3 0 1 2Zm24 0 1 3v-3zm-12 1 1 3 2-1-1-2zm-102 1 1 2Zm123 0 1 2 1-2zm-11 1 1 3 2-1zm4 0 2 2v-2zm-31 1 1 2Zm7 0 1 2Zm13 0 1 2Zm-8 1 1 3v-3zm30 0 1 2Zm-34 1v3h2l-1-3zm25-1-3 2c1.391 2.782 3.302 3.552 6 5h2v-3h3v3l-2 1 2 3 1-9-3.375-.437C285 926 285 926 283 925m-15 2 1 2Zm71 0 1 2Zm-170 1-2 5h2l1 4v-9zm95 0 1 3 2-1zm-49 1v6l.375-1.937L216 931l2-1zm42 1 1 2Zm4 0c1.049 2.622 1.65 3.794 4.125 5.25L267 936a318 318 0 0 0-5-6zm-49 2v8h1v-8zm-40 1 1 3Zm57 0 1 2Zm33 3v2l-2 1 6 1zm5 0v2l2-1zm121 2 1 2Zm-217 1 1 3Zm100 0 2 2v-2zm-45 1 2 2v-2zm40 0 2 2v-2zm83 0 1 2Zm-139 2 1 3Zm194 0 1 2 2-2zm-76 1-.777 1.863c-3.09 6.523-3.09 6.523-6.559 8.403-2.214.712-4.38 1.301-6.664 1.734v2l6 2c4.34-4.211 4.34-4.211 8-9v-2h2l-1-5zm65 0 1 2Zm25 0 1 2Zm-247 1 1 2Zm43 0 1 2Zm134 0c-1.974 4.76-2.007 7.965-1 13h1l1-13zm41 0 1 3Zm30 1a125 125 0 0 0-3 4l5-1-1-3zm-204 1 1 2Zm4 1 1 2Zm171 0 1 2Zm1 3 2 2v-2zm24-1-2 2h3zm-4 2-1 2 3-1zm-16 1 1 2Zm-64 1c-1.58 1.941-2.954 3.99-4.367 6.055-1.737 2.07-3.157 2.927-5.633 3.945l3 4c4.785-2.485 7.86-4.48 11-9l-2-5zm116 0 1 2Zm-33 1 1 2 1-2zm31 2-1 2h2zm-82 1 1 3Zm53 0 1 6 1-3zm21 0 1 2 1-2zm-212 1-2 2 3 2zm203 5c-2.452 2.416-2.452 2.416-4 5l1 3 1.375-2.437C428 966 428 966 430 965v-2l1.813-.312c2.47-.777 3.51-1.759 5.187-3.688-4.096 0-5.76 1.554-9 4m-66-3-1.125 3.25c-1.744 4.153-3.998 5.596-7.875 7.75l1 2h2v2h2c4.446-6.944 4.446-6.944 5-15zm80-1-3 3 4-1zm-32 2 1.438 1.125c2.084 2.501 2.208 4.69 2.562 7.875l3 1-.312-3.875-.176-2.18c-.386-2.34-.386-2.34-3.512-3.945zm-8 1c.344 2.473.344 2.473 1 5l2 1v-2l5-1-3-1-2 1v-3zm-69.562 3.375c-2.665 2.272-2.665 2.272-2.438 4.625h-4l1 3c3.76-.522 6.368-1.173 9-4 .334-3.126.334-3.126 0-6-1.46-.113-1.46-.113-3.562 2.375M418 963c-.25 2.416-.25 2.416 0 5l3 2 2-4h-3l1-4c-1.224-.075-1.224-.075-3 1m-7 3 1 2Zm-32 2-1 2h2zm28 0v2h2v2h-3v2h4l1-6zm26 1-2 4 4-4zm-320 1 2 4 4-1-4-1v-2zm325 0-1 2 3-1zm-60 1 1 3Zm39 0v3l-4-1v2l-2.375.313c-2.955.463-2.955.463-4.625 3.687-.287 4.148-.287 4.148 1 8l7-1v-3l2-1 1 3 1-2-1-3h-2l1.375-2.187c1.48-2.562 2.597-5.046 3.625-7.813-1.224-.075-1.224-.075-3 1m-205 1 1 2h2v-2zm210 0-2 5 3-3zm4 0 1 2Zm9 0-1 3h2v2h2l-1-5zm-283 2 2 4 3-2zm225 0 1 3Zm48 0 1 2Zm4 0 1 2 1-2zm-317 2 1 2Zm33 1v2l2-1zm79 0v1h5v-1zm152 0-4 6 1 2c2.128-2.306 2.128-2.306 4-5zm58 0 1 2Zm-271 1v2l2-1zm32 1c.998 2.494 1.686 3.787 3.938 5.313 2.218.968 2.218.968 5.062-.313-1.788-3.058-1.788-3.058-4-6-2.925-.224-2.925-.224-5 1m236-1-1 2h2zm-303 3h2l1 3 2-4h3l-1 4h4v-2h-2v-3c-5.02-.503-5.02-.503-9 2m12-2v2l2-1zm286 0v3h-3l1 4-5 3-1-2-13 2 3 1v3h-2v3l-2 1c2.938.08 5.874.14 8.813.188l2.525.076 2.432.029 2.237.048c2.576-.44 3.398-1.308 4.993-3.341 1.266-3.199 2-5.552 2-9l3-1-1-4v2h-2zm-242 1v2l-3-1c-2.066.278-2.066.278-4.25.875-3.914.948-7.757 1.615-11.75 2.125v2q3.563-.174 7.125-.375c.665-.03 1.33-.062 2.016-.094 4.257-.25 7.88-1.006 11.859-2.531v-3zm-40.75 4.25c-1.47 2.058-2.1 3.21-2.25 5.75 2.019 5.047 5.28 6.769 10 9l2-1-2.375-1.937c-3.455-3.387-3.948-7.424-4.625-12.063l4-1c-3.608-.32-3.608-.32-6.75 1.25M433 984l1 2Zm-68 4v2c3.653-1.25 4.78-1.671 7-5-2.943 0-4.615 1.368-7 3m-49 0v2l-2 1 9-2-1-3c-2.463 0-3.852.855-6 2m-180-1v2h2v-2zm15 0 1 7 3 1-1-8zm30 1 6 2-1-4c-2.324-.185-2.324-.185-5 2m-47 1-1 3 1 2-4 1-1 4c1.847.692 1.847.692 4 1 3.235-1.656 3.235-1.656 3.563-4.562L137 993l2-1h-3v-3zm33 1 2 1 .375 1.938c.434 2.26.434 2.26 2.688 3.312L174 997l-2-6zm20 0v2l2-1zm65 0v1h7v-1zm15 1v3h2v-3zm-140 2 1 2Zm108-2v2l-1.812-.625c-2.473-.682-2.473-.682-5.188 1.625h4v2l10 2-1-3 2-1-5-1v2h-2zm12 2v1h6v-1zm28 0 1 2Zm-21 1 4 1Zm-128 1 1 4Zm260 0 1 2Zm-163 1-1 3h2l1-3zm-66 1 1 3 2-1zm17 0 2 2v-2zm211 0 1 2Zm-136 2v2h2l-1 4h2v-5zm155 0 4 1Zm-27 3 1 4c2.622-1.049 3.794-1.65 5.25-4.125L384 1000c-2.647 0-4.58.981-7 2m-167-1v2l-2 1 4 1-1-3 2-1zm203 1 1.938.313L417 1003l1 3 2-1c.652-2.025.652-2.025 1-4-2.728 0-5.317.533-8 1m-256 1v5l-2 1h3v-2h2l-1-4zm249 0v3h2v-3zm-244 1 1 2Zm266 0v2h2v-2zm-227 1-2 2h2v3l10 3 1-4-4 1-2-4h-2v2h-2zm225 1c-1.637 1.96-1.637 1.96-3 4 3.122-1.309 3.122-1.309 5-4zm-263 1 1 2Zm241 2v4l3-1-1-2 2-1zm-233 1 2 4v-3l2-1zm9 2 2 3h2l-1-3zm-7 2v2h2v-2zm4 0 2 2v-2zm8 1 1 2 2-1zm16 0 1 2 2-1zm-26 1v2l2-1zm29 1c.893 2.358.893 2.358 4.063 3.125L211 1021c-1.67-3.224-1.67-3.224-4.625-3.687zm-27 1 1 2Zm16 1c1.81 1.628 1.81 1.628 4 3l3-1c-2.647-1.46-3.894-2-7-2m176 22 1 2Zm-3 6 1 2Zm-1 2 1 2Zm-2 3 1 2Zm35 0 1 2Zm7 1 4 2 1-2zm-44 2 1 2Zm-9 1-2 2 3 1zm47 5 1 2 2-1zm-13 3 1 2Zm-29 2 1 3v-3zm30 1 1 3Zm4 1 1 2Zm-36 2 1 2Zm37 0 1 2Zm9 0c2.672 2.343 2.672 2.343 6 3l1 3 4-1-1-2-3 1v-4zm-12 2 1 2Zm5 1 1 2Zm5 0v2c1.833 1.125 1.833 1.125 4 2l3-1zm-8 2 1 2Zm4 0 1 2Zm-12 1-2 1 1 2 2-1zm-37 2 1 3Zm25 0 2 8c1.097-3.29.8-4.713 0-8zm13 0v2h-2l2 5 1-3 2-1h-2zm15 0 2 2v-2zm-5 1v2l4 1-2-3zm-18 1 1 2Zm-13 1 3 1v3h-3l1 7 1-4h2l1 2-1-9zm6 0v5l2 1-1-6zm-24 1 1 3Zm35 0 1 3Zm-3 1 1 2Zm1 2 1 2Zm-22 1c-.082 4.161.018 7.947 1 12l2-1a402 402 0 0 0-.375-4.937c-.07-.917-.14-1.834-.21-2.778-.138-.754-.274-1.508-.415-2.285zm30 0v2l2-1zm-26 2v6l2 1-1-7zm24 0 2 2v-2zm-8 1 1 3v-3zm-8 1 1 2Zm1 3 1 3v-3zm3 9-1 10c2.43-3.644 2.162-5.712 2-10zm-5 8 1 2Z"/><path d="M355 677h3c3.065 10.112 3.107 18.613 2 29l2.176-2.762c2.391-2.868 4.896-4.962 8.012-7.05l2.605-1.77c3.555-2.284 5.371-2.506 9.59-2.375l3.289.064a629 629 0 0 1 6.836.196c7.032.112 11.504-.689 17.492-4.303 7.348-2.895 13.5-3.796 21-1 6.848 3.294 12.509 7.8 18 13l2.5 2.313C453 704 453 704 453 706l4 2v3c-2.95-1.37-5.525-2.878-8-5v-2l-5-2c-.057 3.369-.057 3.369 1 7 2.243 2.052 4.114 2.806 7 4l3-1c2.333-.04 4.667-.044 7 0v-2c2.875-.125 2.875-.125 6 0l2 2c2.323.4 4.657.74 7 1l-1 3 2.668.367 3.52.508 3.48.492c3.02.574 5.538 1.38 8.332 2.633v3h-5v3q-4.407.08-8.812.125c-.834.017-1.667.034-2.526.05l-2.432.02-2.237.032C471 726 471 726 468 724c-6.279 4.159-10.645 8.876-15 15 1.558 2.726 3.146 5.18 5.125 7.625 3.308 4.19 3.256 8.218 3.242 13.367-.6 4.911-2.827 8.827-5.367 13.008h-2l-2 4h-2v2l-1.875.188c-2.342.622-2.342.622-3.252 3.035-.908 2.888-1.063 5.003-.963 8.015l.06 2.987q.093 3.07.196 6.14c.119 6.288-.306 10.975-3.166 16.635l-3 1-1 3c-5.336 1.779-9.953 1.447-15-1v-2h-2c-3.08-5.302-3.663-12.212-2.613-18.21q.546-1.899 1.129-3.786c1.364-5.645.617-11.397-.516-17.004-1.051-9.288.872-15.247 6-23h2l2-4c-3.478 1.448-5.317 3.233-7.625 6.188-.59.736-1.18 1.472-1.79 2.23-3.652 5.948-3.891 12.125-4.085 18.894-.393 10.102-.393 10.102-1.562 15.125-1.796 7.855-2.292 15.797 1.84 22.95 1.742 2.3 3.926 3.891 6.222 5.613v3l1.703.145c3.363 1.252 4.98 3.748 7.047 6.543l1.317 1.74c3.845 5.201 7.002 10.682 10.046 16.38 2.72 4.6 5.122 8.46 10.2 10.567L454 861v2c10.3 2.887 19.451 3.215 30.07 2.62 8.67-.254 13.654 1.871 20.93 6.38 10.337 4.235 18.716 5.088 29.5 2.5 10.2-2.33 23.131-4.009 32.664 1.285L569 877l2.086 1.309c1.976 1.316 1.976 1.316 4.914 3.691v2c.584.285 1.169.57 1.77.865a93 93 0 0 1 5.902 3.3l2.012 1.21 2.066 1.25 2.113 1.273q2.57 1.55 5.137 3.102v-3h-2a236 236 0 0 1-5-5c-14.503-13.063-14.503-13.063-32-21-3.353.192-3.353.192-7 1-4.668.108-9.332.058-14 0 .293-3.13.934-3.945 3.398-6l2.977-2c3.595-2.428 6.084-4.509 8.625-8h2l.352-2.578c.679-3.586 1.747-6.755 3.023-10.172 2.088-5.7 3.97-11.41 5.625-17.25h3l-4 22 1.438-3.812.808-2.145c.616-1.67 1.191-3.355 1.754-5.043l3 1q-.463 4.875-.937 9.75l-.264 2.79-.264 2.694-.238 2.476c-.28 2.161-.721 4.19-1.297 6.29h-2v2l-2 1c3.987.4 3.987.4 6.5-1.875 4.258-4.586 6.117-11.137 7.5-17.125h2c2.27 4.541.938 10.19 0 15l4-11 3 1c.082 4.161-.018 7.947-1 12h2v3l-1.875.75c-2.52 1.483-2.91 2.659-4.125 5.25l-3 2 3 2c7.25-7.529 9.945-16.254 13-26h3c-1.128 20.866-1.128 20.866-4.617 24.844-2.337 2.056-4.598 3.763-7.383 5.156 4.093.453 4.093.453 6.563-2.375C593.6 866.042 594.56 856.958 596 849h2c1.152 3.457 1.168 6.233 1.188 9.875l.042 3.68c-.22 3.288-.813 5.499-2.23 8.445h-2l-.187 2.813C594 877 594 877 591.438 878.875L589 880c2.249.869 2.249.869 5 1 4.974-3.048 6.877-7.023 9.25-12.125l1.063-2.207A750 750 0 0 0 607 861l1-2h2v10l.813-4.437c.457-2.497.457-2.497 1.187-4.563l3-1q-.347 4.382-.727 8.762a227 227 0 0 0-.421 5.758c-.472 6.408-2.214 11.922-6.914 16.48-1.938 1-1.938 1-4.938 1 1.309 3.122 1.309 3.122 4 5l1-3 1.813-.875c4.525-2.327 6.588-6.462 8.187-11.125h3l-1 7h3c.627 10.101.627 10.101-1.875 13.688C618 903 618 903 616 903v2c6.335-3.318 6.335-3.318 10-9h3c.962 3.061 1.157 4.588 0 7.625-2.69 3.194-5.093 3.975-9 5.375l2 2c3.04-.007 3.04-.007 6-1 1.409-1.817 1.409-1.817 2-4l1-3h3c1.131 3.959 1.221 5.55-.625 9.313C631 915 631 915 628.25 915.875L626 916v5c3.793-1.002 6.715-1.81 10-4h3v2h2v3h-4v2h-3v2l-9-1v4l2.047-.691 2.703-.871 2.672-.88c2.656-.575 4.048-.45 6.578.442-1.544 2.78-2.892 4.901-5.25 7.063L632 936c.136 2.219.136 2.219 1 4 3.82-1.095 3.82-1.095 6.188-4.125L640 933l1.125-3.437c2.021-8.607 2.171-17.83-1.996-25.758-1.532-2.45-3.252-4.607-5.129-6.805-8.199-11.082-15.662-22.664-16.727-36.73-.656-5.451-2.232-10.708-5.273-15.27l-3-1v-2l-1.625-.375C605 841 605 841 602.063 839.813c-2.968-1.12-2.968-1.12-5.313.125-4.259 1.645-8.306.7-12.75.062v-2l-1.766-.66c-2.962-1.776-4.169-3.856-5.984-6.778l-1.86-2.933C573 825 573 825 573 822l-1.86-.68c-2.83-1.745-3.28-3.351-4.39-6.445l-1.016-2.758L565 810h-3v2h-2v2l-2.047.262c-5.9.862-5.9.862-10.578 4.363L546 821l-4-1q1.62-2.597 3.25-5.187l1.828-2.918c3.285-4.947 6.612-8.634 11.336-12.172 3.167-3.44 3.738-7.282 3.563-11.809q-.158-2.145-.352-4.289l-.172-2.23c-.14-1.8-.295-3.597-.453-5.395h-2l-.262 1.758c-1.044 5.804-2.495 9.105-6.738 13.242h-2v3l-3 1a100 100 0 0 0-3 3l-2.937 2.188c-3.617 2.94-5.279 6.583-7.063 10.812h-3c1.28-7.914 5.736-14.134 11-20l-2.082 1.313-2.73 1.687-2.708 1.688C532 797 532 797 529 797c.188-1.812.188-1.812 1-4a839 839 0 0 1 5-3c8.844-7.695 13.754-15.725 17-27 .447-4.096.447-4.096-2.375-6.625L547 754l-2-2 .324 2.09c1.034 8.103.244 14.058-4.324 20.91h-2l-.25 1.688c-1.792 5.524-6.507 8.96-10.79 12.597-1.695 1.484-3.236 3.009-4.773 4.653C521 796 521 796 518 796c.475-4.273 3.03-6.103 6-9 1.295-2.166 1.295-2.166 2-4h2c1.075-2.652 2.095-5.284 3-8l-1 2h-2v2c-1.456 1.257-2.918 2.508-4.422 3.707-1.712 1.352-1.712 1.352-3.578 3.356C513.871 792 513.871 792 510 792c1.35-3.072 2.808-4.915 5.313-7.125 10.612-10.37 12.08-25.868 13.687-39.875h3c3.196 3.723 5.539 8.078 6 13l3-9-2.71-1.355L517 737l1.059 1.977c4.603 8.841 4.603 8.841 4.941 14.023l.438 3.625c-.098 8.48-5.99 16.305-11.438 22.375l-1 3c-1.742 1.79-1.742 1.79-3.875 3.625l-2.117 1.852C503 789 503 789 500 790l2-5h2v-2h2c1.535-3.828 3.06-7.66 4.563-11.5l1.316-3.344c3.962-11.155 1.591-22.724.121-34.156l-2.312-.875C507 732 507 732 504 730l-1 2-3-1v-2l-3.437-1.375C493 726 493 726 492 724c5.596-.291 9.77.624 14.938 2.5l2.072.723c1.667.582 3.329 1.178 4.99 1.777v2l1.648.82q2.514 1.262 5.016 2.547c4.8 2.445 9.51 4.755 14.586 6.57 4.47 1.712 7.481 4.127 10.938 7.395 2.4 2.209 5.093 3.876 7.812 5.668 9.004 7.15 11.303 22.316 13 33h6l1-3h4l-1 3 2 1c1.285 3.23.875 5.1-.437 8.25l-.872 2.14L577 800h-3v-2h-2v2h-2l.563-1.75c.48-2.476.076-3.852-.563-6.25l1-2h-3c.114 2.105.242 4.209.375 6.313.07 1.171.14 2.343.21 3.55.201 3.294.201 3.294 2.415 6.137l2-5h2c-.095.724-.19 1.449-.29 2.195-.625 5.458-1.072 9.665 1.29 14.805h2l-.324-1.863-.364-2.45-.386-2.425c.074-2.262.074-2.262 1.43-4.055C580 806 580 806 582 806v3h2l1-5 3-1c1.158-2.497 1.972-5.041 2.84-7.652 1.348-2.728 2.353-3.323 5.16-4.348-1.855 5.72-3.931 11.356-6 17h4l.25-2.875L595 802c1.938-1.125 1.938-1.125 4-2q1.025-1.987 2-4l3-1c1.377-1.863 1.377-1.863 2.563-4.062 1.253-2.223 1.253-2.223 2.437-3.938h2l-1 5h3v2h3v2l-2 1a97 97 0 0 0-2.625 5.563l-1.352 3.066L609 808h-2v-3l-4 1h3v3h2v5h-2l-1 7h-2v1l5-1 .148-2.52.227-3.293c.07-1.078.14-2.157.21-3.269C609 809 609 809 611 806h2l-2 16h3v-19h3c1.127 5.383 1.127 5.383.531 8.281-.63 3.23-.627 6.244-.593 9.532l.027 3.519L617 827h-2v1l5 1 1-2h-2v-3h2v-6h2l1 11c.25-11.118.25-11.118-.562-22.187-.413-3.592-.246-6.31.562-9.813h3l-.14 2.309c-.254 7.24.563 12.368 4.14 18.691h2v3h-2l-.113 1.941c-.43 5.66-1.348 9.98-3.887 15.059h-3c-2.108 2.888-3 4.385-3 8l.75-2.375C623 841 623 841 624.938 840.063c3.027-1.56 3.6-4.075 5.062-7.063l3-1c1.225-3.008 1.225-3.008 2-6l4 1-1 2h2v2l2 1c-.607 4.86-2.728 8.74-5 13h-3c1.31-4.234 2.944-8.074 5-12-3.248 1.06-3.996 1.993-5.703 5.04l-1.547 3.585-1.578 3.602L629 848h2v3l3 1 2-3h2a853 853 0 0 1-.437 4.313l-.247 2.425C637 858 637 858 636 861h-5v-9h-2l-1 2h2v3h-3l3 1v7h2c.2 3.598-.032 5.939-2 9l-2 1v2l1-2h2v4h3l-1 5 1.875-.5C637 883 637 883 639 883l1 4 1-5 5 1v4l2 1-2 5 2 2 1-2h3l-.625 1.688c-.482 2.972.36 4.632 1.625 7.312q.72-2.374 1.438-4.75l.808-2.672A141 141 0 0 0 657 888l-5-1c.973-8.435 1.937-16.748 4-25h2c-.964 12.67-.964 12.67-2 18h2l1 3h2l-1 12 2 1-1 9h2l-2 6 4 1c-.564 3.27-1.5 4.826-4 7l3 1-2 6 2 2v2c.248 2.074.248 2.074 1 4l3 1v5c-6.5 3-6.5 3-11 3 .688-1.937.688-1.937 2-4 2.625-.75 2.625-.75 5-1l-4-4-2 2c-2.383.414-2.383.414-5.125.625l-2.758.227L648 937l2 1v2l3 1v2h-5v3l-6 1-1 3 3 1v3l3 1c2.934-1.667 2.934-1.667 6-3.937 5.686-4.063 5.686-4.063 9-4.063-.824 3.845-1.788 6.858-4.7 9.602-2.936 1.785-4.884 1.766-8.3 1.71l-3.125-.011c-2.801-.293-4.487-.86-6.875-2.301l1 4h3c-.776 3.784-2.253 7.163-3.812 10.688l-1.52 3.511C636 977 636 977 633.855 977.723L632 978l-.875 2.75c-1.51 4.361-3.394 5.607-7.125 8.25h-2l1-12-3 1a93 93 0 0 0-1 4c-2.086 3.441-4.412 5.206-8 7h-3v-3l5-4c.158-3.053.158-3.053-1-6l-2.125.875C607 978 607 978 603.938 978.938c-2.835 1.025-4.568 2.264-6.938 4.062h-3c1.813-3.777 3.907-7.373 6-11l-4-1v-2l-3.812.625c-3.59.588-3.939.541-7.188-1.625-.187-2.625-.187-2.625 0-5l2.813-1.187c3.476-1.978 4.531-3.24 6.187-6.813l.375-2c.969-3.1 3.33-4.76 5.625-7 2.608-3.714 3.518-6.772 4.125-11.25.787-5.662.787-5.662 1.875-6.75l-1.937-.312L602 927l-1-3 2.875-.687c3.294-.98 3.294-.98 4.313-3.75L609 917c1.625-1.812 1.625-1.812 3-3-3.556-3.797-7.26-6.691-11.687-9.437l-1.86-1.175c-4.413-2.776-8.878-5.462-13.355-8.134-4.58-2.738-8.517-5.615-12.41-9.254-6.432-5.794-12.964-8.673-21.688-9-3.147.26-6.212.79-9.312 1.375l-2.417.422c-3.2.57-6.18 1.173-9.271 2.203-10.409.69-19.27.2-29-4v-2l-6-2v-2h-3l-.937 2.375C490 876 490 876 489 878h-8l-.516 1.898-.734 2.477-.703 2.46c-1.282 2.652-2.428 2.997-5.047 4.165l-.437 2.313c-.782 3.736-2.714 5.255-5.563 7.687h-2l-2 4h-2v-2h-2l-2 6h-4l-1 3h-2q.212-2.657.438-5.312c.08-.987.162-1.973.246-2.989C452 899 452 899 453 896l-2-2c.375-2.625.375-2.625 1-5l-5 5 2 5h2l-1 5h-2l-.937 2.875C446 910 446 910 445 912h-2c.964-9.41.964-9.41 2-14l-2 2v3.375c0 3.399-.217 4.84-2 7.625h-3v-5l-3 1a271 271 0 0 0-2.117 5.21c-1.37 2.776-3.3 4.176-5.883 5.79h-3l4-8h2c.95-9.012 1.431-16.75-1.309-25.547C428 882 428 882 428 878l3 1c3.316 6.942 4.662 14.368 5 22q1.478-2.119 2.938-4.25l1.652-2.39c2.802-4.689 2.593-9.455 2.598-14.798l.037-2.275c.01-4.288-.446-7.32-2.225-11.287l.563-2.562c.736-2.46.736-2.46-.813-4.25L439 857a102 102 0 0 1-2.059-6.293c-.795-1.898-.795-1.898-2.851-2.348L432 848c-5.547-2.889-7.921-6.275-10-12l-.352-2.523c-.833-3.184-2.15-4.155-4.71-6.164A79 79 0 0 1 413 824v-2h-2l1 1.75c1 2.25 1 2.25 1 6.25h2c2.561 4.566 3.749 8.878 4.563 14 .79 4.806 1.616 9.457 3.437 14 1.918 1.376 1.918 1.376 4 2l2 1v2l1.813.875C433 865 433 865 436 867v2c-3.87-.56-6.366-1.64-9.562-3.875l-2.254-1.555L422 862l-2.117-1.379c-3.739-3.219-5.1-8.128-6.883-12.621l-.914-2.277C409.114 837.18 408.78 827.949 408 819h2c-1.291-3-1.291-3-3-6l-3-1c-1.719-2.363-1.719-2.363-3.5-5.312-2.448-4.04-2.448-4.04-5.219-7.856C394 797 394 797 394 794c3.544 1.418 4.338 2.676 6 6 2 1.209 2 1.209 4 2l1 1c4.003-10.275 4.47-19.12 4-30h-2v-4l-1.761-.878a946 946 0 0 1-6.06-3.067l-4.304-2.18-2.207-1.129c-3.65-2.022-3.65-2.022-7.668-2.746v3l8 2v2l2.188.125c4.954 1.541 7.034 5.569 9.562 9.813 2.355 5.854 2.017 12.819 2.25 19.062h-2l-1.023-2.773-1.352-3.602-1.336-3.586c-1.084-3.084-1.084-3.084-3.289-5.039l1.938 3.438c2.26 4.464 2.833 8.608 3.062 13.562l-3-1c-1.187-3.062-1.187-3.062-2-6h-2l-1.937-2.062c-5.057-5.284-12.14-9.623-19.063-11.938-2.242.287-2.242.287-4 1l-1 5 2.45.48c10.546 2.303 10.546 2.303 14.55 7.52l2.813 2.563c3.647 4.32 2.573 10.132 2.187 15.437h-3l-3-8c0 3.11 1.295 5.806 2.344 8.71C389 811 389 811 389 815h-2v-2h-2c-1.332-1.574-1.332-1.574-2.812-3.687-5.674-7.691-11.03-11.353-20.188-14.313h-4c-1.79 2.427-1.79 2.427-3 5l3.625-.687c4.42-.498 6.7-.05 10.375 2.687 6.988 8.41 12.493 17.308 11.856 28.53a444 444 0 0 1-.918 8.283c-1.33 12.379-1.33 12.379 2.062 24.187.04 2 .043 4 0 6h-2q-1.222-4.093-2.437-8.187l-.698-2.33c-2.157-7.285-3.097-14.103-3.47-21.688-.184-3.37-.387-6.56-1.395-9.795v6l-3 1-.445-1.941c-1.604-6.186-3.486-10.976-8.555-15.059-2.915-1.605-5.869-2.88-9-4l-1 6 2.75.563c4.255 1.881 5.62 4.266 7.25 8.437 3.361 10.387 3.597 18.338 1.438 28.938-1.827 9.01-2.09 15.92 2.562 24.062.688 2.375.688 2.375 1 4-1.836-.234-1.836-.234-4-1-5.92-7.654-7.692-18.574-6.625-28l.332-2.121c.36-2.305.368-4.55.293-6.879l-1 8h-3l-.262-2.344c-.948-7.028-2.412-12.024-6.738-17.656-3-3.931-3-3.931-3-6q-2.19.425-4.375.875l-2.46.492c-2.352.5-2.352.5-4.165 2.633l2.703 1.25 3.547 1.75 3.516 1.688c4.078 2.915 5.795 5.544 7.234 10.312.466 3.277.474 6.446.375 9.75l-.004 2.535c-.06 4.188-.277 7.008-2.371 10.715h-2l-.262-2.93c-1.199-11.108-3.692-19.408-11.601-27.695C330 839 330 839 330 837l-3 1v2h-3q.387-2.16.813-4.312l.457-2.426c.825-2.558 1.635-3.61 3.73-5.262 3.188-1.187 3.188-1.187 6-2v-2l7-3a85 85 0 0 0-7 2c-8.5 1.138-8.5 1.138-11.766-1.34C321.875 820 321.875 820 320 817l-1.875 3-2.125 3h-2c.576-4.755 2.55-7.97 5-12h2l.335-1.665q.765-3.761 1.54-7.523l.527-2.619c.879-4.246 1.776-8.23 3.598-12.193l-1.562-1.187C324 784 324 784 324.125 781.5c.956-2.731 1.457-3.916 3.875-5.5 3.188-.187 3.188-.187 6 0v2l-1.937.75c-2.25 1.066-2.25 1.066-2.813 3.375L329 784h7l2-7h2l.766-1.836c1.403-2.46 2.61-3.29 4.984-4.789 6.916-4.967 10.388-12.21 12.25-20.375.289-3.206.363-6.408.438-9.625.743-20.556.743-20.556 5.562-25.375h-3c.564-3.27 1.5-4.826 4-7h-2v2l-2.312 2.063c-3.37 3.683-4.416 7.19-5.688 11.937h-2l-.812 1.762c-1.203 2.266-2.57 4.065-4.188 6.05-5.854 7.815-5.038 14.858-4 24.188h2l1-3h2l-1.062-3c-1.624-5.782-.88-10.24 1.937-15.5L352 732h3l.148-1.977c.424-4.956 1.009-9.353 2.852-14.023h3l-.405 1.794c-1.585 7.4-2.23 14.717-2.718 22.259-.637 8.24-2.868 14.322-7.877 20.947h-2l-.191 1.797c-1.459 3.973-5.151 5.147-8.75 6.996-5.53 2.182-10.38 2.197-15.934.144-2.942-2.682-4.313-5.376-6.125-8.937l-1.25-2c-2.209-5.89-.32-11.013 2.035-16.488 1.77-3.66 3.625-7.358 6.215-10.512h2v-2q3.342-1.691 6.688-3.375l1.896-.96c2.737-1.377 5.445-2.676 8.307-3.774 2.72-1.149 2.942-2.245 4.109-4.891 2-2.25 2-2.25 4-4h2q.721-2.124 1.438-4.25l.808-2.39c3.088-9.664 2.217-19.616-.246-29.36m50.406 17.047c-5.17 2.692-10.079 2.327-15.781 2.078a646 646 0 0 0-5.898-.18l-2.607-.109c-2.34-.05-2.34-.05-4.12 2.164a449 449 0 0 0-1 6c-1.062 2.375-1.062 2.375-2 4l3-1 .375-1.937C378 703 378 703 380.07 701.867c3.627-1.073 6.653-.95 10.43-.804 8.4.184 17.338-.289 24.5-5.063 2.453-.414 2.453-.414 5.25-.625l2.941-.223c3.283-.178 6.523-.225 9.809-.152-8.431-4.562-19.131-5.844-27.594-.953M433 695l1 2h2v-2zm5 3 1 2 2-1zm-20 1v3l3 1-.562 2.375c-.698 2.596-.698 2.596.562 4.625h2v-2l1.813.625c2.472.682 2.472.682 5.187-1.625a159 159 0 0 0-5-6h-2v-2zm9 0v1h5v-1zm-55 1-1 2h2zm60 0c.782 2.791 1.617 5.445 3 8 2.57 1.134 2.57 1.134 5 1-1.398-3.545-1.398-3.545-3-7h-2v-2zm-63 2v2l-4 2v2c2.622-1.049 3.794-1.65 5.25-4.125L371 702zm37 2 2.875 1.063C412 707 412 707 413.375 710.688L414 714l7 1-1-3-5 1v-3l3 1c-.543-3.801-2.073-5.575-5-8-3.448-1.463-3.698-1.202-7 1m-12 0 1.438 1.25c1.725 1.932 2.128 3.232 2.562 5.75h2v3l9-2c-1.002-3.006-1.6-4.062-4-6h-3v-2zm-14 2-3 4 12 1 2 7 4-1c-.957-3.342-1.655-4.755-4.531-6.8l-2.969-1.513-2.969-1.55c-2.373-1.274-2.373-1.274-4.531-1.137m-22 1 1 2Zm15 1-1 2h2zm57 2-2 2 4 2v3h3v-6c-2.397-.68-2.397-.68-5-1m-64 1 1 2Zm74 0 2 1v4l-2 1 6 1c-.695-3.004-.695-3.004-2-6-2.032-.969-2.032-.969-4-1m-70 2c-.553 2.076-1 3.844-1 6l2.813-.187C375 719 375 719 376.75 720.25 378 722 378 722 380 726l8-4c-5.415-5.893-10.036-8.204-18-9m-16 1 1 2Zm45 3c1.903 2.257 1.903 2.257 5 2.688l3 1.312c1.375 3.625 1.375 3.625 2 7h2l1-2 3-1v-4h-2v-2h-2v-2c-4.655-2.568-7.196-2.077-12 0m22-2c-.8 3.287-1.097 4.71 0 8h2v-7zm37 0 1 2h6l1 2 4-1-1.875-.937L464 715c-2-.04-4-.043-6 0m-105 1c-2.608 2.012-4.982 3.98-7.219 6.406-3.16 2.947-6.215 4.597-10.094 6.407-.645.31-1.29.622-1.955.943A538 538 0 0 1 329 732v2l-1.8.652c-5.088 3.118-7.216 10.362-9.016 15.825-.927 4.722-.022 7.442 2.503 11.523 2.118 3.046 2.118 3.046 5.305 4.727 3.16.43 5.815.61 9.008.273 3.16-2.541 4.715-4.146 6-8 .412-5.82-.2-11.614-.777-17.402-.276-3.22-.295-6.369-.223-9.598h3c1.681-1.46 1.681-1.46 3.188-3.375l1.605-1.898c1.398-1.65 1.398-1.65 1.207-3.727h2c1.754-2.34 1.754-2.34 3-5zm36 8 2.117.516 2.758.734 2.742.703c2.867 1.26 3.207 2.242 4.383 5.047 2.05.805 2.05.805 4 1-1.275-4.982-3.043-7.703-7-11-4.076-2.165-5.885.145-9 3m84-2h5v-3c-1.968 0-3.505 1.843-5 3m9 1h6l-1-2c-2.324-.185-2.324-.185-5 2m-119 1-1 4q2.124.254 4.25.5l2.39.281c2.629.28 2.629.28 6.36.219-.626-2.047-.626-2.047-2-4-2.417-.702-2.417-.702-5.125-.75l-2.758-.172zm82 2-2 4 1.938 2.375C447 735 447 735 448 737l4-1c.76-1.828.76-1.828 1-4-1.105-1.785-1.105-1.785-2.812-3.25l-1.645-1.578c-1.486-1.374-1.486-1.374-3.543-1.172m-66.25 3.438-2.14 1.37L375 732v1h12l.875 2.938c.767 3.169.767 3.169 3.125 4.062 1.625-2.833 1.625-2.833 3-6-1.353-4.06-3.344-4.921-7-7-4.107 0-4.991.307-8.25 2.438M455 727l4 1Zm-29 2-3 8 2.375.25c2.625.75 2.625.75 3.813 2.688L430 742l2 2 3-2c-1.37-2.95-2.878-5.525-5-8h-2l2-4zm-64 2v6l8-4c-3.228-2.152-4.284-2.2-8-2m49 0v2l3-1zm20 0c2.868 2.102 2.868 2.102 6 3 1.688 3.063 1.688 3.063 3 6l4-1c-.834-3.127-1.544-5.477-3.687-7.937-3.326-1.528-5.81-.804-9.313-.063m-27 5-2 3 2 2 2-4zm-42 4 1 3 2-1c2.04-.07 4.083-.084 6.125-.062l3.32.027L377 742l1 3 5-1c-3.034-3.5-5.464-4.804-9.937-5.937l-3.09-.84c-3.63-.272-5.093.65-7.973 2.777m58-1-3 3 2.875 1.875C423 746 423 746 425 748l2-1c-1.012-3.403-1.648-4.757-4.625-6.812zm-24 3 1 3 4-2zm41 1v2l-5 1v2l-3 1 2 1c2.944-1.452 2.944-1.452 6.125-3.437l3.32-1.997L443 743c-2.49-1.245-3.41-.777-6 0m-75 1v8l2.875-.562C368 751 368 751 370 752l2 3 1-6c-3.512-2.408-5.727-3.366-10-3zm44 0c.597 3.342 1.736 5.464 4 8h2l2 5 2.938-2.312 1.652-1.301c1.682-1.444 1.682-1.444 2.41-4.387-3.926-1.666-7.893-2.86-12-4zm42-2-1 3 2 3.125c2.717 4.345 2.01 8.03 1 12.875h-2l-5-14-6 2 1 3h2l2 5h2c1.75 6.997 2.538 13.807 3 21 4.582-5.214 7.596-11 8-18-.714-6.45-2.152-12.176-5-18zm-69 8-2 1v2l3-1zm54 2a105 105 0 0 0-4 5l2.813 2.313c2.17 1.805 4.243 3.635 6.187 5.687-.48-4.714-.968-8.666-3-13zm-57 1 1 2Zm15 1c2.307 1.242 4.506 2.169 7 3l3 1 2.125.688c3.018 2.112 4.193 5.068 5.875 8.312l2-2c-5-6.943-5-6.943-11-13-3.38 0-5.835.875-9 2m-31 2v4h7c-1.812-2.062-1.812-2.062-4-4zm67 2c-1.648 1.752-1.648 1.752-3 4 .433 2.948 1.557 5.09 3.063 7.625 2.482 4.75 2.324 9.129 1.937 14.375h-2l-.332-2.047-.48-2.703-.458-2.672c-.784-2.77-1.876-4.404-3.73-6.578-.613 4.663-.853 8.47 1.488 12.668 1.74 2.266 3.426 4.378 5.512 6.332h2v2l3.438 1.375C438 794 438 794 439 796c-4.04.286-7.97.456-12 0-2.75-2.5-2.75-2.5-4-5-.86 2.293-.86 2.293-1 5 2.325 3.1 4.207 4.423 8 5 2.608-.305 2.608-.305 5.25-.937l2.703-.59L440 799a500 500 0 0 0-.375-5.312c-.07-.987-.14-1.973-.21-2.989-.254-2.914-.254-2.914-2.415-5.699v4h-3l.625-3.875c.953-8.828-1.744-17.242-5.625-25.125zm109 3 1 4Zm-166 2 2 2v-2zm6 1-2 7 15 1c-2.794-2.794-4.702-4.012-8.187-5.687l-2.731-1.325zm-20 1-2 5h-2v2l6-1v-5zm82 0 1 3Zm97 0 1 2Zm21 1v8l1-2 2-1-2-5zm-194 2c-1.46 2.647-2 3.894-2 7l-3 1 3 2 1-4h2l2-5zm172 0 1 2Zm-166 2c-1.645 2.463-1.645 2.463-3 5l4-1 1-4zm165 0 1 2Zm-94 1-1 14c2.28-3.42 2.22-4.682 2.125-8.687l-.055-3.012L440 771zm-49 1 2 2v-2zm-44 3-2 1 1 3 2-1zm5.375 3.5L349 781l2 1v-2l1.938-.875c2.214-.953 2.214-.953 3.062-3.125-2.363-.23-2.363-.23-4.625 2.5M341 783c-3.183 1.872-3.183 1.872-6 4 1.736.874 1.736.874 4 1 2.753-1.852 2.753-1.852 5-4zm26 2-1 2 8 2c-.893-2.358-.893-2.358-4.062-3.125zm-17 4 1 4 3-5c-2.075-.15-2.075-.15-4 1m-6.062 2L342 793l1 3 3-1 1-6c-1.36-.116-1.36-.116-3.062 2M375 789c1.393 3.367 2.979 4.986 6 7l2-1a997 997 0 0 0-3.437-3l-1.934-1.687c-1.41-1.418-1.41-1.418-2.629-1.313m-42 3 2 2v-2zm20 2 1 2Zm255 0v3Zm4 0 1 2Zm-271 2 1 2Zm11 0 1 2Zm222 0 1 2Zm-246 1-2 7h2v-2l3-1-1-4zm278 0 1 2Zm-267 1 1 2 1-2zm11 0c-2.096 5.694-3.45 10.952-4 17 2.487-2.487 3.034-4.605 4.125-7.937l1.07-3.215c.941-2.836.941-2.836.805-5.848zm255 1 1 2Zm4 0 1 2Zm-273 1v3l3-1v-2zm265 0 1 2Zm-180 1q.172 2.22.375 4.438c.07.823.14 1.647.21 2.496L422 810c4.113 2.057 9.013 1.201 13.375.313 2.84-1.1 2.84-1.1 4-3.938L440 804l-2.062.938c-3.434 1.241-6.278 1.931-9.938 2.062-2.743-1.768-4.705-3.705-7-6m183 0 1 3Zm-250 1c.304 3.245.563 4.619 3.066 6.8l2.497 1.513 2.503 1.55L364 813c-1.403-3.187-3.078-5.322-5.562-7.75l-1.88-1.86c-1.334-1.501-1.334-1.501-2.558-1.39m246 1 1 2Zm-3 3-1 4h2l1 2 1-6zm5 0 1 3Zm-47 2-2 3 3-1zm-217 1v2l3-1zm251 0v2l-2 1 2 6h1v-9zm-263 2 1 3Zm4 2 1 2 1-2zm35 0 2 2v-2zm-40 1-1 4 2-1zm11 0-2 4 3-1zm259 1 1 2Zm-16 4 1 2 1-2zm-209 1 1 2Zm206 0 1 3Zm-230 1-1 3-3 1c3.67 2.912 3.67 2.912 8 4v-4h-2l-1-4zm238 2h3l1 2v-2l4-1c-4.178-1.19-4.178-1.19-8 1m-7 1 2 5h2l1 4h2l-1-4h6l-3-1v-3c-2.957-1.478-5.742-1.06-9-1m17 0 1 10h-2v2c2.032-.64 2.032-.64 4-2 1.096-2.312 1.096-2.312 1-5-1.263-2.802-1.263-2.802-3-5zm33 1 1 4Zm-36 1 1 2Zm14 1v5l1-2h2c-.833-2.167-.833-2.167-3-3m-255 2c1.119 3.726 1.119 3.726 4 6l-2-6zm242 1v3Zm18 0 1 3Zm-24 1v2l-2 1 3 1 3-2h-3zm16 1v2h2l1 2v-4zm5 0 1 2Zm15 0 1 2Zm-3 2v2l3 1v-2zm-7 1 1 2Zm3 2 1 2Zm-1 2 1 2Zm3 1-1 4 2-1zm3 8 1 2Zm5 1 1 3Zm-68 2-1 5 2-2zm67 3-1 8c1.43-2.354 2.087-3.48 1.625-6.25zm-70 4v3Zm19 2c-2.537 1.355-2.537 1.355-5 3v2l3 1 3-4zm53 1 1 3Zm-183 1 1.375 3.438c2.463 7.26 2.884 14.974 3.625 22.562 3.27-2.624 4.027-5.553 5.188-9.5l1.042-3.469c.893-2.994.893-2.994.77-6.031-3.804-2.201-3.804-2.201-8-3v-2zm179 0 1 2Zm3 2 1 2Zm-1 2-1 2h2zm4 1-3 3 1 3 3-4zm-171 3 1 6h2l2-5zm31 0 1 3 1-3zm-13 1-1 3h-9l1 3-6-1 1 2h2v2l-4 1h3v2h-3v3l-1.875-.625L455 885l-2 2 2 2c.125 2.625.125 2.625 0 5l2 1v-2h4l1-6h3l1-4h2v12c2.411-1.956 2.411-1.956 2.125-5.625L470 886l4 1c2.478-3.663 3.49-6.61 4-11l3-1v-2h3l1-3c-3.411 0-6.63.491-10 1m133 1 1 3Zm-122 1 1 2 1-2zm121 2 1 3Zm-1 3-1.562 1.75c-2.946 2.72-5.912 4.352-9.438 6.25l4 3 .75-1.937C601 885 601 885 603 884.438l2-.438 2-3zm23 1v2h2v-2zm-173 2 1 2Zm199 1 1 2Zm-20 4-2 2h3zm4 4-2 3 3-1zm-175 1-1 2-3 1 1 5 3-1 1-7zm152 2-1 3c-3.062 1.188-3.062 1.188-6 2l1 2c2.476-.64 2.476-.64 5-2 1.36-2.524 1.36-2.524 2-5zm-19 3 2 2v-2zm48 1-1 2h2zm-189 2-1 5 2-3zm200 1-1 2 3 1-1-3zm-8.062 4L646 906h4l1-4c-1.36-.116-1.36-.116-3.062 2M610 905l4 5 2-1a91 91 0 0 0-4-4zm6 5c1.37 4.218 1.37 4.218 3.063 8.313 1.333 3.822 1.604 7.668 1.937 11.687 2.48-3.721 2.656-6.687 2-11-1.566-3.965-3.4-6.6-7-9m40 0 1 2Zm-2 2-1 2 3-1zm-8 2v3h3l1 2 3-2v-3zm0 7v1l5 1v2h2v-4zm-33 3c-.687 2.49-1 4.379-1 7l3 1c.826-2.892 1-4.887 1-8zm33 1v3l6 1a91 91 0 0 0-4-4zm7 3h4v2l-8 1 3 1v2l6-2v-4l2-1c-3.486-1.202-3.68-1.213-7 1m-45 2-1 3 3 1zm13 8-1 3c4.63 1.016 8.345.838 13 0v-1zm-10 3-1 7h2l1-7zm-5 3c-3.381 3.737-6.21 7.225-8 12 .322 3.1.322 3.1 1 6-.437 2.375-.437 2.375-1 4h4l1.242-2.59 1.633-3.347 1.617-3.34C608 954 608 954 610 953l-1-3-2 1v-7zm13 0 1 4Zm15 0 1 2Zm-12 2v5l1-2 2-1-1-2zm6 1 1 2Zm-15 3v5h1v-5zm4 0 3 2v-2zm6 3 2 3 2-2zm-3 1 1 2Zm-6 1c-2.456.495-2.456.495-5 2-1.854 3.516-3 6.01-3 10l2 1v7l1-2h2q1.256-2.685 2.5-5.375l1.406-3.023c1.223-2.439 1.223-2.439 1.094-4.602h3l-1-3-3 1zm14 1 2 4v-3zm-6 2 1 2Zm4 1v2l-2 1 1 3h3l1-3zm6 2c-1.63 4.791-2.206 8.056-1 13h2l4-11zm-39 2-2 2 4-1zm26 0a101 101 0 0 0-3 6l1 2 3-1 2 2 2-2c.412-3.847.412-3.847-1.375-5.75-1.548-1.453-1.548-1.453-3.625-1.25m9 7-1 7 2 1v-8zm-11 4 1 2Zm10 5 1 2Z"/><path d="M473 778h3l3 10h2l4 8 1.063 1.969c1.037 2.247 1.563 4.36 2.062 6.781l.508 2.422L489 809l1.313-1.437C492 806 492 806 495 805c1.716-3.503 1.716-3.503 3-7h2l1-3h3c-1.293 3.398-2.803 6.51-4.562 9.688-2.596 5.076-3.306 9.655-3.438 15.312l7 3 .734-1.54c2.138-4.39 4.268-8.592 7.266-12.46h3c-1.774 5.457-1.774 5.457-2.836 8.004-1.3 3.142-2.176 5.436-2.101 8.871 1.198 2.716 2.307 2.887 4.937 4.125a104 104 0 0 1 3 5l1.137-2.414c2.8-5.799 5.431-10.893 9.863-15.586l4 1-1.207 1.504c-5.051 6.476-7.946 12.194-8.793 20.496l.883-2.238c2.915-7.216 6.25-14.01 10.117-20.762h3l-1.25 3.625c-1.386 4.133-2.583 8.3-3.75 12.5-1.359 4.83-2.845 9.349-5 13.875 1.856 0 1.856 0 4-1a69 69 0 0 0 4.625-6.625l1.195-1.832c2.58-4.087 4.057-7.844 5.18-12.543h3c-.379 8.736-1.595 18.236-8.312 24.438L533 852c.257 2.14.257 2.14 1 4 5.958-6.785 9.42-13.382 12-22h2c.685 8.013-.042 14.43-5 21-1.75 1.195-1.75 1.195-3.562 2.063-3.772 2.125-4.033 2.683-5.5 6.5-1.309 3.37-1.721 4.278-4.75 6.5-3.678 1.081-6.378 1.43-10.188.937-3.074-2.104-3.851-3.48-4.875-7.062C514 861 514 861 516 858c3.625-.187 3.625-.187 7 0v2l-4 1 1 5c3.378.845 5.675 1.108 9 0 .613-5.789.613-5.789-2.062-10.687-2.688-2.19-2.688-2.19-4.688-3.446-5.002-3.255-6.948-6.421-9.25-11.867l-1.75-3.375C510 834 510 834 510 832l-2.187-.824C501 828.328 494.91 824.525 490 819l-2-2c1.708 3.985 4.072 7.036 8 9v2l1.875.938L502 831v2l1.875.25c2.125.75 2.125.75 3.203 2.375 2.231 5.748 2.737 12.975 1.3 18.965-1.567 3.494-3.043 5.172-6.19 7.41-5.744 1.802-9.516 1.404-14.875-1.125-5.2-2.243-8.655-1.642-14.083-.477-3.592.67-7.015.893-10.668.977l-3.433.086c-4.73-.697-6.996-2.968-9.824-6.695-5.603-9.859-9.656-23.822-6.684-35.13l.817-1.948c3.744-10.263 3.113-22.025 1.562-32.688h3c1.533 6.338 2.484 12.501 3 19l3-2h3l.875-1.812C459 798 459 798 461 795h2l.75-2.125c1.422-3.27 3.122-6.016 5.25-8.875h2c-.568 5.54-2.629 10.037-5 15h-2l-.875 1.75L460 807l2.25-2.75c4.302-5.128 4.302-5.128 6.75-7.25h3c-2.304 8.674-4.81 16.052-11.988 21.906-3.516 1.912-7.135 1.751-11.012 1.094l-1-1-2 7c9.214-.032 15.231-2.183 23-7a155 155 0 0 1 4-2v-2h2c-.674 5.728-3.306 9.582-7.687 13.25L465 830l-1 2c-4.69 2.122-8.012 2.109-13 1-2.437-1.062-2.437-1.062-4-2l2 4c7.39.396 12.808-.872 19-5h3v-2h2v-2h2l-1 6h-2l-.687 1.875c-1.692 2.74-3.305 3.175-6.313 4.125v2c-4.686 2.57-8.93 2.037-14 1l-1-1 1 6c5.914 2.22 12.422-.855 18-3 5.7-3.362 10.032-7.753 14-13l4 1c.842-2.767.842-2.767 1-6-1.503-2.559-1.503-2.559-3.75-4.812-6.28-6.744-7.603-14.829-8.875-23.688l-.367-2.395C474.2 788.75 473.57 783.385 473 778m6 14 1 2Zm1 2c-.253 6.069.302 11.162 2 17h2l1 5 2-1c-2.044-10.806-2.044-10.806-6-21zm-31 17v2c3.438-.181 3.438-.181 7-1 1.513-1.936 1.513-1.936 2-4-3.304 0-6.021 1.676-9 3m43 1 1 3Zm-1 15-.7 3.438C488.57 838.56 486.997 845.2 482 852v2c3.87-.553 5.5-2.046 8-5 3.774-5.05 3.774-5.05 5-11h3c-1.012 6.659-2.883 10.69-7 16v2l-2 1 4 1c5.334-7.927 8.518-14.323 8-24h-2v-2c-2.592-1.86-5.144-3.572-8-5m-6 5a519 519 0 0 0-2.5 4.313l-1.406 2.425c-1.312 2.293-1.312 2.293-1.094 5.262h-2l-.812 1.813c-1.173 2.16-2.382 3.545-4.188 5.187 5.263-1.393 7.936-4.733 11-9 1.821-3.477 2.223-6.092 2-10zm19 7 1 3Zm0 5c-1.193 3.877-2 6.916-2 11h2c1.804-4.68 1.804-4.68 1.125-9.437zm-41.687 8.438-3.575.87L456 854v1c6.199.38 10.448-.165 16-3-3.81-1.27-5.816-.52-9.687.438M574 508l4 1-2 6h3l-1 6 3 1-1 2h2v4h2l1 6h2v3h2v3h2c1.063 1.875 1.063 1.875 2 4l-1 2 2 1-1 3 2 1-1 4h2c1.286 8.429 1.286 8.429 0 13l2 1v3h-2v2h2l-1 1.875c-1.142 2.035-1.142 2.035-1 4.125-.375 2.063-.375 2.063-1 4l-2 1h3c-1 3-1 3-3 4l1 4-1.937.313L590 594l-1 3c-2.062.688-2.062.688-4 1v3c-2.647 1.46-3.894 2-7 2v2l-9 2v2l-7-1 1 3-6-1 1 3-6-1 1 3h-7v2h-5v-3l-3-1v-2h-2v-2h-2v2l-1.75-.937c-2.15-1.016-3.894-1.759-6.25-2.063l-3 2 2 5h-3v-3l-5 2 1.5 1.875C520 618 520 618 520 620c-2.169-.506-4-1-6-2v2l4 2v3l-7-2 1 2 1.695-.035c7.471-.084 14.861.434 22.305 1.035v6l-14 1v-2l3-2-15-1 2 13c7.185-.817 7.185-.817 14-3h-3v-3c4.16-1.305 7.65-2.12 12-2v22l1 1v4l-1 1h2c-.49 4.25-3.079 7.079-6 10-3.483 2.548-4.574 3-9 3l-1 2 8-1 1 2c3.997-1.332 4.733-3.563 7-7h2c-.457 5.027-2.992 8.149-6 12l-1.734-.527c-2.397-.5-4.108-.397-6.516-.035L521 682v2h5l-1 4h-5l-1 3 7 1 1 6-6 1v4c-2.375.625-2.375.625-5 1l-2-2c.188-2.062.188-2.062 1-4l3-1-3-2-.875 2.375C513 700 513 700 511 702l1.813.813c2.205 1.197 3.623 2.232 5.187 4.187v3l-2.437-.562L513 709l-1 1c-1.666.04-3.334.043-5 0v-2h-3l2 5h-5v3c2.54.508 5.08 1.015 7.625 1.5C511 718 511 718 514 719v3l-6-1v3a416 416 0 0 1-4.812-.375c-.894-.07-1.787-.14-2.708-.21C498 723 498 723 495 721v-2h5l-1-3-2-1 1 3a557 557 0 0 1-9.062-1.562c-2.703-.403-5.212-.518-7.938-.438l1-4 2.371-.586 3.067-.789 3.058-.773c2.66-.578 2.66-.578 3.504-2.852 2.563-.625 2.563-.625 5-1v-2l2.688-1.187c3.441-1.884 5.594-4.021 8.312-6.813l3-1c.99-1.995.99-1.995 1.625-4.375l.727-2.398L516 686l1-3c1.688-12.837-3.172-27.267-7.168-39.336-2.648-8.48-3.596-17.927.356-26.101A108 108 0 0 1 513 613l2.125-3.312c5.717-5.345 13.08-7.888 20.707-9.231 2.815-.593 5.444-1.527 8.168-2.457q2.448-.78 4.898-1.55l5.477-1.763 2.75-.857c9.471-3.077 16.762-6.774 21.453-15.9 1.856-4.443 1.917-8.667 1.86-13.43l-.021-2.66c-.281-11.577-3.658-21.813-8.366-32.352-1.788-4.233-2.168-7.638-2.114-12.238l.028-2.984L570 512h2zm1 7 1 2Zm-3 5 1 4 2-1zm5 1 1 2Zm-1 6-1 3 3-1zm3 4-1 2h2zm2 3v2h-2l1 3v-2h2zm3 1-1 7-3 1 5 1v2l-3 1 1 2 3-1v3h-3l1 2 4-2-1-10-3-1 1-5zm7 16v3Zm-4 3v3h-3v4c1.968-.031 1.968-.031 4-1 1.305-2.996 1.305-2.996 2-6zm-3 14 1 2 3-2zm0 5-1 3 5 1 3-4zm8 2-1 2 3-1zm-10 2 1 2Zm2 2 3 2v-2zm3 2v2l3-1zm-2 2 1 2Zm-7 2 2 4-5-1v3l-5 1 1 2h2v3l-2.25-1.562c-2.582-1.687-2.582-1.687-5.062-1.125L564 595c-.043 1.931-.043 1.931 1 4 3.328 1.915 3.328 1.915 7 3l3-1h-2v-2h2v-3l5 1 1-5 4-1-1-3 3-1c-4.426-1.445-4.426-1.445-9-2m-17 12v3l-3-2c-2.153.308-2.153.308-4 1 2.528 2.799 4.204 4.458 8 5l1-6zm-13 3 2 5 8 1-1-2h-3l-2-4zm-9 3 1 3h-3v-2l-3 1c1.375 1.542 1.375 1.542 3 3h2v2h5v-2h7l-1-3h-3l-1-2v3h-3v-3zm-7 4 2 2v-2zm-9 34-1 2h2zm-10 2 1 3 5-1v-1zm16 1-1 2 3-1zm-6 1 1 2Zm3 1c-3.025 3.056-3.025 3.056-4 7h-6v1c4.824.193 8.496-.243 13-2l-3-1 2-5zm-12 2v2l6-1c-2.947-1.158-2.947-1.158-6-1m15 1 1 2 1-2zm-10 13 1 5 1-2h5c-2 3-2 3-4.125 3.688L520 669l1 3a502 502 0 0 0 4.438-1.875l2.496-1.055c2.223-.894 2.223-.894 3.066-3.07h-3l1-5h-2v-2c-3.08 0-5.311 1.597-8 3m12 2 1 2Zm-25 40 1 2 3-1zm-8 5-1 3 4 1-1-4zm-5 3v2l3 1v-2zm7 7c2.139 2.139 3.133 2.427 6 3l1-2zM274 12l2.118.48c3.032.547 5.917.73 8.995.836l3.533.127 3.666.12 3.631.13c11.378 1 11.378 1 22.057-1.693 3.35.319 4.592.592 7 3-.025 2.024-.025 2.024-.378 4.487-.643 5.284-.687 10.405-.579 15.72q.034 2.856.064 5.713c.038 2.96.081 5.92.14 8.88.054 2.886.083 5.771.108 8.657l.073 2.677c.018 4.268-.056 6.297-2.45 9.962L320 73l-5-1v-5h-34l-2 6h-3c-1.164-5.506-1.111-10.842-1.062-16.437l.011-3.026c.016-4.253.044-8.507.072-12.76q.026-4.67.041-9.34l.026-2.898c.017-4.647-.192-8.96-1.088-13.539zm9 6c-2.804 4.948-1.774 9.617-1 15h5a442 442 0 0 0-.312-6.375l-.176-3.586c-.17-1.003-.338-2.006-.512-3.039zm26 0v11h-7l-1 4q3.219-.211 6.438-.437l3.62-.247c2.828.007 2.828.007 3.942-1.316.072-2.02.084-4.042.063-6.062l-.028-3.348L315 19zm-20 2 3.438.375L296 21l1 2h-5l-1 3h11v-3h-2l3-4a288 288 0 0 0-4.75-.625l-2.672-.352c-2.807-.025-4.212.529-6.578 1.977m3 9-1 4 3-1zm1.438 6.438-3.346.158q-4.047.192-8.092.404a134 134 0 0 0-1.062 18.563l.013 2.478q.02 2.98.049 5.959c5.12 1.032 10.051 1.183 15.25 1.188l2.469.037c2.095.005 4.19-.102 6.281-.225l2-2-2-4-15 1-1 3-3-1-1-24 3 1c2.569.283 5.112.51 7.688.688l2.068.181c5.15.355 9.29-.418 14.244-1.869-.138 3.959-.287 7.917-.437 11.875l-.12 3.418-.127 3.262-.11 3.015C311 61 311 61 310 63h5c1.292-5.686.902-11.108.563-16.875l-.159-2.953Q315.21 39.585 315 36c-7.286-1.034-14.224-.947-21.562-.562M290 42a153 153 0 0 0-.062 6.563l.027 3.628L290 55l2 1c.196-1.603.381-3.208.563-4.812l.316-2.708c.278-2.614.278-2.614-.879-5.48h13l1 2v-3c-3.281-.982-6.27-1.134-9.687-1.125l-2.95-.008c-2.32-.133-2.32-.133-3.363 1.133m7 5v2h2v-2zm6.25 5.438c-2.404.6-4.818 1.09-7.25 1.562v2h9l1-4c-1.139-.04-1.139-.04-2.75.438M468 11c1.691.09 3.38.246 5.063.438l2.785.308L478 12l-1 9c1.626-.087 3.25-.195 4.875-.312l2.742-.176c2.745-.3 2.745-.3 4.383-3.512 3.23.557 5.024 1.332 7 4v4l-2.957-.035c-1.272-.01-2.545-.018-3.856-.027l-3.832-.036c-3.351-.064-3.351-.064-6.355 1.098-1.23 3.512-1.23 3.512-2 7l3 1 1-3h2v-2h3v2l4 1-.437 2.605c-2.395 13.77-2.395 13.77-.563 27.395l-1.75.375c-2.273.631-4.175 1.514-6.25 2.625l-1.312-1.937c-1.6-2.33-1.6-2.33-4.688-3.063l.473 2.555.59 3.32.597 3.305C477 72 477 72 476 74c-6.625.125-6.625.125-10-1v-3h2q.075-6.353.11-12.708.015-2.161.04-4.324c.025-2.07.036-4.14.045-6.21l.032-3.777c.09-3.099.09-3.099-2.227-4.981l.07 3.543q.029 2.322.055 4.645c.017.768.034 1.537.05 2.33.038 4.297-.18 7.561-2.175 11.482l-4-1c-1.058-6.009-1.117-11.846-1.062-17.937l.013-2.94q.018-3.562.049-7.123h3v2l6 1v-9l-2.082.035c-.901.01-1.802.018-2.73.027l-2.708.036C458 25 458 25 455 24l1 2c.111 2.413.164 4.797.168 7.21l.01 2.193q.007 2.307.007 4.615c.002 2.313.02 4.626.04 6.939.072 18.06.072 18.06-2.225 25.043-3 2-3 2-4.875 1.938-3.043-1.343-4.892-3.519-7.125-5.938l1-3h4c1.284-2.569 1.33-4.766 1.563-7.625l.253-3.04L449 52c-2.43.06-2.43.06-5 1-1.598 2.505-1.598 2.505-2.625 5.625l-1.258 3.281q-.97 2.684-1.922 5.375c-1.154 3.06-1.806 4.495-4.695 6.156C431 74 431 74 428 74c.578-3.902 2.583-5.979 5-9 .778-2.182.778-2.182 1-4h2c2.818-15.727 3.264-31.103 2-47q2.159.68 4.313 1.375l2.425.773C447 17 447 17 450 19l2-5c3 0 3 0 4.688 1.25C458 17 458 17 458 21l9-1-.062-3.937A59 59 0 0 1 467 12zm-22 12c-1.296 1.066-1.296 1.066-1.062 3.563L445 29l4 1c.934-3.01 1.044-3.867 0-7zm-1 12v11l5-1v-7l-1.937-.375L446 37zm30 2v22l1-2c2.063-1.125 2.063-1.125 4-2 .209-6.406.158-11.93-2-18zM388 9l11 2v6h-3v5l1.688-.324c6.075-.955 9.723-.217 15.312 2.324-1.75 3.875-1.75 3.875-4 5-1.02 3.062-1.102 5.088-1.062 8.29l.023 3.1.039 3.235q.037 3.175.063 6.352l.035 2.846C408 55 408 55 407 56q-3.5.062-7 0l-1-6-3 1q.172 3.657.375 7.313c.03.69.062 1.38.094 2.091.212 3.666.45 5.475 2.531 8.596.188 2.625.188 2.625 0 5-1 1-1 1-4.812 1.313-3.317-.018-3.973-.141-6.688-2.313l-1.5-2 .96-2.54c1.11-3.694 1.447-6.989 1.665-10.835l.227-3.773L389 51l-3 1c-.733 2.015-.733 2.015-1 4h-6l.035-1.766C379.11 47.44 378.651 40.761 378 34h-2l1 2c.073 1.67.084 3.344.063 5.016l-.024 3.043-.078 6.336c-.039 5.025.154 9.645 1.039 14.605l-1 3h-5l-2 5h-7l.016-3.349q.026-6.147.039-12.294.008-2.66.02-5.323c.013-2.549.018-5.098.023-7.647l.015-2.406c0-3.258-.075-5.868-1.113-8.981h-11l-1-4 2.012.035c.883.01 1.766.018 2.675.027l2.637.036C360.003 29 362.378 28.537 365 28q3.403-.322 6.813-.562l3.519-.254L378 27l1-5 10 2zm-3 19v7h4v-7zm10 0v7h4v-7zm-26 9v20l2 1V38zm16 2v8h4v-8zm10 1c-.25 3.584-.25 3.584 0 7h5l-1-9c-1.462-.092-1.462-.092-4 2m-26 19 1 4ZM381 595h3c-1.072 3.216-2.42 5.618-4.5 8.25-3.521 4.802-4.115 9.843-4.883 15.64-1.015 7.2-2.968 12.814-6.617 19.11h-3l-.687 2.25C363 643 363 643 360.625 644.875c-3.726 3.016-6.238 6.51-6.945 11.288-.072 2.271-.031 4.505.07 6.774l.055 2.362c.046 1.9.118 3.801.195 5.701h-2c.45 2.73 1.031 5.073 2.113 7.629 4.06 9.932 2.78 20.426-1.113 30.371-1.46 1.607-1.46 1.607-3 3l-1.937 2.5c-1.919 2.325-3.48 3.967-6.063 5.5h-4v2q-1.874.722-3.75 1.438l-2.11.808c-2.03.715-4.044 1.268-6.14 1.754v2l-1.687.625c-2.284 1.358-3.312 2.454-4.938 4.5L317 736h-2c-3.065 7.177-5.732 16.355-3 24 1.676 2.934 3.474 5.713 5.406 8.484 3.94 6.219 3.484 14.532 1.922 21.524-.713 2.36-1.47 4.681-2.328 6.992h-2l.5-3.812c1.222-11.616.166-18.902-5.687-29-3.337-5.869-3.67-11.905-2.352-18.493C309.79 737.77 314.353 731.85 321 727l1.405-1.475c1.72-1.644 3.304-2.556 5.43-3.61l2.228-1.134q2.298-1.149 4.601-2.289c4.563-2.33 7.778-4.728 11.336-8.492l3-1 .375-2.062c.625-2.938.625-2.938 1.688-6.25 1.782-7.01.908-13.034-.938-19.875l-.527-2.077c-.747-2.874-1.55-5.623-2.715-8.357-2.874-7.743-.965-16.637 2.242-23.942 2.712-3.525 6.097-6.103 9.875-8.437h2v-2h2v-3h2c2.025-5.496 3.334-10.719 4.313-16.5 1.219-6.441 3.044-11.727 7.687-16.5h2zm-27 51-1 2h2zm-3 3 1 3Zm-1 3 1 3Zm-1 3v10h1v-10zM381 814c3.285 1.056 4.05 2.084 5.852 5.117q.904 1.87 1.773 3.758c.3.625.598 1.25.906 1.895.831 1.74 1.65 3.484 2.469 5.23l1.068 1.938c1.022 2.26 1.266 3.973 1.424 6.44l.19 2.527.193 2.658c.95 10.817 2.822 19.388 9.953 27.878C406 873 406 873 406 875h2v2l-4-1v-2h-2v-2l-1.75-.625c-3.064-1.873-4.405-4.345-6.25-7.375 1.6 5.97 3.112 9.927 8 14l2.5 2.125c2.482 1.94 2.482 1.94 5.313 3.5L412 885v2c-6.348.458-10.871-2.532-16-6-6.575-5.982-10.097-12.055-10.75-20.922-.318-3.918-.813-7.805-1.312-11.703l-.278-2.193L383 841h3l2 3c-.783-3.752-1.578-7.501-2.375-11.25l-.672-3.223-.664-3.105-.603-2.857c-.591-2.557-.591-2.557-1.767-4.716C381 817 381 817 381 814m10 43 1 2Zm1 3 1 2ZM364 838h3c2.779 8.498 4.659 16.03 4 25h3l1 6h2c1.667 5.343 3.158 10.66 4.375 16.125 1.133 4.666 2.683 8.238 5.441 12.156 1.263 1.833 2.229 3.712 3.184 5.719-2.937-.375-2.937-.375-6-1l-1-2-1 2c-4.297-.86-5.536-2.304-8-6-8.27-12.995-9.622-25.826-9.75-40.812q-.042-2.513-.09-5.026c-.073-4.054-.123-8.108-.16-12.162m7 27v6l2-3zm1 7v5h1v-5zm1 5 1 4Zm1 5 1 4Zm1 4 1 4 1-2zm2 4 1 2Zm4 7 1 2ZM162 661h3l-.656 2.309c-3.234 11.379-3.234 11.379-.719 22.566 2.551 3.357 4.481 4.62 8.375 6.125v2l3.063.625c5.82 1.673 9.537 5.634 13.25 10.25 4.207 7.792 4.865 16.422 3.687 25.125-1.2 3.767-2.807 7.34-4.42 10.945-3.566 8.028-4.281 14.543-2.346 23.145.97 2.418 1.627 3.378 3.766 4.91 2.64.775 5.193 1.43 7.875 2 4.87 1.047 9.029 1.984 13.125 5 1.803 3.348 2 5.115 2 9h-3l-.625-3.375c-.962-3.742-.962-3.742-3.75-4.875L201 776c-13.588-2.979-13.588-2.979-18.75-9.062-3.883-9.125-2.106-18.005 1.223-26.926 4.332-11.173 4.332-11.173 4.527-23.012l-.328-2.46c-.832-4.764-1.85-7.356-5.672-10.54v-2l-2.105-.781c-3.225-1.358-6.177-2.972-9.208-4.719l-3.238-1.844L165 693v-2l-3-1c-3.566-4.992-4.777-8.82-4-15 .817-4.878 1.957-9.476 4-14M234 687h5c-.654 4.689-2.518 8.512-4.5 12.75-3.664 8.202-5.952 13.896-2.625 22.625l1.129 2.813c3.454 9.754 3.108 22.694-1.066 32.125A105 105 0 0 1 230 761h-2l-.332 2.922-.48 3.828-.458 3.797c-.717 3.392-1.33 5.011-3.73 7.453-2.437.938-2.437.938-5 1-2.312-1.437-2.312-1.437-4-3l1-7 5-1-1 3h-2l2 3c2.126-1.45 2.126-1.45 4-4 .316-1.96.316-1.96.375-4.125.257-4.107 1.403-6.546 3.625-10 2.628-4.093 3.826-6.918 4-11.875l.148-2.453c.284-7.626-.694-15.64-4.148-22.547-.834-7.871.565-13.932 4-21h-2l-.25 2.063c-.75 2.937-.75 2.937-2.812 6.25-2.329 3.916-2.695 7.214-1.938 11.687.829 2.456 1.871 4.652 3 7 1.253 3.646 1.074 7.169 1 11h-2l-.297-2.09c-.779-4.896-1.67-9.237-3.828-13.722-1.72-3.69-2.717-6.063-1.875-10.188 1.349-2.572 2.834-5.006 4.398-7.453 2.14-3.403 3.86-6.927 5.602-10.547h2zm-2 8 1 2Zm-1 2 1 2ZM350 867l3 1 .184 3.578.253 4.672.12 2.355.127 2.286.11 2.094c.194 2.371.194 2.371 1.206 6.015v-10c4 2 4 2 4.977 4.723l.648 3.34.727 3.519q.592 3.12 1.171 6.242c.408 2.077.932 4.13 1.477 6.176l3 1v2h2l.75 2.375c1.404 2.948 2.257 3.527 5.25 4.625v2c-4.172-.519-6.254-1.712-9.312-4.562l-2.114-1.942L362 907l2 5h2v3c-5.006-.498-7.327-4.278-10.337-7.94-8.167-10.426-8.446-21.475-7.226-34.185C349 869 349 869 350 867m6 26 1 4Zm1 5 1 2Zm1 2 1 5 1-3zm3 5 1 2ZM248 927l.77 1.61c2.163 4.466 2.163 4.466 4.917 8.577C255 939 255 939 255.5 941.563c.574 2.799 1.443 3.56 3.5 5.438v2h3l-1 3 3 1v3l-6-2v2h-4v-2l-9-1v-2l-5-2 1-5h2v2l2-1-1.277-1.426-1.66-1.886-1.653-1.864C239 938 239 938 238 935l-4 1v-6l5.957-.586c3.258-.66 4.542-2.414 8.043-2.414m-5 3c.656 3.61.656 3.61 2 7h2l1 2v-3h-2l-2-6zm4 2 1 2Zm-6 2 1 2Zm1 2 1 2Zm5 11v2l2-1zm9 1v2l3 1v-2zM459 733c4.025.28 5.745.784 8.875 3.438C470 739 470 739 470 741h2c3.493 8.796 4.237 15.963.918 24.938-1.314 2.95-3.011 5.462-4.918 8.062a422 422 0 0 0-2.25 3.375L464 780l-4-1 1.059-2.52 1.378-3.293 1.372-3.269c3.674-8.998 2.371-16.883-.809-25.918-1.249-2.717-2.624-5.343-4-8zM393 804c4.036 1.345 4.436 3.126 6.438 6.813 2.368 4.431 2.368 4.431 5.726 8.085 2.634 3.015 2.545 6.083 2.774 9.914 1.027 11.418 3.73 22.081 10.828 31.356 1.312 1.948 1.807 3.538 2.234 5.832l-3-1v-2l-1.816-.812c-7.795-4.24-11.821-13.885-14.372-21.938-1.053-4.865-1.635-9.821-2.304-14.75-.659-4.54-1.537-9.017-2.508-13.5h-2c-1.257-2.906-2-4.796-2-8M232 848c2.664 3.33 3.362 5.777 3 10h2v2l-5-1v-5h-3v2h2l-.187 2.313c-.072 2.732-.072 2.732 1.687 4.5L234 864l-4 1-7-9v4h-3l-2 1a109 109 0 0 0-1 7h-2l-1-2-1.937-.375C210 865 210 865 208.75 862.938L208 861h-5v4h-2c-1.495-2.99-1.116-5.7-1-9l1-3 1.836.035c10.502.113 19.94-5.035 29.164-5.035"/><path d="M502 733c2.25 0 2.25 0 5 1 1.724 2.502 2.842 5.2 4 8l1.188 2.375c3.231 10.441.962 18.713-4.028 28.219-7.384 13.508-7.384 13.508-12.16 18.406h-2c.566-3.459 2.125-6.2 3.832-9.226 6.857-12.164 9.289-24.196 6.492-38.145a124 124 0 0 0-1.668-5.492C502 736 502 736 502 733M207 671h2c.636 8.301-.895 14.766-5.156 21.95-3.1 5.279-2.99 9.44-2.801 15.491-.104 8.625-2.46 16.986-5.168 25.121-2.454 7.684-4.68 16.971-1.562 24.75 1.412 2.767 1.412 2.767 3.687 3.688v2l4 1v2c-5.03-1.287-7.939-2.748-11-7-2.997-8.855-1.516-16.247 1-25q.793-3.123 1.563-6.25l.746-2.977c1.813-7.272 3.097-14.289 3.691-21.773l-6 1-2-7 4 1v2c3.246-3.035 5.09-6.565 7.063-10.5l1.082-2.15c2.735-5.649 4.322-11.066 4.855-17.35M466 728c4.82.413 6.91 2.38 10 6v2h2c5.333 11.606 5.806 19.715 1.887 31.777-1.227 3.076-2.885 5.596-4.887 8.223l-1.5 2.375L472 780h-4c1.284-4.28 2.978-8.061 5.098-11.973 3.222-7.239 3.327-17.9.777-25.34-1.739-3.889-4.195-7.35-6.668-10.804C466 730 466 730 466 728M214 840c8.605-.438 18.177.386 25.75 4.875 2.532 2.392 3.059 3.688 3.25 7.125l3 1c3.329 4.09 4.502 6.726 4 12h-3l-1-2h-2l1-4-2.312-.375C240 858 240 858 237 856v-2h2l1-4c-6.719-5.151-15.936-4.13-24-4v-2l-3 1 2 1v2l-4 1-1-2-2.25 1c-2.75 1-2.75 1-6.75 1v-2q2.4-1.259 4.813-2.5l2.707-1.406C211 842 211 842 214 842zm26 14v2l4 1-2-3zM100 983l1.672.434c2.515.612 5.038 1.127 7.578 1.629l2.703.535L114 986l-1 3h-6v2h7v2l6-1v4l-9 2 1 4c-1.56 1.56-3.089 1.282-5.25 1.375-3.859-.018-4.49-.15-7.562-2.812L97 998c-2.173-.861-2.173-.861-4-1v-3l11 1c0-2.944-1.613-4.816-3.125-7.246C100 986 100 986 100 983m3 16v1h5v-1z"/><path d="M477 726h3c2 3 2 3 2 6l4 1 1 4h2c4.734 11.116 5.377 18.66.875 29.945L489 769h-3l.254-2.93c.587-7.51.891-14.58-.254-22.07h-2q-1.76-3.651-3.5-7.312l-1.012-2.092C477 729.34 477 729.34 477 726"/><path d="M488 729c3.37 1.462 5.607 3.338 8.188 5.938l2.105 2.09c2.757 3.186 3.035 6.316 3.004 10.44-.694 5.917-2.63 12.199-5.297 17.532h-3l.14-3.191c.312-10.378-1.008-18.91-4.14-28.809-.346-1.33-.686-2.662-1-4M537 676h3c-.506 2.169-1 4-2 6h2c0 4.172-.336 7.884-1 12l-2 2c.319 2.108.319 2.108 1 4-4.554 2.666-7.74 3.316-13 3v-2h3l.375-3.875c.375-3.875.375-3.875 2.625-6.125l-.5-2-.5-2 2-2a90 90 0 0 0 2-4l1-2h2zM356 35l5 1c2.343 7.028 1.53 17.35-1.336 24.188-1.43 2.175-2.736 4.063-4.664 5.812h-2l-1 3h-3v-3h2v-3l2-1c.994-2.983 1.287-5.419 1.535-8.543l.264-3.252.264-3.392.275-3.428q.336-4.193.662-8.385M415 889h2c5.893 9.233 7.58 19.41 5.25 30.188-1.411 4.908-3.546 9.211-7.312 12.75C413 933 413 933 410 933l1-4h2l.813-2.125C415 924 415 924 416.563 921.313c3.81-8.782 2.027-16.144-.653-24.993C415 893 415 893 415 889M648 844h3c1.23 6.4 1.23 6.4.063 9.438L650 855h2l-1 10h-4l.035 2.703.028 3.547.035 3.516c-.08 2.644-.312 4.732-1.098 7.234h-2v-3h-2v-2h2v-4l-3-1v-3h3l-1-1.812C642 865 642 865 642 862l2-1h-2v-3l4-1h-3c.25-1.875.25-1.875 1-4 2.063-1.25 2.063-1.25 4-2zm0 13 1 4ZM327 907h3c-.716 4.87-1.888 9.14-5.695 12.492-4.879 3.386-8.414 4.307-14.305 3.508-2-1.25-2-1.25-3-3v-4c.88-.182 1.76-.364 2.668-.55l3.52-.763 3.48-.738c4.807-1.37 7.543-2.766 10.332-6.949M107 1005l2.3.219 3.013.281 2.988.281c2.746.26 2.746.26 5.699.219v3c-3.534 2.12-6.944 2.532-11 3h9l-1 3h-2v2c-2.562.813-2.562.813-6 1-1.91-1.107-3.535-2.403-5.254-3.785-2.456-1.71-4.804-2-7.746-2.215v-2l10-2zM201 656h2c3.39 10.8 4.375 20.765-.832 31.16-2.688 4.235-6.45 6.424-11.168 7.84-2.812.125-2.812.125-5 0l1-3c1.926-.738 1.926-.738 4.313-1.312 3.498-1.078 4.574-1.563 7.125-4.375 3.435-7.284 3.792-13.433 3.187-21.313l-.172-2.637c-.14-2.122-.295-4.242-.453-6.363M422 1016h3v3l4 1v-2h2v3c-1.977 1.973-1.977 1.973-4.625 4.063l-2.602 2.097c-2.87 1.904-5.472 2.906-8.773 3.84l-1-5 3-2h-9v-2l3.188-.312c3.715-.67 5.712-1.65 8.812-3.688h2zM133 1008h3l2 9-2 1c.669 3.113.669 3.113 3.063 4.188L141 1023v2c-3.375-.25-3.375-.25-7-1-1.437-2.062-1.437-2.062-2-4l-1.562 1c-3.34 1.37-5.864 1.39-9.438 1-2-1.812-2-1.812-3-4l1-3 12 3v-2h4zM327 845c3.638-.33 5.377-.488 8.313 1.813 3.08 3.992 2.84 7.869 2.812 12.687l.012 2.05c-.006 3.09-.153 5.497-1.137 8.45h-3l.188-3.437c-.014-7.592-2.894-13.492-7.188-19.563zM272 877c4.662 1.732 8.686 3.323 11.813 7.313 1.441 3.263 1.692 5.15 1.187 8.687-2.534 4.967-6.013 8.523-11 11-3.437.313-3.437.313-6 0v-2q1.935-1.007 3.875-2l2.18-1.125C276 898 276 898 278 898c1.66-2.988 2.836-5.562 3-9-1.872-3.183-1.872-3.183-4-6v-2l-5-1zM162 1025l5 1 1 3h2v5l-4 1v2c-1.937-.312-1.937-.312-4-1l-1-3-2.375.563C156 1034 156 1034 154 1033v-2h-2l-1-4h3v3h5v-2h2zm1 4 1 4 2-2zM427 1027v3l-2 2h2l-1.062 1.75c-1.087 2.608-.869 3.644.062 6.25-3.448 2.053-5.317 3.063-9.375 2.688L414 1042v-5h4l-.312-2.812L418 1031c2.375-1.812 2.375-1.812 5-3 2-1 2-1 4-1M225 740h3c-.48 5.569-1.3 10.67-3 16h-2l-.625 2.188c-2.082 4.258-5.435 6.454-9.25 9.125-3.377 1.092-6.59.805-10.125.687v-3l2.012-.297c5.303-.898 9.162-1.63 12.988-5.703l1-3h3c1.242-5.318 2.308-10.582 3-16M370 13c4.75.875 4.75.875 7 2v5c-3.27.226-6.54.428-9.812.625l-2.815.195-2.705.157-2.491.158C357 21 357 21 354 19v-3l16-1zM308 976c-1.935 5.225-6.525 8.016-11 11a92 92 0 0 1-6.375 1.188l-3.398.542c-3.042.255-5.296.044-8.227-.73v-2l3.29-.516q2.168-.365 4.335-.734l2.16-.332c4.932-.86 8.101-2.428 12.215-5.418h2v-2c2-1 2-1 5-1M198 942h2l2 3h2l1 7-2 1c-1.166 3.065-.945 5.137-.062 8.25L204 965h-2c-3.603-6.46-5.414-12.792-7-20h2zm0 4 1 3Zm1 5 1 2Zm1 2 1 2ZM642 835h3v3h2c-.449 3.05-1.101 5.19-2.562 7.938-1.558 3.317-1.696 5.447-1.438 9.062l-5 1 2-8h-3c1.418-4.472 3.113-8.711 5-13m1 4 1 2Zm-1 3 1 2Zm-1 2 1 2ZM253.625 773.938l2.477.027L258 774v2c-3.73 2.034-5.67 3-10 3-2.025 1.912-2.025 1.912-3.875 4.375-3.094 3.69-5.209 5.765-10.125 6.625v-2l2.375-.687c2.784-1.079 2.784-1.079 3.875-3.625A77 77 0 0 0 242 776l2.375-.437c7.688-1.648 7.688-1.648 9.25-1.625M543 618l1 3h-11l4 1v3h-14v-3h3v-4c5.77-1.403 11.181-.673 17 0M284 796v3c-1.496 1.316-1.496 1.316-3.437 2.563-2.796 1.742-2.796 1.742-4.563 4.437h-2v2h-6l2-5h2l1-4h2v-2c3.35-2.11 5.221-2.05 9-1m-11 7 1 3ZM216 792h2c-.484 4.312-1.62 6.059-4.937 8.813l-2.153 1.832C209 804 209 804 207 804v2a349 349 0 0 1-5 4l-2 3h-2v-2h-2v-4h3l1 3 .125-1.687c1.35-3.57 3.84-5.112 6.875-7.313 2.375-.812 2.375-.812 4-1v-2h2l.938-1.875z"/><path d="M221 782h4v2c-1.404.89-2.81 1.777-4.227 2.648-2.135 1.628-3.56 3.489-5.21 5.602-2.709 3.264-3.06 3.686-7.5 4.25L205 796l1-3h2v-2h-3v-2l3.625.313c4.992.044 6.855-1.96 10.375-5.313h2zM202 627l3 1-4 17h2l1 5h-3v2h-2c-3.39-6.778.139-16.191 2-23zm-2 18 1 2ZM253 866c2.094 3.402 2.18 6.053 2 10h-2l-2-6c-5.235.973-5.235.973-8.812 4.625L241 877h-2c.529-3.807 1.307-6.211 4-9 3.433-1.807 6.146-2.22 10-2M637 859h3q-.21 4.657-.437 9.313l-.12 2.67-.127 2.568-.11 2.364C639 878 639 878 638 881h-3zM263 793h2c.691 6.453-.422 9.431-4.395 14.531C259 809 259 809 256 809l1-3h2v-2h-2c1.45-4.108 3.398-7.503 6-11M533 704c-1 3-1 3-3.062 4.188L528 709v2h-9v-4h3v-2c3.724-.693 7.21-1.111 11-1M433 933l4 1c-3.149 7.565-3.149 7.565-6.687 9.375L428 944l-1 2h-2l1-5h2l2-5h3z"/><path d="M234 780v3l-2.336 1.207-3.039 1.606-3.023 1.582c-2.83 1.497-2.83 1.497-4.602 4.605h-3c1.365-4.676 3.329-6.308 7.438-8.812l2.933-1.833C231 780 231 780 234 780M148 593h3v9h-3v6h-3c.642-5.135 1.683-9.994 3-15M325 893c-1.365 3.117-2.87 5.087-5.437 7.313l-1.81 1.613L316 903l-3-1c1.375-2 1.375-2 3-4h2v-4c2.463-1.231 4.28-1.072 7-1M138 1011h3v4h4v5l2 1v2c-2.25 0-2.25 0-5-1-2.438-3.474-4-6.738-4-11M180 935h2v2h3v12l-3-1v-8h-3zM655 857h2c-.455 2.121-.919 3.858-2 5.75-1.487 3.346-1.636 6.613-2 10.25h-3v-4h-2v-2l3-2a161 161 0 0 0 3-7zM217 873a100 100 0 0 1 5 0c1 1 1 1 1.063 3.563L223 879l-5 2c-2.125-4.625-2.125-4.625-1-8M315 804h3c-.72 3.753-2.331 6.86-4.062 10.25l-1.66 3.266L311 820h-2c.628-3.95 1.865-7.199 3.563-10.812l1.378-2.958zM291 788h2c-1.125 2.972-2.223 5.334-4 8h2v3l-5 2v-3h2v-2h-3l1-3h2l.938-1.937C290 789 290 789 291 788M438 7h15v3h-14zM190 952h2c1.257 2.906 2 4.796 2 8-3.625.201-5.865-.142-9-2v-4l5 1zM193 870h3c.365 6.323.365 6.323-1.312 9.438C193 881 193 881 190 881v-3h2zM308 784c1.257 2.906 2 4.796 2 8l-2.25-.5c-2.94-.62-2.94-.62-6.75-.5.386-2.798.801-3.82 2.938-5.75C306 784 306 784 308 784m-3 3 1 2ZM537 665h2c-.577 3.892-2.5 6.045-5 9l-2 3h-2c.875-4.75.875-4.75 2-7h2l.938-1.937C536 666 536 666 537 665M324 841h2c-1.125 4.413-2.151 8.384-5 12h-4l5-10h2zM205 913c1.89.215 1.89.215 4 1 1.047 2.066 1.047 2.066 1.75 4.563l.734 2.503L212 923c-3.781-.71-3.781-.71-5.75-3.312C205 917 205 917 205 913M512 711l13 1-1 3q-2.437-.212-4.875-.437l-2.742-.247C514 714 514 714 512 713zM166 646h2c.212 5.192-.409 9.127-2 14h-2q.212-2.938.438-5.875c.08-1.09.162-2.181.246-3.305C165 648 165 648 166 646M269 5c2.063.438 2.063.438 4 1l-1 3h-10V6c1.454.03 1.454.03 2.938.063 2.937.293 2.937.293 4.062-1.063M505 714q2.407.212 4.813.438c.893.08 1.786.162 2.707.246C515 715 515 715 518 716v2c-4.824.193-8.496-.243-13-2zM280 4v2l2 1-1 2h-7c.375-1.937.375-1.937 1-4 2-1 2-1 5-1M417 1059v2c-3.508 1.604-6.144 2.22-10 2v-3c3.435-.625 6.49-1 10-1M150 1017h3l-1 7h2v2h-3l-3-6 2-1zM188 937h2l1 12-3-1zM350 1081h3l-1 10h-2c-.95-3.695-.95-6.305 0-10M303 804l3 1-1 2h-2v3c-3 2-3 2-6 2 1.231-3.694 3.208-5.351 6-8M161 631h3l3 9c-3-1-3-1-4.687-3.937C161 633 161 633 161 631M345 69h4v4l-6 1c.875-3.875.875-3.875 2-5M225 1007l9 3v2c-3.735-.498-5.812-.875-9-3zM514 631h6v2c-3 2-3 2-7 2zM231 808h2c-.56 3.243-1.413 4.93-4 7h-2c1.074-2.915 1.778-4.778 4-7M621 790h2l-1 9h-2zM206 964h4v3l-7 1v-2h3zM303 816l-1 4h-2v3h-2c-.187-2.375-.187-2.375 0-5 3-2 3-2 5-2M354 7h8v2l-7 1zM210 958h2v2h2l1 4-4 1zM227 950c3 0 3 0 4.688 1.313C233 953 233 953 233 956l-6-3zM406 1029h6v3h-6zM423 933h2l-1 5h-2v2h-2c1.875-4.75 1.875-4.75 3-7M328 858h2l-1 8h-2zM311 800h2c-.875 5.75-.875 5.75-2 8h-2zM300 786c-1.049 2.622-1.65 3.794-4.125 5.25L294 792v-3c3.333-3 3.333-3 6-3M167 680h2l3 7h-3c-1.46-2.647-2-3.894-2-7M525 609h3v2h2v3h-3v-2h-2zM493 7h6l-1 3h-5zM180 949h2c1.46 2.647 2 3.894 2 7l-3-1zM186 874l3 1-1 5h-3zM232 847l4 1 1 5-3-1c-1.187-2.562-1.187-2.562-2-5M169 656h3l-2 7h-2zM240 941v5l-4-1v-3c2-1 2-1 4-1M232 813h2v3h-2v2h-3c1.875-3.875 1.875-3.875 3-5M148 587h3v5h-3zM223 944h2c2 3 2 3 2 6h-2c-2-3-2-3-2-6M441 937h2l-1 6h-2zM187 848l5 1v2h-5zM237 679h2v7h-2zM461 7h7v2h-7zM360 941h3l-1 4-3-1zM168 1020l4 2v2l-4-1zM164 1014l3 1v4h-2zM261 945l3 1v3l-4-1zM192 859h2v5l-3-1zM282 814h2c-.312 1.938-.312 1.938-1 4l-3 1zM306 797h2l1 6h-2zM580 793h3l-1 4h-3zM534 614h6v2h-6zM488 7h4v3h-4zM407 6h5l-1 3h-4zM619 989h3l-1 4h-2zM191 964h3v4l-3-1zM178 953h2l1 5h-2zM297 782h2l-1 4h-3zM146 611h3l1 4h-3zM496 1054h3l1 4h-2v-2h-2zM241 787h3l-1 3h-3zM41 772h2l1 4h-3zM438 937h2l-1 4h-2zM306 811h2v4l-3-1zM301 799h3v3h-3zM353 672h3v3h-3zM716 386h3v3h-3zM746 160h3v3h-3zM144 1006h2v4h-2zM141 1005h2v4h-2zM416 989h3l-1 3h-2zM234 945l3 1v2h-3zM296 817v2l-4 1v-2c2-1 2-1 4-1M201 801h2v3h-3zM204 798h3l-1 3h-2zM598 786l3 1v2h-3zM645 727h2v3h-3zM206 664h3v3l-3-1zM9 584h3l-1 3H9zM272 110h3v3l-3-1zM348 7h4v2h-4zM423 6h3l-1 3h-2zM220 1015h2v3l-3-1zM207 951h2l1 3h-3zM257 943h3v3h-2zM303 795l3 1-1 2h-2zM329 1184h2v3h-2zM27 1134h3v2h-3zM404 1046h2v3h-2zM165 1023h3v2h-3zM259 1015h2v3h-2zM144 1002h2v3h-2zM419 991h2v3h-2zM408 981h3v2h-3zM192 972h2v3h-2zM197 962h3v2h-3zM238 950h3v2h-3zM649 944h3v2h-3zM434 943h3v2h-3zM234 939h2v3h-2zM439 933h2v3h-2zM221 921h3v2h-3zM230 873h2v3h-2zM547 822h3v2h-3zM304 817h3v2h-3zM620 814h2v3h-2zM536 812h2v3h-2zM97 777h3v2h-3zM49 753h2v3h-2zM172 688h3v2h-3zM166 668h2v3h-2zM206 660h2v3h-2z"/><path d="M149 606h3v2h-3zM78 592h3v2h-3zM572 418h2v3h-2zM618 335h2v3h-2zM751 99h2v3h-2zM69 73h2v3h-2zM431 6h2v3h-2zM258 819l3 1-3 1zM569 801h2l-1 3zM244 784l3 1-3 1zM393 1092h2v2h-2zM160 1045h2v2h-2zM408 1026h2v2h-2zM468 1005h2v2h-2zM236 1000h2v2h-2zM190 961h2v2h-2zM192 947h2v2h-2zM353 934h2v2h-2zM421 866h2v2h-2zM72 846h2v2h-2zM314 845h2v2h-2zM635 835h2v2h-2zM547 831h2v2h-2zM234 810h2v2h-2zM253 809h2v2h-2zM307 793h2v2h-2zM301 784h2v2h-2zM302 779h2v2h-2zM179 692h2v2h-2zM207 668h2v2h-2zM402 665h2v2h-2zM167 664h2v2h-2zM444 643h2v2h-2zM577 182h2v2h-2z"/></svg>