<?xml version="1.0" standalone="no"?>
<!DOCTYPE svg PUBLIC "-//W3C//DTD SVG 20010904//EN"
 "http://www.w3.org/TR/2001/REC-SVG-20010904/DTD/svg10.dtd">
<svg version="1.0" xmlns="http://www.w3.org/2000/svg"
 width="340.000000pt" height="412.000000pt" viewBox="0 0 340.000000 412.000000"
 preserveAspectRatio="xMidYMid meet">

<g transform="translate(0.000000,412.000000) scale(0.100000,-0.100000)"
fill="#000000" stroke="none">
<path d="M1836 3953 c-9 -21 -30 -58 -46 -83 -17 -25 -42 -70 -56 -100 -40
-84 -63 -130 -94 -187 -15 -28 -33 -75 -39 -105 -13 -63 -44 -117 -85 -149
-16 -12 -35 -37 -42 -55 -16 -39 -19 -130 -4 -139 19 -12 10 -75 -17 -125 -26
-46 -31 -50 -63 -49 -40 2 -150 -34 -161 -53 -4 -7 -11 -9 -15 -5 -11 11 10
62 25 59 14 -3 41 21 41 37 0 17 -17 13 -24 -5 -3 -8 -11 -12 -17 -9 -17 11
-38 -27 -39 -70 0 -30 -3 -36 -10 -25 -17 26 -11 57 16 89 29 34 18 43 -12 10
-13 -15 -19 -36 -19 -70 0 -49 -8 -63 -19 -33 -17 44 -6 78 40 121 53 49 47
58 -7 13 -52 -42 -64 -76 -46 -128 8 -23 11 -42 6 -42 -16 0 -39 45 -39 79 0
29 11 44 76 108 41 41 73 78 69 81 -10 11 -145 -132 -154 -163 -10 -38 2 -81
31 -112 12 -13 16 -23 9 -23 -17 0 -60 49 -67 76 -11 45 15 92 87 156 38 35
65 64 59 66 -17 6 -138 -118 -154 -159 -19 -48 -8 -91 36 -136 17 -18 26 -33
19 -33 -7 0 -28 15 -47 34 -30 30 -34 40 -34 89 0 49 4 58 41 101 23 26 39 50
35 53 -4 4 -20 -9 -36 -28 -25 -29 -29 -31 -30 -14 0 17 -5 14 -30 -15 -28
-33 -48 -86 -37 -97 3 -2 15 17 26 43 12 26 24 45 27 41 3 -3 1 -14 -5 -25 -6
-12 -11 -41 -11 -66 0 -39 6 -52 36 -86 24 -26 31 -40 21 -40 -20 0 -77 66
-77 90 0 11 -5 20 -11 20 -15 0 -3 -45 19 -76 9 -13 38 -34 65 -47 52 -24 54
-28 31 -48 -13 -10 -17 -10 -24 0 -6 10 -9 10 -15 1 -4 -7 -17 -9 -31 -6 -24
6 -34 -9 -11 -17 6 -2 -1 -3 -18 -1 -16 2 -25 1 -19 -4 6 -4 13 -12 15 -18 3
-8 18 -7 52 3 36 10 55 24 77 55 17 23 39 47 49 54 10 8 22 25 25 39 5 18 13
25 31 25 57 0 10 -107 -89 -202 -39 -37 -74 -68 -79 -68 -4 0 -4 12 -1 26 5
20 3 25 -7 22 -8 -3 -16 -13 -18 -24 -5 -29 -19 -42 -52 -49 -16 -4 -32 -12
-36 -20 -11 -19 -125 -64 -180 -72 -69 -9 -47 10 51 46 104 37 200 87 185 96
-6 4 -33 -7 -60 -24 -28 -17 -62 -34 -77 -38 -15 -3 -56 -18 -92 -33 -36 -15
-95 -30 -132 -34 -37 -3 -76 -9 -85 -12 -10 -3 -7 1 7 9 14 8 55 17 92 21 51
5 86 16 140 45 40 21 90 44 111 51 56 18 45 50 -18 50 -14 0 -25 7 -28 20 -3
11 -1 20 4 20 5 0 9 -4 9 -10 0 -5 24 -10 53 -10 l52 1 -29 15 c-22 12 -30 13
-36 4 -5 -9 -9 -9 -14 -1 -4 6 -1 11 6 11 8 1 6 6 -6 15 -26 19 -42 19 -26 0
8 -9 9 -15 2 -15 -6 0 -14 5 -17 10 -3 6 -11 10 -17 10 -7 0 -6 -6 2 -15 7 -9
8 -15 2 -15 -5 0 -8 -9 -5 -20 3 -11 0 -20 -6 -20 -11 0 -15 19 -12 50 1 11 0
12 -7 2 -6 -10 -13 -8 -28 9 -10 12 -35 30 -56 40 -40 20 -146 40 -153 29 -3
-4 21 -10 51 -14 62 -7 106 -26 146 -63 24 -23 25 -27 12 -41 -22 -21 -7 -30
56 -34 54 -3 55 -4 25 -16 -16 -7 -61 -28 -100 -47 -38 -19 -95 -37 -125 -41
-50 -6 -158 -45 -187 -67 -43 -32 23 -36 92 -6 38 17 61 20 106 16 32 -3 62
-8 67 -11 6 -3 -11 -27 -38 -54 -49 -48 -74 -102 -46 -102 7 0 33 7 56 15 50
18 50 18 50 5 0 -5 -7 -10 -15 -10 -8 0 -24 -9 -35 -20 -16 -16 -19 -28 -14
-58 4 -29 2 -41 -11 -52 -14 -12 -18 -12 -27 1 -8 12 -9 12 -5 -1 2 -8 -11
-32 -28 -53 -31 -36 -75 -143 -75 -181 0 -22 -57 -96 -73 -96 -7 0 -25 30 -40
67 -28 63 -28 69 -17 127 7 34 16 67 22 73 6 7 7 24 4 39 -7 28 -48 74 -66 74
-36 0 -150 -147 -150 -195 0 -22 10 -19 47 17 42 41 58 28 67 -55 4 -34 10
-83 13 -109 2 -27 3 -48 0 -48 -21 0 -137 63 -157 85 -28 30 -71 55 -94 55
-18 0 -78 -78 -71 -91 3 -4 10 -34 16 -66 13 -71 30 -123 42 -123 4 0 5 5 2
10 -3 6 -1 10 5 10 7 0 10 -13 8 -32 -2 -18 2 -33 10 -35 8 -3 12 9 12 40 0
45 21 110 39 122 5 3 25 -4 43 -15 18 -11 45 -20 61 -20 24 0 27 -3 27 -36 0
-28 8 -44 34 -70 19 -19 40 -34 48 -34 16 0 78 -72 78 -91 0 -13 -89 -3 -105
12 -5 5 -13 9 -19 9 -14 0 45 -60 75 -75 14 -8 48 -17 76 -21 46 -6 51 -4 71
21 28 36 28 42 -6 73 -28 27 -72 95 -72 113 0 5 7 9 15 9 17 0 39 -36 39 -65
1 -10 11 -25 24 -31 13 -6 30 -21 38 -33 19 -26 65 -51 97 -51 14 0 30 -7 37
-15 15 -18 130 -21 147 -4 6 6 16 8 22 4 19 -11 41 -76 41 -121 0 -24 5 -53
10 -66 10 -22 70 -68 88 -68 5 0 44 -15 88 -34 70 -31 81 -39 101 -78 26 -52
29 -102 7 -154 -9 -21 -22 -104 -30 -188 -12 -134 -16 -153 -40 -188 -48 -69
-88 -76 -141 -23 -32 32 -34 38 -31 92 l3 58 -36 3 c-23 2 -42 -3 -52 -12 -9
-9 -27 -20 -41 -26 -32 -12 -57 -50 -66 -101 -11 -58 6 -57 21 1 13 53 46 98
35 49 -13 -58 -15 -99 -6 -99 6 0 10 -5 10 -11 0 -5 -3 -8 -7 -6 -5 3 -9 -21
-11 -53 -1 -33 2 -61 8 -65 6 -4 10 7 10 27 0 42 17 105 38 136 13 20 17 21
24 8 5 -9 20 -27 34 -41 13 -13 24 -30 24 -38 0 -20 41 -55 70 -59 19 -2 24
-8 22 -23 -9 -48 -35 -84 -77 -104 -77 -36 -69 -104 17 -141 56 -24 146 -41
153 -30 3 4 -17 11 -43 15 -26 3 -71 17 -99 30 -50 22 -53 26 -53 59 0 20 5
36 10 36 6 0 10 -8 10 -18 0 -24 42 -64 72 -68 46 -7 128 -39 128 -51 0 -6 9
-9 20 -6 36 10 32 22 -12 33 -64 16 -116 41 -123 57 -3 9 8 28 29 47 36 33 86
100 86 116 0 18 -50 11 -57 -8 -4 -9 -24 -45 -46 -79 -33 -53 -37 -65 -27 -83
11 -20 10 -21 -10 -10 -12 6 -19 14 -16 18 4 3 -3 15 -14 27 l-21 22 35 35
c19 19 40 53 47 78 16 56 26 70 51 70 44 0 80 31 108 93 16 34 38 76 50 92 11
17 25 47 30 68 10 35 30 51 30 25 0 -9 4 -8 10 2 5 8 10 11 10 5 0 -13 -20
-43 -20 -30 0 6 -5 3 -10 -5 -5 -8 -7 -23 -4 -33 3 -9 2 -17 -3 -17 -16 0 -43
-81 -43 -130 0 -59 6 -61 74 -21 27 16 55 27 63 24 14 -6 17 -31 6 -59 -6 -16
-7 -16 -12 -1 -6 15 -9 15 -35 2 -44 -23 -45 -18 -3 11 62 42 35 38 -36 -6
-76 -46 -94 -49 -100 -17 -3 18 -5 16 -6 -7 0 -16 -8 -38 -18 -48 -9 -10 -13
-21 -9 -26 5 -4 15 3 23 16 11 15 25 22 47 22 17 0 43 7 59 14 33 18 36 5 6
-43 -22 -37 -20 -46 10 -36 28 8 101 114 101 145 0 55 -40 64 -107 25 -37 -22
-44 -24 -49 -10 -10 25 5 83 30 112 13 15 33 54 45 86 12 32 32 75 46 95 14
20 25 44 25 53 0 9 9 37 20 62 13 30 18 55 14 76 -7 34 -1 37 40 21 41 -15 39
6 -2 30 l-37 22 53 24 c28 12 52 27 52 32 0 5 -20 7 -45 4 -25 -2 -45 -2 -45
0 0 3 25 23 55 43 82 57 75 61 -39 29 -27 -8 -52 -12 -54 -9 -3 3 5 16 18 30
26 27 23 29 -32 16 -28 -7 -38 -6 -38 3 0 7 -15 38 -34 69 -19 31 -37 73 -41
94 -3 21 -14 54 -23 73 l-17 35 32 33 c18 17 37 32 43 32 6 0 21 6 33 14 12 8
63 28 112 44 74 25 102 29 150 25 33 -3 61 -6 62 -7 2 -2 -4 -28 -12 -60 -8
-31 -13 -69 -9 -84 23 -113 44 -148 44 -74 0 52 18 112 34 112 7 0 21 -9 32
-21 10 -12 31 -27 46 -35 38 -20 35 -37 -14 -77 -33 -27 -56 -36 -101 -41 -62
-8 -90 -27 -85 -60 2 -17 12 -22 53 -27 28 -3 74 -18 102 -33 29 -14 57 -26
63 -26 19 0 10 19 -20 40 -34 24 -39 40 -12 40 9 0 34 14 54 30 l36 30 30 -25
c25 -21 34 -23 63 -15 47 14 133 12 147 -2 20 -20 14 -28 -34 -50 -98 -43 8
-51 118 -9 l56 22 64 -31 c44 -22 84 -53 133 -104 62 -66 78 -76 130 -90 72
-20 105 -36 117 -56 120 -214 154 -270 177 -295 28 -30 86 -135 76 -135 -16 0
-63 32 -89 59 -17 17 -35 31 -40 31 -6 0 -24 14 -40 31 -24 25 -35 30 -70 27
-36 -3 -43 -7 -57 -37 -19 -41 -16 -56 30 -136 65 -114 87 -124 77 -35 -4 33
-3 60 1 59 4 0 33 -13 63 -29 30 -16 70 -36 88 -44 32 -16 43 -36 20 -36 -7 0
-31 -14 -52 -30 -22 -17 -51 -30 -66 -30 -18 0 -36 -13 -63 -44 -20 -25 -37
-49 -37 -55 0 -18 61 -60 103 -72 51 -14 122 -16 122 -3 0 5 -15 22 -32 38
-42 36 -41 51 2 72 19 9 51 34 71 57 37 41 37 41 52 19 28 -42 73 -18 87 47 7
31 9 33 37 27 18 -3 37 -1 45 5 21 18 25 7 32 -83 l7 -83 34 65 c28 55 34 76
34 131 0 41 -5 73 -13 83 -20 24 -77 21 -95 -5 -8 -13 -31 -24 -55 -29 -74
-13 -88 18 -145 312 -8 37 -21 79 -31 94 -21 33 -103 115 -135 136 l-25 17 28
0 c38 1 35 27 -5 40 -18 6 -44 20 -57 30 l-23 18 36 17 c33 16 41 39 13 35
-36 -4 -38 2 -12 37 15 19 25 38 22 41 -3 2 -23 -7 -44 -21 -52 -36 -66 -34
-58 6 l7 33 -44 -43 c-24 -23 -48 -42 -54 -42 -15 0 -123 109 -148 149 -13 20
-26 50 -30 66 -4 17 -9 38 -12 49 -5 16 -2 17 35 11 33 -5 49 -2 77 14 19 12
42 21 50 21 8 0 31 9 51 20 21 11 43 20 49 20 19 0 168 150 207 208 20 29 39
68 42 85 10 51 11 148 3 153 -4 3 -8 18 -8 33 0 21 -14 41 -57 82 -32 30 -74
62 -93 71 -19 9 -75 35 -125 58 -49 24 -103 43 -120 44 -16 1 -35 4 -40 8 -6
3 -48 6 -94 5 -74 0 -86 2 -101 21 -10 12 -20 18 -24 15 -3 -3 -8 2 -12 11 -3
9 -17 16 -29 16 -13 0 -26 4 -30 9 -10 16 13 95 31 108 26 19 104 16 135 -5
38 -25 79 -65 79 -78 0 -18 88 -82 122 -89 16 -4 49 -20 73 -36 24 -16 52 -29
63 -29 12 0 33 -5 48 -10 56 -22 217 20 255 66 6 8 17 14 24 14 7 0 29 29 50
65 21 35 41 64 44 63 19 -2 24 4 11 12 -11 6 -14 24 -13 59 2 52 -13 81 -43
81 -7 0 -16 11 -20 25 -7 27 -31 45 -61 45 -10 0 -24 9 -31 20 -7 11 -23 20
-37 20 -32 0 -32 11 1 44 18 18 37 26 60 26 39 0 45 17 10 26 -16 4 -26 15
-29 32 -6 33 -1 42 23 42 10 0 22 5 25 10 6 9 0 11 -45 15 -19 1 -40 14 -40
24 0 4 12 13 27 20 18 8 23 15 16 22 -7 7 -23 5 -51 -9 -31 -15 -44 -17 -59
-8 -20 11 -20 35 1 48 7 5 5 8 -6 8 -19 0 -68 -41 -68 -57 0 -5 -10 -18 -21
-29 -21 -19 -22 -19 -36 4 -29 42 -40 27 -32 -40 8 -71 5 -82 -20 -68 -13 7
-20 26 -24 76 -4 37 -11 72 -17 78 -13 13 -13 0 1 -99 10 -62 18 -86 38 -108
22 -24 23 -29 11 -37 -8 -5 -19 -10 -25 -10 -20 -1 30 -30 52 -30 31 0 50 -35
26 -49 -20 -11 -23 -9 57 -31 25 -7 56 -17 70 -23 l25 -11 -27 -4 c-41 -5 -34
-20 8 -16 25 2 37 -2 41 -14 4 -9 1 -18 -5 -20 -19 -6 -14 -22 8 -22 14 0 20
-7 20 -22 0 -17 -3 -19 -12 -10 -19 19 -28 14 -28 -18 0 -16 5 -30 11 -30 8 0
8 -5 -1 -15 -17 -21 -30 -19 -30 6 0 25 -18 16 -30 -17 -11 -29 -30 -32 -30
-5 0 31 -17 33 -39 5 -18 -22 -24 -25 -48 -16 -24 8 -28 13 -25 43 5 43 -10
29 -28 -28 -15 -50 -42 -78 -65 -69 -22 8 -15 38 10 42 33 5 59 54 35 69 -5 3
-10 13 -10 21 0 8 5 14 10 14 6 0 10 -9 10 -21 0 -11 5 -17 10 -14 11 7 14 58
3 68 -3 4 -16 -2 -28 -13 l-22 -21 -21 33 c-19 29 -20 34 -7 44 22 16 19 21
-16 21 -19 0 -35 6 -41 16 -5 10 -16 17 -25 17 -13 0 -13 3 -3 15 10 12 9 16
-4 21 -9 3 -25 4 -36 1 -10 -3 -22 0 -25 7 -3 8 -7 8 -11 -2 -3 -6 -10 -10
-15 -6 -5 3 -4 14 2 26 10 19 9 20 -17 13 -16 -4 -50 -9 -76 -12 -44 -4 -48
-3 -48 16 0 28 -4 27 -42 -14 -19 -20 -47 -38 -65 -41 -32 -6 -33 -6 -33 30 0
20 -4 36 -9 36 -10 0 -41 -78 -41 -103 0 -17 -45 -45 -56 -35 -3 3 -6 18 -8
32 -5 46 -21 28 -22 -24 -1 -37 -7 -57 -23 -74 -24 -25 -41 -75 -41 -118 0
-16 -5 -28 -11 -28 -6 0 -9 9 -6 20 5 21 -16 45 -33 35 -16 -10 -12 -21 25
-62 50 -55 125 -172 114 -179 -5 -3 -7 -10 -3 -15 3 -6 11 -6 17 -2 14 10 27
9 82 -2 54 -10 59 -15 38 -30 -10 -7 -15 -17 -10 -21 4 -4 12 -3 18 3 6 6 18
9 25 6 8 -3 20 -1 27 5 6 6 29 13 51 17 37 7 38 7 27 -14 -17 -31 13 -28 43 4
15 16 34 25 52 25 35 0 61 -14 45 -24 -6 -4 -11 -12 -11 -18 0 -6 8 -4 18 5
21 19 37 23 27 7 -4 -7 2 -9 19 -4 44 11 156 -72 156 -115 0 -8 -3 -12 -6 -8
-8 7 -64 -13 -64 -23 0 -5 17 -10 38 -12 31 -3 37 -7 40 -28 4 -34 -54 -68
-87 -51 -11 7 -21 17 -21 23 0 9 -3 9 -11 1 -8 -8 -7 -21 2 -48 12 -34 12 -38
-6 -51 -27 -20 -58 -17 -73 6 -17 27 -32 25 -32 -5 0 -24 -3 -25 -56 -25 -48
0 -57 3 -61 21 -5 17 -11 20 -38 15 -21 -4 -49 0 -75 10 -37 15 -41 19 -26 29
27 20 18 28 -24 21 -37 -6 -61 2 -100 32 -3 2 3 8 13 13 9 6 17 14 17 19 0 13
-56 13 -79 0 -23 -12 -61 13 -61 41 0 17 -4 20 -29 14 -24 -5 -32 -1 -49 22
-13 19 -47 40 -101 62 -44 18 -85 39 -91 46 -8 9 -33 12 -93 8 -127 -7 -155
-17 -212 -79 l-50 -55 -55 11 c-30 6 -66 15 -79 21 l-24 10 22 23 c12 13 48
32 79 41 31 10 71 30 87 45 17 15 44 34 60 43 50 24 225 65 338 78 67 8 106
17 104 23 -5 16 -126 54 -175 55 -24 1 -75 -5 -115 -13 -40 -8 -83 -16 -97
-19 -48 -9 -266 -58 -373 -84 -111 -26 -137 -24 -124 11 7 18 57 22 74 5 8 -8
21 -8 47 0 61 19 100 29 133 36 17 3 37 13 44 21 6 8 19 14 27 14 9 0 30 14
47 30 l31 30 44 -15 c29 -10 59 -13 86 -9 52 8 69 34 22 34 -41 0 -32 8 13 12
35 4 79 26 79 41 0 5 -9 5 -20 2 -11 -3 -20 -4 -20 -1 0 3 20 11 45 17 45 11
83 39 53 39 -8 0 -19 -5 -25 -11 -6 -6 -16 -10 -22 -8 -11 4 91 84 137 108 13
7 21 15 18 18 -3 3 -22 -4 -42 -16 -20 -12 -38 -20 -40 -18 -2 2 22 18 53 37
30 19 50 36 44 38 -7 2 -30 -8 -52 -22 -22 -15 -44 -24 -50 -21 -5 4 -28 -8
-52 -25 -41 -31 -41 -31 7 15 27 26 76 60 109 76 32 17 57 33 54 35 -9 9 -107
-46 -163 -92 -30 -24 -58 -44 -62 -44 -19 1 139 118 200 149 40 21 27 25 -18
7 -28 -12 -34 -12 -21 -2 22 17 22 27 0 19 -11 -4 -14 -3 -9 5 9 16 1 15 -32
-2 -27 -14 -77 -62 -77 -74 0 -4 -5 -7 -12 -8 -7 -1 -26 -12 -42 -23 -50 -36
-46 -23 8 25 29 26 50 53 47 60 -3 7 2 18 10 25 12 10 13 9 8 -5 -8 -22 4 -20
51 9 42 26 71 33 59 14 -4 -7 -1 -10 7 -7 8 3 13 10 12 16 -2 7 16 29 40 51
23 22 38 43 34 48 -5 4 -20 -6 -35 -23 -15 -17 -40 -39 -57 -49 -21 -13 -17
-6 15 22 25 23 42 44 38 48 -4 4 -18 -6 -32 -21 -19 -21 -28 -26 -34 -17 -6
10 -25 4 -75 -23 l-67 -35 0 43 -1 43 -32 -36 c-101 -113 -107 -122 -107 -151
0 -27 -24 -88 -35 -88 -3 0 -5 29 -5 64 0 54 3 66 18 70 10 4 28 27 40 52 24
49 12 52 -14 3 -8 -16 -26 -34 -40 -39 -13 -5 -29 -21 -34 -34 -11 -31 -17
-34 -72 -38 -25 -2 -45 -5 -43 -8 8 -14 -25 -41 -99 -81 -22 -12 -46 -27 -53
-35 -8 -7 -21 -18 -30 -22 -9 -5 -17 -25 -18 -45 -3 -39 -27 -79 -66 -112
l-24 -20 21 25 c29 33 67 110 55 110 -5 0 -12 -9 -16 -19 -3 -11 -11 -18 -18
-15 -7 2 -51 -20 -97 -51 -89 -58 -129 -74 -70 -28 51 40 100 89 100 102 0 6
-10 11 -22 12 -22 0 -22 1 2 11 70 29 97 49 159 113 52 54 71 83 86 128 l20
59 -23 19 c-27 21 -25 41 4 44 10 2 27 6 37 10 12 5 17 3 17 -9 0 -19 39 -56
59 -56 11 1 7 7 -11 21 -34 25 -35 37 -4 37 18 0 23 -5 20 -17 -3 -9 2 -7 12
7 17 22 48 29 59 13 3 -5 -5 -11 -17 -13 -13 -2 -24 -11 -26 -22 -4 -18 -3
-19 13 -3 20 20 27 21 43 5 21 -21 14 -48 -12 -48 -14 0 -28 5 -31 10 -12 19
-26 11 -16 -8 6 -10 7 -28 4 -40 -7 -27 13 -29 22 -3 3 10 18 22 33 26 38 10
52 24 52 54 0 31 -16 51 -42 51 -10 0 -18 5 -18 10 0 6 26 10 58 10 39 0 67 6
90 20 38 23 46 25 36 8 -5 -7 -9 -19 -10 -28 -1 -8 -5 -26 -9 -40 -4 -17 1
-13 15 13 15 27 19 47 15 67 -6 27 -4 29 23 28 16 -1 34 2 41 6 6 4 11 3 11
-3 0 -5 -3 -11 -7 -13 -5 -1 -16 -18 -25 -36 -17 -32 -15 -92 3 -92 5 0 6 7 3
15 -4 8 -1 22 6 30 6 8 9 19 5 25 -3 5 -2 10 2 10 9 0 43 73 43 93 0 6 -4 19
-10 27 -7 11 -11 9 -19 -13 -6 -15 -20 -28 -33 -31 -13 -3 -34 -7 -48 -10 -14
-3 -56 -12 -93 -20 -38 -9 -73 -14 -77 -11 -5 3 -13 -3 -19 -12 -7 -11 -11
-13 -11 -5 0 8 13 27 29 43 22 21 38 29 63 28 l33 -1 -33 -8 c-19 -4 -39 -13
-45 -19 -16 -16 1 -14 69 9 32 11 68 20 79 20 32 0 63 27 70 60 7 33 25 41 25
11 0 -16 6 -19 36 -17 30 3 49 18 132 103 53 55 111 107 127 116 32 17 68 60
145 177 28 41 66 94 85 118 32 39 50 102 25 87 -5 -3 -10 -12 -10 -19 0 -8
-27 -42 -60 -77 -33 -35 -83 -99 -111 -142 -43 -65 -64 -85 -124 -123 -40 -24
-84 -60 -96 -79 -13 -19 -32 -35 -41 -35 -21 0 -23 11 -6 28 9 9 9 12 0 12 -7
0 -12 7 -12 15 0 12 -4 13 -19 5 -28 -15 -33 -13 -26 12 6 17 4 20 -9 15 -9
-4 -23 -10 -31 -13 -10 -4 -15 0 -15 10 0 21 -19 20 -42 -1 -17 -15 -18 -15
-18 0 0 19 -25 23 -36 5 -12 -19 -25 30 -14 55 5 12 14 48 20 80 7 32 29 92
51 133 21 40 48 99 60 131 22 62 78 178 110 230 19 30 19 53 -1 53 -4 0 -15
-17 -24 -37z m-156 -353 c-6 -11 -13 -20 -16 -20 -2 0 0 9 6 20 6 11 13 20 16
20 2 0 0 -9 -6 -20z m-65 -193 c-4 -20 -22 -54 -41 -76 -19 -22 -44 -61 -55
-87 -15 -32 -24 -43 -31 -36 -16 16 6 61 52 112 22 24 47 63 57 86 21 50 27
50 18 1z m-27 -129 c-2 -18 -5 -31 -8 -29 -3 2 -15 -1 -27 -8 -13 -6 -23 -9
-23 -6 0 11 45 75 53 75 5 0 7 -15 5 -32z m52 -5 c0 22 20 23 20 0 0 -14 2
-14 21 3 16 14 22 15 28 5 6 -9 17 -11 31 -6 19 6 22 4 16 -10 -5 -13 -2 -16
12 -13 10 3 23 -1 30 -9 21 -22 -11 -27 -52 -8 -26 12 -52 16 -91 13 -46 -4
-55 -2 -55 12 0 26 12 31 26 12 13 -16 13 -16 14 1z m5 -43 c3 -5 -1 -10 -10
-10 -9 0 -13 5 -10 10 3 6 8 10 10 10 2 0 7 -4 10 -10z m71 -5 c4 -8 15 -15
25 -15 10 0 19 -7 19 -15 0 -13 -4 -14 -22 -4 -25 13 -48 34 -48 43 0 13 21 5
26 -9z m-141 -15 c-3 -5 -10 -10 -16 -10 -5 0 -9 5 -9 10 0 6 7 10 16 10 8 0
12 -4 9 -10z m296 -29 c-28 -38 -74 -76 -79 -62 -2 5 -10 7 -19 4 -11 -4 -14
-2 -9 5 4 7 17 10 29 7 18 -5 29 3 57 39 37 50 56 56 21 7z m-186 19 c4 -6 -6
-10 -22 -9 -25 0 -26 1 -8 9 11 5 21 9 22 9 1 1 5 -3 8 -9z m130 0 c4 -6 12
-7 18 -4 9 5 9 4 0 -6 -13 -14 -43 -7 -43 10 0 13 17 13 25 0z m-167 -24 c92
2 98 -5 52 -50 -16 -16 -32 -37 -35 -47 -5 -16 -17 -19 -63 -19 -31 0 -66 -3
-78 -6 -19 -5 -22 -1 -27 57 -3 35 -3 67 0 72 3 4 19 5 36 0 18 -4 69 -7 115
-7z m122 -26 c-19 -13 -30 -13 -30 0 0 6 10 10 23 10 18 0 19 -2 7 -10z m1120
-168 c0 -10 -3 -22 -7 -25 -10 -11 -32 13 -26 29 8 20 33 17 33 -4z m71 8 c10
-6 19 -20 19 -31 0 -28 -24 -19 -28 10 -3 22 -4 22 -23 5 -18 -16 -19 -16 -19
4 0 24 19 28 51 12z m-1351 -10 c-8 -5 -19 -10 -25 -10 -5 0 -3 5 5 10 8 5 20
10 25 10 6 0 3 -5 -5 -10z m1248 -54 c3 -12 -1 -17 -10 -14 -7 3 -21 1 -30 -4
-21 -10 -22 -5 -7 23 13 24 42 21 47 -5z m86 8 c9 -24 7 -28 -9 -14 -17 14
-20 30 -6 30 5 0 12 -7 15 -16z m70 0 c9 -22 8 -24 -9 -24 -8 0 -15 9 -15 20
0 24 15 27 24 4z m-86 -77 c14 -15 20 -30 16 -40 -8 -21 -24 -22 -24 -2 0 9
-11 20 -25 25 -26 10 -33 39 -18 76 6 16 8 15 18 -8 6 -15 21 -38 33 -51z
m-78 17 c0 -17 -51 -64 -62 -57 -15 8 -8 30 18 56 27 27 44 27 44 1z m168 12
c9 -10 -13 -36 -30 -36 -17 0 -18 3 -8 15 8 9 9 15 2 15 -6 0 -14 -5 -18 -11
-4 -8 -9 -8 -18 1 -16 16 12 32 44 24 14 -3 26 -7 28 -8z m-1351 -18 c-3 -8
-6 -5 -6 6 -1 11 2 17 5 13 3 -3 4 -12 1 -19z m93 -24 c-61 -35 -80 -53 -73
-72 4 -10 2 -13 -6 -8 -6 4 -18 2 -26 -4 -18 -15 -20 -34 -2 -25 6 4 -1 -5
-16 -19 -15 -14 -32 -26 -38 -26 -5 0 -9 24 -8 53 1 47 2 49 9 19 12 -53 23
-51 17 3 -3 28 -3 44 0 37 4 -10 9 -8 20 7 13 20 43 29 43 14 0 -4 -12 -20
-27 -35 -15 -15 -22 -28 -17 -28 6 0 20 13 32 30 13 16 44 41 70 54 62 33 79
33 22 0z m1123 -20 c10 -10 -56 -42 -67 -33 -14 12 13 39 39 39 12 0 25 -3 28
-6z m1 -30 c22 -8 20 -33 -1 -32 -10 0 -27 -3 -37 -7 -20 -9 -18 1 7 33 11 14
10 14 31 6z m-1084 -12 c0 -4 -15 -16 -32 -26 l-33 -18 28 26 c30 27 37 31 37
18z m1157 -18 c3 -9 0 -20 -8 -25 -21 -13 -29 -11 -29 9 0 33 26 44 37 16z
m62 -18 c10 -12 8 -17 -7 -25 -22 -12 -44 3 -35 25 7 18 27 18 42 0z m-1459
-86 c-7 -14 -8 -20 0 -20 6 0 13 7 16 15 4 8 10 15 15 15 6 0 6 -8 0 -19 -6
-10 -7 -22 -3 -26 4 -4 -9 -4 -28 -1 -33 7 -34 6 -15 -9 15 -12 31 -15 60 -10
21 3 37 3 33 0 -7 -7 -130 -26 -135 -21 -2 2 10 29 27 61 16 31 31 69 32 84 1
18 3 14 5 -11 2 -20 -1 -46 -7 -58z m1348 69 c4 -23 -28 -33 -47 -14 -14 14
-14 17 -1 25 21 14 44 8 48 -11z m-1438 -139 c-6 -11 -19 -20 -29 -20 -21 0
-21 -3 21 123 l13 38 3 -60 c2 -33 -2 -70 -8 -81z m225 85 c-27 -25 -54 -45
-60 -45 -5 1 0 9 13 18 13 9 37 29 55 45 17 15 34 27 37 27 3 -1 -17 -21 -45
-45z m1395 30 c10 -12 9 -15 -8 -15 -11 0 -25 7 -32 15 -10 12 -9 15 8 15 11
0 25 -7 32 -15z m-730 -10 c0 -16 -27 -32 -37 -22 -3 4 -3 13 0 22 8 20 37 20
37 0z m605 6 c3 -5 1 -12 -5 -16 -14 -9 -52 4 -45 16 8 12 42 12 50 0z m-1555
-4 c0 -2 -50 -134 -85 -222 -7 -18 -6 -18 8 -5 8 8 34 63 57 123 23 59 46 107
52 107 6 0 7 -7 3 -17 -12 -28 -33 -94 -45 -141 -10 -41 -62 -112 -82 -112 -5
0 -6 6 -2 13 4 6 -2 3 -14 -7 -51 -44 -12 -49 41 -5 21 17 46 29 57 27 33 -5
28 -22 -9 -34 -21 -7 -29 -13 -20 -16 22 -8 2 -21 -31 -21 -22 0 -29 -5 -28
-16 2 -11 -6 -17 -26 -19 -24 -3 -28 -1 -24 16 3 11 2 25 -2 32 -4 7 -10 -2
-14 -25 -8 -40 -29 -54 -57 -37 -15 10 -20 8 -29 -8 -11 -21 -40 -28 -40 -9 0
11 -24 39 -34 39 -3 0 -6 -7 -6 -15 0 -23 -47 -19 -60 5 -13 24 -35 27 -26 4
4 -10 1 -14 -6 -12 -7 3 -14 16 -16 30 -2 19 6 30 37 51 46 30 56 20 14 -12
-16 -11 -22 -21 -14 -21 7 0 31 19 52 42 22 24 39 40 39 36 0 -5 -16 -26 -36
-48 -34 -37 -35 -40 -14 -40 12 0 34 9 50 20 15 11 30 17 33 14 8 -8 52 62 73
115 10 25 19 40 21 34 2 -6 -11 -40 -28 -77 -17 -37 -29 -69 -26 -72 6 -6 67
120 67 139 0 7 7 22 15 33 13 17 13 15 4 -21 -6 -22 -23 -66 -39 -97 -26 -52
-26 -56 -9 -55 12 1 17 7 14 15 -3 8 -1 20 4 26 5 6 19 34 30 61 11 28 20 44
20 38 1 -7 -6 -31 -15 -53 -9 -23 -14 -43 -11 -46 10 -10 38 68 46 124 4 29
13 58 20 65 23 23 1 -94 -30 -157 -32 -66 -33 -70 -19 -61 21 13 58 103 69
170 12 69 32 105 58 105 7 0 13 -1 13 -3z m1010 -11 c0 -18 -27 -39 -40 -31
-5 3 -10 15 -10 26 0 14 7 19 25 19 15 0 25 -6 25 -14z m57 3 c14 -14 -3 -59
-22 -59 -23 0 -34 21 -23 46 12 26 28 30 45 13z m561 -1 c19 -19 15 -23 -28
-23 -43 0 -50 8 -22 24 23 14 36 13 50 -1z m-743 -8 c3 -5 -1 -10 -10 -10 -9
0 -13 5 -10 10 3 6 8 10 10 10 2 0 7 -4 10 -10z m245 -25 c-7 -8 -19 -15 -26
-15 -8 0 -14 7 -14 15 0 10 10 15 26 15 22 0 25 -2 14 -15z m566 -2 c14 -19
19 -53 7 -53 -17 0 -32 17 -38 43 -8 32 10 37 31 10z m-882 -14 c-3 -5 -10 -7
-15 -3 -5 3 -7 10 -3 15 3 5 10 7 15 3 5 -3 7 -10 3 -15z m46 7 c0 -8 -9 -24
-21 -37 l-21 -24 6 25 c3 14 6 31 6 38 0 6 7 12 15 12 8 0 15 -6 15 -14z m52
-3 c7 -30 -3 -53 -23 -53 -22 0 -23 7 -6 43 14 31 23 34 29 10z m263 6 c9 -14
-24 -49 -47 -49 -24 0 -23 9 4 37 24 25 34 28 43 12z m473 -17 c19 -25 14 -33
-15 -26 -34 8 -29 4 -38 32 -6 22 -5 23 17 17 12 -4 29 -14 36 -23z m102 -23
c0 -16 -4 -29 -10 -29 -5 0 -10 11 -10 24 0 13 -3 33 -7 43 -6 16 -5 16 10 4
9 -7 17 -26 17 -42z m-1429 1 c-24 -22 -51 -40 -60 -40 -9 0 -2 7 15 16 18 9
42 26 55 40 12 13 25 24 28 24 3 -1 -14 -19 -38 -40z m634 10 c0 -13 -6 -25
-12 -27 -9 -3 -13 6 -13 27 0 21 4 30 13 28 6 -3 12 -15 12 -28z m49 14 c22
-8 20 -31 -3 -44 -23 -12 -32 -2 -24 28 6 25 5 24 27 16z m-204 -50 c0 -27 -7
-29 -32 -10 -21 15 -23 27 -6 44 16 16 38 -3 38 -34z m399 -5 c-19 -27 -59
-40 -59 -20 0 5 12 23 26 41 21 24 29 28 40 19 12 -9 10 -16 -7 -40z m-111 25
c-4 -24 -35 -41 -48 -28 -8 8 -7 16 5 28 21 21 47 21 43 0z m-357 -16 c-8 -23
-41 -38 -41 -19 0 8 38 41 47 41 1 0 -1 -10 -6 -22z m132 -4 c11 -12 -13 -44
-33 -44 -25 0 -26 25 -2 39 20 12 27 13 35 5z m367 -24 c-18 -11 -24 -6 -16
16 5 14 9 15 19 5 9 -9 9 -14 -3 -21z m418 18 c7 -7 12 -23 12 -35 0 -21 -3
-22 -20 -13 -12 6 -20 21 -20 35 0 27 9 32 28 13z m56 -4 c9 -24 7 -54 -3 -54
-12 0 -16 8 -25 43 -5 20 -3 27 8 27 8 0 17 -7 20 -16z m-574 -3 c0 -16 -27
-31 -45 -25 -17 7 -17 8 1 21 20 15 44 17 44 4z m-997 -22 l32 -2 -29 -4 c-28
-5 -28 -5 -7 -20 15 -10 34 -13 64 -8 34 5 39 4 23 -6 -11 -7 -38 -9 -67 -6
-29 4 -49 2 -49 -3 0 -6 -7 -10 -15 -10 -8 0 -15 -4 -15 -10 0 -5 -5 -10 -11
-10 -7 0 -6 8 3 23 8 12 18 36 23 52 4 17 10 24 12 18 3 -7 19 -14 36 -14z
m1617 -12 c0 -28 -15 -53 -24 -39 -9 14 5 73 15 66 5 -3 9 -15 9 -27z m-1694
-13 c-7 -19 -51 -15 -51 6 0 15 48 32 53 18 2 -5 1 -16 -2 -24z m715 20 c12
-14 11 -16 -5 -13 -11 2 -21 10 -24 17 -5 17 13 15 29 -4z m-57 0 c28 -11 17
-24 -19 -24 -27 0 -33 -3 -28 -16 3 -9 0 -20 -8 -25 -37 -23 -39 5 -4 44 27
28 34 31 59 21z m550 -2 c8 -13 -23 -52 -40 -52 -11 0 -13 6 -8 23 10 31 36
47 48 29z m-424 -38 c0 -17 -1 -17 -35 -4 -14 5 -24 14 -21 19 8 13 56 0 56
-15z m310 17 c0 -15 -15 -21 -39 -14 -17 4 -19 8 -9 14 18 12 48 11 48 0z m50
0 c0 -12 -29 -41 -41 -41 -12 0 -11 6 3 30 13 20 38 27 38 11z m-1607 -10 c17
-2 0 -26 -19 -28 -75 -7 -232 -83 -278 -135 -26 -28 -41 -38 -44 -30 -5 17 74
99 103 108 50 15 185 77 185 85 0 5 10 7 23 5 12 -3 26 -5 30 -5z m1706 -18
c8 -18 9 -29 2 -36 -14 -14 -21 -5 -26 32 -5 38 8 40 24 4z m343 10 c10 -9 18
-25 18 -35 0 -18 -1 -18 -25 -1 -13 10 -25 26 -25 36 0 21 8 22 32 0z m56 -5
c17 -17 15 -42 -7 -69 l-19 -23 1 52 c1 54 5 60 25 40z m-1673 -8 c18 -7 18
-8 -8 -15 -30 -8 -43 -2 -32 14 7 13 12 13 40 1z m717 -2 c-9 -9 -15 -9 -24 0
-9 9 -7 12 12 12 19 0 21 -3 12 -12z m-991 -21 c-10 -9 -11 -8 -5 6 3 10 9 15
12 12 3 -3 0 -11 -7 -18z m1059 4 c0 -3 -9 -12 -20 -19 -17 -10 -21 -10 -27 4
-3 9 0 20 7 24 14 8 40 3 40 -9z m436 -36 c-17 -25 -50 -33 -61 -15 -3 6 0 10
8 10 7 0 24 15 37 33 20 26 25 29 28 14 2 -10 -4 -29 -12 -42z m354 20 c0 -14
-4 -25 -10 -25 -11 0 -14 33 -3 43 11 11 13 8 13 -18z m-1447 8 c-13 -2 -33
-2 -45 0 -13 2 -3 4 22 4 25 0 35 -2 23 -4z m567 -1 c0 -4 -10 -13 -21 -21
-18 -11 -23 -11 -30 1 -15 22 -10 28 21 28 17 0 30 -3 30 -8z m490 -1 c0 -13
-27 -21 -47 -14 -15 6 -15 7 3 14 27 11 44 11 44 0z m-1155 -11 c3 -5 1 -10
-4 -10 -6 0 -11 5 -11 10 0 6 2 10 4 10 3 0 8 -4 11 -10z m-525 -5 c0 -2 -20
-18 -45 -35 -39 -27 -48 -30 -62 -18 -15 11 -16 11 -10 -5 5 -14 -1 -21 -28
-33 -19 -7 -44 -14 -56 -14 -18 0 -19 2 -9 15 7 8 16 15 21 15 5 0 28 11 50
25 54 35 139 65 139 50z m1304 -4 c9 -15 -18 -31 -34 -20 -13 8 -13 10 0 19
19 12 27 12 34 1z m814 -29 c2 -23 -1 -32 -11 -32 -19 0 -29 27 -21 52 9 28
29 16 32 -20z m-883 18 c9 -15 -14 -40 -36 -40 -24 0 -33 18 -19 35 14 17 46
20 55 5z m594 -16 c-15 -18 -7 -18 36 3 19 9 38 14 41 10 10 -10 -16 -37 -36
-37 -10 0 -23 -7 -30 -15 -8 -10 -24 -14 -42 -11 -39 6 -44 13 -18 21 12 4 25
18 31 31 5 14 14 22 19 19 8 -5 7 -11 -1 -21z m-682 0 c4 -10 -1 -22 -12 -30
-23 -17 -35 -9 -35 22 0 17 5 24 20 24 11 0 23 -7 27 -16z m863 -4 c0 -11 -5
-20 -12 -20 -6 0 -4 -8 6 -19 21 -23 14 -41 -15 -41 -17 0 -20 6 -18 33 3 34
-13 51 -20 20 -2 -10 -11 -24 -20 -31 -15 -12 -14 -13 2 -8 12 4 17 2 15 -6
-3 -7 -18 -14 -34 -16 -23 -3 -27 -1 -16 9 6 7 12 22 12 34 1 39 26 57 88 64
6 0 12 -8 12 -19z m56 -5 c13 -20 14 -28 4 -40 -15 -18 -39 -20 -42 -2 -8 70
8 88 38 42z m-738 -12 c-31 -30 -47 -26 -26 6 7 12 22 21 33 21 18 0 17 -2 -7
-27z m-48 -6 c0 -25 -44 -55 -55 -38 -12 20 14 51 53 60 1 1 2 -10 2 -22z
m104 4 c3 -5 -5 -16 -19 -25 -14 -9 -25 -23 -25 -31 0 -8 -9 -15 -20 -15 -28
0 -25 17 9 51 30 30 46 36 55 20z m-1404 -73 c-28 -27 -31 -37 -27 -70 4 -31
2 -38 -12 -38 -10 0 -26 9 -35 19 -17 19 -17 20 9 37 14 9 25 24 24 33 -3 33
2 42 34 61 27 17 33 18 35 5 2 -8 -11 -29 -28 -47z m830 51 c-11 -8 -3 -9 32
-6 33 3 51 0 59 -9 9 -11 7 -14 -12 -15 -126 -6 -339 -64 -406 -110 -27 -19
-43 -25 -44 -17 0 7 -4 3 -9 -9 -6 -15 -23 -26 -52 -33 -51 -13 -68 -25 -93
-63 -23 -36 -19 -39 90 -62 90 -19 151 -15 215 12 36 15 131 11 160 -7 18 -11
17 -12 -50 -38 -70 -28 -241 -54 -302 -46 -54 7 -218 -4 -218 -15 0 -4 26 -6
58 -4 l57 4 -33 -15 c-18 -9 -52 -20 -74 -26 -60 -17 -83 -45 -101 -129 -28
-123 -21 -140 60 -142 30 0 34 -2 18 -9 -11 -5 -39 -9 -62 -9 -50 -1 -91 -18
-96 -40 -2 -9 4 -32 13 -51 19 -39 32 -94 36 -155 1 -27 9 -45 25 -58 40 -32
60 -19 105 71 45 90 64 117 64 89 0 -10 -7 -34 -15 -54 -12 -28 -13 -44 -4
-75 14 -54 -8 -92 -48 -82 -18 5 -24 4 -19 -5 4 -6 20 -11 36 -11 15 0 30 -7
33 -15 4 -8 26 -20 50 -27 51 -15 97 -52 126 -99 25 -40 26 -74 7 -121 -8 -18
-19 -72 -26 -118 -14 -107 -32 -162 -87 -270 -38 -74 -99 -148 -111 -136 -2 3
16 29 41 59 50 61 76 130 106 279 11 53 30 124 41 158 24 70 19 122 -13 158
-22 24 -83 54 -232 117 -49 21 -95 42 -102 47 -6 5 -15 39 -18 76 -8 71 -26
125 -52 154 -18 20 -16 33 26 150 17 48 33 108 35 134 5 59 -16 159 -44 214
-12 23 -22 62 -23 85 -3 70 38 103 181 145 41 12 75 20 78 18 2 -2 -31 -19
-74 -36 -42 -18 -85 -39 -95 -46 -53 -41 -15 -186 58 -220 27 -13 40 -15 48
-7 8 8 5 11 -11 11 -15 0 -20 5 -16 15 4 8 1 15 -5 15 -6 0 -11 -5 -11 -12 0
-25 -40 27 -54 71 -24 77 -25 89 -7 104 41 37 221 108 321 127 25 5 59 14 75
21 17 6 41 13 54 15 13 2 27 8 32 15 4 7 17 9 31 6 13 -4 36 0 53 9 23 12 30
12 37 2 6 -10 8 -10 8 1 0 10 9 12 34 7 24 -5 37 -2 46 9 7 8 28 15 49 15 28
0 33 -3 21 -11z m370 6 c0 -3 -7 -17 -16 -31 -13 -19 -20 -22 -30 -13 -19 16
-17 24 9 37 25 12 37 14 37 7z m710 -14 c0 -17 -18 -31 -41 -31 -14 0 -11 17
7 34 21 21 34 20 34 -3z m-1974 -31 c4 -35 0 -37 -32 -11 l-24 19 23 15 c26
18 29 16 33 -23z m1489 8 l-5 -33 11 28 c9 22 17 27 45 27 37 0 43 -14 23 -52
-9 -16 -8 -19 2 -16 8 3 16 15 19 29 6 26 47 46 74 36 23 -9 20 -22 -8 -35
-13 -6 -27 -20 -30 -30 -4 -11 -15 -22 -26 -25 -11 -3 -24 -16 -29 -30 -6 -14
-21 -27 -36 -31 -34 -9 -43 -1 -27 24 8 13 8 20 2 20 -6 0 -16 -11 -22 -25 -6
-14 -15 -25 -20 -25 -13 0 -9 55 5 69 10 10 8 12 -8 9 -29 -5 -33 44 -6 71 30
30 41 26 36 -11z m-185 -19 c0 -7 -45 -39 -56 -39 -9 0 5 52 19 68 9 11 13 11
24 -4 7 -10 13 -21 13 -25z m70 -1 c0 -15 -11 -29 -30 -40 -34 -19 -44 -11
-31 25 15 40 61 51 61 15z m345 -8 c-20 -21 -32 -27 -41 -19 -9 7 -12 3 -10
-16 1 -30 1 -30 26 -5 11 11 27 20 35 20 12 0 13 -4 3 -25 -15 -33 -4 -42 32
-28 30 11 30 11 30 -23 0 -19 -5 -34 -11 -34 -6 0 -9 7 -5 15 6 18 -15 20 -32
3 -9 -9 -13 -8 -17 4 -4 10 -15 13 -31 10 -14 -2 -24 0 -24 7 0 6 7 11 15 11
8 0 15 5 15 10 0 13 -10 12 -40 -5 -37 -21 -82 -20 -78 3 2 9 11 16 20 16 9
-1 19 8 22 20 8 26 63 64 95 65 l25 1 -29 -30z m-1604 -1 c-2 -8 -6 -31 -9
-51 -5 -43 -8 -45 -34 -21 -23 21 -23 34 3 67 21 27 48 30 40 5z m1679 0 c-37
-10 -50 -10 -50 0 0 11 49 19 65 12 5 -3 -1 -8 -15 -12z m-1833 -10 c6 -6 9
-26 6 -44 -4 -26 0 -36 21 -53 15 -11 32 -22 39 -25 9 -3 9 -10 -1 -31 -13
-30 -65 -56 -111 -56 -25 0 -32 5 -37 26 -7 28 18 94 36 94 6 0 8 -4 5 -10 -3
-5 -1 -10 4 -10 17 0 13 37 -4 44 -18 7 -20 47 -3 64 15 15 31 15 45 1z m213
-18 c0 -26 -14 -41 -41 -41 -10 0 -12 53 -2 63 3 4 15 7 25 7 13 0 18 -8 18
-29z m1250 5 c0 -14 5 -28 10 -31 16 -10 12 -45 -6 -45 -14 0 -15 2 -3 17 12
15 12 16 -6 9 -33 -13 -39 -12 -43 7 -4 20 23 67 38 67 6 0 10 -11 10 -24z
m455 4 c3 -5 -3 -10 -15 -10 -12 0 -30 -5 -42 -11 -26 -14 -33 -6 -13 15 18
18 60 22 70 6z m-95 -14 c0 -15 -29 -30 -39 -20 -3 3 3 12 13 20 24 17 26 17
26 0z m-1896 -58 c-9 -14 -32 -9 -38 8 -4 10 1 25 11 36 17 19 18 19 25 -8 4
-15 5 -31 2 -36z m1406 46 c0 -8 -4 -12 -10 -9 -5 3 -10 10 -10 16 0 5 5 9 10
9 6 0 10 -7 10 -16z m70 -19 c0 -27 -6 -30 -29 -16 -12 8 -12 12 -2 25 19 23
31 20 31 -9z m595 5 c8 -13 -27 -23 -87 -24 -38 -1 -58 3 -58 11 0 6 6 13 13
16 20 8 127 5 132 -3z m65 -39 c0 -4 -6 -13 -12 -20 -11 -10 -7 -12 17 -9 24
2 29 -1 27 -14 -2 -12 4 -18 16 -18 28 0 45 -23 29 -39 -9 -10 -8 -14 6 -22
26 -15 21 -32 -8 -25 -14 4 -25 2 -25 -4 0 -5 6 -10 14 -10 19 0 38 -26 34
-45 -3 -15 -7 -14 -31 5 -15 12 -35 19 -43 16 -11 -4 -19 3 -27 24 -6 16 -17
30 -24 30 -6 0 -15 9 -18 21 -10 29 -44 40 -77 23 -21 -11 -32 -12 -53 -2 -25
11 -34 28 -15 28 5 0 7 6 4 14 -3 8 5 21 18 30 30 21 52 21 44 0 -5 -14 -4
-15 9 -4 12 10 19 10 27 2 18 -18 30 -14 23 7 -4 14 0 21 12 23 22 5 53 -2 53
-11z m-200 -26 c-7 -9 -15 -13 -17 -11 -7 7 7 26 19 26 6 0 6 -6 -2 -15z
m-2280 -10 c14 -17 7 -111 -12 -166 -11 -32 -10 -36 44 -159 18 -39 19 -50 8
-98 -12 -53 -12 -53 29 -121 22 -37 47 -73 55 -81 21 -17 20 -47 -1 -58 -20
-10 -93 -4 -93 7 0 5 11 13 25 19 14 6 25 16 25 20 0 11 -30 51 -78 106 -30
33 -34 44 -29 77 3 22 1 39 -4 39 -5 0 -9 -7 -9 -15 0 -23 -14 -18 -38 15 -17
22 -31 30 -53 30 -17 0 -44 9 -60 21 -41 29 -61 21 -87 -33 -22 -47 -39 -60
-46 -35 -11 33 -14 87 -5 87 5 0 9 -9 9 -20 0 -11 5 -20 10 -20 6 0 10 9 10
21 0 11 5 17 10 14 6 -3 10 3 10 15 0 12 -5 18 -10 15 -6 -3 -10 1 -10 9 0 20
-28 10 -33 -12 -3 -12 -6 -9 -12 11 -8 31 15 77 40 77 20 0 53 -19 90 -52 17
-14 63 -40 103 -57 l73 -30 10 23 c8 17 8 37 -1 72 -6 27 -15 72 -19 99 -8 54
-28 95 -48 95 -14 0 -17 19 -7 44 3 9 10 13 16 10 5 -3 4 -12 -3 -20 -15 -19
-9 -25 19 -17 18 4 21 10 16 27 -4 11 -11 24 -17 27 -11 8 21 28 44 29 9 0 22
-7 29 -15z m313 -38 c-5 -38 -2 -46 21 -64 14 -11 22 -23 19 -27 -11 -11 -68
-7 -81 6 -14 14 -16 58 -2 58 5 0 7 7 4 15 -4 9 0 15 9 15 8 0 17 9 20 20 9
35 15 22 10 -23z m1043 8 c12 -8 47 -24 77 -35 61 -23 106 -54 95 -66 -4 -4
-25 5 -45 19 -47 31 -180 75 -248 80 -55 4 -94 -12 -153 -64 -18 -16 -37 -29
-42 -29 -16 0 1 29 21 35 11 4 17 10 14 14 -8 14 34 44 73 51 69 14 186 11
208 -5z m-136 -23 c0 -10 -31 -26 -79 -41 -42 -13 -44 -14 -36 -1 17 27 115
63 115 42z m80 -16 c0 -22 -23 -34 -57 -29 -40 6 -42 18 -5 31 39 15 62 14 62
-2z m1110 -1 c18 -21 11 -24 -35 -16 -36 6 -38 8 -20 19 27 16 40 15 55 -3z
m-1037 -23 c-1 -5 11 -9 28 -8 27 1 32 -4 45 -39 8 -22 12 -55 9 -72 -5 -28
-3 -32 11 -26 15 6 16 1 11 -43 -6 -43 -5 -47 7 -31 13 17 15 17 24 1 15 -28
3 -57 -22 -50 -11 3 -27 6 -33 6 -8 0 -13 14 -14 33 -1 30 -2 30 -8 7 -5 -17
-13 -24 -27 -22 -38 6 -44 12 -45 44 -1 24 -3 27 -6 11 -2 -13 -8 -23 -12 -23
-11 0 -36 30 -55 67 -15 31 -15 32 14 57 39 32 70 42 81 25 4 -7 11 -10 15 -7
11 12 -20 35 -59 42 -41 8 -42 9 -27 36 8 14 16 17 37 11 16 -5 27 -13 26 -19z
m-1119 -22 c10 -22 22 -40 27 -40 20 0 8 -20 -21 -35 -24 -12 -35 -13 -51 -4
-18 9 -21 17 -16 50 5 38 21 69 36 69 4 0 15 -18 25 -40z m226 32 c0 -5 -9
-17 -20 -27 -14 -12 -18 -26 -14 -44 5 -23 4 -24 -6 -8 -9 14 -19 17 -37 12
-40 -10 -25 25 22 51 45 25 55 28 55 16z m-610 -16 c0 -3 -4 -8 -10 -11 -5 -3
-10 -1 -10 4 0 6 5 11 10 11 6 0 10 -2 10 -4z m2535 -16 c3 -5 -3 -10 -14 -10
-12 0 -21 5 -21 10 0 6 6 10 14 10 8 0 18 -4 21 -10z m57 -15 c6 -14 8 -28 5
-31 -9 -10 -34 13 -40 36 -8 30 21 25 35 -5z m-977 5 c11 -17 -5 -32 -21 -19
-8 6 -14 15 -14 20 0 12 27 11 35 -1z m-990 -60 c-13 -46 -2 -160 15 -160 17
0 21 40 6 56 -17 17 -22 69 -7 79 6 3 16 -16 24 -42 16 -53 14 -156 -3 -161
-5 -2 -8 -8 -4 -13 3 -5 -8 -50 -25 -98 -17 -49 -31 -103 -31 -120 0 -25 -4
-31 -21 -31 -19 0 -19 1 -5 22 20 28 20 48 1 48 -14 0 -44 46 -34 53 2 1 21
10 42 20 36 16 51 47 23 47 -24 0 -29 20 -10 36 18 14 17 14 -13 9 -25 -5 -34
-2 -43 15 -13 24 -5 41 15 34 9 -4 17 1 21 12 3 11 10 27 15 36 5 10 9 25 9
35 0 13 -7 10 -30 -12 -26 -25 -32 -27 -40 -15 -16 25 -11 47 15 64 30 19 32
36 6 36 -11 0 -22 -10 -26 -22 -4 -14 -8 -18 -12 -10 -7 19 -26 14 -19 -5 4
-9 1 -20 -6 -25 -10 -6 -8 -8 5 -8 9 0 18 -8 18 -17 7 -82 10 -101 20 -121 11
-19 10 -24 -7 -37 -15 -11 -16 -14 -3 -15 8 0 20 5 27 12 9 9 16 9 28 -4 9 -9
13 -21 10 -27 -9 -14 -53 -14 -61 -1 -10 16 -23 12 -21 -7 1 -13 -7 -19 -26
-21 -16 -2 -28 1 -28 7 0 6 -5 11 -11 11 -6 0 -9 -7 -5 -15 3 -8 1 -15 -4 -15
-15 0 -12 -20 3 -20 14 -1 63 -42 68 -59 3 -8 11 -6 25 8 14 13 25 16 35 10
11 -7 7 -15 -19 -39 -18 -17 -41 -30 -52 -30 -17 0 -19 4 -14 26 6 24 5 25
-14 15 -11 -6 -29 -11 -38 -11 -15 0 -14 4 6 25 27 29 25 30 -25 10 -71 -30
-104 8 -35 41 24 12 43 29 49 46 6 18 19 28 40 33 34 7 38 14 19 34 -11 10
-10 15 4 25 14 10 13 14 -15 31 -28 16 -30 19 -12 22 46 9 49 13 27 29 -12 8
-22 22 -22 30 0 8 -6 24 -12 35 -10 17 -10 23 0 26 15 6 16 33 2 33 -21 0 -21
30 0 60 25 36 42 31 34 -9 -4 -16 -1 -37 5 -48 9 -15 10 -12 11 20 0 25 5 37
14 37 8 0 21 3 29 6 10 3 18 -5 26 -26 15 -43 31 -29 31 28 1 44 2 46 16 27
10 -13 13 -29 9 -45z m1870 51 c3 -5 1 -12 -5 -16 -5 -3 -10 1 -10 9 0 18 6
21 15 7z m-865 -71 c-6 -11 -15 -18 -21 -15 -14 10 -11 37 9 58 17 19 17 19
20 -1 2 -12 -2 -30 -8 -42z m931 39 c17 -33 -4 -46 -30 -18 -26 28 -27 39 -1
39 10 0 24 -9 31 -21z m-1157 -16 c-57 -53 -95 -73 -140 -73 -28 0 -67 -12
-115 -35 -42 -20 -89 -35 -109 -35 -20 0 -59 -7 -87 -15 -45 -14 -51 -19 -56
-48 -3 -17 -1 -36 4 -41 24 -26 139 -47 139 -26 0 6 -9 10 -19 10 -11 0 -28
13 -38 30 -18 30 -37 38 -48 20 -4 -6 -11 -8 -16 -4 -6 4 -4 13 7 25 9 10 20
16 25 13 4 -2 18 1 30 8 18 11 22 11 27 -1 3 -10 6 -11 12 -1 5 8 15 10 26 5
32 -13 55 -13 50 1 -5 14 20 27 35 18 5 -3 6 -17 2 -32 -6 -24 -5 -26 10 -13
14 11 18 11 23 -4 13 -34 -10 -60 -57 -63 -41 -3 -42 -2 -26 16 22 24 24 50 2
32 -8 -6 -19 -9 -25 -5 -6 4 -10 -7 -10 -30 0 -36 0 -36 37 -33 29 2 39 -1 41
-14 2 -9 -5 -19 -17 -23 -11 -3 -49 -28 -86 -54 -56 -41 -75 -49 -127 -55 -97
-10 -118 -47 -74 -132 14 -27 7 -71 -17 -101 -12 -16 -19 -16 -41 0 -13 10
-19 29 -21 68 -1 30 -14 82 -28 117 l-26 63 25 9 c14 6 35 10 47 10 40 0 197
33 197 42 0 4 -6 8 -12 9 -123 6 -193 19 -193 35 2 39 40 166 54 178 42 38
161 68 342 86 125 12 197 28 244 53 41 22 42 21 9 -10z m299 9 c28 -12 35 -26
17 -37 -15 -9 -2 -25 15 -19 19 8 30 -38 16 -64 -15 -28 -14 -37 3 -23 23 19
29 61 11 87 -21 32 -19 34 15 23 33 -12 35 -19 19 -52 -9 -19 -8 -19 9 3 18
22 23 23 47 12 23 -11 26 -17 21 -40 -6 -25 -5 -26 8 -8 13 17 19 17 46 6 34
-14 37 -22 14 -41 -13 -10 -17 -10 -25 2 -5 8 -9 10 -9 4 0 -5 -3 -20 -6 -33
-5 -16 -3 -22 7 -20 12 3 28 -58 29 -107 1 -27 -10 -129 -15 -144 -3 -10 6
-34 21 -57 15 -21 33 -54 41 -71 13 -33 48 -51 78 -40 25 10 30 57 11 107 -21
52 -32 109 -21 97 5 -4 16 0 26 9 17 15 19 14 25 -10 8 -34 0 -43 -23 -26 -12
9 -11 7 3 -8 24 -27 49 -21 68 15 l13 25 16 -25 c26 -40 38 -105 20 -111 -49
-19 -69 6 -33 39 11 10 20 23 20 28 0 6 -11 0 -25 -13 -21 -20 -25 -21 -31 -6
-3 9 -11 16 -16 16 -7 0 -7 -5 0 -13 6 -7 14 -33 17 -57 9 -61 25 -110 35
-110 5 0 7 6 4 14 -3 8 3 16 16 19 20 5 21 3 15 -32 -8 -46 17 -82 60 -87 15
-2 34 -5 41 -8 17 -7 18 -43 2 -49 -9 -3 -7 -10 7 -21 25 -19 41 -21 25 -2
-13 17 -10 62 5 59 6 -1 13 -19 17 -40 5 -33 6 -31 5 15 -1 28 1 52 5 52 13 0
20 -42 14 -85 -4 -25 -3 -46 3 -49 10 -7 11 -2 14 71 2 35 4 40 19 32 17 -9
15 -26 -8 -84 -7 -18 -6 -18 9 -6 9 7 20 27 25 43 6 25 9 27 24 16 14 -11 15
-18 4 -48 -9 -27 -16 -34 -34 -33 -42 5 -22 -14 63 -59 l84 -45 19 38 c17 33
21 37 32 24 16 -20 -6 -79 -26 -71 -8 3 -14 2 -14 -2 0 -12 70 -77 71 -66 5
39 21 75 33 71 6 -2 21 -22 34 -44 l22 -40 -21 -27 c-11 -14 -16 -26 -10 -26
5 0 13 5 17 11 4 8 9 7 15 -2 13 -21 11 -27 -11 -39 -17 -9 -22 -7 -30 15 -6
14 -15 37 -20 51 -6 15 -13 25 -16 22 -2 -3 20 -90 51 -194 64 -219 64 -218
70 -212 3 3 -1 27 -9 54 -8 27 -22 75 -31 107 -17 59 -14 77 11 77 17 0 19
-31 2 -48 -9 -9 -8 -12 4 -12 22 0 33 -37 18 -55 -10 -12 -9 -15 9 -15 24 0
29 -28 9 -49 -11 -11 -9 -12 9 -7 25 8 41 -10 24 -27 -17 -17 -13 -31 6 -16 9
8 35 15 58 15 23 1 53 9 67 18 25 17 26 16 36 -12 7 -21 7 -29 -2 -30 -118
-18 -110 -14 -138 -76 -17 -39 -35 -43 -49 -12 -7 14 -16 26 -21 26 -5 0 -30
-22 -56 -50 -26 -27 -52 -50 -56 -50 -5 0 -24 -10 -43 -21 -33 -21 -34 -22
-16 -42 17 -20 17 -20 -1 -14 -14 6 -17 4 -12 -9 6 -15 4 -15 -20 1 -14 9 -29
13 -32 9 -4 -4 -2 -9 4 -11 6 -2 20 -10 30 -19 16 -12 13 -12 -21 1 -67 26
-71 36 -38 83 21 31 37 43 63 48 19 3 51 16 70 28 19 13 47 30 63 40 15 9 27
20 27 24 0 7 -100 61 -162 85 -20 9 -44 27 -54 42 -9 14 -35 35 -56 46 -45 23
-45 43 0 47 23 2 37 -3 53 -22 13 -14 28 -26 34 -26 6 0 28 -17 49 -39 20 -21
55 -44 77 -51 25 -9 39 -19 39 -31 0 -9 7 -19 15 -23 19 -7 19 7 0 43 -14 29
-17 37 -35 125 -5 27 -14 54 -18 60 -5 6 -15 31 -22 56 -15 48 -53 123 -79
154 -30 35 -146 102 -226 130 -73 26 -87 35 -162 112 -46 46 -90 84 -99 84
-21 0 -128 57 -148 79 -8 9 -32 46 -53 83 -28 50 -52 77 -93 105 -30 21 -69
60 -86 86 -47 72 -71 93 -148 136 -39 21 -82 48 -96 60 l-25 21 35 -14 c19 -7
59 -19 87 -26 63 -14 127 -62 168 -124 17 -25 41 -51 54 -58 20 -11 25 -10 37
6 11 16 11 24 -2 54 -8 19 -12 37 -10 39 2 2 20 -10 39 -27 l35 -30 -9 37 c-5
21 -12 53 -16 71 -3 17 -10 32 -14 32 -5 0 -9 10 -9 23 -1 19 -31 67 -43 67
-2 0 -4 -12 -3 -27 0 -16 -3 -39 -7 -53 l-8 -25 19 24 c19 24 37 16 26 -12 -3
-8 2 -17 10 -20 16 -6 23 -57 8 -57 -5 0 -19 11 -32 25 -32 34 -44 32 -25 -5
8 -16 15 -40 15 -54 0 -14 5 -28 11 -32 8 -4 7 -10 -1 -18 -15 -14 -52 28 -43
49 3 10 -1 15 -12 15 -10 0 -15 6 -12 13 2 6 1 21 -4 32 -7 18 -8 18 -8 2 -1
-24 -25 -16 -29 9 -7 46 -13 64 -22 64 -6 0 -6 -9 0 -25 11 -28 8 -30 -23 -14
-32 17 -32 17 -4 40 20 15 27 30 27 55 0 19 -4 34 -9 34 -5 0 -8 -12 -7 -27 4
-28 -9 -53 -25 -53 -5 0 -9 8 -9 19 0 10 -9 30 -20 44 -11 14 -16 28 -11 31 5
3 12 26 15 50 7 46 11 47 59 28z m984 -19 c7 -9 11 -30 9 -47 -2 -17 -4 -37
-5 -43 -2 -20 -18 -15 -24 7 -9 34 -23 22 -19 -15 5 -41 -4 -85 -18 -85 -6 0
-10 9 -10 19 0 11 -4 23 -10 26 -6 4 -10 -9 -10 -32 0 -55 -48 -117 -51 -65 0
10 -4 7 -8 -9 -14 -45 -31 -69 -61 -84 -17 -9 -30 -11 -30 -6 0 6 8 15 19 20
16 9 32 42 73 154 6 15 17 27 24 27 7 0 20 13 29 29 8 16 20 31 26 33 14 5 16
55 4 82 -7 17 -5 18 21 12 16 -4 35 -14 41 -23z m-161 -15 c3 -11 3 -22 0 -26
-8 -8 -22 8 -31 35 -5 18 -3 22 9 17 8 -3 18 -15 22 -26z m82 20 c12 -12 17
-58 6 -58 -13 0 -34 30 -34 49 0 24 10 27 28 9z m-2260 -35 c12 8 37 -115 28
-138 -3 -8 -12 -12 -21 -9 -8 3 -15 1 -15 -6 0 -6 5 -8 10 -5 6 3 10 -2 10
-12 0 -31 15 -44 56 -47 31 -3 40 -8 42 -25 3 -17 -2 -21 -23 -21 -18 0 -29 6
-32 20 -3 11 -9 20 -14 20 -14 0 -10 -32 6 -50 9 -10 13 -25 9 -34 -8 -22 -73
-53 -101 -48 -28 4 -39 33 -19 48 22 15 20 22 -6 26 -15 2 -24 11 -26 26 -3
18 1 22 25 22 l28 0 -25 13 c-14 7 -26 20 -28 30 -3 13 4 17 27 17 37 0 49 15
14 18 -36 3 -43 10 -43 41 0 31 16 52 36 44 10 -4 12 4 7 31 -5 30 -3 36 13
36 14 0 15 3 6 12 -7 7 -12 17 -12 23 0 5 9 -1 19 -14 10 -13 23 -21 29 -18z
m67 -14 c4 -11 5 -23 2 -25 -9 -9 -35 8 -40 27 -7 27 30 26 38 -2z m996 -21
c19 -38 20 -41 4 -28 -17 14 -18 13 -12 -3 4 -10 7 -25 7 -33 0 -7 6 -11 13
-8 7 2 22 -5 33 -17 10 -11 49 -39 87 -61 58 -34 67 -42 62 -61 -10 -34 -65
-75 -65 -48 0 5 7 14 15 21 8 7 15 17 15 23 0 6 -10 1 -22 -10 -44 -40 -108
-42 -72 -2 9 11 14 22 11 26 -4 3 -16 -6 -28 -20 -11 -15 -28 -27 -37 -27 -13
0 -10 6 11 26 16 14 26 29 23 32 -4 3 -21 -9 -39 -26 -18 -18 -43 -32 -56 -32
-32 0 -21 21 18 35 34 11 71 47 71 69 0 6 -11 -2 -25 -19 -22 -27 -24 -28 -25
-9 0 11 -7 29 -15 40 -13 17 -14 16 -8 -17 6 -43 -11 -60 -32 -33 -13 18 -14
17 -15 -12 0 -28 -24 -64 -34 -53 -2 2 0 29 6 59 11 64 6 101 -22 140 -26 37
-26 38 12 36 24 -2 41 5 63 26 16 15 31 28 32 28 2 0 12 -19 24 -42z m1173 9
c7 -18 6 -30 -4 -42 -12 -15 -15 -13 -25 12 -13 32 -8 66 9 60 6 -2 15 -15 20
-30z m-103 -50 c-8 -8 -11 -5 -11 11 0 12 -4 22 -10 22 -17 0 -11 18 8 22 20
4 30 -38 13 -55z m63 17 c3 -8 3 -20 0 -28 -4 -12 -9 -11 -26 6 -11 11 -17 26
-14 34 6 16 32 9 40 -12z m-2114 -14 c9 -17 8 -20 -14 -20 -27 0 -41 14 -31
30 10 17 34 11 45 -10z m810 14 c0 -3 -5 -14 -10 -25 -13 -23 -2 -25 15 -2 11
15 13 15 24 -5 9 -16 9 -27 1 -43 -7 -11 -9 -23 -6 -27 3 -3 6 0 6 6 0 19 18
14 22 -5 8 -33 -14 -63 -53 -73 -37 -10 -59 -38 -39 -50 6 -4 5 -13 -4 -26
-12 -15 -19 -17 -32 -8 -15 9 -23 5 -42 -18 -15 -17 -31 -27 -41 -24 -10 3
-23 -6 -36 -26 -27 -43 -48 -48 -43 -12 2 22 18 38 76 76 46 31 72 56 72 67 0
11 7 21 15 25 9 3 15 18 15 39 0 19 6 40 14 46 22 19 30 -5 12 -39 -8 -17 -11
-30 -6 -30 5 0 15 -3 23 -6 13 -5 15 3 12 40 -1 26 -7 52 -13 59 -9 11 -16 41
-13 60 1 8 31 10 31 1z m1214 -10 c11 -28 7 -32 -34 -31 -45 2 -46 3 -23 29
20 22 49 23 57 2z m-1268 -51 c-5 -12 -9 -13 -21 -3 -20 16 -19 30 3 46 15 11
17 10 20 -7 2 -11 1 -27 -2 -36z m1329 -3 c9 -41 -2 -56 -26 -34 -22 19 -25
44 -7 62 15 15 25 7 33 -28z m-501 17 c15 -11 16 -17 7 -35 -15 -29 -14 -37 4
-22 8 7 15 19 15 26 0 15 45 20 54 5 3 -4 -3 -16 -13 -25 -15 -13 -20 -14 -24
-4 -2 7 -4 -4 -4 -24 1 -45 4 -47 17 -13 5 14 16 25 25 25 17 0 20 -32 5 -61
-7 -11 -7 -19 -1 -19 5 0 11 6 14 13 3 9 7 9 17 0 7 -6 10 -18 7 -27 -5 -13
-13 -11 -54 10 -26 14 -58 38 -71 52 -22 26 -23 26 -17 4 4 -13 1 -29 -5 -37
-33 -39 -50 12 -19 54 16 22 20 38 16 60 -7 34 0 38 27 18z m-1564 -22 c0 -16
-45 -21 -54 -6 -8 12 4 21 31 21 14 0 23 -6 23 -15z m1525 -6 c5 -13 1 -27 -8
-37 -14 -14 -16 -13 -22 11 -11 43 17 67 30 26z m418 -1 c12 -18 1 -56 -12
-42 -5 5 -11 22 -15 37 -7 31 9 34 27 5z m51 6 c9 -8 16 -26 16 -40 0 -22 -2
-23 -20 -12 -12 8 -20 24 -20 40 0 32 3 34 24 12z m-2211 -11 c3 -10 2 -38 -1
-63 -6 -37 -11 -46 -30 -48 -22 -3 -23 -2 -16 50 9 70 35 104 47 61z m2117
-15 c0 -13 -4 -29 -9 -36 -6 -10 -10 -8 -16 10 l-8 23 -4 -25 c-12 -75 -27
-93 -39 -46 -4 18 2 35 21 60 31 41 55 47 55 14z m-183 -4 c2 -6 -6 -19 -17
-29 -19 -18 -20 -18 -20 1 0 11 -6 26 -12 33 -11 10 -7 11 16 8 17 -2 31 -8
33 -13z m61 -13 c4 -22 -12 -50 -23 -40 -3 3 -8 20 -11 38 -6 29 -4 33 12 29
11 -2 20 -13 22 -27z m50 12 c-5 -25 -28 -28 -28 -4 0 12 6 21 16 21 9 0 14
-7 12 -17z m-1846 -17 c13 -19 9 -26 -16 -26 -31 0 -56 28 -36 40 15 9 41 2
52 -14z m538 -21 c0 -8 -6 -15 -14 -15 -17 0 -28 14 -19 24 12 12 33 6 33 -9z
m1464 0 c3 -8 2 -24 -2 -35 -7 -18 -10 -19 -26 -7 -16 12 -17 16 -5 35 16 26
25 28 33 7z m58 -16 c-2 -13 -12 -33 -23 -44 -19 -19 -19 -19 -19 2 0 31 21
74 34 70 6 -2 10 -15 8 -28z m-302 -13 c0 -20 -16 -46 -29 -46 -8 0 -6 54 3
68 11 18 26 5 26 -22z m190 5 c0 -22 -25 -45 -40 -36 -15 9 -12 26 6 46 19 21
34 16 34 -10z m-120 -27 c0 -29 -25 -51 -34 -28 -9 25 -7 49 6 62 15 15 28 -2
28 -34z m-2174 -17 c14 -44 -19 -32 -34 13 -10 28 -10 29 9 17 10 -6 22 -20
25 -30z m1194 9 c0 -19 -27 -46 -46 -46 -11 0 -13 6 -8 23 11 35 54 53 54 23z
m374 5 c9 -14 -34 -61 -55 -61 -19 0 -18 2 7 35 27 36 39 42 48 26z m366 -29
c0 -29 -24 -72 -41 -72 -14 0 -11 87 4 93 27 12 37 6 37 -21z m34 19 c3 -4 -1
-17 -9 -27 -14 -18 -14 -18 -15 9 0 26 13 36 24 18z m366 -12 c14 -25 8 -44
-17 -57 -16 -9 -18 -6 -17 27 1 20 2 39 3 44 2 14 20 7 31 -14z m-210 -18 c0
-37 -24 -59 -45 -41 -21 17 -19 37 5 45 11 3 20 11 20 16 0 5 5 9 10 9 6 0 10
-13 10 -29z m120 11 c0 -11 -9 -27 -20 -37 -20 -18 -20 -17 -20 13 0 27 9 39
33 41 4 1 7 -7 7 -17z m-630 -13 c0 -11 -38 -31 -51 -27 -5 2 -2 13 6 25 15
21 45 22 45 2z m390 -2 c0 -28 -17 -47 -36 -40 -19 7 -19 -63 1 -110 13 -33
12 -47 -6 -47 -5 0 -11 17 -15 37 -6 33 -8 35 -15 15 -10 -28 -38 -40 -49 -21
-6 9 1 21 21 39 24 19 30 32 27 54 -2 21 5 38 27 62 36 39 45 42 45 11z m187
-18 c2 -11 -2 -30 -9 -42 -11 -22 -12 -22 -19 7 -5 17 -3 35 4 47 13 21 19 17
24 -12z m-317 -1 c0 -16 -3 -19 -11 -11 -6 6 -8 16 -5 22 11 17 16 13 16 -11z
m160 8 c0 -8 -4 -18 -10 -21 -5 -3 -10 3 -10 14 0 12 5 21 10 21 6 0 10 -6 10
-14z m-485 -33 c33 -8 71 -17 85 -20 34 -8 42 -24 23 -45 -24 -26 -50 -22 -85
13 -18 17 -54 42 -82 55 -28 13 -40 21 -26 18 14 -3 52 -13 85 -21z m85 6 c0
-5 -7 -9 -15 -9 -15 0 -20 12 -9 23 8 8 24 -1 24 -14z m650 11 c0 -11 -58 -50
-74 -50 -6 0 3 14 19 30 29 30 55 39 55 20z m-1840 -54 c-10 -10 -60 8 -60 21
0 5 10 13 23 18 18 9 24 7 34 -10 7 -12 8 -24 3 -29z m1013 30 c19 -13 38 -22
41 -19 3 3 26 -13 50 -35 40 -37 50 -41 90 -40 25 1 41 5 36 8 -5 3 -5 11 0
20 7 11 10 12 10 2 0 -7 5 -10 10 -7 15 9 42 -15 36 -32 -4 -11 0 -13 15 -8
11 4 27 1 35 -6 17 -14 58 -89 52 -95 -8 -7 -78 17 -78 27 0 14 -41 72 -46 66
-3 -2 3 -19 13 -36 17 -31 17 -32 -1 -46 -32 -24 -47 -18 -63 25 -21 53 -34
51 -18 -2 l12 -43 79 0 c82 0 88 -2 154 -58 23 -20 30 -31 22 -39 -14 -14 -62
-1 -62 17 0 36 -109 58 -178 37 -28 -9 -36 -7 -63 15 l-30 26 -44 -32 c-24
-17 -52 -31 -64 -31 -26 0 -36 -17 -21 -35 14 -16 3 -20 -19 -6 -7 5 -10 14
-7 20 9 13 -5 14 -37 2 -30 -11 -67 -4 -67 14 0 12 62 35 96 35 38 0 134 74
134 103 0 9 -17 29 -37 44 -21 15 -45 36 -55 46 -10 9 -24 17 -32 17 -16 0
-46 37 -46 57 0 21 44 15 83 -11z m607 -5 c0 -10 -7 -24 -15 -31 -13 -11 -15
-8 -15 17 0 16 3 33 6 36 11 10 24 -3 24 -22z m80 0 c0 -21 -26 -36 -36 -20
-6 11 13 39 27 39 5 0 9 -9 9 -19z m-220 -10 c0 -20 -13 -42 -32 -52 -18 -10
-19 -8 -13 13 12 38 45 67 45 39z m-58 -33 c-8 -8 -9 -4 -5 13 4 13 8 18 11
10 2 -7 -1 -18 -6 -23z m-483 4 c7 -13 6 -32 -3 -62 -9 -32 -14 -39 -19 -26
-9 23 -9 91 0 99 9 10 11 9 22 -11z m-471 -54 c11 -29 24 -66 27 -83 11 -49
32 -100 59 -140 26 -38 34 -75 16 -75 -8 0 -30 40 -44 83 -3 9 -10 17 -17 17
-6 0 -9 -6 -6 -14 3 -8 -2 -16 -14 -19 -15 -4 -19 0 -19 19 0 13 -4 24 -10 24
-5 0 -13 12 -16 28 -11 46 -19 49 -24 9 -6 -43 -25 -51 -25 -9 0 15 -4 30 -8
33 -11 8 3 60 14 53 5 -3 7 -9 4 -14 -3 -5 0 -12 6 -16 9 -5 10 1 5 22 -14 53
0 134 22 134 5 0 18 -24 30 -52z m-114 14 c0 -12 3 -19 8 -16 4 3 8 14 8 25 0
10 7 19 15 19 9 0 12 -6 8 -17 -13 -37 -36 -64 -49 -59 -10 4 -14 -3 -14 -19
0 -35 -16 -31 -29 6 -14 41 -14 69 0 69 6 0 9 -9 6 -20 -6 -23 5 -26 22 -6 8
10 9 16 1 21 -13 8 -2 27 13 22 7 -2 12 -13 11 -25z m1136 -72 c0 -31 -16 -41
-26 -15 -5 13 11 45 22 45 2 0 4 -13 4 -30z m60 -14 c0 -19 -26 -38 -47 -34
-16 3 -16 5 5 26 25 25 42 28 42 8z m90 -6 c0 -5 -4 -10 -10 -10 -5 0 -10 5
-10 10 0 6 5 10 10 10 6 0 10 -4 10 -10z m65 1 c7 -12 -34 -41 -57 -41 -17 0
-17 2 -2 25 16 25 48 33 59 16z m54 -84 c-2 -2 -16 -7 -31 -11 -26 -6 -28 -4
-28 22 0 41 11 46 39 18 14 -14 23 -27 20 -29z m31 -67 c-36 -28 -52 -26 -44
8 12 47 24 56 48 32 l21 -21 -25 -19z m-1343 -1 c-4 -31 -3 -39 6 -30 8 8 14
5 24 -11 l12 -23 1 23 c0 25 3 26 31 12 24 -13 25 -30 2 -30 -12 -1 -8 -6 12
-17 40 -21 42 -23 27 -32 -10 -6 -6 -12 12 -25 14 -9 26 -12 26 -8 0 10 119
46 126 39 3 -2 -18 -19 -45 -37 -34 -21 -57 -30 -71 -25 -26 8 -26 -11 0 -27
24 -15 26 -28 5 -28 -12 0 -13 -4 -3 -25 12 -27 6 -41 -11 -30 -6 3 -11 18
-11 33 -1 71 -76 162 -150 182 -51 14 -72 31 -60 50 9 13 12 12 25 -4 8 -11
17 -17 20 -14 3 3 -2 13 -11 22 -15 16 -15 18 2 31 30 23 37 18 31 -26z m1283
32 c0 -5 -3 -17 -6 -26 -6 -14 -8 -14 -25 1 -26 23 -24 34 6 34 14 0 25 -4 25
-9z m190 -31 c-6 -11 -16 -20 -22 -20 -6 0 -3 9 7 20 10 11 20 20 22 20 2 0
-1 -9 -7 -20z m80 0 c-14 -11 -28 -20 -32 -20 -5 0 -8 -5 -8 -11 0 -7 13 -9
38 -5 l37 7 -33 -22 c-27 -18 -37 -20 -58 -11 -34 16 -30 27 19 56 50 30 73
34 37 6z m-180 -15 c-7 -8 -17 -15 -23 -15 -5 0 -2 9 8 20 21 23 35 19 15 -5z
m-415 5 c3 -5 2 -10 -4 -10 -5 0 -18 -3 -28 -7 -16 -6 -16 -5 -4 10 15 19 27
22 36 7z m-765 -66 c0 -10 -33 -33 -48 -34 -10 0 -10 5 -2 20 10 18 50 29 50
14z m1415 -44 c13 -21 -23 -9 -46 16 l-24 27 32 -17 c17 -9 35 -20 38 -26z
m-50 -6 c27 -18 32 -50 13 -77 -20 -26 -44 -6 -28 22 6 12 9 30 7 39 -3 12 -8
8 -17 -15 -6 -18 -19 -33 -27 -33 -11 0 -13 5 -8 18 4 9 10 27 12 40 6 26 15
27 48 6z m-1529 -32 c46 -37 56 -91 28 -157 -15 -36 -16 -37 -35 -19 -17 15
-19 26 -14 65 5 32 2 58 -9 84 -9 20 -16 39 -16 41 0 10 27 2 46 -14z m1595
-55 c-11 -28 -18 -32 -39 -19 -10 7 -9 15 4 41 14 28 18 31 31 19 10 -11 11
-21 4 -41z m-1362 27 c2 -2 -16 -4 -40 -4 -31 0 -40 3 -29 10 13 8 57 4 69 -6z
m-29 -39 c20 -24 5 -28 -21 -6 -19 16 -20 20 -8 21 9 0 22 -7 29 -15z m-26
-55 c6 -35 -36 -175 -61 -200 -14 -13 -14 -13 -4 7 6 12 13 38 16 59 2 21 9
42 15 48 5 5 10 36 10 69 0 60 13 70 24 17z m1498 14 c-5 -27 -23 -47 -34 -36
-12 12 12 64 26 59 6 -2 9 -13 8 -23z m-1544 -59 c3 -26 2 -28 -14 -14 -19 15
-19 15 4 -40 4 -10 1 -13 -11 -8 -20 8 -21 3 -5 -22 15 -24 4 -53 -18 -44 -14
5 -15 3 -5 -15 12 -22 5 -52 -11 -52 -12 0 -3 132 13 193 12 47 42 48 47 2z
m1411 16 c22 -17 22 -18 5 -25 -12 -5 -23 -1 -31 10 -26 36 -12 44 26 15z
m-1541 -51 c8 0 10 -9 6 -27 -12 -51 -18 -55 -42 -30 -17 18 -21 31 -16 56 6
29 8 30 24 16 9 -8 22 -15 28 -15z m1622 -42 c0 -20 -38 -34 -53 -19 -7 7 -3
16 14 30 26 22 20 27 -11 11 -13 -7 -21 -6 -30 5 -7 9 -11 16 -9 18 2 1 13 7
24 14 17 10 23 8 42 -15 13 -15 23 -35 23 -44z m-1655 -40 c28 -13 33 -42 9
-56 -10 -6 -13 -12 -6 -16 14 -8 -27 -141 -61 -198 -76 -127 -158 -152 -206
-63 -9 17 -26 40 -38 53 -13 12 -23 26 -23 31 0 5 -12 11 -27 13 -35 4 -46 38
-13 38 17 0 21 4 17 20 -3 14 1 24 15 31 29 16 48 4 48 -31 0 -46 23 -92 63
-127 32 -28 40 -31 69 -23 38 11 94 72 102 110 3 15 8 61 12 103 5 60 10 74
21 70 13 -5 12 -1 -1 26 -18 35 -17 36 19 19z m1675 2 c0 -6 -8 -14 -17 -17
-15 -6 -14 -8 7 -13 19 -5 24 -12 23 -29 -2 -12 1 -20 6 -17 5 3 16 -13 25
-35 18 -46 15 -64 -5 -28 -7 13 -18 30 -26 37 -26 26 -63 79 -63 90 0 9 15 17
43 21 4 0 7 -4 7 -9z m125 -30 c7 -11 -12 -40 -25 -40 -15 0 -21 33 -8 42 17
11 26 10 33 -2z m-309 -214 c-2 -6 -8 0 -14 14 -5 14 -7 29 -4 34 7 12 24 -33
18 -48z m33 -19 c1 -5 -3 -5 -9 -2 -5 3 -10 16 -9 28 0 21 1 21 9 2 5 -11 9
-24 9 -28z m27 -35 c-11 -10 -14 3 -7 38 l6 35 3 -33 c2 -19 1 -36 -2 -40z
m544 -78 c-7 -24 -17 -47 -21 -50 -14 -8 -11 13 8 67 21 59 30 46 13 -17z
m-1951 -55 c-26 -37 -29 -37 -17 5 7 22 16 32 24 29 11 -4 9 -11 -7 -34z
m-246 -63 c-10 -13 -19 -23 -21 -21 -7 6 19 45 29 45 5 0 2 -11 -8 -24z"/>
<path d="M1557 3154 c-4 -4 -7 -14 -7 -22 0 -12 2 -12 17 -1 9 8 18 13 20 12
1 -2 3 0 4 5 0 10 -25 14 -34 6z"/>
<path d="M1575 3093 c-11 -2 -30 -6 -43 -9 -13 -2 -21 -8 -18 -13 6 -9 120 10
132 22 8 7 -36 8 -71 0z"/>
<path d="M1117 2403 c-4 -3 -7 -11 -7 -17 0 -6 5 -5 12 2 6 6 9 14 7 17 -3 3
-9 2 -12 -2z"/>
<path d="M2387 2255 c-4 -8 -2 -17 3 -20 6 -4 10 3 10 14 0 25 -6 27 -13 6z"/>
<path d="M780 2161 c0 -6 5 -13 10 -16 6 -3 10 1 10 9 0 9 -4 16 -10 16 -5 0
-10 -4 -10 -9z"/>
<path d="M2817 2164 c-13 -14 -7 -22 13 -17 11 3 32 -2 46 -12 25 -16 25 -16
14 4 -6 12 -17 21 -25 21 -7 0 -20 2 -27 5 -8 3 -17 2 -21 -1z"/>
<path d="M2740 2150 c20 -13 33 -13 25 0 -3 6 -14 10 -23 10 -15 0 -15 -2 -2
-10z"/>
<path d="M360 2051 c0 -6 5 -13 10 -16 6 -3 10 1 10 9 0 9 -4 16 -10 16 -5 0
-10 -4 -10 -9z"/>
<path d="M395 1781 c-3 -5 -1 -12 5 -16 5 -3 10 1 10 9 0 18 -6 21 -15 7z"/>
<path d="M1712 1954 c-2 -23 1 -33 8 -29 12 7 14 65 2 65 -4 0 -9 -16 -10 -36z"/>
<path d="M1762 1978 c-15 -15 -16 -58 -1 -58 6 0 8 7 5 16 -4 9 -1 23 5 31 15
17 7 27 -9 11z"/>
<path d="M1805 1952 c5 -23 2 -40 -10 -58 -23 -35 -12 -41 14 -8 15 18 19 34
15 53 -10 40 -27 53 -19 13z"/>
<path d="M881 1789 c-11 -18 -11 -23 1 -30 20 -13 23 -11 24 21 1 35 -6 38
-25 9z"/>
<path d="M1276 1791 c-4 -7 -5 -15 -2 -18 9 -9 19 4 14 18 -4 11 -6 11 -12 0z"/>
<path d="M1390 1766 c0 -9 5 -16 10 -16 6 0 10 4 10 9 0 6 -4 13 -10 16 -5 3
-10 -1 -10 -9z"/>
<path d="M1944 1975 c5 -18 2 -35 -9 -51 -16 -25 -8 -33 13 -12 15 15 16 75 1
84 -9 5 -10 -1 -5 -21z"/>
<path d="M2041 1833 c-1 -12 -4 -28 -7 -37 -3 -9 -1 -16 5 -16 18 0 25 29 13
53 l-11 22 0 -22z"/>
<path d="M2535 1220 c10 -11 20 -18 23 -15 7 6 -18 35 -31 35 -5 0 -2 -9 8
-20z"/>
<path d="M2980 955 c-7 -9 -11 -18 -8 -20 3 -3 11 1 18 10 7 9 11 18 8 20 -3
3 -11 -1 -18 -10z"/>
<path d="M585 1730 c-8 -13 5 -13 25 0 13 8 13 10 -2 10 -9 0 -20 -4 -23 -10z"/>
<path d="M620 1670 c-9 -6 -10 -10 -3 -10 6 0 15 5 18 10 8 12 4 12 -15 0z"/>
<path d="M1637 1891 c-3 -14 -11 -18 -33 -15 -27 4 -27 4 -6 -5 25 -12 30 -48
10 -84 -10 -20 -10 -21 5 -8 10 7 17 26 17 40 0 15 7 36 15 47 8 10 15 25 15
32 0 19 -17 14 -23 -7z"/>
<path d="M1677 1823 c-4 -3 -7 -16 -6 -27 0 -19 1 -19 10 3 10 24 8 36 -4 24z"/>
<path d="M1711 1804 c0 -11 3 -14 6 -6 3 7 2 16 -1 19 -3 4 -6 -2 -5 -13z"/>
<path d="M1820 1729 c0 -5 5 -7 10 -4 6 3 10 8 10 11 0 2 -4 4 -10 4 -5 0 -10
-5 -10 -11z"/>
<path d="M1780 1700 c0 -5 7 -7 15 -4 8 4 15 8 15 10 0 2 -7 4 -15 4 -8 0 -15
-4 -15 -10z"/>
<path d="M1942 1494 c10 -10 20 -15 24 -12 3 4 -5 12 -18 18 -22 12 -22 12 -6
-6z"/>
<path d="M1990 1489 c0 -5 5 -7 10 -4 6 3 10 8 10 11 0 2 -4 4 -10 4 -5 0 -10
-5 -10 -11z"/>
<path d="M1244 3069 c-3 -6 -1 -15 6 -19 9 -6 8 -10 -6 -18 -10 -6 -16 -14
-11 -18 10 -11 47 26 47 48 0 20 -25 25 -36 7z"/>
<path d="M1225 2940 c-3 -5 -1 -10 4 -10 6 0 11 5 11 10 0 6 -2 10 -4 10 -3 0
-8 -4 -11 -10z"/>
<path d="M1601 2919 c-7 -12 -10 -23 -8 -26 3 -3 11 5 17 17 15 28 8 35 -9 9z"/>
<path d="M1830 2920 c0 -5 5 -10 10 -10 6 0 10 5 10 10 0 6 -4 10 -10 10 -5 0
-10 -4 -10 -10z"/>
<path d="M1950 2910 c0 -5 5 -10 10 -10 6 0 10 5 10 10 0 6 -4 10 -10 10 -5 0
-10 -4 -10 -10z"/>
<path d="M1890 2865 c-19 -19 -29 -35 -24 -35 6 0 25 16 44 35 19 19 29 35 24
35 -6 0 -25 -16 -44 -35z"/>
<path d="M646 2882 c-3 -5 11 -13 31 -17 71 -13 157 -73 146 -101 -3 -8 0 -14
7 -14 6 0 8 5 5 10 -10 17 7 11 29 -9 20 -18 91 -61 101 -61 3 0 5 5 5 10 0 6
-6 10 -13 10 -16 0 -68 38 -122 88 -22 21 -56 48 -75 59 -41 25 -105 39 -114
25z"/>
<path d="M1434 2869 c-3 -6 -2 -15 2 -19 12 -12 38 5 30 19 -9 14 -23 14 -32
0z"/>
<path d="M605 2860 c-3 -5 3 -10 15 -10 12 0 18 5 15 10 -3 6 -10 10 -15 10
-5 0 -12 -4 -15 -10z"/>
<path d="M1897 2839 c-21 -17 -36 -33 -34 -36 6 -6 86 49 87 60 0 14 -16 7
-53 -24z"/>
<path d="M680 2840 c0 -5 7 -10 15 -10 24 0 82 -33 67 -37 -6 -3 -10 -9 -6
-14 7 -11 8 -12 -50 6 -27 8 -70 14 -95 14 -32 -2 -37 -3 -16 -6 83 -10 131
-26 166 -54 27 -21 43 -28 54 -22 13 8 11 13 -11 34 -22 19 -26 20 -21 6 5
-12 3 -17 -5 -15 -16 6 -19 20 -9 37 8 12 12 12 25 2 11 -9 16 -10 16 -2 0 6
-21 25 -47 41 -47 30 -83 39 -83 20z"/>
<path d="M590 2830 c0 -5 19 -10 43 -10 31 0 38 3 27 10 -20 13 -70 13 -70 0z"/>
<path d="M890 2785 c7 -9 21 -13 30 -10 9 3 23 -1 30 -10 7 -8 17 -15 23 -15
8 0 8 3 0 11 -6 6 -9 19 -6 28 4 14 3 14 -7 1 -9 -12 -13 -12 -17 -2 -4 10 -8
10 -19 1 -10 -8 -14 -8 -14 0 0 6 -7 11 -16 11 -14 0 -14 -3 -4 -15z"/>
<path d="M1325 2780 c4 -6 11 -8 16 -5 14 9 11 15 -7 15 -8 0 -12 -5 -9 -10z"/>
<path d="M925 2750 c9 -14 65 -42 65 -32 0 8 -52 42 -65 42 -3 0 -3 -5 0 -10z"/>
<path d="M1045 2750 c3 -5 14 -10 23 -10 15 0 15 2 2 10 -20 13 -33 13 -25 0z"/>
<path d="M584 2738 c-3 -4 5 -8 18 -8 13 0 34 -3 47 -7 16 -4 22 -2 18 4 -8
13 -76 22 -83 11z"/>
<path d="M1025 2730 c3 -5 13 -10 21 -10 8 0 12 5 9 10 -3 6 -13 10 -21 10 -8
0 -12 -4 -9 -10z"/>
<path d="M1160 2709 c0 -5 5 -7 10 -4 6 3 10 8 10 11 0 2 -4 4 -10 4 -5 0 -10
-5 -10 -11z"/>
<path d="M1300 2710 c0 -5 5 -10 10 -10 6 0 10 5 10 10 0 6 -4 10 -10 10 -5 0
-10 -4 -10 -10z"/>
<path d="M620 2701 c0 -5 17 -12 37 -16 20 -4 54 -15 74 -26 35 -17 38 -17 44
-1 6 17 -26 52 -49 52 -6 0 3 -11 19 -25 l30 -24 -60 24 c-63 26 -95 31 -95
16z"/>
<path d="M1997 2573 c-13 -12 -7 -51 10 -64 15 -12 16 -12 10 4 -3 9 -2 17 3
17 6 0 10 6 10 14 0 17 -24 38 -33 29z"/>
<path d="M3192 2483 c2 -9 8 -18 15 -20 7 -3 9 3 6 16 -6 25 -26 28 -21 4z"/>
</g>
</svg>
