<?xml version="1.0" encoding="iso-8859-1"?>
<!-- Uploaded to: SVG Repo, www.svgrepo.com, Generator: SVG Repo Mixer Tools -->
<svg height="800px" width="800px" version="1.1" id="Layer_1" xmlns="http://www.w3.org/2000/svg" xmlns:xlink="http://www.w3.org/1999/xlink" 
	 viewBox="0 0 512 512" xml:space="preserve">
<path style="fill:#EDEDEE;" d="M256,503.706c68.402,0,123.853-55.451,123.853-123.853S324.402,256,256,256
	s-123.853-55.451-123.853-123.853S187.598,8.294,256,8.294c136.805,0,247.706,110.902,247.706,247.706S392.805,503.706,256,503.706z
	"/>
<path style="fill:#504B5A;" d="M256,8.294c-68.402,0-123.853,55.451-123.853,123.853S187.598,256,256,256
	s123.853,55.451,123.853,123.853S324.402,503.706,256,503.706C119.195,503.706,8.294,392.805,8.294,256S119.195,8.294,256,8.294z"/>
<circle style="fill:#EDEDEE;" cx="256" cy="379.853" r="44.233"/>
<circle style="fill:#504B5A;" cx="256" cy="132.147" r="44.233"/>
<path d="M437.019,74.981C388.668,26.628,324.38,0,256,0S123.332,26.628,74.981,74.981S0,187.62,0,256s26.628,132.668,74.981,181.019
	S187.62,512,256,512s132.668-26.628,181.019-74.981S512,324.38,512,256S485.372,123.332,437.019,74.981z M16.587,256
	c0-63.949,24.903-124.071,70.122-169.291c23.8-23.8,51.731-41.962,82.172-53.837c-27.585,24.238-45.028,59.755-45.028,99.275
	c0,72.867,59.28,132.147,132.147,132.147c63.72,0,115.559,51.839,115.559,115.559S319.72,495.413,256,495.413
	c-63.949,0-124.071-24.903-169.291-70.122C41.491,380.071,16.587,319.949,16.587,256z M425.291,425.291
	c-23.8,23.8-51.731,41.962-82.172,53.837c27.585-24.238,45.028-59.755,45.028-99.275c0-72.867-59.28-132.147-132.147-132.147
	c-63.72,0-115.559-51.839-115.559-115.559S192.28,16.587,256,16.587c63.949,0,124.071,24.903,169.291,70.122
	c45.219,45.22,70.122,105.342,70.122,169.291S470.509,380.071,425.291,425.291z"/>
<path d="M308.527,379.853c0-28.963-23.564-52.527-52.527-52.527s-52.527,23.564-52.527,52.527c0,28.963,23.564,52.527,52.527,52.527
	C284.963,432.38,308.527,408.816,308.527,379.853z M220.06,379.853c0-19.816,16.123-35.94,35.94-35.94s35.94,16.123,35.94,35.94
	c0,19.817-16.123,35.94-35.94,35.94S220.06,399.67,220.06,379.853z"/>
<path d="M256,79.62c-28.963,0-52.527,23.564-52.527,52.527s23.564,52.527,52.527,52.527c28.963,0,52.527-23.564,52.527-52.527
	S284.963,79.62,256,79.62z M256,168.086c-19.816,0-35.94-16.123-35.94-35.94s16.123-35.94,35.94-35.94s35.94,16.123,35.94,35.94
	S275.816,168.086,256,168.086z"/>
</svg>