<?xml version="1.0" standalone="no"?>
<!DOCTYPE svg PUBLIC "-//W3C//DTD SVG 20010904//EN"
 "http://www.w3.org/TR/2001/REC-SVG-20010904/DTD/svg10.dtd">
<svg version="1.0" xmlns="http://www.w3.org/2000/svg"
 width="1363.000000pt" height="1239.000000pt" viewBox="0 0 1363.000000 1239.000000"
 preserveAspectRatio="xMidYMid meet">
<metadata>
Created by potrace 1.13, written by Peter Selinger 2001-2015
</metadata>
<g transform="translate(0.000000,1239.000000) scale(0.100000,-0.100000)"
fill="#000000" stroke="none">
<path d="M4845 11950 c4 -6 11 -8 16 -5 14 9 11 15 -7 15 -8 0 -12 -5 -9 -10z"/>
<path d="M3871 9998 c-54 -9 -57 -12 -34 -35 10 -10 30 -36 45 -58 15 -22 40
-55 55 -73 l27 -34 -64 4 c-36 3 -103 12 -149 22 -59 12 -87 14 -94 7 -6 -6
-9 -11 -7 -12 3 0 41 -7 85 -15 44 -7 121 -21 170 -29 50 -8 113 -20 140 -25
81 -16 185 -22 185 -11 0 11 -44 22 -85 21 -47 -2 -130 26 -128 41 1 8 -16 25
-38 39 -33 20 -68 62 -87 102 -6 14 26 39 33 27 4 -6 29 -10 59 -8 53 3 145
-7 206 -21 19 -4 63 -11 98 -15 50 -5 62 -3 62 8 0 19 -13 23 -75 26 -27 1
-64 6 -81 12 -28 9 -154 26 -244 32 -19 2 -55 0 -79 -5z"/>
<path d="M4385 9921 c-20 -8 -20 -8 1 -15 12 -4 35 -9 50 -11 48 -7 68 -12
108 -29 20 -8 40 -15 44 -14 4 1 14 -1 22 -5 8 -3 31 -8 50 -10 19 -2 49 -9
65 -15 17 -6 57 -16 90 -23 65 -13 197 -53 231 -70 11 -6 24 -9 30 -8 5 2 20
-3 34 -11 14 -8 117 -44 230 -82 113 -37 212 -72 220 -76 8 -5 49 -19 90 -31
41 -12 102 -36 135 -53 33 -17 85 -44 115 -59 l55 -27 -37 -7 c-21 -4 -38 -11
-38 -16 0 -5 -8 -9 -18 -9 -15 0 -52 -32 -52 -45 0 -12 41 -3 46 10 4 8 14 15
24 15 11 0 22 5 25 10 20 33 303 -16 377 -65 21 -14 43 -25 50 -25 18 0 298
-142 298 -151 0 -4 -21 -9 -47 -11 -50 -3 -54 -8 -39 -55 10 -31 -15 -30 -57
1 -27 20 -120 65 -202 96 -11 4 -32 12 -47 18 -41 17 -135 27 -123 14 6 -6 44
-16 85 -22 41 -6 77 -15 80 -19 3 -5 19 -13 35 -16 39 -9 125 -57 192 -106 29
-22 58 -39 65 -39 7 0 36 -35 63 -77 28 -43 58 -84 67 -92 26 -23 13 -29 -39
-19 -27 5 -59 5 -73 2 -23 -7 -21 -8 15 -14 22 -4 58 -11 80 -15 22 -4 47 -12
55 -19 8 -7 31 -19 50 -26 19 -8 59 -27 89 -42 29 -16 56 -27 59 -24 2 3 -4 9
-14 13 -10 4 -25 13 -32 20 -7 7 -20 13 -28 13 -8 0 -14 5 -14 10 0 6 -5 10
-11 10 -6 0 -22 9 -36 20 -14 11 -33 20 -42 20 -9 0 -22 12 -29 28 -21 49 -69
128 -95 156 -32 34 -59 92 -55 114 5 25 152 20 188 -6 14 -11 49 -27 77 -36
29 -10 55 -21 58 -26 3 -5 37 -25 77 -45 39 -20 82 -44 97 -54 14 -10 60 -40
101 -67 41 -27 95 -68 119 -91 24 -24 49 -43 57 -43 8 0 14 -6 14 -12 0 -7 20
-35 45 -63 100 -112 171 -315 109 -315 -8 0 -17 -7 -20 -15 -4 -8 -14 -15 -24
-15 -11 0 -24 -13 -32 -30 -7 -16 -16 -30 -19 -30 -4 0 -12 -13 -18 -30 -5
-16 -15 -30 -20 -30 -15 0 -34 -74 -46 -180 -9 -72 -6 -327 4 -375 6 -27 13
-81 17 -119 3 -38 12 -82 20 -97 7 -15 14 -39 14 -53 0 -14 6 -40 14 -58 23
-56 54 -142 60 -170 6 -24 4 -26 -20 -19 -30 8 -94 2 -94 -8 0 -4 18 -5 41 -3
23 3 51 0 63 -6 23 -11 131 -32 162 -32 12 0 42 -11 69 -24 47 -24 49 -24 129
-11 180 31 206 37 206 51 0 15 -35 19 -44 5 -3 -4 -29 -11 -57 -14 -28 -4 -56
-10 -63 -15 -20 -16 -92 -20 -123 -7 -16 7 -53 16 -81 20 -29 4 -54 11 -58 16
-3 5 -25 9 -49 9 -24 0 -47 5 -51 12 -15 24 -62 193 -79 288 -3 14 -9 40 -14
58 -5 17 -8 32 -6 32 3 0 0 12 -6 27 -8 23 -21 119 -21 163 0 8 -2 22 -5 30
-7 18 -7 45 1 224 7 152 16 201 52 262 44 74 69 89 152 88 39 -1 72 2 72 6 0
27 -64 185 -81 200 -3 3 -11 19 -17 36 -7 16 -23 41 -35 55 -12 13 -35 43 -50
67 -15 23 -39 48 -52 54 -13 6 -21 16 -19 22 2 6 -9 19 -26 29 -16 10 -30 22
-30 28 0 5 -4 9 -9 9 -5 0 -26 16 -45 35 -20 19 -42 35 -50 35 -7 0 -25 11
-40 25 -15 14 -31 25 -36 25 -5 0 -15 6 -22 13 -7 6 -40 30 -73 52 -33 22 -61
43 -63 48 -2 4 -11 7 -21 7 -9 0 -26 7 -37 15 -12 8 -45 24 -75 35 -30 12 -61
28 -70 36 -8 8 -30 14 -47 14 -20 0 -48 12 -74 30 -22 17 -45 30 -51 30 -5 0
-28 13 -51 28 -46 31 -269 142 -285 142 -6 0 -11 5 -11 10 0 6 -8 10 -18 10
-10 0 -22 3 -26 7 -10 10 -94 32 -176 45 -36 6 -72 17 -81 24 -8 8 -18 14 -22
14 -7 0 -85 35 -192 85 -38 18 -79 35 -90 38 -42 11 -170 59 -180 68 -5 5 -17
9 -26 9 -17 0 -189 62 -219 79 -9 5 -30 12 -48 15 -17 4 -34 12 -37 17 -4 5
-14 9 -23 9 -9 0 -30 7 -46 15 -15 8 -37 15 -47 15 -11 0 -27 4 -37 9 -35 19
-90 41 -101 41 -7 0 -40 10 -74 21 -57 20 -124 36 -237 59 -25 4 -72 16 -105
24 -65 18 -80 18 -110 7z"/>
<path d="M3171 9842 c-46 -3 -70 -22 -71 -54 0 -28 109 -131 151 -141 14 -4
57 -25 95 -47 38 -22 84 -43 104 -46 19 -4 48 -13 64 -21 15 -8 49 -16 75 -17
25 -1 51 -4 56 -8 6 -3 42 -14 80 -23 39 -10 75 -22 82 -27 6 -5 20 -8 31 -6
17 3 92 -64 92 -82 0 -12 90 -84 130 -105 124 -63 173 -85 190 -85 10 0 21 -4
24 -9 3 -5 18 -12 33 -15 16 -4 42 -13 58 -21 17 -8 62 -26 101 -42 67 -26 73
-31 104 -87 37 -67 148 -181 197 -201 18 -8 43 -23 55 -35 13 -12 33 -26 45
-30 12 -5 24 -21 28 -39 4 -17 22 -49 41 -72 19 -22 34 -45 34 -49 0 -5 6 -15
13 -22 6 -7 37 -42 68 -78 49 -56 55 -68 48 -89 -20 -52 19 -173 78 -243 20
-23 3 -31 -63 -29 -30 0 -54 -1 -54 -4 0 -3 7 -22 15 -42 8 -19 15 -43 15 -52
0 -14 78 -139 104 -167 6 -6 18 -21 26 -33 8 -11 23 -21 34 -21 20 0 20 0 -1
-15 -43 -30 -38 -124 12 -190 21 -29 55 -89 55 -98 0 -3 -10 -8 -22 -11 -13
-3 -34 -15 -47 -26 -23 -20 -23 -23 -11 -63 21 -66 38 -95 76 -129 20 -18 47
-43 60 -55 l23 -21 -52 -34 c-53 -34 -65 -57 -53 -102 7 -27 80 -106 126 -137
19 -13 41 -29 48 -36 7 -7 19 -13 25 -14 7 0 5 -3 -4 -7 -17 -8 -79 -75 -79
-87 0 -15 67 -69 115 -93 28 -14 74 -28 103 -30 l52 -4 0 -52 c1 -66 23 -93
92 -112 60 -17 177 -19 226 -5 18 5 35 10 37 10 18 0 122 25 130 31 6 4 27 13
47 19 53 17 57 31 6 19 -24 -5 -45 -13 -49 -19 -3 -5 -21 -11 -40 -14 -19 -2
-82 -12 -142 -21 l-107 -17 -75 24 c-66 21 -76 28 -85 55 -17 51 -4 79 48 106
26 12 54 28 62 34 8 6 32 17 53 24 20 6 37 16 37 22 0 6 -8 7 -17 3 -10 -4
-34 -11 -53 -17 -43 -11 -100 -38 -119 -57 -27 -25 -134 -7 -231 38 -8 4 -23
23 -32 41 -18 34 -18 35 10 57 32 27 96 63 113 63 6 0 25 6 42 14 42 19 151
44 218 51 30 3 70 8 89 10 19 2 67 4 105 5 59 1 65 3 40 11 -36 11 -267 4
-292 -9 -10 -5 -38 -12 -63 -15 -25 -4 -78 -20 -118 -37 l-73 -31 -28 21 c-16
11 -32 20 -35 20 -19 0 -100 62 -120 91 -42 63 -16 122 70 159 96 42 329 53
509 24 107 -17 133 -18 119 -4 -16 16 -255 44 -364 42 -58 -1 -132 -7 -165
-12 -62 -12 -106 -8 -128 10 -6 5 -27 21 -45 36 -37 29 -83 119 -77 149 2 11
4 22 4 25 2 13 63 41 134 59 87 24 241 28 341 10 51 -9 206 -46 281 -66 11 -3
17 -2 13 2 -14 15 -183 68 -248 77 -96 14 -348 15 -397 2 -38 -11 -45 -10 -66
10 -33 29 -62 75 -76 117 -10 31 -9 43 6 75 9 22 19 41 20 43 4 6 56 8 208 11
104 1 137 -3 249 -29 70 -18 142 -39 160 -48 35 -19 129 -53 134 -49 7 8 -44
33 -173 85 -98 40 -276 68 -445 70 -140 2 -188 16 -209 62 -6 15 -22 38 -35
52 -28 31 -69 134 -62 154 4 9 13 12 25 8 11 -3 64 -8 118 -10 54 -2 105 -6
113 -8 21 -7 113 -28 142 -32 12 -1 52 -10 88 -20 36 -9 83 -20 105 -25 22 -5
65 -18 95 -28 103 -37 98 -36 71 -13 -13 12 -30 21 -37 21 -8 0 -22 4 -32 9
-9 6 -44 17 -77 26 -33 9 -80 23 -105 30 -25 7 -70 16 -100 20 -30 4 -60 11
-65 16 -6 4 -20 8 -30 8 -11 -1 -48 4 -81 10 -34 6 -74 12 -89 13 -15 2 -30 9
-33 18 -6 17 -43 72 -53 80 -4 3 -17 37 -29 77 -19 63 -20 75 -8 100 12 26 17
28 63 25 59 -3 224 -38 278 -58 20 -8 48 -14 62 -14 13 0 37 -5 52 -11 15 -6
37 -15 48 -20 11 -4 67 -26 125 -49 58 -23 111 -44 118 -47 6 -3 12 0 12 6 0
7 -8 14 -17 17 -23 7 -64 25 -133 58 -30 14 -61 26 -68 26 -7 0 -31 9 -55 19
-51 24 -158 51 -198 51 -16 0 -46 6 -66 14 -21 8 -65 17 -98 21 -85 9 -87 10
-121 28 -44 23 -161 152 -190 209 -22 43 -32 98 -18 98 3 0 14 -5 24 -10 12
-7 21 -7 25 0 4 6 14 4 28 -5 12 -8 49 -16 82 -19 33 -3 72 -8 88 -12 15 -3
27 -2 27 3 0 8 -83 32 -167 48 -18 4 -33 11 -33 17 0 7 -20 8 -59 4 -67 -8
-90 0 -171 58 -88 63 -190 174 -190 207 0 29 386 19 425 -10 9 -7 80 -24 155
-37 39 -7 132 -34 165 -48 17 -8 46 -17 65 -21 19 -4 58 -17 85 -30 74 -34 96
-40 89 -21 -3 9 -21 18 -40 22 -19 3 -34 10 -34 14 0 5 -13 11 -30 15 -16 3
-47 15 -68 25 -22 11 -70 24 -107 30 -38 6 -73 14 -78 17 -15 9 -158 43 -183
43 -12 0 -26 5 -29 10 -3 6 -19 10 -34 10 -15 0 -31 3 -35 8 -10 9 -25 10
-221 17 -88 4 -169 10 -180 15 -23 10 -84 34 -205 80 -154 59 -280 118 -280
132 0 4 -5 8 -12 8 -24 0 -128 124 -128 153 0 22 48 35 106 30 38 -4 53 -1 63
11 12 15 4 16 -93 16 -58 0 -106 -4 -106 -9 0 -5 -9 -11 -21 -14 -13 -4 -18
-10 -13 -18 5 -9 1 -10 -17 -5 -13 4 -53 14 -89 23 -36 9 -67 20 -70 23 -3 4
-30 12 -60 18 -114 22 -165 37 -210 63 -8 5 -41 21 -72 36 -32 15 -58 31 -58
35 0 4 -6 8 -14 8 -8 0 -26 14 -39 30 -14 17 -32 30 -40 30 -19 0 -40 26 -32
40 3 5 13 10 21 10 8 0 14 4 14 8 0 11 21 12 258 12 133 0 212 4 212 10 0 6
-12 10 -27 10 -16 0 -111 1 -213 3 -102 2 -205 2 -229 -1z"/>
<path d="M4290 9730 c12 -8 10 -10 -10 -11 -28 -1 49 -19 185 -43 50 -8 140
-25 200 -37 61 -11 133 -25 160 -29 28 -5 82 -17 122 -28 49 -13 70 -16 67 -8
-5 13 -60 29 -164 46 -36 7 -78 15 -95 20 -16 4 -52 11 -80 15 -27 4 -102 20
-165 36 -63 16 -127 29 -142 29 -15 0 -30 5 -33 10 -3 6 -18 10 -33 10 -21 0
-24 -2 -12 -10z"/>
<path d="M5030 9555 c0 -2 19 -9 43 -15 23 -6 49 -14 57 -19 8 -4 59 -18 113
-31 53 -13 97 -27 97 -32 0 -4 10 -8 22 -8 45 0 -5 27 -102 54 -52 15 -115 34
-140 42 -44 14 -90 19 -90 9z"/>
<path d="M4105 9512 c-3 -8 -4 -16 -3 -17 3 -3 240 -18 268 -17 8 0 29 -4 45
-8 17 -5 48 -12 70 -14 107 -14 178 -26 260 -45 50 -11 103 -21 120 -21 16 0
47 -6 70 -14 48 -18 285 -91 440 -136 61 -18 121 -38 135 -45 37 -19 180 -71
215 -79 28 -6 29 -5 11 9 -11 8 -28 15 -37 15 -10 0 -20 4 -23 9 -4 5 -24 12
-45 16 -29 5 -38 11 -34 21 3 10 -2 14 -19 14 -13 0 -28 4 -33 9 -6 4 -28 13
-50 19 -22 6 -66 20 -97 32 -70 26 -208 65 -303 86 -38 8 -83 21 -100 28 -27
13 -159 41 -322 70 -34 6 -65 14 -69 19 -4 4 -26 7 -48 7 -23 0 -59 5 -81 10
-22 5 -85 14 -140 20 -55 6 -128 14 -162 19 -50 6 -63 4 -68 -7z"/>
<path d="M5415 9432 c11 -5 46 -17 78 -27 31 -10 57 -21 57 -25 0 -4 28 -15
63 -25 34 -9 84 -28 110 -42 26 -13 53 -21 59 -17 11 7 -121 74 -145 74 -7 0
-25 9 -42 20 -16 11 -39 20 -51 20 -11 0 -24 3 -28 7 -7 8 -11 9 -76 17 -30 4
-38 3 -25 -2z"/>
<path d="M5800 9281 c0 -35 64 -131 87 -131 11 0 9 7 -8 24 -13 14 -24 29 -25
33 0 4 -3 15 -7 23 -3 8 -7 24 -9 35 -3 20 -38 35 -38 16z"/>
<path d="M4831 9196 c3 -3 20 -8 39 -11 72 -11 96 -17 135 -30 22 -8 54 -17
70 -20 58 -10 191 -43 280 -70 50 -15 113 -33 140 -40 163 -43 278 -83 399
-139 39 -18 80 -36 91 -40 11 -4 30 -20 43 -37 l24 -29 -37 0 c-37 0 -37 0
-30 -32 12 -55 14 -88 3 -88 -5 0 -23 10 -40 21 -51 37 -329 179 -349 179 -18
0 19 -38 45 -46 11 -4 58 -24 103 -45 45 -22 86 -39 91 -39 6 0 12 -7 16 -15
3 -8 13 -15 21 -15 9 0 36 -13 60 -30 24 -16 50 -30 59 -30 8 0 24 -12 35 -26
11 -14 28 -24 37 -22 16 3 17 4 1 20 -9 9 -17 22 -17 28 0 6 -6 13 -14 16 -8
3 -12 12 -9 20 3 8 1 14 -5 14 -13 0 -10 32 5 48 6 6 22 12 35 12 39 0 211
-39 218 -49 3 -5 19 -12 35 -16 17 -4 47 -13 69 -21 21 -8 41 -13 44 -10 5 6
-11 13 -88 39 -25 8 -58 22 -75 31 -16 9 -39 16 -50 16 -29 0 -107 29 -125 46
-65 61 -81 79 -106 118 -43 69 -67 71 -39 4 6 -15 3 -16 -22 -8 -58 17 -98 33
-108 41 -5 5 -17 9 -28 9 -10 0 -45 13 -78 30 -32 16 -78 32 -102 35 -23 4
-46 10 -52 15 -5 4 -28 11 -50 15 -22 4 -44 11 -50 15 -5 4 -28 11 -50 14 -22
4 -78 18 -125 31 -47 13 -121 31 -165 41 -44 9 -106 25 -137 35 -50 17 -159
27 -147 15z"/>
<path d="M5890 9131 c0 -5 10 -18 23 -28 33 -26 42 -53 17 -53 -24 0 -27 -36
-7 -65 13 -17 14 -16 20 12 6 30 8 31 74 38 64 6 94 2 241 -32 12 -3 22 -9 22
-13 0 -5 15 -12 33 -16 50 -11 135 -52 210 -102 67 -45 97 -53 54 -16 -61 55
-202 128 -269 141 -16 3 -28 8 -28 12 0 19 -159 51 -268 53 -13 0 -38 17 -59
39 -35 37 -63 50 -63 30z"/>
<path d="M5794 9085 c22 -17 36 -19 36 -6 0 10 -24 21 -43 21 -7 0 -3 -7 7
-15z"/>
<path d="M6184 8842 c3 -5 26 -13 51 -16 25 -4 45 -11 45 -15 0 -5 17 -12 38
-15 20 -4 59 -14 85 -23 27 -8 51 -12 54 -9 7 7 -25 20 -102 41 -33 10 -71 21
-85 25 -48 16 -93 22 -86 12z"/>
<path d="M5210 8792 c0 -12 95 -42 132 -42 13 0 38 -4 56 -9 17 -5 32 -6 32
-2 0 7 -51 22 -135 39 -27 6 -58 14 -67 17 -10 4 -18 3 -18 -3z"/>
<path d="M6510 8751 c0 -22 7 -46 15 -55 8 -8 15 -21 15 -28 0 -8 6 -23 14
-34 8 -10 12 -29 9 -41 -4 -20 -1 -22 36 -21 45 0 45 3 -5 56 -43 44 -73 142
-44 142 6 0 10 5 10 10 0 6 -11 10 -25 10 -22 0 -25 -4 -25 -39z"/>
<path d="M6470 8750 c0 -5 7 -10 15 -10 8 0 15 5 15 10 0 6 -7 10 -15 10 -8 0
-15 -4 -15 -10z"/>
<path d="M5454 8725 c11 -8 27 -15 35 -15 9 0 54 -14 101 -31 47 -17 112 -40
145 -50 33 -11 78 -28 100 -38 153 -72 241 -117 248 -128 4 -7 15 -13 22 -13
33 0 11 21 -57 55 -40 19 -80 39 -88 44 -19 10 -74 35 -120 54 -19 8 -57 23
-85 35 -27 11 -75 28 -105 37 -30 9 -69 23 -87 31 -17 8 -40 14 -51 14 -12 0
-24 5 -27 10 -3 6 -16 10 -28 10 -22 -1 -22 -1 -3 -15z"/>
<path d="M5224 8695 c11 -8 28 -15 39 -15 20 0 157 -36 192 -50 11 -5 38 -14
60 -21 22 -6 64 -22 93 -35 29 -13 55 -24 57 -24 10 0 102 -42 210 -96 61 -30
115 -54 120 -54 29 0 -236 138 -345 180 -30 11 -64 25 -75 29 -11 5 -29 12
-40 15 -11 3 -47 15 -80 26 -68 25 -208 60 -233 60 -15 -1 -15 -3 2 -15z"/>
<path d="M6456 8641 c-7 -11 57 -45 74 -39 8 2 -4 13 -28 26 -23 12 -44 18
-46 13z"/>
<path d="M6099 8542 c11 -16 36 -42 55 -59 44 -37 45 -43 7 -43 -38 0 -81 -16
-81 -31 0 -7 10 -9 28 -5 15 3 52 9 83 12 50 6 59 4 79 -16 12 -12 24 -19 27
-16 6 6 -35 46 -47 46 -8 0 -66 49 -121 103 -46 44 -58 48 -30 9z"/>
<path d="M6220 8566 c0 -10 144 -76 165 -76 19 0 19 0 0 14 -11 7 -36 17 -55
21 -19 4 -42 13 -50 20 -17 14 -60 29 -60 21z"/>
<path d="M6510 8538 l-25 -21 25 8 c14 5 48 9 75 11 64 4 66 5 30 14 -52 13
-79 10 -105 -12z"/>
<path d="M6650 8541 c0 -10 10 -14 65 -26 17 -3 60 -22 98 -41 37 -19 67 -31
67 -26 0 15 -188 101 -222 102 -5 0 -8 -4 -8 -9z"/>
<path d="M5260 8520 c0 -5 7 -10 16 -10 8 0 12 5 9 10 -3 6 -10 10 -16 10 -5
0 -9 -4 -9 -10z"/>
<path d="M5360 8500 c0 -8 13 -12 93 -24 16 -3 43 -9 60 -15 18 -6 58 -12 89
-15 31 -3 96 -19 145 -36 116 -40 135 -45 93 -22 -19 11 -66 29 -105 42 -38
13 -79 27 -90 31 -11 4 -45 11 -75 15 -30 3 -62 10 -70 14 -23 11 -140 19
-140 10z"/>
<path d="M6475 8489 c-3 -8 1 -29 10 -45 8 -16 15 -35 15 -41 0 -7 5 -13 10
-13 6 0 10 -4 10 -10 0 -12 32 -50 42 -50 11 0 -2 29 -33 75 -15 22 -24 42
-19 45 5 3 0 16 -10 30 -15 20 -20 22 -25 9z"/>
<path d="M6410 8481 c0 -10 30 -24 37 -17 3 3 2 9 -2 15 -8 13 -35 15 -35 2z"/>
<path d="M6044 8375 c-4 -10 -1 -20 6 -25 7 -4 10 -12 6 -18 -3 -6 5 -9 20 -8
20 1 24 5 19 23 -3 12 0 23 8 26 7 4 6 6 -5 6 -9 1 -23 4 -32 7 -10 4 -18 -1
-22 -11z"/>
<path d="M6310 8372 c0 -10 130 -65 137 -58 9 9 -8 26 -25 26 -9 1 -35 9 -57
20 -45 22 -55 24 -55 12z"/>
<path d="M5890 8365 c0 -10 80 -55 97 -55 10 0 -4 13 -32 30 -49 29 -65 35
-65 25z"/>
<path d="M6583 8296 c-24 -22 -38 -32 -58 -40 -11 -5 -15 -10 -9 -12 6 -3 24
1 40 7 16 7 34 11 39 10 6 -2 26 -3 45 -2 39 0 125 -25 155 -45 22 -16 35 -18
35 -6 0 5 -19 16 -42 26 -24 10 -56 25 -72 32 -16 8 -41 14 -55 14 -15 0 -35
6 -46 14 -15 10 -23 11 -32 2z"/>
<path d="M6050 8291 c-17 -5 -21 -9 -12 -15 6 -4 16 -5 21 -2 7 5 111 -80 166
-135 6 -5 18 -18 28 -27 16 -16 14 -17 -35 -34 -31 -10 -54 -13 -56 -7 -5 13
-57 39 -79 39 -12 -1 -7 -5 12 -14 29 -12 65 -46 50 -46 -4 0 -2 -7 5 -15 11
-13 10 -14 -5 -9 -16 7 -17 3 -12 -31 4 -21 13 -43 21 -47 8 -5 13 -15 10 -23
-3 -8 14 -35 41 -64 l48 -51 -31 0 c-37 0 -62 -9 -62 -22 0 -8 108 -2 118 7 8
7 -22 56 -61 97 -37 41 -43 52 -42 89 1 24 7 45 13 47 7 2 19 10 26 18 15 14
127 14 191 0 l30 -7 -25 15 c-14 8 -34 15 -46 16 -12 0 -31 9 -44 20 -13 11
-29 20 -37 20 -8 0 -13 6 -10 13 4 12 -48 57 -65 57 -13 0 -78 72 -88 98 -10
22 -25 25 -70 13z"/>
<path d="M10035 8284 c-81 -11 -147 -26 -172 -39 -15 -8 -38 -15 -50 -15 -13
0 -23 -4 -23 -10 0 -5 -5 -10 -11 -10 -7 0 -45 -16 -85 -35 -40 -19 -78 -35
-84 -35 -6 0 -32 -6 -58 -14 -26 -8 -64 -18 -85 -21 -31 -5 -37 -9 -32 -23 4
-9 11 -36 16 -60 8 -38 5 -48 -18 -83 -27 -41 -26 -62 2 -39 33 28 47 71 40
125 l-6 51 104 26 c57 14 144 45 193 68 84 40 161 67 194 69 21 1 66 8 129 19
67 12 224 -5 200 -21 -2 -1 -24 -13 -49 -26 -69 -35 -173 -111 -254 -183 -17
-16 -35 -28 -41 -28 -10 0 -67 -55 -168 -161 -18 -20 -47 -53 -63 -75 -16 -21
-41 -52 -56 -69 -51 -57 -85 -100 -118 -150 -18 -27 -44 -62 -58 -77 -35 -38
-22 -35 46 10 52 34 184 102 199 102 4 0 14 6 22 13 26 21 154 76 215 92 84
22 199 45 203 41 2 -2 -18 -17 -44 -33 -27 -17 -55 -37 -63 -45 -8 -7 -34 -23
-57 -35 -60 -32 -84 -46 -103 -63 -31 -28 -72 -62 -116 -95 -24 -19 -71 -60
-104 -92 -34 -32 -80 -74 -104 -93 -23 -19 -50 -51 -60 -71 -10 -20 -29 -42
-42 -48 -13 -6 -24 -18 -24 -27 0 -9 -9 -29 -21 -45 -11 -16 -17 -29 -13 -29
3 0 1 -7 -6 -15 -7 -8 -14 -29 -16 -45 -2 -17 -7 -45 -10 -62 -3 -18 -8 -50
-11 -70 -6 -46 -18 -49 -26 -8 -8 38 -27 39 -28 3 -5 -129 -22 -180 -83 -248
-22 -24 -31 -42 -24 -44 29 -10 108 121 123 203 11 56 24 52 19 -6 -4 -57 -17
-132 -24 -140 -2 -3 -4 -15 -14 -88 -3 -24 -11 -62 -17 -85 -6 -22 -13 -50
-15 -63 -7 -36 -51 -165 -69 -198 -8 -16 -15 -33 -15 -37 0 -26 -104 -163
-175 -232 -139 -135 -154 -146 -195 -139 -19 4 -51 14 -70 24 -19 10 -63 32
-98 49 -35 17 -69 36 -75 41 -108 90 -127 119 -127 193 0 37 5 49 34 78 32 31
38 49 16 49 -16 0 -75 -70 -83 -98 -4 -15 -4 -46 -1 -68 5 -35 18 -54 73 -109
63 -62 94 -83 196 -131 22 -11 43 -23 46 -27 10 -14 180 -55 279 -67 52 -6
118 -15 145 -20 49 -9 87 -14 173 -25 24 -3 51 -9 60 -14 9 -5 46 -12 82 -16
36 -4 106 -15 156 -25 49 -10 133 -22 185 -25 51 -4 99 -11 106 -17 14 -11
408 -23 469 -13 41 6 44 9 44 36 0 24 4 29 24 29 34 0 188 -68 271 -120 22
-14 56 -33 75 -43 19 -10 51 -31 70 -47 19 -16 40 -33 45 -37 42 -31 147 -124
177 -158 62 -68 195 -262 211 -308 15 -46 -7 -77 -55 -77 -24 0 -41 5 -44 14
-3 7 -23 16 -44 20 -41 6 -190 90 -190 107 0 5 -8 9 -18 9 -19 0 -46 36 -37
50 13 21 -81 167 -131 205 -22 16 -41 32 -44 35 -7 9 -50 32 -50 26 0 -2 34
-38 75 -80 82 -83 128 -163 139 -240 l8 -48 -34 5 c-75 12 -188 53 -188 68 0
4 -9 9 -20 12 -12 3 -20 14 -21 29 -2 57 -35 129 -85 181 -46 49 -64 48 -25
-2 78 -98 111 -212 78 -268 -16 -28 -22 -31 -50 -26 -17 4 -43 12 -57 20 -14
7 -30 13 -37 13 -7 0 -31 18 -54 40 -23 22 -45 37 -48 34 -3 -3 21 -30 53 -59
64 -58 116 -79 181 -73 40 3 40 3 40 45 1 82 -10 93 253 -222 88 -105 121
-157 137 -210 19 -62 19 -99 -1 -116 -23 -19 -105 -16 -134 4 -14 9 -30 17
-37 17 -13 0 -60 29 -131 80 -24 18 -46 30 -48 27 -7 -7 102 -94 126 -102 11
-4 20 -10 20 -14 0 -5 27 -19 60 -31 107 -40 200 -13 200 58 0 42 -68 171
-132 251 -58 72 -81 97 -170 192 -45 48 -48 62 -10 48 49 -19 141 -23 160 -6
15 13 31 7 157 -57 96 -49 139 -76 137 -86 -1 -8 12 -37 30 -64 49 -74 87
-138 99 -166 17 -40 31 -132 22 -139 -5 -3 -14 -25 -21 -47 -18 -63 -88 -96
-127 -62 -8 7 -25 21 -37 30 -13 10 -36 29 -52 42 -17 14 -34 22 -38 20 -12
-8 10 -32 44 -50 44 -23 80 -62 104 -114 4 -8 17 -28 28 -45 33 -47 53 -83
101 -180 25 -49 49 -97 54 -105 5 -8 13 -26 19 -40 6 -14 27 -61 47 -105 41
-88 58 -167 59 -263 0 -82 -11 -94 -79 -81 -32 5 -58 18 -71 32 -11 13 -28 28
-36 33 -26 15 -101 77 -129 107 -22 24 -71 107 -75 130 -1 4 -2 8 -4 10 -4 5
-12 46 -20 107 -22 158 -74 292 -171 437 -73 109 -93 107 -24 -2 69 -111 121
-230 137 -314 12 -65 17 -152 9 -166 -3 -5 -6 -16 -8 -24 -1 -7 -7 -19 -13
-25 -14 -14 -118 -15 -128 -1 -4 6 -28 20 -54 33 -26 13 -66 42 -88 65 -23 23
-57 58 -76 77 -24 25 -34 45 -34 66 0 45 -69 254 -86 261 -7 3 -14 11 -14 17
0 7 -13 28 -30 46 -16 18 -30 37 -30 42 0 4 18 8 40 8 22 0 40 5 40 10 0 6 6
10 13 10 13 0 41 54 43 85 3 36 -32 149 -66 215 -42 80 -110 183 -117 176 -3
-3 12 -36 33 -73 20 -37 45 -81 54 -98 8 -16 20 -37 25 -45 5 -8 19 -45 31
-81 19 -59 19 -70 7 -111 -15 -51 -29 -59 -95 -51 -40 6 -77 23 -104 48 -6 5
-27 24 -47 42 -23 20 -40 47 -48 75 -21 77 -53 152 -86 203 -18 27 -33 53 -33
57 0 5 -93 152 -106 167 -2 2 -7 2 -10 -2 -4 -3 14 -38 40 -76 25 -39 46 -75
46 -80 0 -5 3 -11 8 -13 10 -4 88 -165 102 -211 20 -65 20 -112 -1 -146 -19
-32 -25 -34 -72 -31 -27 2 -130 52 -153 74 -6 6 -29 27 -51 48 -32 28 -41 43
-41 70 0 59 -13 121 -42 206 -16 45 -31 86 -34 91 -3 5 0 9 7 8 29 -1 50 4 44
10 -4 3 3 11 16 17 14 8 27 29 37 64 8 29 17 52 20 52 3 0 21 -15 41 -34 51
-50 114 -79 180 -84 81 -6 97 11 94 98 -1 36 -5 74 -9 85 -17 44 -59 125 -65
125 -4 0 -28 21 -55 46 -27 25 -50 43 -53 41 -2 -3 18 -26 45 -51 89 -84 131
-202 102 -290 -10 -31 -16 -36 -42 -36 -58 0 -228 98 -228 131 0 5 -7 9 -14 9
-10 0 -21 22 -32 60 -9 33 -21 63 -25 66 -12 7 -11 2 9 -91 22 -100 17 -139
-23 -165 -55 -36 -108 -22 -183 51 -52 51 -66 74 -68 114 -4 75 -14 120 -41
173 -15 29 -30 55 -34 58 -11 7 -3 -29 14 -63 18 -34 35 -94 41 -146 5 -43
-23 -109 -59 -139 -47 -40 -126 -30 -185 24 -27 24 -29 31 -19 49 19 37 6 156
-25 229 -15 36 -28 71 -28 78 -1 6 -7 12 -15 12 -17 0 -17 0 12 -57 14 -26 29
-72 35 -102 14 -75 -3 -201 -28 -201 -5 0 -15 -11 -22 -25 -24 -45 -78 -29
-152 47 -27 28 -38 48 -39 71 -3 122 -30 267 -50 267 -4 0 -1 -24 8 -52 18
-62 24 -217 10 -264 -5 -18 -20 -45 -32 -60 -20 -25 -24 -26 -53 -16 -34 12
-47 21 -97 70 -47 45 -50 40 -13 -18 24 -36 47 -56 84 -74 50 -25 52 -27 58
-78 5 -38 10 -49 16 -37 5 8 5 32 0 55 -12 51 -12 54 3 54 7 0 26 20 42 45
l28 45 17 -27 c9 -16 24 -34 33 -41 9 -8 13 -20 10 -28 -3 -8 -1 -20 5 -27 10
-11 25 -140 26 -217 0 -19 -3 -69 -8 -110 -7 -71 -10 -77 -42 -99 -27 -19 -43
-23 -80 -18 -27 3 -50 12 -58 22 -8 11 -18 15 -25 10 -9 -5 -7 -13 9 -30 16
-17 21 -34 20 -71 0 -27 1 -101 4 -164 4 -88 2 -122 -9 -143 -7 -15 -12 -27
-9 -27 3 0 -2 -7 -11 -16 -9 -9 -23 -27 -32 -40 -19 -29 -23 -29 -79 -4 -44
21 -90 72 -116 131 -7 16 -18 29 -25 29 -34 0 76 -163 132 -196 51 -30 64 -30
90 -1 60 65 87 155 87 287 l0 85 16 -35 c20 -44 21 -44 27 -38 6 6 -33 88 -43
88 -4 0 -7 18 -7 39 -1 38 0 39 31 34 17 -3 48 0 67 6 30 10 38 20 57 70 12
32 22 64 23 72 4 27 18 19 73 -40 66 -72 134 -102 184 -81 16 7 37 10 45 6 12
-4 14 0 9 18 -4 16 0 25 11 30 10 3 15 12 11 21 -3 8 -1 15 4 15 6 0 10 9 10
19 0 47 29 29 63 -39 25 -50 102 -100 158 -103 24 -1 51 1 59 3 9 3 15 -1 16
-10 0 -8 7 -28 14 -45 l14 -30 4 33 c2 18 -2 40 -9 48 -7 8 -7 14 -1 14 5 0
17 19 27 42 l16 41 25 -26 c14 -15 28 -27 32 -27 4 0 16 -13 26 -29 11 -15 34
-36 51 -46 26 -13 40 -35 68 -98 31 -73 58 -154 59 -182 0 -5 4 -18 10 -29 19
-34 27 -184 11 -194 -5 -4 -15 -17 -22 -30 -21 -40 -100 -23 -182 40 -20 16
-42 28 -48 28 -6 0 -11 3 -11 8 0 4 -22 34 -50 67 -27 33 -50 65 -50 71 0 6
-8 18 -18 27 -10 9 -19 32 -20 54 -2 55 -36 233 -43 233 -8 0 -6 -28 11 -147
11 -72 11 -100 2 -131 -7 -22 -12 -52 -12 -68 0 -22 -9 -34 -35 -52 l-36 -23
-44 20 c-68 30 -158 135 -169 196 -3 15 -9 32 -15 38 -10 12 -31 120 -29 147
2 29 -2 50 -10 50 -15 0 -16 -42 -3 -190 16 -196 -11 -279 -88 -265 -51 10
-65 22 -122 107 -28 43 -56 78 -60 78 -13 0 -11 -9 10 -38 10 -15 20 -31 22
-37 26 -67 145 -167 194 -163 18 2 30 9 31 18 0 8 11 35 22 60 14 29 22 65 22
103 0 31 3 57 8 57 4 0 23 -24 42 -53 116 -176 184 -210 268 -134 13 13 20 27
17 38 -3 10 -1 20 5 24 5 3 10 18 10 31 0 35 17 27 43 -21 28 -51 127 -149
191 -192 67 -44 136 -47 173 -7 22 24 47 107 35 119 -3 3 0 5 7 5 6 0 25 -21
41 -47 37 -60 61 -86 134 -145 55 -45 62 -48 117 -48 54 0 60 2 73 28 7 15 17
46 21 70 4 23 9 42 11 42 3 0 42 -37 87 -83 94 -95 169 -137 242 -137 25 0 54
5 65 12 15 10 23 9 39 -6 12 -11 21 -25 21 -33 0 -7 5 -13 10 -13 6 0 10 -7
10 -16 0 -20 137 -163 201 -210 53 -39 152 -69 179 -54 10 5 20 16 24 25 10
26 30 16 70 -35 22 -28 42 -50 45 -50 4 0 35 -27 70 -60 34 -33 67 -58 72 -54
12 7 -3 28 -51 69 -52 45 -158 153 -174 178 -8 12 -17 51 -20 87 -9 102 -97
339 -147 395 -10 11 -19 25 -20 30 -4 25 -21 60 -49 100 -17 24 -30 47 -30 52
0 5 -11 25 -24 44 -14 20 -36 57 -50 82 l-26 46 55 6 c77 10 100 42 98 135 -1
37 -10 89 -19 116 -23 69 -74 174 -84 174 -10 0 -50 62 -50 77 0 6 20 16 44
22 56 14 70 30 56 65 -13 35 -13 36 4 36 26 0 223 -184 301 -280 28 -36 64
-87 79 -115 16 -27 32 -55 38 -62 5 -6 11 -25 13 -42 2 -16 11 -43 19 -58 21
-43 29 -95 17 -126 -10 -25 -15 -27 -63 -27 -31 1 -69 9 -93 20 -22 11 -44 19
-49 20 -4 0 -28 14 -53 30 -24 17 -48 30 -52 30 -4 0 -24 19 -45 41 -20 23
-39 39 -43 36 -7 -8 39 -63 75 -91 15 -11 29 -23 32 -26 17 -20 122 -74 185
-95 95 -32 135 -33 135 -3 0 12 5 37 12 55 9 26 9 43 0 79 -7 26 -11 49 -9 51
9 8 105 -77 261 -232 176 -175 209 -211 278 -300 25 -33 56 -71 70 -85 13 -14
41 -46 62 -72 21 -27 44 -48 52 -48 7 0 11 -6 8 -13 -4 -11 66 -103 101 -132
6 -5 33 -38 59 -72 25 -34 53 -68 60 -76 18 -18 90 -130 91 -140 0 -4 5 -11
11 -15 17 -11 85 -121 123 -198 19 -38 38 -76 43 -84 8 -15 19 -39 44 -98 8
-18 24 -37 36 -42 18 -7 19 -9 6 -9 -10 -1 -18 -2 -18 -3 0 -2 11 -35 25 -75
27 -82 25 -118 -11 -149 -43 -38 -28 -60 29 -42 35 11 42 22 38 56 -1 8 3 20
9 27 9 10 3 40 -25 125 -20 61 -38 116 -39 123 -4 15 -31 81 -54 127 -9 19
-47 81 -84 139 -38 58 -68 112 -68 120 -1 22 -83 132 -165 221 -27 30 -66 79
-85 108 -19 28 -45 55 -57 58 -13 3 -20 10 -17 15 3 5 0 9 -5 9 -6 0 -11 5
-11 11 0 6 -25 38 -55 72 -30 33 -55 64 -55 69 0 4 -27 34 -60 66 -34 31 -69
73 -78 92 -9 19 -44 63 -77 98 -175 183 -173 181 -315 292 -36 29 -77 62 -92
76 -14 13 -33 24 -42 24 -9 0 -17 3 -17 8 -1 4 -3 20 -5 35 -2 23 -58 116 -96
161 -4 6 -25 33 -46 60 -93 124 -209 224 -342 296 -15 9 -46 47 -71 89 -73
127 -200 271 -284 325 -17 10 -37 26 -46 35 -9 9 -26 23 -39 31 -12 8 -28 21
-36 28 -7 6 -19 12 -28 12 -8 0 -20 8 -25 18 -5 10 -28 27 -50 38 -23 10 -41
22 -41 27 0 4 -4 7 -9 7 -6 0 -30 14 -54 30 -25 17 -51 30 -57 30 -7 0 -46 16
-86 35 -77 37 -94 37 -114 0 -17 -32 -137 -92 -152 -77 -8 8 -53 12 -126 12
-112 0 -438 39 -512 60 -35 11 -84 19 -280 45 -119 16 -297 49 -305 57 -3 3 7
18 22 34 55 59 113 158 153 260 22 58 37 110 34 116 -6 9 15 90 37 143 7 18
17 61 51 225 7 39 16 94 33 225 2 17 7 52 10 78 3 26 12 59 21 71 8 13 14 41
13 62 -3 53 40 129 73 130 21 0 24 6 16 32 -6 17 54 113 80 130 15 9 34 24 43
32 9 8 45 41 80 72 35 32 73 65 84 75 18 17 53 45 119 96 16 12 33 23 38 23 4
1 12 2 16 3 5 0 31 20 59 44 74 61 216 143 278 160 36 10 94 33 101 40 13 13
-51 7 -151 -14 -144 -30 -165 -33 -165 -21 0 6 5 14 10 17 16 10 92 116 87
121 -3 3 -11 -2 -19 -10 -30 -29 -202 -111 -216 -102 -6 3 -15 -1 -22 -9 -7
-8 -17 -15 -23 -15 -6 0 -52 -20 -104 -45 -114 -56 -134 -58 -99 -12 15 19 26
38 26 44 0 5 15 23 33 40 17 17 46 45 64 64 57 62 120 119 130 119 5 0 18 10
29 22 26 29 163 138 174 138 5 0 38 18 73 40 35 22 84 47 110 56 26 9 47 19
47 23 0 23 -257 49 -355 35z m40 -506 c-11 -7 -28 -22 -38 -34 -10 -14 -37
-27 -68 -33 -29 -6 -68 -19 -88 -27 -104 -47 -200 -95 -206 -104 -3 -5 -15
-10 -26 -10 -10 0 -19 -4 -19 -9 0 -9 -41 -23 -48 -16 -9 9 41 66 71 79 107
48 281 118 300 120 12 2 40 12 62 24 22 12 49 21 60 21 l20 0 -20 -11z m-851
-1683 c-9 -14 -19 -24 -21 -21 -6 6 20 46 30 46 4 0 0 -11 -9 -25z m-45 -92
c-12 -33 -60 -126 -69 -133 -3 -3 -19 -23 -36 -45 -53 -72 -65 -80 -116 -79
-50 0 -71 10 -51 22 44 27 197 174 240 230 31 39 46 42 32 5z m582 -975 c30
-44 87 -95 120 -109 23 -9 31 -25 52 -92 45 -146 49 -173 36 -238 -11 -58 -20
-71 -48 -76 -8 -1 -18 -9 -23 -17 -12 -21 -34 -20 -87 4 -51 23 -79 52 -117
115 -14 25 -31 45 -38 45 -8 0 -13 16 -14 41 -1 22 -4 54 -7 70 -7 41 -45 152
-56 164 -17 17 -9 -29 16 -104 14 -41 26 -95 26 -120 2 -89 -37 -170 -83 -171
-9 0 -18 -5 -20 -12 -6 -16 -110 26 -141 58 -13 13 -38 52 -55 86 -26 53 -32
78 -36 153 -3 50 -8 105 -12 124 l-7 33 44 -7 c24 -4 45 -9 47 -10 2 -2 10
-27 19 -56 41 -144 95 -301 101 -294 2 2 -3 30 -13 62 -9 32 -23 78 -30 103
-7 25 -16 64 -20 87 -4 24 -10 45 -15 48 -4 3 -11 21 -14 40 -6 30 -3 38 21
59 27 23 28 23 41 5 34 -49 174 -81 188 -44 7 18 38 20 52 3 5 -7 13 -24 17
-38 10 -37 55 -151 71 -180 22 -41 16 0 -11 79 -26 74 -29 81 -58 139 -16 31
-16 35 1 57 22 32 26 31 53 -7z m666 -601 c15 -19 42 -40 58 -47 44 -19 105
-114 171 -265 15 -35 34 -145 34 -199 0 -36 -24 -93 -45 -108 -16 -12 -87 3
-125 25 -57 34 -128 107 -151 154 -11 24 -30 48 -40 54 -11 5 -19 20 -19 34 0
20 -61 226 -85 288 -7 16 -3 17 44 11 41 -5 52 -4 57 10 7 19 56 75 66 76 3 0
19 -15 35 -33z"/>
<path d="M9794 4705 c4 -16 12 -34 18 -40 7 -7 8 -1 4 20 -4 17 -12 35 -18 40
-7 7 -8 1 -4 -20z"/>
<path d="M10308 4354 c-4 -3 0 -18 7 -32 8 -15 41 -85 75 -156 33 -71 63 -126
66 -123 4 3 -3 26 -15 50 -11 24 -21 51 -21 60 0 9 -4 17 -9 17 -5 0 -12 10
-16 23 -10 31 -8 25 -43 100 -33 69 -35 71 -44 61z"/>
<path d="M6264 8245 c65 -34 154 -65 186 -64 15 0 0 8 -40 21 -36 11 -72 24
-80 29 -24 15 -59 28 -88 35 -18 3 -11 -3 22 -21z"/>
<path d="M5326 8210 c7 -6 56 -18 110 -26 55 -7 134 -20 177 -27 43 -8 80 -10
83 -6 5 8 -9 11 -126 30 -78 12 -160 25 -215 35 -31 5 -37 4 -29 -6z"/>
<path d="M6488 8202 c-8 -35 15 -91 53 -131 38 -39 69 -53 69 -31 0 6 -4 10
-9 10 -16 0 -72 64 -67 77 3 7 -1 13 -10 13 -10 0 -13 7 -8 25 4 16 1 30 -9
40 -14 13 -16 13 -19 -3z"/>
<path d="M5905 8190 c3 -5 10 -10 16 -10 5 0 9 5 9 10 0 6 -7 10 -16 10 -8 0
-12 -4 -9 -10z"/>
<path d="M5960 8165 c0 -8 92 -47 98 -41 3 3 3 7 1 9 -50 30 -99 46 -99 32z"/>
<path d="M8970 8166 c0 -2 13 -9 29 -14 25 -9 29 -8 24 4 -4 12 -53 21 -53 10z"/>
<path d="M9120 8160 c0 -5 4 -10 9 -10 14 0 52 -80 53 -112 1 -37 18 -36 18 1
0 40 -14 73 -43 105 -26 27 -37 32 -37 16z"/>
<path d="M9210 8153 c0 -3 10 -21 22 -41 18 -29 23 -50 27 -116 1 -5 7 -3 15
3 14 12 10 46 -12 102 -6 15 -9 29 -6 31 2 3 -7 10 -21 16 -14 6 -25 9 -25 5z"/>
<path d="M8886 8140 c5 -5 20 -11 32 -13 12 -2 28 -9 34 -15 7 -7 17 -12 24
-12 7 0 26 -16 43 -35 38 -43 60 -46 30 -4 -13 18 -48 44 -83 60 -61 29 -99
38 -80 19z"/>
<path d="M9298 8115 c13 -20 22 -53 22 -75 0 -21 5 -42 10 -45 18 -11 16 75
-2 108 -7 12 -12 26 -13 32 0 5 -9 11 -19 13 -18 4 -18 2 2 -33z"/>
<path d="M5755 8132 c10 -10 82 -36 101 -37 11 0 54 -18 165 -66 70 -31 89
-35 89 -19 0 6 -8 10 -19 10 -10 0 -24 7 -31 15 -7 8 -21 15 -32 15 -11 0 -32
6 -46 14 -15 8 -67 27 -117 42 -113 36 -123 39 -110 26z"/>
<path d="M8755 8130 c-3 -5 -26 -10 -51 -10 -28 0 -43 -4 -39 -10 3 -5 19 -10
34 -10 29 0 90 -27 154 -67 21 -13 43 -23 49 -21 14 5 -74 60 -116 74 -17 6
-32 16 -34 22 -3 9 3 10 20 3 12 -4 44 -11 70 -15 25 -4 52 -14 58 -21 7 -8
17 -15 23 -15 6 0 21 -10 34 -22 13 -12 26 -18 30 -14 9 9 -45 54 -74 62 -13
3 -23 10 -23 14 0 5 -25 12 -55 15 -30 4 -55 11 -55 16 0 12 -17 11 -25 -1z"/>
<path d="M9046 8133 c-3 -3 5 -14 18 -24 13 -10 31 -34 40 -54 15 -32 36 -47
36 -27 0 22 -83 115 -94 105z"/>
<path d="M9370 8119 c0 -4 7 -22 15 -42 15 -36 8 -82 -18 -115 -5 -7 -7 -16
-3 -20 4 -4 16 4 27 17 26 32 26 110 -1 142 -10 13 -19 21 -20 18z"/>
<path d="M8602 8079 c3 -9 29 -17 66 -22 40 -5 80 -18 113 -38 28 -16 58 -29
67 -27 13 3 -12 19 -108 68 -47 25 -144 38 -138 19z"/>
<path d="M9675 8055 c-55 -12 -108 -26 -118 -30 -10 -4 -24 -2 -32 5 -17 14
-17 14 -19 -51 -1 -26 -11 -61 -24 -83 -25 -43 -28 -58 -8 -50 15 6 53 77 58
109 2 12 11 20 23 20 11 0 23 7 26 16 4 8 27 21 50 28 24 7 57 18 72 24 33 12
51 -1 34 -23 -14 -19 -130 -90 -146 -90 -6 0 -11 5 -11 11 0 8 -5 8 -15 -1 -8
-7 -15 -23 -15 -36 0 -12 -4 -25 -9 -28 -5 -3 -12 -18 -15 -32 -4 -15 -14 -33
-21 -41 -16 -16 -20 -33 -7 -33 10 0 34 38 53 85 14 33 24 43 62 56 52 19 104
53 130 86 10 13 25 30 33 37 15 16 18 33 7 39 -5 2 -53 -6 -108 -18z"/>
<path d="M8555 8042 c-8 -8 -6 -22 3 -20 11 3 140 -12 157 -18 8 -4 15 -2 15
4 0 6 -15 15 -32 20 -39 12 -135 21 -143 14z"/>
<path d="M6455 8031 c3 -5 19 -8 36 -6 48 6 48 15 0 15 -23 0 -40 -4 -36 -9z"/>
<path d="M6550 8011 c-36 -9 -70 -42 -70 -69 0 -12 11 -35 25 -50 14 -15 25
-31 25 -37 0 -6 16 -27 35 -47 l35 -36 -35 -21 c-31 -18 -34 -24 -31 -53 3
-18 5 -36 5 -40 1 -5 6 -8 11 -8 7 0 8 13 4 34 -5 31 -3 36 26 51 30 16 36 15
114 -5 44 -12 85 -26 91 -31 11 -11 25 -12 25 -1 0 8 -98 47 -142 56 -25 6
-108 76 -108 91 0 4 -6 13 -12 20 -31 34 -38 45 -43 67 -4 18 1 27 28 45 35
22 72 30 97 20 36 -13 61 -15 57 -4 -7 22 -83 32 -137 18z"/>
<path d="M8495 7990 c44 -11 75 -11 75 0 0 6 -23 9 -52 9 -45 -1 -49 -2 -23
-9z"/>
<path d="M8746 7985 c4 -8 17 -15 30 -15 27 0 32 15 8 24 -28 11 -44 7 -38 -9z"/>
<path d="M8590 7985 c0 -9 40 -22 93 -29 28 -4 47 -3 47 2 0 6 -24 13 -52 17
-29 3 -61 9 -70 11 -10 3 -18 3 -18 -1z"/>
<path d="M6740 7970 c8 -5 22 -10 30 -10 9 0 32 -11 52 -25 20 -14 43 -25 50
-25 15 0 -22 27 -72 52 -37 20 -88 26 -60 8z"/>
<path d="M8410 7932 c0 -7 29 -11 75 -11 42 0 97 -3 123 -6 40 -5 44 -4 27 7
-26 16 -225 25 -225 10z"/>
<path d="M5534 7918 c-3 -4 6 -8 20 -8 14 0 26 4 26 9 0 11 -39 10 -46 -1z"/>
<path d="M5900 7925 c0 -3 35 -22 78 -43 103 -49 99 -47 84 -30 -26 32 -162
92 -162 73z"/>
<path d="M6310 7915 c0 -5 104 -55 115 -55 3 0 22 -11 43 -24 20 -14 51 -28
67 -31 28 -7 29 -6 10 8 -21 15 -114 63 -178 91 -38 16 -57 20 -57 11z"/>
<path d="M5650 7901 c0 -6 12 -13 28 -16 15 -3 46 -10 70 -15 52 -12 72 -13
72 -1 0 4 -28 13 -62 19 -35 6 -73 14 -85 18 -14 4 -23 2 -23 -5z"/>
<path d="M8385 7863 c-77 -29 -88 -34 -82 -39 3 -3 36 2 74 11 37 9 79 18 92
21 20 4 22 7 10 15 -19 12 -47 10 -94 -8z"/>
<path d="M5835 7860 c3 -5 11 -10 16 -10 6 0 7 5 4 10 -3 6 -11 10 -16 10 -6
0 -7 -4 -4 -10z"/>
<path d="M8520 7860 c-11 -7 -5 -10 23 -10 23 0 36 4 32 10 -8 13 -35 13 -55
0z"/>
<path d="M5887 7840 c13 -13 56 -23 49 -12 -3 5 -17 12 -32 15 -14 2 -22 1
-17 -3z"/>
<path d="M9125 7841 c-45 -11 -72 -28 -126 -79 -76 -71 -76 -142 0 -186 57
-33 205 -32 252 2 48 35 86 81 92 111 10 49 -25 111 -80 139 -28 15 -100 22
-138 13z m141 -33 c13 -6 24 -17 24 -23 0 -7 9 -20 20 -30 11 -10 18 -26 15
-39 -2 -11 -4 -26 -4 -32 -2 -19 -73 -86 -107 -100 -38 -16 -141 -19 -178 -4
-14 5 -37 27 -52 49 -26 40 -26 41 -8 68 39 61 69 71 39 14 -8 -17 -13 -31
-11 -31 3 0 24 20 48 44 69 69 144 85 193 40 28 -26 28 -32 9 -104 -13 -45 24
-3 38 43 12 40 12 40 -27 74 -30 26 -47 33 -79 33 -31 0 -37 3 -26 10 16 11
68 5 106 -12z m-166 -15 c-8 -4 -21 -12 -29 -20 -7 -8 -16 -11 -20 -8 -8 9 29
35 48 34 14 0 14 -1 1 -6z"/>
<path d="M9158 7752 c-19 -2 -29 -12 -36 -31 -18 -52 26 -69 73 -28 41 35 21
67 -37 59z"/>
<path d="M9000 7655 c0 -19 54 -53 98 -61 38 -7 116 12 133 32 14 17 13 17
-36 -1 -74 -26 -158 -13 -171 28 -7 21 -24 23 -24 2z"/>
<path d="M5955 7810 c3 -5 14 -10 23 -10 15 0 15 2 2 10 -20 13 -33 13 -25 0z"/>
<path d="M6025 7776 c30 -26 51 -34 40 -16 -3 6 -21 17 -38 26 l-32 15 30 -25z"/>
<path d="M6296 7789 c5 -9 127 -69 140 -69 2 0 4 4 4 8 0 4 -25 19 -55 32 -30
13 -55 28 -55 32 0 4 -9 8 -21 8 -12 0 -17 -4 -13 -11z"/>
<path d="M8310 7774 c-36 -11 -78 -28 -95 -38 -28 -16 -28 -17 -5 -13 14 3 52
15 84 27 40 14 83 21 133 22 89 0 97 15 11 20 -44 2 -83 -3 -128 -18z"/>
<path d="M6135 7761 c-3 -6 -17 -11 -31 -11 -33 0 -30 -19 6 -31 17 -6 30 -17
30 -25 0 -8 7 -17 15 -20 8 -4 15 -12 15 -19 0 -17 17 -28 30 -20 6 4 3 16 -7
31 -9 14 -19 42 -22 62 -6 36 -24 52 -36 33z"/>
<path d="M6460 7711 c0 -13 37 -24 52 -15 8 5 6 10 -8 15 -27 11 -44 11 -44 0z"/>
<path d="M6294 7695 c11 -8 29 -15 40 -15 19 1 19 2 -4 15 -35 20 -62 19 -36
0z"/>
<path d="M8355 7700 c-8 -13 45 -13 65 0 11 7 6 10 -22 10 -20 0 -40 -4 -43
-10z"/>
<path d="M8235 7671 c-87 -39 -125 -60 -125 -71 0 -11 27 -3 50 14 32 25 97
54 133 60 20 4 37 11 37 16 0 16 -31 10 -95 -19z"/>
<path d="M6823 7683 c9 -14 47 -24 47 -12 0 5 -4 9 -9 9 -5 0 -17 3 -27 7 -11
4 -15 3 -11 -4z"/>
<path d="M6374 7672 c4 -7 13 -12 19 -12 7 0 34 -12 62 -25 27 -13 52 -22 54
-19 7 7 -22 24 -69 42 -62 24 -74 26 -66 14z"/>
<path d="M5547 7630 c13 -5 46 -12 75 -15 61 -7 211 -39 317 -66 82 -22 100
-21 43 3 -82 35 -344 87 -432 87 -25 0 -25 0 -3 -9z"/>
<path d="M6070 7632 c0 -4 14 -13 30 -19 34 -13 40 -39 11 -48 -11 -3 -23 -15
-26 -26 -5 -14 -13 -19 -26 -16 -10 3 -19 1 -19 -4 0 -5 9 -9 20 -9 15 0 20
-7 20 -25 0 -32 69 -101 126 -126 23 -10 47 -25 53 -33 18 -21 84 -54 125 -62
20 -3 38 -10 41 -14 6 -10 110 -34 138 -32 22 1 35 -27 17 -38 -20 -12 -21
-39 -3 -66 8 -13 12 -28 8 -34 -3 -5 2 -10 13 -10 11 0 30 -9 43 -20 l24 -19
-22 -1 c-12 0 -25 -5 -28 -11 -4 -5 -18 -14 -31 -19 -36 -14 -32 -57 8 -95
l32 -30 -27 -3 c-30 -4 -37 -22 -8 -22 10 0 32 5 49 11 34 12 34 34 -1 43 -12
3 -30 19 -40 35 -17 29 -17 30 10 49 50 35 92 52 127 52 19 0 38 5 41 10 4 6
-13 10 -44 10 -63 0 -90 12 -120 55 -29 43 -24 58 27 73 50 15 91 15 170 -2
34 -7 62 -9 62 -5 0 4 -8 10 -17 13 -36 11 -180 25 -200 20 -15 -4 -33 6 -63
35 -44 41 -65 47 -42 11 11 -18 9 -20 -21 -20 -18 0 -37 4 -43 9 -5 5 -23 11
-40 14 -17 3 -39 9 -50 15 -10 5 -39 18 -64 28 -25 10 -53 24 -63 32 -17 15
-40 29 -83 53 -31 16 -64 81 -64 126 0 35 4 42 40 62 45 25 52 36 15 27 -16
-4 -36 1 -57 14 -35 21 -48 25 -48 12z"/>
<path d="M8314 7625 c-19 -14 -19 -14 3 -15 28 0 53 10 53 21 0 14 -34 11 -56
-6z"/>
<path d="M6210 7611 c0 -36 216 -141 290 -141 11 0 25 -10 31 -22 14 -29 65
-71 80 -66 6 2 -6 22 -27 43 -31 32 -39 48 -39 77 0 20 4 40 8 44 14 14 137
13 179 -2 50 -17 53 -17 39 0 -13 15 -107 32 -150 27 -13 -2 -21 1 -17 7 3 5
-4 19 -15 30 -23 25 -34 28 -26 8 3 -8 1 -17 -6 -20 -7 -2 -4 -5 6 -5 21 -1
23 -21 2 -21 -19 0 -55 -39 -49 -54 2 -6 0 -18 -5 -26 -8 -11 -14 -12 -33 -3
-13 7 -41 17 -63 24 -65 19 -151 66 -173 94 -24 30 -32 32 -32 6z"/>
<path d="M8210 7592 c-14 -9 -27 -19 -30 -22 -3 -3 -21 -14 -40 -24 -19 -10
-44 -27 -55 -36 -11 -9 -28 -20 -38 -23 -10 -4 -15 -12 -12 -18 5 -7 14 -5 28
6 12 8 32 20 45 25 12 5 33 19 45 31 12 11 43 32 70 45 26 13 47 27 47 29 0
11 -37 3 -60 -13z"/>
<path d="M8265 7530 c-16 -4 -39 -12 -50 -18 -11 -6 -40 -20 -65 -31 -43 -20
-102 -60 -88 -61 4 0 48 20 99 45 51 25 100 45 110 45 16 0 36 17 28 24 -2 1
-17 0 -34 -4z"/>
<path d="M6817 7509 c7 -7 15 -10 18 -7 3 3 -2 9 -12 12 -14 6 -15 5 -6 -5z"/>
<path d="M8107 7402 c-59 -30 -105 -57 -102 -60 6 -6 102 35 125 54 8 7 39 20
67 29 29 10 50 21 47 26 -9 14 -23 9 -137 -49z"/>
<path d="M6065 7440 c3 -5 8 -10 11 -10 2 0 4 5 4 10 0 6 -5 10 -11 10 -5 0
-7 -4 -4 -10z"/>
<path d="M6280 7430 c0 -5 5 -10 11 -10 5 0 7 5 4 10 -3 6 -8 10 -11 10 -2 0
-4 -4 -4 -10z"/>
<path d="M7050 7430 c0 -5 7 -10 15 -10 8 0 15 5 15 10 0 6 -7 10 -15 10 -8 0
-15 -4 -15 -10z"/>
<path d="M6370 7405 c0 -7 34 -20 75 -29 l30 -7 -30 21 c-27 18 -75 28 -75 15z"/>
<path d="M8846 7381 c15 -14 143 -62 182 -68 25 -4 33 -3 28 5 -4 7 -14 12
-22 12 -17 0 -132 37 -156 51 -23 12 -45 12 -32 0z"/>
<path d="M8135 7348 c-27 -16 -74 -39 -105 -50 -30 -11 -64 -23 -75 -28 -11
-4 -29 -11 -39 -14 -10 -4 -17 -8 -15 -11 17 -16 309 103 309 126 0 16 -24 8
-75 -23z"/>
<path d="M5565 7360 c4 -6 10 -8 14 -6 7 5 129 -13 241 -34 142 -28 170 -34
237 -51 40 -11 75 -19 77 -19 3 0 11 -13 19 -29 14 -28 14 -30 -9 -35 -13 -4
-35 -4 -49 0 -15 4 -25 2 -25 -4 0 -6 19 -15 43 -19 29 -6 45 -15 52 -31 5
-12 18 -22 28 -22 16 0 17 2 4 20 -10 15 -12 32 -7 62 8 41 25 58 67 68 14 3
20 9 15 17 -5 8 -18 6 -46 -8 -39 -19 -40 -19 -125 5 -130 37 -217 58 -253 61
-18 1 -68 10 -111 19 -90 18 -182 21 -172 6z"/>
<path d="M6490 7362 c0 -10 44 -32 65 -32 8 0 15 4 15 9 0 9 -8 12 -62 27 -10
3 -18 1 -18 -4z"/>
<path d="M6596 7358 c-28 -16 -17 -27 17 -17 54 15 154 -5 215 -43 37 -22 52
-20 25 4 -48 41 -217 78 -257 56z"/>
<path d="M8792 7288 c3 -7 15 -14 29 -16 24 -4 24 -3 4 12 -24 19 -38 20 -33
4z"/>
<path d="M8970 7270 c-102 -5 -107 -14 -15 -23 46 -5 145 12 145 24 0 5 -6 8
-12 7 -7 -1 -60 -4 -118 -8z"/>
<path d="M8075 7240 c-27 -11 -64 -19 -82 -20 -17 0 -35 -4 -38 -10 -3 -5 -24
-10 -45 -10 -21 0 -42 -5 -46 -11 -16 -26 213 25 275 61 28 16 -9 10 -64 -10z"/>
<path d="M8973 7217 c-68 -10 -85 -18 -65 -31 15 -9 155 19 160 32 2 6 -2 11
-10 10 -7 -1 -46 -6 -85 -11z"/>
<path d="M8790 7200 c37 -12 92 -12 85 0 -3 6 -30 10 -58 9 -41 -1 -47 -3 -27
-9z"/>
<path d="M8080 7193 c-8 -3 -19 -12 -23 -19 -4 -8 -16 -14 -25 -14 -9 -1 -28
-7 -42 -15 -22 -13 -23 -14 -5 -15 24 0 135 51 135 62 0 9 -18 9 -40 1z"/>
<path d="M8980 7170 c-8 -5 -31 -10 -50 -10 -19 0 -41 -4 -49 -9 -22 -14 18
-22 62 -12 34 8 50 0 28 -13 -5 -3 -7 -15 -4 -26 3 -11 9 -17 14 -14 5 3 9 0
9 -6 0 -7 -9 -14 -20 -17 -23 -6 -27 -23 -5 -23 8 0 15 4 15 9 0 5 9 13 20 16
14 4 20 15 20 35 0 16 5 32 10 35 6 3 10 15 10 26 0 21 -33 26 -60 9z"/>
<path d="M8820 7140 c20 -13 40 -13 40 0 0 6 -12 10 -27 10 -22 0 -25 -2 -13
-10z"/>
<path d="M7832 7118 c-9 -4 10 -7 43 -7 33 0 67 4 75 9 17 12 -88 10 -118 -2z"/>
<path d="M6420 7110 c0 -5 6 -10 13 -11 6 0 31 -2 55 -5 52 -7 57 11 5 20 -54
8 -73 7 -73 -4z"/>
<path d="M8900 7110 c0 -5 11 -10 25 -10 14 0 25 5 25 10 0 6 -11 10 -25 10
-14 0 -25 -4 -25 -10z"/>
<path d="M8025 7095 l-30 -13 27 -1 c32 -1 58 8 58 20 0 13 -20 10 -55 -6z"/>
<path d="M8743 7087 c4 -13 114 -10 137 4 10 5 -13 8 -63 8 -51 -1 -77 -5 -74
-12z"/>
<path d="M5797 7084 c-2 -2 -35 -7 -73 -9 -64 -5 -182 -30 -193 -40 -7 -8 19
-5 114 10 118 20 423 31 495 17 39 -7 59 -7 68 0 10 8 21 3 45 -19 34 -32 77
-51 77 -34 0 5 -10 13 -21 16 -12 4 -34 20 -49 35 l-28 28 -215 0 c-119 0
-218 -2 -220 -4z"/>
<path d="M7905 7073 c-16 -3 -34 -8 -40 -13 -5 -4 -36 -11 -68 -15 -34 -4 -55
-11 -50 -16 9 -9 76 0 181 23 89 19 73 35 -23 21z"/>
<path d="M8865 7063 c-33 -8 -77 -15 -97 -16 -38 -2 -49 -11 -25 -20 26 -10
179 23 202 44 12 12 -6 10 -80 -8z"/>
<path d="M5485 7030 c-3 -5 1 -10 9 -10 9 0 16 5 16 10 0 6 -4 10 -9 10 -6 0
-13 -4 -16 -10z"/>
<path d="M8888 7017 c-36 -21 -48 -37 -29 -37 17 0 91 47 84 53 -9 10 -14 9
-55 -16z"/>
<path d="M8974 7005 c-20 -19 -43 -35 -50 -35 -8 0 -14 -4 -14 -10 0 -5 -12
-13 -27 -16 -16 -4 -38 -15 -51 -25 -13 -10 -36 -21 -52 -24 -17 -4 -30 -11
-30 -17 0 -6 8 -7 18 -3 9 4 31 12 47 18 72 25 215 120 215 141 0 15 -22 3
-56 -29z"/>
<path d="M7050 7020 c0 -6 47 -10 118 -9 115 0 275 -23 299 -43 6 -5 38 -12
70 -15 46 -4 56 -3 46 7 -6 7 -33 15 -60 17 -26 2 -50 8 -53 12 -3 4 -25 11
-50 14 -25 4 -67 11 -95 16 -67 13 -275 14 -275 1z"/>
<path d="M9036 7014 c-11 -28 -6 -39 9 -20 8 11 15 23 15 28 0 14 -18 9 -24
-8z"/>
<path d="M6153 7013 c-13 -2 -23 -9 -23 -15 0 -12 49 -2 65 13 9 9 -1 10 -42
2z"/>
<path d="M6375 6986 c35 -17 85 -21 85 -6 0 6 -15 10 -32 10 -18 0 -44 3 -58
5 -22 5 -21 3 5 -9z"/>
<path d="M9070 6992 c0 -8 -56 -76 -77 -94 -4 -4 -23 -21 -40 -37 -18 -17 -53
-42 -78 -56 -44 -26 -58 -45 -32 -45 20 0 194 152 222 193 28 42 29 47 15 47
-5 0 -10 -4 -10 -8z"/>
<path d="M6855 6962 c-22 -2 -44 -8 -50 -14 -7 -7 17 -8 75 -4 47 3 109 5 139
5 30 1 52 3 49 6 -6 6 -159 11 -213 7z"/>
<path d="M8994 6958 c-7 -6 -25 -23 -42 -39 -17 -16 -35 -29 -40 -29 -5 0 -15
-7 -22 -15 -7 -9 -27 -21 -44 -29 -17 -7 -42 -18 -56 -24 -17 -7 -19 -11 -8
-11 41 -2 165 71 221 130 25 27 18 43 -9 17z"/>
<path d="M7103 6953 c9 -2 25 -2 35 0 9 3 1 5 -18 5 -19 0 -27 -2 -17 -5z"/>
<path d="M7175 6953 c16 -16 105 -34 128 -26 18 6 14 8 -23 14 -25 3 -61 10
-80 14 -23 5 -32 4 -25 -2z"/>
<path d="M6206 6934 c-9 -8 -16 -27 -16 -42 0 -23 2 -24 14 -12 13 15 31 70
22 70 -3 0 -12 -7 -20 -16z"/>
<path d="M9059 6898 c-63 -74 -126 -133 -165 -154 -19 -10 -34 -22 -34 -26 0
-15 27 -8 51 13 13 11 36 27 50 34 14 8 42 33 61 57 20 24 50 58 67 77 17 19
31 38 31 43 0 19 -21 5 -61 -44z"/>
<path d="M9111 6872 c-41 -62 -71 -100 -96 -123 -5 -5 -30 -27 -55 -49 -65
-57 -36 -49 37 10 63 51 123 126 123 154 0 8 8 20 19 25 18 10 36 51 23 51 -4
0 -27 -31 -51 -68z"/>
<path d="M6300 6900 c0 -10 4 -11 60 -14 41 -2 60 3 60 15 0 5 -27 9 -60 9
-33 0 -60 -4 -60 -10z"/>
<path d="M6445 6900 c-7 -11 19 -20 34 -10 9 5 7 9 -8 13 -12 3 -23 2 -26 -3z"/>
<path d="M6504 6899 c-3 -5 14 -9 37 -9 23 0 39 3 36 6 -10 11 -67 13 -73 3z"/>
<path d="M9173 6884 c-13 -14 -23 -29 -23 -34 0 -20 -74 -127 -107 -154 -54
-44 -66 -56 -60 -62 17 -18 161 135 173 183 4 12 10 23 14 23 4 0 11 11 14 25
4 14 11 25 16 25 6 0 10 5 10 10 0 17 -14 11 -37 -16z"/>
<path d="M9243 6898 c-7 -7 -13 -25 -15 -38 -9 -60 -56 -136 -116 -189 -63
-56 -80 -81 -39 -60 45 23 130 124 163 194 l33 70 -5 -45 c-3 -25 -7 -56 -10
-69 -6 -28 -68 -128 -95 -154 -32 -30 -21 -41 14 -15 60 46 99 128 112 238 1
8 5 26 9 39 6 17 5 22 -5 19 -8 -3 -19 2 -25 10 -8 12 -12 12 -21 0z"/>
<path d="M6750 6889 c-19 -5 -43 -6 -52 -3 -10 3 -18 0 -18 -6 0 -9 26 -10
103 -5 56 5 107 7 112 7 6 -1 38 -7 73 -13 34 -7 65 -9 69 -5 11 10 1 13 -67
20 -127 11 -185 13 -220 5z"/>
<path d="M6190 6853 c0 -14 19 -38 29 -38 5 0 18 -10 29 -23 17 -20 41 -28
142 -48 14 -3 61 4 105 17 44 12 101 25 127 29 73 10 71 24 -2 16 -77 -9 -151
-25 -164 -37 -23 -21 -143 2 -191 36 -15 11 -35 28 -44 38 -16 18 -31 22 -31
10z"/>
<path d="M6528 6843 c7 -3 16 -2 19 1 4 3 -2 6 -13 5 -11 0 -14 -3 -6 -6z"/>
<path d="M6700 6811 c0 -10 148 -23 164 -14 6 5 -1 10 -19 14 -45 10 -145 10
-145 0z"/>
<path d="M5670 6793 c-19 -2 -39 -9 -44 -14 -6 -5 -21 -10 -35 -10 -15 -1 -19
-3 -11 -5 8 -2 71 2 140 9 149 15 231 12 223 -9 -5 -15 5 -18 31 -8 9 3 13 11
9 17 -4 6 4 8 22 3 31 -8 209 3 200 12 -6 7 -486 11 -535 5z"/>
<path d="M6475 6695 c-33 -7 -85 -20 -115 -30 -30 -9 -72 -19 -93 -22 -34 -5
-55 -18 -45 -28 4 -4 69 10 98 22 8 3 24 7 35 9 11 1 55 12 99 23 48 13 110
21 159 21 44 0 77 3 73 7 -12 12 -149 11 -211 -2z"/>
<path d="M6105 6643 c-11 -3 -24 -9 -29 -14 -6 -5 -20 -9 -33 -9 -13 0 -23 -5
-23 -11 0 -7 9 -9 23 -5 12 4 51 14 86 21 35 8 66 17 69 20 6 6 -65 5 -93 -2z"/>
<path d="M6405 6607 c-27 -4 -54 -12 -59 -18 -6 -5 -19 -9 -30 -9 -24 0 -53
-16 -45 -24 3 -3 40 6 82 19 43 14 102 25 132 25 30 0 56 4 59 9 7 11 -71 10
-139 -2z"/>
<path d="M5971 6599 c-13 -5 -22 -12 -19 -15 8 -8 58 7 58 17 0 11 -8 11 -39
-2z"/>
<path d="M5908 6583 c-10 -2 -18 -9 -18 -14 0 -15 43 -7 48 9 4 12 0 13 -30 5z"/>
<path d="M5845 6550 c-3 -5 -2 -10 4 -10 5 0 13 5 16 10 3 6 2 10 -4 10 -5 0
-13 -4 -16 -10z"/>
<path d="M6386 6531 c-3 -5 -32 -12 -63 -15 -71 -8 -154 -26 -168 -36 -5 -4
-27 -13 -47 -19 -21 -7 -38 -17 -38 -22 0 -11 29 -4 70 16 23 11 70 22 130 30
14 2 45 9 70 15 25 6 55 14 68 17 12 3 22 9 22 14 0 12 -37 12 -44 0z"/>
<path d="M6030 6420 c0 -5 4 -10 9 -10 6 0 13 5 16 10 3 6 -1 10 -9 10 -9 0
-16 -4 -16 -10z"/>
<path d="M6205 6421 c-6 -4 -28 -13 -50 -19 -54 -14 -199 -65 -205 -72 -3 -3
-16 -11 -30 -18 -67 -35 -84 -46 -73 -49 6 -2 22 2 35 10 13 8 34 18 48 22 14
4 57 22 95 40 39 17 104 42 145 55 82 25 109 40 69 40 -14 0 -29 -4 -34 -9z"/>
<path d="M6066 6313 c-11 -3 -36 -15 -55 -27 -20 -12 -63 -32 -96 -45 -33 -13
-76 -30 -95 -38 -46 -20 -130 -82 -130 -95 0 -6 15 0 33 13 38 28 87 53 217
109 128 55 160 72 160 82 0 8 -3 9 -34 1z"/>
<path d="M5893 6170 c-29 -15 -68 -33 -86 -39 -19 -6 -43 -20 -55 -31 -12 -11
-26 -20 -31 -20 -5 0 -16 -6 -23 -13 -30 -29 -97 -77 -106 -77 -6 0 -14 -5
-18 -12 -5 -8 2 -9 24 -5 39 8 41 -5 5 -28 -36 -24 -88 -73 -82 -79 3 -3 50
26 104 65 55 38 128 83 163 99 34 16 62 34 62 39 0 16 -26 13 -39 -3 -7 -8
-25 -18 -41 -21 -16 -3 -31 -13 -34 -22 -4 -9 -9 -13 -12 -10 -4 3 -25 -3 -48
-15 -40 -20 -41 -20 -20 0 11 11 35 27 53 36 18 10 34 23 37 31 5 13 65 45
177 94 26 12 47 26 47 31 0 16 -22 11 -77 -20z"/>
<path d="M5425 5979 c-152 -24 -345 -80 -345 -100 0 -5 -6 -9 -13 -9 -7 0 -29
-9 -49 -19 -19 -11 -38 -18 -40 -15 -3 2 -24 -16 -47 -41 -40 -43 -44 -45 -84
-39 -23 3 -55 10 -70 16 -17 7 -115 11 -240 12 l-212 0 -95 -33 c-93 -31 -160
-60 -170 -72 -3 -3 -22 -14 -42 -24 -42 -19 -47 -30 -19 -44 24 -13 58 -63 37
-55 -8 3 -33 -4 -57 -15 -23 -12 -49 -21 -56 -21 -14 0 -90 -31 -125 -50 -10
-5 -23 -7 -31 -4 -8 3 -25 -4 -38 -15 l-24 -20 33 -31 c17 -17 32 -35 32 -39
0 -4 26 -21 58 -36 42 -22 75 -30 130 -33 39 -2 72 -8 72 -13 0 -5 -8 -9 -17
-9 -12 0 -14 -3 -6 -11 8 -8 20 -7 44 4 44 20 123 42 224 63 88 17 364 29 457
18 l59 -7 -16 -23 c-14 -22 -14 -24 4 -24 10 0 33 14 51 30 18 17 34 30 36 30
3 0 23 12 46 26 23 14 46 27 52 28 6 1 22 8 36 16 63 36 187 90 206 90 12 0
32 9 45 21 l24 20 -29 -6 c-15 -3 -41 -9 -57 -12 -16 -3 -29 -9 -29 -13 0 -5
-14 -12 -32 -15 -18 -4 -39 -11 -48 -16 -8 -5 -37 -18 -65 -30 -27 -11 -72
-32 -100 -46 -62 -31 -120 -26 -148 13 -18 24 -18 25 2 52 11 15 34 38 51 52
17 14 43 35 58 47 14 12 39 28 54 34 15 6 28 14 28 18 0 4 8 7 18 8 9 1 37 9
62 18 129 48 251 76 336 76 64 0 78 4 122 32 27 18 74 54 104 80 30 27 81 63
113 81 56 31 80 56 55 56 -11 0 -80 -43 -113 -70 -42 -35 -109 -80 -117 -80
-6 0 -10 -4 -10 -9 0 -5 -16 -19 -36 -32 -26 -15 -62 -24 -127 -31 -51 -4
-112 -13 -137 -19 -25 -5 -65 -15 -90 -21 -25 -5 -49 -14 -54 -19 -6 -5 -17
-9 -25 -9 -9 0 -29 -7 -44 -15 -34 -17 -62 -8 -96 31 l-24 27 34 28 c19 16 40
29 47 29 6 0 12 4 12 8 0 12 188 99 265 122 39 11 102 26 140 31 117 18 121
19 104 30 -7 5 -16 8 -19 7 -3 0 -27 -4 -55 -9z m-636 -236 c63 -13 80 -21
108 -52 35 -39 42 -61 18 -61 -8 0 -15 -5 -15 -10 0 -7 -31 -8 -87 -3 -99 8
-297 8 -390 0 -66 -5 -85 -8 -241 -33 l-103 -16 -21 22 c-30 32 -17 47 80 96
73 36 151 58 252 71 173 21 249 18 399 -14z m0 -151 c42 -9 50 -27 19 -43 -12
-7 -36 -25 -53 -40 -25 -24 -35 -28 -68 -22 -81 13 -282 0 -364 -24 -61 -17
-70 -27 -15 -18 84 14 249 26 326 23 78 -3 81 -4 78 -26 -3 -19 6 -27 52 -48
31 -14 56 -28 56 -30 0 -3 -30 -3 -67 0 -38 3 -138 6 -223 6 -127 0 -176 -4
-270 -24 -63 -13 -127 -29 -141 -34 -40 -16 -172 -6 -238 18 -63 24 -118 70
-106 90 12 20 167 89 226 101 30 6 77 17 104 25 60 16 211 40 315 49 41 4 77
9 79 11 7 6 252 -5 290 -14z"/>
<path d="M5530 5934 c0 -14 3 -14 15 -4 8 7 15 14 15 16 0 2 -7 4 -15 4 -8 0
-15 -7 -15 -16z"/>
<path d="M7917 5816 c-36 -36 -68 -74 -72 -85 -3 -12 -23 -30 -43 -40 -120
-61 -177 -97 -164 -105 4 -2 30 10 57 28 28 18 63 36 78 40 26 6 28 5 22 -16
-4 -13 -11 -27 -15 -33 -4 -5 -4 -32 -1 -60 5 -37 10 -49 21 -47 8 2 32 5 52
6 20 2 53 13 73 25 20 11 40 21 46 21 10 0 5 -117 -5 -127 -3 -3 -3 -16 0 -28
4 -15 -4 -31 -25 -54 -17 -18 -31 -37 -31 -42 0 -4 -9 -13 -20 -19 -11 -6 -19
-14 -17 -18 3 -11 -63 -112 -74 -112 -5 0 -9 -8 -9 -17 0 -14 7 -11 28 13 52
59 97 117 102 130 3 7 20 29 38 49 27 28 41 35 71 35 36 0 82 18 131 53 34 24
40 22 40 -13 0 -23 -6 -33 -24 -40 -14 -5 -44 -37 -67 -72 -23 -35 -46 -64
-51 -66 -4 -2 -8 -8 -8 -14 0 -6 -12 -23 -27 -38 -16 -15 -52 -53 -82 -84 -30
-31 -58 -56 -62 -56 -4 0 -20 -11 -34 -25 -27 -24 -104 -43 -124 -30 -6 3 -11
13 -11 21 0 8 -4 14 -9 14 -4 0 -7 38 -5 85 2 47 0 85 -5 85 -11 0 -19 -58
-17 -122 1 -40 -2 -48 -16 -48 -10 0 -26 -10 -36 -22 -49 -60 -201 -206 -223
-213 -13 -4 -27 -12 -30 -17 -7 -11 -69 -27 -137 -35 -37 -4 -46 -1 -67 21
-35 37 -31 63 18 145 23 39 51 88 62 108 11 20 29 41 40 47 10 6 24 16 31 21
6 6 30 21 52 35 23 14 42 28 42 33 0 16 -23 6 -63 -27 -105 -85 -261 -140
-348 -122 -52 11 -65 30 -43 61 8 10 14 25 14 31 0 37 102 143 178 185 21 11
62 33 92 50 30 16 60 36 66 44 8 11 23 13 55 9 l44 -6 -108 -110 c-110 -113
-140 -160 -45 -72 70 64 168 167 168 175 0 4 7 12 15 19 11 9 15 9 15 1 0 -7
5 -9 12 -5 8 5 9 2 4 -12 -5 -10 -14 -40 -21 -66 -7 -25 -16 -52 -21 -60 -11
-18 -5 -49 13 -70 12 -13 31 -18 70 -18 29 0 53 -3 53 -6 0 -11 -105 -114
-116 -114 -7 0 -24 -17 -40 -37 -16 -21 -39 -48 -53 -60 -13 -13 -18 -23 -12
-23 17 0 110 86 224 209 47 50 93 81 120 81 8 0 43 27 77 60 34 33 57 60 51
60 -6 0 -20 -9 -31 -20 -11 -11 -23 -20 -26 -20 -3 0 -29 -16 -58 -35 -60 -40
-163 -78 -172 -63 -3 5 -13 7 -21 4 -8 -3 -23 -1 -34 5 -17 9 -20 18 -16 57 2
26 13 68 25 94 18 38 33 53 86 82 67 38 198 137 191 144 -5 5 -67 -18 -75 -28
-20 -23 -130 -108 -150 -116 -14 -5 -58 -9 -99 -9 -95 0 -107 14 -72 79 25 48
72 106 86 106 5 0 18 9 29 19 62 57 182 110 267 117 94 9 98 24 5 24 -41 0
-77 -4 -80 -9 -3 -5 -23 -12 -43 -16 -21 -4 -65 -25 -98 -47 -33 -22 -65 -41
-70 -42 -30 -5 -125 -120 -125 -151 0 -6 -5 -16 -12 -23 -7 -7 -13 -20 -14
-30 0 -9 -1 -32 -2 -49 -2 -24 -7 -33 -19 -33 -25 0 -187 -85 -219 -115 -6 -5
-21 -17 -33 -25 -11 -8 -21 -20 -21 -27 0 -6 -6 -16 -13 -20 -32 -20 -77 -98
-77 -134 0 -32 4 -39 33 -52 56 -27 127 -27 203 -1 38 12 69 22 70 21 1 -1
-13 -24 -32 -52 -19 -27 -46 -73 -59 -100 -21 -44 -23 -56 -14 -88 17 -64 86
-79 194 -42 39 13 72 22 73 20 2 -2 -5 -29 -17 -60 -12 -31 -21 -63 -21 -72 0
-9 -12 -29 -27 -45 -70 -73 -143 -141 -167 -153 -14 -7 -38 -20 -53 -28 -69
-35 -176 -63 -281 -74 -36 -3 -59 -10 -54 -15 12 -12 182 15 261 42 83 28 192
93 248 148 42 42 45 43 58 26 9 -13 10 -23 4 -31 -31 -36 137 -51 201 -18 42
22 85 52 120 83 54 50 56 49 57 -44 1 -46 -3 -86 -7 -89 -9 -5 6 -90 22 -121
12 -25 48 -44 82 -44 32 0 90 25 122 53 37 32 110 128 119 157 10 33 46 104
55 110 7 5 46 165 57 238 3 18 9 35 14 38 5 3 9 13 9 23 0 15 13 26 63 49 12
6 1 -96 -28 -264 -14 -81 -25 -154 -24 -163 1 -16 27 64 35 109 22 116 28 140
35 140 5 0 9 -8 9 -18 0 -39 29 -62 76 -62 l46 0 -7 -77 c-4 -43 -11 -86 -16
-95 -5 -9 -9 -28 -9 -42 0 -14 -4 -27 -9 -30 -5 -3 -12 -18 -16 -33 -8 -36
-82 -150 -109 -168 -47 -33 -105 -7 -141 65 -14 27 -16 50 -12 112 5 80 -6
107 -17 41 -16 -100 8 -196 61 -250 37 -37 70 -42 95 -15 9 9 31 31 50 49 39
37 98 144 98 179 0 13 4 24 9 24 5 0 12 17 15 38 14 80 18 91 34 95 14 4 13 5
-3 6 -17 1 -18 3 -5 11 10 7 11 12 4 18 -6 4 -9 26 -6 50 4 38 10 48 51 77 25
19 52 43 59 54 18 30 32 26 32 -9 0 -16 4 -30 8 -30 5 0 6 20 2 45 -8 50 7 84
30 70 10 -6 12 -3 8 13 -4 13 7 53 27 99 35 79 38 121 4 59 -10 -20 -19 -41
-19 -46 0 -6 -15 -35 -34 -64 -18 -29 -36 -62 -40 -72 -10 -32 -111 -124 -136
-124 -12 0 -30 -5 -41 -10 -28 -16 -67 14 -79 60 -9 33 -14 145 -10 203 1 14
71 165 111 240 6 11 8 22 4 25 -9 9 -42 -37 -56 -76 -45 -133 -156 -281 -243
-323 -48 -23 -54 -23 -94 -4 -47 24 -62 88 -47 200 6 49 14 67 44 100 21 22
55 67 78 100 48 71 92 117 104 109 5 -3 9 -16 9 -28 0 -43 24 -52 88 -32 31
10 64 24 72 31 8 7 24 15 35 17 17 2 20 -3 22 -37 1 -22 2 -48 2 -57 1 -10 8
-18 16 -18 12 0 12 5 5 26 -6 14 -10 49 -9 78 2 41 8 58 33 87 32 38 100 159
93 166 -6 6 -52 -58 -65 -92 -26 -65 -126 -146 -209 -171 -40 -12 -44 -12 -54
8 -7 13 -8 40 -3 77 4 31 9 63 9 72 1 9 25 45 54 80 28 35 51 67 51 71 0 19
-19 5 -43 -29 -35 -53 -122 -139 -160 -159 -78 -40 -154 -34 -143 11 3 12 8
39 12 59 10 63 32 103 76 135 23 17 47 31 53 31 5 0 16 10 24 22 14 22 14 22
-12 5 -169 -110 -329 -170 -340 -126 -3 9 -1 23 4 30 5 8 9 24 9 36 0 12 6 26
13 30 7 4 28 35 47 68 19 33 60 83 90 112 33 33 48 53 38 53 -9 0 -45 -29 -81
-64z m4 -813 c0 -10 0 -39 -1 -64 -2 -66 16 -125 46 -148 l25 -20 -25 -40
c-15 -22 -26 -45 -26 -50 0 -4 -10 -30 -22 -57 -12 -27 -23 -51 -23 -54 -1 -3
-9 -23 -18 -44 -15 -33 -16 -60 -3 -45 10 11 75 149 86 184 7 22 19 49 26 60
8 11 14 27 14 37 0 14 8 18 33 18 17 0 52 9 76 20 49 23 55 24 46 10 -3 -5
-14 -44 -25 -87 -22 -87 -39 -133 -49 -133 -4 0 -8 -17 -8 -37 -1 -21 -11 -55
-22 -76 -17 -34 -33 -54 -102 -126 -67 -70 -122 -92 -164 -65 -46 30 -50 59
-41 309 1 27 11 55 34 87 17 26 32 49 32 52 0 4 16 29 35 56 36 51 43 70 25
70 -5 0 -21 -21 -36 -47 -56 -98 -114 -180 -164 -230 -28 -29 -53 -53 -56 -53
-3 0 -22 -14 -43 -30 -47 -38 -106 -56 -127 -40 -7 7 -21 10 -29 6 -10 -3 -25
4 -40 20 -20 21 -22 30 -14 46 6 11 9 22 6 24 -2 2 1 23 8 47 40 145 34 134
158 259 65 65 125 118 133 118 7 0 18 -9 24 -19 8 -16 18 -19 53 -15 59 7 74
12 121 45 48 33 56 35 57 12z"/>
<path d="M7650 4848 c-48 -49 -85 -98 -74 -98 4 0 -5 -12 -20 -26 -14 -15 -26
-36 -26 -48 0 -19 1 -19 17 4 9 14 23 30 29 35 15 12 126 175 120 175 -3 0
-24 -19 -46 -42z"/>
<path d="M7850 4450 c-6 -11 -8 -20 -6 -20 3 0 10 9 16 20 6 11 8 20 6 20 -3
0 -10 -9 -16 -20z"/>
<path d="M5655 5829 c-31 -32 -146 -131 -186 -161 -13 -10 -29 -18 -36 -18 -7
0 -13 -4 -13 -10 0 -5 2 -10 5 -10 24 0 140 80 178 124 10 11 39 34 65 51 25
16 47 36 50 43 7 23 -33 11 -63 -19z"/>
<path d="M5706 5749 c-15 -15 -16 -19 -5 -19 16 0 39 19 39 32 0 13 -14 8 -34
-13z"/>
<path d="M5666 5705 c-8 -8 -18 -15 -23 -15 -5 0 -16 -9 -26 -20 -9 -11 -23
-20 -31 -20 -8 0 -16 -4 -18 -8 -1 -4 -36 -29 -75 -56 -70 -45 -93 -66 -76
-66 32 1 301 199 271 200 -4 0 -13 -7 -22 -15z"/>
<path d="M5737 5670 c-9 -11 -24 -20 -32 -20 -8 0 -15 -7 -15 -15 0 -18 4 -19
22 -2 8 6 22 17 33 23 20 11 32 34 18 34 -5 0 -16 -9 -26 -20z"/>
<path d="M5341 5597 c-19 -11 -29 -23 -23 -25 12 -4 68 23 77 38 10 16 -17 10
-54 -13z"/>
<path d="M5636 5588 c-13 -13 -39 -34 -56 -48 -17 -14 -42 -34 -54 -45 -13
-11 -45 -33 -71 -48 -26 -15 -45 -30 -42 -34 11 -10 217 130 217 147 0 4 9 10
20 13 11 3 20 12 20 21 0 21 -4 20 -34 -6z"/>
<path d="M5731 5553 c-69 -71 -121 -113 -137 -113 -7 0 -14 -3 -16 -7 -5 -12
-66 -53 -78 -53 -5 0 -10 -4 -10 -8 0 -9 -52 -33 -112 -52 -40 -12 -60 -30
-33 -30 8 0 23 4 33 9 9 5 41 19 71 31 99 40 322 206 352 262 20 36 -14 17
-70 -39z"/>
<path d="M7610 5569 c0 -5 5 -7 10 -4 6 3 10 8 10 11 0 2 -4 4 -10 4 -5 0 -10
-5 -10 -11z"/>
<path d="M5792 5469 c-70 -68 -80 -79 -64 -79 15 0 156 137 146 142 -5 3 -42
-25 -82 -63z"/>
<path d="M5360 5500 c-13 -8 -13 -10 2 -10 9 0 20 5 23 10 8 13 -5 13 -25 0z"/>
<path d="M8705 5455 c-60 -145 -85 -192 -123 -229 -36 -37 -85 -51 -133 -41
-39 9 -39 -16 0 -50 l29 -26 -19 -61 c-11 -33 -22 -74 -25 -91 -3 -18 -19 -70
-35 -117 -42 -117 -45 -131 -17 -85 13 22 32 67 42 100 10 33 26 85 36 115 18
55 35 139 32 152 -1 4 15 16 36 27 21 11 50 31 63 45 33 35 42 33 62 -13 10
-22 34 -57 55 -79 31 -34 42 -40 65 -35 21 4 27 2 28 -13 0 -18 1 -17 8 1 5
11 7 23 5 27 -4 7 68 88 78 88 3 0 8 -10 11 -22 4 -12 9 -19 13 -15 4 3 -1 24
-9 46 -15 35 -15 45 -2 89 24 79 34 172 19 172 -7 0 -10 -8 -7 -20 3 -11 0
-26 -6 -33 -6 -8 -12 -36 -14 -63 -6 -92 -86 -214 -140 -214 -20 0 -34 11 -57
45 -17 25 -28 45 -23 45 4 0 2 5 -5 12 -14 14 -16 84 -4 92 13 8 64 164 59
179 -3 6 -12 -6 -22 -28z"/>
<path d="M5920 5463 c0 -8 -36 -45 -96 -100 -40 -36 -62 -51 -96 -66 -29 -12
-40 -34 -12 -23 50 19 234 168 234 189 0 4 -7 7 -15 7 -8 0 -15 -3 -15 -7z"/>
<path d="M7709 5408 c-12 -23 -12 -23 10 -4 23 21 26 26 11 26 -5 0 -15 -10
-21 -22z"/>
<path d="M5949 5349 c-41 -39 -99 -85 -129 -102 -30 -18 -64 -37 -75 -44 -11
-7 -32 -17 -47 -24 -30 -12 -40 -33 -11 -22 30 12 118 53 133 63 8 6 24 14 36
19 45 20 185 163 172 177 -3 2 -38 -28 -79 -67z"/>
<path d="M7872 5387 c-18 -18 -30 -36 -26 -39 9 -10 74 41 74 58 0 21 -12 16
-48 -19z"/>
<path d="M5659 5358 c-30 -27 -56 -45 -86 -58 -24 -10 -31 -30 -12 -30 6 0 16
6 24 13 7 6 36 26 64 42 50 30 72 55 48 55 -7 0 -24 -10 -38 -22z"/>
<path d="M7665 5368 c-20 -12 -46 -41 -41 -46 2 -1 18 11 36 28 35 33 36 36 5
18z"/>
<path d="M9900 5375 c0 -13 54 -116 66 -126 12 -10 13 -8 8 7 -10 26 -65 124
-70 124 -2 0 -4 -2 -4 -5z"/>
<path d="M6075 5350 c-3 -5 1 -10 9 -10 8 0 18 5 21 10 3 6 -1 10 -9 10 -8 0
-18 -4 -21 -10z"/>
<path d="M5085 5296 c-90 -44 -108 -51 -146 -54 -8 -1 -24 -9 -35 -18 -18 -15
-18 -15 4 -9 12 4 32 8 45 9 55 7 247 86 247 101 0 14 -53 1 -115 -29z"/>
<path d="M5475 5320 c3 -5 8 -10 11 -10 2 0 4 5 4 10 0 6 -5 10 -11 10 -5 0
-7 -4 -4 -10z"/>
<path d="M6026 5305 c-15 -14 -25 -25 -22 -25 9 0 -57 -63 -91 -87 -18 -13
-37 -23 -43 -23 -5 0 -10 -3 -10 -7 0 -5 -23 -21 -50 -36 -28 -16 -50 -32 -50
-38 0 -16 -2 -18 135 70 43 27 48 31 124 105 28 27 51 53 51 58 0 15 -17 8
-44 -17z"/>
<path d="M5415 5301 c-22 -8 -42 -17 -45 -20 -9 -10 -200 -109 -265 -138 -80
-36 -177 -53 -298 -55 -122 -1 -157 5 -157 29 0 23 39 83 77 120 18 17 33 34
33 37 0 12 -29 6 -37 -8 -10 -17 -67 -43 -113 -51 -19 -3 -44 -10 -55 -15 -11
-5 -40 -18 -65 -28 -25 -11 -64 -28 -87 -38 -24 -10 -43 -21 -43 -26 0 -4 -8
-8 -18 -8 -10 0 -27 -7 -40 -15 -12 -9 -52 -32 -89 -51 -88 -46 -165 -90 -179
-102 -12 -11 -70 -8 -152 7 -50 9 -112 43 -112 61 0 4 -11 11 -25 14 -54 14
-38 84 25 108 28 10 180 98 180 104 0 1 -32 -11 -72 -27 -44 -19 -81 -29 -97
-26 -64 13 -377 -27 -491 -62 -19 -6 -51 -11 -70 -11 -20 0 -40 -4 -46 -9 -8
-8 -34 -14 -194 -46 -36 -8 -94 -21 -130 -30 -36 -8 -87 -20 -115 -25 -46 -9
-74 -17 -195 -52 -25 -7 -52 -11 -60 -10 -8 2 -30 -1 -50 -7 -171 -51 -229
-56 -288 -25 -15 8 -37 14 -50 14 -13 0 -35 12 -49 26 l-27 27 35 28 c19 16
37 29 41 29 4 0 33 12 65 26 99 46 295 102 337 96 10 -1 70 7 135 18 165 28
551 78 651 84 47 3 117 8 155 11 39 3 90 7 114 9 24 2 132 -3 239 -10 107 -8
198 -12 200 -9 28 28 -540 48 -748 26 -189 -19 -372 -42 -430 -53 -30 -6 -75
-12 -100 -14 -25 -3 -79 -9 -120 -14 -41 -5 -78 -6 -82 -4 -17 11 -148 -20
-223 -52 -42 -18 -107 -34 -115 -29 -4 3 -13 -2 -20 -10 -7 -8 -21 -15 -32
-15 -10 0 -43 -18 -72 -40 -29 -22 -58 -40 -64 -40 -19 0 -24 -19 -9 -41 25
-34 79 -69 135 -85 54 -16 61 -34 13 -34 -15 0 -54 -9 -87 -21 -32 -11 -77
-26 -99 -32 -22 -7 -45 -15 -50 -19 -6 -3 -28 -9 -50 -13 -22 -4 -44 -11 -50
-15 -5 -4 -41 -14 -80 -24 -124 -30 -144 -36 -150 -46 -3 -5 6 -12 21 -16 16
-4 29 -2 33 5 4 6 32 16 62 21 30 6 80 20 110 31 29 12 70 25 89 29 19 5 87
24 150 43 203 60 403 109 498 122 29 4 80 16 115 27 94 29 317 84 582 143 162
35 299 58 430 70 39 4 73 9 77 11 4 3 9 1 11 -3 3 -5 -12 -26 -34 -48 -21 -22
-39 -46 -39 -55 0 -8 16 -28 36 -44 20 -15 32 -32 27 -36 -4 -4 -35 -13 -68
-19 -33 -7 -91 -19 -130 -27 -38 -8 -105 -21 -148 -29 -42 -8 -81 -16 -85 -19
-5 -3 -22 -7 -38 -10 -40 -7 -107 -23 -179 -42 -81 -21 -126 -31 -215 -47 -41
-8 -79 -15 -85 -17 -5 -1 -12 -1 -15 0 -13 7 -90 5 -90 -2 0 -4 5 -8 12 -8 8
0 8 -4 -2 -14 -15 -13 -115 -34 -197 -41 -23 -2 -50 -8 -60 -13 -10 -5 -38
-13 -63 -17 -25 -4 -61 -11 -80 -15 -19 -5 -78 -19 -130 -31 -52 -11 -104 -24
-115 -29 -11 -4 -65 -17 -120 -30 -55 -12 -107 -26 -115 -30 -9 -4 -38 -11
-66 -14 -53 -8 -83 -21 -72 -32 4 -3 44 3 90 14 46 11 110 26 143 32 33 7 74
18 90 25 17 7 53 17 80 21 68 10 159 29 335 71 36 9 85 18 109 20 24 3 75 13
115 24 118 32 339 84 391 93 11 1 34 6 50 10 87 21 199 47 270 61 44 9 105 23
135 31 99 25 272 54 304 50 49 -6 176 -39 176 -45 0 -4 -9 -13 -21 -21 -11 -8
-37 -30 -57 -47 -20 -18 -48 -33 -62 -34 -40 -1 -69 -8 -100 -24 -16 -8 -48
-17 -70 -18 -23 -2 -44 -8 -48 -14 -4 -6 -25 -14 -47 -18 -22 -4 -67 -16 -100
-28 -33 -11 -67 -21 -75 -22 -52 -7 -102 -19 -148 -36 -29 -10 -87 -26 -130
-35 -42 -8 -95 -22 -117 -30 -22 -8 -67 -21 -100 -29 -33 -7 -103 -25 -154
-39 -52 -14 -107 -26 -121 -26 -14 0 -30 -4 -36 -10 -5 -5 -36 -12 -69 -14
-33 -2 -89 -12 -125 -21 -36 -8 -92 -20 -125 -26 -33 -5 -67 -14 -75 -18 -8
-4 -35 -8 -59 -9 -24 -1 -62 -7 -84 -13 -22 -6 -63 -15 -91 -20 -28 -5 -71
-14 -96 -19 -25 -6 -67 -13 -95 -16 -27 -2 -61 -9 -75 -13 -55 -20 -327 -62
-395 -62 -16 1 -58 -6 -92 -15 -35 -9 -68 -12 -75 -7 -17 11 -62 12 -69 1 -3
-4 -62 -9 -131 -9 -97 -1 -131 2 -147 13 -19 13 -20 17 -6 28 8 7 15 18 15 24
0 13 35 46 49 46 4 0 16 9 26 20 10 11 24 20 32 20 7 0 13 4 13 9 0 9 191 105
251 126 20 8 51 20 67 29 17 9 64 23 103 31 46 10 91 28 123 49 28 18 59 36
69 39 9 4 17 11 17 17 0 13 -2 13 -36 -5 -16 -8 -39 -15 -51 -15 -12 0 -24 -4
-27 -9 -3 -4 -28 -11 -56 -15 -27 -4 -50 -12 -50 -18 0 -6 -3 -8 -6 -5 -4 4
-19 0 -33 -7 -14 -8 -51 -22 -81 -31 -30 -9 -62 -23 -70 -30 -8 -7 -31 -16
-50 -20 -42 -8 -110 -36 -110 -45 0 -4 -18 -15 -39 -25 -22 -10 -42 -24 -45
-31 -3 -8 -12 -14 -21 -14 -8 0 -15 -5 -15 -10 0 -6 -8 -13 -17 -17 -21 -7
-98 -67 -130 -101 -13 -12 -23 -33 -23 -46 0 -26 -22 -23 235 -30 98 -2 175 0
181 5 7 6 22 5 39 -1 19 -7 31 -7 40 0 7 6 44 13 81 15 38 3 80 7 94 10 14 3
57 9 95 15 114 15 127 18 212 39 45 12 92 21 105 21 22 0 217 36 549 101 86
16 178 32 205 34 27 2 92 16 144 30 52 14 133 35 180 46 110 27 177 45 275 76
44 14 116 34 160 44 44 11 109 29 145 40 36 11 94 28 130 39 36 11 95 29 131
40 74 23 129 32 129 21 0 -17 -26 -31 -57 -31 -23 0 -33 -5 -33 -15 0 -11 7
-14 25 -9 29 7 31 -2 10 -33 -13 -18 -13 -22 1 -34 9 -7 42 -15 75 -17 32 -2
59 -8 59 -13 0 -7 -80 -49 -93 -49 -3 0 -33 -16 -67 -35 -34 -19 -68 -35 -74
-35 -7 0 -31 -13 -54 -30 -22 -16 -54 -32 -69 -36 -15 -4 -30 -10 -33 -13 -7
-10 -157 -81 -169 -81 -6 0 -11 -3 -11 -7 0 -5 -21 -16 -48 -26 -68 -27 -149
-67 -189 -94 -19 -13 -40 -23 -48 -23 -8 0 -15 -4 -15 -10 0 -5 -8 -10 -17
-10 -10 -1 -36 -12 -58 -25 -22 -14 -47 -28 -55 -31 -8 -3 -36 -14 -62 -25
-26 -10 -54 -19 -62 -19 -9 0 -16 -3 -16 -8 0 -8 -33 -24 -90 -43 -19 -7 -40
-20 -47 -28 -6 -9 -14 -13 -18 -9 -4 3 -25 0 -47 -8 -22 -8 -49 -14 -59 -14
-10 0 -42 -11 -71 -24 -78 -34 -232 -95 -323 -128 -44 -15 -89 -32 -100 -37
-65 -30 -180 -73 -245 -92 -41 -12 -94 -28 -118 -36 -23 -7 -56 -13 -72 -13
-16 0 -31 -4 -34 -9 -11 -17 -216 -34 -226 -19 -3 4 -30 4 -60 -1 -32 -5 -66
-5 -84 1 -17 5 -36 11 -43 13 -16 5 0 54 28 83 11 12 19 24 19 27 -1 21 1 25
13 25 6 0 44 30 82 66 39 36 84 73 100 81 17 9 46 29 66 44 20 16 40 29 43 29
4 0 21 13 39 29 17 17 42 33 55 36 14 3 51 24 83 46 32 21 63 39 69 39 6 0 27
11 48 24 20 14 49 28 65 32 15 3 31 11 35 18 8 12 47 35 132 77 44 22 50 28
30 28 -14 1 -45 -10 -70 -24 -25 -14 -57 -30 -73 -36 -15 -6 -27 -16 -27 -23
0 -14 -55 -36 -89 -36 -16 0 -21 -4 -17 -15 4 -11 -1 -15 -18 -15 -13 0 -29
-7 -36 -15 -7 -8 -23 -15 -36 -15 -12 0 -29 -6 -36 -13 -7 -7 -21 -16 -30 -20
-10 -3 -18 -13 -18 -21 0 -10 -6 -13 -16 -9 -9 3 -33 -8 -59 -26 -24 -17 -48
-31 -53 -31 -6 0 -22 -13 -35 -30 -14 -16 -30 -30 -34 -30 -5 0 -24 -14 -41
-31 -18 -17 -32 -28 -32 -24 0 13 -54 -27 -115 -86 -33 -32 -84 -81 -112 -108
-40 -37 -53 -57 -53 -78 0 -53 -8 -51 230 -55 120 -2 161 2 240 20 159 37 446
130 521 168 27 13 54 24 60 24 7 0 30 9 53 19 23 11 68 29 101 41 33 12 105
41 160 65 55 23 127 48 159 55 33 7 87 26 120 42 72 35 106 50 166 74 25 10
68 27 95 39 28 12 75 33 105 46 30 13 70 34 89 46 19 13 39 23 45 23 6 0 36
13 66 28 30 16 129 65 220 111 91 46 172 87 180 92 85 49 138 78 200 109 25
13 59 33 75 45 23 17 50 23 115 28 47 4 105 10 130 13 l45 7 -27 -28 c-16 -15
-28 -32 -28 -36 0 -5 -8 -9 -18 -9 -9 0 -38 -15 -64 -33 -25 -18 -66 -42 -89
-52 -24 -11 -51 -26 -59 -34 -8 -7 -30 -20 -50 -28 -19 -8 -43 -22 -52 -30 -9
-8 -21 -12 -27 -9 -12 8 -41 -6 -63 -28 -8 -7 -34 -24 -59 -36 -24 -13 -57
-32 -72 -42 -16 -11 -49 -31 -75 -45 -26 -14 -51 -31 -55 -39 -4 -8 -12 -14
-17 -14 -9 0 -111 -61 -120 -71 -3 -4 -16 -10 -30 -14 -14 -4 -41 -21 -61 -36
-20 -16 -39 -29 -42 -29 -9 0 -141 -83 -191 -120 -26 -19 -82 -53 -125 -75
-43 -22 -85 -48 -95 -58 -10 -9 -23 -17 -29 -17 -7 0 -23 -9 -37 -20 -42 -33
0 -22 60 15 30 19 83 48 117 65 34 16 63 34 65 38 2 4 28 20 58 36 30 16 72
41 94 55 21 14 73 47 115 73 85 52 149 92 201 125 19 13 46 28 60 35 14 7 46
27 71 45 26 18 49 33 53 33 3 0 34 17 69 39 34 21 85 49 112 63 28 14 82 43
120 65 39 21 96 54 128 72 31 18 57 30 57 26 0 -8 -61 -98 -71 -105 -4 -3 -10
-17 -14 -32 -5 -21 -2 -29 15 -38 33 -18 120 -21 175 -6 28 8 70 17 95 21 43
7 44 7 30 -11 -8 -11 -20 -23 -26 -29 -6 -5 -24 -31 -41 -56 -26 -39 -30 -56
-32 -121 -1 -42 2 -79 7 -82 6 -3 43 -6 83 -7 79 0 144 18 251 71 31 16 58 26
61 24 2 -3 -6 -34 -19 -70 -24 -65 -29 -108 -18 -138 5 -12 20 -16 58 -16 90
1 160 23 295 96 58 32 64 31 57 -10 -10 -54 9 -117 45 -149 27 -25 37 -28 67
-22 20 4 59 22 88 41 28 19 54 34 58 34 4 0 43 31 86 69 43 38 88 74 99 81 18
9 21 8 21 -10 0 -32 28 -67 58 -73 61 -12 234 52 273 101 10 13 38 37 61 52
24 15 67 51 96 79 29 28 56 51 60 51 4 0 16 12 26 27 l19 26 -27 -7 c-15 -4
-40 -18 -54 -31 -15 -14 -29 -25 -32 -25 -3 0 -29 -22 -59 -50 -30 -27 -58
-50 -64 -50 -5 0 -19 -10 -31 -22 -33 -35 -109 -86 -139 -93 -15 -4 -30 -11
-33 -16 -16 -26 -124 8 -124 39 0 44 24 90 80 153 69 78 66 94 -4 22 -145
-152 -198 -200 -281 -263 -89 -68 -140 -87 -216 -82 -44 3 -69 87 -46 154 11
32 60 88 77 88 19 0 228 221 239 253 6 16 -62 -44 -102 -90 -17 -21 -41 -45
-52 -54 -11 -9 -32 -27 -46 -40 -14 -13 -48 -42 -74 -64 -27 -22 -54 -46 -61
-52 -7 -7 -15 -13 -18 -13 -3 0 -34 -17 -69 -39 -35 -21 -79 -42 -98 -46 -19
-4 -38 -11 -44 -15 -10 -8 -61 -13 -127 -11 -35 1 -38 3 -38 31 0 36 33 126
55 150 10 11 14 23 11 28 -3 5 29 28 72 52 67 37 213 140 250 177 7 7 17 13
20 13 12 0 63 50 110 108 68 81 25 64 -55 -23 -39 -41 -75 -75 -81 -75 -5 0
-21 -9 -34 -20 -41 -36 -202 -150 -211 -150 -5 0 -23 -10 -40 -22 -43 -31 -67
-45 -99 -59 -16 -6 -25 -15 -22 -20 3 -5 -4 -9 -15 -9 -22 0 -134 -35 -163
-51 -10 -5 -41 -9 -69 -9 -44 0 -55 4 -75 28 -13 15 -24 32 -24 38 0 6 14 38
30 72 17 34 30 67 30 72 0 5 14 25 30 43 17 19 30 39 30 44 0 5 19 16 43 23
51 17 208 97 296 151 34 21 65 39 68 39 8 0 158 118 191 150 17 18 32 29 32
24 0 -4 13 4 28 19 27 26 118 64 128 54 3 -3 -11 -30 -31 -59 -19 -30 -44 -78
-55 -106 -17 -45 -18 -53 -5 -66 17 -17 116 -12 150 8 11 6 47 22 80 36 33 13
87 39 119 57 62 36 79 37 49 5 -46 -50 -74 -90 -98 -139 -13 -29 -31 -53 -39
-53 -8 0 -38 -23 -68 -51 -29 -27 -65 -57 -80 -65 -16 -8 -28 -18 -28 -23 0
-5 -21 -29 -47 -54 -26 -26 -44 -50 -39 -54 4 -4 29 15 55 43 25 29 80 78 121
109 l75 57 3 -28 c2 -16 7 -33 12 -37 7 -8 128 17 160 33 8 5 35 16 59 26 25
10 62 33 84 51 21 18 42 33 46 33 3 0 17 10 31 23 14 12 45 38 70 57 68 52
205 195 242 251 18 28 46 57 65 66 36 17 46 38 12 28 -18 -6 -19 -5 -10 13 13
25 14 32 2 32 -5 0 -31 -33 -57 -72 -66 -101 -260 -298 -389 -396 -19 -15 -90
-49 -175 -85 -52 -22 -91 -27 -97 -11 -8 21 26 114 62 169 64 99 121 164 183
210 34 26 81 65 103 86 22 21 49 39 60 39 10 0 19 5 19 10 0 6 -4 10 -10 10
-5 0 2 16 15 37 44 64 16 50 -64 -34 -67 -70 -201 -183 -217 -183 -3 0 -12 -6
-19 -12 -8 -7 -21 -19 -30 -26 -8 -7 -72 -40 -142 -74 -103 -50 -138 -62 -178
-62 -48 -1 -50 0 -47 24 1 14 11 44 22 67 11 24 20 47 20 52 0 20 91 108 129
126 23 10 41 22 41 27 0 4 6 8 13 8 17 1 298 210 326 244 12 14 11 16 -5 16
-17 0 -71 -42 -135 -105 -9 -8 -19 -15 -23 -15 -4 0 -14 -6 -21 -12 -29 -27
-42 -35 -88 -62 -26 -16 -53 -36 -60 -46 -6 -9 -27 -21 -45 -24 -17 -4 -32
-11 -32 -16 0 -5 -13 -11 -30 -15 -16 -4 -32 -11 -35 -16 -4 -5 -14 -9 -23 -9
-9 0 -30 -7 -47 -17 -30 -16 -127 -24 -140 -11 -11 11 4 75 20 92 8 8 15 21
16 28 1 28 76 124 109 140 19 10 76 36 125 59 72 34 223 117 244 135 13 11 -9
9 -44 -5z m-755 -110 c0 -5 -11 -23 -25 -39 -14 -17 -28 -44 -31 -61 -6 -30
-5 -31 27 -32 42 -1 123 -9 127 -13 3 -4 -71 -31 -123 -46 -16 -4 -88 -29
-160 -55 -71 -25 -144 -51 -162 -56 -18 -5 -45 -16 -60 -24 -15 -8 -36 -15
-45 -15 -9 0 -20 -4 -23 -10 -3 -5 0 -10 8 -10 15 0 118 33 152 49 11 5 45 17
75 26 74 23 349 124 380 140 28 15 188 41 196 32 3 -3 -6 -23 -20 -46 -14 -22
-28 -49 -30 -58 -2 -10 -11 -35 -20 -57 -23 -52 -18 -100 12 -104 12 -2 22 -5
22 -7 0 -11 -13 -35 -20 -35 -4 0 -30 -22 -58 -50 -28 -27 -54 -50 -57 -50 -4
0 -21 -11 -38 -23 -18 -13 -52 -34 -77 -46 -25 -13 -47 -26 -50 -30 -6 -7 -43
-28 -169 -92 -51 -27 -99 -53 -105 -58 -6 -5 -28 -12 -48 -16 -21 -4 -38 -11
-38 -15 0 -8 -107 -30 -182 -37 -36 -4 -51 -1 -66 14 -20 18 -20 18 0 60 10
22 44 68 74 101 30 33 54 64 54 69 1 22 76 62 148 78 42 10 100 24 127 31 82
21 294 99 308 113 15 16 -7 11 -103 -25 -96 -35 -190 -64 -209 -64 -9 0 -21
-4 -26 -9 -31 -27 -339 -80 -485 -82 -109 -2 -165 18 -151 53 21 54 154 163
273 224 20 11 67 38 104 60 158 95 280 156 404 200 71 26 90 29 90 15z"/>
<path d="M4794 4844 c-18 -15 -18 -15 6 -10 14 3 28 6 33 6 4 0 7 5 7 10 0 15
-24 12 -46 -6z"/>
<path d="M4080 4810 c0 -12 27 -12 55 0 16 7 13 9 -17 9 -21 1 -38 -3 -38 -9z"/>
<path d="M6105 5257 c-130 -131 -123 -145 9 -19 52 49 80 81 69 80 -10 0 -45
-28 -78 -61z"/>
<path d="M10490 5295 c13 -14 27 -25 32 -25 4 0 -2 11 -14 25 -12 14 -26 25
-32 25 -5 0 1 -11 14 -25z"/>
<path d="M6197 5228 c-26 -28 -45 -53 -42 -57 4 -3 24 13 45 35 21 23 45 44
54 47 9 4 16 11 16 17 0 21 -27 6 -73 -42z"/>
<path d="M5483 5259 c-18 -5 -33 -14 -33 -19 0 -13 4 -12 51 2 22 6 39 15 39
20 0 10 -15 9 -57 -3z"/>
<path d="M5658 5263 c-10 -2 -18 -8 -18 -12 0 -4 -28 -15 -62 -25 -35 -10 -72
-21 -83 -26 -19 -7 -19 -8 -2 -15 18 -8 197 63 197 78 0 7 -4 7 -32 0z"/>
<path d="M6337 5223 c-4 -3 -7 -11 -7 -17 0 -6 5 -5 12 2 6 6 9 14 7 17 -3 3
-9 2 -12 -2z"/>
<path d="M8219 5198 c-8 -13 -25 -45 -39 -73 -14 -27 -31 -54 -37 -58 -7 -4
-13 -15 -13 -22 0 -8 -4 -15 -10 -15 -5 0 -10 -6 -10 -13 0 -7 -16 -36 -35
-65 -20 -28 -32 -52 -28 -52 18 1 212 320 194 320 -5 0 -15 -10 -22 -22z"/>
<path d="M5335 5180 c-39 -15 -224 -195 -212 -206 4 -5 43 27 142 117 11 10
38 34 60 53 41 35 45 49 10 36z"/>
<path d="M6280 5160 c-14 -16 -30 -30 -36 -30 -6 0 -19 -10 -30 -22 -11 -13
-39 -39 -62 -58 -23 -19 -42 -40 -42 -47 0 -18 76 35 91 63 7 14 22 27 34 30
25 6 102 94 83 94 -7 0 -24 -13 -38 -30z"/>
<path d="M6394 5143 c-52 -64 -101 -111 -144 -138 -19 -12 -41 -30 -49 -39 -7
-9 -19 -16 -26 -16 -6 0 -20 -9 -31 -21 -10 -12 -39 -32 -64 -45 -25 -13 -37
-23 -28 -24 19 0 138 68 138 80 0 4 11 12 25 18 35 16 32 1 -13 -66 -22 -31
-46 -73 -56 -92 -9 -20 -30 -51 -46 -69 -17 -18 -30 -37 -30 -42 0 -11 -171
-182 -243 -244 -55 -46 -155 -105 -179 -105 -22 0 -25 55 -5 85 25 36 47 115
33 115 -13 0 -46 -66 -46 -91 0 -9 -7 -24 -15 -35 -16 -21 -20 -81 -6 -102 23
-37 203 68 319 184 35 35 66 64 71 64 4 0 6 -37 5 -82 -4 -100 1 -122 30 -137
32 -18 100 1 134 35 15 16 37 36 48 45 42 36 84 93 75 102 -6 6 -30 -12 -63
-47 -93 -95 -158 -127 -187 -93 -16 21 -20 132 -6 192 7 34 26 71 47 97 39 49
103 141 102 148 0 3 19 33 43 68 24 35 43 71 43 80 0 9 29 46 65 82 65 65 112
127 103 136 -3 2 -23 -17 -44 -43z"/>
<path d="M6120 5143 c-21 -9 -43 -33 -37 -40 8 -8 57 25 57 37 0 6 -1 10 -2 9
-2 0 -10 -3 -18 -6z"/>
<path d="M5955 5120 c-10 -11 -43 -37 -74 -57 -30 -20 -50 -38 -43 -41 13 -4
162 97 162 110 0 15 -27 8 -45 -12z"/>
<path d="M6480 5103 c-18 -21 -73 -80 -122 -130 -50 -51 -85 -93 -78 -93 14 0
197 183 230 231 31 42 8 36 -30 -8z"/>
<path d="M6570 5089 c0 -5 5 -7 10 -4 6 3 10 8 10 11 0 2 -4 4 -10 4 -5 0 -10
-5 -10 -11z"/>
<path d="M6033 5072 c-35 -36 -153 -116 -195 -133 -16 -6 -28 -15 -28 -20 0
-5 2 -9 3 -9 6 0 70 30 87 41 8 5 31 18 51 28 48 27 137 111 116 111 -9 0 -24
-8 -34 -18z"/>
<path d="M5728 5073 c7 -3 16 -2 19 1 4 3 -2 6 -13 5 -11 0 -14 -3 -6 -6z"/>
<path d="M6640 5062 c0 -4 -18 -28 -40 -52 -40 -45 -47 -60 -31 -60 9 0 91
102 91 113 0 4 -4 7 -10 7 -5 0 -10 -4 -10 -8z"/>
<path d="M8660 5060 c0 -5 5 -10 10 -10 6 0 10 5 10 10 0 6 -4 10 -10 10 -5 0
-10 -4 -10 -10z"/>
<path d="M5685 5050 c-3 -5 1 -10 9 -10 9 0 16 5 16 10 0 6 -4 10 -9 10 -6 0
-13 -4 -16 -10z"/>
<path d="M6540 5045 c-7 -9 -8 -15 -2 -15 5 0 12 7 16 15 3 8 4 15 2 15 -2 0
-9 -7 -16 -15z"/>
<path d="M5484 4993 c-27 -21 -53 -41 -59 -45 -52 -42 -68 -58 -60 -58 10 0
84 46 95 59 3 3 24 19 47 35 24 16 40 32 37 37 -7 12 -6 13 -60 -28z"/>
<path d="M8786 5003 c-3 -16 -8 -50 -11 -78 -11 -96 -16 -140 -21 -167 -3 -16
-1 -28 5 -28 5 0 13 21 16 48 3 26 10 76 15 112 5 36 11 82 14 103 5 42 -10
51 -18 10z"/>
<path d="M6478 4983 c-52 -46 -60 -57 -48 -61 11 -4 63 42 86 76 21 32 10 27
-38 -15z"/>
<path d="M5785 5000 c-8 -13 5 -13 25 0 13 8 13 10 -2 10 -9 0 -20 -4 -23 -10z"/>
<path d="M6666 4978 c-22 -31 -21 -61 0 -33 9 11 20 28 25 38 14 25 -7 22 -25
-5z"/>
<path d="M6747 4963 c-6 -16 -16 -31 -22 -35 -5 -4 -6 -11 -1 -15 4 -4 14 1
21 12 8 11 19 25 25 32 13 16 13 33 0 33 -6 0 -16 -12 -23 -27z"/>
<path d="M8969 4988 c-1 -2 -6 -34 -13 -73 -9 -60 -14 -70 -33 -73 -19 -3 -20
-5 -8 -29 9 -18 11 -33 4 -50 -11 -31 -30 -66 -38 -73 -3 -3 -11 -14 -17 -25
-6 -10 -30 -30 -53 -43 -34 -19 -51 -22 -82 -17 -34 6 -60 28 -64 55 0 3 -6
14 -12 25 -6 11 -17 40 -24 65 -8 31 -14 39 -17 26 -9 -43 42 -172 78 -194 14
-9 30 -22 36 -29 10 -12 18 -10 50 8 22 11 46 27 55 35 8 8 26 14 38 14 17 0
21 4 16 19 -3 11 1 24 10 31 9 8 23 27 32 43 l15 30 34 -64 c19 -35 39 -74 46
-86 6 -13 17 -23 25 -23 10 0 5 13 -15 43 -15 23 -34 58 -42 77 -7 19 -17 39
-22 45 -10 11 -11 62 0 69 8 5 15 196 7 196 -3 0 -6 -1 -6 -2z"/>
<path d="M6504 4905 c-15 -13 -25 -28 -21 -32 4 -4 22 7 40 25 37 38 23 43
-19 7z"/>
<path d="M6840 4921 c0 -12 -76 -127 -104 -159 -12 -13 -38 -41 -58 -63 -42
-44 -47 -55 -20 -40 43 26 114 109 167 197 37 61 41 74 25 74 -5 0 -10 -4 -10
-9z"/>
<path d="M10000 4923 c0 -7 4 -16 82 -183 25 -52 53 -116 64 -142 10 -27 22
-48 27 -48 11 0 9 8 -22 74 -35 74 -43 96 -48 120 -2 10 -12 31 -23 46 -11 16
-20 33 -20 39 0 17 -43 101 -52 101 -4 0 -8 -3 -8 -7z"/>
<path d="M10260 4909 c7 -11 14 -18 17 -15 8 8 -5 36 -17 36 -7 0 -7 -6 0 -21z"/>
<path d="M6553 4845 c-40 -41 -67 -75 -60 -75 14 0 139 121 145 140 8 24 -18
4 -85 -65z"/>
<path d="M10450 4912 c0 -5 9 -17 20 -27 11 -10 20 -13 20 -7 0 6 -5 14 -10
17 -6 4 -8 11 -5 16 4 5 -1 9 -9 9 -9 0 -16 -4 -16 -8z"/>
<path d="M6350 4869 c-19 -17 -52 -38 -73 -47 -38 -17 -46 -40 -11 -34 17 4
144 98 144 108 0 13 -29 -1 -60 -27z"/>
<path d="M6700 4885 c0 -7 -6 -18 -13 -22 -6 -4 -27 -26 -46 -48 -19 -22 -73
-69 -120 -104 -47 -35 -88 -66 -90 -68 -2 -1 -2 -5 0 -7 4 -5 108 65 154 104
98 82 159 160 125 160 -5 0 -10 -7 -10 -15z"/>
<path d="M6917 4841 c-15 -22 -27 -44 -27 -48 0 -8 -102 -127 -113 -132 -4 -1
-16 -11 -25 -21 -9 -10 -42 -32 -72 -50 l-55 -31 64 60 c36 34 61 64 57 68 -4
4 -17 -4 -30 -17 -29 -32 -75 -68 -105 -83 -34 -17 -41 -41 -10 -33 23 7 23 7
5 -8 -17 -14 -17 -16 -3 -16 18 0 82 33 108 56 8 8 20 14 26 14 14 0 153 154
153 169 0 6 4 11 8 11 15 0 63 83 54 92 -5 5 -20 -8 -35 -31z"/>
<path d="M10300 4868 c0 -4 20 -38 45 -75 46 -69 58 -78 27 -20 -20 37 -72
106 -72 95z"/>
<path d="M10610 4867 c0 -18 87 -134 147 -196 35 -36 58 -56 51 -43 -7 12 -16
22 -19 22 -4 0 -21 23 -39 50 -18 28 -36 50 -41 50 -5 0 -15 12 -24 28 -17 32
-75 100 -75 89z"/>
<path d="M10960 4864 c0 -5 25 -40 55 -79 30 -38 69 -90 87 -114 18 -24 47
-58 63 -75 17 -18 38 -47 48 -66 10 -18 21 -30 25 -26 3 4 2 10 -3 14 -6 4
-15 18 -22 32 -12 27 -142 194 -190 245 -7 8 -13 17 -13 22 0 4 -12 19 -25 32
-14 13 -25 19 -25 15z"/>
<path d="M5624 4785 c-80 -81 -97 -113 -36 -68 41 30 131 124 132 136 0 21
-29 0 -96 -68z"/>
<path d="M6434 4839 c-27 -30 -130 -99 -148 -99 -8 0 -17 -4 -21 -10 -3 -5
-12 -7 -20 -4 -21 9 -137 -117 -122 -132 7 -7 66 48 89 83 9 14 33 32 52 38
74 26 242 144 205 145 -9 0 -24 -10 -35 -21z"/>
<path d="M9113 4830 c5 -31 17 -36 17 -7 0 15 -4 27 -10 27 -5 0 -9 -9 -7 -20z"/>
<path d="M7010 4810 c0 -5 5 -10 10 -10 6 0 10 5 10 10 0 6 -4 10 -10 10 -5 0
-10 -4 -10 -10z"/>
<path d="M9120 4778 c0 -7 5 -20 10 -28 8 -12 10 -9 10 13 0 15 -4 27 -10 27
-5 0 -10 -6 -10 -12z"/>
<path d="M6947 4698 c-56 -86 -65 -117 -17 -60 33 40 84 131 77 138 -3 3 -30
-32 -60 -78z"/>
<path d="M6435 4748 c-11 -6 -22 -14 -25 -17 -9 -11 -65 -47 -82 -54 -10 -3
-18 -11 -18 -17 0 -14 5 -13 43 13 19 12 52 33 75 47 53 32 59 58 7 28z"/>
<path d="M5927 4735 c-4 -8 -13 -15 -22 -15 -8 0 -15 -3 -15 -7 0 -5 -11 -21
-25 -37 -14 -17 -28 -40 -31 -53 -4 -13 -10 -23 -15 -23 -5 0 -9 -4 -9 -10 0
-19 15 -10 37 23 13 18 31 42 41 53 26 28 54 75 49 80 -2 3 -7 -2 -10 -11z"/>
<path d="M7085 4729 c-11 -17 1 -21 15 -4 8 9 8 15 2 15 -6 0 -14 -5 -17 -11z"/>
<path d="M8569 4689 c-2 -42 -1 -62 6 -149 4 -47 6 -94 5 -105 -6 -66 -4 -105
5 -105 11 0 13 171 3 294 -7 77 -17 112 -19 65z"/>
<path d="M10400 4703 c0 -5 14 -24 30 -43 35 -41 39 -34 8 15 -22 33 -38 45
-38 28z"/>
<path d="M3601 4670 c-24 -11 -51 -20 -62 -20 -10 0 -20 -4 -23 -9 -3 -5 -18
-12 -32 -15 -14 -4 -67 -26 -118 -50 -50 -24 -109 -51 -131 -60 -22 -10 -56
-25 -75 -33 -19 -9 -51 -23 -70 -31 -19 -8 -42 -18 -50 -22 -9 -4 -29 -10 -46
-14 -17 -4 -57 -20 -90 -36 -32 -17 -64 -30 -71 -30 -6 0 -26 -8 -45 -17 -59
-29 -68 -33 -78 -33 -6 0 -40 -13 -75 -30 -35 -16 -68 -30 -72 -30 -4 0 -21
-7 -38 -16 -16 -9 -37 -17 -45 -18 -20 -3 -45 -13 -100 -39 -25 -11 -67 -29
-94 -38 -26 -10 -63 -27 -82 -38 -18 -11 -48 -24 -66 -30 -70 -21 -259 -98
-271 -110 -23 -25 53 -1 248 76 105 42 195 79 200 83 17 13 158 71 162 66 2
-2 39 12 81 31 42 19 93 41 112 50 19 8 60 27 90 43 30 15 68 31 85 34 16 4
52 18 80 31 27 13 75 33 105 45 30 11 64 25 75 30 11 5 56 23 100 40 118 47
115 45 185 78 36 16 115 49 175 72 61 24 114 47 120 52 18 16 -40 7 -84 -12z"/>
<path d="M6989 4611 c-42 -42 -98 -89 -125 -105 -27 -16 -43 -31 -36 -33 15
-6 143 80 184 123 32 34 72 95 60 93 -4 -1 -41 -36 -83 -78z"/>
<path d="M7137 4657 c-15 -17 -27 -36 -27 -43 0 -6 -25 -33 -56 -60 -31 -27
-62 -54 -68 -60 -12 -11 -54 -33 -106 -56 -40 -17 -199 -54 -275 -63 -28 -4
-57 -11 -65 -16 -18 -12 133 -2 170 11 14 5 53 16 88 25 68 17 179 67 208 93
11 9 36 30 57 45 39 29 121 143 109 151 -4 3 -20 -10 -35 -27z"/>
<path d="M6600 4669 c0 -5 5 -7 10 -4 6 3 10 8 10 11 0 2 -4 4 -10 4 -5 0 -10
-5 -10 -11z"/>
<path d="M6852 4652 c-48 -42 -75 -62 -83 -62 -4 0 -23 -13 -41 -30 -18 -16
-38 -30 -45 -30 -7 0 -13 -3 -13 -8 0 -7 -102 -62 -155 -83 -20 -8 -25 -13
-14 -16 40 -10 306 151 373 226 29 32 14 35 -22 3z"/>
<path d="M6353 4653 c-7 -2 -13 -10 -13 -17 0 -7 -11 -27 -25 -46 -25 -34 -32
-60 -16 -60 5 0 16 15 25 33 10 17 26 47 37 65 20 31 18 36 -8 25z"/>
<path d="M6260 4640 c-9 -6 -10 -10 -3 -10 6 0 15 5 18 10 8 12 4 12 -15 0z"/>
<path d="M6536 4619 c-18 -19 -23 -29 -14 -29 8 0 27 14 43 30 37 39 10 38
-29 -1z"/>
<path d="M6604 4635 c-17 -13 -17 -14 -2 -15 9 0 20 5 23 11 11 17 0 20 -21 4z"/>
<path d="M11426 4628 c73 -84 219 -221 172 -162 -34 44 -173 184 -181 184 -6
0 -2 -10 9 -22z"/>
<path d="M7253 4613 c-7 -18 -26 -43 -55 -75 -20 -20 -22 -28 -9 -28 8 0 91
104 91 115 0 13 -21 3 -27 -12z"/>
<path d="M4930 4597 c-14 -12 -41 -33 -59 -47 -18 -14 -38 -30 -44 -35 -20
-18 -131 -83 -177 -104 -58 -26 -172 -89 -184 -102 -22 -21 16 -5 169 70 116
58 184 99 248 150 48 39 90 71 92 71 3 0 10 0 15 0 6 0 10 5 10 10 0 18 -44
10 -70 -13z"/>
<path d="M10830 4580 c0 -5 5 -10 11 -10 5 0 7 5 4 10 -3 6 -8 10 -11 10 -2 0
-4 -4 -4 -10z"/>
<path d="M6470 4567 c-24 -12 -39 -37 -22 -37 14 0 58 37 52 44 -3 3 -16 0
-30 -7z"/>
<path d="M8880 4551 c0 -42 17 -47 18 -6 1 19 -3 35 -8 35 -6 0 -10 -13 -10
-29z"/>
<path d="M6075 4540 c-3 -5 -1 -10 4 -10 6 0 11 5 11 10 0 6 -2 10 -4 10 -3 0
-8 -4 -11 -10z"/>
<path d="M6545 4538 c-11 -7 -26 -18 -33 -25 -7 -7 -20 -13 -28 -13 -8 0 -27
-11 -42 -25 -15 -14 -38 -28 -52 -31 -14 -3 -39 -12 -57 -20 -17 -8 -38 -14
-46 -14 -9 0 -19 -4 -22 -10 -3 -5 -3 -10 2 -10 34 1 207 73 219 91 3 5 25 19
50 30 24 12 44 25 44 30 0 12 -11 11 -35 -3z"/>
<path d="M6360 4500 c-25 -16 -51 -30 -57 -30 -7 0 -13 -4 -13 -10 0 -5 4 -10
9 -10 13 0 104 50 121 66 26 26 -11 16 -60 -16z"/>
<path d="M8730 4458 c0 -56 -8 -128 -25 -223 -7 -37 -69 -95 -102 -95 -33 0
-80 48 -98 100 -2 7 -19 47 -40 95 -9 22 -17 57 -16 77 0 20 -3 47 -8 60 -6
17 -9 8 -10 -38 -1 -68 27 -161 75 -253 31 -59 52 -76 107 -85 42 -8 67 5 67
34 0 10 7 20 15 24 8 3 15 14 15 25 0 11 8 36 17 56 14 28 15 38 5 44 -10 6
-9 11 3 21 18 15 19 15 38 -32 9 -21 20 -38 26 -38 10 0 -4 34 -39 101 -12 24
-17 48 -14 70 10 64 8 113 -4 117 -8 2 -12 -15 -12 -60z"/>
<path d="M7150 4490 c0 -5 5 -10 10 -10 6 0 10 5 10 10 0 6 -4 10 -10 10 -5 0
-10 -4 -10 -10z"/>
<path d="M8894 4441 c3 -56 16 -101 16 -53 0 11 4 22 10 24 6 2 4 17 -3 40
-20 58 -26 55 -23 -11z"/>
<path d="M9610 4485 c0 -3 6 -20 13 -38 8 -18 12 -37 10 -43 -2 -6 3 -17 12
-24 8 -7 15 -17 15 -24 0 -18 34 -96 43 -96 4 0 0 17 -9 38 -21 49 -40 104
-39 117 0 16 -29 75 -37 75 -5 0 -8 -2 -8 -5z"/>
<path d="M1506 4449 c-49 -16 -93 -29 -97 -29 -4 0 -20 -5 -36 -11 -21 -8 -24
-12 -13 -19 8 -5 28 -3 49 5 56 20 206 65 219 65 6 0 14 5 17 10 11 18 -48 9
-139 -21z"/>
<path d="M7112 4468 c-12 -15 -58 -40 -116 -63 -22 -8 -37 -17 -34 -20 6 -6
114 37 155 62 18 11 30 23 26 26 -10 10 -19 8 -31 -5z"/>
<path d="M6727 4438 c-32 -17 -56 -32 -54 -35 5 -5 137 54 137 62 0 11 -26 2
-83 -27z"/>
<path d="M9281 4454 c0 -11 3 -14 6 -6 3 7 2 16 -1 19 -3 4 -6 -2 -5 -13z"/>
<path d="M5535 4420 c-3 -5 -1 -10 4 -10 6 0 11 5 11 10 0 6 -2 10 -4 10 -3 0
-8 -4 -11 -10z"/>
<path d="M11623 4415 c0 -8 4 -15 9 -15 4 0 8 7 8 15 0 8 -4 15 -8 15 -5 0 -9
-7 -9 -15z"/>
<path d="M6440 4413 c-13 -3 -33 -11 -44 -19 -30 -21 1 -17 49 5 41 20 40 22
-5 14z"/>
<path d="M7285 4400 c-15 -24 -234 -110 -280 -110 -15 0 -23 -4 -20 -10 8 -13
64 -4 150 25 72 24 185 83 185 97 0 11 -28 10 -35 -2z"/>
<path d="M5425 4329 c-31 -30 -77 -72 -102 -94 -44 -38 -107 -94 -139 -124 -8
-7 -13 -16 -10 -18 8 -8 125 80 131 99 3 9 14 19 23 22 23 8 168 154 160 162
-4 3 -32 -18 -63 -47z"/>
<path d="M6880 4371 c-8 -5 -35 -12 -60 -15 -64 -10 -160 -38 -160 -48 0 -4 3
-8 8 -8 17 1 274 69 279 74 10 9 -50 6 -67 -3z"/>
<path d="M9972 4348 c12 -38 25 -54 34 -46 7 8 -25 78 -37 78 -4 0 -3 -15 3
-32z"/>
<path d="M8901 4353 c0 -5 4 -17 9 -28 8 -18 9 -17 9 8 1 15 -3 27 -9 27 -5 0
-10 -3 -9 -7z"/>
<path d="M10640 4331 c0 -17 48 -66 56 -58 5 4 4 11 -1 15 -6 4 -15 16 -21 26
-12 22 -34 33 -34 17z"/>
<path d="M9311 4310 c0 -8 7 -31 14 -50 12 -31 14 -32 14 -10 0 14 -6 36 -14
50 -8 14 -14 18 -14 10z"/>
<path d="M3955 4292 c-16 -8 -32 -18 -35 -21 -3 -3 -22 -15 -44 -26 -21 -11
-41 -25 -43 -32 -3 -7 -11 -13 -18 -13 -7 0 -18 -7 -25 -15 -7 -8 -20 -15 -30
-15 -10 0 -23 -7 -30 -15 -7 -8 -21 -15 -31 -15 -11 0 -19 -4 -19 -9 0 -5 -35
-32 -77 -60 -99 -65 -108 -71 -153 -102 -20 -15 -67 -43 -104 -63 -37 -20 -73
-41 -79 -46 -7 -5 -57 -33 -111 -61 -55 -28 -113 -60 -130 -70 -17 -10 -38
-22 -46 -26 -8 -3 -26 -14 -40 -23 -14 -9 -52 -27 -85 -40 -33 -13 -83 -34
-112 -47 -85 -38 -263 -75 -263 -55 0 5 -34 13 -76 17 -77 7 -98 21 -75 49 6
7 8 15 5 18 -3 4 11 29 30 57 20 28 36 53 36 56 0 14 85 81 213 166 42 29 77
56 77 61 0 13 -24 9 -45 -7 -32 -25 -155 -105 -161 -105 -3 0 -11 -6 -18 -12
-8 -7 -24 -20 -36 -28 -34 -23 -50 -40 -50 -55 0 -8 -8 -16 -18 -19 -15 -5
-50 -65 -43 -75 2 -2 -4 -8 -12 -13 -8 -4 -24 -23 -35 -42 -16 -27 -18 -38 -9
-50 48 -62 311 -72 443 -16 144 61 424 201 424 212 0 4 5 8 11 8 17 0 208 97
225 115 8 8 19 15 24 15 4 0 27 15 49 34 23 19 57 40 76 46 19 6 51 27 70 46
19 19 39 34 44 34 15 0 211 131 294 196 29 22 61 46 72 52 31 18 -4 13 -40 -6z"/>
<path d="M11400 4290 c0 -5 6 -13 13 -17 7 -4 41 -41 77 -80 63 -72 100 -99
62 -45 -27 37 -137 152 -145 152 -4 0 -7 -4 -7 -10z"/>
<path d="M9170 4287 c0 -15 41 -87 49 -87 5 0 0 17 -10 37 -19 38 -39 63 -39
50z"/>
<path d="M10010 4282 c0 -18 23 -62 32 -62 5 0 1 15 -8 33 -20 39 -24 44 -24
29z"/>
<path d="M10698 4253 c7 -3 16 -2 19 1 4 3 -2 6 -13 5 -11 0 -14 -3 -6 -6z"/>
<path d="M10710 4234 c0 -3 17 -27 38 -52 65 -82 77 -89 47 -32 -9 17 -19 30
-23 30 -4 0 -16 14 -25 30 -16 26 -37 40 -37 24z"/>
<path d="M11850 4114 c0 -10 49 -80 69 -98 11 -11 21 -24 21 -30 0 -6 32 -45
71 -86 39 -41 83 -91 97 -110 15 -19 55 -70 89 -112 35 -43 63 -82 63 -87 0
-6 6 -14 13 -18 7 -4 28 -29 46 -55 17 -27 36 -48 41 -48 5 0 19 -21 31 -46
11 -26 42 -74 68 -108 50 -63 80 -114 86 -146 2 -10 14 -35 28 -56 75 -119
127 -261 127 -344 0 -46 -61 -60 -135 -31 -67 27 -158 75 -179 95 -13 11 -45
41 -72 64 -163 145 -258 258 -226 269 32 12 2 173 -54 282 -24 47 -44 89 -44
93 0 11 -148 234 -165 248 -8 7 -15 18 -15 24 0 6 -12 25 -26 41 -14 17 -44
57 -67 90 -22 33 -48 69 -58 80 -10 11 -31 35 -48 54 -17 19 -33 32 -37 29 -7
-8 55 -88 68 -88 4 0 8 -5 8 -10 0 -6 5 -16 10 -23 6 -7 32 -42 58 -79 134
-192 186 -273 226 -355 13 -29 30 -53 35 -53 6 0 11 -9 11 -20 0 -12 11 -43
25 -69 13 -27 26 -59 29 -72 3 -13 11 -49 18 -79 14 -58 13 -90 -3 -90 -6 0
-8 -4 -5 -9 15 -24 -107 -19 -132 6 -17 17 -55 17 -50 1 3 -7 27 -25 54 -40
42 -24 56 -27 100 -22 45 5 53 3 66 -15 8 -12 30 -38 49 -59 19 -20 48 -53 64
-73 17 -20 59 -60 95 -89 36 -29 72 -60 80 -69 8 -9 49 -36 90 -61 74 -44 76
-45 155 -42 43 1 83 6 88 11 28 28 11 183 -27 261 -29 58 -50 98 -77 147 -16
29 -29 57 -29 64 0 16 -121 199 -132 199 -4 0 -8 6 -8 14 0 7 -7 19 -15 26 -9
7 -23 28 -31 46 -9 19 -20 34 -24 34 -5 0 -22 20 -39 45 -35 51 -37 55 -84
110 -18 22 -44 56 -57 75 -25 36 -39 53 -109 129 -23 24 -41 47 -41 52 0 4 -9
11 -20 14 -11 3 -20 13 -20 20 0 8 -15 30 -32 50 -42 45 -51 55 -72 87 -15 23
-46 45 -46 32z"/>
<path d="M10830 4079 c0 -14 34 -59 46 -59 6 0 -9 28 -30 55 -12 16 -15 17
-16 4z"/>
<path d="M11150 4006 c0 -2 8 -10 18 -17 15 -13 16 -12 3 4 -13 16 -21 21 -21
13z"/>
<path d="M11180 3965 c0 -28 162 -283 168 -265 3 7 1 15 -4 19 -10 7 -21 26
-72 124 -20 40 -45 80 -54 89 -10 10 -18 23 -18 28 0 6 -4 10 -10 10 -5 0 -10
-2 -10 -5z"/>
<path d="M1790 3929 c-8 -5 -28 -14 -43 -19 -16 -5 -25 -14 -22 -20 6 -10 100
21 119 40 13 13 -33 13 -54 -1z"/>
<path d="M1664 3880 c-23 -9 -41 -30 -26 -30 22 0 71 23 66 31 -6 11 -12 11
-40 -1z"/>
<path d="M11570 3817 c8 -7 21 -23 28 -37 7 -14 29 -42 48 -62 39 -42 83 -99
134 -173 19 -27 45 -62 57 -76 13 -14 30 -34 38 -45 15 -19 15 -19 8 1 -4 11
-21 38 -38 61 -16 22 -39 52 -50 68 -114 157 -213 276 -229 276 -6 0 -4 -6 4
-13z"/>
<path d="M12110 3425 c0 -14 34 -65 47 -70 10 -3 9 4 -4 26 -19 32 -43 57 -43
44z"/>
<path d="M11906 3377 c3 -10 9 -15 12 -12 3 3 0 11 -7 18 -10 9 -11 8 -5 -6z"/>
<path d="M12185 3310 c10 -11 20 -20 22 -20 2 0 -1 9 -7 20 -6 11 -16 20 -22
20 -6 0 -3 -9 7 -20z"/>
<path d="M12237 3239 c22 -38 47 -61 36 -33 -12 29 -37 64 -46 64 -4 0 0 -14
10 -31z"/>
<path d="M12288 3175 c-9 -9 6 -39 32 -65 10 -10 22 -26 28 -36 6 -10 13 -16
17 -13 7 7 -45 89 -56 89 -4 0 -9 7 -11 16 -2 9 -6 13 -10 9z"/>
<path d="M12710 2995 c0 -18 19 -40 26 -32 4 4 0 15 -9 24 -9 10 -17 13 -17 8z"/>
<path d="M12740 2941 c0 -6 24 -38 53 -73 29 -35 76 -93 106 -130 57 -73 80
-92 34 -29 -15 21 -50 70 -78 107 -27 38 -59 80 -72 93 -13 13 -23 28 -23 32
0 5 -4 9 -10 9 -5 0 -10 -4 -10 -9z"/>
<path d="M9520 2734 c0 -8 5 -12 10 -9 6 4 8 11 5 16 -9 14 -15 11 -15 -7z"/>
<path d="M12720 2701 c0 -11 167 -147 227 -184 23 -14 53 -29 66 -33 23 -5 25
-3 20 16 -3 12 -15 25 -27 30 -63 24 -210 127 -227 158 -12 21 -59 32 -59 13z"/>
</g>
</svg>
