<?xml version="1.0" standalone="no"?>
<!DOCTYPE svg PUBLIC "-//W3C//DTD SVG 20010904//EN"
 "http://www.w3.org/TR/2001/REC-SVG-20010904/DTD/svg10.dtd">
<svg version="1.0" xmlns="http://www.w3.org/2000/svg"
 width="1220.000000pt" height="1195.000000pt" viewBox="0 0 1220.000000 1195.000000"
 preserveAspectRatio="xMidYMid meet">
<metadata>
Created by potrace 1.13, written by Peter Selinger 2001-2015
</metadata>
<g transform="translate(0.000000,1195.000000) scale(0.100000,-0.100000)"
fill="#000000" stroke="none">
<path d="M2060 10935 c0 -3 9 -23 20 -45 11 -22 20 -46 20 -53 0 -8 9 -26 20
-40 11 -14 20 -32 20 -41 0 -9 4 -16 9 -16 4 0 12 -15 18 -32 7 -26 14 -32 32
-30 20 2 22 0 11 -13 -10 -12 -8 -22 14 -55 14 -22 31 -40 36 -40 6 0 10 -5
10 -10 0 -11 10 -24 43 -61 9 -10 17 -26 17 -34 0 -8 7 -16 15 -16 28 -3 33
-4 41 -11 4 -5 0 -8 -9 -8 -23 0 -22 -4 21 -63 46 -62 66 -97 55 -97 -5 0 -31
20 -60 45 -58 51 -73 55 -73 21 0 -90 89 -302 131 -313 10 -3 15 -12 13 -21
-5 -18 71 -142 87 -142 5 0 9 -5 9 -11 0 -6 20 -31 45 -55 25 -23 45 -47 45
-53 0 -5 9 -13 20 -16 11 -3 20 -10 20 -14 0 -9 46 -61 54 -61 3 0 29 -26 58
-57 29 -32 73 -79 98 -106 62 -67 63 -68 105 -102 20 -16 58 -49 84 -73 25
-23 60 -50 76 -59 17 -9 51 -34 77 -55 26 -22 53 -38 60 -36 7 3 -11 22 -40
43 -29 22 -52 42 -52 46 0 3 -25 22 -54 40 -30 19 -61 45 -68 58 -7 13 -23 27
-35 32 -12 4 -39 31 -60 58 -21 27 -43 50 -49 50 -7 1 -19 12 -28 26 -10 14
-28 31 -42 37 -13 6 -24 18 -24 26 0 8 -22 35 -49 61 -26 25 -56 58 -66 73 -9
15 -25 30 -36 33 -11 4 -17 10 -14 14 7 13 -37 59 -67 70 -16 6 -28 15 -28 20
0 6 8 7 17 4 11 -4 4 7 -15 28 -17 18 -32 38 -32 43 0 13 -44 56 -57 56 -7 0
-10 6 -7 14 3 8 -3 23 -14 34 -11 11 -18 23 -15 26 8 8 -37 76 -51 76 -7 0
-12 12 -12 28 -1 15 -4 44 -8 64 l-7 37 66 -34 c69 -36 80 -44 124 -87 16 -16
33 -28 39 -28 6 0 13 -9 17 -19 3 -11 12 -22 20 -25 7 -2 29 -29 48 -58 39
-61 157 -188 175 -188 7 0 12 -9 12 -20 0 -11 6 -20 14 -20 8 0 43 -29 79 -65
36 -36 72 -65 80 -65 8 0 17 -7 21 -15 3 -8 17 -20 31 -25 14 -5 25 -14 25
-20 0 -14 32 -50 45 -50 6 0 67 -55 135 -122 l125 -122 -33 -4 c-30 -3 -32 -6
-29 -35 7 -60 49 -135 115 -205 23 -24 42 -48 42 -52 0 -8 -80 3 -97 13 -15 9
-113 -21 -113 -34 0 -6 7 -12 15 -15 8 -4 15 -13 15 -21 0 -17 65 -83 81 -83
5 0 9 -7 9 -15 0 -8 4 -15 8 -15 5 0 22 -13 38 -30 16 -16 39 -30 51 -30 12 0
26 -6 30 -12 4 -7 17 -18 27 -24 32 -17 31 -34 -1 -34 -51 1 -196 42 -271 76
-61 28 -42 9 26 -27 60 -32 67 -39 68 -66 0 -39 45 -113 83 -138 17 -11 31
-23 31 -27 0 -12 -218 74 -289 114 -20 11 -75 40 -122 64 -47 24 -92 50 -99
59 -7 8 -16 15 -21 15 -12 0 -119 108 -119 120 0 6 30 10 74 10 41 0 82 3 91
6 10 4 15 2 13 -6 -2 -7 14 -20 35 -28 67 -27 60 6 -10 43 -21 11 -47 30 -59
43 -12 12 -26 22 -33 22 -6 0 -11 7 -11 15 0 8 -4 15 -9 15 -4 0 -35 27 -67
60 -32 33 -67 60 -76 60 -10 0 -15 5 -12 13 3 8 -6 25 -20 38 -14 13 -26 29
-26 35 0 6 -9 19 -20 29 -11 10 -20 21 -20 24 0 11 95 29 98 20 2 -5 7 -7 12
-4 4 3 19 -6 31 -20 13 -13 29 -25 35 -25 6 0 33 -20 60 -45 27 -25 52 -45 56
-45 4 0 18 -11 31 -24 38 -38 233 -144 244 -133 3 3 -10 13 -29 23 -18 9 -35
20 -38 24 -5 7 -51 34 -60 35 -6 0 -129 94 -148 112 -8 7 -30 26 -50 41 -21
15 -43 35 -50 44 -15 21 -28 33 -81 77 -22 18 -43 42 -46 52 -3 10 -15 21 -26
24 -10 4 -19 11 -19 16 0 15 -59 69 -76 69 -8 0 -13 4 -10 9 3 5 1 23 -5 41
-9 24 -16 30 -31 27 -17 -5 -18 -2 -13 23 4 19 2 31 -7 37 -15 9 -38 57 -38
79 0 10 7 13 25 8 34 -9 33 14 -2 27 -15 6 -30 13 -33 17 -3 4 -18 13 -34 20
-22 10 -31 10 -36 1 -11 -17 29 -128 51 -142 11 -7 19 -18 19 -25 0 -40 212
-302 245 -302 8 0 15 -5 15 -11 0 -8 -23 -10 -81 -4 l-82 7 7 -27 c13 -53 79
-141 175 -233 53 -52 108 -100 124 -108 53 -28 33 -37 -68 -31 -61 4 -95 3
-95 -3 0 -41 126 -175 200 -212 24 -13 54 -32 67 -43 l22 -20 -89 3 c-67 3
-90 1 -90 -9 0 -33 149 -189 181 -189 9 0 29 -10 43 -21 40 -31 20 -39 -100
-39 -55 0 -103 -3 -107 -6 -10 -10 36 -71 68 -90 16 -10 40 -28 52 -41 12 -13
31 -23 43 -23 11 0 20 -7 20 -15 0 -8 7 -15 15 -15 8 0 15 -4 15 -10 0 -5 7
-10 15 -10 9 0 75 -21 148 -46 73 -25 157 -52 187 -59 235 -55 326 -78 334
-85 11 -10 -49 -26 -132 -35 -34 -4 -64 -11 -67 -16 -3 -4 9 -16 27 -25 18 -9
49 -29 68 -44 19 -16 53 -33 75 -40 22 -7 67 -23 100 -36 33 -13 72 -26 88
-30 15 -3 27 -12 27 -20 0 -10 19 -13 81 -11 75 1 79 2 53 14 -16 7 -36 12
-44 13 -8 0 -39 10 -70 21 -67 26 -86 33 -128 50 -42 15 -156 88 -149 95 2 3
20 6 39 8 19 2 40 6 47 10 6 4 63 8 126 10 63 1 117 4 120 7 3 3 -45 16 -107
29 -121 24 -211 61 -268 109 -25 21 -32 32 -24 41 18 18 122 32 229 31 72 -1
72 2 0 29 -29 11 -97 37 -120 46 -11 4 -24 8 -30 9 -12 1 -58 26 -65 35 -3 3
-28 24 -55 46 -68 53 -64 70 21 80 36 3 93 2 127 -4 59 -10 102 0 61 14 -10 3
-33 12 -51 20 -17 8 -36 14 -41 14 -6 0 -40 14 -75 30 -36 17 -69 30 -74 30
-5 0 -22 14 -38 30 -16 17 -33 30 -38 30 -11 0 -43 36 -62 72 -13 23 -13 27 3
33 19 7 121 -1 202 -17 30 -6 68 -12 83 -13 27 -3 27 -2 11 16 -9 11 -22 19
-28 19 -18 1 -78 33 -131 70 -66 45 -65 45 -142 122 -50 51 -73 67 -88 63 -11
-3 -15 -2 -8 1 7 3 9 12 6 20 -4 11 8 13 68 10 41 -2 87 -8 103 -11 28 -8 104
-50 163 -92 17 -13 35 -23 40 -23 4 0 26 -12 46 -26 45 -30 61 -26 20 5 -15
11 -32 24 -38 29 -5 4 -29 19 -53 33 -38 23 -210 179 -197 179 3 0 -2 11 -11
25 -9 14 -25 25 -35 25 -10 0 -21 5 -24 10 -3 6 -1 10 5 10 7 0 4 12 -7 30 -9
17 -20 30 -23 30 -8 0 -6 37 2 45 3 3 42 -6 88 -21 81 -26 84 -29 185 -133 57
-58 106 -103 110 -100 3 4 -6 20 -20 35 -15 16 -52 58 -83 93 -32 35 -66 73
-77 85 -11 12 -29 35 -40 50 -11 16 -25 33 -30 40 -27 29 -75 106 -81 130 -3
14 -16 34 -28 42 -20 15 -20 16 12 9 19 -4 32 -3 32 4 0 14 -11 19 -60 27
l-43 7 7 -39 c9 -47 70 -161 100 -185 27 -22 19 -29 -23 -21 -20 5 -35 14 -37
23 -2 16 -36 61 -62 83 -7 6 -21 19 -30 30 -9 10 -30 30 -46 45 -17 14 -56 52
-87 84 -31 31 -62 57 -68 57 -6 0 -11 5 -11 10 0 6 -5 10 -10 10 -6 0 -41 30
-78 68 -38 37 -77 74 -88 83 -33 28 -184 191 -184 200 0 5 -8 9 -19 9 -16 0
-35 31 -32 53 1 4 -3 7 -9 7 -5 0 -24 27 -42 60 -21 39 -41 63 -55 66 -13 4
-23 14 -23 23 0 10 -10 27 -22 38 -13 11 -36 37 -53 58 -72 91 -77 95 -108 96
-24 1 -26 3 -9 6 21 4 30 18 15 25 -5 2 -26 26 -47 53 -22 28 -44 55 -50 60
-6 6 -17 22 -23 38 -7 15 -17 27 -23 27 -5 0 -10 4 -10 10 0 13 -71 105 -80
103 -3 -1 -6 13 -6 31 1 33 1 33 26 17 14 -9 31 -21 38 -28 7 -7 22 -13 33
-13 11 0 17 -4 14 -10 -7 -12 15 -13 33 -1 15 9 5 22 -38 51 -12 8 -34 25 -48
38 -15 13 -40 33 -56 45 -15 12 -36 30 -44 40 -9 9 -22 17 -29 17 -7 0 -18 10
-24 23 -15 28 -49 51 -49 32z m1120 -2329 c33 -4 170 -45 215 -65 45 -20 123
-43 174 -51 30 -5 61 -16 70 -24 8 -9 11 -16 6 -17 -6 0 -17 -2 -25 -4 -8 -2
-33 -6 -55 -10 -22 -4 -42 -9 -44 -11 -2 -2 15 -27 39 -55 l44 -52 -40 7 c-50
9 -131 34 -167 52 -16 8 -34 14 -40 14 -7 0 -29 9 -50 20 -20 11 -44 20 -52
20 -8 0 -15 4 -15 8 0 4 -20 13 -44 20 -24 6 -51 18 -59 26 -8 8 -26 18 -41
22 -14 3 -26 10 -26 14 0 4 -16 24 -35 44 -19 21 -35 39 -35 41 0 11 85 12
180 1z m200 -251 c41 -15 91 -31 111 -35 63 -16 239 -77 252 -88 6 -6 24 -13
40 -17 28 -7 37 -24 15 -26 -7 -1 -36 -3 -65 -4 -28 -1 -68 -10 -88 -19 l-37
-18 21 -22 c12 -12 21 -28 21 -34 0 -7 5 -12 10 -12 6 0 10 -5 10 -11 0 -14
-71 -3 -108 17 -15 8 -34 14 -42 14 -8 0 -35 7 -60 15 -54 19 -90 34 -215 91
-33 16 -67 29 -76 29 -9 1 -22 7 -30 14 -8 6 -33 25 -56 42 -61 43 -57 52 25
73 90 23 190 20 272 -9z"/>
<path d="M2387 10639 c9 -17 29 -39 44 -48 16 -9 32 -24 35 -33 3 -9 14 -20
24 -23 21 -7 108 -87 237 -217 34 -34 53 -40 53 -17 0 6 -20 30 -45 55 -25 24
-45 46 -45 49 0 10 -132 131 -202 185 -11 8 -36 30 -56 47 -48 42 -65 43 -45
2z"/>
<path d="M2787 10274 c-7 -8 193 -208 217 -217 9 -4 16 -12 16 -20 0 -17 44
-59 53 -51 4 4 11 -5 17 -20 5 -15 16 -29 24 -32 8 -3 16 -14 19 -25 3 -11 14
-23 24 -26 10 -2 32 -22 48 -44 17 -22 49 -51 73 -65 23 -14 40 -30 37 -34 -7
-11 23 -40 41 -40 8 0 13 -3 11 -8 -1 -4 21 -32 49 -62 29 -30 68 -73 89 -95
23 -24 35 -46 32 -57 -4 -13 2 -20 21 -25 25 -6 58 -29 96 -69 268 -275 346
-361 381 -419 11 -16 26 -37 34 -46 20 -22 90 -110 138 -175 21 -28 56 -72 78
-98 39 -47 98 -146 91 -154 -2 -2 -27 11 -55 29 -29 17 -55 28 -58 25 -11 -10
118 -115 160 -129 9 -4 17 -13 17 -22 0 -8 5 -15 10 -15 6 0 10 -7 10 -16 0
-9 6 -30 14 -47 31 -70 74 -228 107 -397 6 -30 12 -59 14 -65 8 -39 15 -91 20
-159 3 -43 7 -82 10 -85 2 -4 5 -29 6 -57 2 -58 36 -233 48 -248 4 -6 11 -21
14 -33 7 -31 -17 -30 -83 3 -28 14 -56 24 -62 22 -7 -3 29 -24 79 -49 69 -33
93 -50 98 -67 9 -35 91 -206 123 -255 37 -57 103 -144 146 -191 57 -63 51 -73
-52 -86 -113 -15 -175 -29 -182 -41 -6 -8 -9 -8 -15 0 -4 8 -11 9 -18 3 -7 -5
-41 -12 -76 -16 -35 -3 -69 -10 -75 -15 -6 -5 -24 -11 -41 -14 -16 -2 -45 -10
-62 -16 -81 -27 -98 -31 -101 -21 -2 5 -16 10 -32 10 -32 0 -50 17 -48 46 2
18 10 21 58 23 30 1 71 6 90 11 59 16 195 40 223 40 15 0 27 4 27 8 0 5 -62
12 -137 16 -75 4 -142 10 -147 15 -6 5 -38 12 -71 16 -76 9 -131 30 -174 68
l-35 30 -14 -22 c-8 -11 -21 -21 -29 -21 -8 0 -12 -4 -8 -10 3 -5 12 -7 20 -3
8 3 15 1 15 -5 0 -5 21 -15 48 -22 26 -7 53 -18 61 -24 20 -16 147 -45 206
-47 47 -2 47 -3 10 -6 -22 -2 -49 -8 -60 -13 -84 -38 -213 -43 -301 -12 -33
12 -67 22 -75 22 -8 0 -27 7 -42 15 -15 8 -43 17 -62 21 -19 3 -35 10 -35 14
0 4 -16 11 -35 14 -19 4 -35 11 -35 16 0 9 186 27 238 22 28 -2 32 0 32 20 0
22 -45 58 -73 58 -7 0 -24 6 -39 14 -14 8 -46 17 -70 21 -24 4 -76 20 -116 36
-40 16 -81 29 -92 29 -11 0 -20 7 -20 15 0 14 31 37 47 34 23 -4 36 2 27 11
-7 7 -27 7 -60 1 -27 -5 -61 -7 -75 -4 -34 6 -47 -14 -23 -33 72 -54 166 -95
251 -109 24 -4 45 -10 48 -15 3 -5 24 -11 48 -15 23 -4 53 -13 67 -21 23 -12
18 -13 -55 -14 -44 -1 -89 -3 -100 -6 -11 -2 -35 -6 -54 -8 -19 -3 -38 -9 -43
-14 -11 -11 90 -82 118 -82 11 0 24 -4 30 -9 5 -5 34 -16 65 -26 80 -24 89
-31 64 -49 -11 -8 -36 -18 -55 -21 -61 -12 -76 -35 -36 -57 13 -7 44 -26 70
-41 25 -16 52 -30 61 -31 29 -4 28 -16 -3 -22 -18 -4 -32 -10 -32 -14 0 -4
-16 -11 -35 -14 -19 -4 -35 -11 -35 -16 0 -6 -6 -10 -14 -10 -12 0 -60 -19
-143 -56 -17 -8 -35 -14 -40 -14 -11 0 -135 -60 -143 -69 -3 -3 -30 -19 -61
-36 -72 -39 -234 -143 -267 -172 -14 -13 -29 -23 -33 -23 -12 0 -49 -32 -49
-42 0 -14 28 -8 34 7 3 8 12 15 21 15 8 0 15 4 15 9 0 4 26 20 58 34 32 14 67
33 76 43 10 10 27 18 37 19 10 1 35 14 57 28 21 15 43 27 49 27 5 0 22 11 36
24 14 13 36 26 49 29 13 4 32 14 43 24 18 16 168 93 220 113 11 4 45 19 75 33
48 22 124 48 265 89 22 6 45 15 50 19 6 4 29 10 53 14 23 4 49 14 57 22 8 8
21 13 28 10 6 -2 35 3 62 10 197 56 282 75 362 83 50 5 109 14 131 19 23 7
150 10 313 10 154 -1 307 4 349 10 294 44 334 62 510 243 36 37 83 88 105 114
22 26 48 54 58 63 9 8 17 21 17 28 0 7 7 13 15 13 8 0 15 7 15 16 0 23 175
190 255 243 43 27 95 52 135 62 59 15 67 16 83 1 16 -14 22 -14 72 2 30 9 55
20 55 23 0 3 -26 3 -57 -1 -73 -9 -60 9 16 24 77 14 101 13 101 -7 0 -14 2
-14 20 2 19 17 27 17 108 5 156 -23 261 -72 348 -162 170 -177 189 -194 273
-236 46 -23 102 -45 125 -49 23 -3 100 -31 171 -61 127 -52 183 -88 167 -104
-7 -7 -32 -4 -224 22 -40 5 -79 7 -87 4 -8 -2 -104 -7 -214 -9 -199 -5 -200
-5 -224 -31 -26 -28 -24 -39 7 -47 15 -4 20 0 20 14 0 10 4 19 10 19 5 0 7 -6
4 -14 -7 -17 62 -27 112 -16 21 5 83 7 138 5 56 -2 107 -4 114 -5 25 -1 11
-18 -20 -24 -60 -10 -163 -32 -178 -38 -8 -3 -46 -14 -83 -23 -37 -10 -74 -24
-82 -31 -7 -8 -21 -14 -31 -14 -26 0 -159 -39 -191 -55 -15 -8 -38 -15 -50
-15 -12 0 -25 -5 -28 -10 -7 -11 -51 -31 -148 -70 -31 -12 -60 -26 -63 -31 -3
-5 -17 -9 -31 -9 l-27 0 23 21 c29 27 21 34 -23 19 -25 -8 -36 -18 -36 -31 0
-11 4 -18 9 -14 5 3 12 1 15 -4 4 -5 -2 -12 -13 -16 -22 -7 -36 -35 -18 -35 7
0 42 15 77 34 36 19 94 45 130 59 36 13 85 34 110 45 60 28 176 69 220 77 19
3 44 10 55 14 49 19 200 64 310 92 179 46 195 50 258 56 31 3 57 9 57 13 0 10
-77 20 -140 19 -25 0 -130 -2 -233 -5 -151 -4 -188 -2 -185 8 3 9 45 15 149
20 79 3 163 9 186 12 60 8 233 -15 367 -50 29 -7 29 -6 22 26 -3 18 -16 40
-28 49 -12 8 -30 23 -40 33 -10 10 -44 28 -76 40 -31 11 -61 24 -67 28 -5 3
-30 14 -55 23 -25 9 -58 21 -75 28 -16 6 -41 13 -55 15 -13 2 -38 10 -55 18
-16 7 -57 27 -89 42 -33 15 -79 48 -103 73 -205 215 -245 251 -277 251 -8 0
-36 11 -63 24 -27 14 -99 35 -160 48 -100 20 -117 21 -179 9 -158 -29 -220
-44 -235 -57 -8 -8 -21 -14 -29 -14 -19 0 -100 -42 -100 -52 0 -4 -6 -8 -13
-8 -8 0 -25 -9 -38 -20 -57 -48 -70 -60 -64 -60 4 0 -5 -10 -20 -22 -60 -50
-98 -84 -113 -102 -10 -10 -34 -37 -54 -60 -21 -22 -38 -46 -38 -51 0 -6 -18
-28 -40 -49 -22 -21 -43 -49 -46 -62 -3 -13 -10 -24 -15 -24 -5 0 -41 -31 -80
-69 -86 -84 -129 -115 -200 -142 -66 -26 -213 -61 -254 -60 -16 0 -34 -4 -40
-9 -6 -5 -100 -7 -210 -5 -110 2 -224 4 -252 4 -49 1 -53 3 -53 25 0 16 -18
41 -58 77 -83 77 -107 116 -193 304 -5 11 -18 34 -28 50 -11 17 -32 66 -47
110 -15 44 -30 82 -35 85 -6 4 -13 31 -34 135 -10 53 -35 270 -39 350 -7 115
-14 166 -32 236 -7 31 -14 64 -14 72 0 9 -5 28 -12 44 -6 15 -12 30 -13 33 -9
36 -30 87 -39 92 -6 4 -12 18 -13 30 -1 13 -10 41 -19 63 -10 22 -18 42 -19
45 -8 37 -52 133 -71 155 -13 15 -24 32 -24 36 0 4 -17 28 -37 52 -21 25 -48
58 -60 74 -12 16 -33 41 -45 54 -13 14 -32 38 -43 53 -11 16 -30 40 -41 55
-12 14 -33 44 -48 66 -42 62 -174 208 -376 416 -102 104 -205 211 -231 237
-25 26 -58 59 -75 73 -16 14 -45 43 -64 65 -20 21 -54 55 -75 75 -22 19 -47
44 -56 55 -9 10 -29 31 -45 46 -54 50 -91 93 -97 111 -4 9 -15 21 -26 25 -21
7 -119 93 -201 175 -47 46 -60 53 -73 41z m1470 -3733 c24 -14 43 -28 43 -31
0 -13 -62 -30 -131 -36 -61 -5 -84 -3 -109 10 -18 9 -37 16 -42 16 -6 0 -21 9
-35 20 l-25 19 24 6 c157 37 209 36 275 -4z"/>
<path d="M32 9708 c2 -6 10 -14 16 -16 7 -2 10 2 6 12 -7 18 -28 22 -22 4z"/>
<path d="M3255 9261 c-6 -11 9 -23 19 -14 9 9 7 23 -3 23 -6 0 -12 -4 -16 -9z"/>
<path d="M3170 8855 c-9 -11 -1 -19 41 -40 71 -35 80 -28 20 17 -41 31 -51 35
-61 23z"/>
<path d="M4090 8810 c0 -12 121 -130 133 -130 15 0 -38 68 -82 104 -46 39 -51
41 -51 26z"/>
<path d="M4085 8674 c54 -48 63 -54 73 -54 5 0 15 -7 22 -15 7 -8 17 -15 23
-15 6 0 -6 16 -26 35 -20 19 -41 35 -45 35 -5 0 -22 11 -38 25 -16 14 -33 25
-39 25 -5 0 8 -16 30 -36z"/>
<path d="M4095 8555 c42 -30 79 -55 82 -55 4 0 15 -7 25 -17 10 -9 21 -14 24
-11 5 5 -45 47 -106 88 -12 8 -31 23 -42 33 -12 9 -30 17 -41 17 -12 0 9 -20
58 -55z"/>
<path d="M4090 8440 c14 -11 33 -22 43 -26 9 -3 17 -9 17 -14 0 -11 53 -40 72
-40 14 0 -5 15 -81 65 -56 37 -93 48 -51 15z"/>
<path d="M4290 8402 c0 -13 138 -114 150 -110 12 4 -43 68 -59 68 -5 0 -16 6
-23 13 -18 17 -68 38 -68 29z"/>
<path d="M4082 8328 c5 -15 108 -68 133 -67 l20 0 -20 15 c-18 14 -121 64
-132 64 -3 0 -3 -5 -1 -12z"/>
<path d="M4370 8219 c14 -11 40 -34 58 -50 32 -27 52 -36 52 -23 0 7 -16 23
-66 62 -45 35 -86 45 -44 11z"/>
<path d="M4072 8198 c3 -7 18 -17 34 -22 16 -5 50 -17 76 -27 26 -11 54 -19
62 -19 28 0 17 18 -15 25 -16 4 -57 18 -89 31 -69 28 -73 28 -68 12z"/>
<path d="M3178 8128 c-2 -4 -39 -11 -83 -15 -59 -6 -80 -12 -80 -22 0 -18 155
-130 171 -124 7 2 34 -7 60 -20 27 -13 62 -27 78 -31 16 -4 38 -13 48 -20 16
-12 12 -14 -34 -15 -45 -1 -69 -5 -136 -27 -9 -3 -2 -18 23 -48 36 -44 107
-86 145 -86 24 0 104 -39 97 -47 -3 -3 -23 -6 -44 -8 -75 -7 -123 -18 -122
-29 1 -19 112 -106 136 -106 12 0 23 -5 25 -10 2 -6 31 -16 66 -23 65 -13 85
-30 42 -35 -14 -2 -55 -9 -92 -17 -74 -17 -109 -19 -106 -7 2 4 -1 9 -7 11 -5
3 -11 -2 -13 -11 -8 -40 174 -159 247 -161 30 -1 80 -31 69 -42 -2 -2 -23 -5
-48 -8 -63 -6 -160 -30 -160 -40 0 -4 11 -12 24 -17 13 -5 27 -13 30 -19 4 -5
19 -16 34 -24 15 -8 45 -24 67 -36 21 -12 52 -21 67 -21 28 0 60 -14 86 -37
11 -11 11 -13 -2 -13 -19 0 -31 -19 -19 -31 13 -13 83 1 83 17 0 18 13 17 75
-1 43 -13 85 -32 145 -64 40 -21 88 -40 118 -46 38 -8 42 -20 7 -29 -46 -12
-17 -29 34 -21 93 16 382 6 419 -14 24 -13 43 -7 26 8 -20 19 -110 61 -129 61
-20 -1 -20 -1 0 -17 19 -15 19 -15 -10 -8 -16 4 -41 7 -56 6 -57 -3 -286 42
-303 60 -6 5 -20 9 -32 9 -12 0 -34 10 -49 21 l-27 22 39 13 c21 8 52 16 68
18 65 10 221 38 235 43 23 7 -53 30 -123 38 -74 7 -166 33 -188 52 -8 7 -21
13 -27 13 -19 0 -51 32 -45 46 4 11 36 25 68 29 6 1 17 4 25 7 41 15 105 29
152 34 108 10 103 25 -9 31 -43 2 -91 8 -108 13 -16 4 -51 11 -77 15 -27 3
-48 10 -48 16 0 5 -9 9 -20 9 -11 0 -23 7 -26 15 -4 8 -14 15 -24 15 -22 0
-57 38 -44 49 9 8 126 36 189 45 17 3 -23 3 -88 0 -83 -3 -125 -9 -140 -19
-23 -16 -121 -11 -145 8 -7 5 -29 13 -50 18 -121 27 -142 32 -142 39 0 4 -12
11 -27 14 -16 4 -47 17 -71 29 -63 33 -52 49 43 65 96 17 89 16 197 9 53 -4
89 -3 93 3 4 6 -8 10 -28 10 -19 0 -54 7 -77 15 -23 8 -52 15 -64 15 -11 0
-33 6 -47 14 -14 7 -48 17 -74 20 -26 4 -55 12 -64 16 -9 5 -36 18 -61 29 -25
11 -50 29 -57 40 -11 18 -9 21 20 29 18 5 46 10 64 11 18 1 43 5 57 11 13 5
64 7 113 4 60 -3 83 -1 73 6 -8 5 -27 10 -42 10 -15 0 -29 4 -32 9 -3 4 -28
11 -55 15 -28 4 -53 11 -56 15 -3 5 -24 12 -47 16 -23 4 -49 11 -58 15 -69 35
-136 65 -148 66 -37 6 -81 54 -49 54 6 0 25 7 40 15 15 8 44 17 63 21 19 3 33
9 30 11 -8 8 -76 9 -78 1z m610 -689 c38 -8 58 -20 85 -50 20 -21 44 -39 54
-39 11 0 23 -4 28 -9 11 -11 118 -43 148 -44 29 -2 19 -17 -11 -17 -16 0 -32
-3 -36 -7 -3 -4 -14 -8 -24 -9 -55 -8 -82 -16 -82 -23 0 -31 -120 -10 -226 40
-34 16 -75 29 -92 29 -37 0 -64 9 -57 20 2 4 -22 18 -55 31 -87 35 -87 35 71
68 103 22 134 24 197 10z m86 -228 c26 -5 51 -13 55 -19 3 -6 20 -14 36 -18
17 -4 33 -12 36 -17 8 -11 161 -63 217 -73 l35 -7 -24 -13 c-13 -7 -44 -13
-69 -14 -26 0 -51 -5 -57 -11 -6 -6 -31 -11 -54 -11 -24 1 -46 -4 -50 -10 -4
-6 -16 -5 -35 5 -16 8 -45 18 -64 22 -47 10 -171 51 -207 69 -27 14 -88 38
-126 50 -43 14 -6 25 163 50 44 6 94 5 144 -3z"/>
<path d="M4075 8071 c36 -34 208 -80 190 -51 -3 6 -14 10 -23 10 -9 0 -30 7
-46 15 -15 8 -36 15 -45 15 -9 0 -29 7 -45 15 -39 21 -54 19 -31 -4z"/>
<path d="M4370 8067 c0 -8 99 -77 111 -77 19 0 -17 33 -64 59 -36 20 -47 24
-47 18z"/>
<path d="M4382 7943 c17 -20 110 -73 128 -73 10 1 9 4 -5 12 -11 6 -24 17 -28
25 -4 7 -15 13 -22 13 -8 0 -15 3 -15 8 0 4 -16 12 -35 18 -30 9 -33 9 -23 -3z"/>
<path d="M4204 7905 c11 -8 25 -15 32 -15 6 0 17 -7 24 -15 13 -15 60 -21 60
-7 0 8 -104 52 -123 52 -6 0 -3 -7 7 -15z"/>
<path d="M4441 7803 c17 -20 98 -57 107 -49 7 8 -25 33 -67 51 -44 20 -57 19
-40 -2z"/>
<path d="M4230 7801 c0 -11 79 -57 113 -66 19 -5 18 -3 -8 20 -16 14 -45 32
-64 40 -39 18 -41 18 -41 6z"/>
<path d="M3870 7733 c-14 -3 -29 -9 -34 -14 -6 -5 -22 -9 -37 -9 -15 0 -31 -5
-34 -10 -10 -16 14 -40 39 -40 15 0 17 -3 8 -9 -11 -6 -11 -10 0 -19 16 -12
143 -72 155 -72 4 0 44 -14 88 -30 57 -22 103 -32 160 -35 l80 -4 -50 14 c-59
16 -158 50 -202 71 -17 7 -38 14 -46 14 -9 0 -18 4 -21 9 -3 4 -19 11 -36 14
-35 8 -110 53 -110 67 0 15 42 29 106 36 30 4 54 11 54 15 0 9 -74 10 -120 2z"/>
<path d="M4250 7696 c0 -9 118 -76 134 -76 29 0 7 20 -57 51 -58 28 -77 34
-77 25z"/>
<path d="M4480 7653 c1 -9 87 -63 101 -63 29 0 -14 41 -60 57 -43 15 -41 15
-41 6z"/>
<path d="M4240 7571 c0 -9 112 -71 129 -71 6 0 11 3 11 8 0 8 -93 52 -110 52
-5 0 -10 5 -10 10 0 6 -4 10 -10 10 -5 0 -10 -4 -10 -9z"/>
<path d="M4470 7531 c0 -12 130 -85 137 -77 8 8 -23 36 -41 36 -8 0 -21 6 -28
13 -15 13 -55 37 -63 37 -3 0 -5 -4 -5 -9z"/>
<path d="M4485 7401 c45 -41 85 -61 85 -42 0 9 -94 71 -108 71 -4 0 7 -13 23
-29z"/>
<path d="M4340 7413 c0 -19 116 -90 128 -78 4 3 2 9 -4 13 -6 4 -26 19 -45 33
-37 29 -79 46 -79 32z"/>
<path d="M6876 7401 c-3 -4 -24 -11 -46 -15 -22 -3 -40 -11 -40 -17 0 -7 9 -9
23 -5 12 4 47 12 77 18 70 14 87 28 33 28 -23 0 -44 -4 -47 -9z"/>
<path d="M6630 7350 c-12 -8 -9 -10 12 -10 15 0 30 5 33 10 8 13 -25 13 -45 0z"/>
<path d="M6778 7303 c-16 -2 -28 -8 -28 -13 0 -9 62 -2 95 11 16 6 14 8 -10 7
-16 -1 -42 -3 -57 -5z"/>
<path d="M7115 7301 c-33 -4 -76 -16 -95 -25 -41 -21 -96 -76 -105 -107 -33
-102 30 -224 121 -235 150 -19 249 7 308 80 28 34 31 45 31 106 0 80 -16 109
-86 151 -52 32 -93 39 -174 30z m133 -40 c46 -24 77 -56 96 -101 20 -48 2
-117 -41 -157 -38 -36 -153 -69 -184 -53 -10 6 -22 10 -26 9 -42 -7 -84 4
-116 32 -63 54 -62 138 4 213 64 72 186 99 267 57z"/>
<path d="M7098 7203 c-18 -3 -31 -15 -42 -38 -39 -82 -4 -138 86 -137 126 1
168 21 168 79 0 18 -5 33 -11 33 -5 0 -8 4 -4 10 3 5 -4 19 -17 32 -18 18 -35
23 -88 24 -36 1 -77 0 -92 -3z m113 -14 c19 -7 44 -21 55 -31 22 -20 38 -68
23 -68 -5 0 -9 -7 -9 -15 0 -14 -66 -38 -82 -29 -4 3 -8 0 -8 -6 0 -6 -5 -8
-11 -5 -5 4 -25 9 -42 12 -30 4 -77 44 -77 65 0 5 7 22 15 37 13 25 43 41 96
50 3 1 21 -4 40 -10z"/>
<path d="M7168 7143 c-26 -7 -22 -44 8 -69 24 -21 27 -22 45 -6 43 37 5 90
-53 75z"/>
<path d="M4400 7246 c18 -22 110 -69 118 -61 4 4 -2 11 -12 17 -10 6 -26 18
-36 28 -10 10 -33 21 -51 25 -31 7 -32 6 -19 -9z"/>
<path d="M6745 7214 c-30 -14 -30 -14 15 -8 25 4 54 10 65 15 16 6 13 8 -15 8
-19 -1 -48 -7 -65 -15z"/>
<path d="M4606 7150 c5 -5 25 -13 44 -16 33 -6 34 -6 15 9 -22 18 -76 24 -59
7z"/>
<path d="M6760 7150 l-25 -8 28 -1 c15 -1 27 4 27 9 0 6 -1 10 -2 9 -2 -1 -14
-5 -28 -9z"/>
<path d="M4440 7133 c0 -9 24 -26 78 -55 17 -10 32 -14 32 -9 0 13 -59 57 -87
66 -13 3 -23 3 -23 -2z"/>
<path d="M6525 7130 c-3 -5 -2 -10 4 -10 5 0 13 5 16 10 3 6 2 10 -4 10 -5 0
-13 -4 -16 -10z"/>
<path d="M6695 7130 c-3 -5 1 -10 9 -10 9 0 16 5 16 10 0 6 -4 10 -9 10 -6 0
-13 -4 -16 -10z"/>
<path d="M6396 7115 c-3 -8 -1 -15 4 -15 13 0 22 18 11 24 -5 3 -11 -1 -15 -9z"/>
<path d="M6360 7069 c0 -5 5 -7 10 -4 6 3 10 8 10 11 0 2 -4 4 -10 4 -5 0 -10
-5 -10 -11z"/>
<path d="M6775 7070 c-8 -13 15 -13 35 0 12 8 11 10 -7 10 -12 0 -25 -4 -28
-10z"/>
<path d="M6535 7044 c-56 -29 -96 -56 -91 -62 3 -2 12 0 19 6 8 7 40 25 73 42
32 16 52 30 44 30 -8 0 -28 -7 -45 -16z"/>
<path d="M6708 7053 c-16 -2 -28 -9 -28 -14 0 -14 24 -11 46 6 10 8 17 14 14
13 -3 0 -17 -3 -32 -5z"/>
<path d="M4655 7031 c5 -8 107 -51 121 -51 14 0 -12 23 -46 40 -41 21 -86 27
-75 11z"/>
<path d="M7618 7024 c-4 -4 -3 -13 3 -20 6 -8 9 -20 6 -28 -4 -11 7 -15 51
-19 88 -7 132 -8 132 -1 0 11 -42 44 -56 44 -7 0 -14 4 -16 9 -4 12 -111 25
-120 15z m102 -33 c0 -5 8 -12 18 -14 9 -3 3 -5 -15 -6 -31 -1 -49 10 -36 23
10 9 33 7 33 -3z"/>
<path d="M4450 7011 c0 -5 8 -11 18 -14 9 -3 41 -20 71 -37 29 -17 56 -29 58
-26 8 8 -33 42 -78 64 -48 24 -69 27 -69 13z"/>
<path d="M6800 7016 c0 -2 7 -6 15 -10 8 -3 15 -1 15 4 0 6 -7 10 -15 10 -8 0
-15 -2 -15 -4z"/>
<path d="M6730 6990 c0 -13 11 -13 30 0 12 8 11 10 -7 10 -13 0 -23 -4 -23
-10z"/>
<path d="M6310 6940 c-14 -11 -20 -20 -14 -20 6 0 19 9 29 20 23 25 17 25 -15
0z"/>
<path d="M6537 6953 c-13 -13 -7 -21 13 -16 11 3 20 9 20 14 0 10 -24 12 -33
2z"/>
<path d="M4715 6934 c31 -24 117 -65 123 -59 10 10 -30 44 -59 50 -16 4 -31
11 -34 16 -4 5 -16 9 -28 9 -22 -1 -22 -1 -2 -16z"/>
<path d="M6785 6930 c-18 -8 -17 -9 8 -9 15 -1 27 4 27 9 0 12 -8 12 -35 0z"/>
<path d="M6500 6920 c0 -5 5 -10 10 -10 6 0 10 5 10 10 0 6 -4 10 -10 10 -5 0
-10 -4 -10 -10z"/>
<path d="M6618 6906 c-15 -7 -39 -22 -53 -34 -14 -12 -30 -22 -35 -22 -6 0
-10 -4 -10 -10 0 -5 7 -10 15 -10 8 0 15 4 15 9 0 5 8 12 19 16 10 3 29 14 41
25 12 10 27 21 33 23 7 2 10 6 7 9 -3 3 -17 0 -32 -6z"/>
<path d="M6890 6890 c0 -5 4 -10 9 -10 6 0 13 5 16 10 3 6 -1 10 -9 10 -9 0
-16 -4 -16 -10z"/>
<path d="M6845 6883 c-11 -3 -24 -10 -30 -15 -7 -7 -2 -9 15 -4 14 3 31 6 38
6 6 0 12 5 12 10 0 10 -3 11 -35 3z"/>
<path d="M6183 6857 c-6 -7 -23 -21 -37 -32 -34 -27 -33 -42 2 -16 63 47 77
61 62 60 -8 0 -20 -5 -27 -12z"/>
<path d="M4725 6843 c18 -18 115 -66 121 -60 10 9 -4 24 -38 40 -43 20 -96 33
-83 20z"/>
<path d="M7050 6831 c0 -5 -12 -11 -27 -14 -16 -3 -37 -13 -48 -21 -34 -26 4
-19 70 14 50 24 56 29 33 30 -16 0 -28 -4 -28 -9z"/>
<path d="M7160 6830 c0 -13 11 -13 30 0 12 8 11 10 -7 10 -13 0 -23 -4 -23
-10z"/>
<path d="M6873 6818 c-30 -10 -46 -28 -24 -28 19 0 71 23 71 31 0 11 -5 10
-47 -3z"/>
<path d="M6380 6810 c-26 -16 -3 -22 27 -6 23 13 24 15 8 15 -11 1 -27 -3 -35
-9z"/>
<path d="M6588 6798 c-36 -19 -50 -38 -28 -38 8 0 76 42 89 56 12 12 -28 0
-61 -18z"/>
<path d="M7190 6800 c0 -5 4 -10 9 -10 6 0 13 5 16 10 3 6 -1 10 -9 10 -9 0
-16 -4 -16 -10z"/>
<path d="M4600 6792 c0 -11 109 -74 122 -70 6 2 -17 21 -51 41 -66 39 -71 41
-71 29z"/>
<path d="M7268 6775 c-20 -14 -42 -25 -47 -25 -6 0 -11 -4 -11 -10 0 -15 10
-12 46 15 18 14 42 26 53 28 28 4 39 17 15 17 -11 0 -36 -11 -56 -25z"/>
<path d="M6700 6780 c-20 -12 -5 -24 16 -12 9 5 12 12 7 15 -5 3 -15 2 -23 -3z"/>
<path d="M6930 6765 c-11 -13 -10 -14 4 -9 9 3 16 10 16 15 0 13 -6 11 -20 -6z"/>
<path d="M4760 6762 c0 -10 53 -34 113 -52 26 -8 37 -17 35 -28 -2 -10 3 -17
10 -17 6 0 12 3 12 8 0 4 0 13 0 20 0 8 -21 23 -47 34 -105 45 -123 51 -123
35z"/>
<path d="M6230 6735 c-20 -24 -5 -28 21 -6 19 16 20 20 8 21 -9 0 -22 -7 -29
-15z"/>
<path d="M6406 6735 c-4 -13 -2 -14 14 -5 23 13 26 20 6 20 -8 0 -16 -7 -20
-15z"/>
<path d="M6615 6720 c-42 -42 -26 -46 21 -5 22 19 33 34 24 34 -8 0 -28 -13
-45 -29z"/>
<path d="M5970 6705 c-7 -8 -18 -15 -26 -15 -14 0 -29 -18 -21 -26 7 -7 87 38
87 49 0 13 -27 8 -40 -8z"/>
<path d="M6886 6685 c-15 -8 -43 -15 -62 -15 -25 0 -43 -9 -74 -40 -42 -41
-35 -58 7 -18 24 22 98 34 108 17 3 -4 12 -6 20 -2 27 10 15 -12 -18 -33 -22
-13 -31 -26 -29 -40 6 -30 11 -30 53 -7 31 17 39 18 39 7 0 -9 5 -12 10 -9 6
4 8 11 5 16 -4 5 4 14 17 20 13 6 33 27 46 46 22 34 22 35 2 30 -11 -3 -23 -1
-26 4 -3 5 0 9 5 9 6 0 11 4 11 9 0 6 -8 10 -17 10 -10 0 -29 3 -43 6 -14 3
-37 -1 -54 -10z"/>
<path d="M6160 6680 c0 -5 5 -10 10 -10 6 0 10 5 10 10 0 6 -4 10 -10 10 -5 0
-10 -4 -10 -10z"/>
<path d="M6688 6669 c-13 -14 -14 -19 -5 -19 8 0 22 9 32 20 14 15 15 20 4 19
-8 0 -22 -9 -31 -20z"/>
<path d="M5998 6647 c-26 -12 -50 -28 -52 -34 -3 -7 18 -1 47 14 60 31 62 32
56 37 -2 2 -25 -5 -51 -17z"/>
<path d="M6485 6660 c-3 -5 -2 -10 4 -10 5 0 13 5 16 10 3 6 2 10 -4 10 -5 0
-13 -4 -16 -10z"/>
<path d="M7268 6663 c7 -3 16 -2 19 1 4 3 -2 6 -13 5 -11 0 -14 -3 -6 -6z"/>
<path d="M6439 6620 c-31 -26 -15 -26 18 0 14 11 21 20 15 20 -5 0 -20 -9 -33
-20z"/>
<path d="M5720 6619 c-14 -5 -45 -14 -69 -20 -23 -6 -41 -13 -37 -16 4 -5 53
2 171 24 29 5 30 5 13 -14 -26 -28 -22 -32 17 -19 46 16 54 26 27 33 -12 3
-22 9 -22 14 0 11 -67 10 -100 -2z"/>
<path d="M6316 6606 c-54 -31 -113 -86 -93 -86 9 0 17 4 17 9 0 5 8 12 18 16
21 7 87 63 81 69 -2 2 -13 -1 -23 -8z"/>
<path d="M6804 6605 c-16 -12 -16 -14 -3 -15 9 0 22 7 29 15 16 19 0 19 -26 0z"/>
<path d="M6510 6588 c-29 -32 -14 -37 18 -5 14 15 21 27 15 27 -7 0 -21 -10
-33 -22z"/>
<path d="M5368 6591 c-92 -10 -80 -22 18 -17 49 3 97 5 107 5 10 1 15 6 12 11
-7 11 -44 11 -137 1z"/>
<path d="M6030 6589 c-8 -4 -37 -18 -65 -31 -61 -27 -60 -27 -53 -34 5 -4 123
49 137 62 9 9 -5 11 -19 3z"/>
<path d="M5071 6562 c-22 -15 18 -24 85 -17 59 5 86 15 42 15 -14 0 -45 2 -69
5 -24 3 -50 2 -58 -3z"/>
<path d="M5740 6560 c-8 -5 -24 -11 -34 -15 -10 -3 -16 -8 -13 -11 8 -8 77 16
77 27 0 11 -10 11 -30 -1z"/>
<path d="M4978 6553 c7 -3 16 -2 19 1 4 3 -2 6 -13 5 -11 0 -14 -3 -6 -6z"/>
<path d="M6555 6530 c-11 -12 -13 -20 -6 -20 6 0 21 9 33 20 17 15 18 20 6 20
-8 0 -23 -9 -33 -20z"/>
<path d="M6905 6540 c-3 -5 -1 -10 4 -10 6 0 11 5 11 10 0 6 -2 10 -4 10 -3 0
-8 -4 -11 -10z"/>
<path d="M4908 6533 c6 -2 18 -2 25 0 6 3 1 5 -13 5 -14 0 -19 -2 -12 -5z"/>
<path d="M4631 6514 c-18 -8 -41 -14 -50 -14 -19 0 -48 -17 -41 -24 6 -5 119
20 127 28 3 2 3 9 2 15 -3 6 -17 4 -38 -5z"/>
<path d="M5391 6511 c-30 -10 -49 -21 -43 -25 6 -4 20 -2 31 4 11 5 35 10 53
11 18 0 51 6 73 14 l40 13 -50 0 c-27 0 -74 -8 -104 -17z"/>
<path d="M6058 6513 c-10 -2 -18 -9 -18 -14 0 -14 26 -11 40 6 13 15 9 16 -22
8z"/>
<path d="M6855 6510 c-3 -5 -2 -10 4 -10 5 0 13 5 16 10 3 6 2 10 -4 10 -5 0
-13 -4 -16 -10z"/>
<path d="M5770 6503 c0 -5 -25 -19 -55 -32 -30 -14 -52 -28 -49 -32 5 -8 84
29 119 55 18 14 18 15 3 16 -10 0 -18 -3 -18 -7z"/>
<path d="M6330 6499 c0 -5 5 -7 10 -4 6 3 10 8 10 11 0 2 -4 4 -10 4 -5 0 -10
-5 -10 -11z"/>
<path d="M6625 6499 c-11 -17 1 -21 15 -4 8 9 8 15 2 15 -6 0 -14 -5 -17 -11z"/>
<path d="M5189 6486 c-4 -4 -70 -15 -93 -16 -6 0 -5 -5 1 -11 14 -14 135 9
127 23 -5 8 -28 11 -35 4z"/>
<path d="M6286 6465 c-11 -8 -15 -15 -10 -15 6 0 19 7 30 15 10 8 15 14 9 14
-5 0 -19 -6 -29 -14z"/>
<path d="M6590 6469 c0 -5 5 -7 10 -4 6 3 10 8 10 11 0 2 -4 4 -10 4 -5 0 -10
-5 -10 -11z"/>
<path d="M6688 6455 c-41 -27 -52 -41 -39 -49 5 -3 24 8 42 24 19 16 37 30 42
30 4 0 7 5 7 10 0 15 -11 12 -52 -15z"/>
<path d="M5457 6452 c-32 -8 -55 -18 -50 -23 8 -8 113 13 158 32 35 14 -44 8
-108 -9z"/>
<path d="M4395 6430 c-66 -27 -95 -50 -61 -50 16 0 87 36 127 63 32 23 16 20
-66 -13z"/>
<path d="M4662 6435 c-30 -14 -65 -25 -77 -25 -23 0 -42 -16 -32 -26 12 -12
167 50 167 66 0 13 3 14 -58 -15z"/>
<path d="M5797 6443 c-10 -9 -9 -23 1 -23 5 0 17 7 28 15 19 14 19 14 -2 15
-11 0 -24 -3 -27 -7z"/>
<path d="M6075 6433 c-35 -18 -75 -53 -75 -65 0 -5 12 0 26 11 15 12 32 21 38
21 6 1 25 12 41 25 33 28 17 32 -30 8z"/>
<path d="M7000 6441 c0 -5 -10 -11 -23 -15 -46 -11 -243 -226 -207 -226 5 0
24 19 41 43 28 38 80 88 185 174 27 23 34 33 22 33 -10 0 -18 -4 -18 -9z"/>
<path d="M4880 6425 c-26 -8 -37 -14 -25 -15 31 -4 54 0 88 15 30 13 30 14 7
14 -14 -1 -45 -7 -70 -14z"/>
<path d="M5339 6420 c-20 -13 -5 -22 21 -12 18 7 20 10 8 14 -8 4 -21 2 -29
-2z"/>
<path d="M6378 6413 c-9 -10 -28 -28 -43 -41 -15 -12 -25 -26 -21 -29 6 -6 93
66 95 80 2 13 -14 8 -31 -10z"/>
<path d="M5758 6413 c7 -3 16 -2 19 1 4 3 -2 6 -13 5 -11 0 -14 -3 -6 -6z"/>
<path d="M6712 6393 c-12 -15 -20 -28 -18 -30 5 -5 56 42 56 51 0 13 -16 4
-38 -21z"/>
<path d="M6150 6390 c-19 -10 -42 -22 -50 -26 -16 -8 -39 -35 -40 -46 0 -8
118 70 126 84 7 11 5 10 -36 -12z"/>
<path d="M5685 6384 l-30 -14 30 6 c31 6 41 11 34 18 -2 2 -17 -2 -34 -10z"/>
<path d="M5205 6382 c-30 -10 -61 -30 -55 -36 8 -7 100 25 100 35 0 10 -15 10
-45 1z"/>
<path d="M5840 6380 c0 -5 6 -10 14 -10 8 0 18 5 21 10 3 6 -3 10 -14 10 -12
0 -21 -4 -21 -10z"/>
<path d="M6546 6369 c-19 -19 -17 -37 3 -24 14 8 34 45 24 44 -4 0 -17 -9 -27
-20z"/>
<path d="M5535 6370 c-3 -5 3 -10 14 -10 11 0 23 5 26 10 3 6 -3 10 -14 10
-11 0 -23 -4 -26 -10z"/>
<path d="M4055 6340 c-22 -15 -25 -20 -12 -20 20 0 87 26 87 34 0 13 -47 4
-75 -14z"/>
<path d="M5480 6353 c-14 -3 -29 -8 -35 -13 -5 -4 -23 -10 -39 -14 -15 -4 -26
-10 -22 -13 8 -8 136 27 136 38 0 5 -3 8 -7 8 -5 -1 -19 -4 -33 -6z"/>
<path d="M4395 6324 c-22 -13 -50 -24 -62 -24 -12 0 -25 -5 -29 -12 -5 -8 2
-9 27 -4 43 8 119 45 119 57 0 13 -10 10 -55 -17z"/>
<path d="M4660 6325 c-25 -13 -54 -27 -65 -31 -16 -6 -17 -8 -4 -11 21 -5 142
39 147 55 6 18 -27 13 -78 -13z"/>
<path d="M5764 6335 c-18 -14 -18 -14 4 -8 12 3 22 9 22 14 0 12 -3 11 -26 -6z"/>
<path d="M4908 6323 c-10 -2 -18 -9 -18 -14 0 -14 42 -10 70 6 l25 14 -30 -1
c-16 0 -38 -2 -47 -5z"/>
<path d="M5884 6305 c-10 -8 -14 -15 -8 -15 5 0 19 7 30 15 10 8 14 15 8 15
-5 0 -19 -7 -30 -15z"/>
<path d="M6140 6290 c-16 -14 -19 -20 -8 -20 8 0 23 9 33 20 10 11 14 20 8 20
-5 0 -20 -9 -33 -20z"/>
<path d="M4195 6290 c-19 -8 -19 -9 2 -9 12 -1 25 4 28 9 7 12 -2 12 -30 0z"/>
<path d="M5598 6293 c7 -3 16 -2 19 1 4 3 -2 6 -13 5 -11 0 -14 -3 -6 -6z"/>
<path d="M6377 6275 c-15 -14 -27 -31 -27 -37 0 -7 16 3 35 22 19 19 35 35 35
37 0 10 -19 0 -43 -22z"/>
<path d="M6548 6281 c-10 -10 -18 -21 -18 -26 0 -4 -8 -14 -17 -21 -10 -7 -13
-14 -7 -14 6 0 27 18 48 40 35 38 30 58 -6 21z"/>
<path d="M6690 6290 c0 -5 5 -10 10 -10 6 0 10 5 10 10 0 6 -4 10 -10 10 -5 0
-10 -4 -10 -10z"/>
<path d="M3925 6274 c-21 -8 -42 -18 -45 -23 -3 -4 -12 -11 -20 -14 -12 -4
-12 -6 2 -6 24 -1 108 37 108 49 0 5 -1 10 -2 9 -2 0 -21 -7 -43 -15z"/>
<path d="M5256 6281 c-3 -4 -20 -11 -37 -15 -18 -3 -29 -9 -26 -13 6 -6 67 9
112 27 17 7 15 9 -12 9 -17 1 -34 -3 -37 -8z"/>
<path d="M4132 6269 c-18 -3 -36 -9 -39 -13 -10 -10 51 -7 67 4 21 13 9 18
-28 9z"/>
<path d="M5800 6260 c-13 -11 -27 -20 -32 -20 -4 0 -8 -4 -8 -10 0 -5 3 -10 8
-10 12 1 78 59 66 60 -6 0 -21 -9 -34 -20z"/>
<path d="M5503 6263 c-13 -2 -23 -9 -23 -14 0 -10 32 -4 60 12 13 7 13 8 0 7
-8 0 -25 -3 -37 -5z"/>
<path d="M6226 6255 c-3 -8 -12 -15 -20 -15 -7 0 -16 -7 -19 -15 -5 -11 -2
-12 17 -4 23 11 53 49 37 49 -5 0 -11 -7 -15 -15z"/>
<path d="M6629 6253 c-8 -10 -21 -27 -29 -38 -14 -17 -12 -17 16 2 43 31 61
53 42 53 -8 0 -21 -8 -29 -17z"/>
<path d="M4688 6237 c-21 -6 -38 -14 -38 -19 0 -16 58 -8 81 12 27 22 16 24
-43 7z"/>
<path d="M6077 6230 c-9 -11 -13 -20 -8 -20 4 0 16 9 26 20 10 11 14 20 9 20
-5 0 -17 -9 -27 -20z"/>
<path d="M4433 6217 c-23 -12 -42 -25 -43 -29 0 -11 28 -10 35 2 3 5 24 14 45
20 22 6 40 15 40 20 0 16 -32 10 -77 -13z"/>
<path d="M5000 6225 c0 -13 4 -14 20 -5 11 6 20 13 20 15 0 3 -9 5 -20 5 -11
0 -20 -7 -20 -15z"/>
<path d="M5613 6226 c-13 -6 -23 -14 -23 -18 0 -5 -7 -8 -15 -8 -8 0 -15 -5
-15 -11 0 -6 15 -2 33 9 17 11 39 21 47 24 7 2 10 7 5 9 -6 3 -20 1 -32 -5z"/>
<path d="M6445 6220 c-21 -23 -9 -26 18 -6 10 8 14 17 9 20 -5 3 -17 -3 -27
-14z"/>
<path d="M5310 6214 c-14 -7 -33 -14 -42 -14 -10 0 -18 -4 -18 -9 0 -13 66 -2
115 20 l40 18 -35 -1 c-19 0 -46 -6 -60 -14z"/>
<path d="M5912 6217 c-12 -7 -20 -16 -16 -19 8 -8 54 12 54 24 0 11 -11 10
-38 -5z"/>
<path d="M4939 6204 l-24 -13 32 -1 c33 0 52 14 30 23 -7 3 -24 -1 -38 -9z"/>
<path d="M4250 6200 c-12 -8 -11 -10 8 -10 12 0 22 5 22 10 0 13 -11 13 -30 0z"/>
<path d="M3966 6192 c-3 -5 -34 -17 -71 -27 -37 -11 -61 -23 -56 -28 5 -5 42
5 87 23 88 35 96 40 66 40 -11 0 -23 -4 -26 -8z"/>
<path d="M6275 6180 c-3 -5 -1 -10 4 -10 6 0 11 5 11 10 0 6 -2 10 -4 10 -3 0
-8 -4 -11 -10z"/>
<path d="M4183 6173 c-13 -2 -23 -8 -23 -13 0 -4 -12 -11 -26 -14 -17 -5 -23
-11 -17 -17 10 -10 113 29 113 43 0 8 -9 8 -47 1z"/>
<path d="M5830 6160 c-14 -11 -21 -20 -17 -20 11 0 67 29 67 35 0 11 -27 3
-50 -15z"/>
<path d="M6130 6169 c0 -5 5 -7 10 -4 6 3 10 8 10 11 0 2 -4 4 -10 4 -5 0 -10
-5 -10 -11z"/>
<path d="M6392 6159 c-7 -12 -11 -24 -8 -27 6 -6 35 27 36 41 0 14 -15 7 -28
-14z"/>
<path d="M6510 6165 c-8 -9 -8 -15 -2 -15 12 0 26 19 19 26 -2 2 -10 -2 -17
-11z"/>
<path d="M6734 6163 c-4 -10 -8 -20 -9 -23 -1 -3 -5 -12 -8 -20 -36 -86 -22
-89 17 -4 29 63 29 64 17 64 -5 0 -12 -8 -17 -17z"/>
<path d="M4705 6163 c-11 -3 -24 -10 -30 -15 -12 -12 95 -2 129 12 15 6 8 9
-29 8 -27 0 -59 -2 -70 -5z"/>
<path d="M5090 6160 c0 -5 5 -10 10 -10 6 0 10 5 10 10 0 6 -4 10 -10 10 -5 0
-10 -4 -10 -10z"/>
<path d="M5415 6160 c-3 -5 -16 -10 -28 -10 -12 0 -35 -10 -52 -21 l-30 -21
30 7 c53 11 115 37 109 46 -7 12 -21 11 -29 -1z"/>
<path d="M5013 6148 c-29 -10 -46 -28 -25 -28 19 0 82 22 87 30 8 12 -20 11
-62 -2z"/>
<path d="M5648 6153 c-10 -2 -18 -9 -18 -14 0 -13 13 -11 36 6 19 14 14 17
-18 8z"/>
<path d="M5965 6150 c-3 -5 -2 -10 4 -10 5 0 13 5 16 10 3 6 2 10 -4 10 -5 0
-13 -4 -16 -10z"/>
<path d="M3652 6128 c-24 -11 -42 -22 -39 -24 7 -8 57 7 57 17 0 5 7 6 15 3 8
-3 22 1 30 10 15 15 15 16 -2 15 -10 0 -38 -10 -61 -21z"/>
<path d="M4560 6143 c-8 -4 -21 -12 -28 -20 -7 -7 -24 -13 -38 -13 -14 0 -24
-6 -24 -14 0 -12 7 -12 38 -4 20 6 49 17 65 24 42 22 32 44 -13 27z"/>
<path d="M6220 6135 c0 -13 4 -14 20 -5 11 6 20 13 20 15 0 3 -9 5 -20 5 -11
0 -20 -7 -20 -15z"/>
<path d="M4060 6132 c0 -12 -78 -49 -132 -63 -27 -6 -48 -15 -48 -20 0 -13 10
-11 71 10 81 28 129 53 129 68 0 7 -4 13 -10 13 -5 0 -10 -4 -10 -8z"/>
<path d="M6456 6115 c-38 -40 -32 -55 6 -18 18 18 29 35 26 39 -4 3 -18 -6
-32 -21z"/>
<path d="M4300 6116 c-14 -6 -39 -21 -55 -32 -17 -12 -45 -25 -62 -29 -33 -7
-46 -25 -18 -25 17 0 118 50 150 73 26 20 17 27 -15 13z"/>
<path d="M5900 6100 c-43 -39 -16 -39 30 0 22 19 29 30 19 30 -8 0 -31 -13
-49 -30z"/>
<path d="M6282 6079 c-29 -28 -52 -55 -52 -61 0 -6 19 8 43 30 23 22 53 50 67
61 18 15 21 20 9 21 -8 0 -38 -23 -67 -51z"/>
<path d="M6585 6099 c-14 -17 -24 -34 -21 -36 6 -6 55 48 56 60 0 13 -8 7 -35
-24z"/>
<path d="M5160 6110 c-8 -5 -12 -12 -8 -15 9 -9 48 4 48 16 0 12 -21 11 -40
-1z"/>
<path d="M5575 6100 c-16 -17 -16 -20 -3 -15 9 4 19 13 22 21 7 19 2 18 -19
-6z"/>
<path d="M6035 6091 c-51 -33 -121 -100 -104 -101 8 0 36 20 61 44 26 24 55
49 65 54 10 6 15 13 12 16 -3 3 -18 -3 -34 -13z"/>
<path d="M6656 6101 c-4 -7 -5 -15 -2 -18 9 -9 19 4 14 18 -4 11 -6 11 -12 0z"/>
<path d="M5073 6086 c-47 -11 -58 -26 -19 -26 31 0 92 26 75 31 -8 3 -33 0
-56 -5z"/>
<path d="M4650 6050 c-19 -10 -57 -28 -83 -39 -27 -11 -46 -25 -42 -31 7 -11
69 12 95 35 9 8 21 15 26 15 13 1 61 40 49 40 -5 0 -26 -9 -45 -20z"/>
<path d="M5383 6063 c-7 -2 -13 -9 -13 -14 0 -14 34 -11 56 6 18 14 18 14 -6
14 -14 0 -31 -3 -37 -6z"/>
<path d="M5675 6060 c-3 -5 -1 -10 4 -10 6 0 11 5 11 10 0 6 -2 10 -4 10 -3 0
-8 -4 -11 -10z"/>
<path d="M6365 6060 c-3 -5 -2 -10 4 -10 5 0 13 5 16 10 3 6 2 10 -4 10 -5 0
-13 -4 -16 -10z"/>
<path d="M3703 6042 c-43 -18 -64 -32 -45 -32 15 0 102 38 102 45 0 8 -11 5
-57 -13z"/>
<path d="M4750 6050 c0 -5 6 -10 14 -10 8 0 18 5 21 10 3 6 -3 10 -14 10 -12
0 -21 -4 -21 -10z"/>
<path d="M5203 6050 c-13 -5 -23 -12 -23 -15 0 -10 27 -5 46 10 21 16 11 18
-23 5z"/>
<path d="M6616 5974 c-15 -47 -25 -91 -23 -97 2 -7 9 4 14 23 6 19 20 59 32
88 23 58 25 72 12 72 -5 0 -21 -39 -35 -86z"/>
<path d="M4076 6035 c-10 -8 -42 -22 -70 -31 -51 -16 -80 -33 -73 -41 6 -5
127 41 156 58 21 14 28 29 14 29 -5 0 -17 -7 -27 -15z"/>
<path d="M5500 6033 c0 -10 12 -48 26 -85 25 -64 52 -101 137 -191 20 -22 37
-44 37 -48 0 -4 8 -10 18 -13 9 -3 26 -19 37 -36 11 -16 26 -30 33 -30 6 0 12
-6 12 -13 0 -15 39 -48 150 -130 80 -59 143 -111 169 -139 8 -10 21 -18 28
-18 8 0 33 -18 57 -40 24 -22 58 -47 77 -55 19 -9 45 -23 59 -30 14 -8 33 -15
42 -15 9 0 20 -5 23 -10 8 -13 190 -99 219 -103 11 -1 33 -11 47 -20 25 -16
112 -36 324 -71 44 -8 91 -17 105 -20 14 -4 55 -8 91 -10 37 -2 73 -7 80 -12
7 -4 34 -9 59 -10 89 -5 226 -36 285 -65 34 -16 67 -29 75 -29 25 0 130 -53
130 -66 0 -16 66 -65 90 -67 11 -1 20 -4 20 -8 0 -4 7 -9 15 -13 9 -3 15 0 15
9 0 8 -12 18 -26 21 -17 4 -22 10 -16 16 7 7 20 4 39 -9 15 -11 35 -23 43 -27
40 -18 116 -65 248 -155 29 -20 61 -41 70 -46 62 -37 215 -141 258 -175 28
-22 55 -40 59 -40 5 0 15 -7 24 -15 9 -8 36 -32 60 -52 60 -52 141 -161 141
-190 0 -23 -2 -23 -52 -17 -29 4 -75 18 -103 31 -27 12 -55 23 -60 23 -6 0
-42 20 -79 45 -38 25 -72 45 -75 45 -8 0 -94 80 -86 80 3 0 -8 13 -25 30 -16
16 -30 34 -30 40 0 5 -9 10 -21 10 -14 0 -19 5 -16 14 10 25 -57 68 -101 64
l-37 -3 32 -20 c17 -11 69 -56 115 -100 104 -99 117 -110 198 -162 80 -52 92
-70 80 -114 -13 -44 5 -64 21 -23 6 16 12 34 13 39 1 6 4 11 6 13 11 7 105
-44 108 -58 11 -54 51 -106 140 -180 23 -19 59 -52 81 -72 44 -42 69 -51 51
-18 -6 11 -14 20 -18 20 -12 0 -77 63 -100 97 -13 17 -31 35 -42 38 -11 4 -20
12 -20 20 0 7 -17 29 -37 49 -44 43 -38 55 33 60 68 5 67 4 61 19 -3 8 -2 19
2 26 6 10 11 10 22 -1 8 -7 41 -33 74 -58 33 -24 69 -54 81 -65 11 -11 40 -36
64 -55 23 -19 64 -53 90 -75 25 -22 64 -53 84 -70 21 -16 52 -45 70 -64 17
-18 57 -53 88 -77 31 -24 63 -51 71 -58 7 -8 43 -38 78 -67 35 -29 107 -94
159 -144 348 -331 359 -343 366 -371 5 -20 3 -22 -18 -17 -24 6 -110 62 -116
76 -2 4 -9 7 -16 7 -7 0 -23 9 -36 20 -13 11 -27 20 -32 20 -10 0 -31 16 -56
43 -9 9 -23 17 -30 17 -8 0 -22 10 -32 23 -10 12 -35 31 -56 42 -22 11 -56 36
-76 56 -20 20 -51 42 -70 49 -18 8 -37 20 -41 27 -4 7 -15 13 -22 13 -8 0 -15
3 -15 8 0 4 -23 20 -50 35 -28 16 -70 45 -94 65 -74 62 -196 142 -196 128 0
-5 120 -98 169 -131 24 -16 51 -34 59 -40 51 -35 152 -133 152 -148 0 -5 8 -6
17 -3 9 4 19 3 22 -3 8 -12 114 -91 123 -91 4 0 19 -11 34 -25 15 -14 32 -25
37 -25 6 0 20 -9 31 -19 95 -87 332 -221 391 -221 33 0 31 12 -5 52 -17 18
-50 58 -74 88 -24 30 -63 71 -86 90 -49 41 -97 86 -162 155 -25 28 -59 62 -75
76 -15 15 -35 35 -44 45 -9 11 -27 26 -40 34 -13 8 -36 27 -52 42 -15 15 -38
34 -49 42 -32 23 -126 105 -199 176 -38 36 -102 97 -145 135 -42 39 -95 88
-118 110 -39 38 -73 66 -138 118 -25 20 -76 70 -184 182 -21 23 -58 50 -81 60
-24 11 -43 23 -43 27 0 4 -37 33 -82 64 -46 32 -84 62 -86 66 -2 4 -9 8 -16 8
-6 0 -19 8 -28 18 -30 30 -52 49 -83 68 -16 10 -34 22 -40 27 -58 45 -217 157
-223 157 -11 0 -95 62 -105 77 -4 7 -14 13 -21 13 -6 0 -30 13 -53 30 -22 16
-49 31 -59 33 -31 6 -72 25 -79 36 -3 6 -17 11 -30 11 -13 0 -59 14 -102 30
-88 34 -226 70 -269 70 -16 0 -45 5 -64 10 -19 6 -73 13 -119 15 -46 3 -92 10
-102 15 -10 6 -35 10 -56 10 -21 0 -51 7 -68 16 -16 8 -70 20 -120 25 -49 5
-119 19 -155 29 -36 11 -81 23 -100 26 -29 5 -250 104 -300 134 -8 5 -34 18
-57 29 -24 11 -43 24 -43 30 0 5 -10 13 -22 17 -12 3 -26 10 -32 15 -48 40
-60 49 -65 49 -3 0 -24 16 -46 35 -22 20 -58 48 -80 63 -22 14 -50 37 -62 49
-12 13 -27 23 -33 23 -5 0 -10 4 -10 9 0 4 -19 21 -42 37 -24 16 -45 32 -48
35 -3 3 -13 8 -22 12 -10 3 -18 13 -18 21 0 8 -9 21 -19 29 -22 15 -121 135
-121 147 0 4 -16 24 -35 44 -19 21 -35 42 -35 47 0 5 -4 9 -10 9 -19 0 -10 20
23 50 17 16 38 30 45 30 6 0 12 5 12 11 0 14 -42 1 -56 -17 -17 -22 -49 -16
-64 11 -15 29 -30 33 -30 8z"/>
<path d="M6066 6013 c-27 -21 -43 -39 -37 -41 12 -4 76 45 85 66 8 18 4 16
-48 -25z"/>
<path d="M3486 6028 c-16 -6 -40 -17 -55 -24 -20 -11 -22 -14 -8 -14 22 0 85
28 93 41 6 10 8 11 -30 -3z"/>
<path d="M6345 6032 c-18 -12 -55 -69 -55 -84 0 -7 16 5 35 26 38 43 50 80 20
58z"/>
<path d="M4345 6010 c-20 -13 -24 -20 -14 -20 18 0 71 39 54 40 -5 0 -23 -9
-40 -20z"/>
<path d="M4915 6014 c-37 -19 -51 -32 -43 -40 6 -5 88 44 88 52 0 8 -16 4 -45
-12z"/>
<path d="M5132 6022 c-25 -8 -27 -29 -2 -24 29 6 40 11 40 22 0 11 -4 11 -38
2z"/>
<path d="M5730 6000 c0 -5 4 -10 9 -10 6 0 13 5 16 10 3 6 -1 10 -9 10 -9 0
-16 -4 -16 -10z"/>
<path d="M5232 5993 c-34 -4 -109 -43 -83 -43 25 0 121 33 121 42 0 4 -1 7 -2
6 -2 0 -18 -3 -36 -5z"/>
<path d="M6106 5945 c-33 -30 -57 -57 -55 -60 3 -2 29 18 57 45 29 28 57 50
63 50 5 0 9 5 9 10 0 19 -15 10 -74 -45z"/>
<path d="M6456 5984 c-11 -28 -6 -39 9 -20 8 11 15 23 15 28 0 14 -18 9 -24
-8z"/>
<path d="M6509 5957 c-31 -50 -47 -93 -30 -83 15 10 74 126 64 126 -5 0 -20
-19 -34 -43z"/>
<path d="M3858 5983 c7 -3 16 -2 19 1 4 3 -2 6 -13 5 -11 0 -14 -3 -6 -6z"/>
<path d="M4280 5975 c-10 -12 -10 -15 4 -15 9 0 16 7 16 15 0 8 -2 15 -4 15
-2 0 -9 -7 -16 -15z"/>
<path d="M4713 5973 c-13 -8 -23 -19 -23 -24 0 -16 24 -9 55 16 26 21 27 25
10 24 -11 0 -30 -7 -42 -16z"/>
<path d="M5670 5960 c-19 -17 -28 -30 -21 -30 17 0 71 39 71 51 0 15 -13 10
-50 -21z"/>
<path d="M2697 5970 c-16 -10 -14 -15 19 -56 37 -45 30 -59 -17 -33 -23 12
-161 23 -272 22 -60 -1 -84 -6 -98 -19 -19 -17 -18 -18 28 -41 27 -12 52 -23
56 -23 4 0 18 -9 30 -21 l22 -20 -145 5 c-80 3 -185 6 -235 7 -90 2 -212 -16
-230 -32 -5 -5 -25 -9 -45 -9 -56 0 -69 -15 -30 -35 73 -38 141 -54 221 -54
84 0 95 -2 84 -20 -8 -14 -79 -14 -123 -1 -33 9 -66 -1 -83 -24 -4 -4 -15 -4
-25 1 -26 14 -171 -7 -339 -48 -65 -15 -114 -46 -115 -72 0 -19 74 -38 146
-36 87 2 107 -7 37 -16 -26 -3 -57 -10 -68 -15 -34 -15 -109 -34 -127 -31 -10
1 -18 -2 -18 -6 0 -5 -21 -15 -47 -22 -101 -28 -223 -79 -223 -93 0 -5 -5 -8
-11 -8 -7 0 -27 -10 -46 -21 -43 -27 -38 -32 72 -81 70 -31 93 -36 183 -40 56
-3 105 -8 109 -11 9 -9 -17 -37 -34 -37 -21 0 -105 -62 -96 -70 5 -4 44 -17
88 -28 61 -16 98 -20 155 -16 105 7 153 11 165 14 24 6 75 -1 75 -10 0 -5 -7
-10 -15 -10 -8 0 -15 -4 -15 -10 0 -5 -4 -10 -9 -10 -14 0 -93 -54 -115 -79
-11 -12 -24 -21 -30 -21 -6 -1 -31 -21 -56 -45 l-45 -45 50 -1 c28 0 93 -2
145 -5 76 -4 110 -1 170 16 95 27 190 48 190 43 0 -8 -69 -68 -82 -71 -20 -5
-138 -128 -138 -144 0 -11 15 -17 46 -22 62 -8 169 -8 178 1 3 4 40 16 80 28
69 20 73 20 62 3 -6 -10 -18 -20 -26 -23 -17 -6 -90 -112 -90 -132 0 -7 -5
-13 -11 -13 -6 0 -9 -5 -7 -12 5 -13 115 -16 165 -4 100 24 108 28 90 38 -10
5 -27 6 -40 2 -24 -8 -101 -7 -129 2 -31 9 -20 30 56 108 48 50 90 83 122 97
27 12 73 32 103 46 30 14 64 26 76 28 13 1 54 19 91 41 38 21 89 49 114 61 61
31 114 65 138 86 11 10 41 20 67 23 26 2 55 9 65 14 10 6 27 10 37 10 10 1 32
7 48 15 29 13 28 14 -28 9 -32 -3 -77 -12 -99 -20 -22 -8 -50 -14 -62 -14 -11
0 -31 -11 -44 -24 -12 -13 -58 -41 -102 -62 -44 -21 -80 -42 -80 -45 0 -4 -15
-11 -32 -14 -18 -4 -35 -10 -38 -14 -8 -10 -136 -71 -150 -71 -7 0 -31 -8 -54
-19 -51 -23 -158 -60 -211 -73 -22 -5 -48 -14 -57 -19 -10 -5 -58 -11 -108
-14 -105 -5 -112 3 -59 68 38 46 233 176 289 192 50 15 214 87 227 101 8 8 19
14 24 14 5 0 39 14 76 31 105 47 113 52 113 60 0 8 -74 -22 -87 -34 -3 -4 -15
-7 -25 -7 -10 0 -44 -13 -76 -29 -31 -16 -79 -40 -107 -53 -27 -13 -52 -26
-55 -29 -3 -3 -22 -9 -44 -12 -21 -3 -46 -13 -56 -22 -9 -8 -25 -15 -36 -15
-10 -1 -30 -7 -44 -15 -14 -8 -42 -14 -62 -15 -20 0 -39 -4 -42 -9 -4 -5 -30
-12 -59 -16 -28 -3 -65 -10 -82 -15 -41 -12 -238 -21 -253 -11 -7 4 -10 18 -8
32 3 13 5 27 5 32 1 4 9 7 19 7 11 0 27 9 37 20 10 11 39 32 64 47 25 14 48
29 51 32 16 19 103 50 155 56 33 4 74 11 91 16 17 5 46 11 63 14 66 8 148 31
366 100 57 19 143 59 105 50 -57 -14 -131 -35 -230 -65 -58 -17 -123 -36 -145
-42 -22 -5 -49 -14 -60 -19 -11 -5 -51 -13 -89 -19 -38 -6 -73 -13 -77 -15 -4
-3 -60 -7 -125 -10 -66 -2 -157 -7 -204 -11 -47 -4 -92 -7 -100 -7 -30 1 -106
13 -134 21 l-30 8 30 21 c67 48 146 74 234 79 200 10 274 22 283 47 3 9 7 9
20 -1 12 -10 28 -11 73 -3 32 6 61 16 65 22 4 7 17 9 30 6 25 -7 110 10 249
48 47 13 105 29 129 35 27 7 40 15 34 21 -6 6 -26 4 -54 -5 -150 -47 -277 -73
-409 -85 -8 -1 -53 -6 -100 -12 -47 -5 -107 -11 -135 -13 -27 -2 -66 -7 -85
-10 -19 -4 -107 -9 -195 -12 -88 -3 -164 -9 -168 -14 -5 -4 -25 -4 -45 1 -20
5 -51 9 -67 9 -17 0 -48 9 -70 20 -22 11 -44 20 -51 20 -6 0 -17 6 -23 14 -14
17 8 32 106 70 40 15 75 32 79 37 3 5 14 9 25 9 10 0 38 9 62 19 51 23 165 51
206 51 16 0 60 7 98 16 98 23 237 43 403 59 80 8 181 19 226 24 44 5 116 10
160 10 43 -1 90 0 104 1 24 2 24 2 -5 11 -43 14 -322 3 -615 -24 -85 -7 -183
-12 -217 -11 -35 2 -63 0 -63 -4 0 -4 -25 -7 -55 -7 -30 0 -55 3 -55 8 0 4
-14 7 -31 7 -24 0 -30 3 -25 16 3 9 6 18 6 20 0 2 11 2 25 -2 16 -4 25 -2 25
5 0 7 14 11 33 11 17 -1 52 4 77 10 25 7 63 14 85 16 22 2 72 9 110 14 39 6
124 13 190 15 66 2 174 6 240 9 100 4 328 -12 395 -27 15 -4 9 -8 -37 -22 -11
-4 -13 -9 -7 -15 11 -11 147 19 180 39 15 10 9 11 -36 6 -66 -7 -130 16 -107
39 7 8 24 17 37 21 38 12 131 64 163 91 16 13 34 24 40 24 7 0 46 23 87 50 41
28 80 50 86 50 7 0 27 14 45 32 l34 31 -30 -7 c-16 -4 -37 -14 -47 -22 -10
-10 -18 -12 -22 -5 -4 6 -26 15 -49 21 -23 6 -51 15 -62 20 -25 11 -113 28
-140 28 -11 0 -45 2 -75 6 -34 4 -62 2 -73 -4z m150 -30 c43 -6 89 -15 103
-20 14 -5 44 -14 68 -20 25 -6 42 -17 42 -25 0 -8 -6 -15 -14 -15 -7 0 -20 -7
-27 -16 -10 -13 -24 -15 -63 -9 -28 3 -55 10 -61 14 -5 4 -31 15 -58 25 -52
19 -77 40 -77 62 0 8 2 14 4 14 3 0 40 -5 83 -10z m-247 -71 c52 -6 113 -12
135 -14 22 -3 56 -9 75 -14 19 -5 57 -16 84 -23 l49 -14 -34 -25 c-72 -53 -89
-61 -105 -48 -7 6 -26 9 -41 6 -33 -6 -124 9 -133 22 -3 5 -18 13 -33 16 -15
4 -30 11 -33 16 -3 5 -13 9 -24 9 -22 0 -120 50 -120 61 0 8 28 15 65 17 11 1
63 -3 115 -9z m-222 -114 c46 -3 120 -11 165 -16 45 -6 110 -14 145 -18 34 -4
67 -12 74 -19 9 -9 9 -12 -3 -12 -8 0 -34 -14 -58 -31 -39 -29 -48 -31 -120
-31 -44 0 -87 5 -98 10 -10 6 -68 14 -128 17 -61 4 -114 11 -120 15 -5 5 -62
11 -125 15 -63 3 -126 10 -140 15 -14 5 -38 12 -55 16 l-30 7 36 8 c75 17 96
20 164 26 39 3 71 6 72 7 3 3 131 -2 221 -9z m-901 -241 c-3 -3 -12 -4 -19 -1
-8 3 -5 6 6 6 11 1 17 -2 13 -5z m-120 -480 c-3 -3 -12 -4 -19 -1 -8 3 -5 6 6
6 11 1 17 -2 13 -5z"/>
<path d="M3787 5956 c-8 -8 -31 -18 -51 -21 -20 -4 -36 -12 -36 -17 0 -6 13
-7 33 -3 49 11 97 33 97 44 0 16 -26 13 -43 -3z"/>
<path d="M4107 5950 c-14 -11 -34 -20 -44 -20 -25 0 -96 -37 -85 -44 17 -10
162 56 162 74 0 14 -4 13 -33 -10z"/>
<path d="M4240 5950 c0 -5 5 -10 10 -10 6 0 10 5 10 10 0 6 -4 10 -10 10 -5 0
-10 -4 -10 -10z"/>
<path d="M4765 5950 c4 -6 11 -8 16 -5 14 9 11 15 -7 15 -8 0 -12 -5 -9 -10z"/>
<path d="M4455 5937 c-16 -7 -32 -15 -35 -18 -3 -3 -31 -19 -63 -34 -63 -29
-70 -44 -14 -26 43 14 144 69 152 82 7 11 -1 10 -40 -4z"/>
<path d="M6204 5929 c-19 -22 -19 -22 3 -10 24 12 39 31 25 31 -5 0 -17 -10
-28 -21z"/>
<path d="M3535 5933 c-11 -2 -31 -13 -45 -23 -33 -26 -8 -26 48 0 57 26 56 35
-3 23z"/>
<path d="M4623 5924 c-28 -14 -44 -34 -28 -34 10 0 85 40 85 45 0 10 -25 4
-57 -11z"/>
<path d="M5340 5933 c-8 -4 -21 -13 -29 -21 -13 -13 -12 -14 9 -7 14 4 32 13
40 21 15 14 7 17 -20 7z"/>
<path d="M3268 5909 c-74 -19 -116 -43 -99 -54 6 -3 18 1 27 9 8 9 24 16 33
16 19 0 111 38 111 45 0 3 -1 4 -2 4 -2 -1 -33 -10 -70 -20z"/>
<path d="M4973 5911 c-28 -23 -29 -31 -5 -31 10 0 29 11 42 25 22 23 22 25 4
25 -10 -1 -29 -9 -41 -19z"/>
<path d="M5723 5900 c-10 -11 -23 -20 -30 -20 -7 0 -13 -4 -13 -10 0 -5 3 -10
7 -10 8 0 83 51 83 56 0 12 -33 1 -47 -16z"/>
<path d="M6415 5910 c-3 -5 -1 -10 4 -10 6 0 11 5 11 10 0 6 -2 10 -4 10 -3 0
-8 -4 -11 -10z"/>
<path d="M6534 5852 c-11 -38 -17 -78 -14 -88 5 -13 12 3 23 52 9 39 19 79 23
88 3 9 2 16 -3 16 -5 0 -18 -31 -29 -68z"/>
<path d="M4165 5880 c-64 -33 -82 -46 -73 -56 3 -3 25 5 48 18 24 13 53 29 66
36 13 7 24 17 24 23 0 12 1 13 -65 -21z"/>
<path d="M5893 5896 c-13 -6 -23 -14 -23 -18 0 -13 10 -9 37 12 28 22 22 24
-14 6z"/>
<path d="M6156 5889 c-23 -27 -15 -35 9 -9 10 11 16 22 14 25 -3 2 -13 -5 -23
-16z"/>
<path d="M4763 5881 c-13 -11 -23 -22 -23 -25 0 -13 20 -5 47 19 33 29 10 35
-24 6z"/>
<path d="M5430 5881 c-58 -28 -82 -42 -77 -47 7 -7 117 47 117 57 0 5 -1 9 -2
8 -2 0 -19 -8 -38 -18z"/>
<path d="M6280 5883 c-19 -8 -82 -75 -75 -81 2 -3 27 16 54 41 49 46 52 52 21
40z"/>
<path d="M3834 5866 c-3 -8 -19 -18 -35 -21 -16 -4 -29 -11 -29 -17 0 -13 44
-2 76 19 13 8 24 19 24 24 0 15 -30 10 -36 -5z"/>
<path d="M5075 5848 c-29 -11 -55 -31 -55 -42 0 -6 70 31 85 45 11 11 9 11
-30 -3z"/>
<path d="M5825 5850 c-3 -5 1 -10 9 -10 9 0 16 5 16 10 0 6 -4 10 -9 10 -6 0
-13 -4 -16 -10z"/>
<path d="M5949 5841 c-14 -12 -18 -20 -11 -21 15 0 47 28 40 36 -3 2 -16 -4
-29 -15z"/>
<path d="M3613 5843 c-13 -2 -23 -8 -23 -13 0 -5 -13 -11 -30 -15 -33 -7 -51
-25 -25 -25 16 0 105 48 105 56 0 2 -1 3 -2 3 -2 -1 -13 -4 -25 -6z"/>
<path d="M4515 5843 c-11 -3 -22 -8 -25 -12 -3 -4 -22 -17 -43 -30 -52 -32
-39 -38 20 -10 86 42 110 67 48 52z"/>
<path d="M4685 5834 c-42 -21 -45 -28 -10 -20 17 4 37 14 45 22 19 18 3 18
-35 -2z"/>
<path d="M5530 5831 c0 -5 -27 -38 -60 -73 -65 -67 -65 -68 -50 -68 27 0 137
134 120 145 -5 3 -10 2 -10 -4z"/>
<path d="M5174 5816 c-31 -17 -55 -38 -50 -43 6 -7 60 23 75 41 15 18 5 19
-25 2z"/>
<path d="M5780 5820 c-8 -5 -11 -12 -7 -16 4 -4 15 0 24 9 18 18 8 23 -17 7z"/>
<path d="M6380 5781 c-17 -28 -30 -56 -28 -63 3 -7 19 14 36 47 18 32 30 60
28 62 -2 2 -18 -19 -36 -46z"/>
<path d="M3271 5811 c-14 -4 -26 -12 -29 -19 -4 -14 45 -7 93 14 l30 12 -35 0
c-19 0 -46 -3 -59 -7z"/>
<path d="M4040 5810 c0 -13 11 -13 30 0 12 8 11 10 -7 10 -13 0 -23 -4 -23
-10z"/>
<path d="M4828 5806 c-8 -7 -23 -16 -35 -20 -22 -7 -62 -46 -47 -46 5 0 36 18
69 40 33 22 52 40 43 40 -9 0 -23 -6 -30 -14z"/>
<path d="M3920 5795 c-7 -8 -21 -15 -31 -15 -11 0 -19 -4 -19 -10 0 -5 -6 -10
-13 -10 -17 0 -54 -27 -47 -34 7 -6 94 38 128 64 16 14 20 20 10 20 -9 0 -21
-7 -28 -15z"/>
<path d="M5875 5775 c-16 -13 -27 -27 -23 -30 3 -3 21 8 39 24 40 37 27 41
-16 6z"/>
<path d="M6315 5790 c-3 -5 -1 -10 4 -10 6 0 11 5 11 10 0 6 -2 10 -4 10 -3 0
-8 -4 -11 -10z"/>
<path d="M5251 5783 c-7 -3 -22 -14 -32 -24 -19 -19 -19 -19 1 -19 11 0 20 5
20 10 0 6 6 10 13 10 7 0 22 7 33 15 19 14 19 14 -1 14 -11 0 -26 -3 -34 -6z"/>
<path d="M3670 5764 c-14 -7 -33 -14 -42 -14 -9 0 -20 -4 -23 -10 -3 -5 -15
-10 -26 -10 -10 0 -19 -5 -19 -11 0 -6 8 -8 18 -5 9 3 31 8 47 12 17 4 36 12
44 18 8 6 26 16 40 23 21 9 22 11 6 11 -11 0 -31 -6 -45 -14z"/>
<path d="M4225 5770 c-3 -5 -16 -10 -29 -10 -25 0 -73 -36 -63 -47 9 -9 119
39 125 55 4 14 -24 16 -33 2z"/>
<path d="M5345 5769 c-5 -6 -35 -26 -65 -45 -30 -18 -48 -34 -40 -34 20 0 130
68 130 81 0 12 -12 11 -25 -2z"/>
<path d="M5973 5744 c-13 -14 -23 -30 -23 -35 0 -5 -6 -9 -14 -9 -8 0 -16 -7
-20 -15 -8 -22 5 -18 39 14 53 49 70 71 54 71 -8 0 -24 -12 -36 -26z"/>
<path d="M6224 5762 c-14 -10 -44 -54 -44 -66 0 -12 49 33 61 57 10 18 2 22
-17 9z"/>
<path d="M6295 5760 c-3 -5 -1 -10 4 -10 6 0 11 5 11 10 0 6 -2 10 -4 10 -3 0
-8 -4 -11 -10z"/>
<path d="M6456 5709 c-21 -70 -18 -130 3 -64 19 60 29 115 22 120 -4 2 -15
-23 -25 -56z"/>
<path d="M3095 5740 c-22 -10 -49 -22 -60 -25 -13 -5 -16 -9 -7 -12 14 -5 84
20 116 43 29 20 0 17 -49 -6z"/>
<path d="M4566 5735 c-11 -8 -26 -15 -34 -15 -15 0 -47 -28 -39 -36 6 -6 76
32 97 52 19 18 0 18 -24 -1z"/>
<path d="M3383 5726 c-18 -6 -33 -14 -33 -18 0 -11 13 -10 50 6 40 16 27 26
-17 12z"/>
<path d="M4881 5719 c-18 -11 -31 -23 -28 -26 7 -6 67 28 67 39 0 11 0 11 -39
-13z"/>
<path d="M5607 5733 c-15 -25 -35 -83 -28 -83 13 0 52 78 42 84 -5 4 -12 3
-14 -1z"/>
<path d="M6043 5716 c-13 -13 -23 -30 -23 -37 0 -7 11 2 25 21 24 32 28 40 23
40 -2 0 -13 -11 -25 -24z"/>
<path d="M3955 5719 c-12 -19 5 -23 22 -6 16 16 16 17 1 17 -9 0 -20 -5 -23
-11z"/>
<path d="M4345 5710 c-10 -11 -23 -20 -28 -20 -19 0 -97 -42 -97 -51 0 -6 3
-8 8 -6 4 2 42 21 85 41 42 21 75 42 72 47 -9 14 -20 11 -40 -11z"/>
<path d="M6507 5710 c-3 -11 -2 -20 3 -20 4 0 10 9 13 20 3 11 2 20 -3 20 -4
0 -10 -9 -13 -20z"/>
<path d="M5000 5703 c-41 -29 -85 -72 -78 -78 3 -3 30 17 59 44 55 52 62 64
19 34z"/>
<path d="M3235 5700 c-3 -5 -1 -10 4 -10 6 0 11 5 11 10 0 6 -2 10 -4 10 -3 0
-8 -4 -11 -10z"/>
<path d="M4675 5685 c-22 -13 -47 -25 -55 -25 -21 -1 -55 -28 -46 -37 9 -9
110 44 133 70 21 23 16 22 -32 -8z"/>
<path d="M3888 5682 c-38 -17 -50 -32 -25 -32 13 0 77 37 77 45 0 8 -13 5 -52
-13z"/>
<path d="M3171 5664 c-26 -18 -29 -24 -15 -24 18 1 64 32 64 44 0 11 -14 5
-49 -20z"/>
<path d="M3520 5673 c-8 -3 -33 -13 -55 -23 -22 -10 -52 -20 -67 -24 -43 -10
-34 -28 10 -20 43 8 142 53 142 66 0 9 -7 9 -30 1z"/>
<path d="M6097 5673 c-4 -3 -7 -11 -7 -17 0 -6 5 -5 12 2 6 6 9 14 7 17 -3 3
-9 2 -12 -2z"/>
<path d="M6155 5670 c-3 -5 -1 -10 4 -10 6 0 11 5 11 10 0 6 -2 10 -4 10 -3 0
-8 -4 -11 -10z"/>
<path d="M3695 5651 c-22 -11 -49 -23 -60 -27 -19 -7 -19 -8 2 -11 19 -4 123
40 123 52 0 10 -26 4 -65 -14z"/>
<path d="M5370 5645 c-23 -61 21 -398 50 -380 5 3 5 16 0 30 -5 14 -12 46 -14
73 -3 26 -8 74 -12 107 -4 33 -7 74 -7 90 0 17 -4 36 -10 43 -7 8 -7 16 -1 20
5 4 15 15 23 25 12 15 11 17 -3 17 -9 0 -21 -11 -26 -25z"/>
<path d="M5214 5638 c1 -13 -1 -37 -6 -55 -8 -28 -12 -99 -9 -160 1 -33 28
-29 29 5 2 59 24 198 33 207 16 17 10 25 -21 25 -25 0 -29 -3 -26 -22z"/>
<path d="M6278 5654 c-5 -4 -8 -16 -8 -28 0 -14 3 -17 11 -9 6 6 9 19 7 28 -1
9 -6 13 -10 9z"/>
<path d="M3008 5617 c-32 -16 -55 -34 -52 -39 5 -8 104 41 129 63 18 18 -21 6
-77 -24z"/>
<path d="M5875 5639 c-11 -17 1 -21 15 -4 8 9 8 15 2 15 -6 0 -14 -5 -17 -11z"/>
<path d="M5983 5635 c-9 -25 2 -27 22 -5 17 18 17 20 1 20 -9 0 -19 -7 -23
-15z"/>
<path d="M3978 5622 c-27 -9 -48 -20 -48 -24 0 -11 29 -3 85 22 48 22 28 23
-37 2z"/>
<path d="M4730 5604 c-53 -30 -55 -32 -48 -40 9 -8 59 20 82 45 24 27 21 26
-34 -5z"/>
<path d="M5041 5614 c-20 -23 -9 -25 19 -4 16 13 20 20 10 19 -8 0 -21 -7 -29
-15z"/>
<path d="M5485 5610 c-10 -11 -15 -23 -12 -27 7 -6 36 25 37 40 0 11 -6 8 -25
-13z"/>
<path d="M5676 5606 c-18 -28 -20 -36 -8 -36 10 0 35 50 29 57 -2 2 -12 -8
-21 -21z"/>
<path d="M6170 5623 c-17 -7 -70 -63 -70 -75 0 -12 10 -10 23 5 7 7 25 27 41
45 17 18 28 32 25 31 -2 0 -11 -3 -19 -6z"/>
<path d="M2870 5610 c0 -5 5 -10 10 -10 6 0 10 5 10 10 0 6 -4 10 -10 10 -5 0
-10 -4 -10 -10z"/>
<path d="M4373 5589 c-18 -12 -33 -23 -33 -25 0 -13 39 0 65 21 37 30 13 33
-32 4z"/>
<path d="M6050 5600 c0 -5 5 -10 11 -10 5 0 7 5 4 10 -3 6 -8 10 -11 10 -2 0
-4 -4 -4 -10z"/>
<path d="M6390 5599 c0 -6 -6 -9 -14 -6 -17 7 -34 -11 -39 -41 -2 -12 -6 -25
-10 -28 -4 -4 0 -18 9 -32 10 -14 14 -38 12 -58 -6 -54 7 -40 26 29 10 34 22
75 27 91 12 38 11 56 -1 56 -5 0 -10 -5 -10 -11z"/>
<path d="M6427 5583 c-4 -3 -7 -11 -7 -17 0 -6 5 -5 12 2 6 6 9 14 7 17 -3 3
-9 2 -12 -2z"/>
<path d="M3222 5563 c-18 -8 -31 -18 -28 -20 7 -7 86 19 86 29 0 12 -21 9 -58
-9z"/>
<path d="M4087 5556 c-49 -30 -54 -36 -31 -36 20 1 82 46 74 54 -3 2 -22 -6
-43 -18z"/>
<path d="M5768 5545 c-19 -42 -9 -46 15 -6 19 32 21 41 9 41 -4 0 -15 -16 -24
-35z"/>
<path d="M3080 5534 c-36 -18 -66 -38 -68 -44 -5 -15 136 51 142 66 7 19 0 17
-74 -22z"/>
<path d="M5125 5550 c-10 -11 -15 -23 -12 -27 8 -7 47 25 47 39 0 14 -16 9
-35 -12z"/>
<path d="M3512 5540 c-18 -11 -39 -20 -47 -20 -8 0 -15 -4 -15 -10 0 -16 25
-11 53 10 14 11 30 20 36 20 6 0 11 5 11 10 0 13 0 13 -38 -10z"/>
<path d="M4818 5540 c-12 -11 -32 -27 -43 -35 -16 -11 -17 -14 -4 -15 9 0 33
16 55 35 21 19 34 34 27 35 -6 0 -22 -9 -35 -20z"/>
<path d="M3762 5529 c-23 -11 -42 -24 -42 -29 0 -9 36 4 75 27 35 20 11 22
-33 2z"/>
<path d="M3350 5524 c0 -8 5 -12 10 -9 6 3 10 10 10 16 0 5 -4 9 -10 9 -5 0
-10 -7 -10 -16z"/>
<path d="M4185 5507 c-27 -17 -51 -35 -53 -39 -2 -4 -10 -8 -18 -8 -8 0 -14
-4 -14 -10 0 -14 6 -13 52 13 46 24 95 64 88 70 -3 3 -27 -9 -55 -26z"/>
<path d="M4510 5533 c0 -5 -21 -17 -47 -27 -26 -11 -41 -22 -34 -24 7 -2 35 6
62 19 49 22 63 39 34 39 -8 0 -15 -3 -15 -7z"/>
<path d="M6077 5523 c-4 -3 -7 -11 -7 -17 0 -6 5 -5 12 2 6 6 9 14 7 17 -3 3
-9 2 -12 -2z"/>
<path d="M6255 5476 c-37 -81 -29 -101 10 -26 37 71 40 80 25 80 -6 0 -21 -24
-35 -54z"/>
<path d="M4915 5495 c-22 -18 -25 -25 -13 -25 9 0 30 11 45 25 37 33 8 33 -32
0z"/>
<path d="M2790 5503 c-24 -3 -49 -8 -55 -13 -5 -4 -39 -11 -75 -15 -92 -10
-104 -28 -15 -22 69 4 185 30 215 47 16 10 17 10 -70 3z"/>
<path d="M3300 5500 c-8 -5 -11 -12 -7 -16 4 -4 15 0 24 9 18 18 8 23 -17 7z"/>
<path d="M3425 5500 c-3 -5 -1 -10 4 -10 6 0 11 5 11 10 0 6 -2 10 -4 10 -3 0
-8 -4 -11 -10z"/>
<path d="M5857 5493 c-8 -15 -4 -123 5 -123 5 0 7 4 3 9 -3 5 -1 12 5 16 13 8
13 105 1 105 -6 0 -12 -3 -14 -7z"/>
<path d="M3900 5480 c-8 -5 -11 -12 -7 -16 4 -4 13 -2 19 4 15 15 7 24 -12 12z"/>
<path d="M6153 5473 c-3 -10 -8 -21 -10 -25 -2 -4 1 -9 6 -12 5 -3 11 8 13 24
5 33 1 39 -9 13z"/>
<path d="M3226 5465 c-7 -19 5 -19 30 0 19 14 19 14 -2 15 -12 0 -24 -7 -28
-15z"/>
<path d="M5567 5461 c-2 -10 0 -26 6 -36 10 -18 12 -34 15 -102 4 -65 20 -31
21 43 1 41 2 80 4 86 1 5 -8 14 -20 18 -16 7 -22 5 -26 -9z"/>
<path d="M4245 5457 c-37 -21 -78 -57 -72 -63 6 -6 56 26 91 58 22 20 12 22
-19 5z"/>
<path d="M4562 5444 c-24 -14 -41 -28 -39 -31 6 -5 107 44 107 52 0 12 -28 3
-68 -21z"/>
<path d="M3840 5453 c-8 -3 -26 -17 -40 -31 -14 -14 -20 -23 -15 -21 6 3 29
13 53 23 54 23 56 49 2 29z"/>
<path d="M6310 5450 c0 -5 5 -10 10 -10 6 0 10 5 10 10 0 6 -4 10 -10 10 -5 0
-10 -4 -10 -10z"/>
<path d="M2913 5442 c-24 -4 -32 -22 -10 -22 15 0 43 18 37 22 -3 2 -15 2 -27
0z"/>
<path d="M3365 5424 c-27 -14 -63 -28 -79 -32 -16 -4 -32 -14 -34 -21 -3 -10
2 -11 19 -6 40 12 175 84 159 84 -8 0 -37 -11 -65 -25z"/>
<path d="M4973 5427 c-35 -13 -53 -27 -34 -27 16 0 81 28 81 34 0 8 -10 6 -47
-7z"/>
<path d="M3583 5423 c-13 -2 -23 -8 -23 -13 0 -4 -12 -11 -26 -14 -28 -7 -63
-36 -44 -36 11 0 91 40 120 59 15 11 12 11 -27 4z"/>
<path d="M4738 5416 c-8 -7 -24 -17 -36 -20 -12 -4 -22 -11 -22 -16 0 -4 -10
-11 -22 -15 -15 -4 -19 -8 -10 -12 8 -3 19 0 25 6 6 6 18 11 27 11 9 0 29 14
45 30 28 29 21 44 -7 16z"/>
<path d="M5948 5425 c-7 -8 3 -54 13 -61 5 -3 9 11 9 30 0 33 -8 44 -22 31z"/>
<path d="M2792 5410 c-37 -9 -49 -17 -39 -26 7 -8 97 15 112 27 11 11 -27 10
-73 -1z"/>
<path d="M3015 5401 c-33 -10 -54 -20 -47 -25 12 -7 109 21 118 35 7 12 1 11
-71 -10z"/>
<path d="M3970 5393 c-8 -2 -24 -8 -35 -13 -11 -4 -29 -11 -39 -14 -13 -5 -16
-10 -9 -17 9 -9 75 14 113 40 13 10 13 11 0 10 -8 0 -22 -3 -30 -6z"/>
<path d="M4318 5393 c-10 -2 -18 -9 -18 -14 0 -13 13 -11 36 6 19 14 14 17
-18 8z"/>
<path d="M5040 5378 c-56 -28 -54 -27 -48 -34 7 -6 69 19 100 41 34 23 1 19
-52 -7z"/>
<path d="M4840 5375 c-7 -8 -8 -15 -2 -15 5 0 15 7 22 15 7 8 8 15 2 15 -5 0
-15 -7 -22 -15z"/>
<path d="M5214 5353 c8 -67 38 -135 77 -174 15 -14 34 -38 44 -52 9 -15 29
-33 44 -40 22 -10 27 -21 33 -66 3 -30 10 -56 15 -60 17 -11 15 -89 -3 -116
l-16 -25 31 6 c18 4 31 3 30 -2 -7 -30 50 -154 86 -189 48 -46 52 -47 74 -28
22 18 29 39 10 28 -42 -27 -127 79 -144 178 -3 20 -9 37 -13 37 -4 0 -8 21
-10 46 -1 25 -9 56 -18 69 -9 13 -14 39 -13 57 2 19 -5 44 -15 60 -18 28 -16
58 4 58 5 0 10 -7 10 -16 0 -22 60 -144 72 -144 5 0 16 -7 24 -15 22 -21 59
-19 61 3 1 14 -4 18 -20 15 -39 -7 -85 53 -107 138 -21 80 -38 119 -52 119 -5
0 -8 -13 -6 -29 3 -29 -19 -81 -33 -81 -8 0 -78 66 -80 75 -7 32 -13 45 -20
45 -5 0 -9 6 -9 14 0 7 -8 31 -17 52 -17 40 -20 47 -22 64 0 6 -6 10 -11 10
-7 0 -9 -15 -6 -37z"/>
<path d="M2620 5370 c0 -12 67 -12 95 0 14 6 4 9 -37 9 -33 1 -58 -3 -58 -9z"/>
<path d="M4473 5368 c-13 -6 -23 -15 -23 -20 0 -4 -9 -8 -19 -8 -11 0 -26 -6
-33 -13 -7 -7 -21 -16 -30 -20 -10 -3 -18 -11 -18 -18 0 -12 105 43 135 72 22
21 20 22 -12 7z"/>
<path d="M4260 5349 c0 -5 5 -7 10 -4 6 3 10 8 10 11 0 2 -4 4 -10 4 -5 0 -10
-5 -10 -11z"/>
<path d="M2890 5340 c0 -5 9 -10 20 -10 11 0 20 5 20 10 0 6 -9 10 -20 10 -11
0 -20 -4 -20 -10z"/>
<path d="M3110 5339 c0 -5 5 -7 10 -4 6 3 10 8 10 11 0 2 -4 4 -10 4 -5 0 -10
-5 -10 -11z"/>
<path d="M4784 5336 c-30 -23 -12 -27 21 -6 18 12 24 20 14 20 -8 0 -24 -6
-35 -14z"/>
<path d="M5123 5338 c-23 -11 -39 -38 -23 -38 5 0 22 11 37 25 29 25 23 31
-14 13z"/>
<path d="M5775 5341 c-3 -5 -1 -12 5 -16 5 -3 10 1 10 9 0 18 -6 21 -15 7z"/>
<path d="M5960 5325 c0 -14 5 -25 10 -25 6 0 10 11 10 25 0 14 -4 25 -10 25
-5 0 -10 -11 -10 -25z"/>
<path d="M3330 5310 c-24 -16 -59 -31 -77 -35 -36 -6 -45 -25 -13 -25 25 0
105 40 140 69 38 31 3 25 -50 -9z"/>
<path d="M3653 5330 c-20 -8 -33 -30 -18 -30 10 0 65 30 65 35 0 7 -22 5 -47
-5z"/>
<path d="M6074 5278 c3 -34 11 -67 16 -72 12 -12 13 19 4 88 -10 71 -28 57
-20 -16z"/>
<path d="M2785 5323 c-16 -3 -34 -8 -40 -13 -5 -4 -38 -14 -72 -20 -74 -15
-84 -29 -15 -23 47 4 212 50 212 58 0 6 -39 4 -85 -2z"/>
<path d="M3039 5310 c-13 -10 -21 -19 -18 -20 11 0 79 30 79 35 0 13 -40 3
-61 -15z"/>
<path d="M4050 5320 c0 -5 6 -10 14 -10 8 0 18 5 21 10 3 6 -3 10 -14 10 -12
0 -21 -4 -21 -10z"/>
<path d="M4938 5304 c-16 -8 -28 -19 -28 -24 0 -16 13 -12 45 15 33 27 25 32
-17 9z"/>
<path d="M4010 5300 c-12 -8 -10 -10 8 -10 13 0 20 4 17 10 -7 12 -6 12 -25 0z"/>
<path d="M5790 5291 c0 -11 5 -23 10 -26 6 -3 10 3 10 14 0 11 -4 23 -10 26
-5 3 -10 -3 -10 -14z"/>
<path d="M3460 5285 c-14 -7 -44 -21 -67 -31 -24 -9 -43 -21 -43 -26 0 -11 4
-10 47 8 72 31 103 49 103 56 0 11 -10 9 -40 -7z"/>
<path d="M3567 5285 c-9 -23 9 -26 28 -5 17 19 17 20 -2 20 -12 0 -23 -7 -26
-15z"/>
<path d="M4534 5285 c-10 -8 -28 -15 -39 -15 -11 0 -26 -9 -33 -20 -10 -16
-10 -20 2 -20 7 0 25 9 39 20 14 11 30 20 35 20 5 0 15 7 22 15 16 19 0 19
-26 0z"/>
<path d="M3128 5267 c-40 -11 -51 -27 -19 -27 10 0 29 9 42 20 13 10 22 19 19
18 -3 0 -22 -5 -42 -11z"/>
<path d="M3730 5245 c-34 -21 -48 -35 -36 -35 22 0 116 50 116 62 0 16 -25 7
-80 -27z"/>
<path d="M4865 5260 c-3 -5 1 -10 9 -10 9 0 16 5 16 10 0 6 -4 10 -9 10 -6 0
-13 -4 -16 -10z"/>
<path d="M5596 5261 c-3 -5 -2 -22 4 -37 18 -56 26 -150 15 -193 -5 -21 -3
-23 18 -18 16 5 27 1 38 -14 41 -61 175 -179 201 -179 24 0 23 27 -2 35 -18 6
-51 35 -91 81 -9 11 -30 30 -47 43 -29 23 -73 98 -77 130 -1 9 -6 27 -12 41
-6 14 -14 44 -18 67 -7 43 -19 61 -29 44z"/>
<path d="M6148 5259 c-6 -19 2 -49 13 -49 11 0 11 31 0 49 -7 11 -9 11 -13 0z"/>
<path d="M2920 5251 c-8 -4 -68 -21 -132 -36 -65 -16 -118 -31 -118 -35 0 -7
128 12 190 29 42 11 110 39 110 46 0 8 -33 5 -50 -4z"/>
<path d="M4163 5234 c-45 -22 -69 -44 -46 -44 15 0 113 53 113 61 0 13 -10 11
-67 -17z"/>
<path d="M5025 5248 c-27 -16 -61 -48 -49 -48 5 1 25 14 44 30 36 32 38 37 5
18z"/>
<path d="M5119 5241 c-19 -16 -20 -20 -8 -21 17 0 45 27 37 35 -3 3 -16 -3
-29 -14z"/>
<path d="M6216 5238 c3 -13 13 -35 20 -50 8 -15 14 -36 14 -48 0 -11 4 -20 10
-20 5 0 3 21 -6 48 -8 26 -17 57 -20 70 -3 12 -10 22 -16 22 -5 0 -6 -10 -2
-22z"/>
<path d="M4619 5231 c-13 -11 -21 -23 -17 -27 5 -4 16 0 26 9 10 10 24 17 30
17 7 0 12 5 12 10 0 16 -26 12 -51 -9z"/>
<path d="M5805 5188 c7 -80 42 -188 61 -188 17 0 17 4 0 38 -12 25 -20 54 -33
127 -3 17 -7 37 -8 45 -2 8 -4 21 -4 28 -1 6 -5 12 -11 12 -6 0 -8 -25 -5 -62z"/>
<path d="M3189 5210 c-13 -16 -29 -30 -35 -30 -6 0 -23 -9 -37 -20 -14 -11
-32 -20 -41 -20 -9 0 -16 -4 -16 -10 0 -20 51 -4 87 26 12 11 35 30 52 44 31
25 39 40 22 40 -5 0 -19 -13 -32 -30z"/>
<path d="M4768 5206 c-8 -7 -23 -16 -35 -20 -20 -6 -41 -36 -25 -36 9 0 92 60
92 66 0 9 -19 3 -32 -10z"/>
<path d="M4330 5195 c-7 -8 -17 -15 -22 -15 -11 0 -53 -38 -47 -44 6 -6 109
57 109 66 0 14 -27 9 -40 -7z"/>
<path d="M5062 5190 c-14 -23 -5 -26 21 -6 20 16 22 26 4 26 -7 0 -18 -9 -25
-20z"/>
<path d="M3525 5187 c-10 -8 -14 -17 -9 -20 5 -3 21 3 34 14 29 22 6 28 -25 6z"/>
<path d="M3320 5181 c-38 -12 -150 -74 -150 -83 0 -4 5 -8 10 -8 6 0 10 4 10
8 0 5 26 17 58 28 104 35 170 85 72 55z"/>
<path d="M5214 5154 c4 -22 8 -54 9 -73 1 -19 8 -36 14 -38 18 -6 28 26 15 48
-6 9 -7 19 -2 21 16 6 -5 73 -24 76 -17 4 -18 0 -12 -34z"/>
<path d="M5983 5164 c3 -16 11 -42 18 -59 7 -16 13 -33 14 -37 2 -5 4 -11 5
-15 1 -5 2 -12 1 -17 -3 -14 21 -70 33 -78 21 -14 25 -8 15 20 -13 31 -27 84
-35 127 -8 42 -26 78 -43 83 -11 4 -13 -2 -8 -24z"/>
<path d="M6160 5171 c0 -11 5 -23 10 -26 6 -4 10 5 10 19 0 14 -4 26 -10 26
-5 0 -10 -9 -10 -19z"/>
<path d="M3870 5170 c-8 -5 -36 -16 -63 -26 -59 -21 -54 -31 8 -15 54 14 121
51 90 50 -11 0 -27 -4 -35 -9z"/>
<path d="M2895 5160 c-3 -5 -15 -10 -25 -10 -25 0 -130 -43 -130 -52 0 -11 8
-10 60 6 42 13 120 53 120 62 0 8 -19 4 -25 -6z"/>
<path d="M3474 5145 c-10 -8 -14 -14 -9 -15 15 0 40 18 34 24 -3 3 -14 -1 -25
-9z"/>
<path d="M3651 5140 c-13 -11 -29 -20 -36 -20 -7 0 -18 -7 -25 -15 -7 -8 -21
-15 -31 -15 -11 0 -19 -4 -19 -10 0 -15 17 -12 58 9 43 23 102 70 87 70 -5 0
-21 -9 -34 -19z"/>
<path d="M3918 5107 c-43 -22 -76 -43 -73 -45 6 -7 165 70 165 80 0 13 -10 9
-92 -35z"/>
<path d="M4455 5125 c-11 -14 -32 -27 -47 -31 -26 -5 -40 -24 -18 -24 14 0 82
44 99 64 11 13 11 16 0 16 -8 -1 -23 -12 -34 -25z"/>
<path d="M5155 5140 c-3 -5 -1 -10 4 -10 6 0 11 5 11 10 0 6 -2 10 -4 10 -3 0
-8 -4 -11 -10z"/>
<path d="M4830 5130 c-8 -5 -11 -12 -7 -16 4 -4 15 0 24 9 18 18 8 23 -17 7z"/>
<path d="M6358 5135 c-7 -8 20 -93 32 -100 5 -3 8 4 7 15 -1 11 -5 20 -10 20
-5 0 -7 6 -4 13 6 15 -16 60 -25 52z"/>
<path d="M4043 5101 c-18 -9 -33 -19 -33 -23 0 -15 27 -7 60 17 38 28 23 31
-27 6z"/>
<path d="M3248 5096 c-29 -10 -38 -26 -15 -26 14 1 53 28 46 33 -2 2 -16 -1
-31 -7z"/>
<path d="M4935 5093 c-19 -10 -25 -18 -16 -21 7 -2 23 5 34 17 25 25 22 26
-18 4z"/>
<path d="M4599 5080 c-19 -11 -49 -28 -66 -37 -18 -9 -33 -21 -33 -25 0 -5 -4
-7 -8 -4 -11 6 -38 -11 -30 -20 7 -6 152 67 172 87 20 18 -1 18 -35 -1z"/>
<path d="M6465 5078 c4 -13 14 -30 22 -38 13 -13 13 -10 -1 16 -8 17 -12 34
-9 38 4 3 1 6 -6 6 -8 0 -10 -8 -6 -22z"/>
<path d="M2911 5074 c-60 -16 -68 -20 -57 -31 6 -7 146 34 146 43 0 7 -34 3
-89 -12z"/>
<path d="M3176 5049 c-11 -10 -15 -19 -9 -19 5 0 18 9 28 20 23 26 6 25 -19
-1z"/>
<path d="M5004 5054 c-17 -14 -17 -15 -1 -10 10 3 23 6 28 6 5 0 9 5 9 10 0
14 -13 12 -36 -6z"/>
<path d="M3430 5051 c0 -5 -14 -14 -32 -20 -17 -6 -29 -14 -25 -17 6 -7 75 24
83 37 3 5 -2 9 -10 9 -9 0 -16 -4 -16 -9z"/>
<path d="M3965 5050 c-3 -6 1 -7 9 -4 18 7 21 14 7 14 -6 0 -13 -4 -16 -10z"/>
<path d="M4080 5035 c-19 -13 -48 -27 -63 -30 -19 -5 -26 -10 -19 -17 6 -6 25
-1 53 16 24 14 54 30 67 36 12 5 22 12 22 15 0 11 -27 3 -60 -20z"/>
<path d="M2815 5040 c-3 -5 -1 -10 4 -10 6 0 11 5 11 10 0 6 -2 10 -4 10 -3 0
-8 -4 -11 -10z"/>
<path d="M5098 5028 c-40 -23 -54 -47 -16 -27 21 12 66 49 57 49 -2 0 -21 -10
-41 -22z"/>
<path d="M3685 5031 c-37 -12 -95 -45 -95 -53 0 -7 86 27 127 51 21 12 1 14
-32 2z"/>
<path d="M3925 5030 c-3 -5 -1 -10 4 -10 6 0 11 5 11 10 0 6 -2 10 -4 10 -3 0
-8 -4 -11 -10z"/>
<path d="M5243 5033 c-17 -6 -16 -32 2 -67 8 -15 15 -36 16 -45 0 -9 9 -29 20
-46 10 -16 24 -42 29 -56 16 -38 51 -55 81 -38 l24 14 -28 3 c-32 4 -67 34
-67 57 0 8 -4 23 -10 33 -5 9 -20 47 -32 83 -15 41 -28 64 -35 62z"/>
<path d="M4670 5005 c-29 -31 -22 -42 10 -15 13 11 27 20 32 20 4 0 8 5 8 10
0 18 -26 10 -50 -15z"/>
<path d="M6490 5010 c0 -5 5 -10 10 -10 6 0 10 5 10 10 0 6 -4 10 -10 10 -5 0
-10 -4 -10 -10z"/>
<path d="M3230 5003 c-23 -9 -52 -40 -43 -46 5 -3 24 8 43 24 33 27 33 35 0
22z"/>
<path d="M6215 5000 c3 -5 8 -10 11 -10 2 0 4 5 4 10 0 6 -5 10 -11 10 -5 0
-7 -4 -4 -10z"/>
<path d="M6641 4998 c-1 -9 5 -23 12 -30 7 -7 19 -29 27 -48 16 -42 27 -56 37
-47 4 4 1 13 -5 19 -7 7 -12 21 -12 33 0 11 -8 28 -17 36 -10 9 -23 25 -30 35
-10 16 -12 17 -12 2z"/>
<path d="M4195 4991 c-3 -5 -19 -12 -35 -16 -17 -4 -30 -10 -30 -14 0 -4 -12
-12 -27 -18 -23 -9 -24 -11 -8 -12 11 -1 43 11 70 25 60 32 75 44 53 44 -9 0
-19 -4 -23 -9z"/>
<path d="M4850 4985 c-7 -8 -19 -15 -26 -15 -8 0 -14 -4 -14 -10 0 -5 -7 -10
-15 -10 -8 0 -15 -4 -15 -9 0 -5 -10 -12 -22 -16 -13 -3 -18 -9 -11 -11 24
-11 137 65 121 81 -3 3 -11 -1 -18 -10z"/>
<path d="M3780 4977 c-14 -6 -27 -14 -30 -18 -3 -4 -20 -10 -37 -14 -33 -7
-50 -21 -39 -32 8 -8 106 37 128 60 20 19 14 21 -22 4z"/>
<path d="M5860 4975 c0 -8 4 -15 9 -15 10 0 24 -44 25 -80 1 -18 7 -26 23 -28
14 -2 29 -18 43 -45 34 -69 65 -97 106 -97 21 0 43 28 43 55 1 19 -1 18 -18
-4 -17 -22 -20 -23 -47 -10 -15 8 -33 23 -39 34 -6 11 -27 46 -48 78 -20 31
-37 63 -37 70 0 12 -43 57 -54 57 -3 0 -6 -7 -6 -15z"/>
<path d="M6220 4971 c0 -11 26 -22 34 -14 3 3 3 10 0 14 -7 12 -34 11 -34 0z"/>
<path d="M6515 4970 c3 -5 8 -10 11 -10 2 0 4 5 4 10 0 6 -5 10 -11 10 -5 0
-7 -4 -4 -10z"/>
<path d="M4985 4950 c-3 -5 -1 -10 4 -10 6 0 11 5 11 10 0 6 -2 10 -4 10 -3 0
-8 -4 -11 -10z"/>
<path d="M6890 4944 c0 -11 78 -114 86 -114 8 0 -29 59 -58 93 -15 18 -27 27
-28 21z"/>
<path d="M3410 4925 c-7 -8 -21 -15 -31 -15 -11 0 -19 -4 -19 -10 0 -5 -11
-12 -25 -16 -14 -3 -25 -12 -25 -19 0 -16 35 -9 51 11 6 8 17 14 23 14 19 1
73 50 55 50 -9 0 -22 -7 -29 -15z"/>
<path d="M3798 4922 c-16 -10 -28 -20 -28 -24 0 -16 30 -7 57 17 32 28 14 33
-29 7z"/>
<path d="M4272 4915 c-23 -13 -56 -26 -72 -30 -17 -4 -30 -11 -30 -17 0 -6 11
-7 27 -3 39 9 133 57 133 67 0 12 -10 9 -58 -17z"/>
<path d="M6077 4933 c-3 -5 -1 -30 4 -58 4 -27 8 -55 8 -62 1 -6 9 -14 19 -17
9 -3 25 -23 35 -44 30 -62 112 -142 147 -142 16 0 31 4 35 9 3 6 18 3 34 -7
16 -9 28 -19 26 -22 -10 -16 72 -84 128 -108 24 -10 30 -9 48 9 20 20 23 20
31 5 5 -9 21 -27 34 -40 14 -13 31 -34 38 -47 15 -31 101 -89 131 -89 23 0 74
55 62 67 -9 8 -27 -7 -27 -23 0 -8 -6 -14 -14 -14 -27 0 -106 52 -142 93 -43
51 -113 191 -121 244 -8 49 -22 78 -34 66 -6 -6 -4 -28 5 -56 8 -26 12 -47 10
-47 -2 0 1 -11 6 -24 19 -50 22 -106 6 -121 -9 -10 -17 -11 -21 -5 -3 5 -15
10 -26 10 -10 0 -19 6 -19 13 0 6 -16 23 -36 36 -35 25 -82 81 -67 81 4 0 1 6
-7 13 -19 15 -65 118 -75 167 -4 19 -12 40 -17 47 -5 6 -8 20 -6 30 3 21 -9
43 -23 43 -12 0 -12 -57 0 -64 5 -3 12 -22 16 -42 3 -20 10 -44 15 -53 28 -54
44 -161 24 -161 -23 0 -95 80 -130 145 -11 22 -30 56 -42 77 -11 20 -18 39
-15 42 3 3 -1 8 -10 12 -9 3 -13 12 -11 19 6 14 -12 30 -19 18z"/>
<path d="M3938 4920 c-15 -4 -35 -15 -44 -24 -8 -9 -24 -16 -34 -16 -10 0 -20
-7 -24 -15 -7 -20 -7 -20 69 16 84 41 100 59 33 39z"/>
<path d="M5604 4913 c4 -10 12 -40 18 -68 6 -27 13 -57 16 -65 2 -8 6 -37 8
-64 4 -50 23 -106 36 -106 3 0 9 -15 13 -32 8 -35 55 -118 68 -118 4 0 7 -4 7
-10 0 -14 42 -60 55 -60 15 0 55 43 55 58 0 15 -5 15 -30 0 -18 -12 -24 -9
-54 23 -18 20 -36 44 -39 54 -4 9 -12 13 -18 9 -8 -4 -9 -3 -5 4 4 6 -5 36
-19 67 -14 31 -25 62 -25 70 0 8 -7 32 -15 52 -18 49 -26 86 -28 148 -2 44 -5
50 -26 53 -20 3 -23 1 -17 -15z"/>
<path d="M6468 4903 c3 -16 8 -30 12 -33 4 -3 10 -25 13 -50 3 -25 6 -46 6
-47 1 -2 8 -3 16 -3 12 0 15 7 10 33 -4 17 -8 44 -9 60 -3 26 -31 67 -46 67
-4 0 -5 -12 -2 -27z"/>
<path d="M4928 4902 c-16 -9 -28 -20 -28 -24 0 -13 11 -9 42 17 34 29 26 33
-14 7z"/>
<path d="M6820 4915 c1 -16 39 -82 40 -68 0 7 -9 27 -20 45 -11 18 -20 29 -20
23z"/>
<path d="M3528 4903 c7 -3 16 -2 19 1 4 3 -2 6 -13 5 -11 0 -14 -3 -6 -6z"/>
<path d="M3070 4891 c-8 -5 -41 -14 -72 -21 -32 -6 -60 -16 -63 -21 -9 -13 25
-11 76 5 24 8 56 17 72 20 15 4 27 11 27 16 0 12 -20 12 -40 1z"/>
<path d="M3458 4876 c-21 -11 -38 -25 -38 -29 0 -5 3 -6 8 -4 4 2 24 12 45 22
20 9 37 21 37 26 0 13 -10 10 -52 -15z"/>
<path d="M7040 4890 c0 -5 20 -31 45 -57 51 -55 54 -30 3 31 -29 35 -48 46
-48 26z"/>
<path d="M4456 4881 c-15 -6 -16 -10 -7 -15 8 -5 20 -2 29 8 17 17 9 19 -22 7z"/>
<path d="M5083 4879 c-13 -5 -23 -13 -23 -19 0 -14 11 -12 34 5 24 18 18 25
-11 14z"/>
<path d="M4065 4870 c-3 -5 -1 -10 4 -10 6 0 11 5 11 10 0 6 -2 10 -4 10 -3 0
-8 -4 -11 -10z"/>
<path d="M3600 4858 c-22 -10 -23 -12 -6 -15 10 -3 26 2 34 11 19 18 8 20 -28
4z"/>
<path d="M7210 4857 c1 -18 57 -83 66 -74 4 4 -2 17 -14 30 -12 13 -22 28 -22
34 0 6 -7 13 -15 17 -8 3 -15 0 -15 -7z"/>
<path d="M7320 4862 c0 -10 112 -104 117 -98 5 5 -61 71 -90 90 -15 10 -27 14
-27 8z"/>
<path d="M3701 4830 c-19 -16 -44 -32 -55 -36 -47 -13 -95 -40 -96 -51 0 -18
4 -17 92 27 44 22 89 39 101 37 17 -2 22 3 22 23 0 35 -25 36 -64 0z"/>
<path d="M4397 4840 c-14 -11 -30 -20 -36 -20 -6 0 -11 -5 -11 -11 0 -11 41
-2 50 11 3 3 13 9 23 13 17 7 24 27 8 27 -4 0 -20 -9 -34 -20z"/>
<path d="M3990 4834 c-14 -7 -29 -15 -35 -17 -5 -3 -7 -7 -4 -11 8 -8 79 24
79 36 0 11 -10 9 -40 -8z"/>
<path d="M5030 4841 c0 -5 -14 -14 -32 -20 -17 -6 -28 -14 -24 -18 8 -8 76 26
76 39 0 4 -4 8 -10 8 -5 0 -10 -4 -10 -9z"/>
<path d="M5176 4825 c-14 -13 -26 -26 -26 -29 0 -11 41 8 61 30 31 33 1 33
-35 -1z"/>
<path d="M7490 4843 c0 -12 70 -83 81 -83 10 0 0 21 -23 51 -16 19 -58 43 -58
32z"/>
<path d="M3519 4816 c-15 -7 -39 -18 -55 -24 -24 -9 -25 -11 -8 -11 25 -1 90
24 99 39 9 14 -5 12 -36 -4z"/>
<path d="M6682 4803 c28 -64 54 -107 67 -111 10 -3 11 2 6 19 -4 13 -12 27
-17 30 -5 3 -6 18 -2 33 5 22 3 28 -15 33 -11 3 -21 9 -21 14 0 5 -7 9 -15 9
-12 0 -13 -4 -3 -27z"/>
<path d="M7670 4821 c0 -16 42 -61 70 -76 42 -22 45 -19 14 17 -29 35 -84 73
-84 59z"/>
<path d="M3120 4799 c-30 -10 -80 -18 -111 -18 -52 -1 -108 -20 -135 -45 -6
-6 -30 -22 -52 -36 -23 -14 -42 -28 -42 -33 0 -7 61 23 135 67 28 16 50 22 72
19 44 -7 209 45 193 60 -3 3 -30 -4 -60 -14z"/>
<path d="M3815 4790 c-3 -5 1 -10 9 -10 9 0 16 5 16 10 0 6 -4 10 -9 10 -6 0
-13 -4 -16 -10z"/>
<path d="M4550 4779 c-19 -10 -42 -19 -52 -19 -9 0 -20 -4 -23 -10 -3 -5 -15
-10 -26 -10 -10 0 -19 -4 -19 -10 0 -21 141 28 175 61 16 16 -18 9 -55 -12z"/>
<path d="M4751 4780 c-24 -11 -51 -20 -61 -20 -10 0 -23 -7 -30 -15 -10 -12
-10 -15 0 -15 29 0 90 24 116 46 35 29 31 29 -25 4z"/>
<path d="M5255 4790 c-3 -5 -2 -10 4 -10 5 0 13 5 16 10 3 6 2 10 -4 10 -5 0
-13 -4 -16 -10z"/>
<path d="M5780 4790 c0 -5 7 -10 15 -10 8 0 15 5 15 10 0 6 -7 10 -15 10 -8 0
-15 -4 -15 -10z"/>
<path d="M5808 4774 c-15 -15 -15 -20 2 -58 10 -22 24 -56 30 -73 11 -30 40
-47 40 -23 0 6 -5 10 -11 10 -5 0 -7 5 -4 10 4 6 -2 26 -13 44 -14 23 -17 37
-10 44 11 11 3 62 -10 62 -4 0 -15 -7 -24 -16z"/>
<path d="M3220 4750 c-31 -25 -103 -60 -124 -60 -8 0 -18 -4 -21 -10 -3 -5 3
-10 13 -10 25 0 112 38 112 49 0 5 14 14 30 21 17 7 30 16 30 21 0 14 -13 10
-40 -11z"/>
<path d="M4040 4760 c-9 -6 -10 -10 -3 -10 6 0 15 5 18 10 8 12 4 12 -15 0z"/>
<path d="M4139 4752 c-13 -10 -32 -21 -41 -25 -10 -3 -18 -11 -18 -17 0 -6 11
-4 28 5 39 21 66 44 60 50 -3 3 -16 -3 -29 -13z"/>
<path d="M6930 4745 c0 -3 10 -25 23 -50 16 -33 27 -44 42 -42 28 3 22 46 -12
74 -24 21 -53 31 -53 18z"/>
<path d="M3605 4719 c-11 -17 1 -21 15 -4 8 9 8 15 2 15 -6 0 -14 -5 -17 -11z"/>
<path d="M3958 4717 c-16 -6 -28 -14 -28 -19 0 -11 5 -10 45 6 57 24 40 36
-17 13z"/>
<path d="M5257 4704 c-20 -13 -37 -27 -37 -29 0 -9 59 17 71 31 21 25 4 24
-34 -2z"/>
<path d="M3845 4710 c-3 -5 -1 -10 4 -10 6 0 11 5 11 10 0 6 -2 10 -4 10 -3 0
-8 -4 -11 -10z"/>
<path d="M3294 4695 c-15 -11 -16 -14 -3 -15 8 0 24 7 35 15 15 11 16 14 3 15
-8 0 -24 -7 -35 -15z"/>
<path d="M4785 4700 c-3 -5 -2 -10 4 -10 5 0 13 5 16 10 3 6 2 10 -4 10 -5 0
-13 -4 -16 -10z"/>
<path d="M7190 4702 c0 -13 30 -71 40 -77 13 -8 -11 57 -27 73 -7 7 -13 9 -13
4z"/>
<path d="M3550 4690 c0 -13 11 -13 30 0 12 8 11 10 -7 10 -13 0 -23 -4 -23
-10z"/>
<path d="M4035 4690 c-3 -5 1 -10 9 -10 8 0 18 5 21 10 3 6 -1 10 -9 10 -8 0
-18 -4 -21 -10z"/>
<path d="M4575 4680 c-93 -27 -105 -32 -105 -40 0 -8 112 19 163 39 28 11 36
22 15 20 -7 -1 -40 -10 -73 -19z"/>
<path d="M5045 4674 c-22 -13 -48 -26 -57 -30 -21 -7 -24 -24 -5 -24 19 0 107
58 107 70 0 12 3 13 -45 -16z"/>
<path d="M6010 4688 c0 -6 10 -24 22 -41 13 -17 21 -41 20 -52 -2 -11 3 -36
11 -55 26 -64 18 -200 -11 -200 -17 0 -92 82 -98 106 -4 14 -15 29 -26 35 -10
6 -18 18 -16 27 4 22 -39 95 -51 87 -11 -6 15 -76 33 -87 7 -5 5 -8 -6 -8 -25
0 -23 -27 2 -35 11 -4 27 -19 35 -35 8 -16 41 -55 72 -86 l56 -57 24 29 23 29
20 -25 c11 -14 20 -30 20 -36 0 -20 80 -91 130 -114 54 -25 54 -25 64 8 6 17
4 22 -11 20 -33 -4 -102 22 -108 41 -3 10 -16 30 -29 44 -24 26 -100 220 -90
230 3 3 0 16 -7 29 -7 12 -13 50 -14 83 0 59 0 59 -32 66 -19 4 -33 2 -33 -3z"/>
<path d="M7310 4686 c0 -9 5 -16 10 -16 6 0 10 4 10 9 0 6 -4 13 -10 16 -5 3
-10 -1 -10 -9z"/>
<path d="M3760 4668 c-25 -11 -39 -22 -32 -25 15 -6 82 27 82 39 0 10 4 11
-50 -14z"/>
<path d="M4118 4673 c-21 -5 -24 -23 -5 -23 7 0 22 7 33 15 20 15 9 18 -28 8z"/>
<path d="M4340 4670 c-8 -5 -11 -12 -7 -16 4 -4 15 0 24 9 18 18 8 23 -17 7z"/>
<path d="M4730 4667 c-63 -33 -71 -39 -66 -44 7 -7 96 37 96 48 0 11 0 11 -30
-4z"/>
<path d="M4885 4660 c-16 -11 -37 -20 -46 -20 -18 0 -45 -27 -36 -36 6 -6 114
53 123 67 9 15 -9 10 -41 -11z"/>
<path d="M6740 4672 c0 -13 28 -47 34 -42 10 10 -6 50 -20 50 -8 0 -14 -4 -14
-8z"/>
<path d="M7516 4614 c43 -79 42 -79 49 -72 8 7 -61 132 -75 136 -6 2 5 -27 26
-64z"/>
<path d="M3208 4657 c-7 -7 -28 -22 -45 -32 -18 -11 -33 -23 -33 -27 0 -12 63
22 73 38 4 8 14 14 22 14 8 0 17 5 20 10 9 15 -21 12 -37 -3z"/>
<path d="M3500 4660 c0 -5 6 -10 14 -10 8 0 18 5 21 10 3 6 -3 10 -14 10 -12
0 -21 -4 -21 -10z"/>
<path d="M5140 4653 c-19 -9 -30 -18 -23 -20 6 -2 31 5 55 16 26 12 35 19 23
19 -11 0 -36 -7 -55 -15z"/>
<path d="M2710 4645 c-14 -8 -32 -16 -40 -20 -8 -3 -28 -14 -45 -25 -16 -11
-40 -24 -52 -29 -11 -5 -24 -15 -28 -20 -13 -21 187 70 220 100 14 14 -27 9
-55 -6z"/>
<path d="M7330 4655 c0 -12 45 -85 53 -85 4 0 0 15 -10 33 -9 17 -17 36 -18
41 0 10 -25 21 -25 11z"/>
<path d="M4243 4643 c-12 -2 -27 -11 -35 -20 -11 -15 -10 -16 12 -10 14 4 32
7 41 7 8 0 24 7 35 15 18 14 18 14 -6 13 -14 0 -35 -3 -47 -5z"/>
<path d="M5243 4630 c-10 -11 -23 -20 -29 -20 -7 0 -14 -7 -18 -15 -3 -8 -17
-15 -31 -15 -20 0 -27 -6 -32 -30 -3 -17 -16 -40 -29 -53 -27 -25 -30 -37 -10
-37 8 0 24 16 36 35 12 19 26 35 31 35 5 0 9 7 9 15 0 8 3 15 8 15 13 1 107
89 94 90 -7 0 -20 -9 -29 -20z"/>
<path d="M5421 4629 c-27 -29 -17 -39 11 -11 12 12 19 24 16 27 -3 4 -15 -4
-27 -16z"/>
<path d="M7655 4630 c10 -11 20 -18 23 -15 7 6 -18 35 -31 35 -5 0 -2 -9 8
-20z"/>
<path d="M2945 4606 c-19 -19 -41 -36 -48 -39 -6 -2 -9 -7 -5 -11 6 -7 100 59
106 75 8 20 -20 7 -53 -25z"/>
<path d="M3390 4630 c0 -5 6 -10 14 -10 8 0 18 5 21 10 3 6 -3 10 -14 10 -12
0 -21 -4 -21 -10z"/>
<path d="M6986 4632 c-6 -10 43 -161 60 -183 15 -19 44 -85 44 -98 0 -6 5 -11
10 -11 13 0 13 -40 0 -60 -8 -13 -12 -13 -32 -1 -12 8 -42 24 -66 37 -48 25
-69 47 -111 108 -14 22 -34 51 -43 65 -10 14 -20 33 -24 41 -15 39 -44 85 -51
82 -16 -6 -3 -63 26 -112 4 -8 18 -33 29 -55 13 -24 28 -40 39 -40 10 0 20 -9
23 -20 3 -11 24 -33 47 -50 23 -16 43 -38 46 -47 3 -10 15 -18 26 -18 12 0 21
-4 21 -10 0 -5 11 -10 24 -10 13 0 29 -7 36 -15 7 -8 16 -15 21 -15 5 0 9 7 9
15 0 8 4 15 9 15 5 0 11 11 13 25 3 25 7 22 73 -42 39 -38 85 -75 102 -82 37
-15 73 -11 83 9 4 8 14 30 23 48 9 19 17 39 17 45 0 7 -19 42 -43 78 -23 36
-51 82 -61 103 -11 20 -28 42 -38 47 -9 5 -25 25 -33 44 -15 30 -61 72 -70 63
-4 -4 63 -116 93 -152 12 -16 22 -34 22 -41 0 -6 19 -37 43 -69 37 -49 42 -62
39 -97 -3 -23 -10 -43 -19 -46 -20 -8 -87 25 -116 56 -21 23 -34 34 -73 59
-16 10 -84 120 -84 136 0 7 -9 25 -20 39 -11 14 -20 31 -20 37 0 14 -31 72
-43 81 -5 3 -7 14 -5 24 3 19 -16 32 -26 17z"/>
<path d="M3535 4611 c-49 -17 -95 -42 -95 -51 0 -6 17 -3 38 6 20 9 49 20 65
26 15 5 27 14 27 19 0 10 -6 10 -35 0z"/>
<path d="M8040 4612 c0 -5 7 -15 15 -22 8 -7 15 -8 15 -2 0 5 -7 15 -15 22 -8
7 -15 8 -15 2z"/>
<path d="M3335 4600 c-3 -5 -16 -10 -29 -10 -13 0 -33 -9 -46 -20 -13 -11 -29
-20 -36 -20 -7 0 -18 -8 -23 -19 -10 -17 -8 -18 22 -7 18 6 48 20 67 30 19 10
47 25 63 33 15 8 27 16 27 19 0 9 -39 4 -45 -6z"/>
<path d="M4550 4599 c0 -5 5 -7 10 -4 6 3 10 8 10 11 0 2 -4 4 -10 4 -5 0 -10
-5 -10 -11z"/>
<path d="M3840 4585 c-16 -9 -19 -14 -9 -15 8 0 24 7 35 15 24 18 7 19 -26 0z"/>
<path d="M7680 4586 c0 -7 6 -19 13 -25 8 -6 22 -29 32 -51 10 -22 22 -40 26
-40 8 0 -9 50 -33 97 -13 26 -38 38 -38 19z"/>
<path d="M7830 4591 c0 -5 7 -15 17 -22 15 -13 15 -12 4 9 -12 23 -21 28 -21
13z"/>
<path d="M7969 4551 c18 -48 61 -114 61 -94 0 5 -10 29 -22 54 -12 24 -23 46
-23 49 -6 20 -19 40 -26 40 -5 0 0 -22 10 -49z"/>
<path d="M3620 4561 c-30 -15 -72 -34 -92 -40 -49 -16 -62 -36 -17 -26 48 11
147 59 172 84 19 19 -6 12 -63 -18z"/>
<path d="M3990 4583 c-8 -3 -17 -9 -20 -12 -3 -4 -25 -15 -49 -26 -24 -10 -38
-21 -32 -23 12 -4 141 55 141 64 0 5 -21 4 -40 -3z"/>
<path d="M5305 4579 c-4 -6 -5 -13 -2 -16 7 -7 27 6 27 18 0 12 -17 12 -25 -2z"/>
<path d="M5361 4559 c-13 -17 -21 -33 -18 -35 2 -3 16 11 31 31 15 19 23 35
18 35 -4 0 -18 -14 -31 -31z"/>
<path d="M6250 4575 c0 -9 12 -46 26 -82 14 -36 28 -81 29 -101 5 -54 28 -147
41 -163 6 -8 15 -25 19 -38 11 -37 64 -102 128 -156 60 -52 84 -62 79 -32 -2
9 2 17 8 17 5 0 10 7 10 16 0 14 -3 14 -15 4 -12 -10 -24 -5 -69 34 -80 68
-116 118 -125 173 -4 26 -22 78 -40 115 -22 47 -29 76 -25 93 3 14 1 31 -4 38
-6 7 -10 31 -9 52 2 37 0 40 -25 43 -21 2 -28 -1 -28 -13z"/>
<path d="M4446 4549 c-23 -17 -32 -29 -23 -29 9 0 19 5 22 10 3 6 14 10 24 10
10 0 26 9 36 20 17 19 17 20 -1 19 -10 0 -37 -14 -58 -30z"/>
<path d="M5051 4560 c-13 -11 -29 -20 -36 -20 -16 0 -50 -38 -42 -47 7 -6 112
61 123 78 10 17 -21 8 -45 -11z"/>
<path d="M3395 4553 c-26 -6 -44 -23 -24 -23 26 0 59 12 59 21 0 9 -3 10 -35
2z"/>
<path d="M3763 4553 c-18 -2 -33 -8 -33 -14 0 -14 44 -11 66 6 10 8 15 14 9
13 -5 -1 -25 -3 -42 -5z"/>
<path d="M4290 4530 c-38 -15 -66 -40 -44 -40 16 0 94 42 94 51 0 5 -1 9 -2 8
-2 -1 -23 -9 -48 -19z"/>
<path d="M5275 4539 c-4 -6 -5 -13 -2 -16 7 -7 27 6 27 18 0 12 -17 12 -25 -2z"/>
<path d="M7860 4542 c0 -14 41 -74 47 -69 8 8 -20 66 -34 72 -7 2 -13 1 -13
-3z"/>
<path d="M2466 4525 c-11 -8 -30 -15 -42 -15 -12 0 -24 -5 -26 -11 -2 -6 -19
-14 -38 -18 -18 -3 -35 -12 -38 -19 -4 -13 48 -7 79 9 28 14 29 -2 4 -40 -14
-19 -25 -41 -25 -48 0 -7 -11 -15 -24 -19 -24 -6 -66 -68 -54 -80 9 -9 182 24
227 43 20 8 59 26 86 38 28 13 61 26 75 30 l24 8 -19 -29 c-10 -16 -29 -45
-42 -64 -12 -19 -23 -38 -23 -43 0 -4 -9 -17 -20 -29 -23 -25 -26 -38 -7 -38
66 2 287 98 312 137 18 26 35 30 35 8 0 -8 -4 -15 -8 -15 -10 0 -36 -80 -28
-87 8 -8 132 40 193 74 49 26 133 95 133 108 0 3 -9 5 -20 5 -11 0 -20 -7 -20
-15 0 -8 -11 -17 -25 -21 -14 -3 -25 -10 -25 -14 0 -10 -144 -80 -164 -80 -12
0 -13 5 -4 33 6 17 15 36 19 42 5 5 9 15 9 22 0 8 30 41 66 75 36 34 61 64 55
66 -10 3 -23 -7 -117 -95 -25 -24 -47 -43 -50 -43 -2 0 -32 -20 -67 -44 -122
-85 -215 -124 -231 -97 -12 18 124 202 173 234 37 25 53 47 33 47 -9 0 -85
-50 -93 -62 -7 -11 -58 -40 -121 -69 -27 -12 -48 -25 -48 -30 0 -4 -15 -11
-32 -14 -18 -4 -38 -11 -43 -15 -8 -7 -99 -14 -142 -11 -25 2 9 62 59 104 28
23 56 54 64 69 14 27 13 28 -8 28 -13 0 -32 -7 -42 -15z"/>
<path d="M4070 4528 c-19 -5 -53 -14 -74 -19 -25 -7 -35 -14 -27 -18 19 -12
151 27 151 44 0 6 -7 5 -50 -7z"/>
<path d="M4760 4520 c-9 -6 -10 -10 -3 -10 6 0 15 5 18 10 8 12 4 12 -15 0z"/>
<path d="M4890 4520 c0 -5 5 -10 11 -10 5 0 7 5 4 10 -3 6 -8 10 -11 10 -2 0
-4 -4 -4 -10z"/>
<path d="M3278 4486 c-21 -18 -38 -36 -38 -40 0 -15 41 -4 52 14 7 11 18 20
24 20 10 0 24 21 24 36 0 13 -30 -1 -62 -30z"/>
<path d="M4782 4458 c-78 -53 -90 -75 -22 -39 51 27 54 26 46 -4 -8 -32 13
-33 42 -2 23 25 29 47 12 47 -5 0 -10 7 -10 15 0 8 5 15 10 15 6 0 10 5 10 10
0 16 -11 11 -88 -42z"/>
<path d="M4578 4489 c-24 -14 -23 -28 2 -22 25 7 49 33 29 33 -8 0 -22 -5 -31
-11z"/>
<path d="M4683 4475 c-37 -33 -8 -33 32 0 22 18 25 25 13 25 -9 0 -30 -11 -45
-25z"/>
<path d="M5165 4490 c-3 -5 -2 -10 4 -10 5 0 13 5 16 10 3 6 2 10 -4 10 -5 0
-13 -4 -16 -10z"/>
<path d="M5216 4460 c-14 -22 -23 -40 -20 -40 10 0 64 61 64 72 0 19 -19 5
-44 -32z"/>
<path d="M4930 4479 c0 -5 5 -7 10 -4 6 3 10 8 10 11 0 2 -4 4 -10 4 -5 0 -10
-5 -10 -11z"/>
<path d="M4396 4460 c-22 -11 -46 -20 -53 -20 -7 0 -13 -5 -13 -11 0 -11 19
-7 76 17 31 13 55 34 37 34 -4 -1 -26 -10 -47 -20z"/>
<path d="M7525 4458 c10 -28 35 -68 44 -68 4 0 12 -12 19 -27 10 -24 54 -85
95 -132 33 -39 67 -99 67 -119 0 -13 -7 -30 -15 -39 -8 -8 -12 -19 -9 -24 8
-14 44 20 44 41 0 9 3 20 6 23 6 6 66 -36 102 -70 7 -7 18 -14 23 -14 13 -2
19 -4 64 -18 22 -7 54 -11 70 -9 26 3 30 8 33 36 4 37 6 38 34 13 55 -52 218
-113 218 -82 0 11 -39 29 -77 36 -18 4 -33 10 -33 15 0 5 -13 11 -30 15 -16 4
-30 11 -30 16 0 5 -6 9 -13 9 -14 0 -132 112 -162 155 -11 16 -32 41 -47 57
-16 16 -28 37 -28 45 0 25 -77 93 -106 93 -23 0 -20 -6 46 -92 39 -51 75 -93
79 -93 10 0 41 -32 41 -43 0 -4 12 -19 26 -33 49 -46 66 -76 54 -99 -14 -26
-44 -25 -86 1 -19 11 -34 18 -34 15 0 -6 -40 17 -68 39 -44 34 -132 131 -191
209 -28 37 -59 75 -67 84 -9 8 -20 25 -24 38 -5 13 -19 28 -30 34 -20 11 -21
10 -15 -12z"/>
<path d="M4974 4435 c-3 -14 -10 -25 -15 -25 -4 0 -17 -10 -29 -22 l-20 -22
22 -23 c19 -20 30 -23 90 -22 43 1 68 6 68 13 0 6 6 4 13 -5 10 -12 36 -16
132 -17 139 -3 194 -18 242 -68 20 -21 38 -32 47 -28 18 7 14 16 -26 63 -17
20 -36 31 -52 31 -16 0 -26 6 -26 14 0 10 -18 16 -62 21 -35 3 -83 9 -108 12
-25 3 -82 7 -127 10 -53 3 -83 9 -83 17 -1 6 -10 0 -20 -13 -17 -20 -22 -22
-38 -10 -9 7 -19 14 -21 16 -2 1 6 14 16 30 33 47 35 53 19 53 -9 0 -18 -11
-22 -25z"/>
<path d="M4185 4438 c-16 -6 -36 -17 -43 -25 -7 -7 -20 -13 -28 -13 -8 0 -14
-4 -14 -10 0 -5 5 -10 11 -10 17 0 109 52 109 62 0 4 -1 8 -2 7 -2 0 -16 -5
-33 -11z"/>
<path d="M5063 4443 c-7 -3 -13 -12 -13 -21 0 -15 2 -15 17 1 18 18 16 27 -4
20z"/>
<path d="M4480 4430 c0 -5 4 -10 9 -10 6 0 13 5 16 10 3 6 -1 10 -9 10 -9 0
-16 -4 -16 -10z"/>
<path d="M3500 4420 c-14 -4 -40 -8 -57 -9 -37 -1 -46 -21 -10 -21 38 0 141
21 152 31 11 11 -49 10 -85 -1z"/>
<path d="M4866 4394 c-16 -19 -25 -38 -22 -42 8 -7 66 54 66 69 0 17 -15 7
-44 -27z"/>
<path d="M3915 4410 c-3 -5 -13 -10 -21 -10 -9 0 -22 -7 -30 -15 -9 -8 -26
-15 -39 -15 -13 0 -27 -4 -30 -10 -3 -5 4 -10 16 -10 24 0 119 49 119 62 0 11
-7 10 -15 -2z"/>
<path d="M4285 4410 c-16 -7 -17 -9 -3 -9 9 -1 20 4 23 9 7 11 7 11 -20 0z"/>
<path d="M6530 4361 c17 -32 30 -62 30 -66 0 -4 6 -21 13 -38 36 -85 47 -135
37 -162 -6 -15 -8 -30 -6 -32 8 -8 27 8 21 17 -3 5 0 12 6 15 11 7 49 -27 49
-43 0 -14 35 -42 53 -42 9 0 17 -6 17 -14 0 -21 46 -62 104 -90 57 -28 76 -32
76 -16 0 6 8 20 19 31 l19 20 20 -25 c11 -14 25 -26 31 -26 6 0 11 -7 11 -15
0 -30 153 -175 184 -175 7 0 21 111 18 140 -5 38 -22 49 -24 15 0 -17 -1 -37
0 -45 2 -34 -51 -25 -96 18 -7 6 -18 12 -23 12 -5 0 -9 7 -9 15 0 8 -7 15 -15
15 -8 0 -15 9 -15 20 0 11 -9 28 -20 37 -11 10 -20 22 -20 29 0 6 -9 19 -20
29 -11 10 -20 24 -20 32 0 7 -4 13 -8 13 -4 0 -27 40 -50 89 -24 49 -49 92
-57 95 -18 6 -20 36 -3 36 6 0 3 9 -7 20 -17 19 -45 27 -45 13 0 -15 53 -113
61 -113 5 0 9 -11 9 -25 0 -14 7 -28 15 -31 8 -4 15 -14 15 -23 0 -9 5 -22 12
-29 7 -7 9 -12 5 -12 -4 0 0 -14 9 -32 14 -27 14 -37 4 -72 -7 -23 -15 -35
-17 -28 -3 6 -10 12 -17 12 -6 0 -28 11 -49 25 -20 14 -42 23 -47 20 -6 -3
-10 -1 -10 5 0 6 -22 34 -50 61 -27 27 -50 55 -50 63 0 7 -9 21 -20 31 -11 10
-18 21 -16 24 3 4 -11 38 -30 76 -19 38 -34 74 -34 81 0 7 -9 33 -20 58 -16
37 -24 46 -44 46 l-26 0 30 -59z"/>
<path d="M4456 4391 c-3 -4 -33 -19 -66 -31 -33 -12 -60 -27 -60 -32 0 -10 24
-4 85 22 40 17 77 50 57 50 -6 0 -13 -4 -16 -9z"/>
<path d="M4563 4362 c-53 -18 -77 -32 -52 -32 23 0 109 33 109 42 0 4 -1 8 -2
7 -2 0 -26 -8 -55 -17z"/>
<path d="M4679 4320 c-42 -44 -64 -59 -88 -62 -23 -2 -37 -11 -49 -30 -21 -35
-8 -47 21 -20 l23 21 29 -25 c17 -15 35 -22 44 -18 55 22 219 53 324 60 87 6
95 -2 53 -51 -13 -15 -30 -40 -37 -54 -8 -14 -20 -37 -28 -50 -17 -27 -20 -38
-27 -101 -5 -49 16 -105 48 -124 20 -12 30 -5 32 26 3 32 -14 65 -24 48 -16
-26 -30 2 -28 58 1 37 8 65 20 81 10 13 18 30 18 38 0 7 26 40 59 72 45 45 62
56 75 49 9 -5 16 -15 16 -22 0 -12 -41 -56 -52 -56 -13 0 -72 -66 -75 -83 -2
-11 -10 -28 -18 -40 -17 -25 -20 -61 -4 -52 5 4 21 31 35 61 28 61 65 102 105
116 21 7 29 17 29 33 0 33 14 38 35 15 23 -25 47 -27 38 -2 -11 27 -28 40 -74
56 -51 18 -211 16 -341 -4 -84 -13 -89 -13 -103 6 -13 17 -14 17 -15 2 0 -13
-8 -18 -30 -18 -16 0 -30 4 -30 9 0 4 19 32 41 60 23 29 40 54 37 56 -2 2 -29
-22 -59 -55z"/>
<path d="M4785 4370 c-5 -8 -15 -25 -23 -37 -9 -15 -10 -23 -3 -23 14 0 44 46
39 62 -3 9 -7 8 -13 -2z"/>
<path d="M3555 4361 c-3 -6 -27 -13 -52 -17 -26 -4 -53 -13 -61 -20 -18 -19
-6 -18 74 7 74 22 102 39 67 39 -12 0 -24 -4 -28 -9z"/>
<path d="M3981 4336 c-7 -8 -27 -17 -46 -20 -18 -4 -44 -15 -57 -26 -22 -18
-22 -19 -3 -20 24 0 120 43 129 58 10 17 -10 23 -23 8z"/>
<path d="M4140 4324 c-14 -7 -33 -14 -42 -14 -9 0 -20 -4 -23 -10 -10 -16 49
-12 71 5 10 8 27 15 36 15 9 0 20 5 23 10 9 14 -36 11 -65 -6z"/>
<path d="M4807 4326 c-3 -8 -3 -17 0 -20 7 -7 33 13 33 25 0 15 -27 10 -33 -5z"/>
<path d="M3595 4311 c-22 -10 -66 -26 -98 -36 -55 -17 -83 -35 -55 -35 30 0
206 64 222 80 17 17 -25 12 -69 -9z"/>
<path d="M8051 4297 c19 -17 55 -48 80 -68 24 -20 84 -75 132 -122 77 -75 87
-89 81 -111 -4 -19 -2 -26 9 -26 8 0 17 7 21 15 7 19 25 19 45 1 14 -12 104
-46 122 -46 15 0 -4 38 -24 48 -54 25 -127 52 -142 52 -9 0 -14 4 -11 9 3 5
-16 26 -42 47 -63 52 -59 48 -149 135 -81 79 -109 99 -140 99 -14 0 -10 -8 18
-33z"/>
<path d="M5354 4273 c15 -55 18 -63 27 -63 5 0 9 5 9 10 0 6 7 10 15 10 8 0
15 -9 15 -20 0 -11 4 -20 10 -20 5 0 21 -25 35 -55 28 -58 52 -75 40 -27 -9
37 -44 89 -95 140 -45 45 -64 53 -56 25z"/>
<path d="M3661 4251 c-7 -5 -9 -11 -4 -14 6 -4 19 0 29 8 15 11 16 14 4 15 -8
0 -21 -4 -29 -9z"/>
<path d="M3778 4252 c-10 -2 -18 -8 -18 -13 0 -11 11 -11 30 1 18 11 11 18
-12 12z"/>
<path d="M5286 4245 c4 -8 9 -15 13 -15 9 0 33 -47 38 -70 1 -8 7 -35 12 -60
5 -25 7 -49 4 -53 -3 -5 -5 -25 -5 -45 1 -50 -25 -161 -44 -190 -9 -13 -13
-26 -10 -29 9 -10 56 46 56 67 0 10 5 22 11 26 15 9 5 -59 -20 -140 -10 -32
-16 -69 -13 -83 l5 -24 24 23 c27 25 53 70 53 90 -1 8 -6 6 -15 -6 -18 -24
-25 -18 -14 11 5 14 14 21 23 17 10 -4 16 4 21 26 6 25 3 36 -15 52 -12 12
-19 27 -15 35 3 9 -1 26 -9 38 -11 16 -14 46 -12 104 1 45 -1 84 -4 86 -4 3
-5 15 -3 29 3 13 0 27 -6 30 -5 4 -8 13 -4 21 3 8 1 15 -4 15 -5 0 -17 14 -26
30 -18 31 -51 43 -41 15z"/>
<path d="M7450 4233 c0 -27 3 -31 110 -124 47 -41 166 -83 128 -46 -7 8 -31
22 -53 32 -22 10 -64 43 -92 72 -29 29 -57 53 -63 53 -5 0 -10 6 -10 14 0 8
-4 18 -10 21 -6 4 -10 -6 -10 -22z"/>
<path d="M4448 4216 c-39 -34 -46 -46 -27 -46 10 0 79 68 79 77 0 10 -20 -2
-52 -31z"/>
<path d="M4308 4178 c-26 -29 -45 -54 -43 -57 6 -5 105 91 105 102 0 17 -18 4
-62 -45z"/>
<path d="M7000 4221 c0 -6 5 -13 11 -17 8 -5 8 -9 -1 -14 -7 -5 0 -14 22 -28
18 -12 29 -22 25 -22 -4 0 -3 -9 3 -20 6 -11 19 -19 28 -18 9 2 16 -2 15 -9
-4 -19 24 -77 47 -98 13 -11 31 -39 41 -62 10 -24 24 -43 30 -43 7 0 17 -7 24
-16 6 -9 19 -15 28 -13 13 3 7 16 -28 64 -25 33 -49 65 -54 71 -5 6 -35 50
-66 97 -32 48 -63 87 -68 87 -6 0 -7 3 -4 6 11 12 -13 44 -33 44 -11 0 -20 -4
-20 -9z"/>
<path d="M3580 4210 c0 -5 4 -10 9 -10 6 0 13 5 16 10 3 6 -1 10 -9 10 -9 0
-16 -4 -16 -10z"/>
<path d="M3695 4202 c-16 -8 -35 -21 -42 -28 -7 -7 -34 -20 -60 -30 -27 -10
-59 -24 -73 -31 -14 -7 -33 -13 -42 -13 -10 0 -18 -4 -18 -9 0 -8 -91 -34 -97
-27 -1 1 16 22 37 48 31 35 48 47 79 52 22 3 43 11 46 16 8 13 -21 13 -47 -1
-14 -8 -23 -8 -31 0 -6 6 -22 11 -34 11 -18 0 -28 -10 -42 -44 -11 -24 -38
-62 -60 -85 -36 -37 -53 -71 -35 -71 11 0 147 51 159 58 5 5 28 14 50 21 22 8
45 18 51 23 7 5 52 29 100 55 49 25 98 52 109 59 19 14 19 14 0 13 -11 -1 -33
-8 -50 -17z"/>
<path d="M4153 4192 c-18 -15 -43 -35 -55 -44 -18 -14 -20 -17 -6 -18 9 0 38
20 65 45 52 48 49 62 -4 17z"/>
<path d="M3850 4190 c-8 -5 -11 -12 -7 -16 4 -4 13 -2 19 4 15 15 7 24 -12 12z"/>
<path d="M5380 4196 c0 -15 21 -56 29 -56 13 0 -2 53 -17 58 -7 2 -12 1 -12
-2z"/>
<path d="M5525 4178 c4 -13 13 -28 21 -34 7 -6 12 -13 10 -15 -1 -2 5 -68 14
-146 14 -121 14 -148 3 -187 -21 -73 -33 -56 -28 39 3 52 1 85 -5 85 -6 0 -10
-6 -11 -12 -1 -7 -3 -37 -5 -66 -3 -29 -13 -70 -24 -90 -51 -95 10 -105 71
-11 34 53 36 76 25 209 -4 47 -9 106 -11 131 -4 59 -30 119 -50 119 -12 0 -15
-6 -10 -22z"/>
<path d="M4483 4168 c-24 -11 -31 -28 -12 -28 17 0 49 20 49 30 0 12 -9 12
-37 -2z"/>
<path d="M5255 4163 c9 -21 16 -124 15 -205 0 -31 -10 -83 -20 -114 -49 -141
-43 -193 13 -114 27 38 27 40 8 40 -25 0 -25 -1 -7 47 28 75 38 134 34 183 -3
28 -1 53 4 56 5 3 4 12 -2 19 -7 8 -10 22 -8 32 5 22 -18 73 -33 73 -7 0 -8
-7 -4 -17z"/>
<path d="M4007 4163 c-4 -3 -7 -11 -7 -17 0 -6 5 -5 12 2 6 6 9 14 7 17 -3 3
-9 2 -12 -2z"/>
<path d="M3787 4153 c-10 -9 -9 -23 1 -23 5 0 17 7 28 15 19 14 19 14 -2 15
-11 0 -24 -3 -27 -7z"/>
<path d="M4380 4150 c-9 -6 -10 -10 -3 -10 6 0 15 5 18 10 8 12 4 12 -15 0z"/>
<path d="M7270 4131 c0 -5 10 -22 23 -38 12 -15 36 -48 52 -73 17 -25 32 -47
35 -50 3 -3 24 -30 47 -60 23 -30 57 -73 77 -94 20 -22 38 -48 42 -58 3 -10 9
-18 14 -18 12 0 23 -56 15 -80 -3 -11 -12 -20 -20 -20 -39 0 -178 106 -247
189 -17 20 -48 29 -48 14 0 -22 175 -186 267 -250 32 -23 68 -21 59 2 -2 7 -2
16 2 20 7 6 8 11 10 53 l2 24 47 -28 c26 -15 56 -37 67 -48 35 -35 102 -85
152 -111 36 -19 50 -22 61 -13 7 6 12 16 10 22 -2 6 2 22 9 36 8 14 10 28 5
33 -12 12 -31 0 -31 -19 0 -19 -19 -18 -76 7 -76 34 -185 125 -274 230 -25 29
-52 60 -61 68 -8 9 -26 32 -39 51 -14 19 -29 40 -36 45 -6 6 -25 31 -43 57
-17 25 -37 53 -43 60 -7 8 -18 23 -24 33 -12 21 -54 34 -54 16z"/>
<path d="M3948 4113 c-30 -36 -30 -47 0 -19 18 17 32 31 32 33 0 9 -19 1 -32
-14z"/>
<path d="M5405 4098 c3 -17 6 -73 7 -125 1 -51 6 -93 10 -93 4 0 9 17 9 38 1
20 2 49 3 64 0 14 4 30 9 34 12 12 8 43 -9 80 -20 43 -34 44 -29 2z"/>
<path d="M3670 4079 c-73 -37 -98 -59 -66 -59 15 0 81 27 101 42 41 30 68 57
55 56 -8 0 -49 -18 -90 -39z"/>
<path d="M4031 4095 c-17 -15 -31 -31 -31 -36 0 -13 61 22 67 39 10 24 -4 23
-36 -3z"/>
<path d="M3795 4073 c-68 -42 -76 -50 -73 -77 3 -22 9 -23 152 -31 116 -6 116
-6 217 -29 68 -17 152 -29 182 -28 9 0 17 -3 17 -8 0 -5 26 -14 58 -20 79 -15
190 -49 197 -61 4 -5 21 -9 40 -9 26 0 35 -5 40 -22 8 -24 60 -78 76 -78 5 0
18 -8 28 -17 31 -29 46 -40 69 -52 13 -7 20 -16 17 -22 -9 -13 -19 -11 -41 9
-16 15 -80 52 -90 52 -15 0 18 -37 59 -67 63 -46 73 -56 120 -117 20 -27 39
-62 42 -80 12 -67 12 -81 4 -92 -5 -6 -12 -31 -15 -55 -5 -47 -22 -89 -35 -89
-5 0 -5 9 -1 20 11 29 -6 200 -21 218 -6 8 -11 23 -9 33 4 21 -88 119 -111
119 -9 0 -17 4 -19 10 -4 13 -89 24 -131 16 -29 -5 -36 -12 -45 -45 -7 -21
-12 -47 -12 -58 0 -30 -23 -71 -42 -77 -11 -2 -18 -14 -18 -30 0 -28 14 -35
24 -11 3 8 11 15 19 15 15 0 52 67 48 88 -1 6 3 12 9 12 5 0 10 15 10 34 0 40
11 46 80 46 43 0 54 -5 95 -42 46 -42 62 -69 85 -145 14 -44 10 -170 -6 -194
-20 -31 -30 -84 -21 -111 5 -16 12 -28 16 -28 3 0 23 14 44 31 l38 31 -7 -28
c-4 -16 -11 -39 -15 -51 -5 -13 -6 -30 -2 -39 5 -14 14 -9 44 27 l38 44 -1
-38 c-1 -45 5 -53 25 -32 10 10 18 12 22 5 10 -16 30 4 54 53 12 23 25 49 30
57 16 26 32 143 30 210 -1 36 -10 89 -21 119 -10 30 -18 62 -18 72 0 10 -11
26 -25 35 -14 9 -25 23 -25 30 0 8 -4 14 -9 14 -6 0 -29 13 -53 29 -48 32
-141 86 -175 100 -12 6 -26 19 -32 29 -5 10 -32 27 -58 37 -60 22 -69 30 -54
48 9 12 -3 18 -76 37 -49 12 -110 26 -138 30 -27 5 -66 14 -85 19 -19 6 -47
11 -62 11 -16 0 -28 5 -28 11 0 6 -12 9 -27 8 -16 -1 -45 5 -66 14 -59 26
-347 57 -347 37 0 -5 -10 -10 -22 -9 l-23 0 22 9 c14 6 20 15 17 23 -3 8 10
27 30 45 62 55 46 57 -39 5z m935 -333 c0 -5 -2 -10 -4 -10 -3 0 -8 5 -11 10
-3 6 -1 10 4 10 6 0 11 -4 11 -10z m137 -100 c55 -31 74 -45 123 -92 15 -16
33 -28 39 -28 6 0 8 -7 5 -15 -4 -9 3 -37 15 -64 26 -61 35 -109 33 -183 -1
-60 -27 -164 -43 -174 -5 -3 -7 -10 -4 -15 4 -5 -1 -9 -10 -9 -12 0 -15 5 -10
18 4 9 10 28 12 42 4 20 2 22 -6 10 -9 -13 -11 -13 -11 2 0 9 5 18 11 20 12 4
15 87 6 153 -4 22 -18 72 -31 110 -14 39 -26 80 -26 92 0 22 -64 83 -142 136
-55 36 -28 35 39 -3z m21 -69 c30 -30 72 -109 72 -135 0 -8 5 -18 10 -21 6 -3
10 -20 10 -36 0 -17 5 -39 11 -50 7 -14 7 -24 0 -33 -6 -7 -12 -21 -14 -32 -6
-36 -37 -95 -45 -90 -5 3 -7 36 -5 73 10 152 9 188 -6 212 -8 13 -16 33 -16
44 -1 11 -9 25 -18 32 -10 7 -17 17 -17 24 0 6 -7 11 -15 11 -8 0 -15 7 -15
15 0 23 15 18 48 -14z"/>
<path d="M5504 4038 c4 -18 10 -48 13 -65 3 -20 12 -33 20 -33 12 0 14 7 9 28
-4 15 -9 44 -13 65 -3 23 -11 37 -21 37 -11 0 -13 -7 -8 -32z"/>
<path d="M7588 4023 c10 -16 22 -36 25 -45 4 -10 16 -18 29 -18 20 1 21 2 8
13 -9 7 -14 20 -12 30 5 25 -16 47 -45 47 l-24 0 19 -27z"/>
<path d="M3520 4019 c0 -5 5 -7 10 -4 6 3 10 8 10 11 0 2 -4 4 -10 4 -5 0 -10
-5 -10 -11z"/>
<path d="M3468 4012 c-16 -2 -28 -10 -28 -18 0 -17 0 -17 40 0 36 15 30 24
-12 18z"/>
<path d="M3328 3983 c-22 -5 -23 -36 -3 -53 11 -9 22 -9 45 -2 29 10 31 9 44
-22 20 -48 34 -53 62 -22 22 23 32 26 92 26 37 0 84 -5 106 -11 21 -6 80 -11
130 -11 50 -1 96 -4 101 -8 6 -3 39 -7 75 -9 36 -1 83 -7 105 -12 22 -5 51
-11 65 -14 14 -2 76 -17 139 -33 86 -23 120 -37 138 -56 13 -14 35 -26 48 -26
14 0 25 -4 25 -9 0 -5 9 -13 20 -16 28 -9 25 -26 -11 -55 -16 -14 -44 -36 -61
-50 -25 -21 -47 -56 -50 -80 0 -3 -7 -27 -15 -55 -18 -58 -12 -135 12 -172 17
-25 72 -63 92 -63 7 0 10 10 7 25 -8 44 -24 76 -35 70 -7 -5 -5 -15 6 -31 11
-18 12 -24 3 -24 -17 0 -60 68 -60 94 0 63 13 117 39 164 27 49 83 102 109
102 21 0 63 40 58 55 -3 8 -35 28 -70 45 -65 32 -76 43 -49 54 8 3 15 9 15 13
0 11 -73 33 -110 33 -17 0 -45 6 -63 14 -18 7 -64 17 -102 21 -39 4 -74 10
-80 15 -12 9 -119 23 -162 21 -18 0 -33 4 -33 9 0 5 -15 10 -32 9 -39 -1 -235
9 -293 16 -22 2 -75 7 -119 11 -65 6 -80 10 -84 26 -3 14 -13 18 -46 17 -22
-1 -49 -3 -58 -6z"/>
<path d="M7895 3979 c-4 -5 15 -32 42 -59 26 -28 56 -67 67 -86 10 -19 31 -48
47 -64 16 -16 29 -30 29 -33 0 -4 54 -65 116 -129 18 -18 53 -49 78 -68 26
-19 55 -43 64 -53 30 -33 134 -98 232 -147 97 -48 249 -92 327 -95 46 -1 52 5
28 29 -13 12 -39 66 -32 66 11 0 114 -43 134 -55 34 -23 134 -48 145 -37 6 6
2 16 -8 26 -27 28 -8 29 21 2 16 -15 33 -26 38 -26 6 0 18 -6 26 -14 22 -20
202 -97 211 -91 5 3 10 0 12 -5 5 -16 86 -32 120 -25 30 7 33 12 18 35 -8 12
-12 12 -18 2 -10 -14 -52 -12 -73 4 -8 5 -27 11 -44 13 -16 2 -31 7 -33 12 -2
5 -11 9 -20 9 -9 0 -30 7 -47 16 -16 9 -64 34 -106 55 -41 21 -84 48 -94 59
-10 11 -24 20 -31 20 -7 0 -19 6 -26 13 -19 17 -77 47 -91 47 -7 0 12 -22 41
-49 55 -50 64 -71 33 -71 -23 0 -111 38 -111 48 0 4 -23 18 -52 32 -29 14 -65
37 -80 52 -16 16 -35 28 -43 28 -7 0 -15 4 -17 8 -1 5 -40 30 -85 56 -46 26
-86 53 -90 60 -5 7 -30 26 -58 43 -27 17 -81 60 -119 97 -37 36 -72 66 -77 66
-5 0 -9 7 -9 15 0 8 -8 22 -18 32 -10 10 -37 42 -61 71 -30 36 -50 52 -67 52
-32 0 -30 -11 6 -35 16 -11 30 -25 30 -30 0 -6 8 -18 18 -26 9 -9 37 -39 62
-68 52 -61 121 -129 154 -151 12 -8 53 -40 92 -71 38 -31 93 -69 123 -84 30
-15 61 -33 68 -41 8 -7 20 -17 26 -21 27 -17 77 -89 77 -111 0 -21 -3 -22 -37
-17 -110 19 -231 73 -366 164 -54 36 -107 71 -117 77 -19 10 -62 51 -210 196
-83 82 -160 178 -160 202 0 7 -7 17 -16 20 -8 3 -13 10 -9 15 3 5 1 12 -5 16
-18 11 -50 14 -55 4z"/>
<path d="M7641 3940 c-11 -6 -11 -9 0 -16 8 -5 25 -25 39 -45 42 -60 89 -109
105 -109 8 0 15 -6 15 -12 0 -14 139 -148 153 -148 4 0 46 -31 93 -69 46 -38
98 -72 114 -76 16 -4 32 -11 35 -16 7 -10 48 -12 57 -3 3 3 -1 19 -9 35 -11
22 -18 27 -27 20 -17 -14 -54 -3 -100 30 -22 16 -45 29 -52 29 -6 0 -14 7 -18
15 -3 8 -11 15 -19 15 -7 0 -33 20 -57 45 -24 24 -47 42 -52 39 -4 -3 -8 0 -8
5 0 6 -7 11 -15 11 -8 0 -15 4 -15 9 0 5 -34 43 -76 85 -41 42 -71 76 -67 76
4 1 -4 8 -19 16 -16 8 -28 23 -28 34 0 23 -31 42 -49 30z"/>
<path d="M8470 3909 c0 -25 180 -219 203 -219 4 0 7 -5 7 -11 0 -22 194 -188
206 -176 2 2 -24 29 -59 61 -87 79 -197 189 -197 195 0 3 -10 18 -23 32 -12
15 -42 50 -65 78 -41 48 -72 65 -72 40z"/>
<path d="M9100 3609 c0 -14 58 -59 76 -59 8 0 -19 27 -59 59 -14 11 -17 11
-17 0z"/>
<path d="M8207 3556 c-5 -14 10 -36 25 -36 13 0 9 27 -6 39 -10 9 -15 8 -19
-3z"/>
<path d="M8915 3470 c10 -11 28 -20 39 -20 17 0 15 4 -12 20 -41 25 -50 25
-27 0z"/>
<path d="M8970 3430 c0 -5 7 -10 16 -10 8 0 12 5 9 10 -3 6 -10 10 -16 10 -5
0 -9 -4 -9 -10z"/>
</g>
</svg>
