<?xml version="1.0" standalone="no"?>
<!DOCTYPE svg PUBLIC "-//W3C//DTD SVG 20010904//EN"
 "http://www.w3.org/TR/2001/REC-SVG-20010904/DTD/svg10.dtd">
<svg version="1.0" xmlns="http://www.w3.org/2000/svg"
 width="1376.000000pt" height="2345.000000pt" viewBox="0 0 1376.000000 2345.000000"
 preserveAspectRatio="xMidYMid meet">
<metadata>
Created by potrace 1.13, written by Peter Selinger 2001-2015
</metadata>
<g transform="translate(0.000000,2345.000000) scale(0.100000,-0.100000)"
fill="#000000" stroke="none">
<path d="M12216 22931 c-4 -7 -5 -15 -2 -18 9 -9 19 4 14 18 -4 11 -6 11 -12
0z"/>
<path d="M13044 22566 c-17 -44 -82 -52 -359 -46 l-80 1 21 -21 c21 -21 24
-21 170 -12 159 11 250 5 248 -15 -1 -7 -2 -31 -2 -53 l-2 -40 -77 0 c-43 -1
-89 0 -103 0 -148 3 -193 1 -202 -8 -21 -21 29 -28 125 -19 51 4 152 7 225 5
72 -2 132 0 132 5 0 4 6 6 13 5 9 -2 12 16 12 64 0 50 4 72 17 84 16 16 15 18
-9 37 -34 27 -120 36 -129 13z"/>
<path d="M13282 22293 c-8 -14 -23 -16 -78 -15 -177 6 -226 6 -324 -1 -58 -4
-118 -10 -135 -12 -26 -5 -133 -10 -302 -14 -29 0 -53 -5 -53 -11 0 -12 55
-41 63 -33 18 18 352 39 362 23 10 -16 -58 -110 -79 -110 -4 0 -31 -18 -60
-40 -29 -22 -56 -40 -60 -40 -4 0 -19 -9 -33 -20 -14 -11 -34 -20 -44 -20 -11
0 -19 -4 -19 -10 0 -5 -8 -10 -18 -10 -10 0 -23 -5 -29 -11 -5 -5 -26 -11 -45
-12 -24 -1 -34 -6 -31 -14 6 -15 59 -17 68 -3 3 6 16 10 29 10 12 0 26 4 32 9
5 5 50 26 99 47 50 20 97 42 105 48 8 6 31 20 50 30 19 11 40 26 45 33 6 7 21
14 35 15 24 3 25 0 28 -49 3 -51 2 -53 -22 -53 -31 0 -33 -16 -7 -44 12 -14
20 -43 24 -88 6 -60 4 -68 -11 -68 -9 0 -123 -1 -252 -2 -129 -1 -239 -3 -243
-6 -5 -2 0 -13 9 -23 12 -14 26 -18 43 -15 80 17 350 23 374 10 15 -9 13 -13
-13 -42 -17 -18 -30 -36 -30 -40 0 -4 -15 -16 -32 -27 -18 -10 -37 -24 -41
-32 -4 -7 -14 -13 -21 -13 -8 0 -19 -6 -25 -14 -6 -7 -44 -30 -85 -50 -40 -20
-82 -45 -92 -55 -11 -10 -39 -20 -63 -24 -24 -3 -47 -10 -50 -16 -4 -5 -26
-13 -49 -17 -48 -7 -52 -30 -6 -28 51 2 304 110 409 174 28 17 57 33 65 36 8
3 30 12 48 20 18 8 37 14 41 14 15 0 31 -59 22 -82 -4 -12 -4 -38 0 -57 10
-44 7 -47 -36 -55 -19 -4 -35 -11 -35 -16 0 -6 4 -10 8 -10 5 0 23 -14 40 -31
25 -25 37 -30 57 -25 14 4 29 14 32 24 3 9 12 24 18 32 11 13 24 64 26 95 0
18 -9 190 -11 195 -4 10 2 55 8 62 11 11 328 19 355 9 60 -23 85 15 46 70 -26
36 -48 37 -79 1 -22 -24 -36 -29 -115 -39 -99 -12 -176 -8 -187 10 -4 7 -8 24
-8 39 0 21 -6 29 -24 34 -28 7 -43 42 -18 40 17 -1 28 40 33 119 1 22 7 46 12
53 5 6 6 12 2 12 -4 0 0 11 9 25 21 32 20 55 -1 56 -15 0 -14 2 3 9 12 5 67 8
123 7 113 -2 121 -6 121 -68 l0 -35 53 -1 c54 -1 97 17 97 41 0 8 -13 26 -30
39 -16 14 -30 30 -30 36 0 10 -39 41 -52 41 -4 0 -11 -8 -16 -17z"/>
<path d="M2555 21920 c-3 -5 -2 -10 4 -10 5 0 13 5 16 10 3 6 2 10 -4 10 -5 0
-13 -4 -16 -10z"/>
<path d="M13070 21720 c0 -5 10 -10 23 -10 18 0 19 2 7 10 -19 13 -30 13 -30
0z"/>
<path d="M190 21685 c0 -18 5 -25 18 -25 27 0 32 9 19 31 -17 27 -37 24 -37
-6z"/>
<path d="M13153 21653 c-7 -3 -13 -18 -13 -34 0 -24 15 -46 73 -105 68 -68 76
-74 105 -68 18 4 32 11 32 15 0 5 11 7 25 3 28 -7 118 33 112 50 -2 5 -34 18
-73 27 -95 25 -164 50 -164 60 0 5 -7 9 -15 9 -8 0 -15 4 -15 8 0 12 -54 40
-67 35z"/>
<path d="M13267 21329 c-3 -11 -4 -46 -2 -77 8 -120 16 -407 18 -651 l2 -254
-37 -23 c-28 -18 -52 -24 -94 -24 -45 0 -55 -3 -52 -16 2 -12 18 -16 69 -17
59 -2 68 -5 93 -32 25 -28 27 -29 39 -11 68 105 87 140 83 151 -2 7 -1 29 4
48 5 22 4 39 -3 46 -7 7 -11 85 -13 205 -1 106 -5 203 -8 213 -4 11 1 37 9 58
9 20 14 44 10 52 -8 21 -8 203 0 235 5 19 15 29 36 33 21 5 29 12 27 23 -2 10
-10 17 -18 18 -24 1 -72 16 -99 30 -37 20 -58 17 -64 -7z"/>
<path d="M12800 21301 c0 -5 -17 -12 -37 -16 -21 -4 -42 -10 -48 -15 -5 -4
-39 -11 -75 -14 -36 -4 -78 -9 -95 -12 -16 -3 -56 -8 -88 -11 -47 -4 -57 -8
-55 -21 3 -11 12 -16 28 -14 46 5 181 3 201 -3 17 -6 18 -12 12 -63 -4 -31 -7
-72 -7 -89 0 -18 -2 -33 -5 -33 -3 -1 -26 -5 -51 -10 -29 -5 -49 -5 -57 2 -9
7 -15 6 -19 -6 -3 -9 -11 -13 -17 -9 -5 3 -28 5 -50 5 -21 -1 -44 1 -50 5 -7
4 -18 8 -27 9 -8 0 -31 3 -50 5 -52 6 -52 -23 -1 -55 34 -22 45 -24 67 -15 15
5 48 8 72 5 25 -3 68 -1 95 5 60 11 87 5 87 -21 0 -18 -74 -142 -120 -202 -11
-14 -20 -31 -20 -36 0 -5 -18 -28 -40 -51 -22 -22 -40 -48 -40 -56 0 -8 -6
-15 -12 -15 -7 -1 -33 -21 -57 -45 -25 -24 -78 -61 -118 -81 -52 -26 -72 -41
-69 -51 4 -8 6 -19 6 -24 0 -5 9 -9 20 -9 11 0 20 6 20 13 0 8 10 18 23 24 12
6 49 23 82 38 59 27 148 109 161 148 3 9 9 17 15 17 14 0 124 87 142 112 16
23 16 23 18 -17 4 -95 -1 -204 -14 -293 l-11 -73 -40 2 c-57 2 -79 0 -95 -10
-12 -8 -13 -12 -1 -26 7 -9 20 -13 28 -10 8 3 20 1 26 -4 7 -6 32 -15 56 -20
37 -9 47 -8 57 5 6 8 19 14 29 12 11 -2 20 6 25 24 4 15 14 37 23 50 9 12 16
32 16 43 0 12 5 26 11 32 7 7 8 17 1 30 -6 10 -7 25 -3 33 5 8 5 48 1 88 -4
40 -4 88 -1 105 4 18 3 44 -3 59 -7 18 -6 38 1 61 6 19 9 56 7 83 -2 27 -1 54
4 60 4 8 47 13 112 15 58 2 111 5 118 7 18 6 15 37 -8 57 -18 16 -21 16 -55
-5 -21 -13 -59 -24 -95 -27 -58 -6 -60 -5 -61 18 -3 64 -6 86 -13 104 -6 15
-5 17 3 5 12 -17 13 -16 28 29 11 29 10 36 -4 46 -32 24 -4 38 63 32 35 -4 65
-3 67 1 10 15 -14 52 -42 66 -33 18 -71 21 -71 7z"/>
<path d="M13100 21210 c0 -5 5 -10 10 -10 6 0 10 5 10 10 0 6 -4 10 -10 10 -5
0 -10 -4 -10 -10z"/>
<path d="M13062 21149 c3 -24 7 -48 8 -54 1 -5 2 -31 1 -57 -1 -37 -5 -48 -17
-48 -11 0 -14 -5 -9 -17 13 -36 20 -100 18 -183 -3 -129 -11 -272 -16 -303 -7
-39 33 -87 60 -71 10 6 19 26 21 44 2 18 9 39 16 46 10 9 11 25 6 53 -4 22 -6
42 -3 44 8 9 11 381 3 403 -7 19 -5 26 12 38 17 12 19 18 9 30 -11 13 -8 20
13 41 l26 26 -37 17 c-21 9 -45 17 -53 18 -8 2 -26 6 -39 10 -23 7 -24 6 -19
-37z m48 -214 c0 -8 -4 -15 -10 -15 -5 0 -10 7 -10 15 0 8 5 15 10 15 6 0 10
-7 10 -15z"/>
<path d="M710 21126 c0 -13 26 -46 36 -46 2 0 4 14 4 30 0 23 -4 30 -20 30
-11 0 -20 -6 -20 -14z"/>
<path d="M12797 20813 c-4 -3 -3 -11 2 -17 14 -17 51 -137 46 -147 -3 -4 -1
-10 5 -14 5 -3 10 -15 10 -26 0 -25 22 -34 49 -19 49 26 2 142 -75 186 -10 6
-19 16 -19 22 0 14 -10 23 -18 15z"/>
<path d="M13283 20083 c-37 -7 -44 -25 -27 -72 8 -23 12 -46 9 -51 -3 -5 -1
-11 4 -14 12 -8 11 -66 -1 -66 -4 0 -8 -4 -8 -10 0 -5 6 -10 13 -10 6 0 13
-11 13 -25 1 -15 -4 -25 -11 -25 -10 0 -12 -10 -8 -37 3 -21 7 -40 9 -42 2 -2
-1 -12 -6 -22 -7 -13 -6 -20 3 -26 12 -8 37 -56 37 -72 0 -5 -11 -7 -25 -6
-19 3 -25 -1 -25 -15 0 -10 4 -22 10 -25 5 -3 8 -16 6 -28 -2 -12 1 -33 6 -46
6 -17 5 -27 -4 -32 -8 -5 -13 -31 -14 -72 0 -34 -3 -67 -6 -73 -3 -5 -5 -40
-6 -77 0 -38 -2 -70 -4 -72 -2 -3 -276 -12 -400 -15 -15 0 -37 -10 -48 -22
-17 -19 -22 -20 -30 -8 -6 10 -32 15 -87 17 -145 6 -137 3 -148 51 -6 24 -14
40 -18 36 -4 -4 -7 -2 -7 4 0 7 3 12 8 12 4 0 8 71 9 158 1 133 -2 160 -16
176 -15 18 -15 19 3 13 17 -7 18 -3 11 68 -6 65 -5 75 9 75 13 0 16 11 16 54
0 30 -4 57 -9 60 -5 3 -9 16 -9 28 0 13 -1 28 -2 33 -6 28 2 63 19 81 16 18
30 20 110 19 83 -1 111 5 79 18 -7 2 -60 5 -118 6 -58 1 -109 6 -114 12 -25
24 -36 8 -35 -48 1 -51 -5 -211 -13 -381 -2 -28 2 -54 7 -55 6 -2 5 -9 -2 -19
-8 -9 -11 -33 -7 -69 3 -30 5 -75 5 -101 -1 -26 3 -49 8 -52 10 -7 3 -45 -12
-63 -6 -9 -6 -17 1 -25 13 -17 7 -158 -8 -214 -21 -75 5 -97 53 -46 20 21 29
43 34 80 l6 51 91 -3 c50 -2 119 -7 154 -11 43 -5 66 -4 76 4 10 8 21 9 33 3
19 -10 131 0 187 17 17 5 46 9 64 10 18 1 36 2 40 2 44 7 67 -32 49 -81 -10
-25 -9 -33 3 -40 19 -13 45 -8 45 7 0 7 9 19 20 26 17 13 17 17 5 31 -11 15
-11 18 7 22 14 4 23 20 31 52 12 47 10 200 -2 220 -3 6 -2 12 4 14 6 2 6 15 0
38 -10 35 -18 125 -23 236 -1 34 -8 68 -16 78 -12 14 -12 16 3 10 13 -5 16 1
16 30 0 21 -5 36 -12 36 -7 0 -5 7 5 18 9 9 13 23 9 29 -4 6 -7 46 -7 89 0 74
1 77 24 81 34 5 35 7 16 42 -16 31 -28 35 -82 24z m-758 -273 c-3 -5 -10 -10
-16 -10 -5 0 -9 5 -9 10 0 6 7 10 16 10 8 0 12 -4 9 -10z"/>
<path d="M12800 20028 c-17 -6 -19 -11 -10 -28 14 -26 41 -26 63 0 12 14 29
20 59 20 23 0 39 3 35 6 -9 9 -124 11 -147 2z"/>
<path d="M13090 19975 c0 -19 23 -55 35 -55 18 0 18 5 5 29 -8 17 -40 37 -40
26z"/>
<path d="M12954 19957 c-3 -8 -1 -31 4 -51 7 -23 7 -36 1 -36 -13 0 -1 -108
17 -141 12 -24 12 -28 -2 -33 -8 -3 -12 -11 -9 -17 4 -5 7 -27 7 -47 0 -20 11
-68 24 -106 13 -38 23 -70 21 -71 -29 -14 -77 -60 -73 -70 5 -15 -15 -44 -86
-123 -26 -30 -48 -57 -48 -62 0 -5 12 -7 28 -5 15 2 30 4 35 4 4 1 7 9 7 19 0
9 24 40 53 69 28 29 62 63 75 76 25 28 62 26 62 -4 0 -30 66 -89 100 -89 21 0
29 5 28 18 0 9 3 28 7 42 16 60 13 65 -32 62 -35 -3 -44 0 -49 15 -4 10 -16
28 -28 41 -18 20 -19 25 -6 45 23 36 69 131 70 143 0 7 7 14 15 18 22 8 18 32
-7 50 -25 18 -48 6 -48 -24 0 -10 -3 -20 -7 -22 -10 -4 -43 -75 -43 -92 0 -8
-7 -20 -17 -27 -15 -13 -16 -11 -11 15 5 27 -12 70 -34 86 -4 3 -5 25 -3 48 2
23 1 62 -4 87 -9 49 0 65 37 65 14 0 21 4 17 11 -4 6 -12 8 -19 6 -30 -12 -57
46 -33 69 11 11 8 36 -3 29 -6 -4 -17 -1 -25 5 -12 10 -16 9 -21 -3z"/>
<path d="M13167 19874 c-12 -12 6 -34 29 -34 l24 0 -20 20 c-22 22 -24 23 -33
14z"/>
<path d="M12720 19860 c-8 -5 -22 -7 -32 -4 -9 2 -19 0 -22 -5 -8 -12 28 -33
46 -27 11 4 127 15 166 16 7 0 11 4 8 9 -3 4 -31 7 -61 6 -31 -1 -58 2 -61 7
-7 11 -25 10 -44 -2z"/>
<path d="M13100 19850 c0 -5 5 -10 11 -10 5 0 7 5 4 10 -3 6 -8 10 -11 10 -2
0 -4 -4 -4 -10z"/>
<path d="M12833 19686 c6 -14 -3 -16 -68 -16 -43 0 -84 5 -95 13 -17 10 -22 9
-30 -3 -10 -15 -11 -97 -1 -115 7 -14 7 -106 0 -111 -11 -6 -9 -104 1 -104 13
0 50 79 50 108 0 19 5 23 28 22 15 -1 52 -2 82 -1 l56 1 -1 107 c-1 80 -5 108
-15 111 -9 3 -11 -1 -7 -12z m-36 -76 c5 -19 6 -48 3 -65 -4 -24 -11 -30 -44
-37 -39 -8 -72 4 -60 23 3 5 0 9 -6 9 -6 0 -9 8 -6 18 3 9 2 23 -3 31 -6 9 -4
23 6 37 12 19 23 23 58 21 41 -2 44 -4 52 -37z"/>
<path d="M13260 19640 c0 -13 5 -20 13 -17 6 2 12 10 12 17 0 7 -6 15 -12 18
-8 2 -13 -5 -13 -18z"/>
<path d="M12910 19411 c0 -5 -14 -12 -31 -16 -17 -4 -57 -20 -89 -36 -33 -16
-73 -29 -89 -29 -17 0 -31 -4 -31 -9 0 -5 -14 -11 -30 -15 -40 -8 -48 -31 -19
-55 13 -11 26 -15 27 -10 2 5 10 9 17 9 7 0 15 4 17 8 4 12 137 82 154 82 8 0
14 5 14 10 0 6 8 10 19 10 20 0 71 36 71 51 0 5 -7 9 -15 9 -8 0 -15 -4 -15
-9z"/>
<path d="M920 19354 c0 -8 5 -12 10 -9 6 4 8 11 5 16 -9 14 -15 11 -15 -7z"/>
<path d="M5208 19324 c-4 -3 -4 -12 -2 -18 3 -7 -2 -19 -11 -26 -8 -7 -15 -19
-15 -27 0 -24 -38 -90 -65 -111 -14 -11 -25 -26 -25 -34 0 -7 -6 -22 -14 -33
-7 -11 -23 -51 -36 -90 -13 -38 -25 -76 -28 -82 -2 -7 0 -13 6 -13 6 0 16 17
22 38 18 55 59 138 74 151 10 8 16 8 25 -3 9 -11 8 -22 -3 -47 -8 -19 -24 -66
-36 -105 -11 -38 -29 -87 -40 -107 -11 -20 -16 -37 -10 -37 15 0 45 65 74 163
15 49 35 103 46 121 10 18 24 44 32 57 7 13 19 28 26 32 14 9 17 47 3 47 -5 0
-21 -20 -35 -44 -14 -24 -35 -46 -46 -49 -20 -5 -20 -5 1 31 12 21 33 48 46
63 12 14 23 32 23 41 0 8 7 21 15 28 20 16 16 54 -5 58 -9 1 -19 0 -22 -4z"/>
<path d="M1300 19280 c0 -5 7 -10 15 -10 8 0 15 5 15 10 0 6 -7 10 -15 10 -8
0 -15 -4 -15 -10z"/>
<path d="M5123 19273 c-7 -3 -13 -11 -13 -19 0 -8 -5 -14 -10 -14 -6 0 -23
-28 -40 -62 -27 -59 -60 -95 -74 -81 -3 3 6 25 21 50 14 24 23 46 21 48 -14
14 -88 -103 -88 -138 0 -10 -13 -50 -30 -89 -16 -38 -30 -80 -30 -91 0 -21 0
-21 16 1 8 12 26 52 39 90 38 110 35 106 51 83 11 -15 11 -26 2 -52 -6 -19
-15 -38 -19 -43 -5 -6 -9 -26 -9 -45 0 -50 13 -29 45 74 16 50 39 104 52 122
12 17 23 36 23 42 0 5 11 22 24 38 47 56 56 100 19 86z"/>
<path d="M7235 19117 c-52 -53 -60 -58 -63 -40 -2 11 4 37 12 57 8 20 13 36
11 36 -10 0 -45 -35 -45 -45 0 -6 -8 -20 -18 -31 -29 -31 -71 -113 -62 -119 5
-3 15 3 22 15 28 44 38 13 12 -38 -21 -42 -30 -102 -15 -102 6 0 11 8 11 18 1
27 35 94 69 132 17 19 31 30 31 25 0 -6 -5 -16 -12 -23 -8 -8 -9 -15 -2 -22 6
-6 42 22 102 81 51 50 92 95 92 100 0 13 -17 11 -23 -3 -3 -7 -20 -22 -38 -32
-32 -19 -32 -19 -25 0 29 71 18 69 -59 -9z"/>
<path d="M7060 19160 c0 -5 5 -10 11 -10 5 0 7 5 4 10 -3 6 -8 10 -11 10 -2 0
-4 -4 -4 -10z"/>
<path d="M5231 19084 c-12 -15 -21 -33 -21 -41 0 -8 -7 -27 -15 -43 -9 -17
-12 -30 -8 -30 5 0 25 32 46 70 38 70 37 93 -2 44z"/>
<path d="M7331 19062 c-47 -50 -108 -138 -121 -172 -7 -19 -17 -39 -22 -44 -4
-6 -8 -24 -8 -40 1 -30 1 -30 16 -11 8 11 24 45 35 77 12 31 33 70 48 87 56
63 70 80 80 99 22 41 8 42 -28 4z"/>
<path d="M4848 19009 c-16 -22 -28 -46 -28 -54 0 -19 -29 -67 -47 -78 -7 -4
-13 -17 -13 -28 0 -22 -35 -81 -71 -119 -13 -14 -32 -37 -41 -50 -15 -22 -17
-23 -17 -6 -1 18 -3 18 -23 -4 -14 -15 -18 -25 -11 -27 14 -5 2 -37 -35 -95
-13 -20 -22 -47 -20 -60 3 -20 6 -17 26 22 12 25 39 68 59 95 137 186 259 395
251 429 -2 8 -15 -3 -30 -25z"/>
<path d="M6760 19029 c-6 -11 -10 -28 -8 -37 3 -13 8 -9 21 15 20 37 21 43 7
43 -5 0 -14 -9 -20 -21z"/>
<path d="M6830 19013 c0 -10 -14 -40 -30 -68 -29 -49 -37 -75 -22 -75 9 1 52
85 52 104 0 7 7 19 15 26 8 7 12 16 9 21 -9 15 -24 10 -24 -8z"/>
<path d="M6930 19019 c0 -5 5 -7 10 -4 6 3 10 8 10 11 0 2 -4 4 -10 4 -5 0
-10 -5 -10 -11z"/>
<path d="M6993 19015 c-3 -9 -3 -18 0 -21 9 -9 27 6 27 22 0 19 -19 18 -27 -1z"/>
<path d="M6986 18965 c-3 -8 -1 -15 4 -15 6 0 10 7 10 15 0 8 -2 15 -4 15 -2
0 -6 -7 -10 -15z"/>
<path d="M6865 18960 c3 -5 8 -10 11 -10 2 0 4 5 4 10 0 6 -5 10 -11 10 -5 0
-7 -4 -4 -10z"/>
<path d="M7314 18938 c-42 -47 -59 -88 -88 -213 -43 -184 -61 -227 -132 -300
-22 -22 -52 -58 -69 -80 -16 -22 -35 -46 -42 -53 -13 -14 -17 -32 -7 -32 3 0
38 33 77 73 111 111 137 165 200 430 10 38 26 81 37 97 11 15 20 34 20 41 0 7
12 26 27 41 15 15 22 28 16 28 -5 0 -23 -15 -39 -32z"/>
<path d="M6645 18950 c-5 -5 -37 -34 -70 -64 -64 -59 -71 -89 -8 -37 60 50 93
85 93 99 0 14 -1 14 -15 2z"/>
<path d="M6726 18944 c-4 -10 -1 -14 6 -12 15 5 23 28 10 28 -5 0 -13 -7 -16
-16z"/>
<path d="M7161 18933 c-6 -16 -15 -38 -21 -50 -6 -14 -6 -25 1 -28 9 -6 27 29
43 83 10 32 -10 27 -23 -5z"/>
<path d="M6857 18926 c-4 -10 -5 -21 -2 -24 9 -9 17 6 13 25 -3 17 -4 17 -11
-1z"/>
<path d="M6972 18913 c-5 -10 -14 -34 -20 -53 -5 -19 -13 -43 -17 -52 -5 -12
-3 -18 7 -18 10 0 20 23 31 67 17 69 16 89 -1 56z"/>
<path d="M6687 18883 c-13 -32 -21 -39 -95 -89 -49 -33 -92 -84 -92 -109 0 -5
13 4 28 20 16 17 54 50 85 74 78 60 130 131 97 131 -6 0 -16 -12 -23 -27z"/>
<path d="M6475 18863 c-34 -31 -62 -69 -94 -126 -24 -43 -25 -47 -11 -47 5 0
19 18 30 40 11 22 40 62 65 90 25 28 45 55 45 60 0 14 -2 13 -35 -17z"/>
<path d="M5000 18870 c0 -5 5 -10 10 -10 6 0 10 5 10 10 0 6 -4 10 -10 10 -5
0 -10 -4 -10 -10z"/>
<path d="M4937 18850 c-9 -11 -17 -23 -17 -27 0 -3 -14 -28 -31 -55 -31 -51
-32 -72 -3 -48 19 17 76 128 72 141 -2 5 -11 0 -21 -11z"/>
<path d="M5135 18828 c-11 -27 -23 -48 -27 -48 -5 0 -8 -7 -8 -15 0 -8 -4 -15
-10 -15 -5 0 -10 -8 -10 -17 0 -15 4 -13 21 7 31 39 61 100 57 118 -2 10 -11
-2 -23 -30z"/>
<path d="M6375 18823 c-34 -41 -86 -154 -85 -187 1 -17 30 26 30 43 0 9 11 29
25 45 14 16 25 33 25 38 0 5 14 29 30 53 17 24 30 46 30 49 0 15 -18 1 -55
-41z"/>
<path d="M6811 18828 c-12 -24 -45 -63 -72 -88 -104 -92 -155 -146 -167 -172
-13 -32 2 -39 18 -9 10 19 57 65 154 152 42 38 106 129 106 152 0 20 -19 2
-39 -35z"/>
<path d="M6689 18791 c-36 -36 -76 -75 -90 -86 -29 -24 -89 -113 -89 -132 0
-25 16 -13 40 29 13 23 36 54 51 68 71 67 98 90 106 90 6 0 48 62 61 93 9 20
-19 -2 -79 -62z"/>
<path d="M4676 18841 c-4 -7 -5 -15 -2 -18 9 -9 19 4 14 18 -4 11 -6 11 -12 0z"/>
<path d="M4847 18828 c-8 -13 -24 -33 -35 -46 -11 -13 -35 -45 -54 -72 -18
-27 -38 -50 -44 -50 -7 0 -15 -7 -18 -16 -8 -22 -8 -24 8 -24 20 0 176 192
176 216 0 21 -16 17 -33 -8z"/>
<path d="M4975 18804 c-10 -25 -26 -49 -36 -54 -16 -9 -89 -115 -118 -172 -23
-44 -7 -42 23 2 15 23 43 56 62 74 44 41 120 196 97 196 -5 0 -17 -21 -28 -46z"/>
<path d="M6862 18796 c-12 -24 -38 -60 -59 -79 -42 -40 -39 -60 4 -29 32 23
98 138 84 146 -5 3 -18 -14 -29 -38z"/>
<path d="M7126 18814 c-4 -15 -5 -29 -2 -31 9 -9 26 8 26 27 0 30 -17 32 -24
4z"/>
<path d="M7070 18819 c0 -5 5 -7 10 -4 6 3 10 8 10 11 0 2 -4 4 -10 4 -5 0
-10 -5 -10 -11z"/>
<path d="M7000 18804 c0 -8 5 -12 10 -9 6 3 10 10 10 16 0 5 -4 9 -10 9 -5 0
-10 -7 -10 -16z"/>
<path d="M4615 18769 c-39 -43 -73 -110 -121 -241 -17 -44 -35 -78 -43 -78 -7
0 -11 -6 -8 -14 4 -9 -3 -16 -15 -20 -18 -4 -19 -8 -9 -20 10 -12 9 -18 -7
-34 -11 -11 -24 -26 -28 -33 -11 -17 -50 -40 -57 -33 -5 5 48 91 63 104 12 10
59 109 64 133 2 14 10 35 16 47 6 12 9 24 6 27 -9 9 -26 -8 -26 -26 0 -9 -9
-36 -20 -59 -11 -22 -20 -45 -20 -50 0 -5 -11 -19 -25 -32 -14 -13 -25 -29
-25 -35 0 -7 -11 -24 -25 -39 -14 -15 -25 -33 -25 -40 0 -8 -10 -16 -22 -19
-24 -7 -38 -1 -38 14 0 6 5 7 10 4 6 -3 10 0 10 7 0 8 16 38 35 68 35 56 43
80 25 80 -5 0 -10 -6 -10 -13 0 -8 -9 -22 -20 -32 -11 -10 -20 -24 -20 -32 0
-7 -6 -16 -14 -19 -16 -6 -80 -99 -90 -132 -8 -24 -22 -29 -28 -10 -2 6 -10 8
-16 4 -17 -10 -15 -26 3 -26 19 0 19 -4 -4 -70 -25 -73 -36 -134 -22 -125 6 3
11 12 11 19 0 57 110 292 118 252 6 -29 -19 -96 -39 -107 -11 -6 -16 -16 -12
-25 3 -9 2 -19 -4 -23 -11 -7 -36 -91 -29 -98 2 -3 26 38 51 91 26 53 51 96
55 96 5 0 11 9 15 19 3 11 13 22 21 25 27 10 27 -23 0 -55 -23 -27 -36 -69
-21 -69 10 0 45 40 45 51 0 6 7 8 16 5 9 -3 18 -6 20 -6 2 0 -6 -19 -18 -42
-12 -24 -23 -45 -23 -48 -1 -3 -6 -23 -12 -45 -6 -22 -16 -66 -23 -97 -7 -32
-17 -58 -22 -58 -5 0 -12 -10 -17 -23 -5 -13 -20 -36 -33 -53 -31 -37 -41 -64
-25 -64 7 0 29 22 49 48 35 47 53 96 79 212 17 77 60 157 112 210 54 54 120
170 115 202 -3 18 -10 10 -35 -42 -57 -116 -110 -177 -134 -153 -9 9 -4 22 25
57 52 64 113 176 127 232 16 65 47 125 103 202 25 34 46 64 46 67 0 15 -22 0
-55 -36z"/>
<path d="M6296 18795 c-3 -9 0 -15 9 -15 16 0 20 16 6 24 -5 3 -11 -1 -15 -9z"/>
<path d="M6469 18777 c-30 -37 -46 -77 -30 -77 6 0 11 6 11 13 1 6 14 28 30
47 17 19 30 38 30 42 0 16 -15 6 -41 -25z"/>
<path d="M7066 18785 c-3 -8 -1 -15 4 -15 6 0 10 7 10 15 0 8 -2 15 -4 15 -2
0 -6 -7 -10 -15z"/>
<path d="M5180 18771 c-6 -12 -7 -21 -1 -21 10 0 24 30 17 37 -2 3 -9 -5 -16
-16z"/>
<path d="M6922 18768 c-14 -14 -16 -38 -3 -38 10 0 26 39 19 46 -2 2 -10 -2
-16 -8z"/>
<path d="M6961 18708 c-24 -52 -55 -95 -108 -149 -93 -96 -123 -137 -123 -167
0 -21 9 -13 51 44 29 38 76 95 105 126 54 60 118 174 112 202 -1 9 -18 -17
-37 -56z"/>
<path d="M7167 18763 c-11 -20 -18 -67 -8 -58 11 11 26 65 18 65 -3 0 -8 -3
-10 -7z"/>
<path d="M6277 18753 c-4 -3 -7 -11 -7 -17 0 -6 5 -5 12 2 6 6 9 14 7 17 -3 3
-9 2 -12 -2z"/>
<path d="M4997 18728 c-8 -13 -29 -47 -47 -76 -18 -29 -30 -55 -27 -58 3 -3
17 13 32 35 14 23 34 50 44 60 23 23 37 61 22 61 -6 0 -17 -10 -24 -22z"/>
<path d="M5140 18715 c0 -9 -7 -18 -15 -21 -8 -4 -15 -12 -15 -20 0 -18 26 -7
34 14 3 9 9 23 12 30 3 6 1 12 -5 12 -6 0 -11 -7 -11 -15z"/>
<path d="M7107 18723 c-4 -3 -7 -13 -7 -22 1 -13 3 -13 11 2 11 19 8 33 -4 20z"/>
<path d="M4635 18710 c3 -5 8 -10 11 -10 2 0 4 5 4 10 0 6 -5 10 -11 10 -5 0
-7 -4 -4 -10z"/>
<path d="M6837 18658 c-37 -35 -81 -74 -97 -88 -17 -14 -40 -43 -50 -64 -23
-46 -23 -46 -10 -46 6 0 10 4 10 9 0 19 73 97 152 165 36 30 78 86 65 86 -1 0
-33 -28 -70 -62z"/>
<path d="M7025 18670 c-14 -22 -25 -44 -25 -49 0 -6 -33 -44 -72 -84 -120
-122 -131 -137 -107 -137 12 0 107 94 168 165 18 22 39 41 45 41 6 1 19 2 29
3 22 1 23 21 1 21 -14 0 -15 7 -10 40 3 22 4 40 1 40 -3 0 -16 -18 -30 -40z"/>
<path d="M4815 18664 c-17 -20 -36 -43 -43 -51 -20 -20 -64 -105 -57 -111 3
-3 6 -3 8 -1 2 2 22 34 45 70 23 36 53 76 67 89 14 13 25 27 25 32 0 17 -16 7
-45 -28z"/>
<path d="M5177 18658 c-35 -47 -81 -137 -74 -144 3 -3 15 12 26 33 26 52 41
63 77 58 17 -2 58 1 90 6 216 35 358 -1 454 -116 58 -69 138 -116 223 -131 20
-3 37 -10 37 -15 0 -4 23 -15 50 -23 140 -42 214 -136 282 -359 30 -102 36
-112 86 -160 54 -53 129 -184 114 -199 -10 -10 -144 -44 -209 -52 -73 -9 -136
-38 -162 -74 -26 -38 -29 -62 -3 -40 26 22 117 58 149 58 15 0 35 5 43 10 12
8 12 10 1 10 -8 0 -11 3 -8 7 4 3 15 -1 24 -9 18 -15 33 -15 131 -3 47 6 49 3
39 -56 -18 -94 -32 -138 -47 -136 -32 3 -180 -16 -186 -24 -3 -5 -16 -9 -29
-9 -34 0 -55 -10 -55 -26 0 -18 3 -18 75 5 33 10 94 21 137 25 73 6 76 6 71
-14 -3 -11 -1 -20 5 -20 5 0 13 16 16 35 4 21 13 35 22 35 8 0 22 4 32 9 9 5
42 17 72 25 118 34 166 51 180 62 8 6 43 26 77 44 37 19 65 41 69 54 4 11 16
33 27 48 11 15 17 31 13 35 -4 5 -14 -1 -22 -12 -43 -61 -160 -155 -193 -155
-9 0 -25 -7 -35 -15 -11 -8 -31 -15 -45 -14 -14 0 -20 3 -13 6 20 8 14 23 -9
23 -16 0 -20 -5 -16 -20 4 -15 0 -20 -13 -20 -11 0 -21 -4 -24 -9 -3 -4 -18
-11 -33 -14 -16 -3 -35 -8 -44 -12 -13 -5 -15 -1 -12 19 3 14 8 26 12 26 4 0
5 18 3 40 -4 35 -2 40 17 40 19 0 140 37 150 47 3 2 0 7 -5 12 -5 5 -32 1 -64
-9 -72 -24 -92 -25 -88 -3 2 12 33 29 93 51 50 18 104 45 122 58 66 50 197
243 178 262 -7 8 -34 -30 -35 -48 0 -8 -10 -26 -23 -40 -13 -14 -37 -45 -54
-70 -63 -93 -128 -131 -266 -157 -24 -5 -28 -3 -25 13 2 12 22 25 56 38 28 10
52 23 52 28 0 12 -65 2 -91 -15 -10 -6 -22 -8 -26 -3 -4 5 0 13 11 20 85 51
159 107 208 157 89 90 61 87 -35 -3 -60 -57 -99 -86 -142 -103 -72 -29 -96
-19 -50 21 17 14 46 39 65 56 19 17 45 35 57 40 20 10 123 128 123 141 0 4 -7
4 -15 1 -8 -4 -15 -10 -15 -15 0 -12 -72 -81 -145 -137 -33 -26 -68 -56 -77
-67 -20 -24 -38 -16 -82 39 -30 37 -30 38 -12 52 11 7 16 17 13 21 -4 4 -13 1
-19 -5 -7 -7 -17 -12 -23 -12 -11 0 -55 88 -95 190 -12 30 -29 69 -38 87 -15
29 -15 34 0 50 23 27 40 63 29 63 -5 0 -18 -14 -28 -31 -18 -27 -21 -28 -33
-14 -10 12 -10 19 -2 27 17 17 15 33 -3 18 -11 -9 -22 -6 -55 21 -22 18 -40
35 -40 38 0 4 11 23 25 43 27 40 30 48 16 48 -5 0 -18 -16 -30 -35 -23 -40
-60 -48 -68 -15 -4 16 -8 18 -19 9 -20 -17 -46 7 -38 35 7 21 6 21 -14 2 -26
-23 -52 -8 -46 27 l5 22 -12 -22 c-9 -18 -21 -23 -51 -23 -21 0 -38 4 -38 9 0
5 -19 19 -42 31 -24 12 -45 25 -48 29 -3 3 -34 31 -70 62 -122 104 -227 139
-355 118 -60 -11 -183 -18 -189 -11 -3 2 2 15 11 28 23 36 -2 29 -30 -8z"/>
<path d="M4476 18645 c-3 -8 -1 -15 4 -15 6 0 10 7 10 15 0 8 -2 15 -4 15 -2
0 -6 -7 -10 -15z"/>
<path d="M4998 18639 c-27 -29 -21 -45 7 -19 24 23 32 41 18 39 -5 0 -16 -9
-25 -20z"/>
<path d="M7266 18633 c-16 -83 -18 -106 -9 -100 6 4 14 28 18 53 3 26 9 53 12
60 3 8 1 14 -5 14 -6 0 -13 -12 -16 -27z"/>
<path d="M6144 18605 c-23 -22 -63 -58 -88 -80 -25 -22 -46 -46 -46 -53 0 -13
144 107 168 140 26 36 6 32 -34 -7z"/>
<path d="M6684 18604 c-44 -46 -81 -104 -69 -104 19 0 44 23 49 46 4 14 23 41
44 59 20 19 33 37 29 41 -4 4 -28 -15 -53 -42z"/>
<path d="M7128 18640 c-4 -8 -14 -40 -25 -70 -19 -58 -29 -73 -80 -127 -18
-19 -33 -35 -33 -37 0 -2 -16 -21 -36 -42 -21 -22 -32 -40 -25 -42 11 -4 93
57 118 88 33 39 95 195 90 223 -2 16 -5 18 -9 7z"/>
<path d="M5056 18615 c-3 -8 -2 -15 3 -15 5 0 14 7 21 15 10 12 10 15 -3 15
-8 0 -17 -7 -21 -15z"/>
<path d="M6275 18610 c-3 -5 -1 -10 4 -10 6 0 11 5 11 10 0 6 -2 10 -4 10 -3
0 -8 -4 -11 -10z"/>
<path d="M4680 18599 c0 -5 5 -7 10 -4 6 3 10 8 10 11 0 2 -4 4 -10 4 -5 0
-10 -5 -10 -11z"/>
<path d="M6038 18582 c-32 -19 -36 -32 -10 -32 9 0 25 12 35 25 21 29 14 30
-25 7z"/>
<path d="M5033 18578 c-19 -25 -24 -38 -14 -38 11 0 35 39 28 46 -2 3 -9 -1
-14 -8z"/>
<path d="M4652 18571 c-6 -4 -19 -29 -27 -57 -18 -58 -17 -54 -6 -54 5 0 13
10 17 23 3 12 12 29 19 37 28 34 26 69 -3 51z"/>
<path d="M7028 18563 c-7 -9 -36 -40 -64 -69 -53 -54 -109 -142 -98 -153 3 -3
13 5 22 19 9 14 42 52 72 85 64 69 100 114 100 126 0 15 -18 10 -32 -8z"/>
<path d="M4900 18568 c0 -2 -14 -36 -30 -77 -32 -77 -35 -91 -22 -91 4 0 20
33 36 73 16 39 31 78 33 85 3 6 0 12 -6 12 -6 0 -11 -1 -11 -2z"/>
<path d="M6250 18560 c0 -5 5 -10 10 -10 6 0 10 5 10 10 0 6 -4 10 -10 10 -5
0 -10 -4 -10 -10z"/>
<path d="M6481 18499 c-7 -23 -15 -47 -18 -55 -3 -8 0 -14 6 -14 5 0 15 18 21
41 6 22 14 47 17 55 3 8 1 14 -4 14 -6 0 -15 -18 -22 -41z"/>
<path d="M4789 18513 c-1 -11 -8 -51 -11 -62 -2 -5 2 -9 7 -9 6 0 15 18 21 39
10 32 9 39 -2 39 -8 0 -14 -3 -15 -7z"/>
<path d="M5952 18497 c-20 -21 -21 -37 -2 -37 8 0 32 51 27 56 -2 2 -13 -7
-25 -19z"/>
<path d="M6145 18510 c-3 -5 -2 -10 4 -10 5 0 13 5 16 10 3 6 2 10 -4 10 -5 0
-13 -4 -16 -10z"/>
<path d="M6182 18481 c-18 -22 -32 -43 -32 -46 0 -10 60 47 71 68 18 31 -7 18
-39 -22z"/>
<path d="M7230 18495 c-14 -36 -88 -128 -115 -142 -24 -13 -85 -101 -85 -123
0 -7 18 8 40 33 23 25 61 67 85 92 40 41 105 138 105 158 0 17 -21 5 -30 -18z"/>
<path d="M6535 18476 c-9 -21 -15 -50 -13 -65 3 -21 7 -14 21 33 21 67 15 88
-8 32z"/>
<path d="M4926 18475 c-13 -55 -14 -65 -5 -70 11 -8 22 35 17 71 l-4 29 -8
-30z"/>
<path d="M6100 18475 c-19 -23 -8 -26 19 -4 16 13 18 19 8 19 -8 0 -20 -7 -27
-15z"/>
<path d="M6606 18481 c-4 -7 -5 -15 -2 -18 9 -9 19 4 14 18 -4 11 -6 11 -12 0z"/>
<path d="M4690 18460 c0 -11 5 -20 10 -20 6 0 10 9 10 20 0 11 -4 20 -10 20
-5 0 -10 -9 -10 -20z"/>
<path d="M4996 18469 c-9 -27 -12 -79 -6 -79 4 0 10 19 13 42 6 42 2 64 -7 37z"/>
<path d="M5087 18473 c-3 -4 -10 -28 -17 -53 -6 -25 -13 -53 -16 -62 -3 -10
-1 -18 5 -18 5 0 16 30 25 67 14 62 15 86 3 66z"/>
<path d="M5150 18450 c0 -5 5 -10 10 -10 6 0 10 5 10 10 0 6 -4 10 -10 10 -5
0 -10 -4 -10 -10z"/>
<path d="M6313 18448 c-19 -25 -24 -38 -14 -38 11 0 35 39 28 46 -2 3 -9 -1
-14 -8z"/>
<path d="M7270 18445 c-7 -9 -11 -18 -8 -20 3 -3 11 1 18 10 7 9 11 18 8 20
-3 3 -11 -1 -18 -10z"/>
<path d="M5920 18429 c0 -5 5 -7 10 -4 6 3 10 8 10 11 0 2 -4 4 -10 4 -5 0
-10 -5 -10 -11z"/>
<path d="M4566 18358 c-21 -40 -43 -78 -49 -83 -26 -22 -79 -97 -73 -102 19
-19 147 160 161 225 3 17 5 32 2 32 -2 0 -21 -33 -41 -72z"/>
<path d="M4680 18414 c0 -8 5 -12 10 -9 6 3 10 10 10 16 0 5 -4 9 -10 9 -5 0
-10 -7 -10 -16z"/>
<path d="M4753 18379 c-10 -23 -32 -70 -50 -105 -19 -40 -27 -64 -19 -64 13 0
53 75 84 158 24 62 12 70 -15 11z"/>
<path d="M6429 18379 c-34 -45 -52 -79 -41 -79 13 0 74 89 70 101 -2 6 -15 -4
-29 -22z"/>
<path d="M6647 18397 c-11 -29 -9 -53 4 -40 6 6 9 21 7 34 -3 21 -4 22 -11 6z"/>
<path d="M6782 18365 c-16 -35 -15 -40 4 -25 25 21 37 50 21 50 -8 0 -19 -11
-25 -25z"/>
<path d="M7220 18382 c0 -4 -17 -28 -39 -52 -21 -24 -49 -65 -62 -90 -13 -25
-27 -47 -30 -50 -12 -10 -44 -76 -55 -115 -15 -50 -34 -105 -45 -127 -14 -28
7 -30 25 -3 27 42 35 19 15 -42 -22 -65 -70 -163 -81 -163 -4 0 -14 -13 -22
-29 -20 -39 -76 -94 -125 -126 -45 -28 -53 -40 -19 -29 52 16 149 106 205 192
28 42 81 192 67 192 -10 0 61 149 82 171 28 29 30 39 9 39 -8 0 -15 -5 -15
-11 0 -14 -25 -39 -39 -39 -14 0 -14 0 1 41 14 40 109 187 138 214 24 21 26
35 5 35 -8 0 -15 -4 -15 -8z"/>
<path d="M4657 18359 c-3 -13 -1 -19 6 -16 15 5 22 37 9 37 -5 0 -12 -9 -15
-21z"/>
<path d="M4828 18374 c-5 -4 -8 -16 -8 -28 0 -14 3 -17 11 -9 6 6 9 19 7 28
-1 9 -6 13 -10 9z"/>
<path d="M6252 18368 c-14 -14 -16 -28 -3 -28 9 0 24 30 18 36 -2 2 -9 -2 -15
-8z"/>
<path d="M6490 18340 c-22 -44 -24 -50 -12 -50 7 0 25 30 50 83 2 4 -1 7 -7 7
-6 0 -20 -18 -31 -40z"/>
<path d="M5112 18309 c-19 -79 -48 -134 -128 -236 -67 -86 -87 -123 -66 -123
4 0 18 19 31 43 13 23 48 71 77 107 28 36 59 82 68 104 24 57 45 145 37 151
-4 2 -13 -18 -19 -46z"/>
<path d="M4123 18302 c-23 -25 -44 -71 -69 -147 -49 -151 -78 -208 -143 -286
-64 -76 -88 -116 -76 -126 4 -5 10 -3 12 4 9 26 70 110 94 131 34 28 102 166
127 257 22 78 34 104 75 156 46 61 30 70 -20 11z"/>
<path d="M4896 18328 c-10 -31 -16 -68 -11 -68 6 0 35 56 35 70 0 14 -20 13
-24 -2z"/>
<path d="M4970 18319 c0 -41 -60 -144 -118 -204 -71 -73 -106 -122 -93 -130 5
-3 13 1 18 9 7 13 41 53 122 146 53 60 110 200 82 200 -6 0 -11 -9 -11 -21z"/>
<path d="M4642 18308 c-14 -14 -16 -38 -3 -38 8 0 23 41 17 47 -1 1 -8 -3 -14
-9z"/>
<path d="M6533 18305 c-8 -22 6 -33 17 -15 13 20 12 30 0 30 -6 0 -13 -7 -17
-15z"/>
<path d="M6847 18313 c-4 -3 -7 -11 -7 -17 0 -6 5 -5 12 2 6 6 9 14 7 17 -3 3
-9 2 -12 -2z"/>
<path d="M6621 18294 c0 -11 3 -14 6 -6 3 7 2 16 -1 19 -3 4 -6 -2 -5 -13z"/>
<path d="M6690 18289 c0 -11 5 -17 10 -14 6 3 10 13 10 21 0 8 -4 14 -10 14
-5 0 -10 -9 -10 -21z"/>
<path d="M6900 18285 c0 -8 -4 -15 -9 -15 -10 0 -44 -140 -36 -148 5 -6 25 43
25 62 0 7 6 26 14 42 22 46 28 74 17 74 -6 0 -11 -7 -11 -15z"/>
<path d="M5020 18244 c-11 -27 -20 -60 -18 -74 3 -19 9 -8 27 43 27 80 22 100
-9 31z"/>
<path d="M4609 18247 c-8 -6 -28 -30 -44 -52 -16 -22 -43 -54 -60 -71 -35 -35
-69 -99 -62 -117 3 -7 10 1 16 17 11 28 48 75 110 141 52 54 82 118 40 82z"/>
<path d="M4774 18237 c-11 -12 -33 -40 -49 -62 -17 -22 -40 -49 -52 -60 -30
-27 -103 -174 -102 -205 l0 -25 11 25 c6 14 12 30 13 36 7 31 39 85 65 108 29
25 56 63 113 154 31 49 31 64 1 29z"/>
<path d="M6396 18206 c-62 -71 -59 -85 4 -18 44 47 60 72 46 72 -3 0 -25 -24
-50 -54z"/>
<path d="M6740 18236 c-12 -33 -12 -36 -1 -36 10 0 25 50 17 58 -3 2 -10 -7
-16 -22z"/>
<path d="M4859 18236 c-32 -37 -82 -93 -100 -111 -20 -21 -25 -39 -11 -33 15
5 134 149 129 154 -3 3 -11 -2 -18 -10z"/>
<path d="M6500 18229 c-18 -33 -6 -42 13 -9 10 16 14 30 8 30 -6 0 -15 -9 -21
-21z"/>
<path d="M6670 18224 c-6 -14 -10 -28 -10 -31 0 -11 -126 -158 -160 -187 -47
-40 -82 -80 -73 -83 11 -4 233 214 233 228 0 6 9 29 20 51 23 48 23 48 10 48
-6 0 -15 -12 -20 -26z"/>
<path d="M6816 18239 c-11 -36 -15 -80 -6 -74 11 7 25 74 16 82 -3 3 -7 0 -10
-8z"/>
<path d="M6950 18213 c0 -22 2 -25 10 -13 13 20 13 40 0 40 -5 0 -10 -12 -10
-27z"/>
<path d="M6577 18203 c-4 -3 -7 -13 -7 -22 1 -13 3 -13 11 2 11 19 8 33 -4 20z"/>
<path d="M4645 18179 c-4 -6 -5 -13 -2 -16 7 -7 27 6 27 18 0 12 -17 12 -25
-2z"/>
<path d="M6450 18170 c0 -5 -19 -27 -42 -50 -23 -22 -37 -40 -32 -40 13 0 94
78 94 91 0 5 -4 9 -10 9 -5 0 -10 -4 -10 -10z"/>
<path d="M6712 18148 c-5 -18 -7 -35 -5 -38 7 -8 33 32 33 52 0 30 -19 20 -28
-14z"/>
<path d="M6929 18154 c-11 -30 -3 -46 11 -24 10 16 13 50 5 50 -3 0 -10 -12
-16 -26z"/>
<path d="M3981 18138 c-56 -133 -72 -160 -148 -247 -46 -52 -83 -100 -83 -106
0 -7 10 -15 23 -19 32 -8 34 -8 41 10 4 12 1 14 -14 9 -45 -14 -20 23 94 145
54 57 136 240 108 240 -4 0 -13 -15 -21 -32z"/>
<path d="M4410 18138 c-16 -25 -31 -88 -20 -88 6 0 50 93 50 105 0 13 -17 3
-30 -17z"/>
<path d="M4237 18106 c-9 -27 -12 -48 -6 -51 5 -4 12 2 15 12 3 10 9 27 14 39
4 11 5 27 0 33 -5 9 -13 -3 -23 -33z"/>
<path d="M4581 18115 c-31 -36 -39 -55 -22 -55 11 0 71 67 71 80 0 19 -18 10
-49 -25z"/>
<path d="M6770 18108 c-23 -47 -25 -61 -9 -56 14 5 50 98 38 98 -5 0 -18 -19
-29 -42z"/>
<path d="M4925 18097 c-50 -51 -55 -72 -8 -39 41 29 66 59 61 74 -3 8 -22 -4
-53 -35z"/>
<path d="M6513 18115 c-8 -22 6 -33 17 -15 13 20 12 30 0 30 -6 0 -13 -7 -17
-15z"/>
<path d="M6982 18109 c-20 -53 -23 -69 -13 -69 6 0 11 9 11 21 0 11 5 29 11
41 6 11 8 22 5 25 -3 3 -9 -5 -14 -18z"/>
<path d="M6917 18094 c-4 -4 -7 -14 -7 -23 0 -11 3 -12 11 -4 6 6 10 16 7 23
-2 6 -7 8 -11 4z"/>
<path d="M6672 18078 c-14 -14 -16 -38 -2 -38 9 0 30 31 30 44 0 10 -15 7 -28
-6z"/>
<path d="M6826 18057 c-10 -22 -15 -44 -13 -50 3 -7 12 5 21 26 10 22 15 44
13 50 -3 7 -12 -5 -21 -26z"/>
<path d="M4702 18038 c-23 -38 -40 -89 -24 -73 5 6 22 31 37 58 30 52 18 66
-13 15z"/>
<path d="M6438 18037 c-28 -23 -35 -37 -20 -37 5 0 24 14 42 30 39 35 19 41
-22 7z"/>
<path d="M4521 18031 c-7 -12 -7 -22 -2 -26 5 -3 13 4 16 16 9 28 -1 36 -14
10z"/>
<path d="M4381 18024 c0 -11 3 -14 6 -6 3 7 2 16 -1 19 -3 4 -6 -2 -5 -13z"/>
<path d="M6896 18031 c-4 -7 -5 -15 -2 -18 9 -9 19 4 14 18 -4 11 -6 11 -12 0z"/>
<path d="M6603 17997 c-21 -20 -35 -38 -31 -42 8 -8 52 23 68 48 20 33 3 30
-37 -6z"/>
<path d="M4202 17980 c-15 -58 -50 -125 -85 -164 -31 -36 -60 -87 -52 -94 4
-4 14 3 24 16 9 13 33 45 54 73 38 50 82 166 74 197 -2 9 -9 -3 -15 -28z"/>
<path d="M6720 18005 c-7 -9 -8 -15 -2 -15 5 0 12 7 16 15 3 8 4 15 2 15 -2 0
-9 -7 -16 -15z"/>
<path d="M4132 17990 c-7 -11 -12 -27 -12 -37 0 -9 -23 -50 -51 -90 -54 -78
-52 -98 3 -33 38 44 50 66 68 128 15 47 11 62 -8 32z"/>
<path d="M4352 17953 c-11 -48 -8 -73 3 -37 4 10 11 27 16 36 12 23 12 48 0
48 -5 0 -14 -21 -19 -47z"/>
<path d="M4826 17984 c-4 -10 -1 -14 6 -12 15 5 23 28 10 28 -5 0 -13 -7 -16
-16z"/>
<path d="M6871 17964 c-12 -20 -20 -42 -18 -48 2 -6 14 9 26 32 28 54 21 66
-8 16z"/>
<path d="M4430 17975 c0 -8 2 -15 4 -15 2 0 6 7 10 15 3 8 1 15 -4 15 -6 0
-10 -7 -10 -15z"/>
<path d="M4965 17934 c-19 -26 -35 -52 -35 -58 1 -6 9 -1 18 12 9 13 30 39 46
58 15 19 23 34 17 34 -5 0 -26 -21 -46 -46z"/>
<path d="M6665 17954 c-16 -14 -43 -37 -59 -50 -37 -32 -70 -74 -63 -81 7 -6
146 119 160 143 12 22 -5 16 -38 -12z"/>
<path d="M3810 17959 c0 -5 5 -7 10 -4 6 3 10 8 10 11 0 2 -4 4 -10 4 -5 0
-10 -5 -10 -11z"/>
<path d="M4747 17963 c-4 -3 -7 -16 -6 -27 0 -19 1 -19 10 3 10 24 8 36 -4 24z"/>
<path d="M4652 17898 c-6 -28 -9 -54 -6 -57 9 -9 24 22 24 51 0 14 3 33 6 42
3 9 2 16 -3 16 -4 0 -14 -23 -21 -52z"/>
<path d="M6893 17887 c-36 -49 -50 -77 -35 -77 11 0 56 66 66 98 10 31 6 28
-31 -21z"/>
<path d="M3742 17900 c-42 -67 -75 -140 -92 -203 -23 -83 -22 -77 -11 -77 5 0
11 18 15 41 9 55 72 186 109 227 20 22 21 32 4 32 -7 0 -18 -9 -25 -20z"/>
<path d="M4020 17900 c-6 -11 -7 -20 -2 -20 10 0 32 21 32 32 0 16 -19 8 -30
-12z"/>
<path d="M4881 17896 c-6 -16 -10 -34 -8 -40 3 -6 10 2 16 18 6 16 10 34 8 40
-3 6 -10 -2 -16 -18z"/>
<path d="M6505 17910 c-3 -5 -2 -10 4 -10 5 0 13 5 16 10 3 6 2 10 -4 10 -5 0
-13 -4 -16 -10z"/>
<path d="M4303 17843 c-18 -26 -48 -66 -68 -87 -34 -38 -43 -56 -28 -56 12 0
83 81 109 126 36 62 25 76 -13 17z"/>
<path d="M4800 17869 c-13 -24 -4 -41 10 -19 10 16 13 40 5 40 -2 0 -9 -9 -15
-21z"/>
<path d="M4396 17864 c-5 -14 -4 -15 9 -4 17 14 19 20 6 20 -5 0 -12 -7 -15
-16z"/>
<path d="M4557 17858 c-6 -21 -2 -36 7 -27 10 11 16 49 8 49 -5 0 -12 -10 -15
-22z"/>
<path d="M3968 17840 c-20 -36 -10 -39 20 -7 25 26 28 37 10 37 -7 0 -21 -14
-30 -30z"/>
<path d="M3845 17851 c-6 -11 9 -23 19 -14 9 9 7 23 -3 23 -6 0 -12 -4 -16 -9z"/>
<path d="M4375 17820 c-3 -5 -1 -10 4 -10 6 0 11 5 11 10 0 6 -2 10 -4 10 -3
0 -8 -4 -11 -10z"/>
<path d="M4460 17815 c0 -8 2 -15 4 -15 2 0 6 7 10 15 3 8 1 15 -4 15 -6 0
-10 -7 -10 -15z"/>
<path d="M4591 17770 c-23 -28 -41 -55 -39 -60 4 -13 18 -2 54 45 40 53 47 65
36 65 -5 0 -28 -23 -51 -50z"/>
<path d="M4705 17801 c-3 -11 -20 -33 -38 -48 -54 -49 -127 -131 -127 -144 0
-7 8 -5 20 6 11 10 20 24 20 32 0 7 6 13 13 13 7 0 33 21 59 48 47 48 86 112
69 112 -5 0 -12 -9 -16 -19z"/>
<path d="M3921 17774 c-21 -27 -29 -60 -12 -49 12 7 42 67 37 72 -2 2 -13 -8
-25 -23z"/>
<path d="M6779 17750 c-29 -27 -59 -50 -66 -50 -7 0 -13 -4 -13 -10 0 -5 5
-10 10 -10 25 0 113 69 131 103 18 32 -8 18 -62 -33z"/>
<path d="M4350 17783 c0 -5 -25 -35 -56 -67 -54 -58 -61 -72 -31 -61 15 6 107
117 107 129 0 9 -20 7 -20 -1z"/>
<path d="M7030 17770 c0 -43 -138 -220 -171 -220 -5 0 -27 -13 -51 -29 -29
-19 -60 -30 -96 -33 -36 -4 -57 -11 -67 -24 -28 -37 -11 -45 41 -20 60 29 123
56 131 56 32 0 173 145 211 216 37 71 37 74 17 74 -8 0 -15 -9 -15 -20z"/>
<path d="M3998 17758 c-14 -24 -38 -75 -38 -83 0 -3 4 -5 9 -5 7 0 61 93 61
106 0 12 -20 1 -32 -18z"/>
<path d="M4905 17760 c-4 -12 -5 -24 -2 -27 3 -2 8 5 12 17 4 12 5 24 2 27 -3
2 -8 -5 -12 -17z"/>
<path d="M4495 17759 c-4 -6 -5 -13 -2 -16 7 -7 27 6 27 18 0 12 -17 12 -25
-2z"/>
<path d="M3735 17750 c-3 -5 -1 -10 4 -10 6 0 11 5 11 10 0 6 -2 10 -4 10 -3
0 -8 -4 -11 -10z"/>
<path d="M4143 17743 c-3 -10 -14 -29 -23 -43 -22 -34 -54 -120 -46 -127 3 -3
22 29 42 71 20 42 40 79 45 82 12 7 11 34 -1 34 -6 0 -13 -8 -17 -17z"/>
<path d="M4820 17741 c-7 -15 -7 -21 0 -21 12 0 25 28 17 36 -3 3 -10 -4 -17
-15z"/>
<path d="M3596 17713 c-9 -21 -21 -46 -26 -55 -6 -10 -10 -28 -9 -40 0 -15 12
1 34 47 37 76 40 85 26 85 -5 0 -16 -17 -25 -37z"/>
<path d="M4375 17731 c-10 -17 12 -21 25 -6 10 12 10 15 -3 15 -9 0 -18 -4
-22 -9z"/>
<path d="M4693 17687 c-51 -50 -65 -77 -43 -77 6 0 13 7 17 16 3 9 26 34 50
56 40 38 53 59 36 58 -5 -1 -32 -25 -60 -53z"/>
<path d="M3729 17724 c0 -5 -2 -16 -4 -24 -15 -65 -25 -129 -25 -163 0 -71 18
-25 21 53 0 8 5 41 10 74 6 32 8 61 5 64 -3 3 -6 1 -7 -4z"/>
<path d="M4462 17718 c-14 -14 -16 -42 -2 -33 14 9 32 45 22 45 -4 0 -13 -5
-20 -12z"/>
<path d="M3810 17705 c0 -8 2 -15 4 -15 2 0 6 7 10 15 3 8 1 15 -4 15 -6 0
-10 -7 -10 -15z"/>
<path d="M4875 17695 c-11 -17 -32 -47 -48 -68 -16 -21 -27 -41 -23 -44 7 -7
56 36 56 50 0 5 9 22 21 38 11 16 19 35 17 41 -3 7 -13 -1 -23 -17z"/>
<path d="M3880 17694 c0 -8 5 -12 10 -9 6 3 10 10 10 16 0 5 -4 9 -10 9 -5 0
-10 -7 -10 -16z"/>
<path d="M4050 17699 c0 -5 5 -7 10 -4 6 3 10 8 10 11 0 2 -4 4 -10 4 -5 0
-10 -5 -10 -11z"/>
<path d="M4332 17668 c-35 -60 -51 -98 -41 -104 5 -3 9 0 9 6 0 6 16 36 35 66
38 59 40 64 26 64 -5 0 -18 -15 -29 -32z"/>
<path d="M4744 17643 c-27 -32 -57 -66 -66 -75 -19 -19 -24 -38 -10 -38 4 0
23 20 42 46 19 25 42 53 50 62 42 47 52 62 43 62 -6 0 -32 -26 -59 -57z"/>
<path d="M7062 17688 c-14 -14 -16 -28 -3 -28 9 0 24 30 18 36 -2 2 -9 -2 -15
-8z"/>
<path d="M4026 17664 c-4 -10 -1 -14 6 -12 15 5 23 28 10 28 -5 0 -13 -7 -16
-16z"/>
<path d="M4508 17669 c-19 -11 -24 -29 -8 -29 5 0 14 9 20 20 12 23 12 23 -12
9z"/>
<path d="M3797 17663 c-4 -3 -7 -13 -7 -22 1 -13 3 -13 11 2 11 19 8 33 -4 20z"/>
<path d="M3951 17642 c-7 -13 -10 -31 -8 -40 3 -13 7 -10 16 12 15 37 9 59 -8
28z"/>
<path d="M4161 17641 c-12 -22 -27 -109 -17 -100 4 4 8 15 10 26 2 10 11 36
20 56 15 38 5 52 -13 18z"/>
<path d="M4407 17643 c-4 -3 -7 -13 -7 -21 0 -12 3 -12 15 -2 8 7 15 16 15 21
0 11 -14 12 -23 2z"/>
<path d="M4915 17639 c-11 -17 1 -21 15 -4 8 9 8 15 2 15 -6 0 -14 -5 -17 -11z"/>
<path d="M4010 17620 c0 -5 5 -10 10 -10 6 0 10 5 10 10 0 6 -4 10 -10 10 -5
0 -10 -4 -10 -10z"/>
<path d="M3627 17557 c-8 -43 -1 -186 9 -196 10 -11 11 12 5 124 -6 105 -7
114 -14 72z"/>
<path d="M4841 17563 c-22 -21 -54 -64 -71 -95 -32 -62 -34 -68 -22 -68 5 0
21 27 36 59 15 33 45 76 68 96 22 20 38 39 35 41 -3 3 -23 -12 -46 -33z"/>
<path d="M4002 17570 c0 -14 2 -19 5 -12 2 6 2 18 0 25 -3 6 -5 1 -5 -13z"/>
<path d="M4596 17574 c-9 -9 -14 -19 -11 -22 3 -3 13 2 22 11 9 9 14 19 11 22
-3 3 -13 -2 -22 -11z"/>
<path d="M3540 17551 c0 -12 5 -21 10 -21 6 0 10 6 10 14 0 8 -4 18 -10 21 -5
3 -10 -3 -10 -14z"/>
<path d="M4497 17543 c-2 -10 -8 -26 -12 -35 -4 -10 -3 -18 3 -18 5 0 12 8 15
18 2 9 8 25 12 35 4 9 3 17 -3 17 -5 0 -12 -8 -15 -17z"/>
<path d="M4736 17536 c-23 -36 -3 -41 23 -6 16 22 18 30 7 30 -7 0 -21 -11
-30 -24z"/>
<path d="M5360 17557 c-3 -3 -68 -7 -145 -10 -110 -4 -139 -8 -137 -19 8 -36
91 -69 129 -52 21 9 19 8 61 18 17 4 32 12 32 17 0 5 8 4 18 -2 12 -8 32 -9
58 -4 21 5 41 8 44 7 3 0 44 -3 90 -7 87 -7 172 -36 199 -69 18 -21 32 -20 24
2 -11 27 -74 82 -102 88 -14 3 -42 9 -61 14 -41 11 -203 24 -210 17z"/>
<path d="M4062 17520 c0 -14 2 -19 5 -12 2 6 2 18 0 25 -3 6 -5 1 -5 -13z"/>
<path d="M4351 17509 c-13 -39 -13 -39 -2 -39 8 0 22 61 16 68 -1 2 -8 -11
-14 -29z"/>
<path d="M4130 17520 c0 -5 5 -10 10 -10 6 0 10 5 10 10 0 6 -4 10 -10 10 -5
0 -10 -4 -10 -10z"/>
<path d="M4568 17524 c-5 -4 -8 -16 -8 -28 0 -14 3 -17 11 -9 6 6 9 19 7 28
-1 9 -6 13 -10 9z"/>
<path d="M7012 17518 c-7 -7 -12 -15 -12 -20 0 -12 28 2 34 18 7 17 -6 18 -22
2z"/>
<path d="M4852 17489 c-29 -29 -49 -65 -40 -74 2 -3 20 20 40 50 20 30 35 55
34 55 -1 0 -16 -14 -34 -31z"/>
<path d="M3534 17425 c6 -81 21 -151 35 -160 5 -2 5 10 1 30 -5 22 -3 40 5 52
7 11 9 26 4 38 -4 11 -8 16 -8 10 -1 -5 -5 -3 -11 5 -5 9 -5 19 2 27 7 9 7 13
-1 13 -6 0 -11 14 -11 30 0 17 -5 30 -11 30 -7 0 -9 -25 -5 -75z"/>
<path d="M3560 17491 c0 -6 5 -13 10 -16 6 -3 10 1 10 9 0 9 -4 16 -10 16 -5
0 -10 -4 -10 -9z"/>
<path d="M4144 17447 c2 -26 6 -51 10 -54 12 -13 12 3 0 52 l-13 50 3 -48z"/>
<path d="M4707 17484 c-4 -4 -7 -14 -7 -23 0 -11 3 -12 11 -4 6 6 10 16 7 23
-2 6 -7 8 -11 4z"/>
<path d="M6971 17476 c-8 -10 -9 -16 -1 -21 5 -3 13 1 16 10 9 22 -1 29 -15
11z"/>
<path d="M3770 17441 c0 -17 4 -32 8 -35 4 -2 6 11 4 30 -5 42 -12 45 -12 5z"/>
<path d="M4467 17464 c-4 -4 -7 -17 -7 -28 1 -19 1 -20 11 -3 11 19 8 43 -4
31z"/>
<path d="M4343 17397 l0 -57 56 -17 c31 -9 62 -25 70 -36 8 -11 22 -27 32 -35
13 -11 16 -24 12 -44 -4 -20 -1 -29 11 -34 9 -3 16 -15 16 -25 0 -18 19 -28
21 -11 8 51 7 62 -8 62 -9 0 -13 6 -9 15 3 9 -3 24 -14 35 -11 11 -20 24 -20
28 0 5 -14 21 -31 36 -26 24 -30 33 -25 60 l6 31 -17 -27 c-12 -20 -26 -28
-45 -28 -32 0 -36 6 -48 62 l-8 43 1 -58z"/>
<path d="M2708 17433 c7 -3 16 -2 19 1 4 3 -2 6 -13 5 -11 0 -14 -3 -6 -6z"/>
<path d="M4281 17440 c-2 -3 -4 -21 -6 -40 -4 -52 -4 -53 -21 -46 -9 4 -23 1
-32 -6 -13 -11 -11 -14 14 -18 31 -6 94 10 94 22 0 5 -9 8 -19 8 -16 0 -21 8
-24 43 -2 23 -5 40 -6 37z"/>
<path d="M4677 17398 c-10 -22 -21 -54 -24 -72 -3 -17 -10 -36 -15 -43 -5 -7
-5 -14 2 -18 5 -3 13 2 16 12 3 10 10 28 15 41 5 13 9 33 9 45 0 13 7 32 15
44 8 12 12 24 7 27 -4 2 -16 -14 -25 -36z"/>
<path d="M6871 17403 c-35 -19 -91 -41 -125 -50 -64 -16 -111 -37 -133 -58 -7
-7 -18 -15 -25 -18 -7 -2 -10 -7 -7 -11 6 -6 66 14 103 35 11 6 51 22 89 35
71 24 128 55 159 86 25 25 13 21 -61 -19z"/>
<path d="M3934 17380 c2 -30 9 -68 15 -83 14 -36 32 -27 20 11 -5 15 -16 50
-24 77 l-15 50 4 -55z"/>
<path d="M4070 17397 c0 -21 28 -92 35 -85 2 2 -4 26 -15 54 -10 27 -19 41
-20 31z"/>
<path d="M6953 17397 c-14 -23 -106 -73 -175 -96 -37 -12 -70 -26 -73 -31 -3
-4 -21 -11 -40 -14 -19 -4 -35 -11 -35 -16 0 -6 -6 -10 -13 -10 -18 0 -69 -44
-61 -53 4 -3 41 11 83 33 110 56 165 80 184 80 9 0 18 4 21 9 3 5 37 28 76 51
38 23 70 46 70 51 0 14 -28 11 -37 -4z"/>
<path d="M4391 17384 c0 -11 3 -14 6 -6 3 7 2 16 -1 19 -3 4 -6 -2 -5 -13z"/>
<path d="M4786 17383 c-6 -14 -5 -15 5 -6 7 7 10 15 7 18 -3 3 -9 -2 -12 -12z"/>
<path d="M3478 17350 c-2 -22 0 -49 4 -60 l8 -20 20 20 c24 24 25 30 5 30 -10
0 -15 11 -15 35 0 48 -17 44 -22 -5z"/>
<path d="M4727 17373 c-4 -3 -7 -11 -7 -17 0 -6 5 -5 12 2 6 6 9 14 7 17 -3 3
-9 2 -12 -2z"/>
<path d="M4168 17357 c-6 -16 1 -37 13 -37 12 0 12 37 0 44 -5 3 -11 0 -13 -7z"/>
<path d="M6973 17330 c-10 -11 -22 -20 -29 -20 -6 0 -19 -9 -30 -21 -20 -22
-89 -59 -111 -59 -48 0 -232 -93 -233 -118 0 -8 5 -10 13 -6 6 5 32 20 56 35
24 16 82 40 130 55 47 15 97 35 110 45 13 11 29 19 35 19 20 1 112 90 93 90
-9 0 -25 -9 -34 -20z"/>
<path d="M4500 17329 c0 -5 5 -7 10 -4 6 3 10 8 10 11 0 2 -4 4 -10 4 -5 0
-10 -5 -10 -11z"/>
<path d="M4586 17324 c-4 -10 -1 -14 6 -12 15 5 23 28 10 28 -5 0 -13 -7 -16
-16z"/>
<path d="M3794 17300 c3 -14 6 -31 6 -37 0 -7 5 -13 10 -13 12 0 2 50 -13 65
-6 7 -8 2 -3 -15z"/>
<path d="M4021 17303 c-1 -18 19 -67 25 -61 3 3 -2 21 -10 39 -8 19 -15 29
-15 22z"/>
<path d="M4110 17292 c0 -12 19 -26 26 -19 2 2 -2 10 -11 17 -9 8 -15 8 -15 2z"/>
<path d="M4567 17293 c-4 -3 -7 -11 -7 -17 0 -6 5 -5 12 2 6 6 9 14 7 17 -3 3
-9 2 -12 -2z"/>
<path d="M4136 17249 c-10 -22 -16 -50 -12 -61 3 -12 0 -28 -6 -35 -8 -10 -8
-17 0 -25 14 -14 27 13 19 42 -3 11 -1 23 4 26 5 3 9 14 9 25 0 11 7 27 15 35
18 19 19 34 3 34 -7 0 -21 -19 -32 -41z"/>
<path d="M5444 17266 c-38 -12 -79 -27 -91 -34 -12 -6 -33 -12 -47 -12 -14 0
-28 -4 -31 -10 -11 -17 37 -11 110 15 81 29 97 31 89 10 -4 -8 -2 -15 4 -15
22 0 42 13 42 26 0 8 7 14 15 14 8 0 15 -7 15 -15 0 -8 7 -15 15 -15 8 0 15 6
15 14 0 47 110 7 180 -66 22 -22 40 -36 40 -31 0 19 -73 94 -111 113 -57 29
-159 32 -245 6z"/>
<path d="M4791 17215 c-27 -75 -22 -98 6 -33 25 55 36 98 25 98 -5 0 -19 -29
-31 -65z"/>
<path d="M6970 17268 c-1 -16 -101 -90 -160 -117 -25 -11 -76 -32 -115 -46
-85 -31 -155 -67 -155 -78 0 -4 -5 -5 -11 -1 -6 3 -8 16 -5 29 4 15 1 25 -9
29 -20 7 -19 36 3 52 14 11 14 15 4 22 -12 8 -11 15 2 41 9 17 21 31 26 31 6
0 10 4 10 9 0 9 -208 6 -217 -3 -4 -3 -18 -6 -32 -6 -36 0 -93 -32 -102 -58
-11 -28 -3 -28 37 3 42 32 63 32 89 -1 32 -40 70 -36 111 12 36 44 55 39 47
-13 -4 -26 -10 -32 -38 -37 -19 -4 -35 -12 -38 -19 -3 -9 -33 -11 -105 -10
-56 1 -102 -2 -102 -7 0 -4 38 -11 84 -15 69 -6 93 -4 131 11 40 15 48 15 56
3 13 -21 12 -23 -40 -47 -70 -32 -123 -37 -172 -18 -45 18 -59 20 -59 7 0 -4
24 -16 54 -25 60 -19 102 -15 174 16 24 10 45 18 47 18 2 0 7 -17 11 -37 4
-21 18 -58 31 -83 22 -39 24 -54 20 -115 -5 -67 -41 -178 -77 -235 -19 -31
-111 -218 -139 -282 -25 -59 -49 -63 -77 -14 -19 35 -63 39 -116 11 -49 -26
-123 -32 -178 -15 -29 8 -135 -41 -151 -72 -5 -10 -23 -25 -39 -33 -32 -16
-40 -35 -15 -35 8 0 39 -25 70 -55 l55 -55 65 0 c46 0 74 5 96 19 40 24 20 37
-23 15 -56 -29 -107 -24 -156 14 -23 19 -42 38 -42 44 0 6 -7 16 -16 23 -14
10 -15 14 -3 33 8 12 20 22 28 22 8 0 26 10 39 23 22 20 32 22 124 20 89 -2
107 1 153 22 61 29 65 30 65 9 0 -10 6 -14 14 -11 17 7 36 -11 36 -34 0 -19
-37 -29 -106 -29 -23 0 -46 -4 -49 -10 -3 -5 -36 -10 -73 -10 -77 0 -209 -37
-192 -54 7 -7 21 -6 44 2 71 26 335 56 351 40 4 -3 0 -19 -9 -36 -8 -16 -12
-32 -9 -36 16 -15 31 -3 42 37 9 27 30 58 62 89 31 30 47 53 43 62 -5 13 1 29
37 96 118 220 169 352 169 433 0 57 13 74 62 82 56 8 139 36 159 52 8 7 20 13
25 13 9 0 94 78 94 86 0 8 -7 4 -39 -25 -43 -38 -149 -90 -220 -107 -77 -18
-91 -18 -91 5 0 23 15 35 55 47 l30 8 -33 4 c-18 2 -40 -2 -48 -9 -13 -11 -15
-8 -12 21 2 25 10 38 28 46 75 35 101 45 163 63 42 12 90 35 125 62 67 49 122
100 122 111 0 13 -20 9 -20 -4z"/>
<path d="M3495 17242 c8 -45 82 -182 98 -182 4 0 -1 17 -12 38 -11 21 -22 55
-26 75 -4 20 -11 37 -17 37 -5 0 -15 6 -22 12 -11 11 -11 15 3 25 14 11 14 12
-6 13 -16 0 -21 -5 -18 -18z"/>
<path d="M3970 17253 c0 -14 19 -38 25 -32 8 8 -5 39 -16 39 -5 0 -9 -3 -9 -7z"/>
<path d="M5610 17250 c0 -5 5 -10 11 -10 5 0 7 5 4 10 -3 6 -8 10 -11 10 -2 0
-4 -4 -4 -10z"/>
<path d="M4607 17235 c-10 -7 -14 -16 -9 -19 5 -3 15 1 22 9 17 21 9 27 -13
10z"/>
<path d="M6195 17230 c-10 -11 -13 -20 -8 -20 13 0 38 29 31 35 -3 3 -13 -4
-23 -15z"/>
<path d="M3570 17235 c0 -9 30 -65 34 -65 5 0 2 12 -9 48 -6 19 -25 32 -25 17z"/>
<path d="M3740 17233 c0 -4 5 -15 10 -23 8 -13 10 -13 10 2 0 9 -4 20 -10 23
-5 3 -10 3 -10 -2z"/>
<path d="M3820 17213 c0 -12 5 -25 10 -28 13 -8 13 15 0 35 -8 12 -10 11 -10
-7z"/>
<path d="M4060 17215 c0 -8 4 -15 10 -15 5 0 7 7 4 15 -4 8 -8 15 -10 15 -2 0
-4 -7 -4 -15z"/>
<path d="M4318 17212 c-30 -18 -37 -42 -13 -42 8 0 15 4 15 8 0 14 51 33 70
27 10 -3 28 -21 39 -40 21 -36 39 -42 72 -25 29 16 23 31 -7 18 -23 -11 -28
-10 -46 12 -10 14 -26 33 -33 43 -18 21 -61 21 -97 -1z"/>
<path d="M5095 17206 c27 -15 58 -35 70 -45 49 -45 126 -63 193 -45 45 13 20
23 -41 17 -61 -5 -64 -5 -134 41 -40 25 -87 49 -105 52 -30 5 -28 3 17 -20z"/>
<path d="M3990 17203 c0 -11 50 -57 50 -46 0 14 -30 53 -41 53 -5 0 -9 -3 -9
-7z"/>
<path d="M5539 17206 c-3 -3 -24 -8 -45 -10 -22 -2 -55 -13 -74 -25 -41 -25
-36 -25 45 -6 91 22 102 21 97 -13 -8 -58 61 -82 118 -42 l28 20 25 -30 c32
-38 45 -39 21 -2 -19 29 -53 57 -69 57 -14 0 -35 21 -35 34 0 6 -11 11 -24 11
-13 0 -36 3 -52 6 -16 3 -32 3 -35 0z"/>
<path d="M6160 17190 c0 -5 5 -10 10 -10 6 0 10 5 10 10 0 6 -4 10 -10 10 -5
0 -10 -4 -10 -10z"/>
<path d="M4080 17180 c0 -5 5 -10 11 -10 5 0 7 5 4 10 -3 6 -8 10 -11 10 -2 0
-4 -4 -4 -10z"/>
<path d="M4595 17170 c-19 -8 -19 -9 2 -9 12 -1 25 4 28 9 7 12 -2 12 -30 0z"/>
<path d="M3480 17151 c0 -12 5 -21 10 -21 6 0 10 6 10 14 0 8 -4 18 -10 21 -5
3 -10 -3 -10 -14z"/>
<path d="M3696 17155 c4 -8 8 -15 10 -15 2 0 4 7 4 15 0 8 -4 15 -10 15 -5 0
-7 -7 -4 -15z"/>
<path d="M3845 17160 c3 -5 8 -10 11 -10 2 0 4 5 4 10 0 6 -5 10 -11 10 -5 0
-7 -4 -4 -10z"/>
<path d="M3927 17145 c26 -36 44 -39 25 -4 -9 16 -23 29 -30 29 -9 0 -8 -7 5
-25z"/>
<path d="M4661 17144 c-39 -28 -35 -30 14 -10 19 8 35 20 35 25 0 16 -11 12
-49 -15z"/>
<path d="M6924 17145 c-16 -14 -41 -37 -56 -50 -15 -14 -32 -25 -37 -25 -6 0
-11 -4 -11 -8 0 -9 -93 -52 -113 -52 -7 0 -22 -7 -33 -15 -19 -14 -19 -14 1
-15 50 0 252 115 278 159 22 38 10 40 -29 6z"/>
<path d="M4270 17150 c0 -5 5 -10 10 -10 6 0 10 5 10 10 0 6 -4 10 -10 10 -5
0 -10 -4 -10 -10z"/>
<path d="M4327 17140 c3 -11 9 -17 14 -15 10 7 1 35 -11 35 -5 0 -6 -9 -3 -20z"/>
<path d="M3610 17142 c0 -8 9 -25 20 -39 11 -15 20 -20 20 -12 -1 18 -39 68
-40 51z"/>
<path d="M4250 17105 c0 -28 4 -44 10 -40 6 3 10 21 10 40 0 19 -4 37 -10 40
-6 4 -10 -12 -10 -40z"/>
<path d="M4040 17132 c0 -11 38 -42 63 -52 20 -7 20 -9 4 -15 -10 -4 -37 0
-63 10 -25 9 -47 15 -50 12 -8 -8 62 -36 97 -39 32 -3 34 -1 37 30 3 26 0 32
-15 32 -11 0 -28 7 -39 15 -21 16 -34 19 -34 7z"/>
<path d="M4792 17106 c-34 -34 -88 -56 -138 -56 -20 0 -25 -3 -17 -11 15 -15
133 8 150 29 53 67 56 88 5 38z"/>
<path d="M6050 17129 c0 -42 149 -288 189 -313 27 -17 61 -98 65 -157 5 -58 2
-68 -25 -110 -30 -47 -73 -75 -119 -79 -68 -6 -92 1 -119 29 -25 26 -30 28
-43 15 -8 -8 -26 -16 -39 -18 -13 -2 -32 -7 -43 -11 -23 -10 -47 4 -61 33 -5
12 -13 22 -17 22 -10 0 -10 -3 2 -35 14 -38 50 -48 120 -31 54 12 61 12 75 -4
21 -23 90 -33 140 -19 22 6 58 14 80 18 58 11 133 50 140 72 15 47 -22 149
-54 149 -5 0 -16 20 -26 45 -9 25 -46 82 -82 128 -36 45 -79 100 -96 121 -17
22 -40 63 -52 93 -24 58 -35 75 -35 52z m330 -542 c0 -12 -8 -34 -17 -47 -9
-14 -17 -26 -17 -27 -1 -1 -13 -4 -28 -8 l-27 -7 20 54 c11 29 22 59 24 66 8
21 45 -5 45 -31z"/>
<path d="M4717 17111 c-42 -27 -45 -35 -12 -27 33 8 80 47 55 45 -8 0 -27 -8
-43 -18z"/>
<path d="M4547 17113 c-8 -13 0 -70 13 -91 9 -13 10 -10 5 20 -4 25 -2 38 7
41 10 3 9 9 -3 22 -9 9 -19 13 -22 8z"/>
<path d="M6181 17106 c-8 -10 -9 -16 -1 -21 5 -3 13 1 16 10 9 22 -1 29 -15
11z"/>
<path d="M4327 17103 c-4 -3 -7 -14 -7 -23 0 -9 -6 -30 -14 -46 -20 -41 -32
-109 -17 -100 6 4 11 14 11 22 0 8 4 22 9 32 21 42 41 94 41 107 0 16 -12 20
-23 8z"/>
<path d="M5360 17100 c0 -5 19 -14 43 -20 23 -6 56 -17 72 -25 39 -18 180 -31
188 -18 4 6 -19 10 -60 11 -66 1 -151 23 -188 48 -23 16 -55 18 -55 4z"/>
<path d="M4432 17091 c-15 -9 -42 -57 -42 -74 0 -6 8 -19 17 -29 13 -14 14
-21 5 -30 -15 -15 -16 -58 -2 -58 6 0 10 9 10 21 0 15 4 19 16 15 9 -3 19 -6
23 -6 10 0 39 -61 44 -92 4 -27 -2 -33 -32 -28 -12 1 -13 -1 -3 -13 19 -22 4
-47 -28 -47 -61 0 -94 34 -130 135 -9 23 -13 26 -20 15 -5 -8 -5 -19 -1 -25 5
-5 12 -25 16 -42 10 -50 80 -103 134 -103 106 0 124 135 30 214 -26 22 -49 63
-49 87 0 5 9 18 21 30 22 22 14 45 -9 30z"/>
<path d="M5228 17073 c-10 -2 -18 -9 -18 -14 0 -5 -6 -9 -13 -9 -13 0 -57 -52
-57 -66 0 -4 12 4 28 18 15 14 45 37 67 52 37 24 35 30 -7 19z"/>
<path d="M3513 17045 c7 -14 16 -25 20 -25 5 0 6 -13 2 -29 -4 -20 1 -39 17
-66 35 -56 83 -108 96 -104 8 3 1 17 -18 37 -42 46 -80 97 -80 108 0 4 27 -20
61 -55 33 -35 63 -60 66 -57 3 3 -7 19 -23 35 -47 46 -83 91 -110 138 -28 46
-50 60 -31 18z"/>
<path d="M3850 17057 c0 -11 55 -57 67 -57 19 0 16 17 -4 23 -10 4 -28 14 -40
23 -13 9 -23 14 -23 11z"/>
<path d="M3770 17030 c6 -11 15 -20 20 -20 6 0 5 9 -2 20 -7 11 -16 20 -21 20
-4 0 -3 -9 3 -20z"/>
<path d="M3980 17035 c7 -8 17 -15 22 -15 6 0 5 7 -2 15 -7 8 -17 15 -22 15
-6 0 -5 -7 2 -15z"/>
<path d="M4108 17006 c-22 -16 -23 -26 -3 -26 8 0 15 -4 15 -10 0 -15 -41 -12
-90 5 -44 16 -78 20 -67 8 10 -9 108 -43 127 -43 8 0 22 -5 30 -10 13 -9 13
-11 0 -19 -12 -9 -12 -11 3 -17 9 -3 17 -11 17 -16 0 -17 -224 -2 -260 17 -17
9 -36 15 -43 12 -6 -2 19 -15 56 -30 57 -23 83 -27 175 -28 59 -1 96 -4 82 -6
-14 -3 -29 -9 -34 -14 -6 -5 -27 -9 -48 -9 -21 0 -38 -4 -38 -10 0 -13 42 -12
99 1 37 8 46 7 53 -6 5 -8 14 -15 21 -15 14 -1 57 -65 57 -85 0 -7 6 -15 14
-18 14 -6 28 -67 15 -67 -4 0 -11 -10 -15 -22 -10 -34 -86 -129 -130 -163 -21
-16 -48 -39 -59 -51 -11 -11 -42 -36 -70 -55 -27 -19 -51 -37 -53 -41 -2 -5
-9 -8 -16 -8 -8 0 -25 -9 -40 -21 -32 -25 -136 -79 -154 -79 -14 0 -87 -35
-157 -76 -28 -16 -72 -40 -99 -54 -26 -14 -59 -35 -72 -47 -14 -13 -36 -26
-49 -29 -13 -3 -26 -12 -29 -20 -3 -8 -12 -14 -20 -14 -7 0 -16 -7 -20 -15 -3
-8 -12 -15 -21 -15 -8 0 -15 -6 -15 -13 0 -14 -113 -137 -126 -137 -5 0 -17
-13 -26 -28 -10 -16 -44 -57 -78 -92 -37 -40 -60 -73 -60 -87 0 -13 -6 -23
-14 -23 -16 0 -82 -99 -78 -117 2 -7 -1 -13 -6 -13 -22 0 -98 -152 -86 -172 8
-12 34 10 34 28 0 8 7 14 16 14 11 0 14 6 9 20 -4 12 -2 20 5 20 6 0 16 13 21
30 6 16 19 32 30 35 10 4 19 14 19 24 0 10 9 30 20 44 11 14 20 29 20 33 0 16
75 118 130 179 228 249 321 326 477 400 29 14 83 43 120 65 37 23 90 49 118
58 50 17 186 102 275 171 57 44 190 182 190 197 0 6 7 17 15 24 13 11 15 5 15
-43 0 -79 23 -121 74 -141 50 -19 81 -20 141 -4 37 10 45 16 45 35 0 28 -14
29 -43 3 -47 -44 -123 -42 -164 4 -21 25 -26 48 -37 193 -5 66 -14 91 -41 113
-9 7 -22 27 -29 44 -7 17 -25 44 -40 59 -14 15 -26 34 -26 42 0 8 -4 16 -9 19
-4 3 -16 33 -25 66 -18 64 -21 67 -48 46z"/>
<path d="M4045 17000 c3 -5 10 -10 16 -10 5 0 9 5 9 10 0 6 -7 10 -16 10 -8 0
-12 -4 -9 -10z"/>
<path d="M4586 17001 c-9 -14 52 -41 93 -41 21 1 46 9 60 21 30 24 21 37 -11
15 -29 -20 -96 -21 -119 0 -10 9 -19 11 -23 5z"/>
<path d="M5425 16994 c46 -37 126 -66 166 -61 42 6 159 57 159 70 0 5 -3 7 -7
5 -5 -2 -30 -14 -58 -28 -67 -32 -150 -30 -213 5 -50 28 -78 33 -47 9z"/>
<path d="M3770 16950 c36 -32 62 -41 39 -14 -7 8 -26 22 -43 30 l-31 15 35
-31z"/>
<path d="M3860 16964 c0 -17 65 -46 130 -60 77 -17 100 -17 100 -4 0 6 -13 10
-29 10 -25 0 -132 32 -183 54 -10 5 -18 4 -18 0z"/>
<path d="M4400 16873 c1 -33 50 -75 50 -43 0 6 -4 10 -10 10 -5 0 -12 11 -16
25 -7 28 -24 34 -24 8z"/>
<path d="M3815 16856 c37 -24 55 -31 55 -22 0 7 -45 33 -70 40 -18 5 -13 0 15
-18z"/>
<path d="M3950 16810 c0 -5 12 -10 26 -10 14 0 23 4 19 10 -3 6 -15 10 -26 10
-10 0 -19 -4 -19 -10z"/>
<path d="M3620 16803 c0 -25 93 -99 157 -125 37 -14 69 -30 70 -35 5 -13 225
-8 279 7 56 15 87 36 38 26 -72 -15 -180 -22 -238 -14 -126 16 -193 46 -273
121 -18 17 -33 26 -33 20z"/>
<path d="M3670 16802 c0 -8 53 -42 67 -42 10 0 -49 49 -59 50 -5 0 -8 -4 -8
-8z"/>
<path d="M3784 16791 c3 -5 16 -11 28 -14 22 -6 22 -5 4 8 -22 17 -40 20 -32
6z"/>
<path d="M4055 16768 c-22 -5 -76 -7 -120 -5 -91 6 -82 -7 13 -18 64 -7 162 9
162 26 0 10 -2 10 -55 -3z"/>
<path d="M3780 16740 c0 -5 5 -10 10 -10 6 0 10 5 10 10 0 6 -4 10 -10 10 -5
0 -10 -4 -10 -10z"/>
<path d="M4125 16730 c-11 -5 -41 -12 -68 -15 -26 -3 -45 -11 -42 -16 8 -12
81 -1 118 18 41 21 35 32 -8 13z"/>
<path d="M3835 16720 c-4 -6 3 -10 14 -10 25 0 27 6 6 13 -8 4 -17 2 -20 -3z"/>
<path d="M3890 16711 c0 -11 36 -21 79 -21 44 0 34 11 -16 17 -21 2 -44 6 -50
8 -7 3 -13 1 -13 -4z"/>
<path d="M5884 16709 c-24 -9 -79 -68 -71 -76 3 -3 20 9 37 26 17 17 37 31 45
31 7 0 18 6 24 13 12 16 -3 18 -35 6z"/>
<path d="M4234 16665 c-15 -11 -16 -14 -4 -15 21 0 44 16 33 23 -6 4 -19 0
-29 -8z"/>
<path d="M4530 16673 c0 -3 6 -14 14 -22 26 -30 47 -114 40 -164 -7 -46 -7
-46 18 -35 22 11 23 15 17 67 -9 70 -21 101 -52 135 -24 26 -37 33 -37 19z"/>
<path d="M5903 16653 c-29 -11 -11 -25 25 -19 26 4 45 1 58 -9 31 -23 40 -17
14 10 -22 24 -64 32 -97 18z"/>
<path d="M3779 16636 c7 -8 33 -25 59 -37 40 -20 62 -23 152 -23 93 0 112 3
165 28 34 16 54 30 46 33 -7 3 -33 -5 -58 -17 -37 -18 -62 -22 -146 -23 -91
-1 -108 2 -160 26 -66 31 -74 33 -58 13z"/>
<path d="M5786 16604 c-4 -9 -4 -19 -1 -22 2 -3 7 3 11 12 4 9 4 19 1 22 -2 3
-7 -3 -11 -12z"/>
<path d="M5850 16599 c-6 -11 -9 -25 -6 -32 2 -7 8 -2 11 11 4 12 11 22 16 22
5 0 9 5 9 10 0 17 -19 11 -30 -11z"/>
<path d="M3860 16566 c0 -14 21 -24 93 -46 47 -15 157 -4 157 15 0 10 -19 12
-84 8 -73 -5 -90 -3 -125 15 -31 16 -41 18 -41 8z"/>
<path d="M4173 16568 c-31 -15 -29 -30 2 -16 14 6 25 15 25 20 0 9 1 10 -27
-4z"/>
<path d="M5760 16555 c0 -8 -4 -15 -9 -15 -5 0 -11 -9 -14 -21 -3 -11 -1 -19
5 -17 14 5 39 68 28 68 -6 0 -10 -7 -10 -15z"/>
<path d="M5620 16469 c-30 -4 -65 -5 -77 -2 -36 8 -155 -26 -182 -53 -13 -13
-19 -24 -13 -24 6 0 14 4 17 10 11 17 107 39 219 49 60 5 113 14 119 20 13 13
0 13 -83 0z"/>
<path d="M4622 16393 c-1 -21 -6 -72 -11 -113 -5 -41 -8 -77 -5 -81 2 -4 0
-18 -5 -32 -6 -15 -5 -42 1 -73 30 -146 160 -312 310 -396 16 -9 37 -23 46
-31 9 -8 22 -16 27 -18 33 -13 135 -73 135 -80 0 -15 -36 -46 -61 -52 -40 -10
-154 -127 -124 -127 2 0 23 20 45 44 25 26 58 50 88 61 26 9 59 30 73 47 18
19 29 26 34 18 5 -8 10 -8 20 0 9 7 21 7 41 0 19 -8 58 -9 114 -3 47 4 92 7
100 5 8 -1 39 -4 69 -6 42 -3 61 -11 83 -32 34 -32 134 -57 176 -43 119 36
181 47 254 42 91 -6 112 -2 161 31 20 14 37 21 37 16 0 -6 4 -10 8 -10 5 0 9
14 10 31 0 17 9 40 19 51 23 26 28 165 8 231 -7 25 -12 70 -11 101 2 31 -1 56
-6 56 -4 0 -8 -6 -9 -12 0 -7 -2 -26 -5 -43 -2 -16 1 -70 7 -119 14 -111 0
-188 -42 -239 -43 -53 -83 -67 -201 -71 -57 -2 -132 -11 -168 -21 -87 -23
-178 -17 -208 13 -12 12 -22 25 -22 30 0 11 -79 96 -85 91 -2 -3 1 -19 7 -37
7 -17 10 -34 7 -36 -3 -3 -75 -7 -160 -8 -165 -2 -207 6 -314 58 -57 27 -198
118 -245 157 -43 36 -130 139 -130 154 0 7 -6 16 -14 20 -7 4 -23 39 -36 77
-23 71 -24 83 -4 314 3 43 2 72 -4 72 -5 0 -10 -17 -10 -37z"/>
<path d="M5483 16392 c-12 -9 -27 -30 -33 -47 l-10 -30 22 29 c12 15 35 37 52
47 25 15 27 19 11 19 -11 0 -30 -8 -42 -18z"/>
<path d="M5620 16207 c0 -3 23 -17 50 -31 50 -26 66 -23 33 6 -17 15 -83 35
-83 25z"/>
<path d="M6188 16079 c-20 -11 -24 -29 -7 -29 6 0 17 6 25 14 25 26 14 34 -18
15z"/>
<path d="M6261 16064 c0 -11 3 -14 6 -6 3 7 2 16 -1 19 -3 4 -6 -2 -5 -13z"/>
<path d="M6093 16053 c9 -2 25 -2 35 0 9 3 1 5 -18 5 -19 0 -27 -2 -17 -5z"/>
<path d="M3885 15789 c-78 -11 -119 -33 -45 -24 103 11 159 13 230 5 116 -13
139 -18 172 -35 17 -8 40 -15 51 -15 21 0 132 -53 158 -76 8 -8 22 -14 30 -14
8 0 26 -11 41 -25 15 -14 30 -25 33 -25 4 0 21 -11 39 -25 18 -14 37 -25 41
-25 5 0 17 -7 27 -17 21 -19 56 -40 81 -49 9 -3 17 -13 17 -20 0 -8 11 -19 25
-24 14 -5 37 -21 52 -34 14 -13 56 -43 92 -66 36 -22 112 -70 168 -106 56 -35
106 -64 111 -64 5 0 34 -18 65 -40 31 -21 76 -46 101 -54 24 -8 56 -26 70 -39
14 -13 47 -32 73 -42 27 -10 52 -24 56 -32 4 -7 16 -13 26 -13 10 0 24 -6 30
-14 6 -7 44 -30 84 -50 40 -19 101 -53 137 -75 99 -60 229 -131 240 -131 5 0
10 -4 10 -10 0 -5 10 -14 21 -21 17 -9 23 -8 30 2 7 11 9 11 9 -2 0 -9 43 -46
98 -83 53 -37 120 -82 147 -101 58 -40 113 -81 152 -112 16 -13 32 -23 37 -23
5 0 14 -7 20 -14 6 -8 17 -16 24 -18 12 -3 38 -24 107 -89 12 -10 26 -19 33
-19 7 0 12 -6 12 -12 1 -18 50 -53 50 -36 1 7 6 3 13 -9 13 -24 96 -93 112
-93 6 0 15 -10 20 -22 6 -13 15 -23 21 -23 6 0 25 -15 42 -32 16 -18 37 -33
45 -33 8 0 22 -11 31 -25 9 -14 23 -25 31 -25 8 0 15 -7 15 -15 0 -8 3 -15 8
-15 4 0 42 -33 84 -73 43 -39 105 -92 138 -116 48 -35 58 -46 49 -57 -6 -8
-16 -14 -21 -14 -16 0 -120 -52 -114 -57 5 -5 88 20 144 43 17 8 49 21 70 30
20 8 55 24 76 35 21 11 41 18 43 15 5 -5 -42 -59 -122 -138 -51 -51 -54 -56
-20 -32 22 15 123 112 225 214 102 102 232 228 288 280 57 52 120 111 141 130
84 79 110 100 120 100 5 0 14 6 18 13 8 13 82 65 113 80 8 4 38 21 65 37 28
17 61 36 75 42 14 6 68 30 121 54 53 24 102 44 108 44 6 0 19 4 29 9 25 13
106 36 116 33 4 -1 14 3 22 9 8 7 24 13 37 15 12 1 60 17 107 34 47 17 138 44
203 60 65 16 139 41 165 55 26 14 50 25 54 25 4 0 27 14 51 30 25 17 50 30 56
30 6 0 11 4 11 9 0 6 20 29 45 52 24 23 47 51 51 61 3 11 14 28 24 38 11 11
38 53 61 95 45 82 141 188 218 240 26 17 85 50 134 74 48 23 93 51 100 60 6
10 30 27 52 39 22 11 59 41 81 66 34 38 47 46 77 46 27 0 41 7 56 27 25 30 20
44 -7 20 -10 -10 -28 -17 -41 -17 -21 0 -21 1 -7 29 15 28 67 50 74 30 2 -5
12 -9 22 -9 37 0 53 -49 38 -112 -6 -24 -17 -50 -24 -59 -8 -8 -14 -20 -14
-25 -1 -25 -73 -80 -120 -91 -14 -4 -97 -12 -127 -13 -19 0 -16 -20 2 -20 26
0 28 -28 5 -65 -12 -19 -25 -35 -30 -35 -4 0 -17 -15 -27 -33 -12 -20 -48 -49
-91 -75 -39 -23 -74 -47 -78 -53 -10 -17 3 -21 27 -8 62 33 269 54 366 38 20
-3 34 2 52 20 20 20 54 40 114 66 40 18 51 41 15 30 -58 -18 -120 -50 -134
-69 -13 -19 -24 -21 -139 -21 -119 0 -125 0 -125 20 0 11 13 32 28 47 16 15
42 52 58 82 18 35 35 56 46 56 33 0 123 47 160 84 23 22 42 53 49 79 6 23 15
49 19 59 9 17 -18 105 -42 136 -21 29 -69 72 -79 72 -9 0 -79 -102 -79 -115 0
-23 -134 -164 -156 -165 -10 0 -21 -8 -70 -49 -6 -5 -57 -32 -113 -59 -62 -31
-117 -67 -144 -94 -45 -45 -86 -78 -98 -78 -7 0 -39 -69 -43 -93 -1 -9 -11
-27 -23 -39 -11 -13 -22 -28 -24 -33 -12 -31 -93 -155 -101 -155 -6 0 -20 -10
-32 -22 -12 -13 -38 -36 -59 -52 -20 -16 -37 -36 -37 -43 0 -9 -8 -11 -24 -7
-17 4 -27 1 -33 -11 -5 -9 -25 -20 -44 -25 -108 -28 -226 -61 -239 -67 -8 -4
-40 -12 -70 -19 -30 -6 -94 -23 -143 -38 -48 -14 -92 -26 -97 -26 -6 0 -38
-13 -73 -29 -34 -16 -80 -37 -102 -46 -22 -9 -53 -23 -69 -31 -16 -8 -37 -14
-47 -14 -10 0 -21 -5 -24 -10 -3 -6 -24 -19 -46 -30 -86 -44 -149 -79 -159
-90 -19 -21 -99 -80 -108 -80 -6 0 -12 -3 -14 -8 -1 -4 -23 -23 -48 -42 -25
-19 -59 -48 -76 -65 -18 -16 -85 -79 -150 -140 -65 -60 -152 -145 -194 -187
-42 -43 -82 -78 -89 -78 -20 0 -121 -46 -183 -84 -20 -12 -102 46 -198 143
-118 119 -339 321 -352 321 -3 0 -20 12 -36 28 -16 15 -48 43 -72 62 -24 19
-49 41 -56 48 -7 6 -19 12 -26 12 -7 0 -19 9 -26 20 -7 11 -19 20 -26 20 -8 0
-16 4 -18 8 -4 10 -118 98 -177 138 -25 16 -59 41 -75 57 -17 15 -36 27 -43
27 -6 0 -18 6 -25 13 -7 6 -36 28 -63 47 -28 19 -52 38 -53 42 -2 5 -18 15
-35 23 -32 15 -67 35 -77 45 -11 11 -89 60 -155 96 -38 21 -77 43 -86 49 -16
10 -127 74 -217 127 -26 15 -54 29 -62 33 -8 3 -28 13 -45 22 -16 9 -48 26
-70 37 -22 12 -42 23 -45 26 -3 3 -25 15 -50 28 -25 13 -72 39 -105 58 -33 19
-71 40 -85 47 -14 6 -36 22 -49 34 -13 12 -36 25 -50 28 -14 4 -35 16 -47 29
-12 12 -43 32 -68 45 -25 12 -46 27 -46 32 0 5 -6 9 -14 9 -7 0 -19 6 -26 14
-6 8 -18 12 -26 9 -8 -3 -14 1 -14 8 -1 8 -15 23 -33 35 -56 36 -282 189 -287
194 -14 15 -203 100 -255 116 -33 10 -62 21 -65 24 -19 26 -253 44 -365 29z"/>
<path d="M6166 15740 c-3 -14 -8 -35 -9 -48 -2 -13 -9 -27 -16 -31 -7 -5 -12
-12 -12 -17 0 -5 -39 -7 -88 -6 -64 3 -98 0 -122 -11 -43 -19 -145 -30 -184
-19 -18 5 -35 19 -43 35 -7 15 -18 25 -23 22 -20 -13 25 -65 66 -77 58 -16 90
-14 179 10 62 17 94 21 143 16 91 -10 119 4 126 64 3 25 1 55 -3 66 -7 20 -8
20 -14 -4z"/>
<path d="M11008 15538 c-20 -5 -50 -22 -66 -36 -46 -41 -122 -143 -122 -164 0
-10 -5 -18 -11 -18 -6 0 -9 -7 -5 -15 3 -9 0 -15 -7 -15 -13 0 -59 -91 -51
-99 5 -6 43 40 57 69 24 48 59 100 67 100 5 0 12 9 15 20 4 11 19 32 33 45 21
20 29 22 37 13 14 -18 45 -22 45 -5 0 7 13 23 29 35 29 21 30 21 36 3 5 -17 8
-18 34 -5 38 19 32 58 -12 73 -16 6 -33 11 -36 10 -3 -1 -22 -5 -43 -11z m-12
-69 c10 -17 -13 -36 -27 -22 -12 12 -4 33 11 33 5 0 12 -5 16 -11z"/>
<path d="M11040 15409 c0 -5 5 -7 10 -4 6 3 10 8 10 11 0 2 -4 4 -10 4 -5 0
-10 -5 -10 -11z"/>
<path d="M10997 15382 c-12 -2 -17 -11 -15 -25 4 -26 18 -26 36 1 14 22 7 31
-21 24z"/>
<path d="M10958 15299 c-9 -9 -19 -28 -23 -41 -4 -12 -23 -47 -41 -75 -19 -29
-29 -53 -22 -53 15 0 33 25 74 103 36 71 41 95 12 66z"/>
<path d="M11185 15291 c-40 -13 -74 -34 -79 -47 -7 -19 19 -18 38 1 17 17 66
20 66 4 0 -7 12 -10 30 -7 37 6 37 0 2 -40 -33 -37 -47 -41 -39 -12 3 12 0 20
-8 20 -15 0 -30 -69 -18 -81 5 -5 32 14 61 41 30 28 62 50 72 50 28 0 13 36
-25 60 -33 20 -63 24 -100 11z"/>
<path d="M2759 15182 c-33 -38 -71 -115 -66 -133 3 -11 1 -16 -4 -13 -6 3 -7
-6 -3 -23 8 -34 23 -53 22 -27 -1 34 20 74 37 68 11 -5 14 -2 9 10 -9 24 4 83
23 101 10 10 12 20 6 26 -5 5 -15 2 -24 -9z"/>
<path d="M11024 15141 c-28 -35 -67 -69 -91 -80 -41 -20 -57 -41 -30 -41 42 0
187 135 187 174 0 18 -23 -1 -66 -53z"/>
<path d="M10787 15057 c-37 -37 -76 -67 -86 -67 -10 0 -24 -7 -31 -15 -7 -8
-23 -15 -35 -15 -25 0 -105 -39 -105 -51 0 -15 116 27 216 78 38 20 117 109
112 125 -3 7 -34 -18 -71 -55z"/>
<path d="M11160 15100 c0 -5 5 -10 10 -10 6 0 10 5 10 10 0 6 -4 10 -10 10 -5
0 -10 -4 -10 -10z"/>
<path d="M11128 15053 c-20 -24 -30 -53 -18 -53 6 0 10 6 10 14 0 8 7 22 16
31 9 9 14 18 12 21 -3 2 -12 -4 -20 -13z"/>
<path d="M10820 15010 c0 -5 9 -10 20 -10 11 0 20 5 20 10 0 6 -9 10 -20 10
-11 0 -20 -4 -20 -10z"/>
<path d="M11046 14975 c-3 -8 -12 -15 -20 -15 -9 0 -23 -11 -32 -25 -9 -14
-26 -25 -38 -25 -29 0 -50 -15 -41 -29 8 -14 42 -5 63 15 7 8 19 14 26 14 11
0 76 63 76 74 0 13 -28 5 -34 -9z"/>
<path d="M2665 14946 c-5 -25 -14 -40 -26 -43 -11 -3 -19 -11 -19 -18 0 -7 -6
-15 -12 -18 -10 -3 -10 -8 1 -21 11 -13 11 -22 3 -41 -7 -14 -16 -25 -22 -25
-7 0 -9 -13 -5 -34 6 -28 4 -34 -10 -33 -12 2 -18 -7 -20 -25 -3 -20 0 -25 11
-21 8 3 19 14 25 24 5 11 14 17 19 14 5 -3 11 -1 15 5 3 5 1 10 -4 10 -15 0
-14 30 2 60 8 14 20 47 28 74 8 27 21 51 29 55 13 5 14 12 4 41 l-12 35 -7
-39z"/>
<path d="M4768 14943 c7 -3 16 -2 19 1 4 3 -2 6 -13 5 -11 0 -14 -3 -6 -6z"/>
<path d="M4824 14931 c3 -4 81 -45 173 -90 92 -46 177 -88 188 -94 40 -21 52
-26 138 -66 89 -41 290 -117 406 -153 35 -11 96 -34 135 -52 125 -58 204 -88
218 -84 7 3 -16 19 -52 35 -164 77 -222 103 -231 103 -5 0 -17 4 -27 9 -9 5
-51 19 -92 32 -41 13 -79 27 -84 31 -6 4 -17 8 -25 8 -9 0 -29 7 -45 15 -15 8
-36 15 -45 15 -9 1 -34 9 -56 20 -22 11 -44 19 -48 20 -17 0 -250 113 -367
176 -84 46 -195 91 -186 75z"/>
<path d="M11238 14928 c-20 -4 -58 -21 -84 -38 -26 -16 -54 -30 -61 -30 -7 0
-13 -4 -13 -10 0 -15 38 -12 47 4 21 36 160 68 170 39 3 -7 -3 -10 -15 -7 -13
4 -22 -3 -32 -23 -24 -47 -24 -49 1 -24 17 16 39 24 67 25 48 3 58 -17 17 -36
-21 -10 -35 -28 -20 -28 12 0 55 24 55 32 0 4 7 8 15 8 36 0 7 33 -65 72 -36
20 -52 23 -82 16z"/>
<path d="M10856 14865 c-8 -8 -22 -15 -30 -15 -9 0 -16 -4 -16 -10 0 -5 -16
-12 -35 -16 -19 -3 -38 -10 -41 -15 -3 -5 -4 -9 -2 -10 52 -8 88 -9 88 -1 0 5
20 22 45 38 25 15 45 32 45 36 0 14 -38 9 -54 -7z"/>
<path d="M11035 14830 c-3 -5 -14 -10 -24 -10 -10 0 -24 -6 -30 -14 -8 -9 -29
-12 -71 -9 -61 4 -84 -11 -36 -23 50 -12 186 29 186 56 0 13 -17 13 -25 0z"/>
<path d="M10623 14796 c-35 -7 -63 -11 -63 -9 0 2 -13 -4 -30 -14 -35 -20 -40
-38 -7 -29 12 4 51 13 87 20 76 16 100 25 100 37 0 11 -8 10 -87 -5z"/>
<path d="M11248 14793 c-16 -2 -28 -11 -28 -19 0 -21 34 -17 55 6 10 11 14 19
9 19 -5 -1 -21 -4 -36 -6z"/>
<path d="M7135 14772 c-12 -12 -4 -31 13 -29 21 1 27 34 6 34 -8 0 -16 -3 -19
-5z"/>
<path d="M11180 14740 c0 -5 7 -10 15 -10 8 0 15 5 15 10 0 6 -7 10 -15 10 -8
0 -15 -4 -15 -10z"/>
<path d="M11103 14716 c-23 -6 -45 -14 -49 -18 -4 -5 -17 -8 -29 -8 -12 0 -25
-3 -29 -7 -3 -4 -12 -8 -19 -9 -7 -2 -23 -5 -37 -8 -21 -5 -86 -13 -147 -18
-7 -1 -13 -7 -13 -15 0 -10 13 -12 58 -7 71 7 184 33 197 45 5 5 18 9 28 9 15
0 46 13 86 38 14 8 -10 7 -46 -2z"/>
<path d="M2572 14653 c-1 -7 -9 -10 -18 -6 -12 4 -15 -1 -12 -23 2 -19 -1 -28
-9 -26 -8 1 -13 -9 -13 -26 0 -15 -5 -33 -11 -39 -9 -9 -8 -16 4 -27 8 -9 13
-25 10 -36 -3 -11 -1 -20 5 -20 5 0 16 24 22 53 7 28 17 57 22 64 5 6 7 31 5
55 -2 24 -4 38 -5 31z"/>
<path d="M10700 14634 c-104 -15 -160 -27 -160 -35 0 -5 13 -9 29 -9 17 0 33
-4 36 -10 3 -5 22 -10 42 -10 27 0 34 3 29 15 -7 18 10 27 56 29 17 1 33 7 35
13 4 11 -23 13 -67 7z"/>
<path d="M9880 14596 c-35 -22 -130 -56 -156 -56 -8 0 -14 -5 -14 -11 0 -30
175 24 209 64 20 25 -2 26 -39 3z"/>
<path d="M10690 14578 c0 -19 2 -20 10 -8 13 19 13 30 0 30 -5 0 -10 -10 -10
-22z"/>
<path d="M11127 14581 c-46 -7 -45 -27 1 -24 17 1 32 -2 32 -7 0 -6 7 -10 15
-10 9 0 12 6 9 15 -4 9 0 15 9 15 9 0 16 -8 16 -17 0 -10 1 -27 3 -37 2 -15
-6 -22 -38 -30 -23 -6 -48 -16 -55 -22 -8 -6 -27 -15 -44 -19 -24 -6 -191 -19
-302 -24 -13 -1 -23 -5 -23 -10 0 -5 51 -9 116 -9 84 1 118 -2 124 -12 6 -9 9
-9 12 0 3 11 57 33 163 66 28 9 55 20 61 25 7 5 26 11 43 12 17 1 31 3 31 5 0
1 -6 18 -14 37 -22 53 -56 63 -159 46z"/>
<path d="M10736 14571 c-8 -12 18 -21 57 -21 30 1 31 1 13 15 -22 17 -62 20
-70 6z"/>
<path d="M11007 14552 c-29 -14 -28 -32 1 -32 9 0 28 9 41 19 22 17 22 18 5
23 -11 2 -31 -2 -47 -10z"/>
<path d="M10837 14554 c-11 -12 3 -24 28 -24 13 0 26 4 29 9 10 15 -43 29 -57
15z"/>
<path d="M10920 14530 c0 -5 9 -10 20 -10 11 0 20 5 20 10 0 6 -9 10 -20 10
-11 0 -20 -4 -20 -10z"/>
<path d="M11155 14509 c-12 -19 5 -23 22 -6 16 16 16 17 1 17 -9 0 -20 -5 -23
-11z"/>
<path d="M3810 14451 c0 -5 12 -14 28 -20 62 -25 119 -65 186 -130 39 -38 82
-78 96 -89 14 -11 22 -23 19 -27 -4 -3 -64 -9 -133 -12 -69 -3 -126 -10 -126
-15 0 -5 64 -8 143 -7 159 1 189 -7 220 -61 10 -16 22 -30 28 -30 5 0 9 -7 9
-15 0 -8 5 -15 11 -15 6 0 25 -16 42 -36 87 -99 210 -209 242 -216 11 -2 19
-10 17 -17 -1 -7 2 -10 8 -6 5 3 10 1 10 -6 0 -16 102 -119 119 -119 7 0 22
-11 32 -24 11 -14 30 -28 42 -32 12 -3 41 -19 65 -35 23 -16 55 -32 70 -35 15
-4 44 -18 65 -31 22 -14 41 -22 44 -19 3 3 22 -5 42 -18 20 -13 46 -26 58 -30
33 -10 43 -28 51 -90 4 -31 11 -58 17 -59 10 -2 9 71 -1 106 -4 13 1 17 23 17
15 0 37 -7 47 -15 11 -8 26 -15 35 -15 8 0 22 -7 32 -16 19 -18 87 -57 137
-79 17 -9 32 -20 32 -25 0 -5 6 -7 14 -4 8 3 23 -3 33 -13 26 -24 71 -56 108
-76 17 -9 41 -26 55 -39 44 -41 126 -88 154 -88 15 0 29 -7 32 -15 4 -8 10
-15 15 -15 5 0 40 -14 77 -31 37 -18 74 -31 84 -30 9 1 19 -3 23 -9 3 -5 21
-10 39 -10 18 0 36 -3 40 -7 7 -7 17 -9 94 -17 68 -6 59 7 -15 23 -32 7 -65
16 -73 21 -9 4 -31 11 -50 14 -41 9 -117 34 -142 47 -10 5 -23 9 -30 9 -12 0
-100 40 -108 49 -3 3 -27 17 -53 31 -44 23 -115 72 -191 132 -33 26 -109 73
-146 88 -13 6 -27 14 -30 18 -3 4 -21 15 -40 26 -19 10 -59 31 -89 47 -30 16
-62 29 -71 29 -10 0 -23 6 -29 14 -7 8 -27 18 -44 22 -18 3 -41 13 -52 20 -11
8 -32 14 -47 14 -16 0 -28 4 -28 9 0 5 -13 11 -28 14 -29 6 -134 65 -140 80
-2 4 -9 7 -16 7 -6 0 -33 18 -60 40 -26 22 -54 40 -62 40 -8 0 -14 5 -14 10 0
6 -5 10 -10 10 -6 0 -30 19 -54 43 -23 23 -79 76 -124 117 -64 59 -264 254
-317 309 -5 5 -30 28 -55 50 -25 21 -63 55 -85 75 -22 20 -65 53 -95 74 -30
20 -57 40 -60 43 -6 7 -107 59 -115 59 -3 0 -5 -4 -5 -9z"/>
<path d="M9980 14435 c0 -8 4 -15 9 -15 5 0 14 7 21 15 10 13 9 15 -9 15 -12
0 -21 -6 -21 -15z"/>
<path d="M2508 14400 c-9 -19 -19 -45 -23 -58 -4 -12 -11 -20 -16 -16 -6 3 -7
-4 -3 -20 4 -16 2 -26 -5 -26 -6 0 -11 -9 -11 -21 0 -15 5 -19 15 -15 11 4 15
-1 15 -19 0 -13 -5 -27 -10 -30 -6 -4 -8 -15 -5 -26 7 -21 -10 -27 -18 -6 -5
12 -9 -5 -9 -38 0 -36 3 -46 12 -40 7 4 8 -8 4 -37 -4 -32 -3 -39 5 -28 6 8
11 25 11 38 0 13 5 33 11 45 7 11 13 37 14 56 1 20 4 36 5 36 1 0 4 30 5 68 2
37 8 74 15 81 6 8 10 32 8 53 l-3 38 -17 -35z"/>
<path d="M9890 14413 c-70 -8 -93 -15 -79 -24 28 -17 159 0 159 21 0 6 -43 8
-80 3z"/>
<path d="M10633 14400 c-13 -5 -23 -13 -23 -18 0 -13 61 0 61 13 1 13 -12 15
-38 5z"/>
<path d="M6106 14375 c4 -8 13 -15 21 -15 13 0 13 3 3 15 -7 8 -16 15 -21 15
-5 0 -6 -7 -3 -15z"/>
<path d="M6180 14340 c19 -16 43 -29 52 -30 9 0 21 -6 25 -13 4 -7 27 -21 50
-31 23 -10 52 -29 64 -42 22 -24 69 -33 69 -14 0 6 -9 10 -20 10 -10 0 -23 6
-27 13 -11 18 -156 105 -188 113 -14 3 -28 10 -31 15 -3 5 -10 9 -17 9 -6 0 4
-13 23 -30z"/>
<path d="M10555 14360 c-3 -5 1 -10 9 -10 9 0 16 5 16 10 0 6 -4 10 -9 10 -6
0 -13 -4 -16 -10z"/>
<path d="M10475 14333 c-34 -7 -129 -34 -150 -43 -55 -23 -297 -26 -388 -5
-49 11 -65 12 -86 1 -14 -7 -46 -19 -71 -26 -25 -7 -50 -18 -55 -24 -17 -18
-74 -56 -83 -56 -5 0 -15 -7 -22 -15 -7 -8 -20 -15 -29 -15 -17 0 -118 -88
-230 -201 -65 -64 -78 -79 -176 -195 -121 -143 -337 -343 -371 -344 -6 0 -24
-12 -40 -26 -16 -14 -41 -30 -56 -36 -16 -5 -28 -14 -28 -18 0 -4 -12 -11 -27
-14 -66 -16 -199 -86 -255 -136 -28 -25 -67 -58 -85 -75 -53 -46 -123 -117
-123 -125 0 -3 -20 -33 -45 -66 -25 -32 -53 -70 -63 -83 -29 -40 -161 -171
-172 -171 -6 0 -32 -9 -58 -21 -26 -11 -56 -24 -67 -29 -11 -5 -31 -11 -45
-13 -14 -3 -38 -10 -55 -15 -40 -14 -165 -32 -218 -32 -43 0 -143 27 -168 45
-30 22 -78 45 -92 45 -9 0 -17 4 -19 9 -3 8 -164 81 -180 81 -23 0 -3 -20 30
-30 20 -7 41 -16 47 -21 5 -5 17 -9 26 -9 9 0 22 -7 29 -15 7 -8 19 -15 26
-15 8 0 38 -16 68 -35 30 -19 64 -35 76 -35 11 0 23 -7 26 -15 4 -8 18 -15 33
-15 15 0 32 -5 38 -11 13 -13 164 -14 172 -1 3 5 33 13 66 17 33 4 65 11 72
17 7 5 18 6 25 2 27 -17 63 -11 84 14 11 14 31 26 45 28 13 1 29 3 34 3 6 1 4
5 -3 10 -10 6 -4 13 21 25 19 9 40 16 46 16 6 0 38 35 72 78 33 42 70 82 82
89 15 8 17 13 7 13 -9 1 -6 5 8 10 12 6 22 18 22 30 0 11 7 20 15 20 8 0 15 9
15 20 0 11 3 20 8 20 4 0 32 32 62 72 85 112 155 168 280 228 25 12 58 28 73
36 16 8 37 14 47 14 9 0 23 7 30 15 7 8 16 15 21 15 4 0 20 11 35 25 14 13 54
40 88 58 33 19 76 48 95 66 18 17 38 31 43 31 5 0 47 39 93 88 118 123 123
129 139 160 8 15 26 38 40 51 14 14 26 30 26 36 0 18 181 186 218 201 17 8 32
21 32 29 0 8 11 17 24 21 13 3 34 17 47 30 12 13 27 24 32 24 5 0 31 16 58 36
28 20 56 33 64 30 8 -3 15 -1 15 4 0 11 37 32 60 35 8 0 27 7 42 15 23 11 35
11 66 1 23 -8 96 -13 178 -14 118 -1 150 2 214 21 41 13 82 27 90 31 9 5 35
12 58 16 23 4 44 11 48 16 5 9 -14 10 -51 2z"/>
<path d="M8860 14320 c-8 -5 -11 -12 -7 -16 4 -4 15 0 24 9 18 18 8 23 -17 7z"/>
<path d="M8800 14279 c0 -5 5 -7 10 -4 6 3 10 8 10 11 0 2 -4 4 -10 4 -5 0
-10 -5 -10 -11z"/>
<path d="M8760 14260 c0 -5 5 -10 10 -10 6 0 10 5 10 10 0 6 -4 10 -10 10 -5
0 -10 -4 -10 -10z"/>
<path d="M8683 14218 c-18 -11 -33 -24 -33 -29 0 -14 15 -11 38 9 11 9 29 22
39 29 33 21 -9 13 -44 -9z"/>
<path d="M6447 14193 c-12 -11 -8 -23 7 -23 8 0 33 -16 56 -35 23 -19 48 -35
56 -35 8 0 14 -4 14 -8 0 -5 12 -14 26 -21 30 -13 50 -28 162 -119 149 -122
186 -163 262 -286 27 -45 47 -93 55 -135 13 -61 14 -63 13 -21 -2 99 -81 231
-219 367 -154 151 -193 184 -221 190 -16 3 -28 11 -28 17 0 9 -31 30 -122 82
-11 7 -25 17 -31 23 -13 13 -21 14 -30 4z"/>
<path d="M8606 14165 c-10 -8 -24 -16 -30 -18 -6 -2 -8 -8 -4 -12 7 -8 68 25
68 37 0 12 -13 9 -34 -7z"/>
<path d="M8465 14060 c-98 -83 -94 -94 8 -19 48 35 86 67 87 72 1 19 -31 2
-95 -53z"/>
<path d="M2440 13981 c0 -6 -7 -11 -15 -11 -8 0 -15 -4 -15 -10 0 -5 7 -10 15
-10 16 0 18 -15 9 -72 -4 -21 -10 -35 -14 -33 -4 3 -8 -5 -7 -18 0 -12 -4 -53
-8 -91 -6 -55 -5 -67 5 -61 7 4 16 2 21 -6 7 -11 9 -9 9 7 0 11 -6 26 -12 33
-10 11 -10 13 0 7 6 -4 12 -4 13 1 0 4 2 42 5 83 2 41 7 89 10 105 10 54 9 78
-3 82 -7 3 -13 0 -13 -6z"/>
<path d="M8254 13873 c-54 -48 -105 -93 -112 -100 -7 -7 -33 -27 -57 -44 -25
-18 -45 -36 -45 -40 0 -4 -30 -36 -67 -71 -36 -35 -84 -80 -106 -101 -22 -20
-38 -40 -35 -42 3 -3 25 14 51 37 25 24 68 63 97 88 28 25 89 81 135 125 132
125 139 131 158 138 9 3 17 12 17 19 0 7 16 23 35 36 29 18 46 42 32 42 -2 0
-48 -39 -103 -87z"/>
<path d="M6301 13754 c0 -11 3 -14 6 -6 3 7 2 16 -1 19 -3 4 -6 -2 -5 -13z"/>
<path d="M8090 13661 c0 -17 12 -41 21 -41 5 0 9 11 9 25 0 16 -6 25 -15 25
-8 0 -15 -4 -15 -9z"/>
<path d="M2390 13645 c0 -8 5 -15 10 -15 6 0 10 7 10 15 0 8 -4 15 -10 15 -5
0 -10 -7 -10 -15z"/>
<path d="M2430 13641 c0 -6 5 -13 10 -16 6 -3 10 1 10 9 0 9 -4 16 -10 16 -5
0 -10 -4 -10 -9z"/>
<path d="M2427 13576 c-4 -10 -1 -19 9 -23 21 -8 26 1 11 22 -13 16 -14 16
-20 1z"/>
<path d="M7255 13500 c-13 -5 -14 -9 -5 -9 8 0 24 4 35 9 13 5 14 9 5 9 -8 0
-24 -4 -35 -9z"/>
<path d="M2417 13484 c-3 -3 -3 -12 -1 -19 3 -7 -4 -15 -16 -18 -18 -5 -19 -8
-8 -31 8 -19 14 -23 20 -14 6 10 8 10 8 0 0 -8 6 -12 13 -9 6 2 10 11 8 18 -2
8 -3 26 -3 41 1 27 -10 43 -21 32z"/>
<path d="M7435 13430 c-3 -5 -1 -10 4 -10 6 0 11 5 11 10 0 6 -2 10 -4 10 -3
0 -8 -4 -11 -10z"/>
<path d="M2432 13340 c0 -14 2 -19 5 -12 2 6 2 18 0 25 -3 6 -5 1 -5 -13z"/>
<path d="M2415 13294 c9 -9 18 -14 21 -11 9 9 -6 27 -22 27 -13 0 -13 -2 1
-16z"/>
<path d="M2430 13254 c0 -11 -6 -14 -20 -9 -14 5 -20 2 -20 -9 0 -9 7 -16 15
-16 18 0 20 -26 3 -34 -10 -5 -10 -7 0 -12 6 -3 12 -12 12 -20 0 -8 3 -14 8
-14 4 0 8 29 9 65 1 36 0 65 -3 65 -2 0 -4 -7 -4 -16z"/>
<path d="M5210 13230 c0 -5 5 -10 10 -10 6 0 10 5 10 10 0 6 -4 10 -10 10 -5
0 -10 -4 -10 -10z"/>
<path d="M7727 13232 c-24 -5 -11 -22 18 -22 13 0 25 -4 27 -8 6 -17 162 -51
213 -47 61 5 135 24 135 36 0 12 -9 11 -66 -6 -27 -8 -63 -15 -80 -15 -45 0
-176 30 -194 45 -23 18 -33 22 -53 17z"/>
<path d="M5214 13118 c1 -97 -9 -202 -25 -277 -5 -24 -7 -52 -4 -62 4 -11 2
-19 -4 -19 -6 0 -13 -22 -17 -50 -4 -27 -10 -50 -15 -50 -5 0 -9 -10 -9 -22 1
-21 1 -22 11 -4 16 26 59 168 54 176 -3 4 2 42 10 84 20 103 24 316 7 316 -5
0 -8 -42 -8 -92z"/>
<path d="M2406 13114 c-19 -18 -20 -30 -5 -39 6 -4 8 -13 5 -21 -3 -8 -1 -14
4 -14 16 0 11 -30 -5 -36 -8 -4 -13 -10 -10 -14 3 -4 -2 -13 -10 -20 -16 -13
-9 -40 10 -40 7 0 18 -12 23 -27 l11 -28 0 25 c0 14 3 71 6 128 6 104 1 117
-29 86z"/>
<path d="M4825 13093 c-14 -21 -25 -43 -25 -50 0 -7 -4 -13 -10 -13 -5 0 -10
-7 -10 -15 0 -30 16 -13 47 50 17 36 30 65 28 65 -3 0 -16 -17 -30 -37z"/>
<path d="M4748 12953 c-11 -29 -12 -32 -24 -73 -7 -24 -6 -24 12 -8 11 9 21
29 22 44 1 15 7 33 12 40 8 8 8 14 0 19 -5 3 -15 -6 -22 -22z"/>
<path d="M2380 12896 c0 -9 7 -16 16 -16 9 0 14 5 12 12 -6 18 -28 21 -28 4z"/>
<path d="M6355 12873 c10 -10 153 -40 167 -35 8 2 120 -13 168 -23 14 -3 30
-12 37 -20 7 -11 13 -12 18 -6 4 8 12 8 25 1 10 -5 27 -10 37 -10 10 0 31 -7
47 -15 15 -8 38 -15 51 -15 12 0 35 -12 50 -26 27 -25 29 -25 41 -9 16 22 10
35 -16 35 -10 0 -22 5 -25 10 -3 6 -16 10 -29 10 -12 0 -26 4 -32 8 -40 36
-575 129 -539 95z"/>
<path d="M2380 12839 c0 -5 5 -7 10 -4 6 3 10 8 10 11 0 2 -4 4 -10 4 -5 0
-10 -5 -10 -11z"/>
<path d="M2415 12828 c-5 -13 -11 -34 -14 -48 -3 -14 -13 -25 -21 -25 -16 -1
-15 -26 2 -36 15 -9 0 -99 -17 -105 -10 -4 -11 -12 -4 -31 12 -33 11 -80 -3
-106 -6 -12 -11 -36 -9 -53 1 -18 -3 -35 -8 -39 -6 -3 -9 -11 -6 -16 3 -5 -6
-41 -20 -81 -14 -39 -24 -77 -21 -84 3 -7 -2 -50 -10 -96 -22 -121 -23 -127
-29 -193 -5 -69 -9 -90 -24 -127 -6 -16 -9 -28 -6 -28 2 0 -2 -12 -10 -26 -7
-15 -11 -33 -8 -40 3 -8 1 -14 -4 -14 -5 0 -10 -18 -11 -40 -2 -23 -7 -52 -12
-64 -5 -13 -7 -26 -4 -28 2 -3 -2 -22 -9 -44 -8 -21 -12 -45 -10 -51 3 -7 0
-13 -5 -13 -6 0 -8 -8 -5 -19 3 -10 0 -22 -6 -25 -13 -8 -15 -72 -2 -80 5 -3
14 16 20 42 7 26 19 60 27 75 8 16 12 33 8 38 -3 5 -2 15 2 21 5 7 9 19 10 28
1 8 7 38 14 65 6 28 16 78 22 113 7 36 16 62 23 62 16 0 25 44 14 62 -5 7 -7
27 -4 43 10 53 39 160 44 165 3 3 7 41 7 85 2 86 10 148 24 180 5 11 11 45 14
75 12 140 51 367 65 384 6 7 6 18 2 25 -5 8 -7 27 -4 42 5 35 -2 38 -12 7z"/>
<path d="M4700 12825 c0 -8 -4 -15 -10 -15 -5 0 -10 -7 -10 -15 0 -18 12 -19
28 -3 15 15 16 48 2 48 -5 0 -10 -7 -10 -15z"/>
<path d="M3564 12787 c10 -7 67 -49 127 -94 59 -46 111 -83 114 -83 4 0 13 -7
22 -15 8 -9 18 -13 22 -10 3 4 -7 16 -24 28 -16 12 -39 31 -50 42 -24 24 -116
92 -166 123 -38 23 -80 31 -45 9z"/>
<path d="M4655 12728 c-7 -18 -12 -35 -10 -37 8 -7 24 11 33 39 15 42 -5 39
-23 -2z"/>
<path d="M7420 12729 c63 -31 147 -36 210 -13 27 10 50 21 50 25 0 5 -16 1
-35 -7 -49 -20 -165 -15 -250 10 -11 4 0 -3 25 -15z"/>
<path d="M2360 12689 c0 -5 5 -7 10 -4 6 3 10 8 10 11 0 2 -4 4 -10 4 -5 0
-10 -5 -10 -11z"/>
<path d="M4283 12663 c-13 -2 -23 -8 -23 -13 0 -4 -9 -10 -20 -13 -47 -12 -8
-117 43 -117 28 0 19 18 -13 25 -16 4 -30 13 -30 20 0 7 -2 20 -6 28 -8 21 56
48 97 41 l34 -5 -24 20 c-13 12 -26 20 -30 20 -3 -1 -16 -4 -28 -6z"/>
<path d="M4611 12661 c-8 -5 -9 -11 -3 -15 5 -3 12 1 16 9 6 17 6 18 -13 6z"/>
<path d="M4590 12615 c0 -8 2 -15 4 -15 2 0 6 7 10 15 3 8 1 15 -4 15 -6 0
-10 -7 -10 -15z"/>
<path d="M4360 12589 c0 -11 5 -17 10 -14 6 3 10 13 10 21 0 8 -4 14 -10 14
-5 0 -10 -9 -10 -21z"/>
<path d="M4552 12598 c-16 -16 -15 -28 3 -28 8 0 15 2 15 4 0 2 3 11 6 20 7
19 -7 21 -24 4z"/>
<path d="M5127 12603 c-5 -9 -20 -89 -17 -98 0 -3 -6 -13 -15 -21 -8 -9 -15
-29 -15 -46 0 -35 8 -33 15 3 3 13 9 33 14 44 21 46 37 151 18 118z"/>
<path d="M3875 12570 c-4 -6 -5 -12 -4 -14 2 -1 21 -14 41 -29 21 -15 55 -34
77 -42 22 -7 50 -21 63 -29 53 -35 267 -38 343 -6 11 5 39 14 62 21 23 7 52
22 64 35 19 20 20 25 6 38 -17 17 -27 11 -27 -16 0 -15 -5 -17 -25 -12 -18 4
-25 2 -25 -9 0 -15 -40 -27 -91 -27 -15 0 -31 -4 -34 -10 -3 -5 -19 -10 -35
-10 -16 0 -32 -5 -35 -10 -4 -6 -11 -8 -16 -5 -5 4 -38 8 -73 10 -51 3 -81 13
-157 51 -52 26 -101 53 -111 61 -11 10 -18 11 -23 3z"/>
<path d="M4321 12541 c-8 -5 -9 -11 -3 -15 5 -3 15 1 22 9 14 16 3 20 -19 6z"/>
<path d="M2330 12509 c0 -11 5 -17 10 -14 6 3 10 13 10 21 0 8 -4 14 -10 14
-5 0 -10 -9 -10 -21z"/>
<path d="M5048 12340 c-3 -8 -15 -44 -26 -79 -18 -54 -19 -66 -7 -77 19 -20
27 -17 24 9 -1 12 3 35 10 51 7 17 10 48 9 70 -2 23 -6 34 -10 26z"/>
<path d="M8555 12340 c-3 -5 1 -10 9 -10 9 0 16 5 16 10 0 6 -4 10 -9 10 -6 0
-13 -4 -16 -10z"/>
<path d="M6300 12280 c0 -5 5 -10 11 -10 5 0 7 5 4 10 -3 6 -8 10 -11 10 -2 0
-4 -4 -4 -10z"/>
<path d="M5000 12130 c0 -32 15 -48 24 -25 3 8 0 15 -6 15 -7 0 -7 4 1 14 9
10 8 15 -4 20 -11 4 -15 -2 -15 -24z"/>
<path d="M4986 12043 c-2 -10 -8 -56 -11 -102 -6 -65 -5 -83 5 -79 15 5 18 17
23 116 3 69 -6 103 -17 65z"/>
<path d="M4966 11808 c-7 -53 1 -322 10 -352 4 -11 8 -34 9 -51 1 -16 7 -55
14 -85 12 -63 49 -285 57 -345 3 -22 7 -51 10 -65 25 -115 33 -367 14 -465 -5
-27 -10 -66 -11 -85 -1 -33 -10 -63 -30 -102 -5 -10 -9 -27 -9 -37 0 -11 -4
-22 -9 -26 -5 -3 -12 -18 -16 -35 -3 -16 -18 -53 -31 -81 -23 -48 -24 -53 -9
-68 14 -14 17 -14 25 -1 5 8 13 31 16 50 4 19 13 40 20 48 14 13 34 75 34 102
0 9 4 20 8 25 16 19 31 81 37 155 4 41 11 80 17 87 5 7 7 16 4 21 -2 4 -7 85
-10 180 -3 94 -13 210 -21 258 -8 48 -15 101 -15 118 0 17 -9 65 -20 106 -19
72 -27 132 -35 250 -8 105 -27 235 -37 247 -5 7 -6 17 -2 24 12 20 10 169 -2
169 -7 0 -14 -19 -18 -42z"/>
<path d="M2107 11293 c-3 -5 -8 -27 -12 -50 -3 -22 -13 -49 -20 -60 -8 -10
-15 -30 -15 -45 0 -16 -4 -28 -8 -28 -13 0 -56 -144 -44 -148 6 -2 3 -11 -7
-21 -10 -10 -24 -42 -32 -70 -7 -28 -16 -51 -20 -51 -4 0 -5 -15 -4 -32 1 -18
-5 -49 -15 -68 -35 -67 -60 -145 -57 -177 1 -18 5 -33 8 -33 7 0 39 86 83 225
17 55 35 105 39 111 10 16 37 137 32 143 -3 2 1 9 8 15 23 20 79 219 71 253
-4 16 -2 23 6 21 7 -2 15 3 17 10 5 13 -23 17 -30 5z"/>
<path d="M1835 10452 c-4 -20 -11 -42 -15 -47 -5 -6 -11 -35 -14 -65 -3 -34
-10 -57 -20 -62 -20 -11 -21 -48 -2 -48 8 0 20 24 30 58 10 31 21 66 26 77 14
33 22 113 12 119 -6 3 -13 -11 -17 -32z"/>
<path d="M1757 10213 c-4 -3 -7 -15 -7 -25 0 -10 -4 -18 -10 -18 -5 0 -10 -8
-10 -18 0 -11 -9 -45 -20 -78 -11 -32 -22 -67 -24 -79 -10 -51 -30 -123 -42
-152 -8 -17 -14 -45 -14 -61 0 -17 -4 -34 -10 -37 -18 -11 -10 -26 12 -23 21
3 23 7 42 90 4 18 11 25 20 22 10 -4 12 4 9 30 -2 24 1 36 9 36 8 0 9 3 2 10
-7 7 0 42 23 108 44 129 54 230 20 195z"/>
<path d="M4920 9974 c-6 -14 -10 -30 -10 -35 0 -5 -4 -9 -10 -9 -5 0 -10 -10
-10 -23 0 -13 -11 -34 -25 -47 -14 -13 -25 -31 -25 -41 0 -10 -5 -21 -10 -24
-6 -4 -24 -36 -41 -71 -17 -35 -35 -64 -40 -64 -5 0 -9 -7 -9 -15 0 -8 -9 -24
-20 -35 -11 -11 -20 -23 -20 -28 0 -4 -11 -28 -25 -54 -14 -26 -28 -68 -32
-93 -3 -25 -9 -45 -14 -45 -4 0 -12 -23 -18 -52 -7 -28 -15 -56 -20 -62 -5 -6
-14 -29 -20 -51 -7 -22 -23 -62 -36 -90 -22 -46 -45 -129 -51 -183 -4 -39 -25
-165 -34 -207 -5 -22 -9 -47 -8 -55 2 -105 -6 -310 -13 -310 -5 0 -9 4 -9 9 0
4 -10 23 -23 42 -42 62 -124 300 -137 399 -9 63 -17 177 -24 330 -3 68 -28
301 -42 393 -3 21 -10 34 -16 31 -5 -4 -7 -21 -4 -39 4 -18 8 -68 11 -111 3
-43 7 -117 10 -164 3 -47 7 -144 10 -217 6 -211 31 -352 81 -471 8 -18 14 -39
14 -46 0 -7 17 -46 39 -87 21 -41 44 -91 50 -111 7 -20 20 -40 30 -43 15 -5
81 -87 81 -101 0 -7 72 -127 81 -134 3 -3 11 -15 18 -27 6 -13 18 -23 26 -23
8 0 16 -7 16 -15 3 -32 4 -36 15 -43 14 -9 93 -127 166 -247 46 -77 168 -314
168 -328 0 -3 6 -20 14 -38 8 -19 15 -38 16 -44 1 -5 10 -21 20 -35 10 -14 23
-45 30 -70 6 -25 25 -84 41 -132 16 -48 29 -94 29 -103 0 -8 4 -15 8 -15 4 0
18 -33 31 -72 13 -40 34 -98 46 -128 13 -30 37 -102 55 -160 17 -58 42 -136
55 -175 29 -85 53 -184 60 -245 3 -25 10 -74 16 -109 19 -123 6 -412 -20 -431
-4 -3 -17 -41 -30 -85 -12 -44 -33 -114 -46 -155 -14 -41 -26 -86 -29 -100 -2
-14 -12 -52 -21 -85 -9 -33 -22 -78 -27 -100 -6 -22 -14 -45 -19 -50 -4 -6
-20 -71 -34 -145 -15 -74 -29 -141 -31 -148 -2 -7 -4 -16 -5 -20 -1 -4 -6 -18
-11 -32 -5 -14 -15 -54 -23 -90 -7 -36 -25 -105 -40 -155 -15 -49 -31 -112
-37 -140 -5 -27 -18 -67 -28 -87 -10 -21 -16 -47 -13 -57 3 -11 -3 -45 -12
-77 -9 -31 -14 -65 -12 -75 3 -10 -2 -20 -10 -23 -8 -3 -12 -10 -8 -16 5 -9
-19 -153 -33 -190 -8 -24 -11 -41 -22 -115 -5 -38 -14 -86 -20 -105 -6 -19
-11 -52 -11 -72 0 -21 -5 -40 -10 -43 -5 -4 -7 -10 -4 -15 3 -5 0 -21 -6 -37
-6 -15 -13 -48 -15 -73 -2 -25 -6 -58 -8 -75 -3 -16 -9 -54 -14 -83 -6 -32 -5
-55 0 -58 13 -8 15 -4 21 31 3 17 13 64 21 105 9 41 14 80 11 88 -2 7 2 28 9
47 8 18 12 36 8 39 -3 3 0 6 6 6 6 0 9 14 8 33 -2 18 3 55 11 83 7 27 16 65
19 84 2 19 7 49 9 65 3 17 5 38 6 47 0 10 5 18 11 18 5 0 7 7 4 16 -5 14 19
147 31 168 3 4 7 25 8 45 4 42 11 80 28 136 6 22 12 47 12 55 1 8 4 22 7 30 3
8 15 53 27 100 13 47 29 110 37 140 9 30 22 86 29 124 8 37 19 74 25 82 6 7
14 36 16 65 3 29 9 60 15 70 5 10 9 26 9 37 0 10 19 79 41 153 23 74 45 154
49 179 9 50 20 92 55 195 12 39 33 111 45 160 13 50 27 94 32 100 4 5 8 25 8
45 0 19 6 55 13 80 12 42 12 64 3 200 -2 30 1 60 6 67 5 7 7 17 3 22 -5 10
-31 149 -33 181 -2 29 -19 95 -29 115 -6 11 -16 49 -23 84 -6 35 -15 71 -20
80 -4 9 -18 52 -31 96 -12 44 -26 87 -30 95 -14 25 -112 332 -115 358 -4 41
-68 187 -86 198 -4 3 -8 16 -8 29 0 13 -4 26 -9 29 -4 3 -14 27 -22 53 -14 53
-104 225 -164 318 -22 33 -48 78 -58 100 -18 40 -50 88 -132 200 -24 33 -59
85 -76 115 -18 30 -53 82 -79 115 -82 109 -80 101 -75 296 2 108 10 202 20
249 9 41 18 102 21 136 2 33 12 87 23 120 10 32 22 78 26 102 4 23 11 42 16
42 5 0 9 6 9 14 0 12 40 123 92 251 11 28 22 59 26 70 3 11 18 40 32 66 15 25
33 61 39 81 7 20 15 38 19 40 4 2 16 21 26 43 11 22 30 54 43 72 13 17 23 39
23 47 0 9 4 16 8 16 5 0 24 33 42 73 19 39 36 75 38 80 2 4 -6 7 -17 7 -14 0
-25 -9 -31 -26z"/>
<path d="M1623 9686 c3 -8 -1 -20 -9 -27 -8 -7 -13 -18 -10 -24 2 -7 -1 -18
-7 -24 -8 -8 -8 -11 2 -11 10 0 12 -9 7 -31 -4 -22 -2 -29 7 -26 6 2 15 26 18
53 4 27 10 61 14 77 6 22 4 27 -10 27 -11 0 -15 -5 -12 -14z"/>
<path d="M1580 9533 c0 -6 5 -15 12 -19 8 -5 6 -9 -7 -14 -22 -8 -33 -84 -14
-106 10 -12 8 -19 -9 -35 -19 -17 -22 -31 -22 -102 0 -61 4 -88 16 -103 13
-16 15 -16 10 -1 -3 9 -1 17 5 17 5 0 7 11 3 25 -3 13 0 37 8 53 9 18 12 37 7
50 -5 13 -3 24 6 32 10 8 11 18 5 34 -5 13 -4 29 2 40 7 12 7 21 -1 29 -10 10
12 63 34 79 10 7 5 9 -27 12 -7 1 -16 6 -20 11 -5 6 -8 6 -8 -2z"/>
<path d="M1537 9123 c-11 -18 -4 -113 9 -124 15 -12 16 -8 16 81 1 40 -13 63
-25 43z"/>
<path d="M1540 8972 c0 -5 3 -12 8 -16 4 -4 8 -22 9 -39 4 -79 16 -143 30
-159 10 -11 13 -26 9 -45 -4 -18 4 -64 24 -128 16 -55 30 -110 30 -123 0 -13
7 -37 16 -53 8 -17 16 -44 16 -60 1 -16 4 -29 9 -29 11 0 59 -102 53 -112 -3
-5 1 -17 10 -26 47 -52 54 -61 45 -64 -10 -3 17 -61 67 -143 13 -22 28 -49 33
-60 5 -11 21 -32 35 -47 14 -15 26 -31 26 -36 0 -16 98 -135 198 -239 17 -18
32 -40 32 -48 0 -8 13 -21 29 -30 16 -8 55 -37 86 -64 31 -27 90 -66 132 -86
41 -21 98 -53 125 -71 28 -19 55 -34 62 -34 6 0 32 -11 58 -25 26 -14 56 -25
68 -25 11 0 20 -4 20 -10 0 -5 11 -10 25 -10 14 0 34 -9 45 -20 11 -11 29 -20
40 -20 11 0 20 -5 20 -11 0 -6 7 -8 15 -5 9 3 23 2 33 -3 9 -4 44 -21 77 -36
64 -30 137 -98 129 -120 -7 -17 39 -127 70 -168 14 -19 26 -40 26 -48 0 -9 14
-36 30 -62 17 -26 30 -53 30 -59 0 -6 15 -29 33 -52 19 -23 42 -62 53 -89 10
-26 27 -50 36 -53 10 -3 21 -17 24 -30 4 -14 26 -48 50 -77 24 -28 44 -56 44
-63 0 -7 15 -25 34 -42 18 -16 50 -59 70 -95 20 -36 53 -78 74 -93 51 -39 58
-47 67 -73 8 -27 41 -77 72 -110 13 -14 27 -40 33 -60 12 -37 15 -46 45 -118
10 -23 15 -48 13 -55 -3 -7 -2 -40 2 -73 8 -60 -1 -118 -26 -185 -7 -19 -18
-60 -25 -90 -16 -67 -15 -62 -21 -80 -4 -8 -9 -24 -14 -35 -4 -11 -7 -23 -6
-26 1 -4 -12 -46 -29 -95 -28 -84 -48 -156 -53 -199 -1 -11 -10 -34 -19 -52
-9 -18 -17 -42 -17 -54 0 -18 2 -19 15 -9 14 12 69 168 70 200 0 8 7 26 15 40
8 14 15 30 16 35 2 6 7 30 13 55 23 103 64 234 78 248 7 7 13 24 13 37 0 13 5
27 10 30 6 4 8 10 5 15 -6 9 46 222 56 230 10 8 27 98 33 175 4 44 3 63 -3 50
-16 -36 -41 -166 -35 -177 4 -6 3 -13 -2 -17 -5 -3 -15 -19 -22 -35 -15 -33
-23 -29 -27 11 -7 81 -72 228 -141 318 -19 25 -34 48 -34 52 0 4 -9 16 -19 27
-11 12 -26 32 -33 46 -7 14 -32 50 -56 80 -23 30 -65 89 -92 130 -27 41 -63
90 -80 109 -17 19 -36 43 -41 55 -5 12 -40 68 -78 126 -69 103 -114 187 -185
343 -28 62 -33 83 -26 98 13 24 8 24 82 -6 34 -14 69 -25 78 -25 9 0 55 -13
103 -29 48 -16 89 -26 92 -22 6 11 -149 76 -255 106 -60 18 -117 42 -125 54
-3 6 -12 7 -21 4 -8 -3 -34 3 -57 12 -23 10 -61 27 -84 37 -23 10 -48 18 -55
18 -7 0 -22 7 -32 15 -11 8 -27 15 -36 15 -22 0 -372 178 -386 196 -6 8 -18
14 -27 14 -8 0 -17 3 -19 8 -1 4 -30 25 -63 47 -33 22 -62 42 -65 45 -3 3 -27
24 -55 47 -94 77 -219 211 -259 277 -10 17 -23 34 -28 37 -11 7 -45 65 -59
102 -6 15 -14 27 -18 27 -11 0 -60 78 -67 106 -3 13 -12 28 -20 35 -8 6 -14
17 -14 24 0 13 -48 125 -76 176 -7 14 -11 29 -7 32 3 4 1 12 -4 19 -14 17 -50
124 -56 166 -3 18 -10 38 -15 45 -5 7 -10 35 -11 62 -3 56 -29 146 -45 157 -8
6 -8 8 0 8 12 0 7 47 -6 55 -4 2 -5 23 -3 46 3 28 0 45 -9 50 -17 11 -38 11
-38 1z"/>
<path d="M4380 8068 c0 -13 42 -201 56 -248 9 -30 25 -73 37 -95 12 -22 21
-42 22 -45 2 -17 58 -121 82 -152 15 -21 48 -66 72 -100 24 -35 48 -65 53 -66
5 -2 26 -38 47 -80 150 -298 181 -364 192 -405 6 -26 15 -47 20 -47 11 0 5 28
-27 133 -13 43 -24 86 -24 96 0 9 -11 32 -25 51 -14 19 -25 39 -25 46 0 6 -9
14 -20 17 -12 3 -20 14 -20 26 0 20 -93 170 -157 253 -66 87 -93 127 -131 200
-50 93 -109 266 -118 342 -4 31 -13 61 -20 67 -8 6 -14 9 -14 7z"/>
<path d="M4971 6795 c0 -37 24 -138 35 -142 6 -2 3 25 -8 69 -22 87 -26 99
-27 73z"/>
<path d="M5008 6600 c2 -16 6 -30 8 -30 2 0 4 14 4 30 0 17 -4 30 -8 30 -5 0
-7 -13 -4 -30z"/>
<path d="M5010 6536 c0 -8 5 -18 10 -21 6 -3 10 3 10 14 0 12 -4 21 -10 21 -5
0 -10 -6 -10 -14z"/>
<path d="M4985 6176 c-27 -18 -60 -48 -73 -65 -23 -32 -66 -141 -58 -148 2 -3
18 24 36 59 41 81 60 101 126 132 l55 26 52 -26 c29 -15 69 -40 90 -57 21 -16
41 -27 44 -23 12 11 -70 87 -114 107 -77 33 -102 32 -158 -5z"/>
<path d="M5470 5865 c0 -14 4 -25 9 -25 4 0 6 11 3 25 -2 14 -6 25 -8 25 -2 0
-4 -11 -4 -25z"/>
<path d="M4886 5368 c18 -103 58 -158 116 -158 77 0 150 59 177 143 16 46 9
58 -10 20 -25 -49 -73 -110 -104 -132 -34 -23 -63 -20 -107 11 -25 17 -58 91
-58 130 0 10 -4 18 -10 18 -5 0 -7 -14 -4 -32z"/>
<path d="M5075 4934 c-23 -53 -59 -90 -96 -99 -21 -5 -31 -1 -52 24 -14 17
-31 47 -38 66 -7 19 -17 35 -21 35 -10 0 -11 2 7 -58 17 -55 53 -92 90 -92 51
0 144 100 145 158 0 25 -16 10 -35 -34z"/>
<path d="M3744 4686 c-3 -8 -7 -23 -9 -33 -2 -10 -4 -18 -6 -18 -3 0 -8 -34
-19 -120 -5 -44 -11 -93 -13 -108 -2 -15 0 -30 5 -33 12 -8 28 41 28 89 0 40
14 114 26 147 11 27 13 90 3 90 -5 0 -12 -6 -15 -14z"/>
<path d="M4510 4488 c0 -13 -3 -34 -6 -48 -5 -17 -3 -22 3 -15 14 14 24 85 12
85 -5 0 -9 -10 -9 -22z"/>
<path d="M4497 4396 c-13 -32 -26 -256 -17 -281 3 -9 12 52 18 135 12 144 12
180 -1 146z"/>
<path d="M3691 4331 c-15 -10 -28 -160 -16 -188 4 -10 7 -28 6 -40 -1 -11 3
-24 8 -28 6 -3 11 0 12 7 4 115 10 207 14 225 6 25 -5 35 -24 24z"/>
<path d="M5400 4211 c0 -10 42 -23 49 -15 7 6 -20 24 -36 24 -7 0 -13 -4 -13
-9z"/>
<path d="M4474 4058 c3 -17 11 -84 16 -147 6 -64 12 -129 15 -146 2 -16 7 -59
10 -94 3 -35 10 -72 16 -82 5 -11 13 -48 16 -84 3 -36 9 -68 14 -70 4 -3 3
-20 -2 -38 -5 -18 -11 -78 -13 -133 -3 -55 -10 -113 -16 -128 -5 -15 -10 -49
-10 -76 0 -27 -4 -60 -10 -75 -9 -23 -16 -61 -36 -190 -9 -63 13 -29 26 40 7
33 16 78 21 100 5 22 12 58 15 80 3 22 8 47 12 55 3 8 6 22 7 30 1 8 5 44 10
80 4 36 9 74 11 85 9 43 10 251 2 275 -5 14 -13 52 -18 85 -5 33 -18 110 -29
170 -12 61 -24 152 -27 203 -5 71 -10 92 -22 92 -11 0 -13 -8 -8 -32z"/>
<path d="M3673 4041 c-7 -10 -9 -22 -6 -25 4 -4 6 -29 4 -56 -2 -50 7 -62 28
-36 14 16 10 136 -4 136 -6 0 -16 -9 -22 -19z"/>
<path d="M3685 3885 c-3 -8 -7 -22 -10 -31 -3 -9 0 -23 6 -30 6 -8 9 -14 5
-14 -4 0 1 -11 9 -24 11 -16 12 -25 5 -28 -15 -5 -15 -115 0 -133 7 -8 10 -21
7 -29 -3 -8 -3 -17 1 -20 3 -4 7 -14 8 -24 8 -59 11 -73 17 -79 4 -3 7 -15 7
-26 0 -52 37 -108 53 -79 2 4 -5 48 -15 97 -29 142 -67 369 -62 377 7 11 -7
58 -17 58 -5 0 -12 -7 -14 -15z"/>
<path d="M3770 3340 c-13 -8 -13 -10 1 -10 10 0 19 -11 21 -25 4 -17 1 -25 -9
-25 -10 0 -12 -6 -7 -22 4 -13 7 -31 6 -40 0 -10 3 -18 7 -18 7 0 22 -96 25
-162 1 -21 6 -28 22 -28 11 0 23 2 26 5 7 7 -13 148 -22 160 -5 6 -11 30 -15
55 -11 75 -23 120 -34 120 -3 0 -13 -5 -21 -10z"/>
<path d="M4804 3082 c4 -11 3 -23 -2 -26 -10 -6 -8 -53 2 -64 11 -10 16 4 18
53 2 33 -1 49 -11 53 -9 3 -11 -1 -7 -16z"/>
<path d="M3826 2964 c4 -15 8 -36 9 -48 1 -11 3 -25 4 -29 0 -4 10 -3 21 3 36
19 19 100 -21 100 -16 0 -18 -5 -13 -26z"/>
<path d="M4800 2955 c0 -8 5 -15 10 -15 6 0 10 7 10 15 0 8 -4 15 -10 15 -5 0
-10 -7 -10 -15z"/>
<path d="M4788 2883 c-6 -22 1 -43 13 -43 5 0 9 14 9 30 0 33 -15 41 -22 13z"/>
<path d="M3845 2818 c9 -51 12 -58 30 -58 17 0 25 22 18 52 -8 31 -22 48 -40
48 -12 0 -13 -9 -8 -42z"/>
<path d="M4784 2817 c-6 -17 0 -130 8 -143 4 -5 3 -16 -2 -24 -5 -8 -4 -22 2
-33 7 -13 7 -22 0 -29 -7 -7 -7 -18 1 -35 8 -18 8 -29 0 -42 -7 -12 -8 -22 -2
-28 5 -5 6 -27 1 -55 -5 -25 -8 -60 -8 -79 1 -19 -1 -36 -5 -39 -4 -3 -8 -21
-10 -40 -2 -19 -7 -40 -12 -47 -5 -6 -8 -20 -7 -30 1 -10 1 -20 0 -23 -1 -3
-3 -27 -5 -54 -3 -28 -7 -56 -10 -64 -3 -8 -1 -20 3 -26 10 -12 24 -93 26
-146 1 -29 5 -36 25 -38 21 -3 22 -1 16 30 -4 18 -11 38 -15 43 -5 6 -8 21 -9
35 -1 70 -7 116 -14 121 -5 4 -4 15 1 25 15 30 32 110 32 155 0 22 4 48 9 57
5 9 11 40 14 69 4 42 2 53 -11 58 -12 5 -13 8 -4 14 14 9 24 181 12 201 -4 7
-4 27 0 46 4 19 4 34 0 34 -4 0 -6 20 -4 44 2 32 -1 46 -12 50 -8 3 -17 0 -20
-7z"/>
<path d="M3863 2720 c3 -47 32 -49 32 -2 0 33 -14 46 -16 15 0 -16 -2 -15 -9
2 -8 16 -9 13 -7 -15z"/>
<path d="M4460 2724 c0 -28 15 -25 23 6 3 13 0 20 -9 20 -8 0 -14 -10 -14 -26z"/>
<path d="M4455 2680 c-8 -13 -26 -173 -20 -179 9 -8 13 3 18 44 3 22 8 64 12
93 7 49 4 64 -10 42z"/>
<path d="M3873 2653 c-7 -2 -13 -9 -13 -14 0 -6 5 -7 12 -3 8 5 9 2 4 -12 -18
-42 -18 -54 -1 -60 22 -9 42 11 28 28 -6 7 -10 25 -9 41 2 28 0 29 -21 20z"/>
<path d="M3870 2531 c0 -5 9 -11 19 -14 14 -3 18 -1 14 9 -6 15 -33 19 -33 5z"/>
<path d="M3860 2487 c0 -15 20 -37 33 -37 4 0 6 4 2 9 -3 5 -1 12 5 16 6 4 8
11 5 16 -9 14 -45 11 -45 -4z"/>
<path d="M4422 2460 c0 -16 4 -32 9 -35 5 -4 9 10 9 29 0 43 -17 49 -18 6z"/>
<path d="M3879 2433 c-1 -5 -1 -11 0 -15 0 -5 -2 -8 -6 -8 -5 0 -9 -84 -10
-188 -1 -103 -5 -245 -8 -317 -3 -71 -7 -181 -9 -243 -2 -62 -6 -116 -10 -119
-9 -10 -7 -123 3 -123 4 0 11 21 14 48 4 26 9 65 12 87 10 67 13 112 19 310
12 372 13 455 4 455 -5 0 -6 5 -2 11 11 19 15 109 4 109 -5 0 -11 -3 -11 -7z"/>
<path d="M4329 1793 c-4 -129 -19 -170 -80 -234 -48 -49 -50 -51 -91 -44 -43
8 -56 16 -76 50 -11 18 -12 17 -6 -10 3 -16 15 -38 26 -47 20 -18 78 -24 92
-10 8 7 13 8 40 11 8 0 35 29 60 64 42 59 46 69 52 144 5 55 3 82 -5 87 -6 4
-11 0 -12 -11z"/>
<path d="M4925 1790 c-3 -5 10 -16 29 -24 40 -17 172 -101 181 -116 4 -6 21
-16 39 -24 17 -7 38 -20 46 -27 15 -14 65 -49 85 -59 6 -3 47 -27 93 -55 189
-114 204 -119 377 -116 112 2 126 4 197 30 63 23 175 29 209 10 16 -8 19 -16
13 -47 -4 -20 -13 -49 -20 -64 -18 -35 -18 -43 1 -28 9 7 28 37 42 66 22 45
28 51 39 39 15 -15 18 -37 7 -49 -12 -11 -14 -48 -2 -44 6 2 10 8 10 13 0 14
30 45 42 45 6 0 25 -11 43 -25 18 -14 36 -25 39 -25 4 0 15 -10 25 -22 14 -17
15 -28 8 -49 -5 -16 -16 -33 -24 -40 -15 -12 -10 -29 9 -29 13 0 83 107 76
114 -2 2 -24 14 -49 26 -25 12 -77 46 -117 76 -40 30 -79 54 -88 54 -9 0 -26
6 -38 14 -26 18 -200 17 -232 -1 -57 -31 -305 -60 -305 -35 0 11 -79 35 -106
31 -21 -2 -70 15 -75 28 -2 4 -31 26 -64 47 -33 21 -79 52 -103 67 -23 16 -45
29 -48 29 -3 0 -10 5 -17 10 -12 10 -108 75 -180 122 -57 37 -114 68 -126 68
-5 0 -13 -4 -16 -10z"/>
<path d="M4040 1668 c0 -13 5 -30 10 -38 7 -11 10 -7 10 17 0 17 -4 35 -10 38
-6 3 -10 -4 -10 -17z"/>
<path d="M3816 1392 c-2 -4 0 -14 5 -22 8 -13 10 -13 18 0 10 15 6 30 -9 30
-5 0 -11 -4 -14 -8z"/>
<path d="M3818 1343 c0 -4 -2 -21 -3 -38 -2 -16 -8 -54 -14 -84 -6 -29 -11
-75 -11 -101 0 -56 34 -172 55 -190 8 -7 15 -18 15 -26 0 -7 22 -35 49 -63 54
-55 194 -129 264 -138 20 -3 37 -9 37 -14 0 -10 84 -24 127 -21 18 1 57 -5 88
-13 31 -8 77 -12 103 -10 63 5 200 17 237 20 17 2 71 6 121 10 l91 6 110 -74
c110 -75 175 -101 280 -111 47 -5 66 -12 127 -43 54 -29 122 -28 151 1 9 9 19
16 23 16 16 1 84 69 78 78 -3 6 11 13 34 17 23 4 64 22 91 41 28 19 55 34 60
34 5 0 9 5 9 10 0 6 24 21 53 34 28 13 61 32 72 43 34 34 65 73 65 82 0 5 14
14 31 21 30 13 72 52 118 111 l20 26 -39 24 c-41 26 -43 39 -4 39 13 0 24 3
24 8 0 4 21 19 48 34 74 43 88 56 74 70 -8 8 -21 1 -53 -30 -25 -24 -59 -45
-86 -52 -24 -7 -46 -17 -49 -21 -3 -5 -15 -9 -26 -9 -21 0 -21 0 2 -25 13 -13
33 -28 44 -31 35 -11 34 -24 -2 -60 -32 -32 -36 -33 -52 -19 -9 8 -21 15 -26
15 -5 0 -18 13 -27 30 -17 28 -17 30 3 50 11 11 25 32 30 46 8 21 6 26 -16 34
-41 16 -64 12 -64 -10 0 -17 5 -19 31 -13 25 5 30 3 25 -8 -3 -8 -9 -22 -12
-31 -4 -10 -10 -18 -15 -18 -5 0 -9 -13 -9 -28 0 -20 11 -39 35 -61 37 -33 37
-47 2 -60 -27 -10 -49 2 -94 50 -18 20 -58 50 -88 65 -30 16 -54 33 -54 39 1
5 1 20 0 33 -1 27 -21 30 -21 2 0 -26 -34 -26 -96 0 -26 12 -57 19 -68 17 -20
-3 -19 -4 4 -14 208 -89 211 -91 162 -152 -45 -56 -12 -57 35 -1 19 22 38 40
42 40 9 0 135 -99 139 -109 4 -13 -75 -88 -110 -103 -79 -37 -92 -33 -178 54
-16 15 -36 28 -45 28 -9 0 -14 4 -11 9 4 5 1 11 -6 13 -6 2 -20 26 -29 54 -13
36 -18 43 -18 24 -2 -41 -14 -53 -42 -41 -24 10 -184 51 -200 51 -5 0 -9 -4
-9 -9 0 -5 19 -14 43 -20 88 -21 134 -35 185 -54 l52 -21 -22 -23 c-12 -13
-19 -25 -16 -28 7 -8 38 5 38 16 0 12 21 11 40 -1 12 -8 12 -12 0 -37 -8 -15
-22 -33 -29 -39 -13 -10 -10 -17 18 -44 59 -60 -8 -74 -86 -18 -26 19 -69 47
-95 62 -36 20 -48 33 -48 51 0 13 -4 27 -10 30 -6 4 -10 -5 -10 -21 0 -26 -1
-26 -48 -20 -27 3 -52 3 -55 -1 -8 -7 57 -33 84 -33 21 0 73 -27 62 -31 -15
-7 -55 -69 -51 -80 2 -6 20 6 40 25 56 55 87 46 52 -14 -22 -36 -13 -57 32
-76 l36 -15 -20 -20 c-12 -10 -30 -19 -41 -19 -28 0 -144 30 -157 41 -6 5 -31
13 -55 19 -24 5 -65 14 -91 19 -26 6 -55 15 -65 20 -10 5 -39 20 -65 32 -26
12 -58 33 -70 46 -12 13 -27 23 -35 23 -7 0 -13 4 -13 9 0 5 -15 18 -33 29
-37 21 -65 22 -192 3 -44 -6 -111 -14 -150 -16 -38 -3 -77 -5 -85 -6 -35 -2
-238 13 -274 21 -21 5 -45 6 -52 3 -8 -3 -24 1 -37 9 -12 8 -39 18 -61 22 -21
4 -46 11 -55 16 -9 4 -45 21 -81 38 -127 59 -194 168 -206 335 -4 53 -3 103 1
114 11 29 15 102 4 108 -5 4 -10 3 -11 -2z m2045 -713 c-31 -28 -44 -25 -75
19 l-26 39 21 21 22 21 39 -40 40 -40 -21 -20z m-186 -56 c28 -21 31 -28 23
-44 -10 -19 -11 -19 -50 1 -44 23 -44 23 -30 50 14 24 16 24 57 -7z"/>
<path d="M6236 1261 c-8 -13 11 -61 24 -61 12 0 13 17 1 24 -5 3 -7 15 -4 26
5 20 -11 28 -21 11z"/>
<path d="M5982 1208 c-2 -18 -4 -33 -6 -35 -2 -2 -30 1 -62 6 -35 5 -63 6 -68
0 -6 -5 -2 -9 11 -9 25 0 147 -44 179 -64 26 -18 54 -21 54 -6 0 6 -5 10 -11
10 -6 0 -17 7 -25 15 -9 8 -24 15 -35 15 -11 0 -18 4 -14 9 7 12 -5 91 -14 91
-4 0 -8 -14 -9 -32z"/>
<path d="M6280 1197 c0 -7 17 -21 38 -30 45 -20 52 -21 52 -7 0 6 -6 10 -14
10 -7 0 -25 9 -39 20 -29 23 -37 25 -37 7z"/>
<path d="M6053 1023 c-14 -5 -18 -33 -5 -33 10 0 32 22 32 32 0 9 -8 9 -27 1z"/>
<path d="M5974 872 c-6 -4 -13 -15 -17 -25 -6 -16 -5 -16 18 -1 14 9 25 20 25
25 0 11 -11 11 -26 1z"/>
<path d="M5950 810 c0 -14 55 -70 69 -70 17 0 14 7 -16 46 -27 33 -53 45 -53
24z"/>
<path d="M58 527 c-48 -32 -59 -49 -17 -25 32 18 83 58 72 58 -4 -1 -29 -15
-55 -33z"/>
<path d="M11208 63 c7 -3 16 -2 19 1 4 3 -2 6 -13 5 -11 0 -14 -3 -6 -6z"/>
</g>
</svg>
