<?xml version="1.0" standalone="no"?>
<!DOCTYPE svg PUBLIC "-//W3C//DTD SVG 20010904//EN"
 "http://www.w3.org/TR/2001/REC-SVG-20010904/DTD/svg10.dtd">
<svg version="1.0" xmlns="http://www.w3.org/2000/svg"
 width="1170.000000pt" height="1419.000000pt" viewBox="0 0 1170.000000 1419.000000"
 preserveAspectRatio="xMidYMid meet">
<metadata>
Created by potrace 1.13, written by Peter Selinger 2001-2015
</metadata>
<g transform="translate(0.000000,1419.000000) scale(0.100000,-0.100000)"
fill="#000000" stroke="none">
<path d="M3905 12820 c3 -5 10 -10 16 -10 5 0 9 5 9 10 0 6 -7 10 -16 10 -8 0
-12 -4 -9 -10z"/>
<path d="M2875 12640 c3 -5 8 -10 11 -10 2 0 4 5 4 10 0 6 -5 10 -11 10 -5 0
-7 -4 -4 -10z"/>
<path d="M535 11070 c-3 -5 -1 -10 4 -10 6 0 11 5 11 10 0 6 -2 10 -4 10 -3 0
-8 -4 -11 -10z"/>
<path d="M8645 10693 c-16 -3 -34 -8 -40 -13 -5 -4 -25 -11 -43 -15 -53 -11
-141 -54 -141 -69 0 -5 -11 -14 -24 -20 -34 -15 -94 -69 -101 -92 -3 -11 -19
-28 -35 -39 -17 -11 -32 -26 -35 -35 -3 -8 -12 -26 -20 -40 -19 -30 -48 -98
-52 -123 -2 -10 -11 -28 -19 -41 -29 -44 -40 -172 -27 -331 6 -85 17 -158 26
-175 9 -20 11 -30 3 -33 -6 -2 -3 -6 6 -10 14 -5 16 1 12 50 -3 30 -8 59 -10
63 -18 29 -12 286 8 380 12 52 50 159 64 181 10 15 30 44 44 65 62 92 141 158
249 207 114 52 149 59 282 56 10 0 20 -4 23 -10 4 -5 14 -9 24 -9 21 0 96 -71
116 -111 8 -15 15 -48 15 -74 0 -25 4 -45 9 -45 14 0 23 84 11 114 -5 15 -10
32 -10 38 0 14 49 6 130 -21 36 -12 79 -26 96 -32 16 -5 115 -8 220 -7 189 2
271 -5 309 -25 17 -9 9 -13 -50 -24 -38 -7 -115 -20 -170 -28 -147 -21 -394
-87 -455 -122 -18 -10 -41 -22 -51 -28 -20 -10 -26 -25 -10 -25 5 0 33 11 63
24 63 28 292 92 358 100 l45 6 -25 -20 c-14 -10 -36 -22 -50 -25 -14 -3 -54
-20 -90 -37 -36 -17 -74 -35 -85 -39 -11 -5 -31 -13 -45 -19 -14 -6 -38 -18
-55 -28 -63 -38 -204 -106 -242 -117 -13 -3 -23 -10 -23 -14 0 -4 -12 -13 -26
-20 -55 -25 -189 -145 -179 -161 3 -4 -2 -11 -11 -14 -8 -3 -12 -10 -9 -16 3
-5 1 -10 -4 -10 -6 0 -11 -4 -11 -10 0 -5 4 -10 10 -10 16 0 80 61 80 76 0 8
5 14 10 14 6 0 15 11 20 25 5 14 17 25 27 25 20 0 63 41 63 59 0 6 7 11 15 11
8 0 23 4 33 9 9 5 58 25 107 44 92 35 233 58 320 51 79 -6 177 -28 182 -41 3
-7 9 -13 15 -13 5 0 29 -13 53 -30 38 -26 45 -37 55 -83 14 -68 5 -93 -55
-153 -25 -26 -45 -48 -45 -49 0 -2 13 3 30 11 38 20 96 88 110 130 7 19 18 34
27 34 8 0 45 -14 82 -30 36 -17 82 -38 101 -47 19 -8 46 -21 60 -28 14 -7 41
-16 60 -20 52 -10 360 -106 360 -111 0 -2 -21 -1 -47 2 -141 14 -670 6 -751
-12 -53 -12 -62 -15 -62 -26 0 -10 99 -6 155 5 11 3 78 8 149 12 101 6 127 4
124 -5 -2 -7 -24 -19 -49 -26 -24 -6 -71 -20 -104 -29 -33 -9 -64 -21 -69 -26
-6 -5 -18 -9 -28 -9 -10 0 -26 -4 -36 -9 -9 -5 -44 -20 -77 -32 -33 -12 -69
-25 -80 -30 -11 -4 -51 -15 -90 -24 -38 -10 -84 -23 -102 -30 -25 -11 -108
-26 -155 -29 -5 -1 -8 -5 -8 -11 1 -6 27 -9 67 -6 l67 3 -18 -27 c-30 -46 -57
-137 -52 -175 3 -19 8 -52 11 -73 7 -49 31 -107 45 -107 6 0 5 12 -5 30 -9 17
-14 30 -11 30 2 0 -2 20 -9 45 -27 87 21 249 84 290 19 12 190 65 211 65 8 0
26 6 40 13 50 26 167 67 275 96 209 56 230 63 244 76 9 9 22 10 45 4 17 -5 67
-11 111 -13 44 -3 106 -12 138 -20 65 -18 167 -21 167 -6 0 6 -8 10 -17 10
-10 1 -36 12 -58 26 -22 13 -48 27 -57 30 -10 4 -18 9 -18 13 0 14 -110 55
-176 66 -12 1 -37 10 -55 18 -19 8 -68 25 -109 37 -81 23 -229 79 -245 92 -5
4 -16 8 -25 8 -52 0 -91 23 -122 70 -18 28 -36 50 -40 50 -3 0 -13 6 -20 14
-51 50 -168 79 -311 77 -126 -2 -136 4 -64 37 237 112 297 144 297 158 0 10 7
14 18 11 9 -2 40 5 67 14 60 22 160 39 235 40 30 0 64 4 75 8 16 7 8 13 -45
38 -36 17 -85 33 -110 37 -25 3 -63 9 -85 14 -31 7 -232 1 -290 -9 -5 -1 -46
4 -90 11 -44 6 -91 12 -105 12 -14 0 -27 3 -30 7 -8 12 -106 41 -139 41 -19 0
-38 8 -48 19 -9 11 -20 18 -25 15 -4 -3 -5 2 -2 10 5 12 0 16 -17 16 -13 0
-36 6 -50 14 -28 14 -154 26 -204 19z"/>
<path d="M8663 10471 c-29 -11 -61 -27 -70 -37 -45 -45 -55 -106 -24 -145 25
-31 36 -20 17 17 -18 34 -11 72 18 95 27 22 28 20 16 -22 -14 -46 2 -73 50
-89 49 -16 127 -8 151 16 10 11 21 33 25 51 6 28 3 34 -27 52 -19 12 -39 21
-46 21 -6 0 -24 5 -40 11 -44 16 -8 30 48 18 71 -16 116 -68 99 -114 -17 -44
-58 -74 -122 -86 -33 -7 -54 -15 -48 -19 24 -15 126 15 157 46 18 18 36 66 34
89 -8 86 -130 135 -238 96z m7 -35 c0 -2 -7 -7 -16 -10 -8 -3 -12 -2 -9 4 6
10 25 14 25 6z m135 -46 c21 -19 22 -26 12 -49 -16 -35 -25 -41 -74 -41 -56 0
-92 15 -102 42 -11 31 -6 42 32 61 41 22 102 15 132 -13z"/>
<path d="M8715 10370 c-8 -25 1 -40 24 -40 24 0 43 23 35 44 -9 23 -51 20 -59
-4z"/>
<path d="M9165 9976 c-70 -19 -133 -68 -137 -105 -3 -32 -4 -36 -11 -48 -5 -9
-3 -13 7 -13 9 0 16 -8 16 -19 0 -28 61 -61 122 -68 74 -7 132 11 182 57 38
36 41 42 41 92 0 55 -18 85 -61 102 -33 13 -117 14 -159 2z m136 -28 c57 -17
74 -47 59 -109 -7 -30 -17 -49 -26 -49 -8 0 -14 -4 -14 -10 0 -5 -8 -10 -17
-10 -10 0 -31 -7 -48 -16 -32 -16 -73 -14 -145 8 -39 12 -70 50 -70 84 0 23
82 101 112 107 46 9 112 7 149 -5z"/>
<path d="M9160 9927 c-61 -29 -81 -103 -36 -132 60 -39 129 -38 178 4 32 26
39 46 27 80 -18 52 -107 77 -169 48z m137 -39 c29 -27 29 -31 -1 -63 -35 -38
-124 -47 -155 -16 -29 29 -26 56 7 79 49 35 111 36 149 0z"/>
<path d="M9209 9874 c-9 -11 -10 -20 -2 -32 13 -22 34 -25 56 -8 15 12 16 18
7 35 -13 25 -42 27 -61 5z"/>
<path d="M8600 9821 c0 -5 9 -7 20 -4 11 3 20 7 20 9 0 2 -9 4 -20 4 -11 0
-20 -4 -20 -9z"/>
<path d="M8575 9759 c-4 -18 -3 -35 4 -42 11 -11 16 4 13 43 0 8 5 18 11 22 8
5 7 8 -5 8 -10 0 -19 -11 -23 -31z"/>
<path d="M8550 9690 c0 -5 9 -10 20 -10 11 0 20 5 20 10 0 6 -9 10 -20 10 -11
0 -20 -4 -20 -10z"/>
<path d="M8142 9628 c6 -18 28 -21 28 -4 0 9 -7 16 -16 16 -9 0 -14 -5 -12
-12z"/>
<path d="M8155 9563 c4 -16 9 -37 11 -47 5 -28 22 -42 34 -30 6 6 6 22 -2 44
-6 19 -12 41 -14 48 -2 6 -11 12 -20 12 -13 0 -15 -6 -9 -27z"/>
<path d="M8540 9554 c0 -8 5 -24 10 -35 8 -15 8 -19 -2 -17 -10 2 -14 -36 -16
-177 -1 -99 -4 -198 -5 -219 -1 -23 3 -41 10 -43 14 -5 22 93 26 329 2 131 0
168 -10 172 -7 3 -13 -1 -13 -10z"/>
<path d="M8182 9425 c-2 -20 2 -53 8 -75 17 -64 13 -263 -6 -314 -4 -10 -8
-25 -8 -34 -2 -19 -27 -74 -37 -82 -3 -3 -12 -23 -19 -45 -14 -43 -68 -107
-112 -130 -15 -8 -29 -24 -33 -35 -3 -11 -15 -20 -25 -20 -10 0 -25 -6 -32
-13 -21 -20 -97 -57 -118 -57 -11 0 -41 -12 -67 -27 -69 -38 -72 -39 -138 -64
-33 -13 -67 -29 -76 -36 -8 -7 -19 -13 -23 -13 -4 0 -14 -7 -22 -15 -9 -8 -25
-15 -37 -15 -12 0 -31 -7 -41 -15 -11 -8 -28 -15 -38 -15 -10 0 -18 -4 -18
-10 0 -5 -7 -10 -15 -10 -9 0 -18 -7 -21 -15 -4 -9 -19 -15 -40 -15 -22 0 -37
-6 -40 -15 -4 -8 -16 -15 -29 -15 -12 0 -28 -7 -35 -15 -7 -8 -18 -15 -25 -15
-7 0 -24 -9 -38 -20 -14 -11 -37 -20 -51 -20 -14 0 -26 -4 -26 -10 0 -5 -12
-13 -27 -16 -16 -4 -32 -10 -38 -14 -5 -5 -39 -24 -75 -43 -107 -56 -133 -71
-148 -84 -7 -7 -19 -13 -27 -13 -7 0 -15 -3 -17 -7 -6 -14 -67 -53 -83 -53 -8
0 -15 -3 -15 -8 0 -4 -17 -16 -37 -27 -36 -19 -92 -54 -103 -65 -3 -3 -22 -16
-42 -30 -21 -14 -38 -28 -38 -31 0 -4 -11 -10 -25 -13 -14 -4 -25 -11 -25 -16
0 -5 -16 -17 -35 -26 -19 -9 -35 -20 -35 -24 0 -5 -16 -14 -35 -20 -19 -6 -35
-15 -35 -19 0 -4 -36 -31 -80 -60 -44 -29 -80 -57 -80 -62 0 -5 -6 -9 -13 -9
-7 0 -20 -8 -29 -17 -8 -10 -25 -25 -36 -33 -55 -42 -130 -115 -126 -122 3 -4
-3 -11 -13 -15 -30 -12 -84 -61 -173 -159 -25 -27 -61 -56 -80 -64 -35 -14
-82 -44 -108 -67 -7 -7 -19 -13 -27 -13 -7 0 -15 -6 -18 -14 -3 -8 -21 -22
-40 -31 -41 -19 -164 -146 -235 -240 -4 -5 -28 -37 -53 -70 -26 -33 -49 -68
-52 -77 -4 -10 -10 -18 -15 -18 -10 0 -85 -145 -89 -175 -2 -11 -8 -24 -13
-29 -18 -18 -10 -26 26 -26 31 0 35 -2 24 -15 -7 -8 -16 -15 -21 -15 -19 0
-119 -109 -169 -184 -28 -43 -86 -113 -128 -155 -77 -77 -124 -131 -116 -131
2 0 -5 -9 -16 -20 -11 -11 -20 -27 -20 -35 0 -21 29 -19 37 3 10 27 65 106 81
116 8 4 23 19 35 32 30 35 158 131 191 143 15 6 38 11 51 11 13 0 25 4 27 8 2
5 16 12 32 16 26 6 28 5 17 -8 -8 -9 -18 -16 -23 -16 -12 0 -64 -42 -124 -100
-23 -22 -45 -40 -51 -40 -5 0 -32 -21 -60 -47 -28 -27 -67 -61 -87 -78 -21
-16 -49 -40 -64 -53 -15 -13 -40 -33 -55 -45 -15 -12 -38 -30 -50 -41 -45 -37
-106 -76 -121 -76 -9 0 -16 -5 -16 -10 0 -6 -8 -14 -18 -18 -9 -4 -28 -17 -42
-30 -54 -50 -124 -104 -147 -113 -12 -5 -23 -13 -23 -18 0 -5 -8 -12 -17 -15
-10 -4 -34 -20 -53 -36 -57 -49 -59 -50 -65 -50 -4 0 -20 -13 -37 -30 -16 -16
-36 -30 -44 -30 -8 0 -14 -7 -14 -15 0 -8 -4 -15 -10 -15 -5 0 -10 -6 -10 -14
0 -7 -9 -16 -20 -19 -11 -3 -20 -12 -20 -19 0 -8 -15 -23 -34 -33 -19 -11 -40
-29 -47 -42 -7 -13 -17 -23 -23 -23 -6 0 -17 -9 -24 -20 -7 -11 -18 -20 -25
-20 -8 0 -20 -11 -27 -25 -7 -14 -17 -25 -21 -25 -5 0 -22 -14 -39 -30 -17
-17 -34 -30 -38 -30 -12 -1 -58 -45 -77 -73 -9 -15 -24 -27 -32 -27 -17 0 -78
-60 -75 -73 2 -5 -6 -11 -17 -14 -11 -3 -21 -15 -23 -27 -2 -13 -11 -22 -25
-24 -13 -2 -23 -10 -23 -18 0 -8 -7 -14 -15 -14 -8 0 -23 -10 -35 -22 -15 -16
-17 -24 -8 -30 21 -13 25 -10 92 55 36 34 97 91 136 127 39 36 92 84 117 108
26 23 50 42 54 42 4 0 10 8 13 18 4 9 22 27 41 40 20 12 41 34 47 47 6 14 20
25 30 25 10 0 28 12 41 26 45 53 63 69 88 82 15 8 50 36 79 63 29 27 55 49 58
49 5 0 101 79 117 96 9 9 155 121 238 181 17 13 35 30 40 38 4 8 14 15 21 15
8 0 28 16 45 35 17 19 34 35 39 35 5 0 22 12 39 28 65 58 90 78 126 105 71 53
232 190 240 203 4 8 13 14 20 14 6 0 20 9 32 20 21 21 77 63 154 115 43 29
139 115 129 115 -12 0 -98 -52 -98 -60 0 -4 -12 -11 -26 -14 -14 -4 -43 -18
-65 -32 -22 -13 -54 -27 -72 -31 -18 -3 -37 -11 -43 -19 -6 -7 -21 -15 -35
-18 -13 -3 -34 -8 -46 -12 -53 -15 -15 48 97 162 47 48 69 60 123 69 132 23
205 61 97 51 -195 -18 -193 -18 -188 -4 3 7 11 30 19 51 7 20 17 37 21 37 4 0
8 5 8 12 0 10 75 134 90 148 12 11 70 89 70 94 0 12 184 201 220 227 19 13 50
36 68 52 37 31 49 34 49 12 0 -8 -7 -15 -15 -15 -16 0 -122 -99 -122 -114 0
-5 -8 -19 -19 -30 -10 -12 -31 -43 -46 -71 -15 -27 -31 -55 -36 -61 -5 -6 -11
-28 -15 -48 l-6 -38 41 7 c23 4 51 8 64 10 33 5 75 20 142 50 33 15 71 31 84
36 13 5 21 12 18 15 -3 3 -25 -3 -49 -14 -71 -31 -100 -41 -158 -51 -30 -6
-65 -13 -78 -15 -22 -5 -23 -3 -16 27 20 91 200 294 543 613 41 38 106 99 145
137 38 37 73 67 76 67 4 0 17 9 30 20 13 11 28 20 34 20 6 0 25 13 41 29 17
15 42 34 55 41 13 7 29 17 34 21 23 19 223 147 255 163 18 10 58 34 89 54 30
20 76 49 101 63 98 54 127 72 142 85 8 8 21 14 28 14 7 0 29 11 49 25 20 14
42 25 49 25 7 0 27 9 45 20 18 11 39 20 46 20 7 0 31 12 55 27 23 14 43 26 45
25 3 -3 66 29 72 37 9 11 50 31 63 31 8 0 49 18 92 40 43 22 84 40 92 40 8 0
56 20 106 44 151 72 226 106 236 106 17 0 81 33 81 42 0 4 5 8 10 8 35 0 220
164 220 195 0 8 6 18 13 22 27 18 80 144 70 169 -3 7 2 21 11 29 12 12 16 37
17 93 1 172 -2 227 -15 237 -10 8 -10 14 -2 28 8 12 8 22 0 34 -18 29 -30 25
-32 -12z"/>
<path d="M9098 9208 c-7 -50 99 -243 171 -312 49 -47 48 -22 -2 36 -65 76
-117 172 -139 252 -13 50 -25 59 -30 24z"/>
<path d="M8750 9078 c-1 -5 -3 -11 -5 -15 -1 -5 -7 -21 -13 -36 -14 -34 -15
-47 -3 -47 19 0 32 31 28 67 -2 21 -5 35 -7 31z"/>
<path d="M8515 9040 c3 -5 8 -10 11 -10 2 0 4 5 4 10 0 6 -5 10 -11 10 -5 0
-7 -4 -4 -10z"/>
<path d="M8500 8974 c-7 -19 -13 -41 -14 -47 -2 -11 -31 -75 -74 -167 -10 -19
-23 -41 -30 -48 -23 -25 -92 -131 -92 -141 0 -6 -6 -11 -14 -11 -8 0 -32 -16
-53 -36 -21 -19 -61 -50 -88 -68 -28 -18 -59 -41 -69 -52 -10 -10 -42 -26 -70
-36 -27 -10 -54 -25 -59 -33 -4 -8 -16 -15 -26 -15 -9 0 -36 -9 -59 -20 -22
-11 -45 -20 -51 -20 -15 0 -326 -161 -329 -171 -2 -5 -11 -9 -19 -9 -8 0 -41
-16 -73 -35 -32 -19 -63 -35 -71 -35 -7 0 -20 -6 -28 -14 -9 -7 -37 -21 -63
-31 -26 -9 -49 -24 -52 -32 -3 -8 -10 -12 -15 -9 -5 4 -16 1 -23 -6 -18 -17
-46 -35 -78 -50 -14 -7 -27 -15 -30 -18 -3 -3 -12 -9 -22 -15 -55 -34 -107
-71 -108 -77 0 -14 30 -9 36 5 3 8 11 14 18 14 6 0 39 17 72 39 32 22 76 49
98 59 21 11 40 26 43 33 3 6 16 12 28 12 13 0 30 6 37 13 7 7 38 26 68 42 103
52 110 56 115 66 4 5 12 9 19 9 8 0 44 18 81 40 38 21 81 42 97 45 15 4 28 11
28 16 0 5 6 9 13 9 7 0 45 16 86 35 40 19 78 35 85 35 11 0 36 12 175 83 20
11 59 34 88 53 28 19 54 34 58 34 28 0 225 192 249 242 3 7 24 42 47 78 40 64
96 191 96 220 1 8 4 23 8 33 5 12 3 17 -8 17 -9 0 -21 -15 -27 -36z"/>
<path d="M9120 9002 c0 -17 60 -92 128 -160 37 -38 73 -80 80 -94 18 -34 63
-81 70 -74 11 12 -94 153 -175 234 -46 46 -83 88 -83 93 0 5 -4 9 -10 9 -5 0
-10 -4 -10 -8z"/>
<path d="M8687 8815 c-19 -62 -21 -85 -8 -85 9 0 22 24 27 50 1 8 6 32 9 53
11 57 -9 44 -28 -18z"/>
<path d="M8910 8818 c-7 -29 -17 -61 -21 -70 -11 -21 5 -33 20 -14 11 14 28
136 18 136 -3 0 -11 -24 -17 -52z"/>
<path d="M9200 8817 c0 -7 34 -46 75 -87 77 -76 189 -208 198 -232 2 -7 8 -10
12 -6 11 11 -88 158 -130 192 -19 16 -35 35 -35 43 0 7 -4 13 -8 13 -10 0 -44
26 -83 62 -16 15 -29 22 -29 15z"/>
<path d="M8230 8749 c-42 -44 -45 -71 -5 -42 21 17 61 83 49 83 -2 0 -23 -19
-44 -41z"/>
<path d="M9312 8616 c13 -24 66 -92 100 -127 16 -17 68 -92 94 -135 21 -35 23
-9 2 36 -35 77 -114 180 -138 180 -4 0 -12 10 -19 23 -7 13 -21 29 -32 35 -19
12 -19 12 -7 -12z"/>
<path d="M8775 8580 c-19 -38 -22 -50 -11 -50 12 0 56 73 56 93 0 22 -23 0
-45 -43z"/>
<path d="M8594 8565 c-22 -56 -18 -73 8 -32 17 25 31 87 20 87 -4 0 -17 -25
-28 -55z"/>
<path d="M7956 8563 c-12 -16 -14 -24 -6 -21 16 5 46 48 34 48 -5 0 -18 -12
-28 -27z"/>
<path d="M8105 8544 c-24 -37 -13 -39 20 -4 21 22 24 30 13 30 -9 0 -23 -12
-33 -26z"/>
<path d="M7910 8515 c-11 -13 -10 -14 4 -9 9 3 16 10 16 15 0 13 -6 11 -20 -6z"/>
<path d="M8055 8500 c-3 -5 1 -10 9 -10 9 0 16 5 16 10 0 6 -4 10 -9 10 -6 0
-13 -4 -16 -10z"/>
<path d="M8989 8446 c-4 -16 -7 -26 -9 -31 -1 -3 -3 -8 -5 -12 -1 -5 -5 -16
-10 -26 -10 -23 0 -33 19 -18 16 13 27 79 14 87 -4 3 -9 3 -9 0z"/>
<path d="M8373 8378 c-16 -24 -33 -47 -39 -53 -16 -14 -25 -45 -14 -45 5 0 17
12 27 26 10 14 30 39 46 55 27 30 36 59 17 59 -5 0 -22 -19 -37 -42z"/>
<path d="M9390 8418 c0 -18 54 -110 73 -125 54 -42 96 -167 97 -285 0 -42 4
-68 11 -68 15 0 8 197 -8 230 -6 14 -24 50 -38 80 -29 60 -103 161 -122 168
-7 2 -13 2 -13 0z"/>
<path d="M8640 8400 c0 -6 -9 -20 -20 -32 -23 -25 -26 -40 -7 -32 12 4 47 55
47 68 0 3 -4 6 -10 6 -5 0 -10 -5 -10 -10z"/>
<path d="M7710 8393 c-8 -3 -23 -14 -34 -25 -19 -18 -19 -18 0 -18 10 0 33 11
49 25 28 23 21 32 -15 18z"/>
<path d="M7468 8352 c-1 -4 -20 -18 -40 -31 -33 -20 -50 -41 -33 -41 10 0 60
34 84 57 18 17 20 23 8 23 -8 0 -17 -4 -19 -8z"/>
<path d="M7628 8333 c-10 -2 -18 -9 -18 -14 0 -13 12 -11 34 6 20 15 16 17
-16 8z"/>
<path d="M8555 8300 c-23 -26 -4 -26 26 0 18 15 20 19 8 20 -9 0 -24 -9 -34
-20z"/>
<path d="M8776 8286 c-28 -52 -14 -68 17 -19 31 48 32 53 14 53 -7 0 -21 -15
-31 -34z"/>
<path d="M8872 8311 c2 -7 7 -12 11 -12 12 1 9 15 -3 20 -7 2 -11 -2 -8 -8z"/>
<path d="M9000 8198 c0 -7 -9 -24 -20 -38 -22 -28 -25 -40 -10 -40 8 0 50 70
50 85 0 11 -20 4 -20 -7z"/>
<path d="M9430 8186 c0 -5 14 -52 31 -105 17 -53 33 -112 35 -131 2 -19 8 -57
13 -85 8 -47 6 -159 -3 -174 -7 -11 12 -36 21 -27 4 4 8 73 8 154 0 136 -2
153 -30 234 -25 75 -74 162 -75 134z"/>
<path d="M7085 8161 c-38 -24 -78 -62 -71 -68 6 -6 116 69 116 80 0 12 -13 8
-45 -12z"/>
<path d="M7298 8173 c-1 -5 -30 -21 -63 -37 -33 -16 -54 -31 -48 -33 14 -5 85
28 123 57 19 15 21 20 8 20 -9 0 -18 -3 -20 -7z"/>
<path d="M8000 8160 c0 -5 -7 -10 -15 -10 -8 0 -15 -4 -15 -9 0 -5 -3 -18 -7
-28 -6 -17 -5 -16 16 2 29 25 46 55 31 55 -5 0 -10 -4 -10 -10z"/>
<path d="M9610 8155 c-7 -9 -10 -19 -6 -23 4 -4 12 1 17 10 7 12 20 15 51 12
34 -3 38 -2 18 5 -39 14 -66 12 -80 -4z"/>
<path d="M8409 8080 c-20 -22 -34 -42 -31 -44 5 -6 84 61 90 76 9 22 -27 2
-59 -32z"/>
<path d="M7915 8080 c-20 -21 -24 -30 -13 -30 19 0 51 35 46 50 -2 6 -16 -3
-33 -20z"/>
<path d="M8186 8079 c-15 -17 -25 -33 -22 -36 7 -7 66 46 66 59 0 15 -15 7
-44 -23z"/>
<path d="M8653 8031 c-29 -24 -31 -46 -3 -31 20 11 47 50 33 50 -4 -1 -18 -9
-30 -19z"/>
<path d="M7664 8018 c-51 -40 -64 -52 -64 -60 0 -17 19 -7 61 32 47 43 50 64
3 28z"/>
<path d="M9400 7995 c0 -3 4 -14 9 -24 6 -10 12 -38 15 -63 3 -26 11 -59 17
-75 15 -38 21 -210 9 -249 -6 -17 -12 -40 -15 -50 -2 -10 -11 -50 -20 -89 -9
-38 -18 -79 -20 -90 -3 -11 4 -1 14 21 28 60 78 275 74 314 -1 8 -5 51 -9 95
-7 85 -43 206 -62 213 -7 2 -12 1 -12 -3z"/>
<path d="M8940 7945 c-22 -23 -29 -35 -19 -35 15 0 65 58 57 66 -3 2 -20 -12
-38 -31z"/>
<path d="M6722 7927 c-43 -30 -52 -54 -11 -30 17 10 35 24 41 31 19 22 3 22
-30 -1z"/>
<path d="M6895 7940 c-3 -5 1 -10 9 -10 8 0 18 5 21 10 3 6 -1 10 -9 10 -8 0
-18 -4 -21 -10z"/>
<path d="M6860 7905 c-8 -9 -8 -15 -2 -15 12 0 26 19 19 26 -2 2 -10 -2 -17
-11z"/>
<path d="M7830 7898 c-14 -13 -27 -22 -30 -20 -2 2 -6 -1 -8 -7 -2 -6 1 -11 8
-11 14 0 70 41 70 52 0 14 -16 9 -40 -14z"/>
<path d="M8370 7903 c-21 -9 -42 -32 -38 -42 2 -5 19 4 38 20 33 28 33 34 0
22z"/>
<path d="M8002 7834 c-18 -20 -30 -39 -28 -42 6 -6 72 48 80 66 11 26 -22 11
-52 -24z"/>
<path d="M8605 7860 c-16 -4 -74 -18 -127 -30 -54 -13 -98 -27 -98 -33 0 -5 7
-7 15 -4 8 4 42 11 77 18 35 6 72 14 83 18 20 7 157 6 228 -3 25 -3 44 -13 58
-30 11 -14 28 -34 37 -43 14 -14 17 -37 16 -127 0 -130 -7 -153 -89 -328 -14
-32 -31 -58 -36 -58 -5 0 -8 -3 -7 -7 3 -8 -15 -30 -57 -76 -11 -12 -47 -40
-80 -62 -33 -22 -62 -42 -65 -46 -15 -16 -80 -49 -97 -49 -12 0 -26 -7 -33
-15 -7 -8 -21 -15 -31 -15 -10 0 -21 -4 -24 -10 -3 -5 -17 -10 -31 -10 -14 0
-35 -7 -47 -15 -27 -17 -217 -33 -217 -18 0 5 19 16 43 23 81 26 277 132 277
151 0 5 -7 6 -15 3 -8 -4 -15 -10 -15 -15 0 -5 -6 -9 -14 -9 -8 0 -21 -7 -30
-15 -40 -40 -292 -136 -310 -118 -3 3 -11 2 -18 -4 -7 -5 -29 -10 -48 -12 -47
-3 -70 -10 -70 -22 0 -12 33 -11 104 2 33 6 63 7 69 2 13 -10 141 -9 220 1 29
4 75 18 102 31 153 72 185 88 235 120 64 40 170 132 170 146 0 6 11 25 23 42
56 75 117 236 117 305 0 17 4 33 9 36 13 9 11 55 -6 128 -20 88 -50 121 -123
138 -67 15 -155 20 -195 10z"/>
<path d="M7515 7828 c-22 -11 -80 -76 -73 -83 2 -2 27 18 57 46 52 48 56 58
16 37z"/>
<path d="M7203 7751 c-29 -24 -43 -51 -27 -51 12 0 74 56 74 68 0 18 -11 14
-47 -17z"/>
<path d="M9364 7713 c13 -144 3 -337 -19 -373 -3 -5 1 -10 9 -10 9 0 16 6 16
13 0 6 5 41 10 77 19 129 11 360 -13 360 -6 0 -7 -25 -3 -67z"/>
<path d="M6446 7724 c-16 -19 -27 -37 -24 -39 5 -5 78 57 78 68 0 17 -27 3
-54 -29z"/>
<path d="M6855 7750 c4 -6 11 -8 16 -5 14 9 11 15 -7 15 -8 0 -12 -5 -9 -10z"/>
<path d="M6790 7707 c-19 -18 -53 -46 -75 -62 -51 -37 -105 -91 -135 -135 -13
-19 -30 -39 -37 -43 -7 -4 -13 -15 -13 -22 0 -8 -4 -15 -9 -15 -21 0 -58 -114
-41 -125 11 -7 90 17 90 27 0 5 -13 8 -30 8 l-30 0 17 43 c9 23 27 57 40 75
13 17 22 32 19 32 -4 0 2 8 12 18 9 10 35 38 58 63 43 47 117 109 131 109 4 0
21 14 37 30 41 42 10 39 -34 -3z"/>
<path d="M6611 7711 c-13 -10 -19 -21 -14 -24 6 -4 21 5 33 18 27 29 16 33
-19 6z"/>
<path d="M8087 7710 c-14 -11 -28 -20 -31 -20 -7 0 -25 -14 -54 -41 -9 -9 -24
-19 -32 -22 -13 -5 -13 -6 1 -6 25 -1 91 35 134 73 43 39 28 52 -18 16z"/>
<path d="M6560 7670 c0 -5 4 -10 9 -10 6 0 13 5 16 10 3 6 -1 10 -9 10 -9 0
-16 -4 -16 -10z"/>
<path d="M7701 7661 c-13 -11 -28 -22 -34 -24 -7 -2 -9 -8 -5 -12 4 -4 26 7
50 24 23 17 35 31 27 31 -9 0 -26 -9 -38 -19z"/>
<path d="M8467 7653 c-20 -14 -37 -30 -37 -35 0 -10 40 12 81 43 39 30 0 23
-44 -8z"/>
<path d="M8641 7651 c-11 -15 -18 -31 -14 -35 9 -8 33 14 33 30 0 8 5 14 10
14 6 0 10 5 10 10 0 19 -19 10 -39 -19z"/>
<path d="M6938 7640 c-40 -44 -34 -60 7 -20 34 33 43 50 28 50 -5 0 -20 -14
-35 -30z"/>
<path d="M6264 7596 c-22 -12 -86 -82 -68 -75 19 8 103 74 104 82 0 9 -10 8
-36 -7z"/>
<path d="M7175 7550 c-21 -22 -36 -42 -33 -46 11 -10 108 59 108 78 0 21 -40
4 -75 -32z"/>
<path d="M8732 7548 c-6 -6 -12 -17 -12 -23 0 -6 -15 -24 -32 -40 -28 -24 -30
-30 -15 -33 23 -5 41 11 62 54 18 39 17 62 -3 42z"/>
<path d="M6384 7537 c-37 -22 -94 -69 -94 -78 0 -16 21 -9 46 16 14 14 28 25
33 25 4 0 17 11 29 25 24 27 19 31 -14 12z"/>
<path d="M7505 7528 c-11 -6 -24 -17 -28 -25 -4 -7 -12 -13 -18 -13 -31 0
-208 -194 -211 -232 -1 -17 -15 -34 -38 -49 -19 -13 -37 -26 -40 -29 -3 -3
-22 -16 -42 -30 -21 -14 -43 -35 -49 -47 -7 -13 -20 -25 -31 -29 -10 -3 -18
-8 -18 -12 0 -4 -12 -20 -26 -37 -47 -54 -81 -109 -87 -143 l-7 -33 58 6 c31
4 71 11 87 16 38 11 160 54 203 70 54 22 36 29 -25 10 -143 -46 -170 -54 -221
-61 l-54 -7 5 26 c2 14 6 33 8 41 6 23 209 220 226 220 13 0 15 -8 9 -46 -5
-38 -3 -45 9 -40 8 3 22 3 30 0 12 -5 11 -9 -8 -23 -12 -9 -33 -22 -47 -29
-14 -7 -43 -29 -65 -48 l-40 -36 40 23 c22 12 66 40 97 61 32 21 62 38 67 38
5 0 11 7 15 15 3 10 19 15 46 15 40 0 53 -13 25 -24 -8 -3 -15 -17 -15 -30 0
-34 26 -40 153 -34 l102 4 0 -30 0 -31 95 -5 c88 -5 95 -7 98 -27 4 -29 24
-44 42 -33 12 7 12 12 2 22 -22 22 -13 45 21 58 88 33 118 46 196 83 46 23 79
43 73 45 -6 2 -23 -3 -39 -11 -15 -8 -41 -17 -57 -21 -16 -4 -43 -18 -60 -30
-17 -13 -47 -26 -66 -30 -19 -3 -46 -9 -60 -13 -46 -12 -175 -14 -203 -4 -44
17 -30 40 40 66 34 13 72 29 85 36 13 7 30 13 39 14 10 1 24 8 32 16 8 8 36
27 62 42 26 15 45 31 42 34 -4 3 -31 -11 -62 -31 -30 -21 -64 -38 -75 -39 -11
-1 -20 -5 -20 -9 0 -4 -6 -8 -12 -8 -7 -1 -31 -9 -53 -20 -22 -11 -50 -19 -62
-20 -12 0 -24 -4 -27 -9 -5 -7 -45 -15 -141 -26 -42 -5 -125 6 -125 16 0 24
54 65 130 101 47 23 79 43 72 45 -7 3 -24 -2 -37 -11 -13 -9 -31 -16 -40 -16
-8 0 -47 -11 -87 -25 -75 -25 -99 -29 -156 -27 -32 2 -33 3 -26 40 15 87 117
218 279 356 31 26 25 34 -10 14z"/>
<path d="M8205 7522 c-16 -8 -36 -21 -43 -29 -29 -28 18 -13 50 17 37 33 36
35 -7 12z"/>
<path d="M5926 7469 c-11 -11 -15 -19 -9 -19 12 0 38 28 32 34 -2 2 -13 -5
-23 -15z"/>
<path d="M6953 7446 c-36 -20 -109 -86 -95 -86 14 0 116 72 127 90 8 13 -4 11
-32 -4z"/>
<path d="M7790 7450 c0 -4 -11 -12 -25 -18 -48 -22 -25 -32 27 -11 82 32 89
39 41 37 -24 -1 -43 -4 -43 -8z"/>
<path d="M9301 7460 c-4 -8 -10 -40 -17 -92 -8 -55 11 -68 21 -15 6 29 2 120
-4 107z"/>
<path d="M8306 7409 c-22 -21 -37 -41 -35 -44 6 -6 89 65 89 77 0 16 -15 7
-54 -33z"/>
<path d="M5869 7420 c-13 -11 -27 -23 -31 -27 -70 -76 -102 -116 -100 -120 2
-4 -3 -10 -12 -15 -9 -5 -16 -16 -16 -23 0 -8 -4 -15 -9 -15 -7 0 -27 -39 -35
-70 -1 -3 -8 -16 -15 -29 -10 -17 -10 -26 -2 -34 9 -9 14 -9 19 -1 4 6 30 14
57 17 54 6 158 47 138 54 -7 2 -21 -1 -32 -6 -11 -6 -47 -14 -81 -18 -67 -7
-72 -1 -42 53 36 66 132 188 177 226 11 9 17 19 14 22 -3 3 -17 -3 -30 -14z"/>
<path d="M7548 7385 c-40 -36 -53 -67 -19 -43 25 18 75 78 64 78 -4 0 -25 -16
-45 -35z"/>
<path d="M6660 7386 c-14 -8 -27 -13 -30 -11 -3 2 -17 -5 -30 -16 -14 -10 -20
-19 -13 -19 16 0 91 39 99 51 7 12 4 11 -26 -5z"/>
<path d="M7190 7391 c0 -5 -16 -19 -35 -32 -19 -13 -35 -30 -35 -37 0 -14 76
34 99 62 12 14 10 16 -8 16 -11 0 -21 -4 -21 -9z"/>
<path d="M6008 7357 c-21 -12 -38 -28 -38 -34 0 -7 -9 -13 -20 -13 -11 0 -20
-4 -20 -10 0 -14 5 -13 53 9 46 21 100 71 76 71 -8 -1 -31 -11 -51 -23z"/>
<path d="M6415 7344 c-46 -54 -43 -64 4 -14 22 24 41 45 41 47 0 12 -19 -2
-45 -33z"/>
<path d="M8048 7344 c-27 -20 -48 -40 -48 -45 0 -12 43 10 53 27 4 8 14 14 22
14 8 0 19 9 25 20 15 29 2 24 -52 -16z"/>
<path d="M8525 7344 c-15 -14 -25 -27 -22 -30 7 -8 39 10 61 35 29 32 -4 28
-39 -5z"/>
<path d="M9202 7268 c-6 -26 -12 -56 -12 -67 0 -12 -5 -21 -12 -21 -6 0 -9 -3
-5 -6 3 -3 2 -17 -3 -30 -6 -15 -6 -24 0 -24 14 0 52 133 48 167 -3 25 -5 22
-16 -19z"/>
<path d="M9278 7298 c0 -7 -2 -25 -3 -39 -1 -14 -6 -32 -11 -40 -5 -8 -10 -25
-12 -38 -2 -13 -11 -42 -22 -63 -10 -21 -14 -40 -9 -44 9 -5 19 14 40 84 7 23
15 42 18 42 4 0 7 8 8 18 0 9 3 32 6 49 3 18 1 35 -4 38 -5 4 -10 0 -11 -7z"/>
<path d="M9339 7307 c-3 -13 -6 -22 -17 -50 -14 -34 -15 -37 -4 -37 11 0 36
80 28 88 -3 3 -7 2 -7 -1z"/>
<path d="M7666 7264 c-15 -14 -26 -27 -23 -30 3 -3 20 8 39 25 18 17 29 30 23
30 -5 0 -23 -11 -39 -25z"/>
<path d="M6338 7263 c-20 -24 -30 -53 -18 -53 6 0 10 7 10 15 0 8 4 15 10 15
5 0 14 9 20 20 13 25 -1 26 -22 3z"/>
<path d="M6675 7249 c-11 -17 1 -21 15 -4 8 9 8 15 2 15 -6 0 -14 -5 -17 -11z"/>
<path d="M6845 7220 c-19 -8 -19 -9 3 -9 12 -1 22 4 22 9 0 6 -1 10 -2 9 -2 0
-12 -4 -23 -9z"/>
<path d="M7610 7220 c-13 -8 -12 -10 3 -10 9 0 17 5 17 10 0 12 -1 12 -20 0z"/>
<path d="M6266 7175 c-9 -13 -16 -28 -16 -33 0 -15 -31 -72 -39 -72 -4 0 -8
-7 -8 -15 0 -15 23 -19 82 -15 17 1 39 3 49 4 11 0 21 7 24 14 2 8 -12 12 -51
12 -54 0 -54 0 -49 28 3 15 16 41 29 58 27 36 28 44 9 44 -7 0 -21 -11 -30
-25z"/>
<path d="M6810 7193 c-20 -9 -54 -42 -48 -48 3 -3 22 8 43 25 36 29 38 35 5
23z"/>
<path d="M8168 7113 c7 -3 16 -2 19 1 4 3 -2 6 -13 5 -11 0 -14 -3 -6 -6z"/>
<path d="M6460 7095 c-19 -7 -48 -16 -65 -20 -16 -4 -24 -10 -18 -12 16 -6
120 24 128 37 8 13 -2 12 -45 -5z"/>
<path d="M9131 7064 c-11 -15 -21 -31 -21 -35 0 -5 -14 -38 -31 -74 -17 -36
-29 -71 -26 -78 2 -6 23 29 46 78 23 50 46 98 52 108 17 30 3 31 -20 1z"/>
<path d="M9190 7045 c-6 -16 -17 -33 -24 -39 -19 -15 -30 -56 -16 -56 13 0 65
108 56 117 -3 3 -10 -7 -16 -22z"/>
<path d="M6836 7015 c-15 -14 -30 -25 -34 -25 -9 -1 -43 -30 -60 -52 -28 -36
47 6 90 49 45 46 49 69 4 28z"/>
<path d="M6118 7019 c-10 -5 -18 -16 -18 -24 0 -8 -13 -28 -30 -46 -16 -18
-27 -36 -24 -41 3 -5 20 10 37 34 17 24 34 45 37 48 34 32 32 50 -2 29z"/>
<path d="M8994 6963 c-63 -153 -122 -267 -194 -379 -22 -33 -40 -64 -40 -68 0
-4 -8 -20 -18 -34 -11 -15 -29 -54 -42 -87 -13 -33 -30 -67 -37 -76 -15 -18
-18 -43 -4 -35 5 3 30 48 55 98 26 51 54 107 64 123 169 288 168 285 228 438
12 31 18 57 13 57 -6 0 -17 -17 -25 -37z"/>
<path d="M6605 6982 c-20 -15 -89 -92 -82 -92 7 0 97 88 97 95 0 7 -3 6 -15
-3z"/>
<path d="M7325 6895 c-22 -19 -37 -35 -32 -35 13 0 87 52 87 61 0 16 -14 9
-55 -26z"/>
<path d="M6295 6890 c-3 -5 1 -10 9 -10 9 0 16 5 16 10 0 6 -4 10 -9 10 -6 0
-13 -4 -16 -10z"/>
<path d="M7480 6880 c-53 -43 -64 -50 -76 -50 -7 0 -14 -7 -18 -15 -3 -8 -10
-15 -16 -15 -6 0 -18 -6 -26 -14 -7 -8 -19 -16 -26 -19 -7 -2 -10 -7 -7 -11 8
-9 120 63 182 116 36 31 25 38 -13 8z"/>
<path d="M7651 6879 c-13 -10 -28 -19 -35 -19 -6 0 -31 -18 -56 -40 -25 -22
-53 -43 -62 -46 -10 -3 -18 -9 -18 -14 0 -5 -18 -19 -40 -31 -22 -13 -40 -29
-40 -36 0 -11 4 -11 22 -2 27 15 206 146 238 176 30 28 23 38 -9 12z"/>
<path d="M5955 6870 c-10 -11 -13 -20 -8 -20 13 0 38 29 31 35 -3 3 -13 -4
-23 -15z"/>
<path d="M6016 6841 c-20 -61 -20 -80 -1 -87 14 -6 72 12 142 42 17 8 35 14
40 14 5 0 25 14 44 32 28 26 29 29 7 15 -15 -9 -33 -17 -41 -17 -7 0 -29 -9
-50 -19 -20 -10 -49 -22 -64 -25 -16 -4 -37 -9 -47 -13 -17 -5 -18 -1 -13 33
3 22 8 47 12 57 4 9 3 17 -3 17 -5 0 -17 -22 -26 -49z"/>
<path d="M6820 6865 c-8 -9 -8 -15 -2 -15 12 0 26 19 19 26 -2 2 -10 -2 -17
-11z"/>
<path d="M7020 6842 c-14 -9 -26 -20 -28 -24 -2 -5 -12 -8 -22 -8 -10 0 -22
-4 -25 -10 -3 -5 1 -10 10 -10 19 0 95 49 95 61 0 11 0 11 -30 -9z"/>
<path d="M7260 6851 c0 -5 -10 -13 -22 -17 -12 -3 -28 -13 -36 -20 -7 -8 -20
-14 -28 -14 -8 0 -14 -4 -14 -9 0 -5 -10 -13 -22 -17 -13 -3 -30 -12 -38 -19
-8 -6 -33 -19 -55 -27 -22 -9 -65 -28 -95 -42 -58 -27 -121 -43 -205 -53 -39
-4 -54 -1 -64 11 -12 14 -10 22 13 54 28 41 32 52 16 52 -5 0 -16 -12 -24 -27
-8 -16 -28 -43 -45 -62 -39 -44 -40 -63 -3 -60 62 5 92 -1 86 -16 -8 -21 10
-19 30 4 10 10 38 24 64 30 53 13 110 34 163 62 20 11 44 19 52 19 8 0 17 3
19 8 2 4 21 16 43 28 83 43 110 59 113 67 2 4 9 7 15 7 13 1 57 35 57 44 0 3
-4 6 -10 6 -5 0 -10 -4 -10 -9z"/>
<path d="M8055 6822 c-38 -19 -77 -39 -85 -44 -8 -4 -22 -11 -30 -14 -8 -3
-29 -12 -46 -20 -17 -8 -62 -16 -100 -19 -38 -3 -87 -8 -109 -10 l-40 -5 31
27 c17 16 50 45 75 65 27 23 38 38 28 38 -9 0 -32 -13 -50 -30 -19 -16 -58
-44 -87 -62 -29 -18 -65 -43 -80 -56 -15 -12 -56 -42 -92 -66 -36 -24 -78 -55
-95 -70 -16 -14 -37 -26 -47 -26 -9 0 -18 -4 -20 -8 -1 -4 -20 -18 -41 -31
-30 -19 -35 -26 -26 -37 14 -17 174 -20 184 -4 7 11 -5 13 -92 11 -38 -1 -63
2 -63 9 0 5 6 10 13 10 6 0 32 16 56 35 24 19 48 35 53 35 8 0 94 55 108 70 3
3 24 18 48 33 34 22 56 28 120 32 138 7 226 29 325 79 86 43 165 96 142 95 -5
0 -41 -17 -80 -37z"/>
<path d="M9004 6813 c-15 -26 -38 -65 -51 -86 -14 -22 -22 -41 -20 -43 8 -8
63 73 92 135 25 52 10 48 -21 -6z"/>
<path d="M5915 6830 c-3 -5 -1 -10 4 -10 6 0 11 5 11 10 0 6 -2 10 -4 10 -3 0
-8 -4 -11 -10z"/>
<path d="M6780 6830 c0 -5 4 -10 9 -10 6 0 13 5 16 10 3 6 -1 10 -9 10 -9 0
-16 -4 -16 -10z"/>
<path d="M6736 6785 c-9 -14 -13 -25 -8 -25 10 0 42 33 42 43 0 15 -19 5 -34
-18z"/>
<path d="M5860 6762 c-14 -20 -30 -40 -36 -44 -6 -4 -19 -25 -29 -48 -10 -22
-24 -40 -32 -40 -7 0 -13 -7 -13 -15 0 -8 -9 -32 -20 -52 -11 -21 -20 -43 -20
-50 0 -16 40 -16 95 -2 22 6 60 15 85 21 25 6 52 16 61 24 8 8 23 14 33 14 19
0 133 57 142 71 3 5 -25 -2 -63 -16 -121 -45 -147 -53 -207 -64 -33 -6 -64
-11 -69 -11 -24 0 33 133 88 204 19 25 29 46 22 46 -6 0 -23 -17 -37 -38z"/>
<path d="M6890 6766 c-14 -8 -40 -22 -58 -31 -34 -18 -50 -35 -33 -35 14 0
102 49 121 66 19 18 2 18 -30 0z"/>
<path d="M6495 6741 c-35 -21 -73 -61 -58 -61 11 0 103 68 103 75 0 9 -16 5
-45 -14z"/>
<path d="M8813 6748 c-4 -7 -34 -65 -66 -128 -33 -63 -67 -126 -76 -140 -33
-48 -104 -210 -96 -218 2 -2 0 -13 -6 -23 -11 -21 -25 -147 -16 -138 4 3 8 20
9 38 1 18 6 35 10 37 4 3 8 14 8 25 0 48 43 154 111 274 62 111 110 206 125
247 13 38 12 49 -3 26z"/>
<path d="M7270 6743 c-23 -9 -64 -43 -52 -43 12 0 82 39 82 46 0 5 -11 4 -30
-3z"/>
<path d="M7847 6674 c-15 -14 -53 -39 -83 -55 -31 -16 -76 -43 -101 -59 -24
-17 -49 -30 -55 -30 -6 0 -19 -6 -27 -13 -9 -8 -42 -22 -73 -31 -66 -20 -79
-42 -20 -33 55 8 189 73 236 115 11 10 36 28 55 38 40 22 121 94 106 94 -6 0
-23 -12 -38 -26z"/>
<path d="M7371 6676 c-7 -9 -19 -16 -25 -16 -6 0 -33 -16 -60 -35 -27 -19 -55
-35 -62 -35 -6 0 -14 -6 -17 -13 -2 -7 -39 -29 -81 -50 -41 -21 -78 -43 -81
-48 -4 -5 -15 -9 -26 -9 -10 0 -19 -4 -19 -10 0 -5 -6 -10 -12 -10 -11 0 -96
-40 -168 -79 -8 -4 -31 -15 -50 -24 -96 -44 -130 -57 -144 -57 -8 0 -17 -4
-20 -8 -3 -5 -39 -19 -81 -33 -41 -13 -75 -27 -75 -30 0 -4 -18 -10 -40 -14
-22 -4 -42 -11 -46 -16 -3 -5 -12 -9 -21 -9 -9 0 -60 -13 -112 -29 -162 -49
-249 -71 -281 -71 -17 0 -39 -4 -48 -9 -9 -4 -43 -11 -74 -14 -54 -5 -57 -4
-55 15 1 12 20 39 42 62 22 23 54 58 70 80 30 39 157 136 221 169 19 10 32 22
29 27 -10 16 -24 12 -47 -15 -12 -14 -30 -25 -39 -25 -10 0 -33 -14 -51 -30
-18 -17 -55 -46 -83 -65 -79 -53 -162 -152 -180 -215 -8 -27 -68 -86 -97 -96
-10 -3 -18 -9 -18 -14 0 -11 132 58 142 73 4 7 20 11 35 9 15 -1 102 14 193
33 212 46 230 50 260 63 14 5 48 17 75 25 110 35 344 120 384 141 14 8 94 46
176 86 83 40 152 76 155 80 3 4 16 11 30 15 14 4 32 13 40 20 8 6 42 27 75 45
33 18 62 36 65 40 5 6 29 20 90 52 34 18 52 36 48 49 -2 7 -9 5 -17 -5z"/>
<path d="M7125 6662 c-16 -10 -35 -22 -41 -28 -7 -6 -26 -17 -43 -24 -17 -7
-31 -16 -31 -21 0 -16 24 -8 70 22 25 16 60 36 78 44 17 8 32 17 32 20 0 10
-36 3 -65 -13z"/>
<path d="M5334 6581 c-91 -46 -154 -92 -107 -77 12 4 41 18 65 31 24 13 67 36
96 52 28 15 52 31 52 35 0 12 -9 9 -106 -41z"/>
<path d="M6488 6577 c-33 -21 -82 -59 -137 -108 -10 -8 -25 -18 -34 -22 -9 -3
-30 -25 -47 -49 -17 -24 -36 -50 -43 -58 -8 -9 -16 -23 -19 -31 -3 -8 -37 -30
-74 -48 -143 -68 -195 -96 -186 -99 4 -1 38 13 75 32 37 20 67 33 67 30 0 -5
143 66 150 75 7 9 110 32 119 26 9 -5 103 19 122 31 7 4 27 9 44 11 35 4 291
110 400 166 47 24 63 36 47 37 -12 0 -46 -13 -75 -29 -28 -16 -63 -32 -77 -36
-13 -4 -30 -14 -38 -21 -7 -8 -22 -14 -33 -14 -10 0 -19 -4 -19 -10 0 -5 -13
-10 -29 -10 -16 0 -36 -7 -45 -15 -8 -8 -21 -15 -29 -15 -8 0 -40 -9 -73 -21
-89 -32 -164 -48 -217 -49 -46 0 -48 1 -41 23 9 28 122 137 192 184 28 20 52
37 52 39 0 9 -17 2 -52 -19z"/>
<path d="M5451 6432 c-143 -146 -174 -182 -156 -182 7 0 49 40 190 178 57 56
126 135 133 154 11 26 -29 -9 -167 -150z"/>
<path d="M6675 6550 c4 -6 11 -8 16 -5 14 9 11 15 -7 15 -8 0 -12 -5 -9 -10z"/>
<path d="M6600 6515 c-25 -14 -53 -28 -62 -32 -17 -5 -25 -23 -11 -23 14 0
133 65 133 73 0 12 -13 8 -60 -18z"/>
<path d="M8596 6505 c-9 -13 -16 -29 -16 -35 0 -10 -29 -72 -69 -150 -39 -74
-67 -210 -62 -302 2 -38 17 -15 16 25 -1 85 49 241 130 408 19 40 35 74 35 76
0 12 -20 -1 -34 -22z"/>
<path d="M5242 6442 c-18 -15 -30 -30 -27 -34 7 -7 84 42 85 55 0 15 -26 6
-58 -21z"/>
<path d="M6210 6460 c0 -5 5 -10 10 -10 6 0 10 5 10 10 0 6 -4 10 -10 10 -5 0
-10 -4 -10 -10z"/>
<path d="M6168 6443 c-10 -2 -18 -9 -18 -14 0 -13 13 -11 36 6 19 14 14 17
-18 8z"/>
<path d="M7175 6436 c-38 -25 -127 -73 -185 -98 -19 -9 -79 -37 -132 -62 -53
-25 -100 -46 -104 -46 -13 0 -94 -41 -100 -51 -3 -5 -14 -9 -25 -9 -10 0 -51
-14 -91 -31 -40 -17 -86 -37 -103 -44 -16 -7 -57 -21 -90 -31 -40 -12 -53 -19
-38 -22 20 -3 66 9 133 36 14 5 45 18 70 27 25 10 59 24 76 31 158 68 207 89
254 106 30 11 62 27 71 34 8 8 20 14 25 14 11 0 123 57 190 97 28 17 61 34 72
38 24 7 30 25 9 25 -7 0 -21 -6 -32 -14z"/>
<path d="M8453 6355 c-7 -8 -13 -17 -13 -21 0 -3 -8 -18 -19 -32 -10 -15 -26
-49 -35 -75 -9 -27 -23 -62 -31 -78 -9 -16 -15 -30 -14 -31 1 -2 -3 -19 -8
-38 -13 -45 -17 -200 -5 -200 4 0 9 31 10 70 2 101 35 209 109 357 30 60 32
78 6 48z"/>
<path d="M5423 6232 c-22 -15 -54 -38 -70 -52 -15 -14 -45 -36 -66 -50 -20
-14 -37 -28 -37 -32 0 -5 -5 -8 -10 -8 -12 0 -62 -34 -95 -65 -32 -31 -78 -65
-87 -65 -8 0 -97 -59 -115 -76 -7 -7 -13 -17 -13 -23 0 -6 -8 -11 -18 -11 -21
0 -62 -32 -62 -48 0 -5 -11 -13 -25 -16 -14 -4 -25 -11 -25 -16 0 -6 -7 -10
-15 -10 -8 0 -15 -7 -15 -15 0 -8 -9 -15 -20 -15 -12 0 -25 -10 -32 -25 -6
-14 -17 -25 -23 -25 -13 0 -117 -79 -123 -93 -2 -4 -43 -38 -90 -75 -48 -37
-96 -75 -107 -85 -11 -11 -29 -23 -40 -27 -19 -8 -19 -8 -1 -15 10 -5 21 -4
25 1 8 12 88 74 95 74 3 0 14 8 25 18 10 9 47 39 82 66 35 27 69 56 76 64 7 8
23 20 35 27 13 6 22 17 21 23 -2 7 6 12 17 12 11 0 23 7 27 15 3 9 20 23 37
32 17 8 43 28 57 43 14 15 35 31 47 34 12 4 27 16 32 27 6 10 25 26 42 35 28
14 77 50 158 113 31 25 82 62 135 98 22 15 49 35 60 45 11 10 43 34 72 53 48
32 103 80 103 90 0 10 -16 3 -57 -23z"/>
<path d="M8320 6237 c0 -7 -11 -29 -25 -49 -14 -21 -24 -41 -23 -45 1 -4 -6
-33 -16 -63 -19 -57 -20 -64 -32 -144 -5 -35 -4 -47 4 -42 6 3 14 28 17 54 12
83 13 90 25 111 6 12 8 21 5 21 -3 0 0 10 7 23 7 12 13 24 13 27 8 37 28 90
35 95 13 8 13 25 0 25 -5 0 -10 -6 -10 -13z"/>
<path d="M7600 6191 c-17 -27 -30 -52 -28 -53 1 -2 -5 -14 -15 -28 -18 -25
-23 -55 -9 -46 13 8 94 167 88 173 -3 3 -19 -18 -36 -46z"/>
<path d="M7501 6145 c-38 -79 -117 -161 -192 -196 -30 -14 -70 -33 -89 -42
l-35 -17 35 6 c94 16 244 123 266 189 4 11 17 34 29 50 24 33 38 75 25 75 -5
0 -22 -29 -39 -65z"/>
<path d="M7080 6165 c-7 -8 -17 -15 -22 -15 -5 0 -21 -9 -36 -19 -15 -11 -52
-27 -82 -36 -30 -9 -62 -20 -71 -25 -8 -4 -50 -11 -93 -15 -86 -8 -104 -31
-20 -27 89 5 247 61 307 109 16 13 33 23 38 23 5 0 9 5 9 10 0 15 -16 12 -30
-5z"/>
<path d="M7401 6147 c-40 -65 -193 -187 -233 -187 -10 0 -18 -4 -18 -9 0 -5
-12 -11 -27 -14 -16 -3 -46 -13 -68 -23 l-40 -17 29 -8 c20 -6 33 -4 40 4 6 7
36 24 66 37 111 49 184 104 244 183 16 20 35 37 42 37 18 0 18 16 0 23 -10 4
-22 -6 -35 -26z"/>
<path d="M7666 6155 c-18 -27 -20 -35 -8 -35 4 0 15 14 24 30 20 36 7 40 -16
5z"/>
<path d="M7165 6139 c-16 -16 -45 -36 -62 -44 -18 -9 -33 -20 -33 -24 0 -5 -9
-11 -20 -14 -11 -3 -20 -11 -20 -17 0 -8 9 -6 28 6 15 9 45 29 67 43 51 33 85
62 85 73 0 15 -14 7 -45 -23z"/>
<path d="M8178 6120 c-38 -82 -85 -310 -59 -284 6 5 15 41 20 80 9 68 39 173
61 214 6 12 9 26 7 33 -2 7 -15 -13 -29 -43z"/>
<path d="M6860 6146 c-44 -14 -76 -33 -69 -40 8 -8 73 14 100 35 27 21 20 22
-31 5z"/>
<path d="M5661 6088 c-47 -38 -62 -58 -43 -58 4 0 23 14 42 31 19 17 46 39 60
50 18 13 21 18 9 19 -9 0 -39 -19 -68 -42z"/>
<path d="M7227 6090 c-25 -22 -50 -40 -56 -40 -6 0 -20 -9 -31 -20 -34 -34 2
-23 56 17 43 32 93 83 81 83 -2 0 -25 -18 -50 -40z"/>
<path d="M7789 6118 c0 -2 -2 -10 -4 -18 -2 -8 -6 -24 -10 -35 -6 -17 -4 -17
14 4 12 13 21 27 21 32 0 7 -19 24 -21 17z"/>
<path d="M6715 6100 c-3 -5 1 -10 9 -10 9 0 16 5 16 10 0 6 -4 10 -9 10 -6 0
-13 -4 -16 -10z"/>
<path d="M7629 6087 c-35 -49 -95 -222 -79 -232 4 -3 11 7 14 23 4 15 25 69
47 120 40 92 48 129 18 89z"/>
<path d="M8080 6081 c-12 -24 -13 -31 -2 -31 5 0 14 11 20 25 14 29 -2 34 -18
6z"/>
<path d="M7511 6018 c-15 -35 -22 -98 -12 -98 3 0 16 29 28 65 15 45 18 65 9
65 -6 0 -18 -15 -25 -32z"/>
<path d="M7686 6034 c-9 -22 3 -32 14 -14 12 19 12 30 1 30 -5 0 -12 -7 -15
-16z"/>
<path d="M7840 6043 c0 -5 -7 -29 -15 -55 -8 -27 -10 -48 -6 -48 4 0 13 18 20
41 7 23 15 47 18 55 3 8 0 14 -6 14 -6 0 -11 -3 -11 -7z"/>
<path d="M7996 6042 c-3 -5 -7 -19 -10 -33 -2 -13 -8 -33 -12 -44 -6 -18 -5
-18 8 -5 20 20 39 78 28 85 -5 3 -11 2 -14 -3z"/>
<path d="M7907 6008 c-22 -46 -23 -53 -13 -56 5 -2 17 17 27 42 20 53 9 62
-14 14z"/>
<path d="M5582 6023 c-6 -3 -10 -9 -6 -14 3 -5 -2 -12 -10 -15 -19 -7 -21 -24
-3 -24 8 0 20 11 27 25 14 27 12 35 -8 28z"/>
<path d="M6185 6023 c-42 -6 -61 -24 -40 -35 17 -10 81 8 105 29 12 11 11 13
-10 12 -14 -1 -38 -4 -55 -6z"/>
<path d="M6355 6021 c-10 -17 12 -21 25 -6 10 12 10 15 -3 15 -9 0 -18 -4 -22
-9z"/>
<path d="M6438 6002 c-13 -16 -54 -46 -92 -67 -79 -44 -81 -59 -2 -22 76 36
164 117 127 117 -5 0 -20 -13 -33 -28z"/>
<path d="M6960 6018 c-19 -5 -54 -13 -78 -17 -23 -4 -45 -11 -49 -14 -12 -12
61 -7 110 8 87 26 102 47 17 23z"/>
<path d="M7750 6005 c0 -8 5 -15 10 -15 6 0 10 7 10 15 0 8 -4 15 -10 15 -5 0
-10 -7 -10 -15z"/>
<path d="M6626 5945 c-36 -39 -71 -67 -88 -70 -39 -9 -49 -29 -12 -23 l29 4
-22 -44 c-12 -24 -27 -50 -33 -57 -7 -9 -7 -15 -1 -19 12 -8 17 -1 72 104 13
25 33 53 46 63 25 20 86 107 75 107 -4 0 -34 -29 -66 -65z"/>
<path d="M5432 5970 c-18 -16 -37 -30 -41 -30 -4 0 -17 -8 -29 -17 -11 -10
-30 -25 -43 -33 -69 -47 -239 -201 -233 -212 3 -4 0 -8 -6 -8 -6 0 -33 -22
-61 -50 -27 -27 -55 -50 -61 -50 -5 0 -8 -7 -4 -15 3 -8 1 -15 -5 -15 -6 0
-16 -6 -23 -12 -8 -7 -24 -20 -36 -28 -60 -40 -78 -80 -35 -80 38 0 125 21
125 30 0 4 28 11 62 15 56 7 145 41 134 52 -2 2 -26 0 -52 -6 -27 -6 -82 -17
-122 -26 -41 -8 -78 -18 -84 -21 -6 -4 -5 2 1 15 7 11 16 21 21 21 6 0 10 5
10 12 0 12 59 68 72 68 4 0 8 7 8 15 0 8 4 15 8 15 4 0 39 30 77 66 38 37 80
73 92 81 13 9 23 20 23 27 0 6 12 17 28 24 15 6 48 31 73 55 25 24 61 53 80
64 19 12 45 33 58 47 35 37 4 34 -37 -4z"/>
<path d="M6065 5993 c-16 -2 -46 -10 -65 -18 -120 -48 -438 -94 -490 -71 -18
8 -25 6 -36 -9 -22 -30 -18 -48 9 -41 12 3 65 11 117 17 134 15 391 64 444 85
42 16 3 -17 -42 -36 -26 -12 -56 -26 -67 -32 -11 -6 -49 -27 -85 -46 -36 -19
-76 -41 -90 -48 -14 -8 -31 -14 -37 -14 -7 0 -13 -3 -13 -8 0 -4 -24 -16 -52
-26 -29 -10 -74 -31 -101 -47 -26 -16 -50 -29 -53 -29 -7 0 -45 -17 -151 -66
-39 -19 -76 -34 -82 -34 -6 0 -11 -7 -11 -16 0 -8 -5 -12 -11 -9 -14 9 -59 -3
-59 -15 0 -6 11 -10 24 -10 14 0 28 -5 31 -10 7 -11 89 30 110 54 9 10 49 31
105 53 60 25 283 138 330 168 8 5 23 11 33 12 22 4 76 30 97 48 8 7 40 25 70
41 106 53 142 77 130 84 -6 4 -11 11 -10 16 2 11 -7 12 -45 7z m25 -27 c0 -3
-4 -8 -10 -11 -5 -3 -10 -1 -10 4 0 6 5 11 10 11 6 0 10 -2 10 -4z"/>
<path d="M6280 5972 c-48 -30 -145 -62 -198 -65 -18 -2 -36 -8 -40 -14 -9 -13
-83 -53 -99 -53 -7 0 -13 -3 -13 -8 0 -4 -20 -18 -45 -32 -25 -14 -45 -28 -45
-32 0 -3 -10 -10 -22 -14 -13 -4 -49 -26 -81 -50 -31 -24 -60 -44 -63 -44 -2
0 -10 -5 -17 -10 -36 -30 -231 -177 -248 -186 -10 -6 -27 -18 -37 -27 -10 -10
-22 -17 -27 -17 -4 0 -24 -15 -45 -32 -20 -18 -52 -44 -70 -58 -18 -14 -40
-33 -49 -42 -8 -10 -19 -18 -24 -18 -4 0 -13 -5 -20 -10 -7 -6 -24 -20 -40
-31 -15 -11 -25 -25 -22 -30 4 -5 -2 -9 -12 -9 -24 -1 -66 -37 -58 -50 9 -15
22 -12 48 13 14 12 70 56 126 97 55 41 101 81 101 88 0 6 8 12 18 12 17 0 102
64 110 82 2 5 10 8 18 8 14 0 31 13 105 78 20 17 39 32 43 32 4 0 40 24 80 54
40 30 86 61 102 70 38 21 158 106 164 116 3 4 21 15 40 24 19 9 62 32 95 50
33 19 66 35 73 35 8 1 37 8 66 16 54 16 173 84 146 85 -8 0 -35 -13 -60 -28z"/>
<path d="M6529 5967 c-45 -40 -130 -83 -177 -89 -29 -4 -24 -23 6 -23 15 1 22
-5 22 -17 0 -30 30 -20 45 15 8 19 28 40 51 52 63 33 127 96 97 95 -5 0 -24
-15 -44 -33z"/>
<path d="M7058 5993 c-10 -2 -18 -8 -18 -13 0 -4 -11 -11 -25 -14 -14 -4 -25
-11 -25 -16 0 -14 5 -13 60 15 62 32 65 43 8 28z"/>
<path d="M6787 5908 c-4 -46 -8 -99 -11 -118 -3 -19 -7 -58 -9 -86 -3 -29 -7
-56 -10 -60 -3 -5 -8 -27 -11 -49 -10 -63 -59 -100 -146 -112 -25 -3 -50 -10
-56 -15 -6 -4 -53 -11 -103 -14 -102 -7 -104 -4 -55 62 13 16 31 46 39 65 27
57 48 93 62 107 18 19 17 38 -2 22 -16 -13 -66 -93 -106 -170 -39 -74 -77
-110 -116 -110 -18 0 -33 2 -33 4 0 2 27 57 59 123 32 66 69 144 82 174 13 30
28 57 33 61 6 4 7 10 3 15 -14 14 -39 -12 -53 -55 -22 -63 -159 -322 -171
-322 -3 0 -19 6 -36 13 -97 42 -137 49 -240 45 -95 -4 -106 -6 -157 -38 -89
-55 -132 -111 -72 -95 15 4 43 11 62 15 28 5 31 9 17 15 -9 4 -26 5 -38 2 -13
-3 -19 -1 -17 6 7 22 95 58 173 72 68 12 84 11 149 -5 72 -17 136 -44 147 -63
4 -6 15 -7 25 -2 11 5 26 9 34 10 8 1 47 8 87 14 40 7 85 12 100 10 31 -2 140
9 163 18 8 3 28 7 44 9 16 2 34 8 40 12 6 5 23 13 37 19 25 11 26 10 24 -22
-1 -18 -5 -37 -9 -43 -3 -6 -2 -13 3 -17 16 -9 30 28 36 91 3 33 12 95 20 139
20 119 35 219 41 291 5 53 3 64 -9 64 -12 0 -16 -18 -20 -82z"/>
<path d="M8450 5980 c0 -5 5 -10 11 -10 5 0 7 5 4 10 -3 6 -8 10 -11 10 -2 0
-4 -4 -4 -10z"/>
<path d="M7736 5965 c-3 -8 -1 -15 4 -15 6 0 10 7 10 15 0 8 -2 15 -4 15 -2 0
-6 -7 -10 -15z"/>
<path d="M8050 5970 c0 -5 5 -10 10 -10 6 0 10 5 10 10 0 6 -4 10 -10 10 -5 0
-10 -4 -10 -10z"/>
<path d="M7657 5955 c-4 -8 -2 -17 3 -20 6 -4 10 -4 10 -1 0 2 3 11 6 20 3 9
2 16 -4 16 -5 0 -12 -7 -15 -15z"/>
<path d="M5513 5941 c-7 -10 -9 -22 -6 -25 7 -7 43 23 43 36 0 15 -25 8 -37
-11z"/>
<path d="M7456 5951 c-3 -4 -43 -27 -90 -50 -46 -23 -88 -47 -94 -54 -7 -8 -5
-28 9 -67 19 -53 31 -109 31 -140 0 -8 -1 -24 -1 -35 -2 -52 7 -135 15 -138 5
-1 10 43 11 98 4 129 4 129 48 111 19 -8 37 -11 40 -6 3 5 -10 14 -29 21 -69
25 -143 159 -88 159 10 0 24 -6 31 -12 11 -11 13 -10 8 4 -5 13 7 25 47 47 54
31 98 71 78 71 -6 0 -13 -4 -16 -9z"/>
<path d="M6932 5923 c-5 -10 -13 -45 -17 -77 -4 -33 -11 -71 -16 -84 -5 -13
-10 -42 -11 -63 -1 -22 -5 -42 -9 -44 -4 -3 -10 -38 -14 -77 -3 -40 -15 -109
-25 -153 -10 -44 -20 -100 -21 -125 -1 -25 -6 -49 -9 -55 -15 -22 -29 -75 -19
-75 5 0 9 -4 9 -10 0 -5 -6 -10 -14 -10 -8 0 -22 -22 -32 -52 -9 -29 -25 -64
-34 -78 -10 -14 -24 -41 -32 -60 -18 -42 -137 -162 -187 -187 -20 -10 -42 -24
-49 -30 -34 -32 -41 -9 -12 39 11 18 20 46 20 62 0 23 12 41 50 77 28 26 50
50 50 53 0 12 -17 6 -40 -14 -13 -11 -26 -20 -30 -20 -4 0 -42 -34 -84 -75
-42 -41 -84 -75 -91 -75 -8 0 -15 -4 -15 -9 0 -5 -61 -7 -135 -6 l-134 3 -45
42 c-53 50 -66 82 -31 77 12 -1 29 -7 36 -13 37 -28 77 -36 141 -26 34 5 69 7
76 5 7 -3 32 0 55 6 42 12 70 38 280 248 72 73 92 117 81 178 -13 69 -26 73
-150 45 -37 -9 -79 -10 -145 -3 -93 9 -159 2 -159 -17 0 -13 22 -13 55 0 26
10 27 9 20 -17 -3 -16 -11 -29 -16 -31 -5 -2 -9 -10 -9 -18 0 -26 18 -14 37
24 15 32 22 37 48 35 57 -5 121 -4 202 0 l81 5 6 -33 c9 -44 -4 -71 -59 -130
-26 -27 -56 -63 -68 -80 -28 -38 -46 -56 -80 -78 -15 -9 -27 -24 -27 -32 0 -8
-7 -15 -15 -15 -8 0 -15 -4 -15 -9 0 -23 -61 -46 -147 -56 -103 -12 -135 -7
-162 26 -15 19 -22 21 -33 12 -11 -10 -20 -8 -43 7 -52 34 -50 64 4 95 11 6
13 4 8 -8 -7 -19 11 -77 24 -77 13 0 11 24 -3 38 -9 9 -9 12 3 12 9 0 25 -11
37 -25 26 -30 55 -24 46 10 -4 15 0 26 9 32 8 4 19 18 26 31 21 39 -11 25 -41
-18 l-27 -40 -27 25 c-16 15 -27 37 -29 57 -3 42 -21 47 -30 9 -4 -18 -15 -33
-27 -37 -12 -3 -31 -15 -42 -26 -34 -32 -92 -55 -139 -56 -24 -1 -63 -6 -87
-11 -91 -20 -132 33 -107 139 3 14 6 32 7 40 0 11 4 9 13 -5 42 -71 90 -95
145 -72 37 15 32 29 -8 21 -56 -12 -117 41 -122 106 -2 22 -7 40 -13 40 -5 0
-10 -3 -11 -7 0 -5 -6 -21 -13 -38 -48 -122 -47 -185 3 -227 26 -21 13 -37
-35 -43 -68 -9 -129 38 -183 140 l-15 30 -1 -30 c-1 -16 -3 -38 -5 -49 -5 -26
30 -134 51 -157 9 -10 24 -19 32 -19 13 0 13 3 -1 18 -18 19 -52 110 -45 117
2 3 18 -9 36 -24 31 -29 98 -58 117 -52 6 2 19 5 31 6 12 2 34 10 50 18 23 12
153 37 191 37 4 0 -14 -18 -38 -40 -63 -57 -63 -57 -90 -65 -13 -4 -26 -11
-29 -16 -9 -13 -168 -21 -175 -9 -11 17 -28 11 -22 -9 6 -24 -80 -64 -121 -55
-52 11 -109 43 -136 74 -30 36 -33 24 -9 -38 23 -60 78 -120 122 -132 47 -13
152 -13 188 1 15 6 66 13 113 16 69 5 90 10 113 29 16 13 36 24 45 24 41 0 95
24 154 67 36 27 57 48 50 51 -8 2 -22 -4 -32 -14 -41 -41 -96 -69 -151 -78
-20 -4 -59 -18 -87 -31 -38 -18 -68 -25 -112 -25 -33 0 -77 -7 -97 -15 -87
-37 -212 -6 -236 58 -7 19 5 22 33 7 44 -23 90 -20 146 11 43 23 72 30 126 33
39 3 75 9 81 15 6 6 17 11 25 11 14 0 101 62 190 137 38 32 54 29 74 -15 31
-66 59 -106 96 -140 29 -26 43 -31 65 -26 15 3 62 2 104 -1 l76 -8 -35 -17
c-19 -9 -72 -20 -118 -23 -118 -9 -125 -22 -19 -37 128 -19 190 -13 369 36 14
4 37 15 52 26 14 10 31 18 36 18 19 0 119 88 133 118 8 16 19 29 24 29 6 0 15
10 21 22 6 11 18 29 27 39 10 10 17 25 17 33 0 8 15 44 34 79 39 73 62 141 64
185 1 17 6 50 11 75 11 51 31 170 35 215 2 17 7 48 12 70 4 22 7 43 6 46 -1 6
48 206 63 257 9 27 -19 32 -33 5z m-497 -1094 c-18 -55 -48 -89 -108 -119 -54
-27 -71 -31 -127 -28 -69 3 -68 5 24 34 32 10 60 24 63 31 3 7 14 15 25 19 28
8 91 53 101 70 13 22 29 17 22 -7z"/>
<path d="M7800 5915 c0 -8 5 -15 10 -15 6 0 10 7 10 15 0 8 -4 15 -10 15 -5 0
-10 -7 -10 -15z"/>
<path d="M7872 5909 c-5 -13 -12 -44 -16 -69 -10 -65 10 -38 22 30 11 59 8 77
-6 39z"/>
<path d="M7955 5900 c-4 -17 -5 -34 -2 -36 3 -3 8 9 12 26 4 17 5 34 2 36 -3
3 -8 -9 -12 -26z"/>
<path d="M7640 5902 c0 -6 -5 -23 -12 -39 -15 -37 -22 -86 -10 -79 11 7 36
116 28 123 -3 4 -6 1 -6 -5z"/>
<path d="M6228 5873 c7 -3 16 -2 19 1 4 3 -2 6 -13 5 -11 0 -14 -3 -6 -6z"/>
<path d="M7706 5872 c-2 -4 -1 -14 5 -22 7 -12 9 -10 9 8 0 23 -5 28 -14 14z"/>
<path d="M8320 5850 c0 -5 5 -10 10 -10 6 0 10 5 10 10 0 6 -4 10 -10 10 -5 0
-10 -4 -10 -10z"/>
<path d="M7775 5818 c-11 -38 -11 -78 2 -78 9 0 13 14 13 45 0 44 -6 58 -15
33z"/>
<path d="M7935 5820 c-3 -5 -1 -18 4 -27 9 -16 10 -14 11 10 0 28 -5 34 -15
17z"/>
<path d="M7690 5810 c0 -5 5 -10 10 -10 6 0 10 5 10 10 0 6 -4 10 -10 10 -5 0
-10 -4 -10 -10z"/>
<path d="M8216 5811 c-4 -7 -5 -15 -2 -18 9 -9 19 4 14 18 -4 11 -6 11 -12 0z"/>
<path d="M7360 5804 c0 -9 32 -33 44 -34 5 0 1 9 -9 20 -18 20 -35 26 -35 14z"/>
<path d="M8111 5790 c-5 -50 -2 -123 6 -131 7 -7 7 71 -1 131 l-3 25 -2 -25z"/>
<path d="M7687 5783 c-11 -10 -8 -103 3 -103 6 0 10 25 10 55 0 56 -1 60 -13
48z"/>
<path d="M7505 5768 c-8 -28 -12 -238 -4 -238 5 0 10 15 11 33 1 17 3 46 5 62
9 91 9 155 1 155 -5 0 -10 -6 -13 -12z"/>
<path d="M7849 5778 c0 -2 -3 -27 -6 -55 -3 -34 -1 -53 6 -53 6 0 11 15 11 33
0 17 3 42 6 55 4 13 2 22 -5 22 -6 0 -11 -1 -12 -2z"/>
<path d="M7928 5709 c-1 -34 3 -80 10 -103 9 -30 10 -75 5 -171 -14 -226 -7
-685 13 -845 2 -25 6 -59 8 -76 5 -44 30 -90 46 -86 7 2 16 -1 19 -6 11 -17
194 -132 220 -138 14 -4 40 -16 56 -28 37 -27 114 -57 320 -123 103 -33 239
-92 231 -101 -2 -2 -28 2 -57 8 -30 7 -102 15 -160 20 -94 6 -183 28 -214 51
-5 4 -37 16 -70 28 -33 11 -98 34 -144 50 -46 17 -97 31 -113 31 -16 0 -39 5
-50 11 -27 15 -40 -5 -26 -40 5 -14 16 -51 24 -81 39 -149 103 -267 228 -414
45 -53 42 -49 118 -121 29 -28 65 -69 80 -90 29 -44 58 -132 58 -177 0 -32
-14 -37 -29 -11 -16 29 -20 10 -6 -24 9 -22 21 -33 35 -33 11 0 20 4 20 10 0
5 -7 7 -15 4 -8 -4 -15 -1 -15 5 0 6 7 11 16 11 13 0 15 9 9 57 -3 31 -11 65
-16 74 -5 10 -9 25 -9 34 0 8 -12 34 -27 57 -16 22 -33 49 -39 59 -6 11 -49
58 -95 107 -46 48 -104 112 -129 142 -25 30 -48 57 -51 60 -14 11 -69 130 -93
202 -29 84 -32 117 -13 119 40 4 86 0 110 -10 16 -6 33 -11 38 -11 5 0 9 -4 9
-9 0 -5 19 -12 43 -16 23 -4 51 -14 62 -21 11 -8 29 -14 40 -14 11 0 42 -12
69 -26 40 -21 66 -27 145 -30 180 -9 327 -47 383 -101 15 -15 31 -24 34 -20
17 16 -99 132 -143 143 -13 4 -23 10 -23 15 0 5 -9 9 -19 9 -11 0 -26 6 -33
13 -23 22 -103 51 -253 92 -68 19 -90 28 -231 96 -56 27 -105 49 -109 49 -4 0
-24 14 -44 30 -51 43 -51 43 -104 74 -41 24 -47 32 -47 61 0 19 -4 36 -9 39
-13 9 -22 127 -11 142 22 26 239 0 287 -35 36 -26 29 -40 -14 -30 -66 15 -145
10 -183 -12 -34 -20 -34 -20 -5 -12 17 4 77 7 134 6 91 -2 112 -6 158 -29 29
-15 56 -24 60 -21 8 9 -82 93 -121 114 -62 33 -115 45 -211 49 -54 2 -102 7
-106 12 -26 25 -28 732 -2 798 3 8 1 20 -5 27 -14 17 -30 111 -28 169 2 70
-12 59 -16 -13z"/>
<path d="M8222 5750 c0 -14 2 -19 5 -12 2 6 2 18 0 25 -3 6 -5 1 -5 -13z"/>
<path d="M8010 5720 c0 -11 2 -20 4 -20 2 0 6 9 9 20 3 11 1 20 -4 20 -5 0 -9
-9 -9 -20z"/>
<path d="M7765 5711 c3 -5 1 -12 -4 -16 -6 -3 -8 -11 -6 -18 2 -7 6 -32 9 -55
4 -44 15 -68 17 -41 1 8 1 18 -1 24 -1 5 -1 33 -1 62 0 29 -5 53 -10 53 -6 0
-8 -4 -4 -9z"/>
<path d="M8220 5710 c0 -5 5 -10 10 -10 6 0 10 5 10 10 0 6 -4 10 -10 10 -5 0
-10 -4 -10 -10z"/>
<path d="M7680 5659 c0 -33 35 -110 57 -124 27 -18 47 -11 23 8 -8 7 -20 23
-26 37 -6 14 -17 40 -25 58 -14 31 -29 43 -29 21z"/>
<path d="M7846 5623 c6 -54 34 -133 46 -133 6 0 7 8 3 18 -4 9 -12 47 -18 85
-7 42 -15 67 -23 67 -9 0 -12 -11 -8 -37z"/>
<path d="M8015 5651 c-3 -5 -1 -12 5 -16 5 -3 10 1 10 9 0 18 -6 21 -15 7z"/>
<path d="M7630 5593 c0 -23 48 -154 67 -182 16 -25 19 -38 12 -47 -7 -9 -6
-15 4 -21 23 -13 45 -65 53 -122 4 -31 11 -50 18 -48 17 6 9 85 -14 129 -25
48 -25 51 0 43 27 -9 25 -1 -10 35 -16 17 -30 36 -30 42 0 13 61 2 71 -13 4
-6 13 -9 20 -7 8 3 -8 17 -36 34 -59 34 -99 75 -123 126 -15 33 -32 50 -32 31z"/>
<path d="M7488 5514 c-8 -7 2 -44 12 -44 4 0 8 11 8 25 0 24 -8 31 -20 19z"/>
<path d="M5202 5498 c-18 -18 -15 -28 8 -28 13 0 20 7 20 20 0 23 -10 26 -28
8z"/>
<path d="M5140 5440 c-13 -11 -28 -20 -33 -20 -6 0 -7 -3 -4 -6 4 -4 -8 -14
-26 -23 -17 -9 -36 -26 -42 -38 -6 -14 -18 -23 -33 -23 -12 0 -25 -7 -28 -15
-4 -8 -14 -15 -23 -15 -9 0 -25 -13 -34 -30 -10 -16 -23 -30 -28 -30 -10 0
-22 -9 -56 -40 -11 -10 -12 -15 -4 -18 7 -2 25 7 39 20 15 13 47 37 71 54 25
16 56 39 69 52 14 12 29 22 33 22 4 0 19 10 32 23 14 12 43 37 66 56 39 33 51
51 33 51 -5 0 -19 -9 -32 -20z"/>
<path d="M7480 5422 c0 -20 -4 -52 -9 -69 -6 -20 -6 -35 0 -38 5 -4 4 -15 -2
-27 -12 -22 -16 -264 -6 -348 3 -25 9 -70 12 -100 4 -30 11 -59 15 -65 4 -5
22 -50 39 -99 31 -88 31 -88 9 -81 -13 4 -38 9 -56 12 -32 5 -40 13 -46 45 -2
7 -11 30 -20 51 -11 25 -16 58 -14 95 2 33 -1 58 -7 59 -13 1 -55 -131 -43
-135 5 -2 5 -9 0 -15 -5 -7 -14 -38 -21 -69 l-12 -58 -57 -17 -57 -18 53 -3
c56 -3 58 -6 42 -62 -6 -19 -13 -64 -16 -100 -2 -36 -7 -76 -10 -90 -3 -14 -8
-52 -10 -85 -8 -125 -13 -152 -34 -210 -27 -73 -41 -89 -105 -126 -63 -36 -91
-38 -47 -3 72 57 110 155 90 229 -18 66 -19 101 -3 191 10 51 15 100 12 108
-3 8 -1 43 4 78 6 34 13 81 15 103 3 22 9 56 14 75 6 19 10 52 10 73 0 36 -1
38 -32 36 -39 -3 -116 10 -139 22 -9 4 -29 10 -45 13 -16 3 -30 10 -32 16 -2
5 -11 10 -21 10 -9 0 -26 7 -37 15 -30 23 -51 19 -29 -5 10 -11 26 -20 35 -20
10 0 28 -8 41 -19 13 -10 35 -21 49 -24 14 -3 44 -11 68 -16 24 -6 57 -13 75
-14 32 -3 32 -3 33 -57 1 -30 -1 -59 -5 -65 -3 -5 -6 -13 -7 -17 -1 -5 -2 -9
-3 -10 -4 -6 -11 -66 -15 -146 -3 -45 -7 -86 -10 -90 -17 -27 -22 -236 -8
-274 28 -69 -41 -181 -142 -230 -22 -11 -49 -24 -58 -29 -10 -5 -26 -9 -37 -9
-26 0 -75 -19 -68 -26 3 -3 41 0 84 6 43 7 87 13 98 15 81 11 235 111 235 153
0 10 7 30 15 46 8 15 15 39 15 52 0 12 4 26 10 29 5 3 7 26 5 51 -5 48 18 266
34 322 11 37 11 37 11 57 0 20 43 29 69 15 12 -6 21 -19 21 -28 0 -10 11 -34
25 -54 14 -20 25 -41 25 -46 0 -5 9 -16 20 -23 12 -9 21 -29 24 -54 5 -40 22
-83 75 -180 23 -44 26 -61 25 -140 -1 -112 -11 -168 -35 -194 -20 -21 -25 -41
-11 -41 12 0 53 50 48 58 -6 11 20 31 30 24 6 -4 11 -29 12 -56 1 -27 11 -78
22 -112 18 -53 20 -71 11 -116 -19 -104 -48 -149 -136 -212 -11 -8 -17 -17
-14 -20 8 -8 93 30 108 48 7 8 18 13 25 10 6 -2 32 15 56 38 70 67 80 112 73
335 -4 146 -2 199 12 275 21 115 29 131 43 90 6 -17 9 -32 6 -34 -8 -8 42
-122 55 -126 11 -4 10 2 -2 24 -20 35 -38 104 -31 116 3 4 0 8 -5 8 -6 0 -11
14 -11 30 0 18 -6 33 -15 36 -12 5 -13 21 -9 82 4 55 2 74 -5 66 -6 -5 -13
-30 -16 -55 -8 -88 -23 -167 -36 -190 -10 -18 -14 -87 -15 -269 -2 -294 -2
-296 -52 -372 -28 -43 -58 -52 -46 -15 3 12 10 27 14 32 16 21 31 114 26 161
-2 27 -12 76 -21 109 -10 38 -15 95 -14 155 1 52 1 105 0 118 -2 35 -21 16
-22 -21 0 -18 -4 -41 -8 -52 -5 -12 -10 15 -14 74 -5 81 -11 103 -46 174 -22
45 -47 110 -55 145 -9 35 -27 78 -40 95 -21 28 -40 77 -31 77 21 0 57 -31 85
-72 19 -28 46 -58 60 -67 14 -8 29 -21 33 -28 4 -7 14 -13 22 -13 8 0 17 -11
21 -24 7 -29 0 -124 -14 -184 -5 -23 -6 -45 -2 -47 13 -8 40 127 40 194 0 36
4 61 11 61 19 0 0 18 -26 24 -29 7 -93 68 -120 113 -19 33 -73 73 -98 73 -8 0
-19 5 -22 10 -3 6 -21 10 -38 10 -41 0 -66 14 -42 24 36 14 110 6 145 -16 85
-52 207 -108 238 -108 17 0 32 -4 32 -10 0 -5 7 -10 15 -10 12 0 15 15 15 74
0 89 -9 101 -79 110 -28 4 -53 11 -56 16 -3 4 -34 12 -69 15 l-64 7 -16 50
c-29 90 -28 92 62 59 43 -16 104 -32 135 -36 57 -7 57 -7 57 -41 0 -19 5 -34
10 -34 8 0 9 32 5 98 -5 88 -15 334 -15 390 0 13 -6 22 -16 22 -12 0 -14 -7
-9 -32 9 -39 18 -235 16 -345 -1 -36 -4 -43 -20 -43 -25 0 -203 59 -215 71 -6
5 -17 9 -27 9 -13 0 -18 17 -28 88 -15 118 -16 148 -7 365 6 134 5 187 -3 187
-6 0 -11 -17 -11 -38z m-73 -769 c13 -42 3 -63 -28 -63 -14 0 -19 7 -19 28 1
75 28 95 47 35z m304 -57 c31 -9 63 -16 72 -16 10 0 17 -8 18 -17 1 -10 3 -37
5 -60 4 -41 3 -41 -24 -33 -15 5 -43 15 -62 23 -19 8 -49 19 -67 26 -20 8 -38
25 -48 47 -22 47 -15 65 22 54 15 -5 53 -16 84 -24z"/>
<path d="M7319 5439 c0 -2 -3 -65 -5 -139 -2 -74 -6 -155 -8 -180 -3 -25 -5
-66 -5 -92 -1 -45 -3 -47 -53 -79 -46 -28 -64 -33 -135 -37 -57 -3 -97 0 -130
11 -85 27 -109 29 -126 13 -9 -9 -21 -16 -28 -16 -17 0 -158 -88 -188 -117
-28 -27 -24 -28 84 -8 79 14 142 32 134 39 -7 7 -133 -14 -152 -25 -39 -22
-26 0 20 33 110 80 134 85 273 53 88 -20 212 -4 273 37 22 14 38 34 43 53 12
49 20 442 10 452 -3 4 -6 4 -7 2z"/>
<path d="M4727 5373 c-38 -29 -55 -49 -49 -55 11 -11 62 17 62 33 0 5 11 14
25 19 14 5 25 14 25 20 0 5 7 10 15 10 8 0 15 5 15 10 0 22 -38 7 -93 -37z"/>
<path d="M5808 5393 c-48 -7 -31 -20 34 -26 76 -7 108 -29 128 -89 14 -43 16
-45 40 -35 20 8 22 11 8 14 -10 3 -18 12 -18 21 0 35 -25 83 -47 88 -12 3 -27
12 -34 20 -11 13 -51 16 -111 7z"/>
<path d="M6102 5369 c-18 -12 -31 -24 -28 -26 6 -6 63 24 71 37 10 16 -7 11
-43 -11z"/>
<path d="M6710 5367 c0 -48 -91 -287 -124 -327 -20 -24 -27 -50 -13 -50 11 0
22 20 100 190 45 98 70 210 47 210 -5 0 -10 -10 -10 -23z"/>
<path d="M4246 5336 c-53 -47 -28 -55 34 -10 27 20 50 38 50 40 0 2 -10 4 -23
4 -13 0 -40 -15 -61 -34z"/>
<path d="M4650 5290 c0 -5 7 -10 15 -10 8 0 15 5 15 10 0 6 -7 10 -15 10 -8 0
-15 -4 -15 -10z"/>
<path d="M6090 5291 c0 -5 -12 -12 -27 -16 -16 -4 -23 -9 -17 -12 6 -2 31 5
55 16 40 18 41 20 17 20 -16 1 -28 -3 -28 -8z"/>
<path d="M6543 5285 c-9 -25 4 -29 17 -6 7 15 7 21 0 21 -6 0 -13 -7 -17 -15z"/>
<path d="M4190 5280 c0 -5 -7 -10 -15 -10 -8 0 -15 -7 -15 -15 0 -20 6 -19 30
5 22 22 25 30 10 30 -5 0 -10 -4 -10 -10z"/>
<path d="M4630 5271 c0 -6 -7 -11 -15 -11 -9 0 -18 -7 -21 -15 -4 -8 -12 -15
-19 -15 -7 0 -18 -6 -24 -13 -8 -11 -7 -14 7 -14 9 0 19 3 22 6 3 4 20 18 38
33 17 15 28 30 22 33 -5 3 -10 1 -10 -4z"/>
<path d="M6480 5235 c-10 -12 -9 -15 8 -15 11 0 25 7 32 15 10 12 9 15 -8 15
-11 0 -25 -7 -32 -15z"/>
<path d="M4118 5218 c-16 -5 -28 -14 -28 -19 0 -5 -5 -9 -11 -9 -5 0 -30 -19
-54 -42 -69 -69 -92 -88 -104 -88 -6 0 -11 -7 -11 -15 0 -18 21 -9 55 22 11
10 36 30 55 44 19 15 48 38 63 53 15 14 31 26 35 26 4 0 13 9 20 20 7 11 11
20 10 19 -2 0 -15 -5 -30 -11z"/>
<path d="M6187 5195 c-17 -21 -23 -35 -15 -35 12 0 53 59 45 66 -1 2 -15 -12
-30 -31z"/>
<path d="M5952 5189 c-19 -31 -9 -33 18 -4 16 17 19 25 9 25 -8 0 -20 -9 -27
-21z"/>
<path d="M6440 5201 c0 -4 -22 -33 -49 -62 -28 -30 -45 -56 -38 -58 10 -4 116
106 117 122 0 4 -7 7 -15 7 -8 0 -15 -4 -15 -9z"/>
<path d="M4510 5175 c-8 -8 -30 -27 -47 -41 -18 -14 -33 -32 -33 -40 0 -9 -5
-12 -11 -9 -10 7 -59 -38 -59 -55 0 -22 46 9 120 81 58 55 77 79 63 79 -10 0
-25 -7 -33 -15z"/>
<path d="M4775 5150 c-10 -11 -14 -20 -8 -20 5 0 18 9 28 20 10 11 14 20 8 20
-5 0 -18 -9 -28 -20z"/>
<path d="M5890 5140 c0 -5 6 -10 14 -10 8 0 18 5 21 10 3 6 -3 10 -14 10 -12
0 -21 -4 -21 -10z"/>
<path d="M6132 5115 c-12 -19 -18 -35 -12 -35 13 0 43 46 38 59 -1 6 -13 -5
-26 -24z"/>
<path d="M4695 5094 c-49 -37 -67 -55 -61 -61 13 -14 120 69 114 88 -2 6 -26
-7 -53 -27z"/>
<path d="M4960 5123 c-8 -3 -19 -10 -25 -14 -5 -5 -30 -25 -55 -44 -25 -19
-54 -43 -65 -53 -39 -36 -103 -82 -113 -82 -6 0 -17 -8 -24 -18 -7 -10 -31
-29 -53 -42 -52 -32 -142 -117 -133 -126 4 -3 29 11 55 33 26 22 70 55 97 74
157 110 193 136 221 165 11 11 28 23 38 27 9 3 17 11 17 17 0 5 5 10 10 10 14
0 70 42 70 52 0 9 -18 9 -40 1z"/>
<path d="M5823 5123 c-12 -2 -27 -11 -33 -19 -7 -8 -20 -14 -28 -14 -12 0 -13
-3 -5 -11 8 -8 17 -7 34 5 13 9 31 16 39 16 9 0 25 7 36 15 19 14 19 14 -1 13
-11 0 -30 -3 -42 -5z"/>
<path d="M6250 5049 c-30 -10 -56 -19 -57 -19 -2 0 -3 -6 -3 -14 0 -16 -53
-46 -81 -46 -10 0 -21 -4 -24 -10 -4 -6 8 -10 29 -10 25 0 44 9 68 30 18 17
53 38 78 47 51 19 66 28 53 36 -5 3 -33 -3 -63 -14z"/>
<path d="M4581 5006 c-13 -7 -19 -16 -14 -19 11 -7 51 18 43 26 -3 3 -16 0
-29 -7z"/>
<path d="M3830 4980 c-17 -16 -35 -30 -39 -30 -5 0 -20 -13 -33 -28 -13 -15
-31 -31 -41 -35 -9 -3 -17 -11 -17 -17 0 -5 -6 -10 -13 -10 -7 0 -18 -9 -25
-20 -7 -11 -19 -20 -27 -20 -8 0 -15 -3 -15 -7 0 -5 -25 -26 -55 -48 -31 -22
-74 -59 -95 -82 -22 -24 -44 -43 -50 -43 -5 0 -10 -4 -10 -10 0 -5 -16 -20
-35 -33 -19 -13 -32 -26 -29 -29 2 -3 -7 -8 -21 -12 -29 -7 -34 -36 -7 -36 21
0 56 33 45 43 -3 4 3 7 15 7 15 0 22 6 22 19 0 11 9 23 21 26 23 8 60 37 121
96 20 19 55 48 78 64 23 16 51 40 63 55 12 14 42 40 67 57 66 46 132 110 121
117 -5 4 -24 -7 -41 -24z"/>
<path d="M4269 4971 c-14 -14 -46 -45 -70 -68 -24 -23 -50 -47 -57 -55 -44
-44 -60 -58 -65 -58 -11 0 -68 -62 -62 -68 3 -3 -9 -12 -27 -20 -28 -13 -30
-16 -13 -20 10 -2 21 1 23 7 2 6 8 11 13 11 5 0 17 8 27 18 19 17 89 78 173
149 25 22 63 56 83 76 20 20 41 37 46 37 24 0 7 16 -17 17 -18 1 -37 -9 -54
-26z"/>
<path d="M4509 4952 c-9 -9 -31 -28 -49 -42 -19 -14 -47 -37 -63 -52 -16 -16
-32 -28 -36 -28 -5 0 -24 -14 -42 -30 -19 -17 -48 -37 -66 -46 -17 -9 -54 -39
-81 -67 -27 -29 -64 -63 -82 -77 -18 -14 -47 -40 -64 -57 -17 -18 -37 -33 -43
-33 -7 0 -13 -4 -13 -10 0 -14 28 -12 37 3 4 7 19 20 33 29 14 8 50 40 80 69
31 30 74 67 95 83 22 17 47 37 55 46 8 8 27 21 42 29 31 16 109 77 154 121 17
16 36 30 41 30 11 0 43 32 43 43 0 13 -25 6 -41 -11z"/>
<path d="M4435 4720 c-60 -39 -68 -45 -84 -62 -8 -10 -19 -18 -23 -18 -10 0
-235 -170 -268 -202 -14 -14 -37 -28 -52 -32 -16 -3 -28 -13 -28 -21 0 -8 2
-15 5 -15 13 0 82 41 105 62 45 40 104 84 138 102 18 9 38 25 45 36 6 11 16
20 22 20 6 0 22 11 36 24 14 13 43 35 65 48 42 27 80 65 73 73 -3 2 -18 -5
-34 -15z"/>
<path d="M3069 4640 c-39 -38 -68 -70 -63 -71 5 0 1 -4 -9 -7 -28 -12 -141
-111 -189 -167 -9 -11 -23 -25 -30 -31 -7 -6 -28 -29 -46 -51 -18 -22 -44 -46
-56 -52 -12 -7 -30 -25 -38 -39 -15 -26 -38 -48 -150 -153 -26 -24 -48 -47
-48 -51 0 -3 -37 -45 -82 -92 -104 -106 -118 -123 -110 -130 3 -3 -2 -6 -11
-6 -9 0 -22 -10 -28 -22 -7 -13 -25 -36 -41 -53 -80 -85 -147 -166 -177 -212
-18 -29 -37 -53 -43 -53 -5 0 -7 -4 -3 -9 3 -6 -1 -13 -8 -18 -14 -8 -54 -63
-56 -75 -1 -5 -17 -32 -36 -62 -19 -30 -35 -59 -35 -63 0 -4 -16 -39 -35 -77
-31 -63 -34 -76 -30 -133 3 -34 10 -75 16 -90 l11 -28 12 30 c9 20 10 36 4 49
-8 14 -7 17 4 14 7 -3 13 -10 13 -15 0 -25 15 -24 27 3 7 15 23 38 35 50 13
13 21 29 18 36 -3 7 9 21 26 31 20 11 29 22 25 32 -3 8 -1 15 4 15 16 0 80 61
74 71 -3 5 1 9 8 9 7 1 28 21 46 45 54 74 34 90 -26 21 -9 -11 -30 -32 -46
-48 -15 -16 -25 -32 -22 -35 3 -4 -8 -15 -25 -25 -22 -14 -30 -24 -26 -38 3
-11 1 -20 -5 -20 -14 0 -88 -79 -88 -95 0 -17 -39 -30 -52 -17 -6 6 -6 12 1
16 6 4 11 22 11 40 0 34 44 130 93 201 15 22 27 45 27 52 0 6 8 18 18 25 10 7
24 29 32 48 8 19 17 37 21 40 3 3 30 34 59 70 29 36 58 70 65 75 22 20 75 104
73 117 -2 7 4 13 14 13 16 0 88 63 88 77 0 4 20 26 45 49 25 23 45 48 45 55 0
7 10 19 23 25 29 16 48 41 42 57 -3 7 4 12 15 12 11 0 29 13 41 30 12 16 26
27 31 24 5 -3 13 8 19 25 7 20 18 31 30 31 11 0 19 7 19 16 0 9 11 25 25 36
13 10 24 25 22 31 -1 7 3 11 10 10 6 -2 29 16 50 39 21 22 61 63 88 90 28 28
49 56 47 64 -2 8 1 14 5 13 22 -4 31 3 26 21 -4 16 0 20 19 20 15 0 39 15 65
43 23 23 80 78 128 122 98 91 116 115 86 115 -11 0 -52 -31 -92 -70z"/>
<path d="M3930 4655 c0 -8 -5 -15 -11 -15 -7 0 -22 -11 -35 -25 -13 -14 -26
-25 -30 -25 -4 0 -17 -11 -30 -25 l-23 -25 24 0 c18 0 25 5 25 20 0 11 6 20
14 20 17 0 106 68 106 80 0 6 -9 10 -20 10 -11 0 -20 -7 -20 -15z"/>
<path d="M3798 4523 c7 -3 16 -2 19 1 4 3 -2 6 -13 5 -11 0 -14 -3 -6 -6z"/>
<path d="M3690 4450 c-29 -27 -59 -50 -67 -50 -7 0 -16 -7 -19 -15 -9 -22 -60
-75 -73 -75 -6 0 -11 -7 -11 -15 0 -8 -6 -15 -12 -15 -17 -1 -51 -30 -72 -63
-10 -15 -24 -27 -30 -27 -15 0 -57 -55 -49 -64 12 -12 22 -6 16 11 -5 13 -2
15 15 11 23 -6 48 15 37 32 -3 5 5 14 20 20 14 5 28 17 31 25 4 8 12 15 20 15
8 0 22 8 32 18 11 9 38 34 60 55 23 21 42 43 42 48 0 5 5 9 11 9 6 0 28 18 49
40 21 22 43 40 48 40 10 0 42 33 42 43 0 22 -45 0 -90 -43z"/>
<path d="M3921 4469 c-13 -11 -21 -23 -17 -26 4 -4 19 5 34 20 31 31 19 36
-17 6z"/>
<path d="M3202 4455 c-11 -14 -27 -25 -36 -25 -9 0 -16 -8 -16 -20 0 -30 33
-25 53 9 9 15 14 31 10 35 -3 3 1 6 10 6 10 0 17 5 17 10 0 18 -18 11 -38 -15z"/>
<path d="M3846 4409 c-29 -29 -12 -33 20 -5 19 16 24 25 14 25 -8 0 -24 -9
-34 -20z"/>
<path d="M3100 4362 c-24 -23 -28 -31 -18 -40 18 -14 51 10 42 31 -3 10 1 17
13 19 12 2 14 6 6 11 -7 4 -25 -5 -43 -21z"/>
<path d="M3928 4354 c-26 -13 -38 -34 -20 -34 26 1 51 15 55 31 6 23 1 23 -35
3z"/>
<path d="M3785 4350 c-3 -5 -1 -10 4 -10 6 0 11 5 11 10 0 6 -2 10 -4 10 -3 0
-8 -4 -11 -10z"/>
<path d="M3746 4324 c-17 -12 -17 -14 -4 -14 9 0 20 5 23 11 11 17 2 18 -19 3z"/>
<path d="M3045 4310 c-3 -6 1 -13 10 -16 19 -8 30 0 20 15 -8 14 -22 14 -30 1z"/>
<path d="M3840 4301 c0 -18 17 -20 36 -6 18 14 18 14 -8 15 -16 0 -28 -4 -28
-9z"/>
<path d="M3700 4274 c0 -8 5 -12 10 -9 6 3 10 10 10 16 0 5 -4 9 -10 9 -5 0
-10 -7 -10 -16z"/>
<path d="M2960 4230 c-25 -27 -63 -62 -85 -77 -22 -16 -49 -39 -61 -53 -22
-25 -39 -44 -100 -111 -17 -19 -43 -42 -58 -53 -14 -10 -23 -22 -21 -27 3 -4
-3 -10 -14 -14 -23 -7 -36 -36 -21 -45 11 -7 88 56 82 66 -2 3 11 18 29 32 18
15 58 53 90 85 32 31 63 57 69 57 5 0 10 6 10 13 0 6 17 26 36 42 48 40 56 48
74 75 8 12 25 26 38 31 12 5 22 13 22 19 0 5 -10 10 -22 10 -14 -1 -40 -19
-68 -50z"/>
<path d="M3760 4253 c-72 -40 -133 -50 -98 -15 9 9 8 12 -4 12 -9 0 -32 -18
-51 -39 -19 -22 -46 -42 -59 -46 -28 -9 -68 -50 -68 -71 0 -21 10 -17 45 19
35 36 109 80 119 70 6 -7 185 79 186 90 0 13 -24 6 -70 -20z"/>
<path d="M3315 4090 c4 -6 11 -8 16 -5 14 9 11 15 -7 15 -8 0 -12 -5 -9 -10z"/>
<path d="M3276 4064 c-9 -8 -16 -20 -16 -25 0 -5 -7 -9 -15 -9 -8 0 -15 -4
-15 -9 0 -5 -10 -11 -21 -13 -23 -3 -67 -53 -57 -64 12 -12 50 9 94 51 30 28
41 45 32 48 -7 2 -1 8 14 12 16 4 25 11 22 16 -8 13 -21 11 -38 -7z"/>
<path d="M3417 4056 c-18 -14 -22 -26 -9 -26 15 0 45 27 36 33 -5 3 -17 0 -27
-7z"/>
<path d="M3340 4000 c-14 -11 -33 -20 -42 -20 -10 0 -18 -4 -18 -9 0 -5 -27
-26 -60 -46 -33 -20 -60 -38 -60 -41 0 -2 11 -4 24 -4 21 0 111 54 144 87 8 7
22 18 33 23 19 10 26 30 12 30 -5 0 -19 -9 -33 -20z"/>
<path d="M7930 3950 c0 -5 9 -14 20 -20 22 -12 27 -1 8 18 -14 14 -28 16 -28
2z"/>
<path d="M3128 3920 c-52 -15 -128 -77 -128 -105 0 -8 -7 -15 -15 -15 -16 0
-38 -34 -28 -44 16 -15 34 -5 28 15 -7 21 -1 22 51 2 6 -2 22 7 36 19 14 13
35 30 47 38 26 18 29 45 4 35 -12 -4 -7 5 11 24 34 35 32 41 -6 31z"/>
<path d="M7990 3878 c0 -7 9 -31 19 -53 15 -33 20 -37 26 -22 5 11 1 24 -9 36
-9 10 -16 23 -16 29 0 6 -4 14 -10 17 -5 3 -10 0 -10 -7z"/>
<path d="M2563 3833 c4 -3 -1 -12 -11 -19 -15 -12 -14 -13 11 -14 20 0 27 5
27 20 0 12 -7 20 -17 20 -9 0 -13 -3 -10 -7z"/>
<path d="M2535 3780 c-3 -5 -13 -6 -22 -3 -10 4 -14 2 -12 -6 3 -7 8 -12 12
-12 4 1 13 1 21 1 8 0 16 7 20 15 6 16 -9 21 -19 5z"/>
<path d="M8052 3768 c8 -12 21 -24 28 -26 8 -3 6 5 -6 21 -23 32 -42 36 -22 5z"/>
<path d="M2435 3724 c-19 -21 -35 -44 -35 -51 0 -7 -5 -13 -11 -13 -14 0 -49
-39 -49 -54 0 -6 -17 -23 -38 -39 -20 -15 -46 -39 -57 -53 -11 -13 -35 -41
-52 -62 -18 -20 -33 -43 -33 -49 0 -7 -7 -13 -15 -13 -8 0 -15 -4 -15 -9 0
-26 56 10 111 72 35 39 88 95 117 126 28 30 52 60 53 65 0 6 19 25 42 41 41
30 55 64 29 73 -7 2 -28 -13 -47 -34z"/>
<path d="M2904 3725 c-4 -8 -12 -15 -18 -15 -7 0 -22 -11 -34 -25 -12 -14 -26
-25 -32 -25 -5 0 -10 -7 -10 -16 0 -18 -23 -44 -40 -44 -9 0 -26 -16 -77 -72
-6 -7 -36 -31 -66 -53 -30 -22 -58 -49 -63 -60 -5 -11 -18 -24 -29 -30 -37
-18 -105 -78 -105 -92 0 -7 -7 -13 -16 -13 -8 0 -43 -27 -76 -60 -34 -33 -65
-60 -70 -60 -4 0 -8 -7 -8 -15 0 -8 -5 -15 -11 -15 -16 0 -139 -121 -133 -131
3 -5 -2 -9 -11 -9 -9 0 -28 -11 -43 -25 -15 -14 -32 -25 -39 -25 -7 0 -10 -6
-7 -14 3 -9 -1 -13 -13 -13 -10 1 -17 -3 -16 -10 2 -6 -7 -15 -19 -19 -12 -3
-31 -17 -43 -30 -12 -13 -26 -24 -30 -24 -4 0 -18 -9 -32 -20 -14 -11 -34 -20
-43 -20 -10 0 -23 -7 -30 -15 -7 -9 -21 -13 -31 -10 -14 5 -17 2 -13 -9 5 -12
0 -16 -20 -16 -23 0 -25 2 -16 19 12 24 -4 38 -24 22 -16 -13 -27 -81 -13 -81
15 0 162 53 167 61 3 3 23 16 45 27 22 11 56 35 75 52 19 18 58 47 85 65 75
49 145 114 145 136 0 10 7 19 15 19 15 0 35 17 150 125 81 76 110 100 165 139
30 21 59 45 63 52 5 8 31 36 59 62 28 26 81 76 118 112 67 65 133 123 159 140
13 7 13 11 0 26 -13 16 -12 17 14 10 16 -4 27 -2 27 4 0 16 -50 12 -56 -5z"/>
<path d="M8110 3713 c0 -4 20 -31 45 -58 30 -34 45 -44 45 -32 0 9 -4 17 -9
17 -5 0 -12 9 -16 20 -6 20 -65 68 -65 53z"/>
<path d="M8200 3592 c0 -5 9 -17 20 -27 16 -14 20 -15 20 -4 0 16 -19 39 -32
39 -4 0 -8 -4 -8 -8z"/>
<path d="M7950 3580 c0 -5 5 -10 11 -10 5 0 7 5 4 10 -3 6 -8 10 -11 10 -2 0
-4 -4 -4 -10z"/>
<path d="M8289 3517 c15 -19 66 -23 76 -7 3 6 0 10 -8 10 -8 0 -30 3 -48 7
-31 6 -33 5 -20 -10z"/>
<path d="M8400 3450 c0 -5 5 -10 10 -10 6 0 10 5 10 10 0 6 -4 10 -10 10 -5 0
-10 -4 -10 -10z"/>
<path d="M8422 3418 c3 -7 12 -14 21 -16 12 -2 15 1 11 12 -7 19 -38 22 -32 4z"/>
<path d="M8460 3366 c0 -9 5 -16 10 -16 6 0 10 4 10 9 0 6 -4 13 -10 16 -5 3
-10 -1 -10 -9z"/>
<path d="M2105 3350 c-3 -5 3 -10 14 -10 12 0 21 5 21 10 0 6 -6 10 -14 10 -8
0 -18 -4 -21 -10z"/>
<path d="M8532 3140 c0 -14 2 -19 5 -12 2 6 2 18 0 25 -3 6 -5 1 -5 -13z"/>
<path d="M8520 3090 c0 -5 5 -10 10 -10 6 0 10 5 10 10 0 6 -4 10 -10 10 -5 0
-10 -4 -10 -10z"/>
<path d="M1733 2877 c-13 -27 0 -58 16 -42 15 15 18 57 5 62 -6 2 -15 -7 -21
-20z"/>
<path d="M1706 2833 c-11 -11 -6 -23 9 -23 8 0 15 4 15 9 0 13 -16 22 -24 14z"/>
<path d="M385 1800 c-3 -5 1 -10 10 -10 9 0 13 5 10 10 -3 6 -8 10 -10 10 -2
0 -7 -4 -10 -10z"/>
<path d="M400 1770 c0 -5 5 -10 11 -10 5 0 7 5 4 10 -3 6 -8 10 -11 10 -2 0
-4 -4 -4 -10z"/>
<path d="M4048 163 c7 -3 16 -2 19 1 4 3 -2 6 -13 5 -11 0 -14 -3 -6 -6z"/>
</g>
</svg>
